G04 #@! TF.GenerationSoftware,KiCad,Pcbnew,9.0.4*
G04 #@! TF.CreationDate,2025-12-23T13:31:54+00:00*
G04 #@! TF.ProjectId,Lyra Avionics,4c797261-2041-4766-996f-6e6963732e6b,REV3*
G04 #@! TF.SameCoordinates,Original*
G04 #@! TF.FileFunction,Paste,Top*
G04 #@! TF.FilePolarity,Positive*
%FSLAX46Y46*%
G04 Gerber Fmt 4.6, Leading zero omitted, Abs format (unit mm)*
G04 Created by KiCad (PCBNEW 9.0.4) date 2025-12-23 13:31:54*
%MOMM*%
%LPD*%
G01*
G04 APERTURE LIST*
G04 Aperture macros list*
%AMRoundRect*
0 Rectangle with rounded corners*
0 $1 Rounding radius*
0 $2 $3 $4 $5 $6 $7 $8 $9 X,Y pos of 4 corners*
0 Add a 4 corners polygon primitive as box body*
4,1,4,$2,$3,$4,$5,$6,$7,$8,$9,$2,$3,0*
0 Add four circle primitives for the rounded corners*
1,1,$1+$1,$2,$3*
1,1,$1+$1,$4,$5*
1,1,$1+$1,$6,$7*
1,1,$1+$1,$8,$9*
0 Add four rect primitives between the rounded corners*
20,1,$1+$1,$2,$3,$4,$5,0*
20,1,$1+$1,$4,$5,$6,$7,0*
20,1,$1+$1,$6,$7,$8,$9,0*
20,1,$1+$1,$8,$9,$2,$3,0*%
G04 Aperture macros list end*
%ADD10R,0.270003X0.600000*%
%ADD11R,0.600000X0.270003*%
%ADD12R,0.540005X0.565659*%
%ADD13RoundRect,0.140000X0.140000X0.170000X-0.140000X0.170000X-0.140000X-0.170000X0.140000X-0.170000X0*%
%ADD14RoundRect,0.135000X-0.135000X-0.185000X0.135000X-0.185000X0.135000X0.185000X-0.135000X0.185000X0*%
%ADD15RoundRect,0.135000X0.135000X0.185000X-0.135000X0.185000X-0.135000X-0.185000X0.135000X-0.185000X0*%
%ADD16RoundRect,0.135000X-0.185000X0.135000X-0.185000X-0.135000X0.185000X-0.135000X0.185000X0.135000X0*%
%ADD17O,0.364008X0.767005*%
%ADD18RoundRect,0.140000X0.170000X-0.140000X0.170000X0.140000X-0.170000X0.140000X-0.170000X-0.140000X0*%
%ADD19RoundRect,0.250000X-0.250000X-0.475000X0.250000X-0.475000X0.250000X0.475000X-0.250000X0.475000X0*%
%ADD20RoundRect,0.250000X0.475000X-0.250000X0.475000X0.250000X-0.475000X0.250000X-0.475000X-0.250000X0*%
%ADD21RoundRect,0.250000X1.000000X0.650000X-1.000000X0.650000X-1.000000X-0.650000X1.000000X-0.650000X0*%
%ADD22R,1.600000X0.900000*%
%ADD23R,0.250013X0.521006*%
%ADD24RoundRect,0.135000X0.185000X-0.135000X0.185000X0.135000X-0.185000X0.135000X-0.185000X-0.135000X0*%
%ADD25R,1.500000X3.700000*%
%ADD26RoundRect,0.150000X-0.650000X-0.150000X0.650000X-0.150000X0.650000X0.150000X-0.650000X0.150000X0*%
%ADD27R,1.800000X0.700000*%
%ADD28RoundRect,0.140000X0.219203X0.021213X0.021213X0.219203X-0.219203X-0.021213X-0.021213X-0.219203X0*%
%ADD29R,3.000000X1.200000*%
%ADD30R,2.400000X1.200000*%
%ADD31RoundRect,0.140000X-0.140000X-0.170000X0.140000X-0.170000X0.140000X0.170000X-0.140000X0.170000X0*%
%ADD32R,1.400000X1.200000*%
%ADD33RoundRect,0.140000X-0.170000X0.140000X-0.170000X-0.140000X0.170000X-0.140000X0.170000X0.140000X0*%
%ADD34R,0.470000X0.530000*%
%ADD35R,0.650000X1.050000*%
%ADD36R,1.050000X0.650000*%
%ADD37R,0.300000X1.240000*%
%ADD38R,0.600000X1.240000*%
%ADD39R,0.133333X0.133333*%
%ADD40RoundRect,0.055000X-0.055000X-0.335000X0.055000X-0.335000X0.055000X0.335000X-0.055000X0.335000X0*%
%ADD41RoundRect,0.055000X0.335000X-0.055000X0.335000X0.055000X-0.335000X0.055000X-0.335000X-0.055000X0*%
%ADD42RoundRect,0.250000X-0.350000X-0.350000X0.350000X-0.350000X0.350000X0.350000X-0.350000X0.350000X0*%
%ADD43R,0.700000X1.700000*%
G04 APERTURE END LIST*
D10*
X82499771Y-86920015D03*
X81999898Y-86920015D03*
X81499771Y-86920015D03*
D11*
X80830023Y-86749936D03*
X80830023Y-86249809D03*
X80830023Y-85749936D03*
X80830023Y-85249809D03*
D10*
X81499771Y-85079985D03*
X81999898Y-85079985D03*
X82499771Y-85079985D03*
D11*
X83169977Y-85249809D03*
X83169977Y-85749936D03*
X83169977Y-86249809D03*
X83169977Y-86749936D03*
D12*
X79498720Y-87096574D03*
X79498720Y-86230940D03*
D13*
X78974359Y-85238734D03*
X79934359Y-85238734D03*
X81540000Y-84000000D03*
X82500000Y-84000000D03*
D14*
X83840023Y-87920015D03*
X82820023Y-87920015D03*
D15*
X80320023Y-87920015D03*
X81340023Y-87920015D03*
D16*
X73220926Y-91070047D03*
X73220926Y-92090047D03*
D17*
X75196034Y-89842538D03*
X74546047Y-89842538D03*
X73896059Y-89842538D03*
X73245818Y-89842538D03*
X73245818Y-87325392D03*
X73896059Y-87325392D03*
X74546047Y-87325392D03*
X75196034Y-87325392D03*
D16*
X74220926Y-91073965D03*
X74220926Y-92093965D03*
D18*
X73720926Y-86063965D03*
X73720926Y-85103965D03*
X74720926Y-86063965D03*
X74720926Y-85103965D03*
D16*
X75202777Y-91058498D03*
X75202777Y-92078498D03*
D19*
X105050000Y-77500000D03*
X106950000Y-77500000D03*
D20*
X108740951Y-82314273D03*
X108740951Y-84214273D03*
D21*
X106000000Y-80500000D03*
X102000000Y-80500000D03*
X106000000Y-84000000D03*
X102000000Y-84000000D03*
D14*
X100490000Y-78000000D03*
X101510000Y-78000000D03*
D22*
X106050038Y-87249936D03*
D23*
X106800102Y-88199898D03*
X106299974Y-88199898D03*
X105800102Y-88199898D03*
X105299974Y-88199898D03*
X105299974Y-86299974D03*
X105800102Y-86299974D03*
X106299974Y-86299974D03*
X106800102Y-86299974D03*
D24*
X108000000Y-87000000D03*
X108000000Y-88020000D03*
D25*
X109499873Y-91500000D03*
X106500127Y-91500000D03*
D20*
X109500000Y-86550000D03*
X109500000Y-88450000D03*
D26*
X95751605Y-85244645D03*
X95751605Y-86514645D03*
X95751605Y-87784645D03*
X95751605Y-89054645D03*
X88551605Y-89054645D03*
X88551605Y-87784645D03*
X88551605Y-86514645D03*
X88551605Y-85244645D03*
D27*
X77899796Y-96599949D03*
X77899796Y-97700025D03*
X77899796Y-98800102D03*
X77899796Y-99899924D03*
X77899796Y-101000000D03*
X77899796Y-102100076D03*
X77899796Y-103199898D03*
X77899796Y-104299975D03*
X77899796Y-105400051D03*
X87500000Y-105400051D03*
X87500000Y-104299975D03*
X87500000Y-103199898D03*
X87500000Y-102100076D03*
X87500000Y-101000000D03*
X87500000Y-99899924D03*
X87500000Y-98800102D03*
X87500000Y-97700025D03*
X87500000Y-96599949D03*
D28*
X95320987Y-92598773D03*
X94642165Y-91919951D03*
D29*
X93699975Y-124000000D03*
D30*
X94000000Y-122000000D03*
X94000000Y-120000000D03*
X94000000Y-118000000D03*
X94000000Y-116000000D03*
X94000000Y-114000000D03*
X94000000Y-112000000D03*
X94000000Y-110000000D03*
X78000000Y-110000000D03*
X78000000Y-112000000D03*
X78000000Y-114000000D03*
X78000000Y-116000000D03*
X78000000Y-118000000D03*
X78000000Y-120000000D03*
X78000000Y-122000000D03*
X78000051Y-124000000D03*
D31*
X97000000Y-117000000D03*
X97960000Y-117000000D03*
D19*
X96500000Y-118500000D03*
X98400000Y-118500000D03*
D13*
X90671605Y-102149645D03*
X91631605Y-102149645D03*
X94856605Y-82779645D03*
X95816605Y-82779645D03*
D31*
X101226605Y-110369645D03*
X100266605Y-110369645D03*
D18*
X98151605Y-90669645D03*
X98151605Y-91629645D03*
D31*
X107636605Y-100449645D03*
X106676605Y-100449645D03*
X107131605Y-104449645D03*
X106171605Y-104449645D03*
D16*
X99151605Y-91659645D03*
X99151605Y-90639645D03*
D13*
X90671605Y-97049645D03*
X91631605Y-97049645D03*
X97296605Y-110369645D03*
X98256605Y-110369645D03*
D16*
X100151605Y-91659645D03*
X100151605Y-90639645D03*
D31*
X107631605Y-95649645D03*
X106671605Y-95649645D03*
D16*
X99351605Y-108764645D03*
X99351605Y-107744645D03*
D32*
X98051605Y-113099645D03*
X100251605Y-113099645D03*
X100251605Y-114799645D03*
X98051605Y-114799645D03*
D16*
X104351605Y-92109645D03*
X104351605Y-91089645D03*
D33*
X104351605Y-93929645D03*
X104351605Y-92969645D03*
D34*
X102666605Y-92949645D03*
X101636605Y-92949645D03*
D35*
X91501605Y-81924645D03*
X91501605Y-77799645D03*
X93651605Y-81949645D03*
X93651605Y-77799645D03*
D36*
X106101605Y-107874645D03*
X110226605Y-107874645D03*
X106076605Y-110024645D03*
X110226605Y-110024645D03*
D37*
X101501605Y-76069645D03*
X100501605Y-76069645D03*
X99001605Y-76069645D03*
X98001605Y-76069645D03*
D38*
X97351605Y-76069645D03*
X96551605Y-76069645D03*
D37*
X98501605Y-76069645D03*
X99501605Y-76069645D03*
X100001605Y-76069645D03*
X101001605Y-76069645D03*
D38*
X102151605Y-76069645D03*
X102951605Y-76069645D03*
D34*
X102666605Y-93899645D03*
X101636605Y-93899645D03*
D14*
X87010000Y-85245427D03*
X85990000Y-85245427D03*
X85990000Y-84000000D03*
X87010000Y-84000000D03*
D33*
X100551605Y-108729645D03*
X100551605Y-107769645D03*
D31*
X97651605Y-77949645D03*
X96651605Y-77949645D03*
D39*
X100284938Y-101082978D03*
X100284938Y-99949645D03*
X100284938Y-98816312D03*
X99151605Y-101082978D03*
X99151605Y-99949645D03*
X99151605Y-98816312D03*
X98018272Y-101082978D03*
X98018272Y-99949645D03*
X98018272Y-98816312D03*
D40*
X95351605Y-95053145D03*
X95751605Y-95053145D03*
X96151605Y-95053145D03*
X96551605Y-95053145D03*
X96951605Y-95053145D03*
X97351605Y-95053145D03*
X97751605Y-95053145D03*
X98151605Y-95053145D03*
X98551605Y-95053145D03*
X98951605Y-95053145D03*
X99351605Y-95053145D03*
X99751605Y-95053145D03*
X100151605Y-95053145D03*
X100551605Y-95053145D03*
X100951605Y-95053145D03*
X101351605Y-95053145D03*
X101751605Y-95053145D03*
X102151605Y-95053145D03*
X102551605Y-95053145D03*
X102951605Y-95053145D03*
D41*
X104048105Y-96149645D03*
X104048105Y-96549645D03*
X104048105Y-96949645D03*
X104048105Y-97349645D03*
X104048105Y-97749645D03*
X104048105Y-98149645D03*
X104048105Y-98549645D03*
X104048105Y-98949645D03*
X104048105Y-99349645D03*
X104048105Y-99749645D03*
X104048105Y-100149645D03*
X104048105Y-100549645D03*
X104048105Y-100949645D03*
X104048105Y-101349645D03*
X104048105Y-101749645D03*
X104048105Y-102149645D03*
X104048105Y-102549645D03*
X104048105Y-102949645D03*
X104048105Y-103349645D03*
X104048105Y-103749645D03*
D40*
X102951605Y-104846145D03*
X102551605Y-104846145D03*
X102151605Y-104846145D03*
X101751605Y-104846145D03*
X101351605Y-104846145D03*
X100951605Y-104846145D03*
X100551605Y-104846145D03*
X100151605Y-104846145D03*
X99751605Y-104846145D03*
X99351605Y-104846145D03*
X98951605Y-104846145D03*
X98551605Y-104846145D03*
X98151605Y-104846145D03*
X97751605Y-104846145D03*
X97351605Y-104846145D03*
X96951605Y-104846145D03*
X96551605Y-104846145D03*
X96151605Y-104846145D03*
X95751605Y-104846145D03*
X95351605Y-104846145D03*
D41*
X94255105Y-103749645D03*
X94255105Y-103349645D03*
X94255105Y-102949645D03*
X94255105Y-102549645D03*
X94255105Y-102149645D03*
X94255105Y-101749645D03*
X94255105Y-101349645D03*
X94255105Y-100949645D03*
X94255105Y-100549645D03*
X94255105Y-100149645D03*
X94255105Y-99749645D03*
X94255105Y-99349645D03*
X94255105Y-98949645D03*
X94255105Y-98549645D03*
X94255105Y-98149645D03*
X94255105Y-97749645D03*
X94255105Y-97349645D03*
X94255105Y-96949645D03*
X94255105Y-96549645D03*
X94255105Y-96149645D03*
D42*
X99851605Y-100649645D03*
X99851605Y-99249645D03*
X98451605Y-100649645D03*
X98451605Y-99249645D03*
D43*
X102851605Y-91299645D03*
X101451605Y-91299645D03*
D13*
X90671605Y-99749645D03*
X91631605Y-99749645D03*
X93971605Y-106649645D03*
X94931605Y-106649645D03*
D15*
X103751771Y-110044541D03*
X104771771Y-110044541D03*
D31*
X107631605Y-99449645D03*
X106671605Y-99449645D03*
D33*
X97851605Y-108729645D03*
X97851605Y-107769645D03*
M02*
