G04 #@! TF.GenerationSoftware,KiCad,Pcbnew,9.0.4*
G04 #@! TF.CreationDate,2025-12-23T13:31:54+00:00*
G04 #@! TF.ProjectId,Lyra Avionics,4c797261-2041-4766-996f-6e6963732e6b,REV3*
G04 #@! TF.SameCoordinates,Original*
G04 #@! TF.FileFunction,Copper,L2,Inr*
G04 #@! TF.FilePolarity,Positive*
%FSLAX46Y46*%
G04 Gerber Fmt 4.6, Leading zero omitted, Abs format (unit mm)*
G04 Created by KiCad (PCBNEW 9.0.4) date 2025-12-23 13:31:54*
%MOMM*%
%LPD*%
G01*
G04 APERTURE LIST*
G04 #@! TA.AperFunction,ComponentPad*
%ADD10C,2.500000*%
G04 #@! TD*
G04 #@! TA.AperFunction,ComponentPad*
%ADD11O,1.000000X1.800000*%
G04 #@! TD*
G04 #@! TA.AperFunction,ComponentPad*
%ADD12O,1.000000X2.100000*%
G04 #@! TD*
G04 #@! TA.AperFunction,ComponentPad*
%ADD13C,0.650000*%
G04 #@! TD*
G04 #@! TA.AperFunction,ComponentPad*
%ADD14C,0.600000*%
G04 #@! TD*
G04 #@! TA.AperFunction,ViaPad*
%ADD15C,0.600000*%
G04 #@! TD*
G04 APERTURE END LIST*
D10*
X101883936Y-126539424D03*
X96803926Y-126539424D03*
X96803926Y-121459414D03*
X101883936Y-121459414D03*
X99343931Y-123999419D03*
D11*
X104071605Y-71269645D03*
X95431605Y-71269645D03*
D12*
X95431605Y-75449645D03*
X104071605Y-75449645D03*
D13*
X96861605Y-74949645D03*
X102651605Y-74949645D03*
D14*
X100284938Y-101082978D03*
X100284938Y-99949645D03*
X100284938Y-98816312D03*
X99151605Y-101082978D03*
X99151605Y-99949645D03*
X99151605Y-98816312D03*
X98018272Y-101082978D03*
X98018272Y-99949645D03*
X98018272Y-98816312D03*
D15*
X93186626Y-100633731D03*
X92500000Y-101000000D03*
X92000000Y-107000000D03*
X91249997Y-107000000D03*
X82856446Y-89443384D03*
X82100023Y-88031083D03*
X97859656Y-109504176D03*
X100571950Y-109500000D03*
X108000000Y-104449645D03*
X108505000Y-100449645D03*
X108500000Y-99449645D03*
X108349261Y-95640373D03*
X110000000Y-95000000D03*
X109000000Y-95000000D03*
X110000000Y-94000000D03*
X109000000Y-94000000D03*
X103500000Y-88500000D03*
X103500000Y-87500000D03*
X103500000Y-86500000D03*
X104500000Y-86500000D03*
X104500000Y-88500000D03*
X104500000Y-87500000D03*
X107999999Y-88845820D03*
X105418690Y-88918690D03*
X98151605Y-90000000D03*
X94116667Y-91337680D03*
X90000000Y-99741888D03*
X90000000Y-102149645D03*
X89999999Y-97049319D03*
G04 #@! TA.AperFunction,Conductor*
G36*
X94466420Y-70320185D02*
G01*
X94512175Y-70372989D01*
X94522119Y-70442147D01*
X94513942Y-70471953D01*
X94470034Y-70577955D01*
X94470032Y-70577963D01*
X94431605Y-70771149D01*
X94431605Y-71019645D01*
X95131605Y-71019645D01*
X95131605Y-71519645D01*
X94431605Y-71519645D01*
X94431605Y-71768140D01*
X94470032Y-71961326D01*
X94470035Y-71961338D01*
X94545412Y-72143316D01*
X94545419Y-72143329D01*
X94654853Y-72307107D01*
X94654856Y-72307111D01*
X94794138Y-72446393D01*
X94794142Y-72446396D01*
X94957920Y-72555830D01*
X94957933Y-72555837D01*
X95139913Y-72631214D01*
X95181605Y-72639507D01*
X95181605Y-71836632D01*
X95191545Y-71853849D01*
X95247400Y-71909704D01*
X95315809Y-71949200D01*
X95392109Y-71969644D01*
X95471101Y-71969644D01*
X95547401Y-71949200D01*
X95615810Y-71909704D01*
X95671665Y-71853849D01*
X95681605Y-71836632D01*
X95681605Y-72639507D01*
X95723295Y-72631214D01*
X95723297Y-72631214D01*
X95905276Y-72555837D01*
X95905289Y-72555830D01*
X96069067Y-72446396D01*
X96069071Y-72446393D01*
X96208353Y-72307111D01*
X96208356Y-72307107D01*
X96317790Y-72143329D01*
X96317797Y-72143316D01*
X96393174Y-71961338D01*
X96393177Y-71961326D01*
X96431604Y-71768140D01*
X96431605Y-71768137D01*
X96431605Y-71519645D01*
X95731605Y-71519645D01*
X95731605Y-71019645D01*
X96431605Y-71019645D01*
X96431605Y-70771153D01*
X96431604Y-70771149D01*
X96393177Y-70577963D01*
X96393175Y-70577955D01*
X96349268Y-70471953D01*
X96341799Y-70402483D01*
X96373074Y-70340004D01*
X96433163Y-70304352D01*
X96463829Y-70300500D01*
X103039381Y-70300500D01*
X103106420Y-70320185D01*
X103152175Y-70372989D01*
X103162119Y-70442147D01*
X103153942Y-70471953D01*
X103110034Y-70577955D01*
X103110032Y-70577963D01*
X103071605Y-70771149D01*
X103071605Y-71019645D01*
X103771605Y-71019645D01*
X103771605Y-71519645D01*
X103071605Y-71519645D01*
X103071605Y-71768140D01*
X103110032Y-71961326D01*
X103110035Y-71961338D01*
X103185412Y-72143316D01*
X103185419Y-72143329D01*
X103294853Y-72307107D01*
X103294856Y-72307111D01*
X103434138Y-72446393D01*
X103434142Y-72446396D01*
X103597920Y-72555830D01*
X103597933Y-72555837D01*
X103779913Y-72631214D01*
X103821605Y-72639507D01*
X103821605Y-71836632D01*
X103831545Y-71853849D01*
X103887400Y-71909704D01*
X103955809Y-71949200D01*
X104032109Y-71969644D01*
X104111101Y-71969644D01*
X104187401Y-71949200D01*
X104255810Y-71909704D01*
X104311665Y-71853849D01*
X104321605Y-71836632D01*
X104321605Y-72639507D01*
X104363295Y-72631214D01*
X104363297Y-72631214D01*
X104545276Y-72555837D01*
X104545289Y-72555830D01*
X104709067Y-72446396D01*
X104709071Y-72446393D01*
X104848353Y-72307111D01*
X104848356Y-72307107D01*
X104957790Y-72143329D01*
X104957797Y-72143316D01*
X105033174Y-71961338D01*
X105033177Y-71961326D01*
X105071604Y-71768140D01*
X105071605Y-71768137D01*
X105071605Y-71519645D01*
X104371605Y-71519645D01*
X104371605Y-71019645D01*
X105071605Y-71019645D01*
X105071605Y-70771153D01*
X105071604Y-70771149D01*
X105033177Y-70577963D01*
X105033175Y-70577955D01*
X104989268Y-70471953D01*
X104981799Y-70402483D01*
X105013074Y-70340004D01*
X105073163Y-70304352D01*
X105103829Y-70300500D01*
X119077033Y-70300500D01*
X119144072Y-70320185D01*
X119189827Y-70372989D01*
X119201031Y-70424050D01*
X119403676Y-126465554D01*
X119411304Y-128575052D01*
X119391862Y-128642162D01*
X119339224Y-128688107D01*
X119287305Y-128699500D01*
X73421097Y-128699500D01*
X73354058Y-128679815D01*
X73308303Y-128627011D01*
X73297101Y-128576498D01*
X73294549Y-128259481D01*
X73279782Y-126424729D01*
X95053926Y-126424729D01*
X95053926Y-126654118D01*
X95053927Y-126654134D01*
X95083868Y-126881561D01*
X95143244Y-127103154D01*
X95231028Y-127315083D01*
X95231032Y-127315093D01*
X95345725Y-127513748D01*
X95345731Y-127513755D01*
X95402307Y-127587488D01*
X96126337Y-126863458D01*
X96139273Y-126894688D01*
X96221353Y-127017529D01*
X96325821Y-127121997D01*
X96448662Y-127204077D01*
X96479890Y-127217012D01*
X95755860Y-127941041D01*
X95755860Y-127941042D01*
X95829592Y-127997618D01*
X96028256Y-128112317D01*
X96028266Y-128112321D01*
X96240195Y-128200105D01*
X96461788Y-128259481D01*
X96689215Y-128289422D01*
X96689232Y-128289424D01*
X96918620Y-128289424D01*
X96918636Y-128289422D01*
X97146063Y-128259481D01*
X97367656Y-128200105D01*
X97579585Y-128112321D01*
X97579594Y-128112317D01*
X97778253Y-127997621D01*
X97778260Y-127997616D01*
X97851990Y-127941041D01*
X97127961Y-127217012D01*
X97159190Y-127204077D01*
X97282031Y-127121997D01*
X97386499Y-127017529D01*
X97468579Y-126894688D01*
X97481514Y-126863459D01*
X98205543Y-127587488D01*
X98262118Y-127513758D01*
X98262123Y-127513751D01*
X98376819Y-127315092D01*
X98376823Y-127315083D01*
X98464607Y-127103154D01*
X98523983Y-126881561D01*
X98553924Y-126654134D01*
X98553926Y-126654118D01*
X98553926Y-126424729D01*
X100133936Y-126424729D01*
X100133936Y-126654118D01*
X100133937Y-126654134D01*
X100163878Y-126881561D01*
X100223254Y-127103154D01*
X100311038Y-127315083D01*
X100311042Y-127315093D01*
X100425735Y-127513748D01*
X100425741Y-127513755D01*
X100482317Y-127587488D01*
X101206347Y-126863458D01*
X101219283Y-126894688D01*
X101301363Y-127017529D01*
X101405831Y-127121997D01*
X101528672Y-127204077D01*
X101559900Y-127217012D01*
X100835870Y-127941041D01*
X100835870Y-127941042D01*
X100909602Y-127997618D01*
X101108266Y-128112317D01*
X101108276Y-128112321D01*
X101320205Y-128200105D01*
X101541798Y-128259481D01*
X101769225Y-128289422D01*
X101769242Y-128289424D01*
X101998630Y-128289424D01*
X101998646Y-128289422D01*
X102226073Y-128259481D01*
X102447666Y-128200105D01*
X102659595Y-128112321D01*
X102659604Y-128112317D01*
X102858263Y-127997621D01*
X102858270Y-127997616D01*
X102932000Y-127941041D01*
X102207971Y-127217012D01*
X102239200Y-127204077D01*
X102362041Y-127121997D01*
X102466509Y-127017529D01*
X102548589Y-126894688D01*
X102561524Y-126863459D01*
X103285553Y-127587488D01*
X103342128Y-127513758D01*
X103342133Y-127513751D01*
X103456829Y-127315092D01*
X103456833Y-127315083D01*
X103544617Y-127103154D01*
X103603993Y-126881561D01*
X103633934Y-126654134D01*
X103633936Y-126654118D01*
X103633936Y-126424729D01*
X103633934Y-126424713D01*
X103603993Y-126197286D01*
X103544617Y-125975693D01*
X103456833Y-125763764D01*
X103456829Y-125763754D01*
X103342130Y-125565090D01*
X103285554Y-125491358D01*
X103285553Y-125491358D01*
X102561523Y-126215387D01*
X102548589Y-126184160D01*
X102466509Y-126061319D01*
X102362041Y-125956851D01*
X102239200Y-125874771D01*
X102207969Y-125861835D01*
X102932000Y-125137805D01*
X102932000Y-125137804D01*
X102858267Y-125081229D01*
X102858260Y-125081223D01*
X102659605Y-124966530D01*
X102659595Y-124966526D01*
X102447666Y-124878742D01*
X102226073Y-124819366D01*
X101998646Y-124789425D01*
X101998630Y-124789424D01*
X101769242Y-124789424D01*
X101769225Y-124789425D01*
X101541798Y-124819366D01*
X101320205Y-124878742D01*
X101108276Y-124966526D01*
X101108266Y-124966530D01*
X100909609Y-125081225D01*
X100909595Y-125081234D01*
X100835870Y-125137804D01*
X101559900Y-125861835D01*
X101528672Y-125874771D01*
X101405831Y-125956851D01*
X101301363Y-126061319D01*
X101219283Y-126184160D01*
X101206347Y-126215388D01*
X100482316Y-125491358D01*
X100425746Y-125565083D01*
X100425737Y-125565097D01*
X100311042Y-125763754D01*
X100311038Y-125763764D01*
X100223254Y-125975693D01*
X100163878Y-126197286D01*
X100133937Y-126424713D01*
X100133936Y-126424729D01*
X98553926Y-126424729D01*
X98553924Y-126424713D01*
X98523983Y-126197286D01*
X98464607Y-125975693D01*
X98376823Y-125763764D01*
X98376819Y-125763754D01*
X98262120Y-125565090D01*
X98205544Y-125491358D01*
X98205543Y-125491358D01*
X97481513Y-126215387D01*
X97468579Y-126184160D01*
X97386499Y-126061319D01*
X97282031Y-125956851D01*
X97159190Y-125874771D01*
X97127959Y-125861835D01*
X97851990Y-125137805D01*
X97851990Y-125137804D01*
X97778257Y-125081229D01*
X97778250Y-125081223D01*
X97579595Y-124966530D01*
X97579585Y-124966526D01*
X97367656Y-124878742D01*
X97146063Y-124819366D01*
X96918636Y-124789425D01*
X96918620Y-124789424D01*
X96689232Y-124789424D01*
X96689215Y-124789425D01*
X96461788Y-124819366D01*
X96240195Y-124878742D01*
X96028266Y-124966526D01*
X96028256Y-124966530D01*
X95829599Y-125081225D01*
X95829585Y-125081234D01*
X95755860Y-125137804D01*
X96479890Y-125861835D01*
X96448662Y-125874771D01*
X96325821Y-125956851D01*
X96221353Y-126061319D01*
X96139273Y-126184160D01*
X96126337Y-126215388D01*
X95402306Y-125491358D01*
X95345736Y-125565083D01*
X95345727Y-125565097D01*
X95231032Y-125763754D01*
X95231028Y-125763764D01*
X95143244Y-125975693D01*
X95083868Y-126197286D01*
X95053927Y-126424713D01*
X95053926Y-126424729D01*
X73279782Y-126424729D01*
X73259375Y-123889197D01*
X97943431Y-123889197D01*
X97943431Y-124109640D01*
X97977916Y-124327371D01*
X98046034Y-124537022D01*
X98046035Y-124537025D01*
X98146118Y-124733444D01*
X98275683Y-124911777D01*
X98275687Y-124911782D01*
X98431567Y-125067662D01*
X98431572Y-125067666D01*
X98587123Y-125180679D01*
X98609909Y-125197234D01*
X98738306Y-125262656D01*
X98806324Y-125297314D01*
X98806327Y-125297315D01*
X98911152Y-125331374D01*
X99015980Y-125365434D01*
X99233709Y-125399919D01*
X99233710Y-125399919D01*
X99454152Y-125399919D01*
X99454153Y-125399919D01*
X99671882Y-125365434D01*
X99881537Y-125297314D01*
X100077953Y-125197234D01*
X100166173Y-125133138D01*
X100231826Y-125085440D01*
X100231827Y-125085439D01*
X100256292Y-125067664D01*
X100256292Y-125067663D01*
X100256296Y-125067661D01*
X100412173Y-124911784D01*
X100541746Y-124733441D01*
X100641826Y-124537025D01*
X100709946Y-124327370D01*
X100744431Y-124109641D01*
X100744431Y-123889197D01*
X100742030Y-123874038D01*
X112899500Y-123874038D01*
X112899500Y-124125961D01*
X112938910Y-124374785D01*
X113016760Y-124614383D01*
X113131132Y-124838848D01*
X113279201Y-125042649D01*
X113279205Y-125042654D01*
X113457345Y-125220794D01*
X113457350Y-125220798D01*
X113635117Y-125349952D01*
X113661155Y-125368870D01*
X113804184Y-125441747D01*
X113885616Y-125483239D01*
X113885618Y-125483239D01*
X113885621Y-125483241D01*
X114125215Y-125561090D01*
X114374038Y-125600500D01*
X114374039Y-125600500D01*
X114625961Y-125600500D01*
X114625962Y-125600500D01*
X114874785Y-125561090D01*
X115114379Y-125483241D01*
X115338845Y-125368870D01*
X115542656Y-125220793D01*
X115720793Y-125042656D01*
X115868870Y-124838845D01*
X115983241Y-124614379D01*
X116061090Y-124374785D01*
X116100500Y-124125962D01*
X116100500Y-123874038D01*
X116061090Y-123625215D01*
X115983241Y-123385621D01*
X115983239Y-123385618D01*
X115983239Y-123385616D01*
X115878202Y-123179471D01*
X115868870Y-123161155D01*
X115815037Y-123087060D01*
X115720798Y-122957350D01*
X115720794Y-122957345D01*
X115542654Y-122779205D01*
X115542649Y-122779201D01*
X115338848Y-122631132D01*
X115338847Y-122631131D01*
X115338845Y-122631130D01*
X115268747Y-122595413D01*
X115114383Y-122516760D01*
X114874785Y-122438910D01*
X114842149Y-122433741D01*
X114625962Y-122399500D01*
X114374038Y-122399500D01*
X114249626Y-122419205D01*
X114125214Y-122438910D01*
X113885616Y-122516760D01*
X113661151Y-122631132D01*
X113457350Y-122779201D01*
X113457345Y-122779205D01*
X113279205Y-122957345D01*
X113279201Y-122957350D01*
X113131132Y-123161151D01*
X113016760Y-123385616D01*
X112938910Y-123625214D01*
X112899500Y-123874038D01*
X100742030Y-123874038D01*
X100709946Y-123671468D01*
X100641826Y-123461813D01*
X100641826Y-123461812D01*
X100603001Y-123385616D01*
X100541746Y-123265397D01*
X100501071Y-123209412D01*
X100412178Y-123087060D01*
X100412174Y-123087055D01*
X100256296Y-122931177D01*
X100231825Y-122913398D01*
X100231823Y-122913395D01*
X100077956Y-122801606D01*
X100077955Y-122801605D01*
X100077953Y-122801604D01*
X100015027Y-122769541D01*
X99881537Y-122701523D01*
X99881534Y-122701522D01*
X99671883Y-122633404D01*
X99563017Y-122616161D01*
X99454153Y-122598919D01*
X99233709Y-122598919D01*
X99161132Y-122610414D01*
X99015978Y-122633404D01*
X98806327Y-122701522D01*
X98806324Y-122701523D01*
X98609905Y-122801606D01*
X98431572Y-122931171D01*
X98431567Y-122931175D01*
X98275687Y-123087055D01*
X98275683Y-123087060D01*
X98146118Y-123265393D01*
X98046035Y-123461812D01*
X98046034Y-123461815D01*
X97977916Y-123671466D01*
X97943431Y-123889197D01*
X73259375Y-123889197D01*
X73238895Y-121344719D01*
X95053926Y-121344719D01*
X95053926Y-121574108D01*
X95053927Y-121574124D01*
X95083868Y-121801551D01*
X95143244Y-122023144D01*
X95231028Y-122235073D01*
X95231032Y-122235083D01*
X95345725Y-122433738D01*
X95345731Y-122433745D01*
X95402307Y-122507478D01*
X96126337Y-121783448D01*
X96139273Y-121814678D01*
X96221353Y-121937519D01*
X96325821Y-122041987D01*
X96448662Y-122124067D01*
X96479890Y-122137002D01*
X95755860Y-122861031D01*
X95755860Y-122861032D01*
X95829592Y-122917608D01*
X96028256Y-123032307D01*
X96028266Y-123032311D01*
X96240195Y-123120095D01*
X96461788Y-123179471D01*
X96689215Y-123209412D01*
X96689232Y-123209414D01*
X96918620Y-123209414D01*
X96918636Y-123209412D01*
X97146063Y-123179471D01*
X97367656Y-123120095D01*
X97579585Y-123032311D01*
X97579594Y-123032307D01*
X97778253Y-122917611D01*
X97778260Y-122917606D01*
X97851990Y-122861031D01*
X97127961Y-122137002D01*
X97159190Y-122124067D01*
X97282031Y-122041987D01*
X97386499Y-121937519D01*
X97468579Y-121814678D01*
X97481514Y-121783449D01*
X98205543Y-122507478D01*
X98262118Y-122433748D01*
X98262123Y-122433741D01*
X98376819Y-122235082D01*
X98376823Y-122235073D01*
X98464607Y-122023144D01*
X98523983Y-121801551D01*
X98553924Y-121574124D01*
X98553926Y-121574108D01*
X98553926Y-121344719D01*
X100133936Y-121344719D01*
X100133936Y-121574108D01*
X100133937Y-121574124D01*
X100163878Y-121801551D01*
X100223254Y-122023144D01*
X100311038Y-122235073D01*
X100311042Y-122235083D01*
X100425735Y-122433738D01*
X100425741Y-122433745D01*
X100482317Y-122507478D01*
X101206347Y-121783448D01*
X101219283Y-121814678D01*
X101301363Y-121937519D01*
X101405831Y-122041987D01*
X101528672Y-122124067D01*
X101559900Y-122137002D01*
X100835870Y-122861031D01*
X100835870Y-122861032D01*
X100909602Y-122917608D01*
X101108266Y-123032307D01*
X101108276Y-123032311D01*
X101320205Y-123120095D01*
X101541798Y-123179471D01*
X101769225Y-123209412D01*
X101769242Y-123209414D01*
X101998630Y-123209414D01*
X101998646Y-123209412D01*
X102226073Y-123179471D01*
X102447666Y-123120095D01*
X102659595Y-123032311D01*
X102659604Y-123032307D01*
X102858263Y-122917611D01*
X102858270Y-122917606D01*
X102932000Y-122861031D01*
X102207971Y-122137002D01*
X102239200Y-122124067D01*
X102362041Y-122041987D01*
X102466509Y-121937519D01*
X102548589Y-121814678D01*
X102561524Y-121783449D01*
X103285553Y-122507478D01*
X103342128Y-122433748D01*
X103342133Y-122433741D01*
X103456829Y-122235082D01*
X103456833Y-122235073D01*
X103544617Y-122023144D01*
X103603993Y-121801551D01*
X103633934Y-121574124D01*
X103633936Y-121574108D01*
X103633936Y-121344719D01*
X103633934Y-121344703D01*
X103603993Y-121117276D01*
X103544617Y-120895683D01*
X103456833Y-120683754D01*
X103456829Y-120683744D01*
X103342130Y-120485080D01*
X103285554Y-120411348D01*
X103285553Y-120411348D01*
X102561523Y-121135377D01*
X102548589Y-121104150D01*
X102466509Y-120981309D01*
X102362041Y-120876841D01*
X102239200Y-120794761D01*
X102207969Y-120781825D01*
X102932000Y-120057795D01*
X102932000Y-120057794D01*
X102858267Y-120001219D01*
X102858260Y-120001213D01*
X102659605Y-119886520D01*
X102659595Y-119886516D01*
X102447666Y-119798732D01*
X102226073Y-119739356D01*
X101998646Y-119709415D01*
X101998630Y-119709414D01*
X101769242Y-119709414D01*
X101769225Y-119709415D01*
X101541798Y-119739356D01*
X101320205Y-119798732D01*
X101108276Y-119886516D01*
X101108266Y-119886520D01*
X100909609Y-120001215D01*
X100909595Y-120001224D01*
X100835870Y-120057794D01*
X101559900Y-120781825D01*
X101528672Y-120794761D01*
X101405831Y-120876841D01*
X101301363Y-120981309D01*
X101219283Y-121104150D01*
X101206347Y-121135378D01*
X100482316Y-120411348D01*
X100425746Y-120485073D01*
X100425737Y-120485087D01*
X100311042Y-120683744D01*
X100311038Y-120683754D01*
X100223254Y-120895683D01*
X100163878Y-121117276D01*
X100133937Y-121344703D01*
X100133936Y-121344719D01*
X98553926Y-121344719D01*
X98553924Y-121344703D01*
X98523983Y-121117276D01*
X98464607Y-120895683D01*
X98376823Y-120683754D01*
X98376819Y-120683744D01*
X98262120Y-120485080D01*
X98205544Y-120411348D01*
X98205543Y-120411348D01*
X97481513Y-121135377D01*
X97468579Y-121104150D01*
X97386499Y-120981309D01*
X97282031Y-120876841D01*
X97159190Y-120794761D01*
X97127959Y-120781825D01*
X97851990Y-120057795D01*
X97851990Y-120057794D01*
X97778257Y-120001219D01*
X97778250Y-120001213D01*
X97579595Y-119886520D01*
X97579585Y-119886516D01*
X97367656Y-119798732D01*
X97146063Y-119739356D01*
X96918636Y-119709415D01*
X96918620Y-119709414D01*
X96689232Y-119709414D01*
X96689215Y-119709415D01*
X96461788Y-119739356D01*
X96240195Y-119798732D01*
X96028266Y-119886516D01*
X96028256Y-119886520D01*
X95829599Y-120001215D01*
X95829585Y-120001224D01*
X95755860Y-120057794D01*
X96479890Y-120781825D01*
X96448662Y-120794761D01*
X96325821Y-120876841D01*
X96221353Y-120981309D01*
X96139273Y-121104150D01*
X96126337Y-121135378D01*
X95402306Y-120411348D01*
X95345736Y-120485073D01*
X95345727Y-120485087D01*
X95231032Y-120683744D01*
X95231028Y-120683754D01*
X95143244Y-120895683D01*
X95083868Y-121117276D01*
X95053927Y-121344703D01*
X95053926Y-121344719D01*
X73238895Y-121344719D01*
X73238870Y-121341652D01*
X73228931Y-120106746D01*
X73174741Y-113374038D01*
X112899500Y-113374038D01*
X112899500Y-113625961D01*
X112938910Y-113874785D01*
X113016760Y-114114383D01*
X113131132Y-114338848D01*
X113279201Y-114542649D01*
X113279205Y-114542654D01*
X113457345Y-114720794D01*
X113457350Y-114720798D01*
X113635117Y-114849952D01*
X113661155Y-114868870D01*
X113804184Y-114941747D01*
X113885616Y-114983239D01*
X113885618Y-114983239D01*
X113885621Y-114983241D01*
X114125215Y-115061090D01*
X114374038Y-115100500D01*
X114374039Y-115100500D01*
X114625961Y-115100500D01*
X114625962Y-115100500D01*
X114874785Y-115061090D01*
X115114379Y-114983241D01*
X115338845Y-114868870D01*
X115542656Y-114720793D01*
X115720793Y-114542656D01*
X115868870Y-114338845D01*
X115983241Y-114114379D01*
X116061090Y-113874785D01*
X116100500Y-113625962D01*
X116100500Y-113374038D01*
X116061090Y-113125215D01*
X115983241Y-112885621D01*
X115983239Y-112885618D01*
X115983239Y-112885616D01*
X115941747Y-112804184D01*
X115868870Y-112661155D01*
X115849952Y-112635117D01*
X115720798Y-112457350D01*
X115720794Y-112457345D01*
X115542654Y-112279205D01*
X115542649Y-112279201D01*
X115338848Y-112131132D01*
X115338847Y-112131131D01*
X115338845Y-112131130D01*
X115268747Y-112095413D01*
X115114383Y-112016760D01*
X114874785Y-111938910D01*
X114625962Y-111899500D01*
X114374038Y-111899500D01*
X114249626Y-111919205D01*
X114125214Y-111938910D01*
X113885616Y-112016760D01*
X113661151Y-112131132D01*
X113457350Y-112279201D01*
X113457345Y-112279205D01*
X113279205Y-112457345D01*
X113279201Y-112457350D01*
X113131132Y-112661151D01*
X113016760Y-112885616D01*
X112938910Y-113125214D01*
X112899500Y-113374038D01*
X73174741Y-113374038D01*
X73174710Y-113370164D01*
X73122961Y-106940691D01*
X90799497Y-106940691D01*
X90799497Y-107059309D01*
X90830198Y-107173886D01*
X90889508Y-107276613D01*
X90973384Y-107360489D01*
X91076111Y-107419799D01*
X91190688Y-107450500D01*
X91190691Y-107450500D01*
X91309303Y-107450500D01*
X91309306Y-107450500D01*
X91423883Y-107419799D01*
X91526610Y-107360489D01*
X91537318Y-107349780D01*
X91598636Y-107316297D01*
X91668328Y-107321279D01*
X91712679Y-107349781D01*
X91723387Y-107360489D01*
X91826114Y-107419799D01*
X91940691Y-107450500D01*
X91940694Y-107450500D01*
X92059306Y-107450500D01*
X92059309Y-107450500D01*
X92173886Y-107419799D01*
X92276613Y-107360489D01*
X92360489Y-107276613D01*
X92419799Y-107173886D01*
X92450500Y-107059309D01*
X92450500Y-106940691D01*
X92419799Y-106826114D01*
X92360489Y-106723387D01*
X92276613Y-106639511D01*
X92173886Y-106580201D01*
X92059309Y-106549500D01*
X91940691Y-106549500D01*
X91826114Y-106580201D01*
X91826112Y-106580201D01*
X91826112Y-106580202D01*
X91723387Y-106639511D01*
X91723386Y-106639511D01*
X91712677Y-106650221D01*
X91651352Y-106683704D01*
X91581661Y-106678717D01*
X91537317Y-106650218D01*
X91526612Y-106639513D01*
X91526610Y-106639511D01*
X91423883Y-106580201D01*
X91309306Y-106549500D01*
X91190688Y-106549500D01*
X91076111Y-106580201D01*
X91076109Y-106580201D01*
X91076109Y-106580202D01*
X90973384Y-106639511D01*
X90973381Y-106639513D01*
X90889510Y-106723384D01*
X90889508Y-106723387D01*
X90830198Y-106826114D01*
X90799497Y-106940691D01*
X73122961Y-106940691D01*
X73122904Y-106933562D01*
X73074669Y-100940691D01*
X92049500Y-100940691D01*
X92049500Y-101059309D01*
X92080201Y-101173886D01*
X92139511Y-101276613D01*
X92223387Y-101360489D01*
X92326114Y-101419799D01*
X92440691Y-101450500D01*
X92440694Y-101450500D01*
X92559306Y-101450500D01*
X92559309Y-101450500D01*
X92673886Y-101419799D01*
X92776613Y-101360489D01*
X92860489Y-101276613D01*
X92919799Y-101173886D01*
X92924020Y-101158132D01*
X92960381Y-101098474D01*
X93023227Y-101067943D01*
X93075885Y-101070449D01*
X93127317Y-101084231D01*
X93127319Y-101084231D01*
X93245932Y-101084231D01*
X93245935Y-101084231D01*
X93360512Y-101053530D01*
X93463239Y-100994220D01*
X93547115Y-100910344D01*
X93606425Y-100807617D01*
X93637126Y-100693040D01*
X93637126Y-100574422D01*
X93606425Y-100459845D01*
X93547115Y-100357118D01*
X93463239Y-100273242D01*
X93360512Y-100213932D01*
X93245935Y-100183231D01*
X93127317Y-100183231D01*
X93012740Y-100213932D01*
X93012738Y-100213932D01*
X93012738Y-100213933D01*
X92910013Y-100273242D01*
X92910010Y-100273244D01*
X92826139Y-100357115D01*
X92826137Y-100357118D01*
X92766826Y-100459845D01*
X92766826Y-100459846D01*
X92762605Y-100475600D01*
X92726240Y-100535260D01*
X92663392Y-100565788D01*
X92610739Y-100563280D01*
X92559310Y-100549500D01*
X92559309Y-100549500D01*
X92440691Y-100549500D01*
X92326114Y-100580201D01*
X92326112Y-100580201D01*
X92326112Y-100580202D01*
X92223387Y-100639511D01*
X92223384Y-100639513D01*
X92139513Y-100723384D01*
X92139511Y-100723387D01*
X92080201Y-100826114D01*
X92049500Y-100940691D01*
X73074669Y-100940691D01*
X73074612Y-100933562D01*
X73029756Y-95360488D01*
X73028772Y-95238292D01*
X73028818Y-95233792D01*
X73029891Y-95195864D01*
X73030355Y-95179462D01*
X73030848Y-95171378D01*
X73053689Y-94928854D01*
X73056377Y-94912354D01*
X73093925Y-94751261D01*
X73100443Y-94731205D01*
X73144473Y-94626872D01*
X73156619Y-94604712D01*
X73201336Y-94539851D01*
X73220008Y-94518492D01*
X73220264Y-94518260D01*
X73277215Y-94466488D01*
X73294724Y-94453204D01*
X73313125Y-94441662D01*
X73325745Y-94434735D01*
X73361121Y-94417918D01*
X73373978Y-94412669D01*
X73380165Y-94410538D01*
X73419601Y-94396958D01*
X73432110Y-94393374D01*
X73488394Y-94380408D01*
X73500249Y-94378279D01*
X73573000Y-94368845D01*
X73583932Y-94367919D01*
X73672598Y-94364349D01*
X73679021Y-94364091D01*
X73684008Y-94363991D01*
X75973136Y-94363991D01*
X75973614Y-94363959D01*
X76043660Y-94363961D01*
X76277664Y-94333160D01*
X76505644Y-94272078D01*
X76723702Y-94181761D01*
X76928104Y-94063753D01*
X77088487Y-93940691D01*
X108549500Y-93940691D01*
X108549500Y-94059309D01*
X108580201Y-94173886D01*
X108639511Y-94276613D01*
X108723387Y-94360489D01*
X108779027Y-94392613D01*
X108827242Y-94443181D01*
X108840464Y-94511788D01*
X108814496Y-94576653D01*
X108779027Y-94607387D01*
X108723387Y-94639511D01*
X108723384Y-94639513D01*
X108639513Y-94723384D01*
X108639511Y-94723387D01*
X108581598Y-94823695D01*
X108580201Y-94826114D01*
X108549500Y-94940691D01*
X108549500Y-95059309D01*
X108580201Y-95173886D01*
X108639511Y-95276613D01*
X108723387Y-95360489D01*
X108826114Y-95419799D01*
X108940691Y-95450500D01*
X108940694Y-95450500D01*
X109059306Y-95450500D01*
X109059309Y-95450500D01*
X109173886Y-95419799D01*
X109276613Y-95360489D01*
X109360489Y-95276613D01*
X109392613Y-95220972D01*
X109443180Y-95172757D01*
X109511787Y-95159535D01*
X109576652Y-95185503D01*
X109607386Y-95220972D01*
X109639511Y-95276613D01*
X109723387Y-95360489D01*
X109826114Y-95419799D01*
X109940691Y-95450500D01*
X109940694Y-95450500D01*
X110059306Y-95450500D01*
X110059309Y-95450500D01*
X110173886Y-95419799D01*
X110276613Y-95360489D01*
X110360489Y-95276613D01*
X110419799Y-95173886D01*
X110450500Y-95059309D01*
X110450500Y-94940691D01*
X110419799Y-94826114D01*
X110360489Y-94723387D01*
X110276613Y-94639511D01*
X110220972Y-94607386D01*
X110172757Y-94556820D01*
X110159535Y-94488213D01*
X110185503Y-94423348D01*
X110220973Y-94392613D01*
X110276613Y-94360489D01*
X110360489Y-94276613D01*
X110419799Y-94173886D01*
X110450500Y-94059309D01*
X110450500Y-93940691D01*
X110419799Y-93826114D01*
X110360489Y-93723387D01*
X110276613Y-93639511D01*
X110173886Y-93580201D01*
X110059309Y-93549500D01*
X109940691Y-93549500D01*
X109826114Y-93580201D01*
X109826112Y-93580201D01*
X109826112Y-93580202D01*
X109723387Y-93639511D01*
X109723384Y-93639513D01*
X109639513Y-93723384D01*
X109639511Y-93723387D01*
X109613758Y-93767993D01*
X109607387Y-93779027D01*
X109556819Y-93827242D01*
X109488212Y-93840464D01*
X109423347Y-93814496D01*
X109392613Y-93779027D01*
X109386778Y-93768921D01*
X109360489Y-93723387D01*
X109276613Y-93639511D01*
X109173886Y-93580201D01*
X109059309Y-93549500D01*
X108940691Y-93549500D01*
X108826114Y-93580201D01*
X108826112Y-93580201D01*
X108826112Y-93580202D01*
X108723387Y-93639511D01*
X108723384Y-93639513D01*
X108639513Y-93723384D01*
X108639511Y-93723387D01*
X108585878Y-93816282D01*
X108580201Y-93826114D01*
X108549500Y-93940691D01*
X77088487Y-93940691D01*
X77115355Y-93920075D01*
X77125343Y-93910087D01*
X77190551Y-93844882D01*
X77282244Y-93753190D01*
X77282244Y-93753189D01*
X77282249Y-93753185D01*
X77425931Y-93565937D01*
X77543943Y-93361537D01*
X77634265Y-93143482D01*
X77695352Y-92915502D01*
X77726158Y-92681500D01*
X77726158Y-92563489D01*
X77726158Y-92515895D01*
X77726158Y-91523929D01*
X77726158Y-91479355D01*
X77691172Y-91314760D01*
X77622730Y-91161037D01*
X77523822Y-91024902D01*
X77398772Y-90912306D01*
X77253044Y-90828170D01*
X77253038Y-90828167D01*
X77093011Y-90776172D01*
X77093008Y-90776171D01*
X76925658Y-90758582D01*
X76758308Y-90776171D01*
X76758305Y-90776171D01*
X76758304Y-90776172D01*
X76598277Y-90828167D01*
X76598271Y-90828170D01*
X76452545Y-90912305D01*
X76327495Y-91024900D01*
X76228585Y-91161037D01*
X76160145Y-91314755D01*
X76160143Y-91314760D01*
X76137259Y-91422423D01*
X76125158Y-91479355D01*
X76125158Y-91523929D01*
X76125158Y-92015895D01*
X76125157Y-92015899D01*
X76125157Y-92035266D01*
X76125157Y-92053775D01*
X76125157Y-92057402D01*
X76124560Y-92069555D01*
X76112915Y-92187799D01*
X76108173Y-92211641D01*
X76075459Y-92319485D01*
X76066156Y-92341944D01*
X76013030Y-92441334D01*
X75999524Y-92461546D01*
X75928032Y-92548657D01*
X75910843Y-92565846D01*
X75823725Y-92637339D01*
X75803513Y-92650843D01*
X75704124Y-92703965D01*
X75681663Y-92713268D01*
X75573816Y-92745978D01*
X75549975Y-92750719D01*
X75431674Y-92762366D01*
X75419029Y-92762962D01*
X73224451Y-92754188D01*
X73224406Y-92754188D01*
X73214305Y-92754143D01*
X73213746Y-92753962D01*
X73171977Y-92753959D01*
X73171676Y-92753958D01*
X73171575Y-92753928D01*
X73160126Y-92753368D01*
X73042547Y-92741848D01*
X73018838Y-92737159D01*
X72911547Y-92704805D01*
X72889200Y-92695606D01*
X72804888Y-92650843D01*
X72790227Y-92643059D01*
X72770094Y-92629704D01*
X72683187Y-92558953D01*
X72666021Y-92541941D01*
X72644423Y-92515895D01*
X72594493Y-92455681D01*
X72580955Y-92435666D01*
X72527514Y-92337166D01*
X72518117Y-92314906D01*
X72484799Y-92207915D01*
X72479896Y-92184252D01*
X72467336Y-92066981D01*
X72466631Y-92053775D01*
X72466649Y-89384075D01*
X82405946Y-89384075D01*
X82405946Y-89502693D01*
X82436647Y-89617270D01*
X82495957Y-89719997D01*
X82579833Y-89803873D01*
X82682560Y-89863183D01*
X82797137Y-89893884D01*
X82797140Y-89893884D01*
X82915752Y-89893884D01*
X82915755Y-89893884D01*
X83030332Y-89863183D01*
X83133059Y-89803873D01*
X83216935Y-89719997D01*
X83276245Y-89617270D01*
X83306946Y-89502693D01*
X83306946Y-89384075D01*
X83276245Y-89269498D01*
X83216935Y-89166771D01*
X83133059Y-89082895D01*
X83030332Y-89023585D01*
X82915755Y-88992884D01*
X82797137Y-88992884D01*
X82682560Y-89023585D01*
X82682558Y-89023585D01*
X82682558Y-89023586D01*
X82579833Y-89082895D01*
X82579830Y-89082897D01*
X82495959Y-89166768D01*
X82495957Y-89166771D01*
X82438887Y-89265619D01*
X82436647Y-89269498D01*
X82405946Y-89384075D01*
X72466649Y-89384075D01*
X72466649Y-89375947D01*
X72466649Y-89338487D01*
X72466652Y-88859381D01*
X104968190Y-88859381D01*
X104968190Y-88977999D01*
X104998891Y-89092576D01*
X105058201Y-89195303D01*
X105142077Y-89279179D01*
X105244804Y-89338489D01*
X105359381Y-89369190D01*
X105359384Y-89369190D01*
X105477996Y-89369190D01*
X105477999Y-89369190D01*
X105592576Y-89338489D01*
X105695303Y-89279179D01*
X105779179Y-89195303D01*
X105838489Y-89092576D01*
X105869190Y-88977999D01*
X105869190Y-88859381D01*
X105849664Y-88786511D01*
X107549499Y-88786511D01*
X107549499Y-88905129D01*
X107580200Y-89019706D01*
X107639510Y-89122433D01*
X107723386Y-89206309D01*
X107826113Y-89265619D01*
X107940690Y-89296320D01*
X107940693Y-89296320D01*
X108059305Y-89296320D01*
X108059308Y-89296320D01*
X108173885Y-89265619D01*
X108276612Y-89206309D01*
X108360488Y-89122433D01*
X108419798Y-89019706D01*
X108450499Y-88905129D01*
X108450499Y-88786511D01*
X108419798Y-88671934D01*
X108360488Y-88569207D01*
X108276612Y-88485331D01*
X108173885Y-88426021D01*
X108059308Y-88395320D01*
X107940690Y-88395320D01*
X107826113Y-88426021D01*
X107826111Y-88426021D01*
X107826111Y-88426022D01*
X107723386Y-88485331D01*
X107723383Y-88485333D01*
X107639512Y-88569204D01*
X107639510Y-88569207D01*
X107580200Y-88671934D01*
X107549499Y-88786511D01*
X105849664Y-88786511D01*
X105838489Y-88744804D01*
X105779179Y-88642077D01*
X105695303Y-88558201D01*
X105592576Y-88498891D01*
X105477999Y-88468190D01*
X105359381Y-88468190D01*
X105244804Y-88498891D01*
X105244802Y-88498891D01*
X105244802Y-88498892D01*
X105142077Y-88558201D01*
X105142074Y-88558203D01*
X105058203Y-88642074D01*
X105058201Y-88642077D01*
X104998891Y-88744804D01*
X104968190Y-88859381D01*
X72466652Y-88859381D01*
X72466658Y-87971774D01*
X81649523Y-87971774D01*
X81649523Y-88090392D01*
X81680224Y-88204969D01*
X81739534Y-88307696D01*
X81823410Y-88391572D01*
X81926137Y-88450882D01*
X82040714Y-88481583D01*
X82040717Y-88481583D01*
X82159329Y-88481583D01*
X82159332Y-88481583D01*
X82273909Y-88450882D01*
X82376636Y-88391572D01*
X82460512Y-88307696D01*
X82519822Y-88204969D01*
X82550523Y-88090392D01*
X82550523Y-87971774D01*
X82519822Y-87857197D01*
X82460512Y-87754470D01*
X82376636Y-87670594D01*
X82273909Y-87611284D01*
X82159332Y-87580583D01*
X82040714Y-87580583D01*
X81926137Y-87611284D01*
X81926135Y-87611284D01*
X81926135Y-87611285D01*
X81823410Y-87670594D01*
X81823407Y-87670596D01*
X81739536Y-87754467D01*
X81739534Y-87754470D01*
X81680224Y-87857197D01*
X81649523Y-87971774D01*
X72466658Y-87971774D01*
X72466677Y-85072766D01*
X72467382Y-85059579D01*
X72480044Y-84941535D01*
X72484950Y-84917880D01*
X72518655Y-84809704D01*
X72528052Y-84787454D01*
X72582109Y-84687853D01*
X72595643Y-84667852D01*
X72667984Y-84580637D01*
X72685144Y-84563634D01*
X72773029Y-84492105D01*
X72793153Y-84478760D01*
X72893249Y-84425631D01*
X72915584Y-84416441D01*
X73024073Y-84383740D01*
X73047776Y-84379055D01*
X73167360Y-84367351D01*
X73179283Y-84366762D01*
X73183231Y-84366758D01*
X73183338Y-84366758D01*
X73220219Y-84366760D01*
X73220220Y-84366759D01*
X73229613Y-84366760D01*
X73230363Y-84366699D01*
X75419522Y-84363998D01*
X75431802Y-84364594D01*
X75549986Y-84376230D01*
X75573824Y-84380970D01*
X75665580Y-84408800D01*
X75681681Y-84413684D01*
X75704139Y-84422986D01*
X75803539Y-84476112D01*
X75823746Y-84489612D01*
X75910874Y-84561112D01*
X75928060Y-84578297D01*
X75999567Y-84665424D01*
X76013069Y-84685631D01*
X76066199Y-84785026D01*
X76075502Y-84807484D01*
X76108220Y-84915335D01*
X76112963Y-84939176D01*
X76124561Y-85056915D01*
X76125158Y-85069071D01*
X76125158Y-85647626D01*
X76149679Y-85762991D01*
X76160144Y-85812222D01*
X76228586Y-85965946D01*
X76327494Y-86102080D01*
X76327495Y-86102081D01*
X76327496Y-86102082D01*
X76327498Y-86102085D01*
X76403565Y-86170575D01*
X76452544Y-86214676D01*
X76598272Y-86298812D01*
X76598274Y-86298812D01*
X76598277Y-86298814D01*
X76654122Y-86316958D01*
X76758308Y-86350811D01*
X76925658Y-86368400D01*
X77093008Y-86350811D01*
X77253044Y-86298812D01*
X77398772Y-86214676D01*
X77496729Y-86126474D01*
X77523817Y-86102085D01*
X77523817Y-86102083D01*
X77523822Y-86102080D01*
X77622730Y-85965946D01*
X77691172Y-85812222D01*
X77726158Y-85647627D01*
X77726158Y-85563491D01*
X77726158Y-85515896D01*
X77726158Y-84614901D01*
X77726208Y-84614727D01*
X77726208Y-84563489D01*
X77726209Y-84563489D01*
X77726208Y-84445476D01*
X77695398Y-84211469D01*
X77634308Y-83983486D01*
X77543982Y-83765427D01*
X77425966Y-83561023D01*
X77282280Y-83373773D01*
X77115381Y-83206880D01*
X77115376Y-83206876D01*
X77115373Y-83206873D01*
X76928131Y-83063203D01*
X76928126Y-83063200D01*
X76723718Y-82945191D01*
X76723714Y-82945189D01*
X76723710Y-82945187D01*
X76723707Y-82945186D01*
X76505656Y-82854872D01*
X76454962Y-82841290D01*
X76277671Y-82793790D01*
X76277668Y-82793789D01*
X76165574Y-82779034D01*
X76043663Y-82762988D01*
X76043658Y-82762988D01*
X75973143Y-82762988D01*
X75965036Y-82762988D01*
X75964875Y-82762946D01*
X75925744Y-82762989D01*
X75924509Y-82762990D01*
X75924502Y-82762991D01*
X75869005Y-82762991D01*
X75868183Y-82763056D01*
X73462865Y-82765819D01*
X73457968Y-82765728D01*
X73355377Y-82761791D01*
X73344836Y-82760935D01*
X73264796Y-82750986D01*
X73253243Y-82748991D01*
X73192211Y-82735455D01*
X73179892Y-82732048D01*
X73130354Y-82715556D01*
X73117551Y-82710488D01*
X73080527Y-82693397D01*
X73067784Y-82686588D01*
X73048798Y-82674972D01*
X73030867Y-82661641D01*
X73017858Y-82650011D01*
X72975481Y-82612125D01*
X72956102Y-82590158D01*
X72915438Y-82531286D01*
X72902806Y-82508026D01*
X72863504Y-82412576D01*
X72856899Y-82391263D01*
X72824873Y-82241310D01*
X72822405Y-82223549D01*
X72807400Y-81995397D01*
X72807140Y-81985923D01*
X72807557Y-81947215D01*
X72808083Y-81939814D01*
X72808083Y-81899130D01*
X72808090Y-81897795D01*
X72808125Y-81894531D01*
X72808492Y-81860491D01*
X72808491Y-81860487D01*
X72808528Y-81857056D01*
X72808083Y-81849647D01*
X72808083Y-73874038D01*
X75899500Y-73874038D01*
X75899500Y-74125962D01*
X75905074Y-74161155D01*
X75938910Y-74374785D01*
X76016760Y-74614383D01*
X76131132Y-74838848D01*
X76279201Y-75042649D01*
X76279205Y-75042654D01*
X76457345Y-75220794D01*
X76457350Y-75220798D01*
X76570505Y-75303009D01*
X76661155Y-75368870D01*
X76804184Y-75441747D01*
X76885616Y-75483239D01*
X76885618Y-75483239D01*
X76885621Y-75483241D01*
X77125215Y-75561090D01*
X77374038Y-75600500D01*
X77374039Y-75600500D01*
X77625961Y-75600500D01*
X77625962Y-75600500D01*
X77874785Y-75561090D01*
X78114379Y-75483241D01*
X78338845Y-75368870D01*
X78542656Y-75220793D01*
X78720793Y-75042656D01*
X78868870Y-74838845D01*
X78888077Y-74801149D01*
X94431605Y-74801149D01*
X94431605Y-75199645D01*
X95131605Y-75199645D01*
X95131605Y-75699645D01*
X94431605Y-75699645D01*
X94431605Y-76098140D01*
X94470032Y-76291326D01*
X94470035Y-76291338D01*
X94545412Y-76473316D01*
X94545419Y-76473329D01*
X94654853Y-76637107D01*
X94654856Y-76637111D01*
X94794138Y-76776393D01*
X94794142Y-76776396D01*
X94957920Y-76885830D01*
X94957933Y-76885837D01*
X95139913Y-76961214D01*
X95181605Y-76969507D01*
X95181605Y-76166632D01*
X95191545Y-76183849D01*
X95247400Y-76239704D01*
X95315809Y-76279200D01*
X95392109Y-76299644D01*
X95471101Y-76299644D01*
X95547401Y-76279200D01*
X95615810Y-76239704D01*
X95671665Y-76183849D01*
X95681605Y-76166632D01*
X95681605Y-76969507D01*
X95723295Y-76961214D01*
X95723297Y-76961214D01*
X95905276Y-76885837D01*
X95905289Y-76885830D01*
X96069067Y-76776396D01*
X96069071Y-76776393D01*
X96208353Y-76637111D01*
X96208356Y-76637107D01*
X96317790Y-76473329D01*
X96317797Y-76473316D01*
X96393174Y-76291338D01*
X96393177Y-76291326D01*
X96431604Y-76098140D01*
X96431605Y-76098137D01*
X96431605Y-75699645D01*
X95731605Y-75699645D01*
X95731605Y-75199645D01*
X96269821Y-75199645D01*
X96336860Y-75219330D01*
X96377207Y-75261644D01*
X96401090Y-75303010D01*
X96508240Y-75410160D01*
X96639470Y-75485926D01*
X96785839Y-75525145D01*
X96785841Y-75525145D01*
X96937369Y-75525145D01*
X96937371Y-75525145D01*
X97083740Y-75485926D01*
X97214970Y-75410160D01*
X97322120Y-75303010D01*
X97397886Y-75171780D01*
X97437105Y-75025411D01*
X97437105Y-74873879D01*
X102076105Y-74873879D01*
X102076105Y-75025410D01*
X102115324Y-75171781D01*
X102131412Y-75199645D01*
X102191090Y-75303010D01*
X102298240Y-75410160D01*
X102429470Y-75485926D01*
X102575839Y-75525145D01*
X102575841Y-75525145D01*
X102727368Y-75525145D01*
X102727371Y-75525145D01*
X102873740Y-75485926D01*
X103004970Y-75410160D01*
X103112120Y-75303010D01*
X103136002Y-75261644D01*
X103186569Y-75213429D01*
X103243389Y-75199645D01*
X103771605Y-75199645D01*
X103771605Y-75699645D01*
X103071605Y-75699645D01*
X103071605Y-76098140D01*
X103110032Y-76291326D01*
X103110035Y-76291338D01*
X103185412Y-76473316D01*
X103185419Y-76473329D01*
X103294853Y-76637107D01*
X103294856Y-76637111D01*
X103434138Y-76776393D01*
X103434142Y-76776396D01*
X103597920Y-76885830D01*
X103597933Y-76885837D01*
X103779913Y-76961214D01*
X103821605Y-76969507D01*
X103821605Y-76166632D01*
X103831545Y-76183849D01*
X103887400Y-76239704D01*
X103955809Y-76279200D01*
X104032109Y-76299644D01*
X104111101Y-76299644D01*
X104187401Y-76279200D01*
X104255810Y-76239704D01*
X104311665Y-76183849D01*
X104321605Y-76166632D01*
X104321605Y-76969507D01*
X104363295Y-76961214D01*
X104363297Y-76961214D01*
X104545276Y-76885837D01*
X104545289Y-76885830D01*
X104709067Y-76776396D01*
X104709071Y-76776393D01*
X104848353Y-76637111D01*
X104848356Y-76637107D01*
X104957790Y-76473329D01*
X104957797Y-76473316D01*
X105033174Y-76291338D01*
X105033177Y-76291326D01*
X105071604Y-76098140D01*
X105071605Y-76098137D01*
X105071605Y-75699645D01*
X104371605Y-75699645D01*
X104371605Y-75199645D01*
X105071605Y-75199645D01*
X105071605Y-74874038D01*
X112899500Y-74874038D01*
X112899500Y-75125961D01*
X112938910Y-75374785D01*
X113016760Y-75614383D01*
X113131132Y-75838848D01*
X113279201Y-76042649D01*
X113279205Y-76042654D01*
X113457345Y-76220794D01*
X113457350Y-76220798D01*
X113554441Y-76291338D01*
X113661155Y-76368870D01*
X113804184Y-76441747D01*
X113885616Y-76483239D01*
X113885618Y-76483239D01*
X113885621Y-76483241D01*
X114125215Y-76561090D01*
X114374038Y-76600500D01*
X114374039Y-76600500D01*
X114625961Y-76600500D01*
X114625962Y-76600500D01*
X114874785Y-76561090D01*
X115114379Y-76483241D01*
X115338845Y-76368870D01*
X115542656Y-76220793D01*
X115720793Y-76042656D01*
X115868870Y-75838845D01*
X115983241Y-75614379D01*
X116061090Y-75374785D01*
X116100500Y-75125962D01*
X116100500Y-74874038D01*
X116061090Y-74625215D01*
X115983241Y-74385621D01*
X115983239Y-74385618D01*
X115983239Y-74385616D01*
X115941747Y-74304184D01*
X115868870Y-74161155D01*
X115761558Y-74013452D01*
X115720798Y-73957350D01*
X115720794Y-73957345D01*
X115542654Y-73779205D01*
X115542649Y-73779201D01*
X115338848Y-73631132D01*
X115338847Y-73631131D01*
X115338845Y-73631130D01*
X115268747Y-73595413D01*
X115114383Y-73516760D01*
X114874785Y-73438910D01*
X114625962Y-73399500D01*
X114374038Y-73399500D01*
X114249626Y-73419205D01*
X114125214Y-73438910D01*
X113885616Y-73516760D01*
X113661151Y-73631132D01*
X113457350Y-73779201D01*
X113457345Y-73779205D01*
X113279205Y-73957345D01*
X113279201Y-73957350D01*
X113131132Y-74161151D01*
X113016760Y-74385616D01*
X112938910Y-74625214D01*
X112899500Y-74874038D01*
X105071605Y-74874038D01*
X105071605Y-74801153D01*
X105071604Y-74801149D01*
X105033177Y-74607963D01*
X105033174Y-74607951D01*
X104957797Y-74425973D01*
X104957790Y-74425960D01*
X104848356Y-74262182D01*
X104848353Y-74262178D01*
X104709071Y-74122896D01*
X104709067Y-74122893D01*
X104545289Y-74013459D01*
X104545276Y-74013452D01*
X104363296Y-73938074D01*
X104363288Y-73938072D01*
X104321605Y-73929780D01*
X104321605Y-74732657D01*
X104311665Y-74715441D01*
X104255810Y-74659586D01*
X104187401Y-74620090D01*
X104111101Y-74599646D01*
X104032109Y-74599646D01*
X103955809Y-74620090D01*
X103887400Y-74659586D01*
X103831545Y-74715441D01*
X103821605Y-74732657D01*
X103821605Y-73929781D01*
X103821604Y-73929780D01*
X103779921Y-73938072D01*
X103779913Y-73938074D01*
X103597933Y-74013452D01*
X103597920Y-74013459D01*
X103434142Y-74122893D01*
X103434138Y-74122896D01*
X103294856Y-74262178D01*
X103294853Y-74262182D01*
X103185419Y-74425960D01*
X103185412Y-74425973D01*
X103183582Y-74430392D01*
X103139736Y-74484792D01*
X103073440Y-74506850D01*
X103007025Y-74490316D01*
X102873743Y-74413365D01*
X102873740Y-74413364D01*
X102727371Y-74374145D01*
X102575839Y-74374145D01*
X102429468Y-74413364D01*
X102298240Y-74489130D01*
X102298237Y-74489132D01*
X102191092Y-74596277D01*
X102191090Y-74596280D01*
X102115324Y-74727508D01*
X102076105Y-74873879D01*
X97437105Y-74873879D01*
X97397886Y-74727510D01*
X97322120Y-74596280D01*
X97214970Y-74489130D01*
X97122051Y-74435483D01*
X97083741Y-74413364D01*
X97010555Y-74393754D01*
X96937371Y-74374145D01*
X96785839Y-74374145D01*
X96639468Y-74413364D01*
X96548033Y-74466155D01*
X96508240Y-74489130D01*
X96508238Y-74489131D01*
X96501202Y-74493194D01*
X96499932Y-74490994D01*
X96446600Y-74511605D01*
X96378157Y-74497559D01*
X96328173Y-74448739D01*
X96321736Y-74435483D01*
X96317797Y-74425973D01*
X96317790Y-74425960D01*
X96208356Y-74262182D01*
X96208353Y-74262178D01*
X96069071Y-74122896D01*
X96069067Y-74122893D01*
X95905289Y-74013459D01*
X95905276Y-74013452D01*
X95723296Y-73938074D01*
X95723288Y-73938072D01*
X95681605Y-73929780D01*
X95681605Y-74732657D01*
X95671665Y-74715441D01*
X95615810Y-74659586D01*
X95547401Y-74620090D01*
X95471101Y-74599646D01*
X95392109Y-74599646D01*
X95315809Y-74620090D01*
X95247400Y-74659586D01*
X95191545Y-74715441D01*
X95181605Y-74732657D01*
X95181605Y-73929781D01*
X95181604Y-73929780D01*
X95139921Y-73938072D01*
X95139913Y-73938074D01*
X94957933Y-74013452D01*
X94957920Y-74013459D01*
X94794142Y-74122893D01*
X94794138Y-74122896D01*
X94654856Y-74262178D01*
X94654853Y-74262182D01*
X94545419Y-74425960D01*
X94545412Y-74425973D01*
X94470035Y-74607951D01*
X94470032Y-74607963D01*
X94431605Y-74801149D01*
X78888077Y-74801149D01*
X78983241Y-74614379D01*
X79061090Y-74374785D01*
X79100500Y-74125962D01*
X79100500Y-73874038D01*
X79061090Y-73625215D01*
X78983241Y-73385621D01*
X78983239Y-73385618D01*
X78983239Y-73385616D01*
X78941747Y-73304184D01*
X78868870Y-73161155D01*
X78849952Y-73135117D01*
X78720798Y-72957350D01*
X78720794Y-72957345D01*
X78542654Y-72779205D01*
X78542649Y-72779201D01*
X78338848Y-72631132D01*
X78338847Y-72631131D01*
X78338845Y-72631130D01*
X78268747Y-72595413D01*
X78114383Y-72516760D01*
X77874785Y-72438910D01*
X77625962Y-72399500D01*
X77374038Y-72399500D01*
X77249626Y-72419205D01*
X77125214Y-72438910D01*
X76885616Y-72516760D01*
X76661151Y-72631132D01*
X76457350Y-72779201D01*
X76457345Y-72779205D01*
X76279205Y-72957345D01*
X76279201Y-72957350D01*
X76131132Y-73161151D01*
X76016760Y-73385616D01*
X75974149Y-73516760D01*
X75938910Y-73625215D01*
X75899500Y-73874038D01*
X72808083Y-73874038D01*
X72808083Y-70424500D01*
X72827768Y-70357461D01*
X72880572Y-70311706D01*
X72932083Y-70300500D01*
X94399381Y-70300500D01*
X94466420Y-70320185D01*
G37*
G04 #@! TD.AperFunction*
M02*
