G04 #@! TF.GenerationSoftware,KiCad,Pcbnew,9.0.4*
G04 #@! TF.CreationDate,2025-12-23T13:31:54+00:00*
G04 #@! TF.ProjectId,Lyra Avionics,4c797261-2041-4766-996f-6e6963732e6b,REV3*
G04 #@! TF.SameCoordinates,Original*
G04 #@! TF.FileFunction,Legend,Top*
G04 #@! TF.FilePolarity,Positive*
%FSLAX46Y46*%
G04 Gerber Fmt 4.6, Leading zero omitted, Abs format (unit mm)*
G04 Created by KiCad (PCBNEW 9.0.4) date 2025-12-23 13:31:54*
%MOMM*%
%LPD*%
G01*
G04 APERTURE LIST*
%ADD10C,0.150000*%
%ADD11C,0.200000*%
%ADD12C,0.254001*%
%ADD13C,0.059995*%
%ADD14C,0.150013*%
%ADD15C,0.152400*%
%ADD16C,0.120000*%
%ADD17C,0.300000*%
%ADD18C,0.119990*%
%ADD19C,0.250000*%
%ADD20C,0.191421*%
G04 APERTURE END LIST*
D10*
G36*
X78484132Y-85179711D02*
G01*
X78514238Y-85190826D01*
X78525328Y-85200882D01*
X78533503Y-85213953D01*
X78539406Y-85233180D01*
X78541366Y-85256687D01*
X78541366Y-85672449D01*
X78537886Y-85739003D01*
X78522242Y-85816818D01*
X78495921Y-85877686D01*
X78479051Y-85902753D01*
X78459826Y-85924463D01*
X78437752Y-85943347D01*
X78413447Y-85958847D01*
X78385367Y-85971679D01*
X78355074Y-85980888D01*
X78319886Y-85986891D01*
X78282468Y-85988866D01*
X78250177Y-85987360D01*
X78191031Y-85974583D01*
X78165842Y-85963533D01*
X78143252Y-85949424D01*
X78122363Y-85931507D01*
X78104099Y-85910378D01*
X78086963Y-85883580D01*
X78072725Y-85853067D01*
X78057167Y-85885360D01*
X78023001Y-85931097D01*
X77979678Y-85964257D01*
X77953762Y-85976468D01*
X77925199Y-85985396D01*
X77892331Y-85991141D01*
X77856448Y-85993079D01*
X77802802Y-85988796D01*
X77744049Y-85971787D01*
X77695016Y-85942599D01*
X77673832Y-85923313D01*
X77654877Y-85900724D01*
X77638047Y-85874314D01*
X77623810Y-85844341D01*
X77611972Y-85809519D01*
X77603227Y-85770719D01*
X77597581Y-85725946D01*
X77595658Y-85676662D01*
X77595658Y-85358841D01*
X77759422Y-85358841D01*
X77759422Y-85680875D01*
X77761840Y-85717670D01*
X77775193Y-85764691D01*
X77798716Y-85797523D01*
X77814861Y-85809701D01*
X77833504Y-85818533D01*
X77856960Y-85824478D01*
X77883192Y-85826444D01*
X77909808Y-85824428D01*
X77948812Y-85811184D01*
X77964645Y-85799892D01*
X77977936Y-85785507D01*
X77989380Y-85766559D01*
X77997807Y-85744043D01*
X78003612Y-85714672D01*
X78005558Y-85680875D01*
X78005558Y-85676662D01*
X78142761Y-85676662D01*
X78144639Y-85712564D01*
X78156366Y-85761327D01*
X78177212Y-85793882D01*
X78191617Y-85805731D01*
X78208602Y-85814378D01*
X78230640Y-85820272D01*
X78255968Y-85822231D01*
X78285036Y-85819735D01*
X78323220Y-85805846D01*
X78338723Y-85794417D01*
X78351938Y-85779817D01*
X78363091Y-85761157D01*
X78371421Y-85738859D01*
X78377027Y-85710693D01*
X78378944Y-85678067D01*
X78378944Y-85358841D01*
X78376373Y-85347812D01*
X78370814Y-85342518D01*
X78362153Y-85340645D01*
X78142761Y-85340645D01*
X78142761Y-85676662D01*
X78005558Y-85676662D01*
X78005558Y-85340645D01*
X77774871Y-85340645D01*
X77768604Y-85341579D01*
X77761547Y-85347761D01*
X77759422Y-85358841D01*
X77595658Y-85358841D01*
X77595658Y-85256687D01*
X77597076Y-85236391D01*
X77608112Y-85205660D01*
X77618020Y-85194441D01*
X77630846Y-85186198D01*
X77649697Y-85180251D01*
X77672655Y-85178285D01*
X78464307Y-85178285D01*
X78484132Y-85179711D01*
G37*
G36*
X78356779Y-86523269D02*
G01*
X78374185Y-86532674D01*
X78387461Y-86545231D01*
X78394321Y-86557569D01*
X78397303Y-86572089D01*
X78397385Y-86575109D01*
X78395477Y-86589159D01*
X78389937Y-86601453D01*
X78381189Y-86611407D01*
X78369445Y-86618767D01*
X78342796Y-86624080D01*
X77785923Y-86624080D01*
X77751415Y-86626033D01*
X77719407Y-86631885D01*
X77691861Y-86640910D01*
X77666898Y-86653351D01*
X77645783Y-86668295D01*
X77627313Y-86686299D01*
X77612022Y-86706765D01*
X77599536Y-86730121D01*
X77583514Y-86785788D01*
X77580026Y-86832664D01*
X77581955Y-86868059D01*
X77587639Y-86899930D01*
X77596423Y-86927259D01*
X77608355Y-86951780D01*
X77641075Y-86993124D01*
X77687570Y-87027220D01*
X77754965Y-87056695D01*
X78356840Y-87286284D01*
X78371708Y-87293591D01*
X78383788Y-87303814D01*
X78392169Y-87315990D01*
X78396726Y-87330000D01*
X78397385Y-87338063D01*
X78395477Y-87352043D01*
X78389936Y-87364083D01*
X78369607Y-87380640D01*
X78342918Y-87385690D01*
X77595658Y-87385690D01*
X77595658Y-87552264D01*
X78351223Y-87552264D01*
X78385699Y-87550310D01*
X78417684Y-87544448D01*
X78445170Y-87535417D01*
X78470088Y-87522961D01*
X78491154Y-87508001D01*
X78509592Y-87489968D01*
X78524868Y-87469453D01*
X78537356Y-87446022D01*
X78553435Y-87390074D01*
X78556997Y-87342276D01*
X78555069Y-87306951D01*
X78549385Y-87275208D01*
X78540617Y-87248081D01*
X78528712Y-87223780D01*
X78496059Y-87182866D01*
X78449521Y-87149065D01*
X78381997Y-87119710D01*
X77780122Y-86890061D01*
X77765695Y-86882942D01*
X77754165Y-86872903D01*
X77746216Y-86860800D01*
X77741785Y-86846645D01*
X77740982Y-86836877D01*
X77742882Y-86822924D01*
X77748369Y-86810901D01*
X77768541Y-86794246D01*
X77794044Y-86789310D01*
X78351284Y-86789310D01*
X78385729Y-86787357D01*
X78417689Y-86781496D01*
X78445165Y-86772464D01*
X78470076Y-86760007D01*
X78491143Y-86745044D01*
X78509582Y-86727007D01*
X78524862Y-86706487D01*
X78537353Y-86683051D01*
X78553436Y-86627100D01*
X78556997Y-86579323D01*
X78555069Y-86543981D01*
X78549385Y-86512225D01*
X78540618Y-86485090D01*
X78528714Y-86460782D01*
X78496066Y-86419863D01*
X78449538Y-86386061D01*
X78381997Y-86356695D01*
X77595658Y-86064092D01*
X77595658Y-86240497D01*
X78356779Y-86523269D01*
G37*
G36*
X78541366Y-88061327D02*
G01*
X78539441Y-88011440D01*
X78533785Y-87966180D01*
X78525052Y-87927153D01*
X78513225Y-87892172D01*
X78499046Y-87862217D01*
X78482275Y-87835859D01*
X78463436Y-87813421D01*
X78442363Y-87794296D01*
X78393615Y-87765509D01*
X78335068Y-87748898D01*
X78283323Y-87744911D01*
X78247040Y-87746862D01*
X78213528Y-87752707D01*
X78184648Y-87761721D01*
X78158308Y-87774140D01*
X78135417Y-87789283D01*
X78114960Y-87807553D01*
X78081660Y-87853169D01*
X78069855Y-87877962D01*
X78055658Y-87849205D01*
X78038527Y-87823629D01*
X78019528Y-87802356D01*
X77997900Y-87784144D01*
X77974225Y-87769385D01*
X77948058Y-87757724D01*
X77887744Y-87743970D01*
X77853089Y-87742163D01*
X77816638Y-87744142D01*
X77782015Y-87750182D01*
X77751917Y-87759492D01*
X77723818Y-87772509D01*
X77699412Y-87788239D01*
X77677137Y-87807453D01*
X77657771Y-87829467D01*
X77640727Y-87854931D01*
X77614299Y-87916408D01*
X77598840Y-87994430D01*
X77595658Y-88057114D01*
X77595658Y-88535952D01*
X77760827Y-88535952D01*
X77760827Y-88057114D01*
X77762754Y-88024329D01*
X77768428Y-87995909D01*
X77776801Y-87973615D01*
X77788073Y-87954928D01*
X77801297Y-87940537D01*
X77816900Y-87929315D01*
X77855104Y-87916218D01*
X77879651Y-87914354D01*
X77904689Y-87916304D01*
X77926616Y-87922136D01*
X77943897Y-87930809D01*
X77958617Y-87942665D01*
X77980130Y-87975192D01*
X77992273Y-88023138D01*
X77994262Y-88058518D01*
X77994262Y-88527526D01*
X78144044Y-88527526D01*
X78144044Y-88062732D01*
X78146015Y-88026441D01*
X78152001Y-87995322D01*
X78160351Y-87972915D01*
X78171760Y-87954324D01*
X78184697Y-87940878D01*
X78200212Y-87930563D01*
X78238615Y-87919469D01*
X78256579Y-87918506D01*
X78282218Y-87920483D01*
X78305234Y-87926507D01*
X78323366Y-87935403D01*
X78339086Y-87947725D01*
X78351665Y-87962722D01*
X78361788Y-87980995D01*
X78374294Y-88028981D01*
X78376136Y-88061327D01*
X78376136Y-88534548D01*
X78541366Y-88534548D01*
X78541366Y-88061327D01*
G37*
G36*
X78541366Y-88759862D02*
G01*
X78376136Y-88759862D01*
X78376136Y-89305867D01*
X78374222Y-89332448D01*
X78368644Y-89355714D01*
X78360168Y-89374696D01*
X78348811Y-89390568D01*
X78319124Y-89412387D01*
X78279836Y-89421791D01*
X78270989Y-89422065D01*
X78248506Y-89419974D01*
X78228501Y-89413148D01*
X78214413Y-89403757D01*
X78202060Y-89390410D01*
X78183122Y-89351085D01*
X78178482Y-89333832D01*
X78087379Y-88936266D01*
X78075466Y-88892546D01*
X78060864Y-88854946D01*
X78045572Y-88826472D01*
X78027946Y-88802235D01*
X78009177Y-88783103D01*
X77988167Y-88767258D01*
X77938617Y-88744422D01*
X77873314Y-88731711D01*
X77815476Y-88729087D01*
X77672655Y-88729087D01*
X77649697Y-88731053D01*
X77630846Y-88737001D01*
X77618020Y-88745243D01*
X77608112Y-88756462D01*
X77597076Y-88787194D01*
X77595658Y-88807489D01*
X77595658Y-89560673D01*
X77760827Y-89560673D01*
X77760827Y-88912452D01*
X77763204Y-88900762D01*
X77772027Y-88895039D01*
X77780427Y-88894256D01*
X77828116Y-88894256D01*
X77861620Y-88896689D01*
X77889367Y-88905905D01*
X77902963Y-88915658D01*
X77914509Y-88929341D01*
X77930876Y-88968875D01*
X77931797Y-88972658D01*
X78020091Y-89366072D01*
X78032313Y-89410489D01*
X78047416Y-89449597D01*
X78063475Y-89480195D01*
X78082022Y-89506721D01*
X78101604Y-89527836D01*
X78123486Y-89545563D01*
X78173260Y-89570730D01*
X78234684Y-89583912D01*
X78273798Y-89585830D01*
X78313876Y-89583887D01*
X78350857Y-89578105D01*
X78383003Y-89569144D01*
X78412293Y-89556853D01*
X78437748Y-89541936D01*
X78460490Y-89524042D01*
X78497303Y-89480175D01*
X78523499Y-89424325D01*
X78538481Y-89354575D01*
X78541366Y-89301653D01*
X78541366Y-88759862D01*
G37*
G36*
X77890186Y-89740753D02*
G01*
X77950039Y-89754018D01*
X77975801Y-89765400D01*
X77998996Y-89779865D01*
X78020441Y-89798079D01*
X78039256Y-89819462D01*
X78056743Y-89846090D01*
X78071320Y-89876235D01*
X78084217Y-89848805D01*
X78117037Y-89803519D01*
X78136929Y-89785579D01*
X78159325Y-89770624D01*
X78184956Y-89758446D01*
X78213312Y-89749547D01*
X78246316Y-89743780D01*
X78282468Y-89741840D01*
X78334835Y-89745822D01*
X78393663Y-89762346D01*
X78442441Y-89790952D01*
X78463498Y-89809972D01*
X78482299Y-89832287D01*
X78499057Y-89858568D01*
X78513209Y-89888442D01*
X78525041Y-89923454D01*
X78533770Y-89962537D01*
X78539439Y-90008053D01*
X78541366Y-90058257D01*
X78541366Y-90280884D01*
X78537889Y-90347397D01*
X78522247Y-90425200D01*
X78495927Y-90486063D01*
X78479056Y-90511129D01*
X78459831Y-90532839D01*
X78437756Y-90551722D01*
X78413449Y-90567221D01*
X78385369Y-90580053D01*
X78355074Y-90589262D01*
X78319886Y-90595265D01*
X78282468Y-90597240D01*
X78249626Y-90595652D01*
X78190068Y-90582569D01*
X78164557Y-90571340D01*
X78141602Y-90557046D01*
X78120561Y-90539159D01*
X78102150Y-90518146D01*
X78085275Y-90492212D01*
X78071320Y-90462845D01*
X78056239Y-90493959D01*
X78022198Y-90539673D01*
X77979185Y-90572723D01*
X77953462Y-90584882D01*
X77925052Y-90593784D01*
X77892301Y-90599517D01*
X77856448Y-90601453D01*
X77802785Y-90597170D01*
X77744032Y-90580164D01*
X77695005Y-90550983D01*
X77673824Y-90531701D01*
X77654871Y-90509115D01*
X77638043Y-90482709D01*
X77623808Y-90452739D01*
X77611971Y-90417916D01*
X77603227Y-90379114D01*
X77597581Y-90334332D01*
X77595658Y-90285036D01*
X77595658Y-90054044D01*
X77595881Y-90049830D01*
X77759422Y-90049830D01*
X77759422Y-90289249D01*
X77761763Y-90325978D01*
X77774885Y-90373243D01*
X77798018Y-90406032D01*
X77813917Y-90418165D01*
X77832329Y-90426970D01*
X77855627Y-90432914D01*
X77881788Y-90434879D01*
X77905260Y-90433212D01*
X77943600Y-90420487D01*
X77959253Y-90409347D01*
X77972408Y-90395051D01*
X77983798Y-90376037D01*
X77992193Y-90353351D01*
X77997995Y-90323588D01*
X77999940Y-90289249D01*
X77999940Y-90055448D01*
X78142761Y-90055448D01*
X78142761Y-90285036D01*
X78144725Y-90321662D01*
X78156554Y-90370031D01*
X78177531Y-90402381D01*
X78192069Y-90414191D01*
X78209232Y-90422815D01*
X78231580Y-90428708D01*
X78257311Y-90430666D01*
X78285419Y-90428255D01*
X78323339Y-90414416D01*
X78338790Y-90402967D01*
X78351980Y-90388320D01*
X78363113Y-90369610D01*
X78371437Y-90347241D01*
X78377029Y-90319069D01*
X78378944Y-90286441D01*
X78378944Y-90054044D01*
X78376778Y-90019415D01*
X78363559Y-89971472D01*
X78352995Y-89953018D01*
X78339982Y-89937864D01*
X78323869Y-89925424D01*
X78305437Y-89916449D01*
X78282546Y-89910449D01*
X78257311Y-89908475D01*
X78236957Y-89909696D01*
X78198747Y-89921333D01*
X78183290Y-89931907D01*
X78170383Y-89945631D01*
X78159016Y-89964514D01*
X78150684Y-89987264D01*
X78144729Y-90018719D01*
X78142761Y-90055448D01*
X77999940Y-90055448D01*
X77999940Y-90049830D01*
X77997586Y-90012738D01*
X77984592Y-89965389D01*
X77961945Y-89932696D01*
X77946649Y-89920751D01*
X77928845Y-89912012D01*
X77906754Y-89906207D01*
X77881788Y-89904262D01*
X77854391Y-89906487D01*
X77815830Y-89920149D01*
X77800102Y-89931643D01*
X77786811Y-89946279D01*
X77775466Y-89965267D01*
X77767062Y-89987835D01*
X77761354Y-90016662D01*
X77759422Y-90049830D01*
X77595881Y-90049830D01*
X77599106Y-89988950D01*
X77614846Y-89911700D01*
X77641469Y-89850880D01*
X77658596Y-89825697D01*
X77678076Y-89803896D01*
X77700484Y-89784869D01*
X77725090Y-89769268D01*
X77753472Y-89756346D01*
X77783973Y-89747087D01*
X77819194Y-89741069D01*
X77856448Y-89739092D01*
X77890186Y-89740753D01*
G37*
G36*
X78128329Y-90759980D02*
G01*
X78230325Y-90774113D01*
X78315523Y-90799974D01*
X78386031Y-90836272D01*
X78443602Y-90882532D01*
X78467985Y-90909570D01*
X78489348Y-90939135D01*
X78508024Y-90971900D01*
X78523504Y-91007231D01*
X78536152Y-91046527D01*
X78545314Y-91088506D01*
X78551141Y-91135271D01*
X78553089Y-91184888D01*
X78551375Y-91231516D01*
X78537695Y-91317356D01*
X78511497Y-91390786D01*
X78473378Y-91453378D01*
X78449684Y-91481057D01*
X78422980Y-91506177D01*
X78392573Y-91529191D01*
X78359064Y-91549459D01*
X78321046Y-91567548D01*
X78279740Y-91582605D01*
X78233022Y-91595075D01*
X78182763Y-91604138D01*
X78126212Y-91609940D01*
X78065825Y-91611885D01*
X78003866Y-91609834D01*
X77901977Y-91595788D01*
X77816962Y-91570042D01*
X77746655Y-91533877D01*
X77689266Y-91487750D01*
X77664958Y-91460767D01*
X77643655Y-91431241D01*
X77625025Y-91398491D01*
X77609578Y-91363147D01*
X77596950Y-91323788D01*
X77587799Y-91281705D01*
X77581975Y-91234753D01*
X77580026Y-91184888D01*
X77745195Y-91184888D01*
X77748387Y-91237437D01*
X77763366Y-91299767D01*
X77789693Y-91349160D01*
X77807545Y-91370216D01*
X77828435Y-91388630D01*
X77854026Y-91405392D01*
X77883091Y-91419286D01*
X77919244Y-91431376D01*
X77959675Y-91440135D01*
X78010677Y-91446145D01*
X78067229Y-91448121D01*
X78148551Y-91443695D01*
X78225003Y-91428045D01*
X78282919Y-91402878D01*
X78326727Y-91368505D01*
X78344356Y-91347264D01*
X78358978Y-91323361D01*
X78371164Y-91295186D01*
X78380022Y-91263939D01*
X78385903Y-91226306D01*
X78387859Y-91184888D01*
X78384573Y-91131583D01*
X78369440Y-91069126D01*
X78342941Y-91019540D01*
X78325014Y-90998398D01*
X78304059Y-90979898D01*
X78278464Y-90963086D01*
X78249424Y-90949143D01*
X78213464Y-90937045D01*
X78173298Y-90928276D01*
X78122959Y-90922284D01*
X78067229Y-90920312D01*
X77984227Y-90924882D01*
X77907836Y-90940645D01*
X77850015Y-90965887D01*
X77806283Y-91000335D01*
X77788675Y-91021636D01*
X77774073Y-91045609D01*
X77761892Y-91073906D01*
X77753038Y-91105297D01*
X77747153Y-91143177D01*
X77745195Y-91184888D01*
X77580026Y-91184888D01*
X77581678Y-91138879D01*
X77595222Y-91052677D01*
X77621258Y-90979067D01*
X77659175Y-90916408D01*
X77682754Y-90888718D01*
X77709332Y-90863601D01*
X77739614Y-90840588D01*
X77772987Y-90820330D01*
X77810890Y-90802239D01*
X77852071Y-90787187D01*
X77898713Y-90774710D01*
X77948890Y-90765646D01*
X78005439Y-90759837D01*
X78065825Y-90757890D01*
X78128329Y-90759980D01*
G37*
X89582614Y-82640121D02*
X89630233Y-82497264D01*
X89630233Y-82497264D02*
X89677852Y-82449645D01*
X89677852Y-82449645D02*
X89773090Y-82402026D01*
X89773090Y-82402026D02*
X89915947Y-82402026D01*
X89915947Y-82402026D02*
X90011185Y-82449645D01*
X90011185Y-82449645D02*
X90058805Y-82497264D01*
X90058805Y-82497264D02*
X90106424Y-82592502D01*
X90106424Y-82592502D02*
X90106424Y-82973454D01*
X90106424Y-82973454D02*
X89106424Y-82973454D01*
X89106424Y-82973454D02*
X89106424Y-82640121D01*
X89106424Y-82640121D02*
X89154043Y-82544883D01*
X89154043Y-82544883D02*
X89201662Y-82497264D01*
X89201662Y-82497264D02*
X89296900Y-82449645D01*
X89296900Y-82449645D02*
X89392138Y-82449645D01*
X89392138Y-82449645D02*
X89487376Y-82497264D01*
X89487376Y-82497264D02*
X89534995Y-82544883D01*
X89534995Y-82544883D02*
X89582614Y-82640121D01*
X89582614Y-82640121D02*
X89582614Y-82973454D01*
X89106424Y-81782978D02*
X89106424Y-81592502D01*
X89106424Y-81592502D02*
X89154043Y-81497264D01*
X89154043Y-81497264D02*
X89249281Y-81402026D01*
X89249281Y-81402026D02*
X89439757Y-81354407D01*
X89439757Y-81354407D02*
X89773090Y-81354407D01*
X89773090Y-81354407D02*
X89963566Y-81402026D01*
X89963566Y-81402026D02*
X90058805Y-81497264D01*
X90058805Y-81497264D02*
X90106424Y-81592502D01*
X90106424Y-81592502D02*
X90106424Y-81782978D01*
X90106424Y-81782978D02*
X90058805Y-81878216D01*
X90058805Y-81878216D02*
X89963566Y-81973454D01*
X89963566Y-81973454D02*
X89773090Y-82021073D01*
X89773090Y-82021073D02*
X89439757Y-82021073D01*
X89439757Y-82021073D02*
X89249281Y-81973454D01*
X89249281Y-81973454D02*
X89154043Y-81878216D01*
X89154043Y-81878216D02*
X89106424Y-81782978D01*
X89106424Y-80735359D02*
X89106424Y-80544883D01*
X89106424Y-80544883D02*
X89154043Y-80449645D01*
X89154043Y-80449645D02*
X89249281Y-80354407D01*
X89249281Y-80354407D02*
X89439757Y-80306788D01*
X89439757Y-80306788D02*
X89773090Y-80306788D01*
X89773090Y-80306788D02*
X89963566Y-80354407D01*
X89963566Y-80354407D02*
X90058805Y-80449645D01*
X90058805Y-80449645D02*
X90106424Y-80544883D01*
X90106424Y-80544883D02*
X90106424Y-80735359D01*
X90106424Y-80735359D02*
X90058805Y-80830597D01*
X90058805Y-80830597D02*
X89963566Y-80925835D01*
X89963566Y-80925835D02*
X89773090Y-80973454D01*
X89773090Y-80973454D02*
X89439757Y-80973454D01*
X89439757Y-80973454D02*
X89249281Y-80925835D01*
X89249281Y-80925835D02*
X89154043Y-80830597D01*
X89154043Y-80830597D02*
X89106424Y-80735359D01*
X89106424Y-80021073D02*
X89106424Y-79449645D01*
X90106424Y-79735359D02*
X89106424Y-79735359D01*
X90058805Y-79163930D02*
X90106424Y-79021073D01*
X90106424Y-79021073D02*
X90106424Y-78782978D01*
X90106424Y-78782978D02*
X90058805Y-78687740D01*
X90058805Y-78687740D02*
X90011185Y-78640121D01*
X90011185Y-78640121D02*
X89915947Y-78592502D01*
X89915947Y-78592502D02*
X89820709Y-78592502D01*
X89820709Y-78592502D02*
X89725471Y-78640121D01*
X89725471Y-78640121D02*
X89677852Y-78687740D01*
X89677852Y-78687740D02*
X89630233Y-78782978D01*
X89630233Y-78782978D02*
X89582614Y-78973454D01*
X89582614Y-78973454D02*
X89534995Y-79068692D01*
X89534995Y-79068692D02*
X89487376Y-79116311D01*
X89487376Y-79116311D02*
X89392138Y-79163930D01*
X89392138Y-79163930D02*
X89296900Y-79163930D01*
X89296900Y-79163930D02*
X89201662Y-79116311D01*
X89201662Y-79116311D02*
X89154043Y-79068692D01*
X89154043Y-79068692D02*
X89106424Y-78973454D01*
X89106424Y-78973454D02*
X89106424Y-78735359D01*
X89106424Y-78735359D02*
X89154043Y-78592502D01*
X89582614Y-78163930D02*
X89582614Y-77830597D01*
X90106424Y-77687740D02*
X90106424Y-78163930D01*
X90106424Y-78163930D02*
X89106424Y-78163930D01*
X89106424Y-78163930D02*
X89106424Y-77687740D01*
X90106424Y-76782978D02*
X90106424Y-77259168D01*
X90106424Y-77259168D02*
X89106424Y-77259168D01*
D11*
G36*
X54919853Y-119521535D02*
G01*
X54919853Y-122006950D01*
X54927783Y-122187448D01*
X54952032Y-122358728D01*
X54989093Y-122506399D01*
X55040913Y-122644566D01*
X55102611Y-122763449D01*
X55177872Y-122872742D01*
X55262264Y-122967017D01*
X55359619Y-123051448D01*
X55467614Y-123123880D01*
X55588664Y-123185810D01*
X55872390Y-123276229D01*
X56221487Y-123318091D01*
X56322051Y-123320000D01*
X57836357Y-123320000D01*
X57836357Y-122643691D01*
X56361374Y-122643691D01*
X56202200Y-122636053D01*
X56064831Y-122613849D01*
X55954610Y-122580714D01*
X55861404Y-122536570D01*
X55786563Y-122484329D01*
X55725645Y-122423440D01*
X55640486Y-122275527D01*
X55599687Y-122084048D01*
X55596406Y-122001332D01*
X55596406Y-119521535D01*
X54919853Y-119521535D01*
G37*
G36*
X57488555Y-119521535D02*
G01*
X59018981Y-121683817D01*
X59018981Y-123320000D01*
X59700907Y-123320000D01*
X59700907Y-121683817D01*
X61231577Y-119521535D01*
X60428262Y-119521535D01*
X59362875Y-121135003D01*
X58308478Y-119521535D01*
X57488555Y-119521535D01*
G37*
G36*
X61728122Y-119521535D02*
G01*
X61728122Y-120198087D01*
X63807850Y-120198087D01*
X63917127Y-120205676D01*
X64012738Y-120227531D01*
X64093278Y-120261367D01*
X64161362Y-120306252D01*
X64262304Y-120425769D01*
X64317534Y-120584202D01*
X64326378Y-120689993D01*
X64318386Y-120795099D01*
X64293706Y-120895313D01*
X64256539Y-120978231D01*
X64204358Y-121052131D01*
X64144098Y-121108811D01*
X64070574Y-121154543D01*
X63988382Y-121186136D01*
X63893380Y-121204922D01*
X63807850Y-121209741D01*
X62335066Y-121209741D01*
X62193686Y-121217686D01*
X62072313Y-121242038D01*
X61985116Y-121275898D01*
X61911446Y-121322444D01*
X61855398Y-121376803D01*
X61810257Y-121442630D01*
X61750989Y-121613763D01*
X61733740Y-121816929D01*
X61733740Y-123320000D01*
X62410048Y-123320000D01*
X62410048Y-121945645D01*
X62417891Y-121898672D01*
X62441524Y-121870610D01*
X62497487Y-121858206D01*
X63478611Y-121858206D01*
X64341032Y-123320000D01*
X65092812Y-123320000D01*
X64211584Y-121804961D01*
X64338820Y-121761199D01*
X64453838Y-121705825D01*
X64652270Y-121561153D01*
X64809760Y-121373076D01*
X64925155Y-121142653D01*
X64993169Y-120873979D01*
X65008548Y-120661905D01*
X65000661Y-120510191D01*
X64976714Y-120363355D01*
X64938946Y-120230567D01*
X64886098Y-120104963D01*
X64822240Y-119994511D01*
X64744395Y-119892791D01*
X64657040Y-119805135D01*
X64556482Y-119727416D01*
X64445991Y-119662411D01*
X64322575Y-119608605D01*
X64187252Y-119567212D01*
X64038765Y-119538593D01*
X63785380Y-119521535D01*
X61728122Y-119521535D01*
G37*
G36*
X67325680Y-120276245D02*
G01*
X67359737Y-120217996D01*
X67402899Y-120178972D01*
X67503554Y-120152460D01*
X67508862Y-120152414D01*
X67572694Y-120160506D01*
X67624211Y-120185885D01*
X67684641Y-120271950D01*
X67686182Y-120276001D01*
X68836322Y-123320000D01*
X69586392Y-123320000D01*
X68305826Y-119951402D01*
X68253888Y-119836988D01*
X68191823Y-119739277D01*
X68124241Y-119662026D01*
X68047629Y-119598225D01*
X67867632Y-119508634D01*
X67636006Y-119463774D01*
X67514480Y-119459009D01*
X67356864Y-119467039D01*
X67214722Y-119491992D01*
X67105231Y-119527731D01*
X67006692Y-119577598D01*
X66925358Y-119636823D01*
X66853066Y-119709391D01*
X66735782Y-119895580D01*
X66711898Y-119951158D01*
X65380530Y-123320000D01*
X66125471Y-123320000D01*
X67325680Y-120276245D01*
G37*
D10*
G36*
X84104963Y-125884291D02*
G01*
X84104963Y-126503691D01*
X84106946Y-126548872D01*
X84113015Y-126591701D01*
X84122272Y-126628510D01*
X84135217Y-126662920D01*
X84150613Y-126692466D01*
X84169395Y-126719605D01*
X84190455Y-126742989D01*
X84214754Y-126763909D01*
X84241732Y-126781845D01*
X84271979Y-126797156D01*
X84342990Y-126819446D01*
X84430548Y-126829602D01*
X84453558Y-126830000D01*
X84830181Y-126830000D01*
X84830181Y-126664830D01*
X84463389Y-126664830D01*
X84423654Y-126662921D01*
X84389283Y-126657375D01*
X84361552Y-126649073D01*
X84338045Y-126638012D01*
X84319078Y-126624896D01*
X84303593Y-126609614D01*
X84281809Y-126572524D01*
X84271170Y-126524736D01*
X84270193Y-126502287D01*
X84270193Y-125884291D01*
X84104963Y-125884291D01*
G37*
G36*
X85450371Y-126092565D02*
G01*
X85523040Y-126104946D01*
X85584371Y-126129777D01*
X85635657Y-126166610D01*
X85657857Y-126189806D01*
X85677552Y-126216156D01*
X85695052Y-126246462D01*
X85709732Y-126280111D01*
X85721894Y-126318627D01*
X85730804Y-126360783D01*
X85736525Y-126408738D01*
X85738459Y-126460704D01*
X85737392Y-126499651D01*
X85725306Y-126588827D01*
X85701440Y-126661531D01*
X85667126Y-126720040D01*
X85646109Y-126744609D01*
X85622646Y-126766047D01*
X85596149Y-126784785D01*
X85567266Y-126800262D01*
X85534603Y-126812978D01*
X85499539Y-126822157D01*
X85459906Y-126828042D01*
X85417829Y-126830000D01*
X85262430Y-126830000D01*
X85230032Y-126828870D01*
X85157108Y-126816584D01*
X85095754Y-126791904D01*
X85044542Y-126755266D01*
X85022378Y-126732158D01*
X85002730Y-126705902D01*
X84985250Y-126675638D01*
X84970596Y-126642024D01*
X84958433Y-126603440D01*
X84949526Y-126561190D01*
X84943796Y-126512978D01*
X84941861Y-126460704D01*
X85091643Y-126460704D01*
X85094504Y-126518055D01*
X85107688Y-126581047D01*
X85129954Y-126625541D01*
X85144720Y-126642839D01*
X85162023Y-126657088D01*
X85183503Y-126669098D01*
X85208039Y-126677798D01*
X85240140Y-126683854D01*
X85276474Y-126685835D01*
X85403846Y-126685835D01*
X85442892Y-126683474D01*
X85493430Y-126670297D01*
X85531587Y-126646042D01*
X85547428Y-126628759D01*
X85560629Y-126608136D01*
X85572215Y-126581295D01*
X85580679Y-126550111D01*
X85586647Y-126508497D01*
X85588616Y-126460704D01*
X85585610Y-126402560D01*
X85572123Y-126339573D01*
X85549479Y-126294810D01*
X85534534Y-126277386D01*
X85517075Y-126263029D01*
X85495566Y-126250972D01*
X85471084Y-126242238D01*
X85439466Y-126236208D01*
X85403846Y-126234230D01*
X85276474Y-126234230D01*
X85237645Y-126236560D01*
X85186995Y-126249706D01*
X85148796Y-126273946D01*
X85132928Y-126291257D01*
X85119726Y-126311897D01*
X85108103Y-126338875D01*
X85099628Y-126370201D01*
X85093618Y-126412328D01*
X85091643Y-126460704D01*
X84941861Y-126460704D01*
X84942936Y-126421419D01*
X84955002Y-126332086D01*
X84978781Y-126259429D01*
X85012947Y-126201062D01*
X85033872Y-126176576D01*
X85057253Y-126155209D01*
X85083677Y-126136532D01*
X85112510Y-126121102D01*
X85145177Y-126108414D01*
X85180292Y-126099251D01*
X85220098Y-126093366D01*
X85262430Y-126091409D01*
X85417829Y-126091409D01*
X85450371Y-126092565D01*
G37*
G36*
X85921336Y-125884291D02*
G01*
X85921336Y-126049521D01*
X86439314Y-126049521D01*
X86466659Y-126051418D01*
X86490651Y-126056878D01*
X86510991Y-126065360D01*
X86528243Y-126076613D01*
X86554033Y-126106624D01*
X86568387Y-126146316D01*
X86570900Y-126174452D01*
X86568905Y-126200690D01*
X86562755Y-126225800D01*
X86553436Y-126246790D01*
X86540354Y-126265565D01*
X86525233Y-126280043D01*
X86506793Y-126291786D01*
X86486255Y-126299952D01*
X86462539Y-126304917D01*
X86439314Y-126306343D01*
X86071118Y-126306343D01*
X86035666Y-126308333D01*
X86005357Y-126314447D01*
X85983831Y-126322890D01*
X85965708Y-126334500D01*
X85951993Y-126348048D01*
X85940995Y-126364466D01*
X85926671Y-126407377D01*
X85922740Y-126456186D01*
X85922740Y-126830000D01*
X86087909Y-126830000D01*
X86087909Y-126488365D01*
X86089832Y-126476566D01*
X86095473Y-126468944D01*
X86111723Y-126464551D01*
X86358103Y-126464551D01*
X86573709Y-126830000D01*
X86757135Y-126830000D01*
X86537316Y-126451973D01*
X86569593Y-126440901D01*
X86598717Y-126426953D01*
X86648701Y-126390747D01*
X86688127Y-126343935D01*
X86716864Y-126286759D01*
X86733736Y-126220086D01*
X86737534Y-126167430D01*
X86735562Y-126129483D01*
X86729570Y-126092794D01*
X86720137Y-126059713D01*
X86706937Y-126028452D01*
X86691003Y-126001019D01*
X86671578Y-125975779D01*
X86649779Y-125954056D01*
X86624680Y-125934820D01*
X86597077Y-125918746D01*
X86566236Y-125905473D01*
X86532370Y-125895289D01*
X86495195Y-125888302D01*
X86433696Y-125884291D01*
X85921336Y-125884291D01*
G37*
G36*
X87368138Y-126091743D02*
G01*
X87441248Y-126101539D01*
X87471776Y-126111007D01*
X87498938Y-126123322D01*
X87523061Y-126138486D01*
X87543946Y-126156216D01*
X87562491Y-126177394D01*
X87577694Y-126201013D01*
X87590552Y-126229197D01*
X87599751Y-126259774D01*
X87605846Y-126296115D01*
X87607833Y-126334736D01*
X87607833Y-126681622D01*
X87604466Y-126734607D01*
X87592384Y-126775396D01*
X87570458Y-126802923D01*
X87553085Y-126813830D01*
X87531469Y-126821835D01*
X87497459Y-126828002D01*
X87455242Y-126830000D01*
X87109455Y-126830000D01*
X87103210Y-126829963D01*
X87026788Y-126822316D01*
X86968367Y-126803134D01*
X86944587Y-126789651D01*
X86923975Y-126773610D01*
X86905980Y-126754512D01*
X86891173Y-126732881D01*
X86878681Y-126706828D01*
X86869686Y-126678049D01*
X86863650Y-126642911D01*
X86861671Y-126604685D01*
X86861690Y-126600790D01*
X86862178Y-126596320D01*
X87007240Y-126596320D01*
X87012504Y-126631892D01*
X87029236Y-126659584D01*
X87042747Y-126670285D01*
X87059813Y-126678333D01*
X87082954Y-126683920D01*
X87110860Y-126685835D01*
X87421659Y-126685835D01*
X87434067Y-126685009D01*
X87453678Y-126676229D01*
X87460214Y-126664641D01*
X87462264Y-126648039D01*
X87462264Y-126509553D01*
X87113668Y-126509553D01*
X87070848Y-126513694D01*
X87036709Y-126527986D01*
X87024465Y-126539225D01*
X87015689Y-126552917D01*
X87009273Y-126572952D01*
X87007240Y-126596320D01*
X86862178Y-126596320D01*
X86868661Y-126536937D01*
X86886971Y-126487747D01*
X86916609Y-126449298D01*
X86936625Y-126433261D01*
X86960115Y-126419754D01*
X86989158Y-126408207D01*
X87022478Y-126399690D01*
X87063915Y-126393948D01*
X87110860Y-126392011D01*
X87462264Y-126392011D01*
X87462264Y-126336140D01*
X87461989Y-126327146D01*
X87453161Y-126289013D01*
X87432760Y-126260641D01*
X87417748Y-126249801D01*
X87399332Y-126241593D01*
X87376153Y-126236127D01*
X87348874Y-126234230D01*
X86906428Y-126234230D01*
X86906428Y-126091409D01*
X87350279Y-126091409D01*
X87368138Y-126091743D01*
G37*
X98582026Y-137519262D02*
X98582026Y-138328785D01*
X98582026Y-138328785D02*
X98629645Y-138424023D01*
X98629645Y-138424023D02*
X98677264Y-138471643D01*
X98677264Y-138471643D02*
X98772502Y-138519262D01*
X98772502Y-138519262D02*
X98962978Y-138519262D01*
X98962978Y-138519262D02*
X99058216Y-138471643D01*
X99058216Y-138471643D02*
X99105835Y-138424023D01*
X99105835Y-138424023D02*
X99153454Y-138328785D01*
X99153454Y-138328785D02*
X99153454Y-137519262D01*
X100058216Y-137852595D02*
X100058216Y-138519262D01*
X99820121Y-137471643D02*
X99582026Y-138185928D01*
X99582026Y-138185928D02*
X100201073Y-138185928D01*
X81238070Y-82128530D02*
X81238070Y-82938053D01*
X81238070Y-82938053D02*
X81285689Y-83033291D01*
X81285689Y-83033291D02*
X81333308Y-83080911D01*
X81333308Y-83080911D02*
X81428546Y-83128530D01*
X81428546Y-83128530D02*
X81619022Y-83128530D01*
X81619022Y-83128530D02*
X81714260Y-83080911D01*
X81714260Y-83080911D02*
X81761879Y-83033291D01*
X81761879Y-83033291D02*
X81809498Y-82938053D01*
X81809498Y-82938053D02*
X81809498Y-82128530D01*
X82238070Y-82223768D02*
X82285689Y-82176149D01*
X82285689Y-82176149D02*
X82380927Y-82128530D01*
X82380927Y-82128530D02*
X82619022Y-82128530D01*
X82619022Y-82128530D02*
X82714260Y-82176149D01*
X82714260Y-82176149D02*
X82761879Y-82223768D01*
X82761879Y-82223768D02*
X82809498Y-82319006D01*
X82809498Y-82319006D02*
X82809498Y-82414244D01*
X82809498Y-82414244D02*
X82761879Y-82557101D01*
X82761879Y-82557101D02*
X82190451Y-83128530D01*
X82190451Y-83128530D02*
X82809498Y-83128530D01*
X77454936Y-86830423D02*
X76978745Y-87163756D01*
X77454936Y-87401851D02*
X76454936Y-87401851D01*
X76454936Y-87401851D02*
X76454936Y-87020899D01*
X76454936Y-87020899D02*
X76502555Y-86925661D01*
X76502555Y-86925661D02*
X76550174Y-86878042D01*
X76550174Y-86878042D02*
X76645412Y-86830423D01*
X76645412Y-86830423D02*
X76788269Y-86830423D01*
X76788269Y-86830423D02*
X76883507Y-86878042D01*
X76883507Y-86878042D02*
X76931126Y-86925661D01*
X76931126Y-86925661D02*
X76978745Y-87020899D01*
X76978745Y-87020899D02*
X76978745Y-87401851D01*
X77454936Y-85878042D02*
X77454936Y-86449470D01*
X77454936Y-86163756D02*
X76454936Y-86163756D01*
X76454936Y-86163756D02*
X76597793Y-86258994D01*
X76597793Y-86258994D02*
X76693031Y-86354232D01*
X76693031Y-86354232D02*
X76740650Y-86449470D01*
X79287692Y-86758314D02*
X79240073Y-86805934D01*
X79240073Y-86805934D02*
X79097216Y-86853553D01*
X79097216Y-86853553D02*
X79001978Y-86853553D01*
X79001978Y-86853553D02*
X78859121Y-86805934D01*
X78859121Y-86805934D02*
X78763883Y-86710695D01*
X78763883Y-86710695D02*
X78716264Y-86615457D01*
X78716264Y-86615457D02*
X78668645Y-86424981D01*
X78668645Y-86424981D02*
X78668645Y-86282124D01*
X78668645Y-86282124D02*
X78716264Y-86091648D01*
X78716264Y-86091648D02*
X78763883Y-85996410D01*
X78763883Y-85996410D02*
X78859121Y-85901172D01*
X78859121Y-85901172D02*
X79001978Y-85853553D01*
X79001978Y-85853553D02*
X79097216Y-85853553D01*
X79097216Y-85853553D02*
X79240073Y-85901172D01*
X79240073Y-85901172D02*
X79287692Y-85948791D01*
X80240073Y-86853553D02*
X79668645Y-86853553D01*
X79954359Y-86853553D02*
X79954359Y-85853553D01*
X79954359Y-85853553D02*
X79859121Y-85996410D01*
X79859121Y-85996410D02*
X79763883Y-86091648D01*
X79763883Y-86091648D02*
X79668645Y-86139267D01*
X81853333Y-85519580D02*
X81805714Y-85567200D01*
X81805714Y-85567200D02*
X81662857Y-85614819D01*
X81662857Y-85614819D02*
X81567619Y-85614819D01*
X81567619Y-85614819D02*
X81424762Y-85567200D01*
X81424762Y-85567200D02*
X81329524Y-85471961D01*
X81329524Y-85471961D02*
X81281905Y-85376723D01*
X81281905Y-85376723D02*
X81234286Y-85186247D01*
X81234286Y-85186247D02*
X81234286Y-85043390D01*
X81234286Y-85043390D02*
X81281905Y-84852914D01*
X81281905Y-84852914D02*
X81329524Y-84757676D01*
X81329524Y-84757676D02*
X81424762Y-84662438D01*
X81424762Y-84662438D02*
X81567619Y-84614819D01*
X81567619Y-84614819D02*
X81662857Y-84614819D01*
X81662857Y-84614819D02*
X81805714Y-84662438D01*
X81805714Y-84662438D02*
X81853333Y-84710057D01*
X82758095Y-84614819D02*
X82281905Y-84614819D01*
X82281905Y-84614819D02*
X82234286Y-85091009D01*
X82234286Y-85091009D02*
X82281905Y-85043390D01*
X82281905Y-85043390D02*
X82377143Y-84995771D01*
X82377143Y-84995771D02*
X82615238Y-84995771D01*
X82615238Y-84995771D02*
X82710476Y-85043390D01*
X82710476Y-85043390D02*
X82758095Y-85091009D01*
X82758095Y-85091009D02*
X82805714Y-85186247D01*
X82805714Y-85186247D02*
X82805714Y-85424342D01*
X82805714Y-85424342D02*
X82758095Y-85519580D01*
X82758095Y-85519580D02*
X82710476Y-85567200D01*
X82710476Y-85567200D02*
X82615238Y-85614819D01*
X82615238Y-85614819D02*
X82377143Y-85614819D01*
X82377143Y-85614819D02*
X82281905Y-85567200D01*
X82281905Y-85567200D02*
X82234286Y-85519580D01*
X83163356Y-87204834D02*
X82830023Y-86728643D01*
X82591928Y-87204834D02*
X82591928Y-86204834D01*
X82591928Y-86204834D02*
X82972880Y-86204834D01*
X82972880Y-86204834D02*
X83068118Y-86252453D01*
X83068118Y-86252453D02*
X83115737Y-86300072D01*
X83115737Y-86300072D02*
X83163356Y-86395310D01*
X83163356Y-86395310D02*
X83163356Y-86538167D01*
X83163356Y-86538167D02*
X83115737Y-86633405D01*
X83115737Y-86633405D02*
X83068118Y-86681024D01*
X83068118Y-86681024D02*
X82972880Y-86728643D01*
X82972880Y-86728643D02*
X82591928Y-86728643D01*
X83639547Y-87204834D02*
X83830023Y-87204834D01*
X83830023Y-87204834D02*
X83925261Y-87157215D01*
X83925261Y-87157215D02*
X83972880Y-87109595D01*
X83972880Y-87109595D02*
X84068118Y-86966738D01*
X84068118Y-86966738D02*
X84115737Y-86776262D01*
X84115737Y-86776262D02*
X84115737Y-86395310D01*
X84115737Y-86395310D02*
X84068118Y-86300072D01*
X84068118Y-86300072D02*
X84020499Y-86252453D01*
X84020499Y-86252453D02*
X83925261Y-86204834D01*
X83925261Y-86204834D02*
X83734785Y-86204834D01*
X83734785Y-86204834D02*
X83639547Y-86252453D01*
X83639547Y-86252453D02*
X83591928Y-86300072D01*
X83591928Y-86300072D02*
X83544309Y-86395310D01*
X83544309Y-86395310D02*
X83544309Y-86633405D01*
X83544309Y-86633405D02*
X83591928Y-86728643D01*
X83591928Y-86728643D02*
X83639547Y-86776262D01*
X83639547Y-86776262D02*
X83734785Y-86823881D01*
X83734785Y-86823881D02*
X83925261Y-86823881D01*
X83925261Y-86823881D02*
X84020499Y-86776262D01*
X84020499Y-86776262D02*
X84068118Y-86728643D01*
X84068118Y-86728643D02*
X84115737Y-86633405D01*
X80187165Y-89544834D02*
X79853832Y-89068643D01*
X79615737Y-89544834D02*
X79615737Y-88544834D01*
X79615737Y-88544834D02*
X79996689Y-88544834D01*
X79996689Y-88544834D02*
X80091927Y-88592453D01*
X80091927Y-88592453D02*
X80139546Y-88640072D01*
X80139546Y-88640072D02*
X80187165Y-88735310D01*
X80187165Y-88735310D02*
X80187165Y-88878167D01*
X80187165Y-88878167D02*
X80139546Y-88973405D01*
X80139546Y-88973405D02*
X80091927Y-89021024D01*
X80091927Y-89021024D02*
X79996689Y-89068643D01*
X79996689Y-89068643D02*
X79615737Y-89068643D01*
X81139546Y-89544834D02*
X80568118Y-89544834D01*
X80853832Y-89544834D02*
X80853832Y-88544834D01*
X80853832Y-88544834D02*
X80758594Y-88687691D01*
X80758594Y-88687691D02*
X80663356Y-88782929D01*
X80663356Y-88782929D02*
X80568118Y-88830548D01*
X82091927Y-89544834D02*
X81520499Y-89544834D01*
X81806213Y-89544834D02*
X81806213Y-88544834D01*
X81806213Y-88544834D02*
X81710975Y-88687691D01*
X81710975Y-88687691D02*
X81615737Y-88782929D01*
X81615737Y-88782929D02*
X81520499Y-88830548D01*
X74845745Y-92222904D02*
X74369554Y-92556237D01*
X74845745Y-92794332D02*
X73845745Y-92794332D01*
X73845745Y-92794332D02*
X73845745Y-92413380D01*
X73845745Y-92413380D02*
X73893364Y-92318142D01*
X73893364Y-92318142D02*
X73940983Y-92270523D01*
X73940983Y-92270523D02*
X74036221Y-92222904D01*
X74036221Y-92222904D02*
X74179078Y-92222904D01*
X74179078Y-92222904D02*
X74274316Y-92270523D01*
X74274316Y-92270523D02*
X74321935Y-92318142D01*
X74321935Y-92318142D02*
X74369554Y-92413380D01*
X74369554Y-92413380D02*
X74369554Y-92794332D01*
X73940983Y-91841951D02*
X73893364Y-91794332D01*
X73893364Y-91794332D02*
X73845745Y-91699094D01*
X73845745Y-91699094D02*
X73845745Y-91460999D01*
X73845745Y-91460999D02*
X73893364Y-91365761D01*
X73893364Y-91365761D02*
X73940983Y-91318142D01*
X73940983Y-91318142D02*
X74036221Y-91270523D01*
X74036221Y-91270523D02*
X74131459Y-91270523D01*
X74131459Y-91270523D02*
X74274316Y-91318142D01*
X74274316Y-91318142D02*
X74845745Y-91889570D01*
X74845745Y-91889570D02*
X74845745Y-91270523D01*
X73845745Y-90365761D02*
X73845745Y-90841951D01*
X73845745Y-90841951D02*
X74321935Y-90889570D01*
X74321935Y-90889570D02*
X74274316Y-90841951D01*
X74274316Y-90841951D02*
X74226697Y-90746713D01*
X74226697Y-90746713D02*
X74226697Y-90508618D01*
X74226697Y-90508618D02*
X74274316Y-90413380D01*
X74274316Y-90413380D02*
X74321935Y-90365761D01*
X74321935Y-90365761D02*
X74417173Y-90318142D01*
X74417173Y-90318142D02*
X74655268Y-90318142D01*
X74655268Y-90318142D02*
X74750506Y-90365761D01*
X74750506Y-90365761D02*
X74798126Y-90413380D01*
X74798126Y-90413380D02*
X74845745Y-90508618D01*
X74845745Y-90508618D02*
X74845745Y-90746713D01*
X74845745Y-90746713D02*
X74798126Y-90841951D01*
X74798126Y-90841951D02*
X74750506Y-90889570D01*
X77001932Y-89345869D02*
X77811455Y-89345869D01*
X77811455Y-89345869D02*
X77906693Y-89298250D01*
X77906693Y-89298250D02*
X77954313Y-89250631D01*
X77954313Y-89250631D02*
X78001932Y-89155393D01*
X78001932Y-89155393D02*
X78001932Y-88964917D01*
X78001932Y-88964917D02*
X77954313Y-88869679D01*
X77954313Y-88869679D02*
X77906693Y-88822060D01*
X77906693Y-88822060D02*
X77811455Y-88774441D01*
X77811455Y-88774441D02*
X77001932Y-88774441D01*
X77430503Y-88155393D02*
X77382884Y-88250631D01*
X77382884Y-88250631D02*
X77335265Y-88298250D01*
X77335265Y-88298250D02*
X77240027Y-88345869D01*
X77240027Y-88345869D02*
X77192408Y-88345869D01*
X77192408Y-88345869D02*
X77097170Y-88298250D01*
X77097170Y-88298250D02*
X77049551Y-88250631D01*
X77049551Y-88250631D02*
X77001932Y-88155393D01*
X77001932Y-88155393D02*
X77001932Y-87964917D01*
X77001932Y-87964917D02*
X77049551Y-87869679D01*
X77049551Y-87869679D02*
X77097170Y-87822060D01*
X77097170Y-87822060D02*
X77192408Y-87774441D01*
X77192408Y-87774441D02*
X77240027Y-87774441D01*
X77240027Y-87774441D02*
X77335265Y-87822060D01*
X77335265Y-87822060D02*
X77382884Y-87869679D01*
X77382884Y-87869679D02*
X77430503Y-87964917D01*
X77430503Y-87964917D02*
X77430503Y-88155393D01*
X77430503Y-88155393D02*
X77478122Y-88250631D01*
X77478122Y-88250631D02*
X77525741Y-88298250D01*
X77525741Y-88298250D02*
X77620979Y-88345869D01*
X77620979Y-88345869D02*
X77811455Y-88345869D01*
X77811455Y-88345869D02*
X77906693Y-88298250D01*
X77906693Y-88298250D02*
X77954313Y-88250631D01*
X77954313Y-88250631D02*
X78001932Y-88155393D01*
X78001932Y-88155393D02*
X78001932Y-87964917D01*
X78001932Y-87964917D02*
X77954313Y-87869679D01*
X77954313Y-87869679D02*
X77906693Y-87822060D01*
X77906693Y-87822060D02*
X77811455Y-87774441D01*
X77811455Y-87774441D02*
X77620979Y-87774441D01*
X77620979Y-87774441D02*
X77525741Y-87822060D01*
X77525741Y-87822060D02*
X77478122Y-87869679D01*
X77478122Y-87869679D02*
X77430503Y-87964917D01*
X75845745Y-92226822D02*
X75369554Y-92560155D01*
X75845745Y-92798250D02*
X74845745Y-92798250D01*
X74845745Y-92798250D02*
X74845745Y-92417298D01*
X74845745Y-92417298D02*
X74893364Y-92322060D01*
X74893364Y-92322060D02*
X74940983Y-92274441D01*
X74940983Y-92274441D02*
X75036221Y-92226822D01*
X75036221Y-92226822D02*
X75179078Y-92226822D01*
X75179078Y-92226822D02*
X75274316Y-92274441D01*
X75274316Y-92274441D02*
X75321935Y-92322060D01*
X75321935Y-92322060D02*
X75369554Y-92417298D01*
X75369554Y-92417298D02*
X75369554Y-92798250D01*
X74940983Y-91845869D02*
X74893364Y-91798250D01*
X74893364Y-91798250D02*
X74845745Y-91703012D01*
X74845745Y-91703012D02*
X74845745Y-91464917D01*
X74845745Y-91464917D02*
X74893364Y-91369679D01*
X74893364Y-91369679D02*
X74940983Y-91322060D01*
X74940983Y-91322060D02*
X75036221Y-91274441D01*
X75036221Y-91274441D02*
X75131459Y-91274441D01*
X75131459Y-91274441D02*
X75274316Y-91322060D01*
X75274316Y-91322060D02*
X75845745Y-91893488D01*
X75845745Y-91893488D02*
X75845745Y-91274441D01*
X75179078Y-90417298D02*
X75845745Y-90417298D01*
X74798126Y-90655393D02*
X75512411Y-90893488D01*
X75512411Y-90893488D02*
X75512411Y-90274441D01*
X72920506Y-86226822D02*
X72968126Y-86274441D01*
X72968126Y-86274441D02*
X73015745Y-86417298D01*
X73015745Y-86417298D02*
X73015745Y-86512536D01*
X73015745Y-86512536D02*
X72968126Y-86655393D01*
X72968126Y-86655393D02*
X72872887Y-86750631D01*
X72872887Y-86750631D02*
X72777649Y-86798250D01*
X72777649Y-86798250D02*
X72587173Y-86845869D01*
X72587173Y-86845869D02*
X72444316Y-86845869D01*
X72444316Y-86845869D02*
X72253840Y-86798250D01*
X72253840Y-86798250D02*
X72158602Y-86750631D01*
X72158602Y-86750631D02*
X72063364Y-86655393D01*
X72063364Y-86655393D02*
X72015745Y-86512536D01*
X72015745Y-86512536D02*
X72015745Y-86417298D01*
X72015745Y-86417298D02*
X72063364Y-86274441D01*
X72063364Y-86274441D02*
X72110983Y-86226822D01*
X72015745Y-85893488D02*
X72015745Y-85274441D01*
X72015745Y-85274441D02*
X72396697Y-85607774D01*
X72396697Y-85607774D02*
X72396697Y-85464917D01*
X72396697Y-85464917D02*
X72444316Y-85369679D01*
X72444316Y-85369679D02*
X72491935Y-85322060D01*
X72491935Y-85322060D02*
X72587173Y-85274441D01*
X72587173Y-85274441D02*
X72825268Y-85274441D01*
X72825268Y-85274441D02*
X72920506Y-85322060D01*
X72920506Y-85322060D02*
X72968126Y-85369679D01*
X72968126Y-85369679D02*
X73015745Y-85464917D01*
X73015745Y-85464917D02*
X73015745Y-85750631D01*
X73015745Y-85750631D02*
X72968126Y-85845869D01*
X72968126Y-85845869D02*
X72920506Y-85893488D01*
X73015745Y-84322060D02*
X73015745Y-84893488D01*
X73015745Y-84607774D02*
X72015745Y-84607774D01*
X72015745Y-84607774D02*
X72158602Y-84703012D01*
X72158602Y-84703012D02*
X72253840Y-84798250D01*
X72253840Y-84798250D02*
X72301459Y-84893488D01*
X73920506Y-86226822D02*
X73968126Y-86274441D01*
X73968126Y-86274441D02*
X74015745Y-86417298D01*
X74015745Y-86417298D02*
X74015745Y-86512536D01*
X74015745Y-86512536D02*
X73968126Y-86655393D01*
X73968126Y-86655393D02*
X73872887Y-86750631D01*
X73872887Y-86750631D02*
X73777649Y-86798250D01*
X73777649Y-86798250D02*
X73587173Y-86845869D01*
X73587173Y-86845869D02*
X73444316Y-86845869D01*
X73444316Y-86845869D02*
X73253840Y-86798250D01*
X73253840Y-86798250D02*
X73158602Y-86750631D01*
X73158602Y-86750631D02*
X73063364Y-86655393D01*
X73063364Y-86655393D02*
X73015745Y-86512536D01*
X73015745Y-86512536D02*
X73015745Y-86417298D01*
X73015745Y-86417298D02*
X73063364Y-86274441D01*
X73063364Y-86274441D02*
X73110983Y-86226822D01*
X73015745Y-85893488D02*
X73015745Y-85274441D01*
X73015745Y-85274441D02*
X73396697Y-85607774D01*
X73396697Y-85607774D02*
X73396697Y-85464917D01*
X73396697Y-85464917D02*
X73444316Y-85369679D01*
X73444316Y-85369679D02*
X73491935Y-85322060D01*
X73491935Y-85322060D02*
X73587173Y-85274441D01*
X73587173Y-85274441D02*
X73825268Y-85274441D01*
X73825268Y-85274441D02*
X73920506Y-85322060D01*
X73920506Y-85322060D02*
X73968126Y-85369679D01*
X73968126Y-85369679D02*
X74015745Y-85464917D01*
X74015745Y-85464917D02*
X74015745Y-85750631D01*
X74015745Y-85750631D02*
X73968126Y-85845869D01*
X73968126Y-85845869D02*
X73920506Y-85893488D01*
X73015745Y-84655393D02*
X73015745Y-84560155D01*
X73015745Y-84560155D02*
X73063364Y-84464917D01*
X73063364Y-84464917D02*
X73110983Y-84417298D01*
X73110983Y-84417298D02*
X73206221Y-84369679D01*
X73206221Y-84369679D02*
X73396697Y-84322060D01*
X73396697Y-84322060D02*
X73634792Y-84322060D01*
X73634792Y-84322060D02*
X73825268Y-84369679D01*
X73825268Y-84369679D02*
X73920506Y-84417298D01*
X73920506Y-84417298D02*
X73968126Y-84464917D01*
X73968126Y-84464917D02*
X74015745Y-84560155D01*
X74015745Y-84560155D02*
X74015745Y-84655393D01*
X74015745Y-84655393D02*
X73968126Y-84750631D01*
X73968126Y-84750631D02*
X73920506Y-84798250D01*
X73920506Y-84798250D02*
X73825268Y-84845869D01*
X73825268Y-84845869D02*
X73634792Y-84893488D01*
X73634792Y-84893488D02*
X73396697Y-84893488D01*
X73396697Y-84893488D02*
X73206221Y-84845869D01*
X73206221Y-84845869D02*
X73110983Y-84798250D01*
X73110983Y-84798250D02*
X73063364Y-84750631D01*
X73063364Y-84750631D02*
X73015745Y-84655393D01*
X76827596Y-92211355D02*
X76351405Y-92544688D01*
X76827596Y-92782783D02*
X75827596Y-92782783D01*
X75827596Y-92782783D02*
X75827596Y-92401831D01*
X75827596Y-92401831D02*
X75875215Y-92306593D01*
X75875215Y-92306593D02*
X75922834Y-92258974D01*
X75922834Y-92258974D02*
X76018072Y-92211355D01*
X76018072Y-92211355D02*
X76160929Y-92211355D01*
X76160929Y-92211355D02*
X76256167Y-92258974D01*
X76256167Y-92258974D02*
X76303786Y-92306593D01*
X76303786Y-92306593D02*
X76351405Y-92401831D01*
X76351405Y-92401831D02*
X76351405Y-92782783D01*
X75922834Y-91830402D02*
X75875215Y-91782783D01*
X75875215Y-91782783D02*
X75827596Y-91687545D01*
X75827596Y-91687545D02*
X75827596Y-91449450D01*
X75827596Y-91449450D02*
X75875215Y-91354212D01*
X75875215Y-91354212D02*
X75922834Y-91306593D01*
X75922834Y-91306593D02*
X76018072Y-91258974D01*
X76018072Y-91258974D02*
X76113310Y-91258974D01*
X76113310Y-91258974D02*
X76256167Y-91306593D01*
X76256167Y-91306593D02*
X76827596Y-91878021D01*
X76827596Y-91878021D02*
X76827596Y-91258974D01*
X75827596Y-90401831D02*
X75827596Y-90592307D01*
X75827596Y-90592307D02*
X75875215Y-90687545D01*
X75875215Y-90687545D02*
X75922834Y-90735164D01*
X75922834Y-90735164D02*
X76065691Y-90830402D01*
X76065691Y-90830402D02*
X76256167Y-90878021D01*
X76256167Y-90878021D02*
X76637119Y-90878021D01*
X76637119Y-90878021D02*
X76732357Y-90830402D01*
X76732357Y-90830402D02*
X76779977Y-90782783D01*
X76779977Y-90782783D02*
X76827596Y-90687545D01*
X76827596Y-90687545D02*
X76827596Y-90497069D01*
X76827596Y-90497069D02*
X76779977Y-90401831D01*
X76779977Y-90401831D02*
X76732357Y-90354212D01*
X76732357Y-90354212D02*
X76637119Y-90306593D01*
X76637119Y-90306593D02*
X76399024Y-90306593D01*
X76399024Y-90306593D02*
X76303786Y-90354212D01*
X76303786Y-90354212D02*
X76256167Y-90401831D01*
X76256167Y-90401831D02*
X76208548Y-90497069D01*
X76208548Y-90497069D02*
X76208548Y-90687545D01*
X76208548Y-90687545D02*
X76256167Y-90782783D01*
X76256167Y-90782783D02*
X76303786Y-90830402D01*
X76303786Y-90830402D02*
X76399024Y-90878021D01*
X105357142Y-76179580D02*
X105309523Y-76227200D01*
X105309523Y-76227200D02*
X105166666Y-76274819D01*
X105166666Y-76274819D02*
X105071428Y-76274819D01*
X105071428Y-76274819D02*
X104928571Y-76227200D01*
X104928571Y-76227200D02*
X104833333Y-76131961D01*
X104833333Y-76131961D02*
X104785714Y-76036723D01*
X104785714Y-76036723D02*
X104738095Y-75846247D01*
X104738095Y-75846247D02*
X104738095Y-75703390D01*
X104738095Y-75703390D02*
X104785714Y-75512914D01*
X104785714Y-75512914D02*
X104833333Y-75417676D01*
X104833333Y-75417676D02*
X104928571Y-75322438D01*
X104928571Y-75322438D02*
X105071428Y-75274819D01*
X105071428Y-75274819D02*
X105166666Y-75274819D01*
X105166666Y-75274819D02*
X105309523Y-75322438D01*
X105309523Y-75322438D02*
X105357142Y-75370057D01*
X105690476Y-75274819D02*
X106309523Y-75274819D01*
X106309523Y-75274819D02*
X105976190Y-75655771D01*
X105976190Y-75655771D02*
X106119047Y-75655771D01*
X106119047Y-75655771D02*
X106214285Y-75703390D01*
X106214285Y-75703390D02*
X106261904Y-75751009D01*
X106261904Y-75751009D02*
X106309523Y-75846247D01*
X106309523Y-75846247D02*
X106309523Y-76084342D01*
X106309523Y-76084342D02*
X106261904Y-76179580D01*
X106261904Y-76179580D02*
X106214285Y-76227200D01*
X106214285Y-76227200D02*
X106119047Y-76274819D01*
X106119047Y-76274819D02*
X105833333Y-76274819D01*
X105833333Y-76274819D02*
X105738095Y-76227200D01*
X105738095Y-76227200D02*
X105690476Y-76179580D01*
X106642857Y-75274819D02*
X107261904Y-75274819D01*
X107261904Y-75274819D02*
X106928571Y-75655771D01*
X106928571Y-75655771D02*
X107071428Y-75655771D01*
X107071428Y-75655771D02*
X107166666Y-75703390D01*
X107166666Y-75703390D02*
X107214285Y-75751009D01*
X107214285Y-75751009D02*
X107261904Y-75846247D01*
X107261904Y-75846247D02*
X107261904Y-76084342D01*
X107261904Y-76084342D02*
X107214285Y-76179580D01*
X107214285Y-76179580D02*
X107166666Y-76227200D01*
X107166666Y-76227200D02*
X107071428Y-76274819D01*
X107071428Y-76274819D02*
X106785714Y-76274819D01*
X106785714Y-76274819D02*
X106690476Y-76227200D01*
X106690476Y-76227200D02*
X106642857Y-76179580D01*
X107420531Y-83907130D02*
X107468151Y-83954749D01*
X107468151Y-83954749D02*
X107515770Y-84097606D01*
X107515770Y-84097606D02*
X107515770Y-84192844D01*
X107515770Y-84192844D02*
X107468151Y-84335701D01*
X107468151Y-84335701D02*
X107372912Y-84430939D01*
X107372912Y-84430939D02*
X107277674Y-84478558D01*
X107277674Y-84478558D02*
X107087198Y-84526177D01*
X107087198Y-84526177D02*
X106944341Y-84526177D01*
X106944341Y-84526177D02*
X106753865Y-84478558D01*
X106753865Y-84478558D02*
X106658627Y-84430939D01*
X106658627Y-84430939D02*
X106563389Y-84335701D01*
X106563389Y-84335701D02*
X106515770Y-84192844D01*
X106515770Y-84192844D02*
X106515770Y-84097606D01*
X106515770Y-84097606D02*
X106563389Y-83954749D01*
X106563389Y-83954749D02*
X106611008Y-83907130D01*
X106611008Y-83526177D02*
X106563389Y-83478558D01*
X106563389Y-83478558D02*
X106515770Y-83383320D01*
X106515770Y-83383320D02*
X106515770Y-83145225D01*
X106515770Y-83145225D02*
X106563389Y-83049987D01*
X106563389Y-83049987D02*
X106611008Y-83002368D01*
X106611008Y-83002368D02*
X106706246Y-82954749D01*
X106706246Y-82954749D02*
X106801484Y-82954749D01*
X106801484Y-82954749D02*
X106944341Y-83002368D01*
X106944341Y-83002368D02*
X107515770Y-83573796D01*
X107515770Y-83573796D02*
X107515770Y-82954749D01*
X106611008Y-82573796D02*
X106563389Y-82526177D01*
X106563389Y-82526177D02*
X106515770Y-82430939D01*
X106515770Y-82430939D02*
X106515770Y-82192844D01*
X106515770Y-82192844D02*
X106563389Y-82097606D01*
X106563389Y-82097606D02*
X106611008Y-82049987D01*
X106611008Y-82049987D02*
X106706246Y-82002368D01*
X106706246Y-82002368D02*
X106801484Y-82002368D01*
X106801484Y-82002368D02*
X106944341Y-82049987D01*
X106944341Y-82049987D02*
X107515770Y-82621415D01*
X107515770Y-82621415D02*
X107515770Y-82002368D01*
X108567595Y-88016349D02*
X109377118Y-88016349D01*
X109377118Y-88016349D02*
X109472356Y-87968730D01*
X109472356Y-87968730D02*
X109519976Y-87921111D01*
X109519976Y-87921111D02*
X109567595Y-87825873D01*
X109567595Y-87825873D02*
X109567595Y-87635397D01*
X109567595Y-87635397D02*
X109519976Y-87540159D01*
X109519976Y-87540159D02*
X109472356Y-87492540D01*
X109472356Y-87492540D02*
X109377118Y-87444921D01*
X109377118Y-87444921D02*
X108567595Y-87444921D01*
X108567595Y-87063968D02*
X108567595Y-86397302D01*
X108567595Y-86397302D02*
X109567595Y-86825873D01*
X107284819Y-88152857D02*
X106808628Y-88486190D01*
X107284819Y-88724285D02*
X106284819Y-88724285D01*
X106284819Y-88724285D02*
X106284819Y-88343333D01*
X106284819Y-88343333D02*
X106332438Y-88248095D01*
X106332438Y-88248095D02*
X106380057Y-88200476D01*
X106380057Y-88200476D02*
X106475295Y-88152857D01*
X106475295Y-88152857D02*
X106618152Y-88152857D01*
X106618152Y-88152857D02*
X106713390Y-88200476D01*
X106713390Y-88200476D02*
X106761009Y-88248095D01*
X106761009Y-88248095D02*
X106808628Y-88343333D01*
X106808628Y-88343333D02*
X106808628Y-88724285D01*
X107284819Y-87200476D02*
X107284819Y-87771904D01*
X107284819Y-87486190D02*
X106284819Y-87486190D01*
X106284819Y-87486190D02*
X106427676Y-87581428D01*
X106427676Y-87581428D02*
X106522914Y-87676666D01*
X106522914Y-87676666D02*
X106570533Y-87771904D01*
X106284819Y-86867142D02*
X106284819Y-86248095D01*
X106284819Y-86248095D02*
X106665771Y-86581428D01*
X106665771Y-86581428D02*
X106665771Y-86438571D01*
X106665771Y-86438571D02*
X106713390Y-86343333D01*
X106713390Y-86343333D02*
X106761009Y-86295714D01*
X106761009Y-86295714D02*
X106856247Y-86248095D01*
X106856247Y-86248095D02*
X107094342Y-86248095D01*
X107094342Y-86248095D02*
X107189580Y-86295714D01*
X107189580Y-86295714D02*
X107237200Y-86343333D01*
X107237200Y-86343333D02*
X107284819Y-86438571D01*
X107284819Y-86438571D02*
X107284819Y-86724285D01*
X107284819Y-86724285D02*
X107237200Y-86819523D01*
X107237200Y-86819523D02*
X107189580Y-86867142D01*
X107833333Y-87854819D02*
X107357143Y-87854819D01*
X107357143Y-87854819D02*
X107357143Y-86854819D01*
X108119048Y-86950057D02*
X108166667Y-86902438D01*
X108166667Y-86902438D02*
X108261905Y-86854819D01*
X108261905Y-86854819D02*
X108500000Y-86854819D01*
X108500000Y-86854819D02*
X108595238Y-86902438D01*
X108595238Y-86902438D02*
X108642857Y-86950057D01*
X108642857Y-86950057D02*
X108690476Y-87045295D01*
X108690476Y-87045295D02*
X108690476Y-87140533D01*
X108690476Y-87140533D02*
X108642857Y-87283390D01*
X108642857Y-87283390D02*
X108071429Y-87854819D01*
X108071429Y-87854819D02*
X108690476Y-87854819D01*
X108179580Y-88142857D02*
X108227200Y-88190476D01*
X108227200Y-88190476D02*
X108274819Y-88333333D01*
X108274819Y-88333333D02*
X108274819Y-88428571D01*
X108274819Y-88428571D02*
X108227200Y-88571428D01*
X108227200Y-88571428D02*
X108131961Y-88666666D01*
X108131961Y-88666666D02*
X108036723Y-88714285D01*
X108036723Y-88714285D02*
X107846247Y-88761904D01*
X107846247Y-88761904D02*
X107703390Y-88761904D01*
X107703390Y-88761904D02*
X107512914Y-88714285D01*
X107512914Y-88714285D02*
X107417676Y-88666666D01*
X107417676Y-88666666D02*
X107322438Y-88571428D01*
X107322438Y-88571428D02*
X107274819Y-88428571D01*
X107274819Y-88428571D02*
X107274819Y-88333333D01*
X107274819Y-88333333D02*
X107322438Y-88190476D01*
X107322438Y-88190476D02*
X107370057Y-88142857D01*
X108274819Y-87190476D02*
X108274819Y-87761904D01*
X108274819Y-87476190D02*
X107274819Y-87476190D01*
X107274819Y-87476190D02*
X107417676Y-87571428D01*
X107417676Y-87571428D02*
X107512914Y-87666666D01*
X107512914Y-87666666D02*
X107560533Y-87761904D01*
X108274819Y-86714285D02*
X108274819Y-86523809D01*
X108274819Y-86523809D02*
X108227200Y-86428571D01*
X108227200Y-86428571D02*
X108179580Y-86380952D01*
X108179580Y-86380952D02*
X108036723Y-86285714D01*
X108036723Y-86285714D02*
X107846247Y-86238095D01*
X107846247Y-86238095D02*
X107465295Y-86238095D01*
X107465295Y-86238095D02*
X107370057Y-86285714D01*
X107370057Y-86285714D02*
X107322438Y-86333333D01*
X107322438Y-86333333D02*
X107274819Y-86428571D01*
X107274819Y-86428571D02*
X107274819Y-86619047D01*
X107274819Y-86619047D02*
X107322438Y-86714285D01*
X107322438Y-86714285D02*
X107370057Y-86761904D01*
X107370057Y-86761904D02*
X107465295Y-86809523D01*
X107465295Y-86809523D02*
X107703390Y-86809523D01*
X107703390Y-86809523D02*
X107798628Y-86761904D01*
X107798628Y-86761904D02*
X107846247Y-86714285D01*
X107846247Y-86714285D02*
X107893866Y-86619047D01*
X107893866Y-86619047D02*
X107893866Y-86428571D01*
X107893866Y-86428571D02*
X107846247Y-86333333D01*
X107846247Y-86333333D02*
X107798628Y-86285714D01*
X107798628Y-86285714D02*
X107703390Y-86238095D01*
X88339700Y-90329464D02*
X88339700Y-91138987D01*
X88339700Y-91138987D02*
X88387319Y-91234225D01*
X88387319Y-91234225D02*
X88434938Y-91281845D01*
X88434938Y-91281845D02*
X88530176Y-91329464D01*
X88530176Y-91329464D02*
X88720652Y-91329464D01*
X88720652Y-91329464D02*
X88815890Y-91281845D01*
X88815890Y-91281845D02*
X88863509Y-91234225D01*
X88863509Y-91234225D02*
X88911128Y-91138987D01*
X88911128Y-91138987D02*
X88911128Y-90329464D01*
X89292081Y-90329464D02*
X89911128Y-90329464D01*
X89911128Y-90329464D02*
X89577795Y-90710416D01*
X89577795Y-90710416D02*
X89720652Y-90710416D01*
X89720652Y-90710416D02*
X89815890Y-90758035D01*
X89815890Y-90758035D02*
X89863509Y-90805654D01*
X89863509Y-90805654D02*
X89911128Y-90900892D01*
X89911128Y-90900892D02*
X89911128Y-91138987D01*
X89911128Y-91138987D02*
X89863509Y-91234225D01*
X89863509Y-91234225D02*
X89815890Y-91281845D01*
X89815890Y-91281845D02*
X89720652Y-91329464D01*
X89720652Y-91329464D02*
X89434938Y-91329464D01*
X89434938Y-91329464D02*
X89339700Y-91281845D01*
X89339700Y-91281845D02*
X89292081Y-91234225D01*
X81461803Y-93404806D02*
X81461803Y-94214329D01*
X81461803Y-94214329D02*
X81509422Y-94309567D01*
X81509422Y-94309567D02*
X81557041Y-94357187D01*
X81557041Y-94357187D02*
X81652279Y-94404806D01*
X81652279Y-94404806D02*
X81842755Y-94404806D01*
X81842755Y-94404806D02*
X81937993Y-94357187D01*
X81937993Y-94357187D02*
X81985612Y-94309567D01*
X81985612Y-94309567D02*
X82033231Y-94214329D01*
X82033231Y-94214329D02*
X82033231Y-93404806D01*
X83033231Y-94404806D02*
X82461803Y-94404806D01*
X82747517Y-94404806D02*
X82747517Y-93404806D01*
X82747517Y-93404806D02*
X82652279Y-93547663D01*
X82652279Y-93547663D02*
X82557041Y-93642901D01*
X82557041Y-93642901D02*
X82461803Y-93690520D01*
X83652279Y-93404806D02*
X83747517Y-93404806D01*
X83747517Y-93404806D02*
X83842755Y-93452425D01*
X83842755Y-93452425D02*
X83890374Y-93500044D01*
X83890374Y-93500044D02*
X83937993Y-93595282D01*
X83937993Y-93595282D02*
X83985612Y-93785758D01*
X83985612Y-93785758D02*
X83985612Y-94023853D01*
X83985612Y-94023853D02*
X83937993Y-94214329D01*
X83937993Y-94214329D02*
X83890374Y-94309567D01*
X83890374Y-94309567D02*
X83842755Y-94357187D01*
X83842755Y-94357187D02*
X83747517Y-94404806D01*
X83747517Y-94404806D02*
X83652279Y-94404806D01*
X83652279Y-94404806D02*
X83557041Y-94357187D01*
X83557041Y-94357187D02*
X83509422Y-94309567D01*
X83509422Y-94309567D02*
X83461803Y-94214329D01*
X83461803Y-94214329D02*
X83414184Y-94023853D01*
X83414184Y-94023853D02*
X83414184Y-93785758D01*
X83414184Y-93785758D02*
X83461803Y-93595282D01*
X83461803Y-93595282D02*
X83509422Y-93500044D01*
X83509422Y-93500044D02*
X83557041Y-93452425D01*
X83557041Y-93452425D02*
X83652279Y-93404806D01*
X93452501Y-92879299D02*
X93385157Y-92879299D01*
X93385157Y-92879299D02*
X93250470Y-92811955D01*
X93250470Y-92811955D02*
X93183127Y-92744612D01*
X93183127Y-92744612D02*
X93115783Y-92609925D01*
X93115783Y-92609925D02*
X93115783Y-92475238D01*
X93115783Y-92475238D02*
X93149455Y-92374223D01*
X93149455Y-92374223D02*
X93250470Y-92205864D01*
X93250470Y-92205864D02*
X93351485Y-92104849D01*
X93351485Y-92104849D02*
X93519844Y-92003833D01*
X93519844Y-92003833D02*
X93620859Y-91970162D01*
X93620859Y-91970162D02*
X93755546Y-91970162D01*
X93755546Y-91970162D02*
X93890233Y-92037505D01*
X93890233Y-92037505D02*
X93957577Y-92104849D01*
X93957577Y-92104849D02*
X94024920Y-92239536D01*
X94024920Y-92239536D02*
X94024920Y-92306879D01*
X94058592Y-93620077D02*
X93654531Y-93216016D01*
X93856562Y-93418047D02*
X94563668Y-92710940D01*
X94563668Y-92710940D02*
X94395310Y-92744612D01*
X94395310Y-92744612D02*
X94260623Y-92744612D01*
X94260623Y-92744612D02*
X94159607Y-92710940D01*
X95136088Y-93754765D02*
X94664684Y-94226169D01*
X95237104Y-93317032D02*
X94563669Y-93653749D01*
X94563669Y-93653749D02*
X95001401Y-94091482D01*
X85238070Y-126963811D02*
X85238070Y-127773334D01*
X85238070Y-127773334D02*
X85285689Y-127868572D01*
X85285689Y-127868572D02*
X85333308Y-127916192D01*
X85333308Y-127916192D02*
X85428546Y-127963811D01*
X85428546Y-127963811D02*
X85619022Y-127963811D01*
X85619022Y-127963811D02*
X85714260Y-127916192D01*
X85714260Y-127916192D02*
X85761879Y-127868572D01*
X85761879Y-127868572D02*
X85809498Y-127773334D01*
X85809498Y-127773334D02*
X85809498Y-126963811D01*
X86714260Y-126963811D02*
X86523784Y-126963811D01*
X86523784Y-126963811D02*
X86428546Y-127011430D01*
X86428546Y-127011430D02*
X86380927Y-127059049D01*
X86380927Y-127059049D02*
X86285689Y-127201906D01*
X86285689Y-127201906D02*
X86238070Y-127392382D01*
X86238070Y-127392382D02*
X86238070Y-127773334D01*
X86238070Y-127773334D02*
X86285689Y-127868572D01*
X86285689Y-127868572D02*
X86333308Y-127916192D01*
X86333308Y-127916192D02*
X86428546Y-127963811D01*
X86428546Y-127963811D02*
X86619022Y-127963811D01*
X86619022Y-127963811D02*
X86714260Y-127916192D01*
X86714260Y-127916192D02*
X86761879Y-127868572D01*
X86761879Y-127868572D02*
X86809498Y-127773334D01*
X86809498Y-127773334D02*
X86809498Y-127535239D01*
X86809498Y-127535239D02*
X86761879Y-127440001D01*
X86761879Y-127440001D02*
X86714260Y-127392382D01*
X86714260Y-127392382D02*
X86619022Y-127344763D01*
X86619022Y-127344763D02*
X86428546Y-127344763D01*
X86428546Y-127344763D02*
X86333308Y-127392382D01*
X86333308Y-127392382D02*
X86285689Y-127440001D01*
X86285689Y-127440001D02*
X86238070Y-127535239D01*
X96837142Y-116199580D02*
X96789523Y-116247200D01*
X96789523Y-116247200D02*
X96646666Y-116294819D01*
X96646666Y-116294819D02*
X96551428Y-116294819D01*
X96551428Y-116294819D02*
X96408571Y-116247200D01*
X96408571Y-116247200D02*
X96313333Y-116151961D01*
X96313333Y-116151961D02*
X96265714Y-116056723D01*
X96265714Y-116056723D02*
X96218095Y-115866247D01*
X96218095Y-115866247D02*
X96218095Y-115723390D01*
X96218095Y-115723390D02*
X96265714Y-115532914D01*
X96265714Y-115532914D02*
X96313333Y-115437676D01*
X96313333Y-115437676D02*
X96408571Y-115342438D01*
X96408571Y-115342438D02*
X96551428Y-115294819D01*
X96551428Y-115294819D02*
X96646666Y-115294819D01*
X96646666Y-115294819D02*
X96789523Y-115342438D01*
X96789523Y-115342438D02*
X96837142Y-115390057D01*
X97218095Y-115390057D02*
X97265714Y-115342438D01*
X97265714Y-115342438D02*
X97360952Y-115294819D01*
X97360952Y-115294819D02*
X97599047Y-115294819D01*
X97599047Y-115294819D02*
X97694285Y-115342438D01*
X97694285Y-115342438D02*
X97741904Y-115390057D01*
X97741904Y-115390057D02*
X97789523Y-115485295D01*
X97789523Y-115485295D02*
X97789523Y-115580533D01*
X97789523Y-115580533D02*
X97741904Y-115723390D01*
X97741904Y-115723390D02*
X97170476Y-116294819D01*
X97170476Y-116294819D02*
X97789523Y-116294819D01*
X98694285Y-115294819D02*
X98218095Y-115294819D01*
X98218095Y-115294819D02*
X98170476Y-115771009D01*
X98170476Y-115771009D02*
X98218095Y-115723390D01*
X98218095Y-115723390D02*
X98313333Y-115675771D01*
X98313333Y-115675771D02*
X98551428Y-115675771D01*
X98551428Y-115675771D02*
X98646666Y-115723390D01*
X98646666Y-115723390D02*
X98694285Y-115771009D01*
X98694285Y-115771009D02*
X98741904Y-115866247D01*
X98741904Y-115866247D02*
X98741904Y-116104342D01*
X98741904Y-116104342D02*
X98694285Y-116199580D01*
X98694285Y-116199580D02*
X98646666Y-116247200D01*
X98646666Y-116247200D02*
X98551428Y-116294819D01*
X98551428Y-116294819D02*
X98313333Y-116294819D01*
X98313333Y-116294819D02*
X98218095Y-116247200D01*
X98218095Y-116247200D02*
X98170476Y-116199580D01*
X96807142Y-117179580D02*
X96759523Y-117227200D01*
X96759523Y-117227200D02*
X96616666Y-117274819D01*
X96616666Y-117274819D02*
X96521428Y-117274819D01*
X96521428Y-117274819D02*
X96378571Y-117227200D01*
X96378571Y-117227200D02*
X96283333Y-117131961D01*
X96283333Y-117131961D02*
X96235714Y-117036723D01*
X96235714Y-117036723D02*
X96188095Y-116846247D01*
X96188095Y-116846247D02*
X96188095Y-116703390D01*
X96188095Y-116703390D02*
X96235714Y-116512914D01*
X96235714Y-116512914D02*
X96283333Y-116417676D01*
X96283333Y-116417676D02*
X96378571Y-116322438D01*
X96378571Y-116322438D02*
X96521428Y-116274819D01*
X96521428Y-116274819D02*
X96616666Y-116274819D01*
X96616666Y-116274819D02*
X96759523Y-116322438D01*
X96759523Y-116322438D02*
X96807142Y-116370057D01*
X97188095Y-116370057D02*
X97235714Y-116322438D01*
X97235714Y-116322438D02*
X97330952Y-116274819D01*
X97330952Y-116274819D02*
X97569047Y-116274819D01*
X97569047Y-116274819D02*
X97664285Y-116322438D01*
X97664285Y-116322438D02*
X97711904Y-116370057D01*
X97711904Y-116370057D02*
X97759523Y-116465295D01*
X97759523Y-116465295D02*
X97759523Y-116560533D01*
X97759523Y-116560533D02*
X97711904Y-116703390D01*
X97711904Y-116703390D02*
X97140476Y-117274819D01*
X97140476Y-117274819D02*
X97759523Y-117274819D01*
X98616666Y-116608152D02*
X98616666Y-117274819D01*
X98378571Y-116227200D02*
X98140476Y-116941485D01*
X98140476Y-116941485D02*
X98759523Y-116941485D01*
X87708747Y-102509225D02*
X87661128Y-102556845D01*
X87661128Y-102556845D02*
X87518271Y-102604464D01*
X87518271Y-102604464D02*
X87423033Y-102604464D01*
X87423033Y-102604464D02*
X87280176Y-102556845D01*
X87280176Y-102556845D02*
X87184938Y-102461606D01*
X87184938Y-102461606D02*
X87137319Y-102366368D01*
X87137319Y-102366368D02*
X87089700Y-102175892D01*
X87089700Y-102175892D02*
X87089700Y-102033035D01*
X87089700Y-102033035D02*
X87137319Y-101842559D01*
X87137319Y-101842559D02*
X87184938Y-101747321D01*
X87184938Y-101747321D02*
X87280176Y-101652083D01*
X87280176Y-101652083D02*
X87423033Y-101604464D01*
X87423033Y-101604464D02*
X87518271Y-101604464D01*
X87518271Y-101604464D02*
X87661128Y-101652083D01*
X87661128Y-101652083D02*
X87708747Y-101699702D01*
X88661128Y-102604464D02*
X88089700Y-102604464D01*
X88375414Y-102604464D02*
X88375414Y-101604464D01*
X88375414Y-101604464D02*
X88280176Y-101747321D01*
X88280176Y-101747321D02*
X88184938Y-101842559D01*
X88184938Y-101842559D02*
X88089700Y-101890178D01*
X88994462Y-101604464D02*
X89661128Y-101604464D01*
X89661128Y-101604464D02*
X89232557Y-102604464D01*
X95184938Y-82009225D02*
X95137319Y-82056845D01*
X95137319Y-82056845D02*
X94994462Y-82104464D01*
X94994462Y-82104464D02*
X94899224Y-82104464D01*
X94899224Y-82104464D02*
X94756367Y-82056845D01*
X94756367Y-82056845D02*
X94661129Y-81961606D01*
X94661129Y-81961606D02*
X94613510Y-81866368D01*
X94613510Y-81866368D02*
X94565891Y-81675892D01*
X94565891Y-81675892D02*
X94565891Y-81533035D01*
X94565891Y-81533035D02*
X94613510Y-81342559D01*
X94613510Y-81342559D02*
X94661129Y-81247321D01*
X94661129Y-81247321D02*
X94756367Y-81152083D01*
X94756367Y-81152083D02*
X94899224Y-81104464D01*
X94899224Y-81104464D02*
X94994462Y-81104464D01*
X94994462Y-81104464D02*
X95137319Y-81152083D01*
X95137319Y-81152083D02*
X95184938Y-81199702D01*
X95565891Y-81199702D02*
X95613510Y-81152083D01*
X95613510Y-81152083D02*
X95708748Y-81104464D01*
X95708748Y-81104464D02*
X95946843Y-81104464D01*
X95946843Y-81104464D02*
X96042081Y-81152083D01*
X96042081Y-81152083D02*
X96089700Y-81199702D01*
X96089700Y-81199702D02*
X96137319Y-81294940D01*
X96137319Y-81294940D02*
X96137319Y-81390178D01*
X96137319Y-81390178D02*
X96089700Y-81533035D01*
X96089700Y-81533035D02*
X95518272Y-82104464D01*
X95518272Y-82104464D02*
X96137319Y-82104464D01*
X102884938Y-110809225D02*
X102837319Y-110856845D01*
X102837319Y-110856845D02*
X102694462Y-110904464D01*
X102694462Y-110904464D02*
X102599224Y-110904464D01*
X102599224Y-110904464D02*
X102456367Y-110856845D01*
X102456367Y-110856845D02*
X102361129Y-110761606D01*
X102361129Y-110761606D02*
X102313510Y-110666368D01*
X102313510Y-110666368D02*
X102265891Y-110475892D01*
X102265891Y-110475892D02*
X102265891Y-110333035D01*
X102265891Y-110333035D02*
X102313510Y-110142559D01*
X102313510Y-110142559D02*
X102361129Y-110047321D01*
X102361129Y-110047321D02*
X102456367Y-109952083D01*
X102456367Y-109952083D02*
X102599224Y-109904464D01*
X102599224Y-109904464D02*
X102694462Y-109904464D01*
X102694462Y-109904464D02*
X102837319Y-109952083D01*
X102837319Y-109952083D02*
X102884938Y-109999702D01*
X103742081Y-110237797D02*
X103742081Y-110904464D01*
X103503986Y-109856845D02*
X103265891Y-110571130D01*
X103265891Y-110571130D02*
X103884938Y-110571130D01*
X95508747Y-91509225D02*
X95461128Y-91556845D01*
X95461128Y-91556845D02*
X95318271Y-91604464D01*
X95318271Y-91604464D02*
X95223033Y-91604464D01*
X95223033Y-91604464D02*
X95080176Y-91556845D01*
X95080176Y-91556845D02*
X94984938Y-91461606D01*
X94984938Y-91461606D02*
X94937319Y-91366368D01*
X94937319Y-91366368D02*
X94889700Y-91175892D01*
X94889700Y-91175892D02*
X94889700Y-91033035D01*
X94889700Y-91033035D02*
X94937319Y-90842559D01*
X94937319Y-90842559D02*
X94984938Y-90747321D01*
X94984938Y-90747321D02*
X95080176Y-90652083D01*
X95080176Y-90652083D02*
X95223033Y-90604464D01*
X95223033Y-90604464D02*
X95318271Y-90604464D01*
X95318271Y-90604464D02*
X95461128Y-90652083D01*
X95461128Y-90652083D02*
X95508747Y-90699702D01*
X96461128Y-91604464D02*
X95889700Y-91604464D01*
X96175414Y-91604464D02*
X96175414Y-90604464D01*
X96175414Y-90604464D02*
X96080176Y-90747321D01*
X96080176Y-90747321D02*
X95984938Y-90842559D01*
X95984938Y-90842559D02*
X95889700Y-90890178D01*
X96842081Y-90699702D02*
X96889700Y-90652083D01*
X96889700Y-90652083D02*
X96984938Y-90604464D01*
X96984938Y-90604464D02*
X97223033Y-90604464D01*
X97223033Y-90604464D02*
X97318271Y-90652083D01*
X97318271Y-90652083D02*
X97365890Y-90699702D01*
X97365890Y-90699702D02*
X97413509Y-90794940D01*
X97413509Y-90794940D02*
X97413509Y-90890178D01*
X97413509Y-90890178D02*
X97365890Y-91033035D01*
X97365890Y-91033035D02*
X96794462Y-91604464D01*
X96794462Y-91604464D02*
X97413509Y-91604464D01*
X109208747Y-101009225D02*
X109161128Y-101056845D01*
X109161128Y-101056845D02*
X109018271Y-101104464D01*
X109018271Y-101104464D02*
X108923033Y-101104464D01*
X108923033Y-101104464D02*
X108780176Y-101056845D01*
X108780176Y-101056845D02*
X108684938Y-100961606D01*
X108684938Y-100961606D02*
X108637319Y-100866368D01*
X108637319Y-100866368D02*
X108589700Y-100675892D01*
X108589700Y-100675892D02*
X108589700Y-100533035D01*
X108589700Y-100533035D02*
X108637319Y-100342559D01*
X108637319Y-100342559D02*
X108684938Y-100247321D01*
X108684938Y-100247321D02*
X108780176Y-100152083D01*
X108780176Y-100152083D02*
X108923033Y-100104464D01*
X108923033Y-100104464D02*
X109018271Y-100104464D01*
X109018271Y-100104464D02*
X109161128Y-100152083D01*
X109161128Y-100152083D02*
X109208747Y-100199702D01*
X110161128Y-101104464D02*
X109589700Y-101104464D01*
X109875414Y-101104464D02*
X109875414Y-100104464D01*
X109875414Y-100104464D02*
X109780176Y-100247321D01*
X109780176Y-100247321D02*
X109684938Y-100342559D01*
X109684938Y-100342559D02*
X109589700Y-100390178D01*
X111018271Y-100104464D02*
X110827795Y-100104464D01*
X110827795Y-100104464D02*
X110732557Y-100152083D01*
X110732557Y-100152083D02*
X110684938Y-100199702D01*
X110684938Y-100199702D02*
X110589700Y-100342559D01*
X110589700Y-100342559D02*
X110542081Y-100533035D01*
X110542081Y-100533035D02*
X110542081Y-100913987D01*
X110542081Y-100913987D02*
X110589700Y-101009225D01*
X110589700Y-101009225D02*
X110637319Y-101056845D01*
X110637319Y-101056845D02*
X110732557Y-101104464D01*
X110732557Y-101104464D02*
X110923033Y-101104464D01*
X110923033Y-101104464D02*
X111018271Y-101056845D01*
X111018271Y-101056845D02*
X111065890Y-101009225D01*
X111065890Y-101009225D02*
X111113509Y-100913987D01*
X111113509Y-100913987D02*
X111113509Y-100675892D01*
X111113509Y-100675892D02*
X111065890Y-100580654D01*
X111065890Y-100580654D02*
X111018271Y-100533035D01*
X111018271Y-100533035D02*
X110923033Y-100485416D01*
X110923033Y-100485416D02*
X110732557Y-100485416D01*
X110732557Y-100485416D02*
X110637319Y-100533035D01*
X110637319Y-100533035D02*
X110589700Y-100580654D01*
X110589700Y-100580654D02*
X110542081Y-100675892D01*
X108808747Y-104909225D02*
X108761128Y-104956845D01*
X108761128Y-104956845D02*
X108618271Y-105004464D01*
X108618271Y-105004464D02*
X108523033Y-105004464D01*
X108523033Y-105004464D02*
X108380176Y-104956845D01*
X108380176Y-104956845D02*
X108284938Y-104861606D01*
X108284938Y-104861606D02*
X108237319Y-104766368D01*
X108237319Y-104766368D02*
X108189700Y-104575892D01*
X108189700Y-104575892D02*
X108189700Y-104433035D01*
X108189700Y-104433035D02*
X108237319Y-104242559D01*
X108237319Y-104242559D02*
X108284938Y-104147321D01*
X108284938Y-104147321D02*
X108380176Y-104052083D01*
X108380176Y-104052083D02*
X108523033Y-104004464D01*
X108523033Y-104004464D02*
X108618271Y-104004464D01*
X108618271Y-104004464D02*
X108761128Y-104052083D01*
X108761128Y-104052083D02*
X108808747Y-104099702D01*
X109761128Y-105004464D02*
X109189700Y-105004464D01*
X109475414Y-105004464D02*
X109475414Y-104004464D01*
X109475414Y-104004464D02*
X109380176Y-104147321D01*
X109380176Y-104147321D02*
X109284938Y-104242559D01*
X109284938Y-104242559D02*
X109189700Y-104290178D01*
X110332557Y-104433035D02*
X110237319Y-104385416D01*
X110237319Y-104385416D02*
X110189700Y-104337797D01*
X110189700Y-104337797D02*
X110142081Y-104242559D01*
X110142081Y-104242559D02*
X110142081Y-104194940D01*
X110142081Y-104194940D02*
X110189700Y-104099702D01*
X110189700Y-104099702D02*
X110237319Y-104052083D01*
X110237319Y-104052083D02*
X110332557Y-104004464D01*
X110332557Y-104004464D02*
X110523033Y-104004464D01*
X110523033Y-104004464D02*
X110618271Y-104052083D01*
X110618271Y-104052083D02*
X110665890Y-104099702D01*
X110665890Y-104099702D02*
X110713509Y-104194940D01*
X110713509Y-104194940D02*
X110713509Y-104242559D01*
X110713509Y-104242559D02*
X110665890Y-104337797D01*
X110665890Y-104337797D02*
X110618271Y-104385416D01*
X110618271Y-104385416D02*
X110523033Y-104433035D01*
X110523033Y-104433035D02*
X110332557Y-104433035D01*
X110332557Y-104433035D02*
X110237319Y-104480654D01*
X110237319Y-104480654D02*
X110189700Y-104528273D01*
X110189700Y-104528273D02*
X110142081Y-104623511D01*
X110142081Y-104623511D02*
X110142081Y-104813987D01*
X110142081Y-104813987D02*
X110189700Y-104909225D01*
X110189700Y-104909225D02*
X110237319Y-104956845D01*
X110237319Y-104956845D02*
X110332557Y-105004464D01*
X110332557Y-105004464D02*
X110523033Y-105004464D01*
X110523033Y-105004464D02*
X110618271Y-104956845D01*
X110618271Y-104956845D02*
X110665890Y-104909225D01*
X110665890Y-104909225D02*
X110713509Y-104813987D01*
X110713509Y-104813987D02*
X110713509Y-104623511D01*
X110713509Y-104623511D02*
X110665890Y-104528273D01*
X110665890Y-104528273D02*
X110618271Y-104480654D01*
X110618271Y-104480654D02*
X110523033Y-104433035D01*
X99406424Y-89116311D02*
X98930233Y-89449644D01*
X99406424Y-89687739D02*
X98406424Y-89687739D01*
X98406424Y-89687739D02*
X98406424Y-89306787D01*
X98406424Y-89306787D02*
X98454043Y-89211549D01*
X98454043Y-89211549D02*
X98501662Y-89163930D01*
X98501662Y-89163930D02*
X98596900Y-89116311D01*
X98596900Y-89116311D02*
X98739757Y-89116311D01*
X98739757Y-89116311D02*
X98834995Y-89163930D01*
X98834995Y-89163930D02*
X98882614Y-89211549D01*
X98882614Y-89211549D02*
X98930233Y-89306787D01*
X98930233Y-89306787D02*
X98930233Y-89687739D01*
X98406424Y-88782977D02*
X98406424Y-88116311D01*
X98406424Y-88116311D02*
X99406424Y-88544882D01*
X87708747Y-97309225D02*
X87661128Y-97356845D01*
X87661128Y-97356845D02*
X87518271Y-97404464D01*
X87518271Y-97404464D02*
X87423033Y-97404464D01*
X87423033Y-97404464D02*
X87280176Y-97356845D01*
X87280176Y-97356845D02*
X87184938Y-97261606D01*
X87184938Y-97261606D02*
X87137319Y-97166368D01*
X87137319Y-97166368D02*
X87089700Y-96975892D01*
X87089700Y-96975892D02*
X87089700Y-96833035D01*
X87089700Y-96833035D02*
X87137319Y-96642559D01*
X87137319Y-96642559D02*
X87184938Y-96547321D01*
X87184938Y-96547321D02*
X87280176Y-96452083D01*
X87280176Y-96452083D02*
X87423033Y-96404464D01*
X87423033Y-96404464D02*
X87518271Y-96404464D01*
X87518271Y-96404464D02*
X87661128Y-96452083D01*
X87661128Y-96452083D02*
X87708747Y-96499702D01*
X88661128Y-97404464D02*
X88089700Y-97404464D01*
X88375414Y-97404464D02*
X88375414Y-96404464D01*
X88375414Y-96404464D02*
X88280176Y-96547321D01*
X88280176Y-96547321D02*
X88184938Y-96642559D01*
X88184938Y-96642559D02*
X88089700Y-96690178D01*
X89565890Y-96404464D02*
X89089700Y-96404464D01*
X89089700Y-96404464D02*
X89042081Y-96880654D01*
X89042081Y-96880654D02*
X89089700Y-96833035D01*
X89089700Y-96833035D02*
X89184938Y-96785416D01*
X89184938Y-96785416D02*
X89423033Y-96785416D01*
X89423033Y-96785416D02*
X89518271Y-96833035D01*
X89518271Y-96833035D02*
X89565890Y-96880654D01*
X89565890Y-96880654D02*
X89613509Y-96975892D01*
X89613509Y-96975892D02*
X89613509Y-97213987D01*
X89613509Y-97213987D02*
X89565890Y-97309225D01*
X89565890Y-97309225D02*
X89518271Y-97356845D01*
X89518271Y-97356845D02*
X89423033Y-97404464D01*
X89423033Y-97404464D02*
X89184938Y-97404464D01*
X89184938Y-97404464D02*
X89089700Y-97356845D01*
X89089700Y-97356845D02*
X89042081Y-97309225D01*
X95284938Y-110709225D02*
X95237319Y-110756845D01*
X95237319Y-110756845D02*
X95094462Y-110804464D01*
X95094462Y-110804464D02*
X94999224Y-110804464D01*
X94999224Y-110804464D02*
X94856367Y-110756845D01*
X94856367Y-110756845D02*
X94761129Y-110661606D01*
X94761129Y-110661606D02*
X94713510Y-110566368D01*
X94713510Y-110566368D02*
X94665891Y-110375892D01*
X94665891Y-110375892D02*
X94665891Y-110233035D01*
X94665891Y-110233035D02*
X94713510Y-110042559D01*
X94713510Y-110042559D02*
X94761129Y-109947321D01*
X94761129Y-109947321D02*
X94856367Y-109852083D01*
X94856367Y-109852083D02*
X94999224Y-109804464D01*
X94999224Y-109804464D02*
X95094462Y-109804464D01*
X95094462Y-109804464D02*
X95237319Y-109852083D01*
X95237319Y-109852083D02*
X95284938Y-109899702D01*
X95618272Y-109804464D02*
X96237319Y-109804464D01*
X96237319Y-109804464D02*
X95903986Y-110185416D01*
X95903986Y-110185416D02*
X96046843Y-110185416D01*
X96046843Y-110185416D02*
X96142081Y-110233035D01*
X96142081Y-110233035D02*
X96189700Y-110280654D01*
X96189700Y-110280654D02*
X96237319Y-110375892D01*
X96237319Y-110375892D02*
X96237319Y-110613987D01*
X96237319Y-110613987D02*
X96189700Y-110709225D01*
X96189700Y-110709225D02*
X96142081Y-110756845D01*
X96142081Y-110756845D02*
X96046843Y-110804464D01*
X96046843Y-110804464D02*
X95761129Y-110804464D01*
X95761129Y-110804464D02*
X95665891Y-110756845D01*
X95665891Y-110756845D02*
X95618272Y-110709225D01*
X100806424Y-89116311D02*
X100330233Y-89449644D01*
X100806424Y-89687739D02*
X99806424Y-89687739D01*
X99806424Y-89687739D02*
X99806424Y-89306787D01*
X99806424Y-89306787D02*
X99854043Y-89211549D01*
X99854043Y-89211549D02*
X99901662Y-89163930D01*
X99901662Y-89163930D02*
X99996900Y-89116311D01*
X99996900Y-89116311D02*
X100139757Y-89116311D01*
X100139757Y-89116311D02*
X100234995Y-89163930D01*
X100234995Y-89163930D02*
X100282614Y-89211549D01*
X100282614Y-89211549D02*
X100330233Y-89306787D01*
X100330233Y-89306787D02*
X100330233Y-89687739D01*
X100234995Y-88544882D02*
X100187376Y-88640120D01*
X100187376Y-88640120D02*
X100139757Y-88687739D01*
X100139757Y-88687739D02*
X100044519Y-88735358D01*
X100044519Y-88735358D02*
X99996900Y-88735358D01*
X99996900Y-88735358D02*
X99901662Y-88687739D01*
X99901662Y-88687739D02*
X99854043Y-88640120D01*
X99854043Y-88640120D02*
X99806424Y-88544882D01*
X99806424Y-88544882D02*
X99806424Y-88354406D01*
X99806424Y-88354406D02*
X99854043Y-88259168D01*
X99854043Y-88259168D02*
X99901662Y-88211549D01*
X99901662Y-88211549D02*
X99996900Y-88163930D01*
X99996900Y-88163930D02*
X100044519Y-88163930D01*
X100044519Y-88163930D02*
X100139757Y-88211549D01*
X100139757Y-88211549D02*
X100187376Y-88259168D01*
X100187376Y-88259168D02*
X100234995Y-88354406D01*
X100234995Y-88354406D02*
X100234995Y-88544882D01*
X100234995Y-88544882D02*
X100282614Y-88640120D01*
X100282614Y-88640120D02*
X100330233Y-88687739D01*
X100330233Y-88687739D02*
X100425471Y-88735358D01*
X100425471Y-88735358D02*
X100615947Y-88735358D01*
X100615947Y-88735358D02*
X100711185Y-88687739D01*
X100711185Y-88687739D02*
X100758805Y-88640120D01*
X100758805Y-88640120D02*
X100806424Y-88544882D01*
X100806424Y-88544882D02*
X100806424Y-88354406D01*
X100806424Y-88354406D02*
X100758805Y-88259168D01*
X100758805Y-88259168D02*
X100711185Y-88211549D01*
X100711185Y-88211549D02*
X100615947Y-88163930D01*
X100615947Y-88163930D02*
X100425471Y-88163930D01*
X100425471Y-88163930D02*
X100330233Y-88211549D01*
X100330233Y-88211549D02*
X100282614Y-88259168D01*
X100282614Y-88259168D02*
X100234995Y-88354406D01*
X106508747Y-97809225D02*
X106461128Y-97856845D01*
X106461128Y-97856845D02*
X106318271Y-97904464D01*
X106318271Y-97904464D02*
X106223033Y-97904464D01*
X106223033Y-97904464D02*
X106080176Y-97856845D01*
X106080176Y-97856845D02*
X105984938Y-97761606D01*
X105984938Y-97761606D02*
X105937319Y-97666368D01*
X105937319Y-97666368D02*
X105889700Y-97475892D01*
X105889700Y-97475892D02*
X105889700Y-97333035D01*
X105889700Y-97333035D02*
X105937319Y-97142559D01*
X105937319Y-97142559D02*
X105984938Y-97047321D01*
X105984938Y-97047321D02*
X106080176Y-96952083D01*
X106080176Y-96952083D02*
X106223033Y-96904464D01*
X106223033Y-96904464D02*
X106318271Y-96904464D01*
X106318271Y-96904464D02*
X106461128Y-96952083D01*
X106461128Y-96952083D02*
X106508747Y-96999702D01*
X106889700Y-96999702D02*
X106937319Y-96952083D01*
X106937319Y-96952083D02*
X107032557Y-96904464D01*
X107032557Y-96904464D02*
X107270652Y-96904464D01*
X107270652Y-96904464D02*
X107365890Y-96952083D01*
X107365890Y-96952083D02*
X107413509Y-96999702D01*
X107413509Y-96999702D02*
X107461128Y-97094940D01*
X107461128Y-97094940D02*
X107461128Y-97190178D01*
X107461128Y-97190178D02*
X107413509Y-97333035D01*
X107413509Y-97333035D02*
X106842081Y-97904464D01*
X106842081Y-97904464D02*
X107461128Y-97904464D01*
X108080176Y-96904464D02*
X108175414Y-96904464D01*
X108175414Y-96904464D02*
X108270652Y-96952083D01*
X108270652Y-96952083D02*
X108318271Y-96999702D01*
X108318271Y-96999702D02*
X108365890Y-97094940D01*
X108365890Y-97094940D02*
X108413509Y-97285416D01*
X108413509Y-97285416D02*
X108413509Y-97523511D01*
X108413509Y-97523511D02*
X108365890Y-97713987D01*
X108365890Y-97713987D02*
X108318271Y-97809225D01*
X108318271Y-97809225D02*
X108270652Y-97856845D01*
X108270652Y-97856845D02*
X108175414Y-97904464D01*
X108175414Y-97904464D02*
X108080176Y-97904464D01*
X108080176Y-97904464D02*
X107984938Y-97856845D01*
X107984938Y-97856845D02*
X107937319Y-97809225D01*
X107937319Y-97809225D02*
X107889700Y-97713987D01*
X107889700Y-97713987D02*
X107842081Y-97523511D01*
X107842081Y-97523511D02*
X107842081Y-97285416D01*
X107842081Y-97285416D02*
X107889700Y-97094940D01*
X107889700Y-97094940D02*
X107937319Y-96999702D01*
X107937319Y-96999702D02*
X107984938Y-96952083D01*
X107984938Y-96952083D02*
X108080176Y-96904464D01*
X98784938Y-107104464D02*
X98451605Y-106628273D01*
X98213510Y-107104464D02*
X98213510Y-106104464D01*
X98213510Y-106104464D02*
X98594462Y-106104464D01*
X98594462Y-106104464D02*
X98689700Y-106152083D01*
X98689700Y-106152083D02*
X98737319Y-106199702D01*
X98737319Y-106199702D02*
X98784938Y-106294940D01*
X98784938Y-106294940D02*
X98784938Y-106437797D01*
X98784938Y-106437797D02*
X98737319Y-106533035D01*
X98737319Y-106533035D02*
X98689700Y-106580654D01*
X98689700Y-106580654D02*
X98594462Y-106628273D01*
X98594462Y-106628273D02*
X98213510Y-106628273D01*
X99165891Y-106199702D02*
X99213510Y-106152083D01*
X99213510Y-106152083D02*
X99308748Y-106104464D01*
X99308748Y-106104464D02*
X99546843Y-106104464D01*
X99546843Y-106104464D02*
X99642081Y-106152083D01*
X99642081Y-106152083D02*
X99689700Y-106199702D01*
X99689700Y-106199702D02*
X99737319Y-106294940D01*
X99737319Y-106294940D02*
X99737319Y-106390178D01*
X99737319Y-106390178D02*
X99689700Y-106533035D01*
X99689700Y-106533035D02*
X99118272Y-107104464D01*
X99118272Y-107104464D02*
X99737319Y-107104464D01*
X98675414Y-116428273D02*
X98675414Y-116904464D01*
X98342081Y-115904464D02*
X98675414Y-116428273D01*
X98675414Y-116428273D02*
X99008747Y-115904464D01*
X99865890Y-116904464D02*
X99294462Y-116904464D01*
X99580176Y-116904464D02*
X99580176Y-115904464D01*
X99580176Y-115904464D02*
X99484938Y-116047321D01*
X99484938Y-116047321D02*
X99389700Y-116142559D01*
X99389700Y-116142559D02*
X99294462Y-116190178D01*
X105684938Y-92054464D02*
X105351605Y-91578273D01*
X105113510Y-92054464D02*
X105113510Y-91054464D01*
X105113510Y-91054464D02*
X105494462Y-91054464D01*
X105494462Y-91054464D02*
X105589700Y-91102083D01*
X105589700Y-91102083D02*
X105637319Y-91149702D01*
X105637319Y-91149702D02*
X105684938Y-91244940D01*
X105684938Y-91244940D02*
X105684938Y-91387797D01*
X105684938Y-91387797D02*
X105637319Y-91483035D01*
X105637319Y-91483035D02*
X105589700Y-91530654D01*
X105589700Y-91530654D02*
X105494462Y-91578273D01*
X105494462Y-91578273D02*
X105113510Y-91578273D01*
X106018272Y-91054464D02*
X106637319Y-91054464D01*
X106637319Y-91054464D02*
X106303986Y-91435416D01*
X106303986Y-91435416D02*
X106446843Y-91435416D01*
X106446843Y-91435416D02*
X106542081Y-91483035D01*
X106542081Y-91483035D02*
X106589700Y-91530654D01*
X106589700Y-91530654D02*
X106637319Y-91625892D01*
X106637319Y-91625892D02*
X106637319Y-91863987D01*
X106637319Y-91863987D02*
X106589700Y-91959225D01*
X106589700Y-91959225D02*
X106542081Y-92006845D01*
X106542081Y-92006845D02*
X106446843Y-92054464D01*
X106446843Y-92054464D02*
X106161129Y-92054464D01*
X106161129Y-92054464D02*
X106065891Y-92006845D01*
X106065891Y-92006845D02*
X106018272Y-91959225D01*
X105684938Y-93809225D02*
X105637319Y-93856845D01*
X105637319Y-93856845D02*
X105494462Y-93904464D01*
X105494462Y-93904464D02*
X105399224Y-93904464D01*
X105399224Y-93904464D02*
X105256367Y-93856845D01*
X105256367Y-93856845D02*
X105161129Y-93761606D01*
X105161129Y-93761606D02*
X105113510Y-93666368D01*
X105113510Y-93666368D02*
X105065891Y-93475892D01*
X105065891Y-93475892D02*
X105065891Y-93333035D01*
X105065891Y-93333035D02*
X105113510Y-93142559D01*
X105113510Y-93142559D02*
X105161129Y-93047321D01*
X105161129Y-93047321D02*
X105256367Y-92952083D01*
X105256367Y-92952083D02*
X105399224Y-92904464D01*
X105399224Y-92904464D02*
X105494462Y-92904464D01*
X105494462Y-92904464D02*
X105637319Y-92952083D01*
X105637319Y-92952083D02*
X105684938Y-92999702D01*
X106161129Y-93904464D02*
X106351605Y-93904464D01*
X106351605Y-93904464D02*
X106446843Y-93856845D01*
X106446843Y-93856845D02*
X106494462Y-93809225D01*
X106494462Y-93809225D02*
X106589700Y-93666368D01*
X106589700Y-93666368D02*
X106637319Y-93475892D01*
X106637319Y-93475892D02*
X106637319Y-93094940D01*
X106637319Y-93094940D02*
X106589700Y-92999702D01*
X106589700Y-92999702D02*
X106542081Y-92952083D01*
X106542081Y-92952083D02*
X106446843Y-92904464D01*
X106446843Y-92904464D02*
X106256367Y-92904464D01*
X106256367Y-92904464D02*
X106161129Y-92952083D01*
X106161129Y-92952083D02*
X106113510Y-92999702D01*
X106113510Y-92999702D02*
X106065891Y-93094940D01*
X106065891Y-93094940D02*
X106065891Y-93333035D01*
X106065891Y-93333035D02*
X106113510Y-93428273D01*
X106113510Y-93428273D02*
X106161129Y-93475892D01*
X106161129Y-93475892D02*
X106256367Y-93523511D01*
X106256367Y-93523511D02*
X106446843Y-93523511D01*
X106446843Y-93523511D02*
X106542081Y-93475892D01*
X106542081Y-93475892D02*
X106589700Y-93428273D01*
X106589700Y-93428273D02*
X106637319Y-93333035D01*
X99634938Y-93034225D02*
X99587319Y-93081845D01*
X99587319Y-93081845D02*
X99444462Y-93129464D01*
X99444462Y-93129464D02*
X99349224Y-93129464D01*
X99349224Y-93129464D02*
X99206367Y-93081845D01*
X99206367Y-93081845D02*
X99111129Y-92986606D01*
X99111129Y-92986606D02*
X99063510Y-92891368D01*
X99063510Y-92891368D02*
X99015891Y-92700892D01*
X99015891Y-92700892D02*
X99015891Y-92558035D01*
X99015891Y-92558035D02*
X99063510Y-92367559D01*
X99063510Y-92367559D02*
X99111129Y-92272321D01*
X99111129Y-92272321D02*
X99206367Y-92177083D01*
X99206367Y-92177083D02*
X99349224Y-92129464D01*
X99349224Y-92129464D02*
X99444462Y-92129464D01*
X99444462Y-92129464D02*
X99587319Y-92177083D01*
X99587319Y-92177083D02*
X99634938Y-92224702D01*
X99968272Y-92129464D02*
X100634938Y-92129464D01*
X100634938Y-92129464D02*
X100206367Y-93129464D01*
X95583805Y-81357977D02*
X95631424Y-81215120D01*
X95631424Y-81215120D02*
X95631424Y-80977025D01*
X95631424Y-80977025D02*
X95583805Y-80881787D01*
X95583805Y-80881787D02*
X95536185Y-80834168D01*
X95536185Y-80834168D02*
X95440947Y-80786549D01*
X95440947Y-80786549D02*
X95345709Y-80786549D01*
X95345709Y-80786549D02*
X95250471Y-80834168D01*
X95250471Y-80834168D02*
X95202852Y-80881787D01*
X95202852Y-80881787D02*
X95155233Y-80977025D01*
X95155233Y-80977025D02*
X95107614Y-81167501D01*
X95107614Y-81167501D02*
X95059995Y-81262739D01*
X95059995Y-81262739D02*
X95012376Y-81310358D01*
X95012376Y-81310358D02*
X94917138Y-81357977D01*
X94917138Y-81357977D02*
X94821900Y-81357977D01*
X94821900Y-81357977D02*
X94726662Y-81310358D01*
X94726662Y-81310358D02*
X94679043Y-81262739D01*
X94679043Y-81262739D02*
X94631424Y-81167501D01*
X94631424Y-81167501D02*
X94631424Y-80929406D01*
X94631424Y-80929406D02*
X94679043Y-80786549D01*
X94631424Y-80453215D02*
X95631424Y-80215120D01*
X95631424Y-80215120D02*
X94917138Y-80024644D01*
X94917138Y-80024644D02*
X95631424Y-79834168D01*
X95631424Y-79834168D02*
X94631424Y-79596073D01*
X95631424Y-78691311D02*
X95631424Y-79262739D01*
X95631424Y-78977025D02*
X94631424Y-78977025D01*
X94631424Y-78977025D02*
X94774281Y-79072263D01*
X94774281Y-79072263D02*
X94869519Y-79167501D01*
X94869519Y-79167501D02*
X94917138Y-79262739D01*
X106668272Y-111956845D02*
X106811129Y-112004464D01*
X106811129Y-112004464D02*
X107049224Y-112004464D01*
X107049224Y-112004464D02*
X107144462Y-111956845D01*
X107144462Y-111956845D02*
X107192081Y-111909225D01*
X107192081Y-111909225D02*
X107239700Y-111813987D01*
X107239700Y-111813987D02*
X107239700Y-111718749D01*
X107239700Y-111718749D02*
X107192081Y-111623511D01*
X107192081Y-111623511D02*
X107144462Y-111575892D01*
X107144462Y-111575892D02*
X107049224Y-111528273D01*
X107049224Y-111528273D02*
X106858748Y-111480654D01*
X106858748Y-111480654D02*
X106763510Y-111433035D01*
X106763510Y-111433035D02*
X106715891Y-111385416D01*
X106715891Y-111385416D02*
X106668272Y-111290178D01*
X106668272Y-111290178D02*
X106668272Y-111194940D01*
X106668272Y-111194940D02*
X106715891Y-111099702D01*
X106715891Y-111099702D02*
X106763510Y-111052083D01*
X106763510Y-111052083D02*
X106858748Y-111004464D01*
X106858748Y-111004464D02*
X107096843Y-111004464D01*
X107096843Y-111004464D02*
X107239700Y-111052083D01*
X107573034Y-111004464D02*
X107811129Y-112004464D01*
X107811129Y-112004464D02*
X108001605Y-111290178D01*
X108001605Y-111290178D02*
X108192081Y-112004464D01*
X108192081Y-112004464D02*
X108430177Y-111004464D01*
X108763510Y-111099702D02*
X108811129Y-111052083D01*
X108811129Y-111052083D02*
X108906367Y-111004464D01*
X108906367Y-111004464D02*
X109144462Y-111004464D01*
X109144462Y-111004464D02*
X109239700Y-111052083D01*
X109239700Y-111052083D02*
X109287319Y-111099702D01*
X109287319Y-111099702D02*
X109334938Y-111194940D01*
X109334938Y-111194940D02*
X109334938Y-111290178D01*
X109334938Y-111290178D02*
X109287319Y-111433035D01*
X109287319Y-111433035D02*
X108715891Y-112004464D01*
X108715891Y-112004464D02*
X109334938Y-112004464D01*
X98989700Y-79524464D02*
X98989700Y-80333987D01*
X98989700Y-80333987D02*
X99037319Y-80429225D01*
X99037319Y-80429225D02*
X99084938Y-80476845D01*
X99084938Y-80476845D02*
X99180176Y-80524464D01*
X99180176Y-80524464D02*
X99370652Y-80524464D01*
X99370652Y-80524464D02*
X99465890Y-80476845D01*
X99465890Y-80476845D02*
X99513509Y-80429225D01*
X99513509Y-80429225D02*
X99561128Y-80333987D01*
X99561128Y-80333987D02*
X99561128Y-79524464D01*
X100513509Y-79524464D02*
X100037319Y-79524464D01*
X100037319Y-79524464D02*
X99989700Y-80000654D01*
X99989700Y-80000654D02*
X100037319Y-79953035D01*
X100037319Y-79953035D02*
X100132557Y-79905416D01*
X100132557Y-79905416D02*
X100370652Y-79905416D01*
X100370652Y-79905416D02*
X100465890Y-79953035D01*
X100465890Y-79953035D02*
X100513509Y-80000654D01*
X100513509Y-80000654D02*
X100561128Y-80095892D01*
X100561128Y-80095892D02*
X100561128Y-80333987D01*
X100561128Y-80333987D02*
X100513509Y-80429225D01*
X100513509Y-80429225D02*
X100465890Y-80476845D01*
X100465890Y-80476845D02*
X100370652Y-80524464D01*
X100370652Y-80524464D02*
X100132557Y-80524464D01*
X100132557Y-80524464D02*
X100037319Y-80476845D01*
X100037319Y-80476845D02*
X99989700Y-80429225D01*
X99659938Y-94209225D02*
X99612319Y-94256845D01*
X99612319Y-94256845D02*
X99469462Y-94304464D01*
X99469462Y-94304464D02*
X99374224Y-94304464D01*
X99374224Y-94304464D02*
X99231367Y-94256845D01*
X99231367Y-94256845D02*
X99136129Y-94161606D01*
X99136129Y-94161606D02*
X99088510Y-94066368D01*
X99088510Y-94066368D02*
X99040891Y-93875892D01*
X99040891Y-93875892D02*
X99040891Y-93733035D01*
X99040891Y-93733035D02*
X99088510Y-93542559D01*
X99088510Y-93542559D02*
X99136129Y-93447321D01*
X99136129Y-93447321D02*
X99231367Y-93352083D01*
X99231367Y-93352083D02*
X99374224Y-93304464D01*
X99374224Y-93304464D02*
X99469462Y-93304464D01*
X99469462Y-93304464D02*
X99612319Y-93352083D01*
X99612319Y-93352083D02*
X99659938Y-93399702D01*
X100517081Y-93304464D02*
X100326605Y-93304464D01*
X100326605Y-93304464D02*
X100231367Y-93352083D01*
X100231367Y-93352083D02*
X100183748Y-93399702D01*
X100183748Y-93399702D02*
X100088510Y-93542559D01*
X100088510Y-93542559D02*
X100040891Y-93733035D01*
X100040891Y-93733035D02*
X100040891Y-94113987D01*
X100040891Y-94113987D02*
X100088510Y-94209225D01*
X100088510Y-94209225D02*
X100136129Y-94256845D01*
X100136129Y-94256845D02*
X100231367Y-94304464D01*
X100231367Y-94304464D02*
X100421843Y-94304464D01*
X100421843Y-94304464D02*
X100517081Y-94256845D01*
X100517081Y-94256845D02*
X100564700Y-94209225D01*
X100564700Y-94209225D02*
X100612319Y-94113987D01*
X100612319Y-94113987D02*
X100612319Y-93875892D01*
X100612319Y-93875892D02*
X100564700Y-93780654D01*
X100564700Y-93780654D02*
X100517081Y-93733035D01*
X100517081Y-93733035D02*
X100421843Y-93685416D01*
X100421843Y-93685416D02*
X100231367Y-93685416D01*
X100231367Y-93685416D02*
X100136129Y-93733035D01*
X100136129Y-93733035D02*
X100088510Y-93780654D01*
X100088510Y-93780654D02*
X100040891Y-93875892D01*
X83257142Y-85700246D02*
X82923809Y-85224055D01*
X82685714Y-85700246D02*
X82685714Y-84700246D01*
X82685714Y-84700246D02*
X83066666Y-84700246D01*
X83066666Y-84700246D02*
X83161904Y-84747865D01*
X83161904Y-84747865D02*
X83209523Y-84795484D01*
X83209523Y-84795484D02*
X83257142Y-84890722D01*
X83257142Y-84890722D02*
X83257142Y-85033579D01*
X83257142Y-85033579D02*
X83209523Y-85128817D01*
X83209523Y-85128817D02*
X83161904Y-85176436D01*
X83161904Y-85176436D02*
X83066666Y-85224055D01*
X83066666Y-85224055D02*
X82685714Y-85224055D01*
X84209523Y-85700246D02*
X83638095Y-85700246D01*
X83923809Y-85700246D02*
X83923809Y-84700246D01*
X83923809Y-84700246D02*
X83828571Y-84843103D01*
X83828571Y-84843103D02*
X83733333Y-84938341D01*
X83733333Y-84938341D02*
X83638095Y-84985960D01*
X84828571Y-84700246D02*
X84923809Y-84700246D01*
X84923809Y-84700246D02*
X85019047Y-84747865D01*
X85019047Y-84747865D02*
X85066666Y-84795484D01*
X85066666Y-84795484D02*
X85114285Y-84890722D01*
X85114285Y-84890722D02*
X85161904Y-85081198D01*
X85161904Y-85081198D02*
X85161904Y-85319293D01*
X85161904Y-85319293D02*
X85114285Y-85509769D01*
X85114285Y-85509769D02*
X85066666Y-85605007D01*
X85066666Y-85605007D02*
X85019047Y-85652627D01*
X85019047Y-85652627D02*
X84923809Y-85700246D01*
X84923809Y-85700246D02*
X84828571Y-85700246D01*
X84828571Y-85700246D02*
X84733333Y-85652627D01*
X84733333Y-85652627D02*
X84685714Y-85605007D01*
X84685714Y-85605007D02*
X84638095Y-85509769D01*
X84638095Y-85509769D02*
X84590476Y-85319293D01*
X84590476Y-85319293D02*
X84590476Y-85081198D01*
X84590476Y-85081198D02*
X84638095Y-84890722D01*
X84638095Y-84890722D02*
X84685714Y-84795484D01*
X84685714Y-84795484D02*
X84733333Y-84747865D01*
X84733333Y-84747865D02*
X84828571Y-84700246D01*
X84333333Y-84454819D02*
X84000000Y-83978628D01*
X83761905Y-84454819D02*
X83761905Y-83454819D01*
X83761905Y-83454819D02*
X84142857Y-83454819D01*
X84142857Y-83454819D02*
X84238095Y-83502438D01*
X84238095Y-83502438D02*
X84285714Y-83550057D01*
X84285714Y-83550057D02*
X84333333Y-83645295D01*
X84333333Y-83645295D02*
X84333333Y-83788152D01*
X84333333Y-83788152D02*
X84285714Y-83883390D01*
X84285714Y-83883390D02*
X84238095Y-83931009D01*
X84238095Y-83931009D02*
X84142857Y-83978628D01*
X84142857Y-83978628D02*
X83761905Y-83978628D01*
X85190476Y-83454819D02*
X85000000Y-83454819D01*
X85000000Y-83454819D02*
X84904762Y-83502438D01*
X84904762Y-83502438D02*
X84857143Y-83550057D01*
X84857143Y-83550057D02*
X84761905Y-83692914D01*
X84761905Y-83692914D02*
X84714286Y-83883390D01*
X84714286Y-83883390D02*
X84714286Y-84264342D01*
X84714286Y-84264342D02*
X84761905Y-84359580D01*
X84761905Y-84359580D02*
X84809524Y-84407200D01*
X84809524Y-84407200D02*
X84904762Y-84454819D01*
X84904762Y-84454819D02*
X85095238Y-84454819D01*
X85095238Y-84454819D02*
X85190476Y-84407200D01*
X85190476Y-84407200D02*
X85238095Y-84359580D01*
X85238095Y-84359580D02*
X85285714Y-84264342D01*
X85285714Y-84264342D02*
X85285714Y-84026247D01*
X85285714Y-84026247D02*
X85238095Y-83931009D01*
X85238095Y-83931009D02*
X85190476Y-83883390D01*
X85190476Y-83883390D02*
X85095238Y-83835771D01*
X85095238Y-83835771D02*
X84904762Y-83835771D01*
X84904762Y-83835771D02*
X84809524Y-83883390D01*
X84809524Y-83883390D02*
X84761905Y-83931009D01*
X84761905Y-83931009D02*
X84714286Y-84026247D01*
X102208747Y-108609225D02*
X102161128Y-108656845D01*
X102161128Y-108656845D02*
X102018271Y-108704464D01*
X102018271Y-108704464D02*
X101923033Y-108704464D01*
X101923033Y-108704464D02*
X101780176Y-108656845D01*
X101780176Y-108656845D02*
X101684938Y-108561606D01*
X101684938Y-108561606D02*
X101637319Y-108466368D01*
X101637319Y-108466368D02*
X101589700Y-108275892D01*
X101589700Y-108275892D02*
X101589700Y-108133035D01*
X101589700Y-108133035D02*
X101637319Y-107942559D01*
X101637319Y-107942559D02*
X101684938Y-107847321D01*
X101684938Y-107847321D02*
X101780176Y-107752083D01*
X101780176Y-107752083D02*
X101923033Y-107704464D01*
X101923033Y-107704464D02*
X102018271Y-107704464D01*
X102018271Y-107704464D02*
X102161128Y-107752083D01*
X102161128Y-107752083D02*
X102208747Y-107799702D01*
X103161128Y-108704464D02*
X102589700Y-108704464D01*
X102875414Y-108704464D02*
X102875414Y-107704464D01*
X102875414Y-107704464D02*
X102780176Y-107847321D01*
X102780176Y-107847321D02*
X102684938Y-107942559D01*
X102684938Y-107942559D02*
X102589700Y-107990178D01*
X103780176Y-107704464D02*
X103875414Y-107704464D01*
X103875414Y-107704464D02*
X103970652Y-107752083D01*
X103970652Y-107752083D02*
X104018271Y-107799702D01*
X104018271Y-107799702D02*
X104065890Y-107894940D01*
X104065890Y-107894940D02*
X104113509Y-108085416D01*
X104113509Y-108085416D02*
X104113509Y-108323511D01*
X104113509Y-108323511D02*
X104065890Y-108513987D01*
X104065890Y-108513987D02*
X104018271Y-108609225D01*
X104018271Y-108609225D02*
X103970652Y-108656845D01*
X103970652Y-108656845D02*
X103875414Y-108704464D01*
X103875414Y-108704464D02*
X103780176Y-108704464D01*
X103780176Y-108704464D02*
X103684938Y-108656845D01*
X103684938Y-108656845D02*
X103637319Y-108609225D01*
X103637319Y-108609225D02*
X103589700Y-108513987D01*
X103589700Y-108513987D02*
X103542081Y-108323511D01*
X103542081Y-108323511D02*
X103542081Y-108085416D01*
X103542081Y-108085416D02*
X103589700Y-107894940D01*
X103589700Y-107894940D02*
X103637319Y-107799702D01*
X103637319Y-107799702D02*
X103684938Y-107752083D01*
X103684938Y-107752083D02*
X103780176Y-107704464D01*
X95364700Y-93079464D02*
X95364700Y-93888987D01*
X95364700Y-93888987D02*
X95412319Y-93984225D01*
X95412319Y-93984225D02*
X95459938Y-94031845D01*
X95459938Y-94031845D02*
X95555176Y-94079464D01*
X95555176Y-94079464D02*
X95745652Y-94079464D01*
X95745652Y-94079464D02*
X95840890Y-94031845D01*
X95840890Y-94031845D02*
X95888509Y-93984225D01*
X95888509Y-93984225D02*
X95936128Y-93888987D01*
X95936128Y-93888987D02*
X95936128Y-93079464D01*
X96936128Y-94079464D02*
X96364700Y-94079464D01*
X96650414Y-94079464D02*
X96650414Y-93079464D01*
X96650414Y-93079464D02*
X96555176Y-93222321D01*
X96555176Y-93222321D02*
X96459938Y-93317559D01*
X96459938Y-93317559D02*
X96364700Y-93365178D01*
X102184938Y-89954464D02*
X101708748Y-89954464D01*
X101708748Y-89954464D02*
X101708748Y-88954464D01*
X103042081Y-89954464D02*
X102470653Y-89954464D01*
X102756367Y-89954464D02*
X102756367Y-88954464D01*
X102756367Y-88954464D02*
X102661129Y-89097321D01*
X102661129Y-89097321D02*
X102565891Y-89192559D01*
X102565891Y-89192559D02*
X102470653Y-89240178D01*
X88584938Y-100109225D02*
X88537319Y-100156845D01*
X88537319Y-100156845D02*
X88394462Y-100204464D01*
X88394462Y-100204464D02*
X88299224Y-100204464D01*
X88299224Y-100204464D02*
X88156367Y-100156845D01*
X88156367Y-100156845D02*
X88061129Y-100061606D01*
X88061129Y-100061606D02*
X88013510Y-99966368D01*
X88013510Y-99966368D02*
X87965891Y-99775892D01*
X87965891Y-99775892D02*
X87965891Y-99633035D01*
X87965891Y-99633035D02*
X88013510Y-99442559D01*
X88013510Y-99442559D02*
X88061129Y-99347321D01*
X88061129Y-99347321D02*
X88156367Y-99252083D01*
X88156367Y-99252083D02*
X88299224Y-99204464D01*
X88299224Y-99204464D02*
X88394462Y-99204464D01*
X88394462Y-99204464D02*
X88537319Y-99252083D01*
X88537319Y-99252083D02*
X88584938Y-99299702D01*
X89156367Y-99633035D02*
X89061129Y-99585416D01*
X89061129Y-99585416D02*
X89013510Y-99537797D01*
X89013510Y-99537797D02*
X88965891Y-99442559D01*
X88965891Y-99442559D02*
X88965891Y-99394940D01*
X88965891Y-99394940D02*
X89013510Y-99299702D01*
X89013510Y-99299702D02*
X89061129Y-99252083D01*
X89061129Y-99252083D02*
X89156367Y-99204464D01*
X89156367Y-99204464D02*
X89346843Y-99204464D01*
X89346843Y-99204464D02*
X89442081Y-99252083D01*
X89442081Y-99252083D02*
X89489700Y-99299702D01*
X89489700Y-99299702D02*
X89537319Y-99394940D01*
X89537319Y-99394940D02*
X89537319Y-99442559D01*
X89537319Y-99442559D02*
X89489700Y-99537797D01*
X89489700Y-99537797D02*
X89442081Y-99585416D01*
X89442081Y-99585416D02*
X89346843Y-99633035D01*
X89346843Y-99633035D02*
X89156367Y-99633035D01*
X89156367Y-99633035D02*
X89061129Y-99680654D01*
X89061129Y-99680654D02*
X89013510Y-99728273D01*
X89013510Y-99728273D02*
X88965891Y-99823511D01*
X88965891Y-99823511D02*
X88965891Y-100013987D01*
X88965891Y-100013987D02*
X89013510Y-100109225D01*
X89013510Y-100109225D02*
X89061129Y-100156845D01*
X89061129Y-100156845D02*
X89156367Y-100204464D01*
X89156367Y-100204464D02*
X89346843Y-100204464D01*
X89346843Y-100204464D02*
X89442081Y-100156845D01*
X89442081Y-100156845D02*
X89489700Y-100109225D01*
X89489700Y-100109225D02*
X89537319Y-100013987D01*
X89537319Y-100013987D02*
X89537319Y-99823511D01*
X89537319Y-99823511D02*
X89489700Y-99728273D01*
X89489700Y-99728273D02*
X89442081Y-99680654D01*
X89442081Y-99680654D02*
X89346843Y-99633035D01*
X91308747Y-107109225D02*
X91261128Y-107156845D01*
X91261128Y-107156845D02*
X91118271Y-107204464D01*
X91118271Y-107204464D02*
X91023033Y-107204464D01*
X91023033Y-107204464D02*
X90880176Y-107156845D01*
X90880176Y-107156845D02*
X90784938Y-107061606D01*
X90784938Y-107061606D02*
X90737319Y-106966368D01*
X90737319Y-106966368D02*
X90689700Y-106775892D01*
X90689700Y-106775892D02*
X90689700Y-106633035D01*
X90689700Y-106633035D02*
X90737319Y-106442559D01*
X90737319Y-106442559D02*
X90784938Y-106347321D01*
X90784938Y-106347321D02*
X90880176Y-106252083D01*
X90880176Y-106252083D02*
X91023033Y-106204464D01*
X91023033Y-106204464D02*
X91118271Y-106204464D01*
X91118271Y-106204464D02*
X91261128Y-106252083D01*
X91261128Y-106252083D02*
X91308747Y-106299702D01*
X91689700Y-106299702D02*
X91737319Y-106252083D01*
X91737319Y-106252083D02*
X91832557Y-106204464D01*
X91832557Y-106204464D02*
X92070652Y-106204464D01*
X92070652Y-106204464D02*
X92165890Y-106252083D01*
X92165890Y-106252083D02*
X92213509Y-106299702D01*
X92213509Y-106299702D02*
X92261128Y-106394940D01*
X92261128Y-106394940D02*
X92261128Y-106490178D01*
X92261128Y-106490178D02*
X92213509Y-106633035D01*
X92213509Y-106633035D02*
X91642081Y-107204464D01*
X91642081Y-107204464D02*
X92261128Y-107204464D01*
X93213509Y-107204464D02*
X92642081Y-107204464D01*
X92927795Y-107204464D02*
X92927795Y-106204464D01*
X92927795Y-106204464D02*
X92832557Y-106347321D01*
X92832557Y-106347321D02*
X92737319Y-106442559D01*
X92737319Y-106442559D02*
X92642081Y-106490178D01*
X102095104Y-110499360D02*
X101761771Y-110023169D01*
X101523676Y-110499360D02*
X101523676Y-109499360D01*
X101523676Y-109499360D02*
X101904628Y-109499360D01*
X101904628Y-109499360D02*
X101999866Y-109546979D01*
X101999866Y-109546979D02*
X102047485Y-109594598D01*
X102047485Y-109594598D02*
X102095104Y-109689836D01*
X102095104Y-109689836D02*
X102095104Y-109832693D01*
X102095104Y-109832693D02*
X102047485Y-109927931D01*
X102047485Y-109927931D02*
X101999866Y-109975550D01*
X101999866Y-109975550D02*
X101904628Y-110023169D01*
X101904628Y-110023169D02*
X101523676Y-110023169D01*
X102952247Y-109832693D02*
X102952247Y-110499360D01*
X102714152Y-109451741D02*
X102476057Y-110166026D01*
X102476057Y-110166026D02*
X103095104Y-110166026D01*
X109208747Y-99709225D02*
X109161128Y-99756845D01*
X109161128Y-99756845D02*
X109018271Y-99804464D01*
X109018271Y-99804464D02*
X108923033Y-99804464D01*
X108923033Y-99804464D02*
X108780176Y-99756845D01*
X108780176Y-99756845D02*
X108684938Y-99661606D01*
X108684938Y-99661606D02*
X108637319Y-99566368D01*
X108637319Y-99566368D02*
X108589700Y-99375892D01*
X108589700Y-99375892D02*
X108589700Y-99233035D01*
X108589700Y-99233035D02*
X108637319Y-99042559D01*
X108637319Y-99042559D02*
X108684938Y-98947321D01*
X108684938Y-98947321D02*
X108780176Y-98852083D01*
X108780176Y-98852083D02*
X108923033Y-98804464D01*
X108923033Y-98804464D02*
X109018271Y-98804464D01*
X109018271Y-98804464D02*
X109161128Y-98852083D01*
X109161128Y-98852083D02*
X109208747Y-98899702D01*
X110161128Y-99804464D02*
X109589700Y-99804464D01*
X109875414Y-99804464D02*
X109875414Y-98804464D01*
X109875414Y-98804464D02*
X109780176Y-98947321D01*
X109780176Y-98947321D02*
X109684938Y-99042559D01*
X109684938Y-99042559D02*
X109589700Y-99090178D01*
X111113509Y-99804464D02*
X110542081Y-99804464D01*
X110827795Y-99804464D02*
X110827795Y-98804464D01*
X110827795Y-98804464D02*
X110732557Y-98947321D01*
X110732557Y-98947321D02*
X110637319Y-99042559D01*
X110637319Y-99042559D02*
X110542081Y-99090178D01*
X94908747Y-108609225D02*
X94861128Y-108656845D01*
X94861128Y-108656845D02*
X94718271Y-108704464D01*
X94718271Y-108704464D02*
X94623033Y-108704464D01*
X94623033Y-108704464D02*
X94480176Y-108656845D01*
X94480176Y-108656845D02*
X94384938Y-108561606D01*
X94384938Y-108561606D02*
X94337319Y-108466368D01*
X94337319Y-108466368D02*
X94289700Y-108275892D01*
X94289700Y-108275892D02*
X94289700Y-108133035D01*
X94289700Y-108133035D02*
X94337319Y-107942559D01*
X94337319Y-107942559D02*
X94384938Y-107847321D01*
X94384938Y-107847321D02*
X94480176Y-107752083D01*
X94480176Y-107752083D02*
X94623033Y-107704464D01*
X94623033Y-107704464D02*
X94718271Y-107704464D01*
X94718271Y-107704464D02*
X94861128Y-107752083D01*
X94861128Y-107752083D02*
X94908747Y-107799702D01*
X95861128Y-108704464D02*
X95289700Y-108704464D01*
X95575414Y-108704464D02*
X95575414Y-107704464D01*
X95575414Y-107704464D02*
X95480176Y-107847321D01*
X95480176Y-107847321D02*
X95384938Y-107942559D01*
X95384938Y-107942559D02*
X95289700Y-107990178D01*
X96194462Y-107704464D02*
X96813509Y-107704464D01*
X96813509Y-107704464D02*
X96480176Y-108085416D01*
X96480176Y-108085416D02*
X96623033Y-108085416D01*
X96623033Y-108085416D02*
X96718271Y-108133035D01*
X96718271Y-108133035D02*
X96765890Y-108180654D01*
X96765890Y-108180654D02*
X96813509Y-108275892D01*
X96813509Y-108275892D02*
X96813509Y-108513987D01*
X96813509Y-108513987D02*
X96765890Y-108609225D01*
X96765890Y-108609225D02*
X96718271Y-108656845D01*
X96718271Y-108656845D02*
X96623033Y-108704464D01*
X96623033Y-108704464D02*
X96337319Y-108704464D01*
X96337319Y-108704464D02*
X96242081Y-108656845D01*
X96242081Y-108656845D02*
X96194462Y-108609225D01*
D12*
X96295925Y-136064443D02*
X96295925Y-127930559D01*
X96295925Y-134074730D02*
X102391937Y-133131296D01*
X96295925Y-133167593D02*
X102391937Y-132278591D01*
X96295925Y-132115294D02*
X102391937Y-131443996D01*
X102391937Y-136064443D02*
X96295925Y-136064443D01*
X102391937Y-134147298D02*
X96295925Y-134165434D01*
X102391937Y-133076864D02*
X96295925Y-133185728D01*
X102391937Y-132242294D02*
X96295925Y-132187862D01*
X102391937Y-131443996D02*
X96295925Y-131389589D01*
X98195036Y-127047425D02*
X100492826Y-127047425D01*
X96295925Y-125148289D02*
X96295925Y-124929416D01*
X96295925Y-122850524D02*
X96295925Y-125148314D01*
X102391937Y-127930559D02*
X102391937Y-136064443D01*
X102391937Y-125148314D02*
X102391937Y-122850524D01*
X102391937Y-124959668D02*
X102391937Y-125148289D01*
X100492826Y-120951413D02*
X98195036Y-120951413D01*
D13*
X102373903Y-136009325D02*
G75*
G02*
X102313959Y-136009325I-29972J0D01*
G01*
X102313959Y-136009325D02*
G75*
G02*
X102373903Y-136009325I29972J0D01*
G01*
X83529972Y-87249911D02*
G75*
G02*
X83469978Y-87249911I-29997J0D01*
G01*
X83469978Y-87249911D02*
G75*
G02*
X83529972Y-87249911I29997J0D01*
G01*
D14*
X83804953Y-86740005D02*
G75*
G02*
X83655093Y-86740005I-74930J0D01*
G01*
X83655093Y-86740005D02*
G75*
G02*
X83804953Y-86740005I74930J0D01*
G01*
D15*
X80423749Y-87326086D02*
X80423749Y-87080391D01*
X81169444Y-87326086D02*
X80423749Y-87326086D01*
X82830505Y-87326086D02*
X83576200Y-87326086D01*
X83576200Y-87326086D02*
X83576200Y-87080391D01*
X80423749Y-84673711D02*
X80423749Y-84919406D01*
X81169444Y-84673711D02*
X80423749Y-84673711D01*
X82830505Y-84673711D02*
X83576200Y-84673711D01*
X83576200Y-84673711D02*
X83576200Y-84919406D01*
X79000117Y-85719510D02*
X79000117Y-86437544D01*
X79997323Y-85719510D02*
X79000117Y-85719510D01*
X79997323Y-86437544D02*
X79997323Y-85719510D01*
X79000117Y-87608004D02*
X79000117Y-86889970D01*
X79997323Y-87608004D02*
X79000117Y-87608004D01*
X79997323Y-86889970D02*
X79997323Y-87608004D01*
D13*
X79778628Y-87163630D02*
G75*
G02*
X79718684Y-87163630I-29972J0D01*
G01*
X79718684Y-87163630D02*
G75*
G02*
X79778628Y-87163630I29972J0D01*
G01*
D16*
X79562195Y-84878734D02*
X79346523Y-84878734D01*
X79562195Y-85598734D02*
X79346523Y-85598734D01*
X82127836Y-83640000D02*
X81912164Y-83640000D01*
X82127836Y-84360000D02*
X81912164Y-84360000D01*
X83176382Y-88300015D02*
X83483664Y-88300015D01*
X83176382Y-87540015D02*
X83483664Y-87540015D01*
X80983664Y-87540015D02*
X80676382Y-87540015D01*
X80983664Y-88300015D02*
X80676382Y-88300015D01*
X73600926Y-91426406D02*
X73600926Y-91733688D01*
X72840926Y-91426406D02*
X72840926Y-91733688D01*
D15*
X75547113Y-89910152D02*
X75547113Y-87257778D01*
X72894739Y-89910152D02*
X72894739Y-87257778D01*
D11*
X75337004Y-89091966D02*
G75*
G02*
X75136852Y-89091966I-100076J0D01*
G01*
X75136852Y-89091966D02*
G75*
G02*
X75337004Y-89091966I100076J0D01*
G01*
D17*
X73482038Y-88583965D02*
G75*
G02*
X73181810Y-88583965I-150114J0D01*
G01*
X73181810Y-88583965D02*
G75*
G02*
X73482038Y-88583965I150114J0D01*
G01*
D13*
X73000962Y-87334029D02*
G75*
G02*
X72941018Y-87334029I-29972J0D01*
G01*
X72941018Y-87334029D02*
G75*
G02*
X73000962Y-87334029I29972J0D01*
G01*
D16*
X74600926Y-91430324D02*
X74600926Y-91737606D01*
X73840926Y-91430324D02*
X73840926Y-91737606D01*
X73360926Y-85691801D02*
X73360926Y-85476129D01*
X74080926Y-85691801D02*
X74080926Y-85476129D01*
X74360926Y-85691801D02*
X74360926Y-85476129D01*
X75080926Y-85691801D02*
X75080926Y-85476129D01*
X75582777Y-91414857D02*
X75582777Y-91722139D01*
X74822777Y-91414857D02*
X74822777Y-91722139D01*
X105738748Y-76765000D02*
X106261252Y-76765000D01*
X105738748Y-78235000D02*
X106261252Y-78235000D01*
X109475951Y-83525525D02*
X109475951Y-83003021D01*
X108005951Y-83525525D02*
X108005951Y-83003021D01*
D10*
X107510000Y-82150000D02*
X107510000Y-78850000D01*
X107510000Y-82150000D02*
X102000000Y-82150000D01*
X107510000Y-78850000D02*
X102000000Y-78850000D01*
X107510000Y-85650000D02*
X107510000Y-82350000D01*
X107510000Y-85650000D02*
X102000000Y-85650000D01*
X107510000Y-82350000D02*
X102000000Y-82350000D01*
D16*
X100846359Y-78380000D02*
X101153641Y-78380000D01*
X100846359Y-77620000D02*
X101153641Y-77620000D01*
D18*
X107112776Y-88299974D02*
X107112776Y-86199898D01*
X104990043Y-86209931D02*
X104990043Y-88308991D01*
D12*
X107269240Y-85852933D02*
G75*
G02*
X107116840Y-85852933I-76200J0D01*
G01*
X107116840Y-85852933D02*
G75*
G02*
X107269240Y-85852933I76200J0D01*
G01*
D13*
X107080010Y-86249936D02*
G75*
G02*
X107020066Y-86249936I-29972J0D01*
G01*
X107020066Y-86249936D02*
G75*
G02*
X107080010Y-86249936I29972J0D01*
G01*
D16*
X108380000Y-87663641D02*
X108380000Y-87356359D01*
X107620000Y-87663641D02*
X107620000Y-87356359D01*
D12*
X110100000Y-89400000D02*
X110100000Y-89424409D01*
X105900000Y-89400000D02*
X110100000Y-89400000D01*
X105900000Y-93600000D02*
X105900000Y-93575616D01*
X110100000Y-93600000D02*
X105900000Y-93600000D01*
X110100000Y-93575616D02*
X110100000Y-93600000D01*
X105900000Y-89424409D02*
X105900000Y-89400000D01*
D16*
X110235000Y-87761252D02*
X110235000Y-87238748D01*
X108765000Y-87761252D02*
X108765000Y-87238748D01*
X94876605Y-89874645D02*
X94876605Y-89614645D01*
X94876605Y-84424645D02*
X94876605Y-84684645D01*
X92151605Y-89874645D02*
X94876605Y-89874645D01*
X92151605Y-89874645D02*
X89426605Y-89874645D01*
X92151605Y-84424645D02*
X94876605Y-84424645D01*
X92151605Y-84424645D02*
X89426605Y-84424645D01*
X89426605Y-89874645D02*
X89426605Y-89614645D01*
X89426605Y-84684645D02*
X87751605Y-84684645D01*
X89426605Y-84424645D02*
X89426605Y-84684645D01*
D13*
X77879984Y-95949962D02*
G75*
G02*
X77820040Y-95949962I-29972J0D01*
G01*
X77820040Y-95949962D02*
G75*
G02*
X77879984Y-95949962I29972J0D01*
G01*
D11*
X79982855Y-96554991D02*
G75*
G02*
X79066929Y-96554991I-457963J0D01*
G01*
X79066929Y-96554991D02*
G75*
G02*
X79982855Y-96554991I457963J0D01*
G01*
X77849885Y-95949987D02*
X87549911Y-95949987D01*
X77849885Y-106050013D02*
X87549911Y-106050013D01*
D16*
X94803269Y-92590172D02*
X94650766Y-92437669D01*
X95312386Y-92081055D02*
X95159883Y-91928552D01*
D12*
X94000991Y-125508992D02*
X77998959Y-125508992D01*
X94000991Y-125508992D02*
X94000991Y-124831140D01*
X77998959Y-124831140D02*
X77998959Y-125508992D01*
X94000991Y-123168860D02*
X94000991Y-122831140D01*
X77998959Y-122831140D02*
X77998959Y-123168860D01*
X94000991Y-121168860D02*
X94000991Y-120831140D01*
X77998959Y-120831140D02*
X77998959Y-121168860D01*
X94000991Y-119168860D02*
X94000991Y-118831140D01*
X77998959Y-118831140D02*
X77998959Y-119168860D01*
X94000991Y-117168860D02*
X94000991Y-116831140D01*
X77998959Y-116831140D02*
X77998959Y-117168860D01*
X94000991Y-115168860D02*
X94000991Y-114831140D01*
X77998959Y-114831140D02*
X77998959Y-115168860D01*
X94000991Y-113168860D02*
X94000991Y-112831140D01*
X77998959Y-112831140D02*
X77998959Y-113168860D01*
X94000991Y-111168860D02*
X94000991Y-110831140D01*
X77998959Y-110831140D02*
X77998959Y-111168860D01*
X94000991Y-109168860D02*
X94000991Y-108490958D01*
X77998959Y-108490958D02*
X77998959Y-109168860D01*
X77998959Y-108490958D02*
X94000991Y-108490958D01*
D13*
X94029997Y-125500000D02*
G75*
G02*
X93970003Y-125500000I-29997J0D01*
G01*
X93970003Y-125500000D02*
G75*
G02*
X94029997Y-125500000I29997J0D01*
G01*
D12*
X95144019Y-125255017D02*
G75*
G02*
X94382017Y-125255017I-381001J0D01*
G01*
X94382017Y-125255017D02*
G75*
G02*
X95144019Y-125255017I381001J0D01*
G01*
D16*
X97372164Y-117360000D02*
X97587836Y-117360000D01*
X97372164Y-116640000D02*
X97587836Y-116640000D01*
X97188748Y-119235000D02*
X97711252Y-119235000D01*
X97188748Y-117765000D02*
X97711252Y-117765000D01*
X91259441Y-102509645D02*
X91043769Y-102509645D01*
X91259441Y-101789645D02*
X91043769Y-101789645D01*
X95444441Y-83139645D02*
X95228769Y-83139645D01*
X95444441Y-82419645D02*
X95228769Y-82419645D01*
X100638769Y-110729645D02*
X100854441Y-110729645D01*
X100638769Y-110009645D02*
X100854441Y-110009645D01*
X98511605Y-91257481D02*
X98511605Y-91041809D01*
X97791605Y-91257481D02*
X97791605Y-91041809D01*
X107048769Y-100809645D02*
X107264441Y-100809645D01*
X107048769Y-100089645D02*
X107264441Y-100089645D01*
X106543769Y-104809645D02*
X106759441Y-104809645D01*
X106543769Y-104089645D02*
X106759441Y-104089645D01*
X99531605Y-90996004D02*
X99531605Y-91303286D01*
X98771605Y-90996004D02*
X98771605Y-91303286D01*
X91259441Y-97409645D02*
X91043769Y-97409645D01*
X91259441Y-96689645D02*
X91043769Y-96689645D01*
X97884441Y-110729645D02*
X97668769Y-110729645D01*
X97884441Y-110009645D02*
X97668769Y-110009645D01*
X100531605Y-90996004D02*
X100531605Y-91303286D01*
X99771605Y-90996004D02*
X99771605Y-91303286D01*
X107043769Y-96009645D02*
X107259441Y-96009645D01*
X107043769Y-95289645D02*
X107259441Y-95289645D01*
X99731605Y-108101004D02*
X99731605Y-108408286D01*
X98971605Y-108101004D02*
X98971605Y-108408286D01*
X97151605Y-115599645D02*
X101151605Y-115599645D01*
X97151605Y-112299645D02*
X97151605Y-115599645D01*
X104731605Y-91446004D02*
X104731605Y-91753286D01*
X103971605Y-91446004D02*
X103971605Y-91753286D01*
X104711605Y-93341809D02*
X104711605Y-93557481D01*
X103991605Y-93341809D02*
X103991605Y-93557481D01*
X94326605Y-82074645D02*
X94326605Y-77674645D01*
X92526605Y-82074645D02*
X92626605Y-82074645D01*
X92526605Y-77674645D02*
X92626605Y-77674645D01*
X90826605Y-77674645D02*
X90826605Y-82074645D01*
X110351605Y-108899645D02*
X110351605Y-108999645D01*
X110351605Y-107199645D02*
X105951605Y-107199645D01*
X105951605Y-110699645D02*
X110351605Y-110699645D01*
X105951605Y-108899645D02*
X105951605Y-108999645D01*
D19*
X104251605Y-72349645D02*
X104251605Y-74359645D01*
X104251605Y-68639645D02*
X104251605Y-70329645D01*
X95251605Y-72349645D02*
X95251605Y-74359645D01*
X95251605Y-68639645D02*
X104251605Y-68639645D01*
X95251605Y-68639645D02*
X95251605Y-70329645D01*
D16*
X86346359Y-85625427D02*
X86653641Y-85625427D01*
X86346359Y-84865427D02*
X86653641Y-84865427D01*
X86346359Y-83620000D02*
X86653641Y-83620000D01*
X86346359Y-84380000D02*
X86653641Y-84380000D01*
X100911605Y-108141809D02*
X100911605Y-108357481D01*
X100191605Y-108141809D02*
X100191605Y-108357481D01*
X104301605Y-105099645D02*
X104301605Y-104149645D01*
X104301605Y-94799645D02*
X104301605Y-95749645D01*
X103351605Y-105099645D02*
X104301605Y-105099645D01*
X103351605Y-94799645D02*
X104301605Y-94799645D01*
X94951605Y-105099645D02*
X94001605Y-105099645D01*
X94951605Y-94799645D02*
X93761605Y-94799645D01*
X94001605Y-105099645D02*
X94001605Y-104149645D01*
D20*
X101347315Y-89999645D02*
G75*
G02*
X101155895Y-89999645I-95710J0D01*
G01*
X101155895Y-89999645D02*
G75*
G02*
X101347315Y-89999645I95710J0D01*
G01*
D16*
X91259441Y-100109645D02*
X91043769Y-100109645D01*
X91259441Y-99389645D02*
X91043769Y-99389645D01*
X94559441Y-107009645D02*
X94343769Y-107009645D01*
X94559441Y-106289645D02*
X94343769Y-106289645D01*
X104415412Y-110424541D02*
X104108130Y-110424541D01*
X104415412Y-109664541D02*
X104108130Y-109664541D01*
X107043769Y-99809645D02*
X107259441Y-99809645D01*
X107043769Y-99089645D02*
X107259441Y-99089645D01*
X98211605Y-108141809D02*
X98211605Y-108357481D01*
X97491605Y-108141809D02*
X97491605Y-108357481D01*
M02*
