G04 #@! TF.GenerationSoftware,KiCad,Pcbnew,9.0.4*
G04 #@! TF.CreationDate,2025-12-23T13:31:54+00:00*
G04 #@! TF.ProjectId,Lyra Avionics,4c797261-2041-4766-996f-6e6963732e6b,REV3*
G04 #@! TF.SameCoordinates,Original*
G04 #@! TF.FileFunction,Profile,NP*
%FSLAX46Y46*%
G04 Gerber Fmt 4.6, Leading zero omitted, Abs format (unit mm)*
G04 Created by KiCad (PCBNEW 9.0.4) date 2025-12-23 13:31:54*
%MOMM*%
%LPD*%
G01*
G04 APERTURE LIST*
G04 #@! TA.AperFunction,Profile*
%ADD10C,0.050000*%
G04 #@! TD*
%ADD11C,0.050000*%
G04 APERTURE END LIST*
D10*
X119500000Y-70000000D02*
X119713343Y-129000000D01*
X119500000Y-70000000D02*
X72500000Y-70000000D01*
X72500000Y-129000000D02*
X119713343Y-129000000D01*
X72728220Y-95233006D02*
X73000000Y-129000000D01*
X72507583Y-81896814D02*
X72507583Y-70000000D01*
D11*
X73675455Y-94063491D02*
X73669750Y-94063501D01*
X73664067Y-94063531D01*
X73658416Y-94063581D01*
X73652787Y-94063650D01*
X73647190Y-94063739D01*
X73641615Y-94063848D01*
X73636072Y-94063976D01*
X73630550Y-94064124D01*
X73625060Y-94064291D01*
X73619591Y-94064477D01*
X73614154Y-94064682D01*
X73608737Y-94064907D01*
X73603351Y-94065150D01*
X73597986Y-94065412D01*
X73592652Y-94065693D01*
X73587338Y-94065992D01*
X73582055Y-94066310D01*
X73576792Y-94066647D01*
X73571559Y-94067002D01*
X73566346Y-94067375D01*
X73561163Y-94067766D01*
X73556000Y-94068176D01*
X73550866Y-94068604D01*
X73545752Y-94069050D01*
X73540667Y-94069514D01*
X73535602Y-94069996D01*
X73530565Y-94070495D01*
X73525548Y-94071012D01*
X73520560Y-94071547D01*
X73515591Y-94072099D01*
X73510649Y-94072669D01*
X73505727Y-94073256D01*
X73500833Y-94073861D01*
X73495958Y-94074483D01*
X73491110Y-94075122D01*
X73486281Y-94075778D01*
X73481478Y-94076451D01*
X73476695Y-94077141D01*
X73471939Y-94077848D01*
X73467201Y-94078572D01*
X73462489Y-94079313D01*
X73457796Y-94080071D01*
X73453129Y-94080844D01*
X73448481Y-94081635D01*
X73443857Y-94082442D01*
X73439253Y-94083266D01*
X73434673Y-94084106D01*
X73430112Y-94084963D01*
X73425576Y-94085836D01*
X73421058Y-94086725D01*
X73416564Y-94087630D01*
X73412088Y-94088551D01*
X73407637Y-94089488D01*
X73403203Y-94090442D01*
X73398793Y-94091411D01*
X73394402Y-94092397D01*
X73390033Y-94093398D01*
X73385683Y-94094415D01*
X73381355Y-94095447D01*
X73377045Y-94096496D01*
X73372758Y-94097559D01*
X73368489Y-94098639D01*
X73364241Y-94099734D01*
X73360012Y-94100845D01*
X73355804Y-94101971D01*
X73351614Y-94103113D01*
X73347446Y-94104270D01*
X73343295Y-94105442D01*
X73339166Y-94106630D01*
X73335053Y-94107833D01*
X73330962Y-94109051D01*
X73326888Y-94110284D01*
X73322835Y-94111532D01*
X73318799Y-94112796D01*
X73314783Y-94114074D01*
X73310784Y-94115368D01*
X73306805Y-94116677D01*
X73302844Y-94118000D01*
X73298902Y-94119339D01*
X73294977Y-94120692D01*
X73291071Y-94122061D01*
X73287182Y-94123444D01*
X73283312Y-94124842D01*
X73279459Y-94126255D01*
X73275625Y-94127682D01*
X73271808Y-94129125D01*
X73268009Y-94130582D01*
X73264226Y-94132054D01*
X73260462Y-94133540D01*
X73256714Y-94135041D01*
X73252985Y-94136557D01*
X73249271Y-94138087D01*
X73245576Y-94139632D01*
X73241896Y-94141192D01*
X73238234Y-94142766D01*
X73234589Y-94144354D01*
X73230960Y-94145958D01*
X73227347Y-94147575D01*
X73223752Y-94149207D01*
X73220172Y-94150854D01*
X73216609Y-94152515D01*
X73213062Y-94154191D01*
X73209531Y-94155881D01*
X73206017Y-94157586D01*
X73202518Y-94159305D01*
X73199035Y-94161039D01*
X73195568Y-94162787D01*
X73192117Y-94164549D01*
X73188681Y-94166326D01*
X73185261Y-94168118D01*
X73181856Y-94169923D01*
X73178467Y-94171744D01*
X73175092Y-94173578D01*
X73171734Y-94175428D01*
X73168390Y-94177291D01*
X73165062Y-94179169D01*
X73161748Y-94181062D01*
X73158450Y-94182969D01*
X73155166Y-94184891D01*
X73151897Y-94186826D01*
X73148642Y-94188777D01*
X73145403Y-94190742D01*
X73142178Y-94192722D01*
X73138968Y-94194716D01*
X73135771Y-94196725D01*
X73132590Y-94198748D01*
X73126269Y-94202838D01*
X73120005Y-94206987D01*
X73113796Y-94211194D01*
X73107644Y-94215461D01*
X73101546Y-94219786D01*
X73095503Y-94224171D01*
X73089513Y-94228615D01*
X73083578Y-94233119D01*
X73077695Y-94237683D01*
X73071865Y-94242307D01*
X73066087Y-94246991D01*
X73060361Y-94251737D01*
X73054686Y-94256544D01*
X73049063Y-94261412D01*
X73043489Y-94266342D01*
X73037966Y-94271335D01*
X73032492Y-94276390D01*
X73027068Y-94281509D01*
X73021693Y-94286691D01*
X73016367Y-94291937D01*
X73011089Y-94297247D01*
X73005859Y-94302622D01*
X73000678Y-94308063D01*
X72995543Y-94313570D01*
X72990456Y-94319143D01*
X72985416Y-94324783D01*
X72980423Y-94330490D01*
X72975476Y-94336266D01*
X72970575Y-94342111D01*
X72965721Y-94348025D01*
X72960912Y-94354009D01*
X72956150Y-94360063D01*
X72951433Y-94366189D01*
X72946761Y-94372387D01*
X72942135Y-94378657D01*
X72937553Y-94385001D01*
X72933017Y-94391419D01*
X72928526Y-94397912D01*
X72924080Y-94404480D01*
X72919678Y-94411125D01*
X72915321Y-94417847D01*
X72911009Y-94424647D01*
X72906742Y-94431526D01*
X72902519Y-94438484D01*
X72898340Y-94445523D01*
X72894207Y-94452644D01*
X72890118Y-94459847D01*
X72886073Y-94467133D01*
X72882074Y-94474503D01*
X72878118Y-94481959D01*
X72874208Y-94489500D01*
X72870343Y-94497129D01*
X72866522Y-94504845D01*
X72862747Y-94512651D01*
X72859017Y-94520548D01*
X72855331Y-94528535D01*
X72851692Y-94536615D01*
X72848098Y-94544788D01*
X72844549Y-94553056D01*
X72841047Y-94561420D01*
X72837590Y-94569880D01*
X72834180Y-94578439D01*
X72830816Y-94587098D01*
X72827499Y-94595856D01*
X72824229Y-94604717D01*
X72821005Y-94613681D01*
X72817829Y-94622750D01*
X72814701Y-94631924D01*
X72811620Y-94641206D01*
X72808588Y-94650596D01*
X72805604Y-94660096D01*
X72802669Y-94669708D01*
X72799783Y-94679433D01*
X72796946Y-94689273D01*
X72794159Y-94699229D01*
X72791422Y-94709302D01*
X72788735Y-94719495D01*
X72786099Y-94729809D01*
X72783514Y-94740245D01*
X72780980Y-94750806D01*
X72778499Y-94761493D01*
X72776070Y-94772308D01*
X72773693Y-94783254D01*
X72771369Y-94794331D01*
X72769099Y-94805542D01*
X72766883Y-94816888D01*
X72764722Y-94828373D01*
X72762615Y-94839998D01*
X72760564Y-94851765D01*
X72758569Y-94863676D01*
X72756630Y-94875735D01*
X72754748Y-94887942D01*
X72752923Y-94900301D01*
X72751156Y-94912815D01*
X72749448Y-94925485D01*
X72747799Y-94938315D01*
X72746210Y-94951307D01*
X72744680Y-94964465D01*
X72743212Y-94977791D01*
X72741805Y-94991288D01*
X72740460Y-95004960D01*
X72739177Y-95018809D01*
X72737958Y-95032841D01*
X72736803Y-95047057D01*
X72735713Y-95061462D01*
X72734688Y-95076061D01*
X72733729Y-95090856D01*
X72732837Y-95105852D01*
X72732013Y-95121054D01*
X72731258Y-95136467D01*
X72730571Y-95152096D01*
X72729955Y-95167945D01*
X72729410Y-95184021D01*
X72728936Y-95200329D01*
X72728535Y-95216875D01*
X72728220Y-95233006D01*
D10*
X75425658Y-84063491D02*
X73172635Y-84066271D01*
X76425658Y-92063491D02*
G75*
G02*
X75425658Y-93063491I-1000000J0D01*
G01*
X73166131Y-93054459D02*
G75*
G02*
X72166131Y-92063491I27J1000068D01*
G01*
X76425658Y-91563491D02*
G75*
G02*
X77425658Y-91563491I500000J0D01*
G01*
X76425658Y-92063491D02*
X76425658Y-91563491D01*
X77425658Y-92563491D02*
G75*
G02*
X75925658Y-94063491I-1500000J0D01*
G01*
X77425658Y-92563491D02*
X77425658Y-91563491D01*
X76425658Y-85063491D02*
X76425658Y-85563491D01*
X77425658Y-85563491D02*
G75*
G02*
X76425658Y-85563491I-500000J0D01*
G01*
X75925658Y-83063491D02*
G75*
G02*
X77425658Y-84563491I0J-1500000D01*
G01*
X75425658Y-84063491D02*
G75*
G02*
X76425658Y-85063491I0J-1000000D01*
G01*
X77425658Y-84563491D02*
X77425658Y-85563491D01*
X75425658Y-93063491D02*
X73166131Y-93054458D01*
X72166179Y-85063491D02*
G75*
G02*
X73172635Y-84066258I1006463J-9273D01*
G01*
X72166131Y-92063491D02*
X72166179Y-85063491D01*
D11*
X73454818Y-83066329D02*
X73448804Y-83066319D01*
X73442813Y-83066289D01*
X73436860Y-83066239D01*
X73430929Y-83066170D01*
X73425036Y-83066081D01*
X73419165Y-83065972D01*
X73413332Y-83065844D01*
X73407521Y-83065696D01*
X73401746Y-83065529D01*
X73395993Y-83065343D01*
X73390277Y-83065138D01*
X73384583Y-83064914D01*
X73378924Y-83064671D01*
X73373287Y-83064410D01*
X73367686Y-83064129D01*
X73362106Y-83063830D01*
X73356561Y-83063513D01*
X73351037Y-83063177D01*
X73345548Y-83062823D01*
X73340081Y-83062450D01*
X73334647Y-83062059D01*
X73329234Y-83061651D01*
X73323856Y-83061224D01*
X73318498Y-83060779D01*
X73313173Y-83060317D01*
X73307870Y-83059837D01*
X73302599Y-83059339D01*
X73297349Y-83058823D01*
X73292131Y-83058291D01*
X73286934Y-83057740D01*
X73281768Y-83057173D01*
X73276624Y-83056588D01*
X73271510Y-83055986D01*
X73266417Y-83055366D01*
X73261356Y-83054731D01*
X73256314Y-83054077D01*
X73251303Y-83053407D01*
X73246313Y-83052720D01*
X73241352Y-83052017D01*
X73236412Y-83051297D01*
X73231501Y-83050560D01*
X73226610Y-83049807D01*
X73221749Y-83049037D01*
X73216907Y-83048251D01*
X73212095Y-83047449D01*
X73207302Y-83046630D01*
X73202538Y-83045796D01*
X73197793Y-83044944D01*
X73193077Y-83044078D01*
X73188379Y-83043195D01*
X73183710Y-83042296D01*
X73179060Y-83041381D01*
X73174438Y-83040451D01*
X73169834Y-83039505D01*
X73165258Y-83038543D01*
X73160701Y-83037566D01*
X73156170Y-83036573D01*
X73151659Y-83035564D01*
X73147174Y-83034541D01*
X73142707Y-83033501D01*
X73138267Y-83032447D01*
X73133845Y-83031377D01*
X73129448Y-83030292D01*
X73125071Y-83029191D01*
X73120718Y-83028076D01*
X73116384Y-83026945D01*
X73112075Y-83025800D01*
X73107784Y-83024640D01*
X73103518Y-83023465D01*
X73099270Y-83022274D01*
X73095046Y-83021069D01*
X73090840Y-83019849D01*
X73086659Y-83018615D01*
X73082495Y-83017365D01*
X73078354Y-83016102D01*
X73074231Y-83014823D01*
X73070132Y-83013530D01*
X73066050Y-83012222D01*
X73061992Y-83010900D01*
X73057950Y-83009563D01*
X73053932Y-83008212D01*
X73049930Y-83006846D01*
X73045951Y-83005467D01*
X73041990Y-83004072D01*
X73038050Y-83002664D01*
X73034128Y-83001241D01*
X73030227Y-82999805D01*
X73026343Y-82998353D01*
X73022481Y-82996888D01*
X73018635Y-82995408D01*
X73014811Y-82993915D01*
X73011003Y-82992407D01*
X73007216Y-82990886D01*
X73003446Y-82989349D01*
X72999696Y-82987800D01*
X72995963Y-82986236D01*
X72992251Y-82984658D01*
X72988554Y-82983066D01*
X72984878Y-82981461D01*
X72981218Y-82979841D01*
X72977577Y-82978208D01*
X72973953Y-82976560D01*
X72970348Y-82974899D01*
X72966759Y-82973223D01*
X72963190Y-82971535D01*
X72959636Y-82969832D01*
X72956101Y-82968115D01*
X72952583Y-82966384D01*
X72949082Y-82964640D01*
X72945598Y-82962882D01*
X72942132Y-82961110D01*
X72938681Y-82959325D01*
X72935249Y-82957525D01*
X72931832Y-82955712D01*
X72928433Y-82953885D01*
X72925050Y-82952044D01*
X72921684Y-82950190D01*
X72918334Y-82948321D01*
X72915000Y-82946439D01*
X72911683Y-82944543D01*
X72908382Y-82942634D01*
X72905096Y-82940710D01*
X72901827Y-82938773D01*
X72898574Y-82936822D01*
X72895337Y-82934857D01*
X72892115Y-82932879D01*
X72888909Y-82930886D01*
X72885719Y-82928880D01*
X72882544Y-82926860D01*
X72879385Y-82924826D01*
X72876241Y-82922778D01*
X72873112Y-82920716D01*
X72869999Y-82918641D01*
X72866901Y-82916551D01*
X72863818Y-82914448D01*
X72860750Y-82912330D01*
X72857696Y-82910199D01*
X72854658Y-82908054D01*
X72851634Y-82905894D01*
X72848626Y-82903721D01*
X72845632Y-82901533D01*
X72842652Y-82899332D01*
X72839687Y-82897116D01*
X72836737Y-82894886D01*
X72830879Y-82890384D01*
X72825078Y-82885825D01*
X72819334Y-82881209D01*
X72813646Y-82876535D01*
X72808013Y-82871804D01*
X72802436Y-82867015D01*
X72796913Y-82862167D01*
X72791445Y-82857261D01*
X72786031Y-82852296D01*
X72780670Y-82847271D01*
X72775362Y-82842187D01*
X72770107Y-82837042D01*
X72764905Y-82831837D01*
X72759754Y-82826571D01*
X72754655Y-82821243D01*
X72749608Y-82815854D01*
X72744611Y-82810402D01*
X72739665Y-82804887D01*
X72734770Y-82799309D01*
X72729925Y-82793667D01*
X72725130Y-82787960D01*
X72720385Y-82782188D01*
X72715689Y-82776351D01*
X72711043Y-82770447D01*
X72706446Y-82764477D01*
X72701897Y-82758439D01*
X72697398Y-82752333D01*
X72692947Y-82746158D01*
X72688545Y-82739914D01*
X72684191Y-82733600D01*
X72679885Y-82727215D01*
X72675628Y-82720758D01*
X72671418Y-82714229D01*
X72667257Y-82707627D01*
X72663144Y-82700951D01*
X72659079Y-82694201D01*
X72655061Y-82687375D01*
X72651092Y-82680474D01*
X72647171Y-82673495D01*
X72643297Y-82666438D01*
X72639472Y-82659302D01*
X72635694Y-82652087D01*
X72631965Y-82644792D01*
X72628284Y-82637415D01*
X72624652Y-82629956D01*
X72621067Y-82622413D01*
X72617531Y-82614786D01*
X72614044Y-82607074D01*
X72610606Y-82599276D01*
X72607217Y-82591391D01*
X72603876Y-82583417D01*
X72600586Y-82575354D01*
X72597344Y-82567201D01*
X72594152Y-82558957D01*
X72591011Y-82550620D01*
X72587919Y-82542189D01*
X72584878Y-82533663D01*
X72581888Y-82525042D01*
X72578949Y-82516324D01*
X72576061Y-82507507D01*
X72573224Y-82498591D01*
X72570440Y-82489575D01*
X72567707Y-82480456D01*
X72565028Y-82471234D01*
X72562401Y-82461908D01*
X72559828Y-82452476D01*
X72557308Y-82442937D01*
X72554842Y-82433290D01*
X72552431Y-82423533D01*
X72550075Y-82413664D01*
X72547774Y-82403683D01*
X72545529Y-82393589D01*
X72543340Y-82383378D01*
X72541208Y-82373051D01*
X72539133Y-82362605D01*
X72537116Y-82352039D01*
X72535157Y-82341351D01*
X72533257Y-82330540D01*
X72531416Y-82319605D01*
X72529634Y-82308543D01*
X72527914Y-82297353D01*
X72526254Y-82286032D01*
X72524656Y-82274581D01*
X72523119Y-82262996D01*
X72521646Y-82251275D01*
X72520236Y-82239418D01*
X72518890Y-82227422D01*
X72517608Y-82215285D01*
X72516392Y-82203005D01*
X72515242Y-82190580D01*
X72514159Y-82178008D01*
X72513143Y-82165288D01*
X72512195Y-82152416D01*
X72511316Y-82139391D01*
X72510507Y-82126211D01*
X72509768Y-82112872D01*
X72509101Y-82099374D01*
X72508505Y-82085713D01*
X72507983Y-82071887D01*
X72507533Y-82057893D01*
X72507159Y-82043729D01*
X72506860Y-82029393D01*
X72506637Y-82014881D01*
X72506491Y-82000191D01*
X72506424Y-81985320D01*
X72506435Y-81970265D01*
X72506527Y-81955022D01*
X72506700Y-81939590D01*
X72506955Y-81923964D01*
X72507293Y-81908141D01*
X72507583Y-81896814D01*
D10*
X73675455Y-94063491D02*
X75925658Y-94063491D01*
X73454818Y-83066329D02*
X75925658Y-83063491D01*
M02*
