M48
; DRILL file {KiCad 9.0.4} date 2025-12-23T13:31:46+0000
; FORMAT={-:-/ absolute / metric / decimal}
; #@! TF.CreationDate,2025-12-23T13:31:46+00:00
; #@! TF.GenerationSoftware,Kicad,Pcbnew,9.0.4
; #@! TF.FileFunction,Plated,1,4,PTH
FMAT,2
METRIC
; #@! TA.AperFunction,Plated,PTH,ComponentDrill
T1C0.250
; #@! TA.AperFunction,Plated,PTH,ViaDrill
T2C0.350
; #@! TA.AperFunction,Plated,PTH,ComponentDrill
T3C0.600
; #@! TA.AperFunction,Plated,PTH,ComponentDrill
T4C0.650
; #@! TA.AperFunction,Plated,PTH,ComponentDrill
T5C1.500
%
G90
G05
T1
X98.018Y-98.816
X98.018Y-99.95
X98.018Y-101.083
X99.152Y-98.816
X99.152Y-99.95
X99.152Y-101.083
X100.285Y-98.816
X100.285Y-99.95
X100.285Y-101.083
T2
X82.1Y-88.031
X82.856Y-89.443
X90.0Y-97.049
X90.0Y-99.742
X90.0Y-102.15
X91.25Y-107.0
X92.0Y-107.0
X92.5Y-101.0
X93.187Y-100.634
X94.117Y-91.338
X97.86Y-109.504
X98.152Y-90.0
X100.572Y-109.5
X103.5Y-86.5
X103.5Y-87.5
X103.5Y-88.5
X104.5Y-86.5
X104.5Y-87.5
X104.5Y-88.5
X105.419Y-88.919
X108.0Y-88.846
X108.0Y-104.45
X108.349Y-95.64
X108.5Y-99.45
X108.505Y-100.45
X109.0Y-94.0
X109.0Y-95.0
X110.0Y-94.0
X110.0Y-95.0
T4
X96.862Y-74.95
X102.652Y-74.95
T5
X96.804Y-121.459
X96.804Y-126.539
X99.344Y-123.999
X101.884Y-121.459
X101.884Y-126.539
T3
G00X95.432Y-71.67
M15
G01X95.432Y-70.87
M16
G05
G00X95.432Y-76.0
M15
G01X95.432Y-74.9
M16
G05
G00X104.072Y-71.67
M15
G01X104.072Y-70.87
M16
G05
G00X104.072Y-76.0
M15
G01X104.072Y-74.9
M16
G05
M30
