M48
; DRILL file KiCad 10.0.0-rc1 date 2026-04-10T11:45:52
; FORMAT={-:-/ absolute / inch / decimal}
; #@! TF.CreationDate,2026-04-10T11:45:52+01:00
; #@! TF.GenerationSoftware,Kicad,Pcbnew,10.0.0-rc1
; #@! TF.FileFunction,Plated,1,4,PTH
FMAT,2
INCH
; #@! TA.AperFunction,Plated,PTH,ViaDrill
T1C0.0118
; #@! TA.AperFunction,Plated,PTH,ViaDrill
T2C0.0120
; #@! TA.AperFunction,Plated,PTH,ViaDrill
T3C0.0122
; #@! TA.AperFunction,Plated,PTH,ComponentDrill
T4C0.0295
; #@! TA.AperFunction,Plated,PTH,ComponentDrill
T5C0.0315
; #@! TA.AperFunction,Plated,PTH,ComponentDrill
T6C0.0591
; #@! TA.AperFunction,Plated,PTH,ComponentDrill
T7C0.0787
%
G90
G05
T1
X6.613Y-3.5882
T2
X5.5413Y-3.837
X5.5461Y-4.4461
X5.5564Y-3.6131
X5.5571Y-4.1472
X5.5575Y-4.1189
X5.5709Y-4.0955
X5.572Y-4.2067
X5.572Y-4.2677
X5.5728Y-4.3228
X5.5736Y-4.487
X5.588Y-3.6925
X5.5909Y-4.0819
X5.6047Y-3.5556
X5.6047Y-3.617
X5.6047Y-3.6741
X5.6071Y-4.1484
X5.6118Y-3.9756
X5.6118Y-4.0697
X5.6203Y-3.693
X5.6335Y-4.5362
X5.6374Y-4.3646
X5.6599Y-4.328
X5.6604Y-4.5362
X5.665Y-3.7976
X5.6685Y-4.0148
X5.6689Y-4.039
X5.6689Y-3.6178
X5.6701Y-4.2118
X5.6705Y-4.2362
X5.6705Y-4.1876
X5.6846Y-4.5366
X5.6853Y-4.2726
X5.6929Y-4.0697
X5.699Y-3.9404
X5.7011Y-3.6524
X5.702Y-3.6213
X5.7091Y-4.5362
X5.713Y-4.2618
X5.7378Y-4.2835
X5.7445Y-4.3071
X5.7579Y-4.3276
X5.7583Y-4.5531
X5.7583Y-4.4146
X5.7583Y-4.4421
X5.7583Y-4.4697
X5.7583Y-4.4972
X5.7583Y-4.5248
X5.7823Y-4.3283
X5.7839Y-4.0697
X5.7858Y-4.5531
X5.8012Y-3.7917
X5.8091Y-4.3575
X5.8114Y-4.1555
X5.8118Y-4.0461
X5.8118Y-4.1012
X5.8134Y-4.5531
X5.8409Y-4.5531
X5.865Y-4.0461
X5.865Y-4.1012
X5.865Y-4.1555
X5.865Y-4.1831
X5.8657Y-3.6791
X5.8685Y-4.5531
X5.8898Y-4.2772
X5.8909Y-3.7866
X5.8929Y-3.8811
X5.8929Y-3.9031
X5.8961Y-4.5531
X5.9118Y-4.0193
X5.9161Y-4.3323
X5.9161Y-4.365
X5.9185Y-3.7862
X5.9197Y-4.0461
X5.9197Y-4.1012
X5.9197Y-4.1555
X5.9252Y-4.5531
X5.9445Y-3.8295
X5.9457Y-3.787
X5.9469Y-4.0854
X5.9535Y-4.5531
X5.9736Y-3.787
X5.9866Y-3.9146
X5.987Y-3.8874
X6.0047Y-3.7866
X6.0079Y-4.2588
X6.0083Y-3.7035
X6.0185Y-3.9398
X6.0189Y-3.8134
X6.0189Y-3.8488
X6.0331Y-3.7697
X6.0337Y-4.2588
X6.0366Y-4.0835
X6.0516Y-3.7343
X6.087Y-3.7961
X6.0909Y-3.9626
X6.098Y-3.8579
X6.098Y-3.8886
X6.1106Y-4.3256
X6.1161Y-4.0787
X6.1161Y-4.1079
X6.1197Y-3.6154
X6.1197Y-4.2417
X6.122Y-4.4193
X6.1496Y-3.6146
X6.1713Y-3.7343
X6.1898Y-3.7697
X6.2Y-3.9201
X6.2291Y-3.9567
X6.2386Y-3.7728
X6.2685Y-3.9571
X6.2689Y-3.7732
X6.3047Y-3.9571
X6.5343Y-3.5937
X6.5744Y-3.5909
X6.6268Y-4.2752
X6.7933Y-4.1839
X6.7947Y-4.1055
X6.7957Y-4.4992
X6.7961Y-4.263
T3
X6.2689Y-3.9996
X6.2697Y-4.0547
X6.3214Y-3.9996
X6.3214Y-4.0547
X6.3844Y-3.9996
X6.3851Y-4.0547
X6.4179Y-3.986
X6.4569Y-4.025
X6.4599Y-3.9441
X6.4989Y-3.983
X6.5018Y-3.9021
X6.5408Y-3.9411
X6.5438Y-3.8601
X6.5828Y-3.8991
X6.5862Y-3.8177
X6.6247Y-3.8571
X6.643Y-3.78
X6.6776Y-3.8272
T4
X5.8453Y-3.5425
X6.0736Y-3.5425
T6
X6.2358Y-3.413
X6.378Y-3.4146
T7
X5.5717Y-4.5819
X5.572Y-3.4122
X6.8043Y-3.4126
T5
G00X5.789Y-3.4094
M15
G01X5.789Y-3.3858
M16
G05
G00X5.789Y-3.578
M15
G01X5.789Y-3.5465
M16
G05
G00X6.1299Y-3.4094
M15
G01X6.1299Y-3.3858
M16
G05
G00X6.1299Y-3.578
M15
G01X6.1299Y-3.5465
M16
G05
M30
