M48
; DRILL file {KiCad 9.0.4} date 2026-02-22T12:05:05+0000
; FORMAT={-:-/ absolute / inch / decimal}
; #@! TF.CreationDate,2026-02-22T12:05:05+00:00
; #@! TF.GenerationSoftware,Kicad,Pcbnew,9.0.4
; #@! TF.FileFunction,Plated,1,4,PTH
FMAT,2
INCH
; #@! TA.AperFunction,Plated,PTH,ComponentDrill
T1C0.0098
; #@! TA.AperFunction,Plated,PTH,ViaDrill
T2C0.0138
; #@! TA.AperFunction,Plated,PTH,ComponentDrill
T3C0.0236
; #@! TA.AperFunction,Plated,PTH,ComponentDrill
T4C0.0256
; #@! TA.AperFunction,Plated,PTH,ComponentDrill
T5C0.0591
%
G90
G05
T1
X-0.078Y0.0466
X-0.078Y0.002
X-0.078Y-0.0426
X-0.0334Y0.0466
X-0.0334Y0.002
X-0.0334Y-0.0426
X0.0112Y0.0466
X0.0112Y0.002
X0.0112Y-0.0426
T2
X-0.9382Y-0.8287
X-0.8071Y0.0197
X-0.7925Y-0.8669
X-0.7874Y-0.1575
X-0.7661Y-0.7335
X-0.695Y0.0139
X-0.6556Y-0.0528
X-0.6177Y0.6854
X-0.5555Y0.3814
X-0.555Y-0.057
X-0.5252Y-0.1126
X-0.509Y0.1018
X-0.4626Y-0.0197
X-0.3937Y0.1162
X-0.3937Y0.0102
X-0.3937Y-0.0846
X-0.3445Y-0.2756
X-0.3278Y-0.0524
X-0.315Y-0.2756
X-0.3051Y-0.7874
X-0.2953Y-0.0394
X-0.2682Y-0.025
X-0.2316Y0.341
X-0.1782Y-0.15
X-0.1742Y0.0787
X-0.1673Y-0.7874
X-0.1544Y-0.6694
X-0.1322Y0.6776
X-0.1083Y0.5807
X-0.0843Y-0.3742
X-0.0728Y0.3937
X0.0205Y0.1378
X0.0225Y-0.374
X0.0923Y-0.1316
X0.1283Y0.1623
X0.1328Y0.2774
X0.1378Y0.5315
X0.1378Y0.4921
X0.1378Y0.4528
X0.1716Y0.203
X0.1717Y0.3828
X0.1772Y0.5315
X0.1772Y0.4921
X0.1772Y0.4528
X0.1969Y-0.1476
X0.2095Y0.2388
X0.2133Y0.4363
X0.315Y0.4391
X0.315Y-0.1752
X0.3287Y0.1716
X0.3346Y0.0217
X0.3348Y-0.0177
X0.3543Y0.2362
X0.3543Y0.1969
X0.3937Y0.2362
X0.3937Y0.1969
T4
X-0.1236Y0.9862
X0.1044Y0.9862
T5
X-0.1258Y-0.8449
X-0.1258Y-1.0449
X-0.0258Y-0.9449
X0.0742Y-0.8449
X0.0742Y-1.0449
T3
G00X-0.1799Y1.1154
M15
G01X-0.1799Y1.1469
M16
G05
G00X-0.1799Y0.9449
M15
G01X-0.1799Y0.9882
M16
G05
G00X0.1603Y1.1154
M15
G01X0.1603Y1.1469
M16
G05
G00X0.1603Y0.9449
M15
G01X0.1603Y0.9882
M16
G05
M30
