%TF.GenerationSoftware,KiCad,Pcbnew,10.0.0-rc1*%
%TF.CreationDate,2026-04-13T10:56:35+01:00*%
%TF.ProjectId,Lyra-v0.2,4c797261-2d76-4302-9e32-2e6b69636164,rev?*%
%TF.SameCoordinates,Original*%
%TF.FileFunction,Soldermask,Top*%
%TF.FilePolarity,Negative*%
%FSLAX46Y46*%
G04 Gerber Fmt 4.6, Leading zero omitted, Abs format (unit mm)*
G04 Created by KiCad (PCBNEW 10.0.0-rc1) date 2026-04-13 10:56:35*
%MOMM*%
%LPD*%
G01*
G04 APERTURE LIST*
G04 Aperture macros list*
%AMRotRect*
0 Rectangle, with rotation*
0 The origin of the aperture is its center*
0 $1 length*
0 $2 width*
0 $3 Rotation angle, in degrees counterclockwise*
0 Add horizontal line*
21,1,$1,$2,0,0,$3*%
%AMFreePoly0*
4,1,13,0.335355,0.685355,0.350000,0.650000,0.350000,-0.650000,0.335355,-0.685355,0.300000,-0.700000,-0.300000,-0.700000,-0.335355,-0.685355,-0.350000,-0.650000,-0.350000,0.650000,-0.335355,0.685355,-0.300000,0.700000,0.300000,0.700000,0.335355,0.685355,0.335355,0.685355,$1*%
%AMFreePoly1*
4,1,15,0.135355,0.285355,0.150000,0.250000,0.150000,-0.260000,0.135355,-0.295355,0.100000,-0.310000,0.000000,-0.310000,-0.035355,-0.295355,-0.038411,-0.292009,-0.138411,-0.172009,-0.150000,-0.140000,-0.150000,0.250000,-0.135355,0.285355,-0.100000,0.300000,0.100000,0.300000,0.135355,0.285355,0.135355,0.285355,$1*%
%AMFreePoly2*
4,1,15,0.135355,0.285355,0.150000,0.250000,0.150000,-0.140000,0.138411,-0.172009,0.038411,-0.292009,0.004527,-0.309795,0.000000,-0.310000,-0.100000,-0.310000,-0.135355,-0.295355,-0.150000,-0.260000,-0.150000,0.250000,-0.135355,0.285355,-0.100000,0.300000,0.100000,0.300000,0.135355,0.285355,0.135355,0.285355,$1*%
%AMFreePoly3*
4,1,15,0.285355,0.135355,0.300000,0.100000,0.300000,-0.100000,0.285355,-0.135355,0.250000,-0.150000,-0.260000,-0.150000,-0.295355,-0.135355,-0.310000,-0.100000,-0.310000,0.000000,-0.295355,0.035355,-0.292009,0.038411,-0.172009,0.138411,-0.140000,0.150000,0.250000,0.150000,0.285355,0.135355,0.285355,0.135355,$1*%
%AMFreePoly4*
4,1,15,0.285355,0.135355,0.300000,0.100000,0.300000,-0.100000,0.285355,-0.135355,0.250000,-0.150000,-0.140000,-0.150000,-0.172009,-0.138411,-0.292009,-0.038411,-0.309795,-0.004527,-0.310000,0.000000,-0.310000,0.100000,-0.295355,0.135355,-0.260000,0.150000,0.250000,0.150000,0.285355,0.135355,0.285355,0.135355,$1*%
%AMFreePoly5*
4,1,15,0.035355,0.295355,0.038411,0.292009,0.138411,0.172009,0.150000,0.140000,0.150000,-0.250000,0.135355,-0.285355,0.100000,-0.300000,-0.100000,-0.300000,-0.135355,-0.285355,-0.150000,-0.250000,-0.150000,0.260000,-0.135355,0.295355,-0.100000,0.310000,0.000000,0.310000,0.035355,0.295355,0.035355,0.295355,$1*%
%AMFreePoly6*
4,1,15,0.135355,0.295355,0.150000,0.260000,0.150000,-0.250000,0.135355,-0.285355,0.100000,-0.300000,-0.100000,-0.300000,-0.135355,-0.285355,-0.150000,-0.250000,-0.150000,0.140000,-0.138411,0.172009,-0.038411,0.292009,-0.004527,0.309795,0.000000,0.310000,0.100000,0.310000,0.135355,0.295355,0.135355,0.295355,$1*%
%AMFreePoly7*
4,1,15,0.295355,0.135355,0.310000,0.100000,0.310000,0.000000,0.295355,-0.035355,0.292009,-0.038411,0.172009,-0.138411,0.140000,-0.150000,-0.250000,-0.150000,-0.285355,-0.135355,-0.300000,-0.100000,-0.300000,0.100000,-0.285355,0.135355,-0.250000,0.150000,0.260000,0.150000,0.295355,0.135355,0.295355,0.135355,$1*%
%AMFreePoly8*
4,1,16,-0.248718,0.159984,0.141282,0.149984,0.172009,0.138411,0.292009,0.038411,0.309795,0.004527,0.310000,0.000000,0.310000,-0.100000,0.295355,-0.135355,0.260000,-0.150000,-0.250000,-0.150000,-0.285355,-0.135355,-0.300000,-0.100000,-0.300000,0.110000,-0.285355,0.145355,-0.250000,0.160000,-0.248718,0.159984,-0.248718,0.159984,$1*%
G04 Aperture macros list end*
%ADD10C,3.000000*%
%ADD11R,0.300000X1.300000*%
%ADD12FreePoly0,180.000000*%
%ADD13O,1.200000X2.000000*%
%ADD14O,1.200000X1.800000*%
%ADD15C,0.750000*%
%ADD16R,1.230000X1.860000*%
%ADD17R,0.570000X0.540000*%
%ADD18R,0.880000X0.200000*%
%ADD19R,0.200000X0.880000*%
%ADD20R,3.400000X3.400000*%
%ADD21R,0.540000X0.500000*%
%ADD22R,0.540000X0.570000*%
%ADD23R,0.500000X0.540000*%
%ADD24O,0.200000X0.600000*%
%ADD25O,1.050000X0.400000*%
%ADD26R,1.050000X0.400000*%
%ADD27R,1.700000X1.700000*%
%ADD28O,0.280000X0.800000*%
%ADD29O,0.800000X0.280000*%
%ADD30R,2.400000X1.200000*%
%ADD31R,3.000000X1.200000*%
%ADD32RotRect,0.570000X0.540000X315.000000*%
%ADD33R,1.300000X0.800000*%
%ADD34R,1.000000X1.600000*%
%ADD35RotRect,0.570000X0.540000X225.000000*%
%ADD36R,0.470000X0.530000*%
%ADD37R,1.400000X1.200000*%
%ADD38RotRect,0.500000X0.540000X45.000000*%
%ADD39R,1.200000X1.800000*%
%ADD40R,0.600000X1.550000*%
%ADD41R,1.860000X1.230000*%
%ADD42RotRect,0.300000X0.500000X135.000000*%
%ADD43RotRect,0.300000X0.500000X45.000000*%
%ADD44RotRect,0.300000X0.500000X315.000000*%
%ADD45RotRect,0.300000X0.500000X225.000000*%
%ADD46R,0.800000X0.900000*%
%ADD47RotRect,0.500000X0.540000X315.000000*%
%ADD48R,4.500000X1.400000*%
%ADD49FreePoly1,180.000000*%
%ADD50R,0.200000X0.510000*%
%ADD51FreePoly2,180.000000*%
%ADD52FreePoly3,180.000000*%
%ADD53R,0.510000X0.200000*%
%ADD54FreePoly4,180.000000*%
%ADD55FreePoly5,180.000000*%
%ADD56FreePoly6,180.000000*%
%ADD57FreePoly7,180.000000*%
%ADD58FreePoly8,180.000000*%
G04 APERTURE END LIST*
D10*
%TO.C,M1*%
X172830000Y-86680000D03*
%TD*%
%TO.C,M2*%
X141520000Y-116380000D03*
%TD*%
%TO.C,M3*%
X141530000Y-86670000D03*
%TD*%
D11*
%TO.C,USBC1*%
X153120000Y-91240000D03*
X152120000Y-91240000D03*
X150620000Y-91240000D03*
X149620000Y-91240000D03*
D12*
X148970000Y-91240000D03*
X148170000Y-91240000D03*
D11*
X150120000Y-91240000D03*
X151120000Y-91240000D03*
X151620000Y-91240000D03*
X152620000Y-91240000D03*
D12*
X153770000Y-91240000D03*
X154570000Y-91240000D03*
D13*
X155700000Y-90480000D03*
D14*
X155700000Y-86300000D03*
X147040000Y-86300000D03*
D13*
X147040000Y-90480000D03*
D15*
X148470000Y-89980000D03*
X154270000Y-89980000D03*
%TD*%
D16*
%TO.C,SW1*%
X146120000Y-97450000D03*
X141760000Y-97450000D03*
%TD*%
D17*
%TO.C,R6*%
X146720000Y-99500000D03*
X147580000Y-99500000D03*
%TD*%
D18*
%TO.C,U1*%
X145390000Y-101370000D03*
X145390000Y-101770000D03*
X145390000Y-102170000D03*
X145390000Y-102570000D03*
X145390000Y-102970000D03*
X145390000Y-103370000D03*
X145390000Y-103770000D03*
X145390000Y-104170000D03*
X145390000Y-104570000D03*
X145390000Y-104970000D03*
X145390000Y-105370000D03*
X145390000Y-105770000D03*
X145390000Y-106170000D03*
X145390000Y-106570000D03*
X145390000Y-106970000D03*
D19*
X146170000Y-107740000D03*
X146570000Y-107740000D03*
X146970000Y-107740000D03*
X147370000Y-107740000D03*
X147770000Y-107740000D03*
X148170000Y-107740000D03*
X148570000Y-107740000D03*
X148970000Y-107740000D03*
X149370000Y-107740000D03*
X149770000Y-107740000D03*
X150170000Y-107740000D03*
X150570000Y-107740000D03*
X150970000Y-107740000D03*
X151370000Y-107740000D03*
X151770000Y-107740000D03*
D18*
X152550000Y-106970000D03*
X152550000Y-106570000D03*
X152550000Y-106170000D03*
X152550000Y-105770000D03*
X152550000Y-105370000D03*
X152550000Y-104970000D03*
X152550000Y-104570000D03*
X152550000Y-104170000D03*
X152550000Y-103770000D03*
X152550000Y-103370000D03*
X152550000Y-102970000D03*
X152550000Y-102570000D03*
X152550000Y-102170000D03*
X152550000Y-101770000D03*
X152550000Y-101370000D03*
D19*
X151770000Y-100600000D03*
X151370000Y-100600000D03*
X150970000Y-100600000D03*
X150570000Y-100600000D03*
X150170000Y-100600000D03*
X149770000Y-100600000D03*
X149370000Y-100600000D03*
X148970000Y-100600000D03*
X148570000Y-100600000D03*
X148170000Y-100600000D03*
X147770000Y-100600000D03*
X147370000Y-100600000D03*
X146970000Y-100600000D03*
X146570000Y-100600000D03*
X146170000Y-100600000D03*
D20*
X148970000Y-104170000D03*
%TD*%
D21*
%TO.C,C4*%
X147350000Y-97800000D03*
X147350000Y-96960000D03*
%TD*%
D22*
%TO.C,R2*%
X148800000Y-109210000D03*
X148800000Y-110070000D03*
%TD*%
D23*
%TO.C,C3*%
X144020000Y-103370000D03*
X143180000Y-103370000D03*
%TD*%
D21*
%TO.C,C10*%
X147550000Y-109200000D03*
X147550000Y-110040000D03*
%TD*%
D24*
%TO.C,U3*%
X156200000Y-94850000D03*
X155700000Y-94850000D03*
X155200000Y-94850000D03*
X154700000Y-94850000D03*
D25*
X154770000Y-94050000D03*
X154770000Y-93350000D03*
D24*
X154700000Y-92550000D03*
X155200000Y-92550000D03*
X155700000Y-92550000D03*
X156200000Y-92550000D03*
D25*
X156120000Y-93350000D03*
D26*
X156120000Y-94050000D03*
%TD*%
D27*
%TO.C,U4*%
X158970000Y-98200000D03*
D28*
X158220000Y-96700000D03*
X158720000Y-96700000D03*
X159220000Y-96700000D03*
X159720000Y-96700000D03*
D29*
X160470000Y-97450000D03*
X160470000Y-97950000D03*
X160470000Y-98450000D03*
X160470000Y-98950000D03*
D28*
X159720000Y-99700000D03*
X159220000Y-99700000D03*
X158720000Y-99700000D03*
X158220000Y-99700000D03*
D29*
X157470000Y-98950000D03*
X157470000Y-98450000D03*
X157470000Y-97950000D03*
X157470000Y-97450000D03*
%TD*%
D30*
%TO.C,L2*%
X173030000Y-102290000D03*
X173030000Y-104290000D03*
X173030000Y-106290000D03*
X173030000Y-108290000D03*
X173030000Y-110290000D03*
X173030000Y-112290000D03*
X173030000Y-114290000D03*
X173030000Y-116290000D03*
X157030000Y-116290000D03*
X157030000Y-114290000D03*
X157030000Y-112290000D03*
X157030000Y-110290000D03*
X157030000Y-108290000D03*
X157030000Y-106290000D03*
X157030000Y-104290000D03*
D31*
X157330000Y-102290000D03*
%TD*%
D32*
%TO.C,R12*%
X143849613Y-90975928D03*
X143241501Y-90367816D03*
%TD*%
D33*
%TO.C,L5*%
X155880000Y-98000000D03*
X155880000Y-96700000D03*
%TD*%
D34*
%TO.C,L1*%
X149970000Y-97405000D03*
X151970000Y-97405000D03*
%TD*%
D35*
%TO.C,R11*%
X143241500Y-93380091D03*
X143849612Y-92771979D03*
%TD*%
D36*
%TO.C,C12*%
X150455000Y-99430000D03*
X151485000Y-99430000D03*
%TD*%
D21*
%TO.C,C17*%
X161410000Y-97970000D03*
X161410000Y-98810000D03*
%TD*%
%TO.C,C19*%
X141550000Y-112070000D03*
X141550000Y-112910000D03*
%TD*%
D37*
%TO.C,U2*%
X149850000Y-114390000D03*
X147650000Y-114390000D03*
X147650000Y-112690000D03*
X149850000Y-112690000D03*
%TD*%
D21*
%TO.C,C21*%
X144389998Y-110730000D03*
X144389998Y-109890000D03*
%TD*%
D22*
%TO.C,R7*%
X152610000Y-92580000D03*
X152610000Y-93440000D03*
%TD*%
D23*
%TO.C,C16*%
X155770000Y-95760000D03*
X156610000Y-95760000D03*
%TD*%
D36*
%TO.C,C13*%
X150455000Y-98740000D03*
X151485000Y-98740000D03*
%TD*%
D23*
%TO.C,C8*%
X153870000Y-101370000D03*
X154710000Y-101370000D03*
%TD*%
%TO.C,C5*%
X144020000Y-100990000D03*
X143180000Y-100990000D03*
%TD*%
D22*
%TO.C,R1*%
X153590000Y-97750000D03*
X153590000Y-96890000D03*
%TD*%
D23*
%TO.C,C7*%
X153860000Y-107740000D03*
X154700000Y-107740000D03*
%TD*%
D38*
%TO.C,C23*%
X141473735Y-90410243D03*
X140879765Y-91004213D03*
%TD*%
D21*
%TO.C,C24*%
X154480000Y-106550000D03*
X154480000Y-105710000D03*
%TD*%
D39*
%TO.C,CN1*%
X170270000Y-86010000D03*
X164670000Y-86010000D03*
D40*
X165970000Y-89890000D03*
X166970000Y-89890000D03*
X167970000Y-89890000D03*
X168970000Y-89890000D03*
%TD*%
D41*
%TO.C,SW2*%
X153070000Y-111220000D03*
X153070000Y-115580000D03*
%TD*%
D21*
%TO.C,C25*%
X155120000Y-106550000D03*
X155120000Y-105710000D03*
%TD*%
D22*
%TO.C,R4*%
X148180000Y-96960000D03*
X148180000Y-97820000D03*
%TD*%
D17*
%TO.C,R9*%
X155130000Y-95760000D03*
X154270000Y-95760000D03*
%TD*%
%TO.C,R10*%
X155440000Y-98770000D03*
X156300000Y-98770000D03*
%TD*%
D23*
%TO.C,C9*%
X153870000Y-104340000D03*
X154710000Y-104340000D03*
%TD*%
%TO.C,C15*%
X147220000Y-111330000D03*
X148060000Y-111330000D03*
%TD*%
%TO.C,C14*%
X149620000Y-110870000D03*
X148780000Y-110870000D03*
%TD*%
D42*
%TO.C,U6*%
X142088916Y-92849761D03*
X141735363Y-92496208D03*
X141381810Y-92142655D03*
D43*
X141558586Y-91442619D03*
X141912140Y-91089065D03*
D44*
X142612176Y-90912289D03*
X142965729Y-91265842D03*
D42*
X143319282Y-91619395D03*
D45*
X143142506Y-92319431D03*
X142788952Y-92672985D03*
%TD*%
D22*
%TO.C,R3*%
X151040000Y-110890000D03*
X151040000Y-110030000D03*
%TD*%
D46*
%TO.C,C18*%
X155160000Y-99590000D03*
X156560000Y-99590000D03*
%TD*%
D23*
%TO.C,C2*%
X153870000Y-103600000D03*
X154710000Y-103600000D03*
%TD*%
D21*
%TO.C,C1*%
X149600000Y-109200000D03*
X149600000Y-110040000D03*
%TD*%
%TO.C,C11*%
X153590000Y-98520000D03*
X153590000Y-99360000D03*
%TD*%
D23*
%TO.C,C6*%
X144020000Y-105370000D03*
X143180000Y-105370000D03*
%TD*%
D21*
%TO.C,C20*%
X141550000Y-111350000D03*
X141550000Y-110510000D03*
%TD*%
D22*
%TO.C,R8*%
X149620000Y-92580000D03*
X149620000Y-93440000D03*
%TD*%
D47*
%TO.C,C22*%
X141445450Y-93365949D03*
X140851480Y-92771979D03*
%TD*%
D22*
%TO.C,R5*%
X148960000Y-96960000D03*
X148960000Y-97820000D03*
%TD*%
D48*
%TO.C,U7*%
X172242500Y-93570000D03*
X172242500Y-96370000D03*
X172242500Y-99170000D03*
%TD*%
D49*
%TO.C,U5*%
X144790000Y-114400000D03*
D50*
X144390000Y-114400000D03*
X143990000Y-114400000D03*
X143590000Y-114400000D03*
X143190000Y-114400000D03*
D51*
X142790000Y-114400000D03*
D52*
X142360000Y-113970000D03*
D53*
X142360000Y-113570000D03*
X142360000Y-113170000D03*
X142360000Y-112770000D03*
X142360000Y-112370000D03*
D54*
X142360000Y-111970000D03*
D55*
X142790000Y-111540000D03*
D50*
X143190000Y-111540000D03*
X143590000Y-111540000D03*
X143990000Y-111540000D03*
X144390000Y-111540000D03*
D56*
X144790000Y-111540000D03*
D57*
X145220000Y-111970000D03*
D53*
X145220000Y-112370000D03*
X145220000Y-112770000D03*
X145220000Y-113170000D03*
X145220000Y-113570000D03*
D58*
X145220000Y-113970000D03*
%TD*%
D10*
%TO.C,REF\u002A\u002A*%
X158390000Y-86690000D03*
%TD*%
%TO.C,*%
X162000000Y-86730000D03*
%TD*%
M02*
