%TF.GenerationSoftware,KiCad,Pcbnew,9.0.4*%
%TF.CreationDate,2026-01-25T12:04:54+00:00*%
%TF.ProjectId,Lyra Avionics,4c797261-2041-4766-996f-6e6963732e6b,REV3*%
%TF.SameCoordinates,Original*%
%TF.FileFunction,Profile,NP*%
%FSLAX46Y46*%
G04 Gerber Fmt 4.6, Leading zero omitted, Abs format (unit mm)*
G04 Created by KiCad (PCBNEW 9.0.4) date 2026-01-25 12:04:54*
%MOMM*%
%LPD*%
G01*
G04 APERTURE LIST*
%TA.AperFunction,Profile*%
%ADD10C,0.050000*%
%TD*%
%TA.AperFunction,Profile*%
%ADD11C,0.200000*%
%TD*%
%ADD12C,0.050000*%
G04 APERTURE END LIST*
D10*
X-20770376Y2520474D02*
X-23023399Y2517694D01*
X20000000Y27500000D02*
X20000000Y-25500000D01*
X-24197235Y4687151D02*
X-24196682Y23750000D01*
X-19770376Y-5479526D02*
G75*
G02*
X-20770376Y-6479524I-1000024J26D01*
G01*
X-23029903Y-6470494D02*
G75*
G02*
X-24029952Y-5479526I3J1000094D01*
G01*
X-19770376Y-4979526D02*
G75*
G02*
X-18770376Y-4979526I500000J0D01*
G01*
X-19770376Y-5479526D02*
X-19770376Y-4979526D01*
X-18770376Y-5979526D02*
G75*
G02*
X-20270376Y-7479524I-1500024J26D01*
G01*
X17000000Y30500000D02*
G75*
G02*
X20000000Y27500000I0J-3000000D01*
G01*
D11*
X17000000Y10000000D02*
G75*
G02*
X15000000Y10000000I-1000000J0D01*
G01*
X15000000Y10000000D02*
G75*
G02*
X17000000Y10000000I1000000J0D01*
G01*
D10*
X-18770376Y-5979526D02*
X-18770376Y-4979526D01*
X-19770376Y1520474D02*
X-19770376Y1020474D01*
X20000000Y-25500000D02*
G75*
G02*
X17000000Y-28500000I-3000000J0D01*
G01*
X-24552765Y-7479526D02*
X-20270376Y-7479526D01*
X-23250000Y3517636D02*
X-20270376Y3520474D01*
D12*
X-23250000Y3517636D02*
X-23256014Y3517646D01*
X-23262005Y3517676D01*
X-23267958Y3517726D01*
X-23273889Y3517795D01*
X-23279782Y3517884D01*
X-23285653Y3517993D01*
X-23291486Y3518121D01*
X-23297297Y3518269D01*
X-23303072Y3518436D01*
X-23308825Y3518622D01*
X-23314541Y3518827D01*
X-23320235Y3519051D01*
X-23325894Y3519294D01*
X-23331531Y3519555D01*
X-23337132Y3519836D01*
X-23342712Y3520135D01*
X-23348257Y3520452D01*
X-23353781Y3520788D01*
X-23359270Y3521142D01*
X-23364737Y3521515D01*
X-23370171Y3521906D01*
X-23375584Y3522314D01*
X-23380962Y3522741D01*
X-23386320Y3523186D01*
X-23391645Y3523648D01*
X-23396948Y3524128D01*
X-23402219Y3524626D01*
X-23407469Y3525142D01*
X-23412687Y3525674D01*
X-23417884Y3526225D01*
X-23423050Y3526792D01*
X-23428194Y3527377D01*
X-23433308Y3527979D01*
X-23438401Y3528599D01*
X-23443462Y3529234D01*
X-23448504Y3529888D01*
X-23453515Y3530558D01*
X-23458505Y3531245D01*
X-23463466Y3531948D01*
X-23468406Y3532668D01*
X-23473317Y3533405D01*
X-23478208Y3534158D01*
X-23483069Y3534928D01*
X-23487911Y3535714D01*
X-23492723Y3536516D01*
X-23497516Y3537335D01*
X-23502280Y3538169D01*
X-23507025Y3539021D01*
X-23511741Y3539887D01*
X-23516439Y3540770D01*
X-23521108Y3541669D01*
X-23525758Y3542584D01*
X-23530380Y3543514D01*
X-23534984Y3544460D01*
X-23539560Y3545422D01*
X-23544117Y3546399D01*
X-23548648Y3547392D01*
X-23553159Y3548401D01*
X-23557644Y3549424D01*
X-23562111Y3550464D01*
X-23566551Y3551518D01*
X-23570973Y3552588D01*
X-23575370Y3553673D01*
X-23579747Y3554774D01*
X-23584100Y3555889D01*
X-23588434Y3557020D01*
X-23592743Y3558165D01*
X-23597034Y3559325D01*
X-23601300Y3560500D01*
X-23605548Y3561691D01*
X-23609772Y3562896D01*
X-23613978Y3564116D01*
X-23618159Y3565350D01*
X-23622323Y3566600D01*
X-23626464Y3567863D01*
X-23630587Y3569142D01*
X-23634686Y3570435D01*
X-23638768Y3571743D01*
X-23642826Y3573065D01*
X-23646868Y3574402D01*
X-23650886Y3575753D01*
X-23654888Y3577119D01*
X-23658867Y3578498D01*
X-23662828Y3579893D01*
X-23666768Y3581301D01*
X-23670690Y3582724D01*
X-23674591Y3584160D01*
X-23678475Y3585612D01*
X-23682337Y3587077D01*
X-23686183Y3588557D01*
X-23690007Y3590050D01*
X-23693815Y3591558D01*
X-23697602Y3593079D01*
X-23701372Y3594616D01*
X-23705122Y3596165D01*
X-23708855Y3597729D01*
X-23712567Y3599307D01*
X-23716264Y3600899D01*
X-23719940Y3602504D01*
X-23723600Y3604124D01*
X-23727241Y3605757D01*
X-23730865Y3607405D01*
X-23734470Y3609066D01*
X-23738059Y3610742D01*
X-23741628Y3612430D01*
X-23745182Y3614133D01*
X-23748717Y3615850D01*
X-23752235Y3617581D01*
X-23755736Y3619325D01*
X-23759220Y3621083D01*
X-23762686Y3622855D01*
X-23766137Y3624640D01*
X-23769569Y3626440D01*
X-23772986Y3628253D01*
X-23776385Y3630080D01*
X-23779768Y3631921D01*
X-23783134Y3633775D01*
X-23786484Y3635644D01*
X-23789818Y3637526D01*
X-23793135Y3639422D01*
X-23796436Y3641331D01*
X-23799722Y3643255D01*
X-23802991Y3645192D01*
X-23806244Y3647143D01*
X-23809481Y3649108D01*
X-23812703Y3651086D01*
X-23815909Y3653079D01*
X-23819099Y3655085D01*
X-23822274Y3657105D01*
X-23825433Y3659139D01*
X-23828577Y3661187D01*
X-23831706Y3663249D01*
X-23834819Y3665324D01*
X-23837917Y3667414D01*
X-23841000Y3669517D01*
X-23844068Y3671635D01*
X-23847122Y3673766D01*
X-23850160Y3675911D01*
X-23853184Y3678071D01*
X-23856192Y3680244D01*
X-23859186Y3682432D01*
X-23862166Y3684633D01*
X-23865131Y3686849D01*
X-23868081Y3689079D01*
X-23873939Y3693581D01*
X-23879740Y3698140D01*
X-23885484Y3702756D01*
X-23891172Y3707430D01*
X-23896805Y3712161D01*
X-23902382Y3716950D01*
X-23907905Y3721798D01*
X-23913373Y3726704D01*
X-23918787Y3731669D01*
X-23924148Y3736694D01*
X-23929456Y3741778D01*
X-23934711Y3746923D01*
X-23939913Y3752128D01*
X-23945064Y3757394D01*
X-23950163Y3762722D01*
X-23955210Y3768111D01*
X-23960207Y3773563D01*
X-23965153Y3779078D01*
X-23970048Y3784656D01*
X-23974893Y3790298D01*
X-23979688Y3796005D01*
X-23984433Y3801777D01*
X-23989129Y3807614D01*
X-23993775Y3813518D01*
X-23998372Y3819488D01*
X-24002921Y3825526D01*
X-24007420Y3831632D01*
X-24011871Y3837807D01*
X-24016273Y3844051D01*
X-24020627Y3850365D01*
X-24024933Y3856750D01*
X-24029190Y3863207D01*
X-24033400Y3869736D01*
X-24037561Y3876338D01*
X-24041674Y3883014D01*
X-24045739Y3889764D01*
X-24049757Y3896590D01*
X-24053726Y3903491D01*
X-24057647Y3910470D01*
X-24061521Y3917527D01*
X-24065346Y3924663D01*
X-24069124Y3931878D01*
X-24072853Y3939173D01*
X-24076534Y3946550D01*
X-24080166Y3954009D01*
X-24083751Y3961552D01*
X-24087287Y3969179D01*
X-24090774Y3976891D01*
X-24094212Y3984689D01*
X-24097601Y3992574D01*
X-24100942Y4000548D01*
X-24104232Y4008611D01*
X-24107474Y4016764D01*
X-24110666Y4025008D01*
X-24113807Y4033345D01*
X-24116899Y4041776D01*
X-24119940Y4050302D01*
X-24122930Y4058923D01*
X-24125869Y4067641D01*
X-24128757Y4076458D01*
X-24131594Y4085374D01*
X-24134378Y4094390D01*
X-24137111Y4103509D01*
X-24139790Y4112731D01*
X-24142417Y4122057D01*
X-24144990Y4131489D01*
X-24147510Y4141028D01*
X-24149976Y4150675D01*
X-24152387Y4160432D01*
X-24154743Y4170301D01*
X-24157044Y4180282D01*
X-24159289Y4190376D01*
X-24161478Y4200587D01*
X-24163610Y4210914D01*
X-24165685Y4221360D01*
X-24167702Y4231926D01*
X-24169661Y4242614D01*
X-24171561Y4253425D01*
X-24173402Y4264360D01*
X-24175184Y4275422D01*
X-24176904Y4286612D01*
X-24178564Y4297933D01*
X-24180162Y4309384D01*
X-24181699Y4320969D01*
X-24183172Y4332690D01*
X-24184582Y4344547D01*
X-24185928Y4356543D01*
X-24187210Y4368680D01*
X-24188426Y4380960D01*
X-24189576Y4393385D01*
X-24190659Y4405957D01*
X-24191675Y4418677D01*
X-24192623Y4431549D01*
X-24193502Y4444574D01*
X-24194311Y4457754D01*
X-24195050Y4471093D01*
X-24195717Y4484591D01*
X-24196313Y4498252D01*
X-24196835Y4512078D01*
X-24197285Y4526072D01*
X-24197659Y4540236D01*
X-24197958Y4554572D01*
X-24198181Y4569084D01*
X-24198327Y4583774D01*
X-24198394Y4598645D01*
X-24198383Y4613700D01*
X-24198291Y4628943D01*
X-24198118Y4644375D01*
X-24197863Y4660001D01*
X-24197525Y4675824D01*
X-24197235Y4687151D01*
D10*
X-24750000Y25500000D02*
G75*
G02*
X-22500000Y30510399I2250000J2000000D01*
G01*
X-18770376Y1020474D02*
G75*
G02*
X-19770376Y1020474I-500000J0D01*
G01*
X-20270376Y3520474D02*
G75*
G02*
X-18770426Y2020474I-24J-1499974D01*
G01*
X-25500000Y-8649041D02*
X-25500000Y-25499999D01*
X-24029903Y-5479526D02*
X-24029855Y1520474D01*
X-20770376Y2520474D02*
G75*
G02*
X-19770426Y1520474I-24J-999974D01*
G01*
X-22500000Y30510398D02*
X17000000Y30500000D01*
X-22500000Y-28500000D02*
X17000000Y-28500000D01*
D11*
X17000000Y17500000D02*
G75*
G02*
X15000000Y17500000I-1000000J0D01*
G01*
X15000000Y17500000D02*
G75*
G02*
X17000000Y17500000I1000000J0D01*
G01*
D12*
X-24196682Y23750000D02*
X-24196722Y23764708D01*
X-24196842Y23779435D01*
X-24197041Y23794179D01*
X-24197321Y23808940D01*
X-24197680Y23823720D01*
X-24198120Y23838516D01*
X-24198640Y23853331D01*
X-24199241Y23868163D01*
X-24199922Y23883013D01*
X-24200684Y23897880D01*
X-24201526Y23912764D01*
X-24202449Y23927666D01*
X-24203454Y23942585D01*
X-24204539Y23957521D01*
X-24205705Y23972474D01*
X-24206953Y23987445D01*
X-24208282Y24002432D01*
X-24209693Y24017436D01*
X-24211185Y24032457D01*
X-24212759Y24047494D01*
X-24214415Y24062548D01*
X-24216153Y24077618D01*
X-24217973Y24092704D01*
X-24219875Y24107806D01*
X-24221860Y24122924D01*
X-24223927Y24138058D01*
X-24226076Y24153207D01*
X-24228308Y24168372D01*
X-24230623Y24183551D01*
X-24233021Y24198745D01*
X-24235502Y24213954D01*
X-24238065Y24229178D01*
X-24240712Y24244415D01*
X-24243443Y24259666D01*
X-24246256Y24274931D01*
X-24249153Y24290209D01*
X-24252134Y24305501D01*
X-24255198Y24320804D01*
X-24258345Y24336120D01*
X-24261577Y24351448D01*
X-24264892Y24366788D01*
X-24268292Y24382139D01*
X-24271775Y24397500D01*
X-24275342Y24412872D01*
X-24278993Y24428254D01*
X-24282728Y24443645D01*
X-24286548Y24459046D01*
X-24290451Y24474454D01*
X-24294439Y24489871D01*
X-24298510Y24505295D01*
X-24302666Y24520726D01*
X-24306906Y24536163D01*
X-24311230Y24551606D01*
X-24315637Y24567054D01*
X-24320129Y24582506D01*
X-24324705Y24597962D01*
X-24329364Y24613420D01*
X-24334107Y24628881D01*
X-24338934Y24644342D01*
X-24343844Y24659804D01*
X-24348837Y24675266D01*
X-24353913Y24690726D01*
X-24359073Y24706184D01*
X-24364315Y24721639D01*
X-24369639Y24737089D01*
X-24375045Y24752534D01*
X-24380533Y24767972D01*
X-24386103Y24783403D01*
X-24391754Y24798824D01*
X-24397486Y24814235D01*
X-24403297Y24829634D01*
X-24409189Y24845021D01*
X-24415160Y24860392D01*
X-24421210Y24875747D01*
X-24427338Y24891085D01*
X-24433544Y24906403D01*
X-24439827Y24921699D01*
X-24446186Y24936973D01*
X-24452620Y24952221D01*
X-24459128Y24967442D01*
X-24465710Y24982633D01*
X-24472364Y24997792D01*
X-24479090Y25012917D01*
X-24485886Y25028005D01*
X-24492751Y25043054D01*
X-24499683Y25058059D01*
X-24506682Y25073020D01*
X-24513744Y25087931D01*
X-24520870Y25102791D01*
X-24528056Y25117594D01*
X-24535301Y25132338D01*
X-24542602Y25147018D01*
X-24549957Y25161629D01*
X-24557364Y25176168D01*
X-24564819Y25190628D01*
X-24572320Y25205006D01*
X-24579863Y25219294D01*
X-24587445Y25233486D01*
X-24595061Y25247576D01*
X-24602706Y25261557D01*
X-24610377Y25275420D01*
X-24618067Y25289157D01*
X-24625770Y25302758D01*
X-24633481Y25316212D01*
X-24641190Y25329509D01*
X-24648891Y25342635D01*
X-24656572Y25355575D01*
X-24664224Y25368315D01*
X-24671834Y25380834D01*
X-24679388Y25393113D01*
X-24686869Y25405126D01*
X-24694257Y25416846D01*
X-24701528Y25428238D01*
X-24708654Y25439263D01*
X-24715598Y25449869D01*
X-24722314Y25459992D01*
X-24728742Y25469548D01*
X-24734795Y25478421D01*
X-24740346Y25486434D01*
X-24745176Y25493296D01*
X-24748831Y25498398D01*
X-24750000Y25500001D01*
X-24552765Y-7479526D02*
X-24558470Y-7479536D01*
X-24564153Y-7479566D01*
X-24569804Y-7479616D01*
X-24575433Y-7479685D01*
X-24581030Y-7479774D01*
X-24586605Y-7479883D01*
X-24592148Y-7480011D01*
X-24597670Y-7480159D01*
X-24603160Y-7480326D01*
X-24608629Y-7480512D01*
X-24614066Y-7480717D01*
X-24619483Y-7480942D01*
X-24624869Y-7481185D01*
X-24630234Y-7481447D01*
X-24635568Y-7481728D01*
X-24640882Y-7482027D01*
X-24646165Y-7482345D01*
X-24651428Y-7482682D01*
X-24656661Y-7483037D01*
X-24661874Y-7483410D01*
X-24667057Y-7483801D01*
X-24672220Y-7484211D01*
X-24677354Y-7484639D01*
X-24682468Y-7485085D01*
X-24687553Y-7485549D01*
X-24692618Y-7486031D01*
X-24697655Y-7486530D01*
X-24702672Y-7487047D01*
X-24707660Y-7487582D01*
X-24712629Y-7488134D01*
X-24717571Y-7488704D01*
X-24722493Y-7489291D01*
X-24727387Y-7489896D01*
X-24732262Y-7490518D01*
X-24737110Y-7491157D01*
X-24741939Y-7491813D01*
X-24746742Y-7492486D01*
X-24751525Y-7493176D01*
X-24756281Y-7493883D01*
X-24761019Y-7494607D01*
X-24765731Y-7495348D01*
X-24770424Y-7496106D01*
X-24775091Y-7496879D01*
X-24779739Y-7497670D01*
X-24784363Y-7498477D01*
X-24788967Y-7499301D01*
X-24793547Y-7500141D01*
X-24798108Y-7500998D01*
X-24802644Y-7501871D01*
X-24807162Y-7502760D01*
X-24811656Y-7503665D01*
X-24816132Y-7504586D01*
X-24820583Y-7505523D01*
X-24825017Y-7506477D01*
X-24829427Y-7507446D01*
X-24833818Y-7508432D01*
X-24838187Y-7509433D01*
X-24842537Y-7510450D01*
X-24846865Y-7511482D01*
X-24851175Y-7512531D01*
X-24855462Y-7513594D01*
X-24859731Y-7514674D01*
X-24863979Y-7515769D01*
X-24868208Y-7516880D01*
X-24872416Y-7518006D01*
X-24876606Y-7519148D01*
X-24880774Y-7520305D01*
X-24884925Y-7521477D01*
X-24889054Y-7522665D01*
X-24893167Y-7523868D01*
X-24897258Y-7525086D01*
X-24901332Y-7526319D01*
X-24905385Y-7527567D01*
X-24909421Y-7528831D01*
X-24913437Y-7530109D01*
X-24917436Y-7531403D01*
X-24921415Y-7532712D01*
X-24925376Y-7534035D01*
X-24929318Y-7535374D01*
X-24933243Y-7536727D01*
X-24937149Y-7538096D01*
X-24941038Y-7539479D01*
X-24944908Y-7540877D01*
X-24948761Y-7542290D01*
X-24952595Y-7543717D01*
X-24956412Y-7545160D01*
X-24960211Y-7546617D01*
X-24963994Y-7548089D01*
X-24967758Y-7549575D01*
X-24971506Y-7551076D01*
X-24975235Y-7552592D01*
X-24978949Y-7554122D01*
X-24982644Y-7555667D01*
X-24986324Y-7557227D01*
X-24989986Y-7558801D01*
X-24993631Y-7560389D01*
X-24997260Y-7561993D01*
X-25000873Y-7563610D01*
X-25004468Y-7565242D01*
X-25008048Y-7566889D01*
X-25011611Y-7568550D01*
X-25015158Y-7570226D01*
X-25018689Y-7571916D01*
X-25022203Y-7573621D01*
X-25025702Y-7575340D01*
X-25029185Y-7577074D01*
X-25032652Y-7578822D01*
X-25036103Y-7580584D01*
X-25039539Y-7582361D01*
X-25042959Y-7584153D01*
X-25046364Y-7585958D01*
X-25049753Y-7587779D01*
X-25053128Y-7589613D01*
X-25056486Y-7591463D01*
X-25059830Y-7593326D01*
X-25063158Y-7595204D01*
X-25066472Y-7597097D01*
X-25069770Y-7599004D01*
X-25073054Y-7600926D01*
X-25076323Y-7602861D01*
X-25079578Y-7604812D01*
X-25082817Y-7606777D01*
X-25086042Y-7608757D01*
X-25089252Y-7610751D01*
X-25092449Y-7612760D01*
X-25095630Y-7614783D01*
X-25101951Y-7618873D01*
X-25108215Y-7623022D01*
X-25114424Y-7627229D01*
X-25120576Y-7631496D01*
X-25126674Y-7635821D01*
X-25132717Y-7640206D01*
X-25138707Y-7644650D01*
X-25144642Y-7649154D01*
X-25150525Y-7653718D01*
X-25156355Y-7658342D01*
X-25162133Y-7663026D01*
X-25167859Y-7667772D01*
X-25173534Y-7672579D01*
X-25179157Y-7677447D01*
X-25184731Y-7682377D01*
X-25190254Y-7687370D01*
X-25195728Y-7692425D01*
X-25201152Y-7697544D01*
X-25206527Y-7702726D01*
X-25211853Y-7707972D01*
X-25217131Y-7713282D01*
X-25222361Y-7718657D01*
X-25227542Y-7724098D01*
X-25232677Y-7729605D01*
X-25237764Y-7735178D01*
X-25242804Y-7740818D01*
X-25247797Y-7746525D01*
X-25252744Y-7752301D01*
X-25257645Y-7758146D01*
X-25262499Y-7764060D01*
X-25267308Y-7770044D01*
X-25272070Y-7776098D01*
X-25276787Y-7782224D01*
X-25281459Y-7788422D01*
X-25286085Y-7794692D01*
X-25290667Y-7801036D01*
X-25295203Y-7807454D01*
X-25299694Y-7813947D01*
X-25304140Y-7820515D01*
X-25308542Y-7827160D01*
X-25312899Y-7833882D01*
X-25317211Y-7840682D01*
X-25321478Y-7847561D01*
X-25325701Y-7854519D01*
X-25329880Y-7861558D01*
X-25334013Y-7868679D01*
X-25338102Y-7875882D01*
X-25342147Y-7883168D01*
X-25346146Y-7890538D01*
X-25350102Y-7897994D01*
X-25354012Y-7905535D01*
X-25357877Y-7913164D01*
X-25361698Y-7920880D01*
X-25365473Y-7928686D01*
X-25369203Y-7936583D01*
X-25372889Y-7944570D01*
X-25376528Y-7952650D01*
X-25380122Y-7960823D01*
X-25383671Y-7969091D01*
X-25387173Y-7977455D01*
X-25390630Y-7985915D01*
X-25394040Y-7994474D01*
X-25397404Y-8003133D01*
X-25400721Y-8011891D01*
X-25403991Y-8020752D01*
X-25407215Y-8029716D01*
X-25410391Y-8038785D01*
X-25413519Y-8047959D01*
X-25416600Y-8057241D01*
X-25419632Y-8066631D01*
X-25422616Y-8076131D01*
X-25425551Y-8085743D01*
X-25428437Y-8095468D01*
X-25431274Y-8105308D01*
X-25434061Y-8115264D01*
X-25436798Y-8125337D01*
X-25439485Y-8135530D01*
X-25442121Y-8145844D01*
X-25444706Y-8156280D01*
X-25447240Y-8166841D01*
X-25449721Y-8177528D01*
X-25452150Y-8188343D01*
X-25454527Y-8199289D01*
X-25456851Y-8210366D01*
X-25459121Y-8221577D01*
X-25461337Y-8232923D01*
X-25463498Y-8244408D01*
X-25465605Y-8256033D01*
X-25467656Y-8267800D01*
X-25469651Y-8279711D01*
X-25471590Y-8291770D01*
X-25473472Y-8303977D01*
X-25475297Y-8316336D01*
X-25477064Y-8328850D01*
X-25478772Y-8341520D01*
X-25480421Y-8354350D01*
X-25482010Y-8367342D01*
X-25483540Y-8380500D01*
X-25485008Y-8393826D01*
X-25486415Y-8407323D01*
X-25487760Y-8420995D01*
X-25489043Y-8434844D01*
X-25490262Y-8448876D01*
X-25491417Y-8463092D01*
X-25492507Y-8477497D01*
X-25493532Y-8492096D01*
X-25494491Y-8506891D01*
X-25495383Y-8521887D01*
X-25496207Y-8537089D01*
X-25496962Y-8552502D01*
X-25497649Y-8568131D01*
X-25498265Y-8583980D01*
X-25498810Y-8600056D01*
X-25499284Y-8616364D01*
X-25499685Y-8632910D01*
X-25500000Y-8649041D01*
D10*
X-18770376Y2020474D02*
X-18770376Y1020474D01*
X-20770376Y-6479526D02*
X-23029903Y-6470493D01*
X-24029855Y1520474D02*
G75*
G02*
X-23023399Y2517698I1006455J-9274D01*
G01*
X-22500000Y-28499999D02*
G75*
G02*
X-25499999Y-25499999I0J2999999D01*
G01*
M02*
