%TF.GenerationSoftware,KiCad,Pcbnew,9.0.4*%
%TF.CreationDate,2025-12-23T13:44:40+00:00*%
%TF.ProjectId,Lyra Avionics,4c797261-2041-4766-996f-6e6963732e6b,REV3*%
%TF.SameCoordinates,Original*%
%TF.FileFunction,Soldermask,Top*%
%TF.FilePolarity,Negative*%
%FSLAX46Y46*%
G04 Gerber Fmt 4.6, Leading zero omitted, Abs format (unit mm)*
G04 Created by KiCad (PCBNEW 9.0.4) date 2025-12-23 13:44:40*
%MOMM*%
%LPD*%
G01*
G04 APERTURE LIST*
G04 Aperture macros list*
%AMRoundRect*
0 Rectangle with rounded corners*
0 $1 Rounding radius*
0 $2 $3 $4 $5 $6 $7 $8 $9 X,Y pos of 4 corners*
0 Add a 4 corners polygon primitive as box body*
4,1,4,$2,$3,$4,$5,$6,$7,$8,$9,$2,$3,0*
0 Add four circle primitives for the rounded corners*
1,1,$1+$1,$2,$3*
1,1,$1+$1,$4,$5*
1,1,$1+$1,$6,$7*
1,1,$1+$1,$8,$9*
0 Add four rect primitives between the rounded corners*
20,1,$1+$1,$2,$3,$4,$5,0*
20,1,$1+$1,$4,$5,$6,$7,0*
20,1,$1+$1,$6,$7,$8,$9,0*
20,1,$1+$1,$8,$9,$2,$3,0*%
G04 Aperture macros list end*
%ADD10C,2.560000*%
%ADD11RoundRect,0.030000X-0.135001X-0.300000X0.135001X-0.300000X0.135001X0.300000X-0.135001X0.300000X0*%
%ADD12RoundRect,0.030000X-0.300000X-0.135001X0.300000X-0.135001X0.300000X0.135001X-0.300000X0.135001X0*%
%ADD13RoundRect,0.030000X0.270002X-0.282829X0.270002X0.282829X-0.270002X0.282829X-0.270002X-0.282829X0*%
%ADD14RoundRect,0.155000X0.155000X0.185000X-0.155000X0.185000X-0.155000X-0.185000X0.155000X-0.185000X0*%
%ADD15RoundRect,0.150000X-0.150000X-0.200000X0.150000X-0.200000X0.150000X0.200000X-0.150000X0.200000X0*%
%ADD16RoundRect,0.150000X0.150000X0.200000X-0.150000X0.200000X-0.150000X-0.200000X0.150000X-0.200000X0*%
%ADD17RoundRect,0.150000X-0.200000X0.150000X-0.200000X-0.150000X0.200000X-0.150000X0.200000X0.150000X0*%
%ADD18O,0.424008X0.827005*%
%ADD19RoundRect,0.155000X0.185000X-0.155000X0.185000X0.155000X-0.185000X0.155000X-0.185000X-0.155000X0*%
%ADD20C,2.760000*%
%ADD21RoundRect,0.265000X-0.265000X-0.490000X0.265000X-0.490000X0.265000X0.490000X-0.265000X0.490000X0*%
%ADD22RoundRect,0.265000X0.490000X-0.265000X0.490000X0.265000X-0.490000X0.265000X-0.490000X-0.265000X0*%
%ADD23RoundRect,0.260556X1.027444X0.677444X-1.027444X0.677444X-1.027444X-0.677444X1.027444X-0.677444X0*%
%ADD24RoundRect,0.030000X-0.800000X0.450000X-0.800000X-0.450000X0.800000X-0.450000X0.800000X0.450000X0*%
%ADD25RoundRect,0.030000X-0.125006X0.260503X-0.125006X-0.260503X0.125006X-0.260503X0.125006X0.260503X0*%
%ADD26RoundRect,0.150000X0.200000X-0.150000X0.200000X0.150000X-0.200000X0.150000X-0.200000X-0.150000X0*%
%ADD27RoundRect,0.030000X0.750000X-1.850000X0.750000X1.850000X-0.750000X1.850000X-0.750000X-1.850000X0*%
%ADD28RoundRect,0.165000X-0.665000X-0.165000X0.665000X-0.165000X0.665000X0.165000X-0.665000X0.165000X0*%
%ADD29RoundRect,0.030000X-0.900000X-0.350000X0.900000X-0.350000X0.900000X0.350000X-0.900000X0.350000X0*%
%ADD30RoundRect,0.155000X0.240416X0.021213X0.021213X0.240416X-0.240416X-0.021213X-0.021213X-0.240416X0*%
%ADD31RoundRect,0.030000X1.500000X0.600000X-1.500000X0.600000X-1.500000X-0.600000X1.500000X-0.600000X0*%
%ADD32RoundRect,0.030000X1.200000X0.600000X-1.200000X0.600000X-1.200000X-0.600000X1.200000X-0.600000X0*%
%ADD33RoundRect,0.155000X-0.155000X-0.185000X0.155000X-0.185000X0.155000X0.185000X-0.155000X0.185000X0*%
%ADD34RoundRect,0.030000X-0.700000X-0.600000X0.700000X-0.600000X0.700000X0.600000X-0.700000X0.600000X0*%
%ADD35RoundRect,0.155000X-0.185000X0.155000X-0.185000X-0.155000X0.185000X-0.155000X0.185000X0.155000X0*%
%ADD36RoundRect,0.030000X-0.235000X-0.265000X0.235000X-0.265000X0.235000X0.265000X-0.235000X0.265000X0*%
%ADD37RoundRect,0.030000X-0.325000X0.525000X-0.325000X-0.525000X0.325000X-0.525000X0.325000X0.525000X0*%
%ADD38RoundRect,0.030000X0.525000X0.325000X-0.525000X0.325000X-0.525000X-0.325000X0.525000X-0.325000X0*%
%ADD39RoundRect,0.030000X0.150000X0.620000X-0.150000X0.620000X-0.150000X-0.620000X0.150000X-0.620000X0*%
%ADD40RoundRect,0.030000X0.300000X0.620000X-0.300000X0.620000X-0.300000X-0.620000X0.300000X-0.620000X0*%
%ADD41O,1.060000X1.860000*%
%ADD42O,1.060000X2.160000*%
%ADD43C,0.710000*%
%ADD44RoundRect,0.159000X-0.159000X-0.189000X0.159000X-0.189000X0.159000X0.189000X-0.159000X0.189000X0*%
%ADD45RoundRect,0.030000X-0.566666X-0.566666X0.566666X-0.566666X0.566666X0.566666X-0.566666X0.566666X0*%
%ADD46C,0.660000*%
%ADD47RoundRect,0.070000X-0.070000X-0.350000X0.070000X-0.350000X0.070000X0.350000X-0.070000X0.350000X0*%
%ADD48RoundRect,0.070000X0.350000X-0.070000X0.350000X0.070000X-0.350000X0.070000X-0.350000X-0.070000X0*%
%ADD49RoundRect,0.030000X-0.350000X-0.850000X0.350000X-0.850000X0.350000X0.850000X-0.350000X0.850000X0*%
G04 APERTURE END LIST*
D10*
%TO.C,U4*%
X1883936Y-26539424D03*
X-3196074Y-26539424D03*
X-3196074Y-21459414D03*
X1883936Y-21459414D03*
X-656069Y-23999419D03*
%TD*%
D11*
%TO.C,U2*%
X-17500229Y13079985D03*
X-18000102Y13079985D03*
X-18500229Y13079985D03*
D12*
X-19169977Y13250064D03*
X-19169977Y13750191D03*
X-19169977Y14250064D03*
X-19169977Y14750191D03*
D11*
X-18500229Y14920015D03*
X-18000102Y14920015D03*
X-17500229Y14920015D03*
D12*
X-16830023Y14750191D03*
X-16830023Y14250064D03*
X-16830023Y13750191D03*
X-16830023Y13250064D03*
%TD*%
D13*
%TO.C,R1*%
X-20501280Y12903426D03*
X-20501280Y13769060D03*
%TD*%
D14*
%TO.C,C1*%
X-21025641Y14761266D03*
X-20065641Y14761266D03*
%TD*%
%TO.C,C5*%
X-18460000Y16000000D03*
X-17500000Y16000000D03*
%TD*%
D15*
%TO.C,R9*%
X-16159977Y12079985D03*
X-17179977Y12079985D03*
%TD*%
D16*
%TO.C,R11*%
X-19679977Y12079985D03*
X-18659977Y12079985D03*
%TD*%
D17*
%TO.C,R25*%
X-26779074Y8929953D03*
X-26779074Y7909953D03*
%TD*%
D18*
%TO.C,U8*%
X-24803966Y10157462D03*
X-25453953Y10157462D03*
X-26103941Y10157462D03*
X-26754182Y10157462D03*
X-26754182Y12674608D03*
X-26103941Y12674608D03*
X-25453953Y12674608D03*
X-24803966Y12674608D03*
%TD*%
D17*
%TO.C,R24*%
X-25779074Y8926035D03*
X-25779074Y7906035D03*
%TD*%
D19*
%TO.C,C31*%
X-26279074Y13936035D03*
X-26279074Y14896035D03*
%TD*%
%TO.C,C30*%
X-25279074Y13936035D03*
X-25279074Y14896035D03*
%TD*%
D17*
%TO.C,R26*%
X-24797223Y8941502D03*
X-24797223Y7921502D03*
%TD*%
D20*
%TO.C,H1*%
X14500000Y25000000D03*
%TD*%
D21*
%TO.C,C33*%
X5050000Y22500000D03*
X6950000Y22500000D03*
%TD*%
D22*
%TO.C,C22*%
X8740951Y17685727D03*
X8740951Y15785727D03*
%TD*%
D23*
%TO.C,D1*%
X6000000Y19500000D03*
X2000000Y19500000D03*
%TD*%
%TO.C,D2*%
X6000000Y16000000D03*
X2000000Y16000000D03*
%TD*%
D15*
%TO.C,R12*%
X490000Y22000000D03*
X1510000Y22000000D03*
%TD*%
D24*
%TO.C,U7*%
X6050038Y12750064D03*
D25*
X6800102Y11800102D03*
X6299974Y11800102D03*
X5800102Y11800102D03*
X5299974Y11800102D03*
X5299974Y13700026D03*
X5800102Y13700026D03*
X6299974Y13700026D03*
X6800102Y13700026D03*
%TD*%
D26*
%TO.C,R13*%
X8000000Y13000000D03*
X8000000Y11980000D03*
%TD*%
D27*
%TO.C,L2*%
X9499873Y8500000D03*
X6500127Y8500000D03*
%TD*%
D22*
%TO.C,C19*%
X9500000Y13450000D03*
X9500000Y11550000D03*
%TD*%
D28*
%TO.C,U3*%
X-4248395Y14755355D03*
X-4248395Y13485355D03*
X-4248395Y12215355D03*
X-4248395Y10945355D03*
X-11448395Y10945355D03*
X-11448395Y12215355D03*
X-11448395Y13485355D03*
X-11448395Y14755355D03*
%TD*%
D29*
%TO.C,U10*%
X-22100204Y3400051D03*
X-22100204Y2299975D03*
X-22100204Y1199898D03*
X-22100204Y100076D03*
X-22100204Y-1000000D03*
X-22100204Y-2100076D03*
X-22100204Y-3199898D03*
X-22100204Y-4299975D03*
X-22100204Y-5400051D03*
X-12500000Y-5400051D03*
X-12500000Y-4299975D03*
X-12500000Y-3199898D03*
X-12500000Y-2100076D03*
X-12500000Y-1000000D03*
X-12500000Y100076D03*
X-12500000Y1199898D03*
X-12500000Y2299975D03*
X-12500000Y3400051D03*
%TD*%
D30*
%TO.C,C14*%
X-4679013Y7401227D03*
X-5357835Y8080049D03*
%TD*%
D31*
%TO.C,U6*%
X-6300025Y-24000000D03*
D32*
X-6000000Y-22000000D03*
X-6000000Y-20000000D03*
X-6000000Y-18000000D03*
X-6000000Y-16000000D03*
X-6000000Y-14000000D03*
X-6000000Y-12000000D03*
X-6000000Y-10000000D03*
X-22000000Y-10000000D03*
X-22000000Y-12000000D03*
X-22000000Y-14000000D03*
X-22000000Y-16000000D03*
X-22000000Y-18000000D03*
X-22000000Y-20000000D03*
X-22000000Y-22000000D03*
X-21999949Y-24000000D03*
%TD*%
D33*
%TO.C,C25*%
X-3000000Y-17000000D03*
X-2040000Y-17000000D03*
%TD*%
D21*
%TO.C,C24*%
X-3500000Y-18500000D03*
X-1600000Y-18500000D03*
%TD*%
D14*
%TO.C,C17*%
X-9328395Y-2149645D03*
X-8368395Y-2149645D03*
%TD*%
%TO.C,C2*%
X-5143395Y17220355D03*
X-4183395Y17220355D03*
%TD*%
D33*
%TO.C,C4*%
X1226605Y-10369645D03*
X266605Y-10369645D03*
%TD*%
D19*
%TO.C,C12*%
X-1848395Y9330355D03*
X-1848395Y8370355D03*
%TD*%
D33*
%TO.C,C16*%
X7636605Y-449645D03*
X6676605Y-449645D03*
%TD*%
%TO.C,C18*%
X7131605Y-4449645D03*
X6171605Y-4449645D03*
%TD*%
D17*
%TO.C,R7*%
X-848395Y8340355D03*
X-848395Y9360355D03*
%TD*%
D14*
%TO.C,C15*%
X-9328395Y2950355D03*
X-8368395Y2950355D03*
%TD*%
%TO.C,C3*%
X-2703395Y-10369645D03*
X-1743395Y-10369645D03*
%TD*%
D20*
%TO.C,H2*%
X14500000Y-13500000D03*
%TD*%
D17*
%TO.C,R8*%
X151605Y8340355D03*
X151605Y9360355D03*
%TD*%
D20*
%TO.C,H3*%
X-22500000Y26000000D03*
%TD*%
D33*
%TO.C,C20*%
X7631605Y4350355D03*
X6671605Y4350355D03*
%TD*%
D17*
%TO.C,R2*%
X-648395Y-8764645D03*
X-648395Y-7744645D03*
%TD*%
D20*
%TO.C,H4*%
X14500000Y-24000000D03*
%TD*%
D34*
%TO.C,Y1*%
X-1948395Y-13099645D03*
X251605Y-13099645D03*
X251605Y-14799645D03*
X-1948395Y-14799645D03*
%TD*%
D17*
%TO.C,R3*%
X4351605Y7890355D03*
X4351605Y8910355D03*
%TD*%
D35*
%TO.C,C9*%
X4351605Y6070355D03*
X4351605Y7030355D03*
%TD*%
D36*
%TO.C,C7*%
X2666605Y7050355D03*
X1636605Y7050355D03*
%TD*%
D37*
%TO.C,SW1*%
X-8498395Y18075355D03*
X-8498395Y22200355D03*
X-6348395Y18050355D03*
X-6348395Y22200355D03*
%TD*%
D38*
%TO.C,SW2*%
X6101605Y-7874645D03*
X10226605Y-7874645D03*
X6076605Y-10024645D03*
X10226605Y-10024645D03*
%TD*%
D39*
%TO.C,U5*%
X1501605Y23930355D03*
X501605Y23930355D03*
X-998395Y23930355D03*
X-1998395Y23930355D03*
D40*
X-2648395Y23930355D03*
X-3448395Y23930355D03*
D39*
X-1498395Y23930355D03*
X-498395Y23930355D03*
X1605Y23930355D03*
X1001605Y23930355D03*
D40*
X2151605Y23930355D03*
X2951605Y23930355D03*
D41*
X4071605Y28730355D03*
X-4568395Y28730355D03*
D42*
X-4568395Y24550355D03*
X4071605Y24550355D03*
D43*
X-3138395Y25050355D03*
X2651605Y25050355D03*
%TD*%
D36*
%TO.C,C6*%
X2666605Y6100355D03*
X1636605Y6100355D03*
%TD*%
D15*
%TO.C,R10*%
X-12990000Y14754573D03*
X-14010000Y14754573D03*
%TD*%
%TO.C,R6*%
X-14010000Y16000000D03*
X-12990000Y16000000D03*
%TD*%
D35*
%TO.C,C10*%
X551605Y-8729645D03*
X551605Y-7769645D03*
%TD*%
D44*
%TO.C,R5*%
X-2348395Y22050355D03*
X-3348395Y22050355D03*
%TD*%
D45*
%TO.C,U1*%
X284938Y-1082978D03*
D46*
X284938Y-1082978D03*
D45*
X284938Y50355D03*
D46*
X284938Y50355D03*
D45*
X284938Y1183688D03*
D46*
X284938Y1183688D03*
D45*
X-848395Y-1082978D03*
D46*
X-848395Y-1082978D03*
D45*
X-848395Y50355D03*
D46*
X-848395Y50355D03*
D45*
X-848395Y1183688D03*
D46*
X-848395Y1183688D03*
D45*
X-1981728Y-1082978D03*
D46*
X-1981728Y-1082978D03*
D45*
X-1981728Y50355D03*
D46*
X-1981728Y50355D03*
D45*
X-1981728Y1183688D03*
D46*
X-1981728Y1183688D03*
D47*
X-4648395Y4946855D03*
X-4248395Y4946855D03*
X-3848395Y4946855D03*
X-3448395Y4946855D03*
X-3048395Y4946855D03*
X-2648395Y4946855D03*
X-2248395Y4946855D03*
X-1848395Y4946855D03*
X-1448395Y4946855D03*
X-1048395Y4946855D03*
X-648395Y4946855D03*
X-248395Y4946855D03*
X151605Y4946855D03*
X551605Y4946855D03*
X951605Y4946855D03*
X1351605Y4946855D03*
X1751605Y4946855D03*
X2151605Y4946855D03*
X2551605Y4946855D03*
X2951605Y4946855D03*
D48*
X4048105Y3850355D03*
X4048105Y3450355D03*
X4048105Y3050355D03*
X4048105Y2650355D03*
X4048105Y2250355D03*
X4048105Y1850355D03*
X4048105Y1450355D03*
X4048105Y1050355D03*
X4048105Y650355D03*
X4048105Y250355D03*
X4048105Y-149645D03*
X4048105Y-549645D03*
X4048105Y-949645D03*
X4048105Y-1349645D03*
X4048105Y-1749645D03*
X4048105Y-2149645D03*
X4048105Y-2549645D03*
X4048105Y-2949645D03*
X4048105Y-3349645D03*
X4048105Y-3749645D03*
D47*
X2951605Y-4846145D03*
X2551605Y-4846145D03*
X2151605Y-4846145D03*
X1751605Y-4846145D03*
X1351605Y-4846145D03*
X951605Y-4846145D03*
X551605Y-4846145D03*
X151605Y-4846145D03*
X-248395Y-4846145D03*
X-648395Y-4846145D03*
X-1048395Y-4846145D03*
X-1448395Y-4846145D03*
X-1848395Y-4846145D03*
X-2248395Y-4846145D03*
X-2648395Y-4846145D03*
X-3048395Y-4846145D03*
X-3448395Y-4846145D03*
X-3848395Y-4846145D03*
X-4248395Y-4846145D03*
X-4648395Y-4846145D03*
D48*
X-5744895Y-3749645D03*
X-5744895Y-3349645D03*
X-5744895Y-2949645D03*
X-5744895Y-2549645D03*
X-5744895Y-2149645D03*
X-5744895Y-1749645D03*
X-5744895Y-1349645D03*
X-5744895Y-949645D03*
X-5744895Y-549645D03*
X-5744895Y-149645D03*
X-5744895Y250355D03*
X-5744895Y650355D03*
X-5744895Y1050355D03*
X-5744895Y1450355D03*
X-5744895Y1850355D03*
X-5744895Y2250355D03*
X-5744895Y2650355D03*
X-5744895Y3050355D03*
X-5744895Y3450355D03*
X-5744895Y3850355D03*
%TD*%
D49*
%TO.C,L1*%
X2851605Y8700355D03*
X1451605Y8700355D03*
%TD*%
D14*
%TO.C,C8*%
X-9328395Y250355D03*
X-8368395Y250355D03*
%TD*%
%TO.C,C21*%
X-6028395Y-6649645D03*
X-5068395Y-6649645D03*
%TD*%
D16*
%TO.C,R4*%
X3751771Y-10044541D03*
X4771771Y-10044541D03*
%TD*%
D33*
%TO.C,C11*%
X7631605Y550355D03*
X6671605Y550355D03*
%TD*%
D35*
%TO.C,C13*%
X-2148395Y-8729645D03*
X-2148395Y-7769645D03*
%TD*%
M02*
