%TF.GenerationSoftware,KiCad,Pcbnew,9.0.4*%
%TF.CreationDate,2026-02-22T12:05:05+00:00*%
%TF.ProjectId,Lyra Avionics,4c797261-2041-4766-996f-6e6963732e6b,REV3*%
%TF.SameCoordinates,Original*%
%TF.FileFunction,Copper,L3,Inr*%
%TF.FilePolarity,Positive*%
%FSLAX46Y46*%
G04 Gerber Fmt 4.6, Leading zero omitted, Abs format (unit mm)*
G04 Created by KiCad (PCBNEW 9.0.4) date 2026-02-22 12:05:05*
%MOMM*%
%LPD*%
G01*
G04 APERTURE LIST*
%TA.AperFunction,ComponentPad*%
%ADD10C,0.650000*%
%TD*%
%TA.AperFunction,ComponentPad*%
%ADD11O,1.000000X2.100000*%
%TD*%
%TA.AperFunction,ComponentPad*%
%ADD12O,1.000000X1.800000*%
%TD*%
%TA.AperFunction,ComponentPad*%
%ADD13C,2.500000*%
%TD*%
%TA.AperFunction,ComponentPad*%
%ADD14C,0.600000*%
%TD*%
%TA.AperFunction,ViaPad*%
%ADD15C,0.600000*%
%TD*%
G04 APERTURE END LIST*
D10*
%TO.N,*%
%TO.C,U5*%
X2651605Y25050355D03*
X-3138395Y25050355D03*
D11*
%TO.N,GND*%
X4071605Y24550355D03*
X-4568395Y24550355D03*
D12*
X-4568395Y28730355D03*
X4071605Y28730355D03*
%TD*%
D13*
%TO.N,GND*%
%TO.C,U4*%
X1883936Y-26539424D03*
X-3196074Y-26539424D03*
X-3196074Y-21459414D03*
X1883936Y-21459414D03*
%TO.N,Net-(U6-ANT)*%
X-656069Y-23999419D03*
%TD*%
D14*
%TO.N,GND*%
%TO.C,U1*%
X-1981728Y1183688D03*
X-1981728Y50355D03*
X-1981728Y-1082978D03*
X-848395Y1183688D03*
X-848395Y50355D03*
X-848395Y-1082978D03*
X284938Y1183688D03*
X284938Y50355D03*
X284938Y-1082978D03*
%TD*%
D15*
%TO.N,GND*%
X-10000001Y2950681D03*
X4500000Y12500000D03*
X3500000Y11500000D03*
X5321849Y6066067D03*
X-10000000Y-2149645D03*
X8349261Y4359627D03*
X8000000Y-4449645D03*
X3374162Y7044854D03*
X8500000Y550355D03*
X4500000Y11500000D03*
X571950Y-9500000D03*
X3500000Y12500000D03*
X-2140344Y-9504176D03*
X-23830000Y-21050000D03*
X-10000000Y258112D03*
X4500000Y13500000D03*
X4358728Y5155865D03*
X-5883333Y8662320D03*
X3500000Y13500000D03*
X-1848395Y10000000D03*
X8505000Y-449645D03*
%TO.N,+3V3*%
X2343413Y-3343413D03*
X4360219Y9723700D03*
X3258138Y4122777D03*
X-20000000Y-4000000D03*
X10000000Y6000000D03*
X-8325374Y-1330263D03*
X5418690Y11081310D03*
X-7750000Y-20000000D03*
X-4250000Y-20000000D03*
X-11750000Y-500000D03*
X-14108683Y9687083D03*
X-12928327Y2586269D03*
X7999999Y11154180D03*
X-2750000Y14750000D03*
X-3920758Y-17003954D03*
X-17652802Y353026D03*
X9000000Y5000000D03*
X-4527140Y-3809389D03*
X-16652414Y-1341489D03*
X-4425000Y2000000D03*
X-20500000Y500000D03*
X9000000Y6000000D03*
X-3357870Y17211246D03*
X10000000Y5000000D03*
X5000000Y-3749645D03*
X-15690397Y17409005D03*
X519482Y3500000D03*
%TO.N,/GPIO15*%
X-8750003Y-7000000D03*
X-7500000Y-1000000D03*
%TO.N,/GPIO14*%
X-6813374Y-633731D03*
X-8000000Y-7000000D03*
%TO.N,/GPIO5*%
X-13339588Y-2859419D03*
X-14096011Y-1447118D03*
%TO.N,/GPIO17*%
X-20130000Y-22020000D03*
X-19460000Y-18630000D03*
%TD*%
%TA.AperFunction,Conductor*%
%TO.N,+3V3*%
G36*
X16942583Y30199516D02*
G01*
X16942777Y30199500D01*
X16952405Y30199500D01*
X16996519Y30199500D01*
X17003472Y30199305D01*
X17295306Y30182916D01*
X17309103Y30181362D01*
X17572103Y30136676D01*
X17593827Y30132985D01*
X17607384Y30129891D01*
X17884899Y30049940D01*
X17898025Y30045347D01*
X18164841Y29934828D01*
X18177355Y29928802D01*
X18183678Y29925307D01*
X18430125Y29789101D01*
X18441899Y29781703D01*
X18677430Y29614585D01*
X18688302Y29605915D01*
X18903642Y29413476D01*
X18913475Y29403643D01*
X19105914Y29188303D01*
X19114584Y29177431D01*
X19281702Y28941900D01*
X19289100Y28930126D01*
X19428797Y28677363D01*
X19434830Y28664835D01*
X19545346Y28398025D01*
X19549939Y28384900D01*
X19629890Y28107385D01*
X19632984Y28093828D01*
X19681359Y27809115D01*
X19682916Y27795297D01*
X19699305Y27503473D01*
X19699500Y27496520D01*
X19699500Y-25496519D01*
X19699305Y-25503472D01*
X19682916Y-25795296D01*
X19681359Y-25809114D01*
X19632984Y-26093827D01*
X19629890Y-26107384D01*
X19549939Y-26384899D01*
X19545346Y-26398024D01*
X19434830Y-26664834D01*
X19428797Y-26677362D01*
X19289100Y-26930125D01*
X19281702Y-26941899D01*
X19114584Y-27177430D01*
X19105914Y-27188302D01*
X18913475Y-27403642D01*
X18903642Y-27413475D01*
X18688302Y-27605914D01*
X18677430Y-27614584D01*
X18441899Y-27781702D01*
X18430125Y-27789100D01*
X18177362Y-27928797D01*
X18164834Y-27934830D01*
X17898024Y-28045346D01*
X17884899Y-28049939D01*
X17607384Y-28129890D01*
X17593827Y-28132984D01*
X17309114Y-28181359D01*
X17295296Y-28182916D01*
X17003472Y-28199305D01*
X16996519Y-28199500D01*
X-22442405Y-28199500D01*
X-22452403Y-28199499D01*
X-22452405Y-28199499D01*
X-22496521Y-28199499D01*
X-22496522Y-28199498D01*
X-22503472Y-28199304D01*
X-22795297Y-28182915D01*
X-22809115Y-28181358D01*
X-23093828Y-28132983D01*
X-23107385Y-28129889D01*
X-23384900Y-28049938D01*
X-23398025Y-28045345D01*
X-23664835Y-27934829D01*
X-23677363Y-27928796D01*
X-23930125Y-27789099D01*
X-23941899Y-27781701D01*
X-24177430Y-27614583D01*
X-24188302Y-27605913D01*
X-24403647Y-27413469D01*
X-24413479Y-27403636D01*
X-24605910Y-27188307D01*
X-24614581Y-27177435D01*
X-24614585Y-27177430D01*
X-24740157Y-27000451D01*
X-24781702Y-26941898D01*
X-24789100Y-26930124D01*
X-24823780Y-26867375D01*
X-24928802Y-26677354D01*
X-24934831Y-26664832D01*
X-24941122Y-26649645D01*
X-25032431Y-26429202D01*
X-4596574Y-26429202D01*
X-4596574Y-26649645D01*
X-4562089Y-26867376D01*
X-4493971Y-27077027D01*
X-4493970Y-27077030D01*
X-4393887Y-27273449D01*
X-4264322Y-27451782D01*
X-4264318Y-27451787D01*
X-4108438Y-27607667D01*
X-4108433Y-27607671D01*
X-3952882Y-27720684D01*
X-3930096Y-27737239D01*
X-3842835Y-27781701D01*
X-3733681Y-27837319D01*
X-3733678Y-27837320D01*
X-3628853Y-27871379D01*
X-3524025Y-27905439D01*
X-3306296Y-27939924D01*
X-3306295Y-27939924D01*
X-3085853Y-27939924D01*
X-3085852Y-27939924D01*
X-2868123Y-27905439D01*
X-2658468Y-27837319D01*
X-2462052Y-27737239D01*
X-2283709Y-27607666D01*
X-2127832Y-27451789D01*
X-1998259Y-27273446D01*
X-1898179Y-27077030D01*
X-1830059Y-26867375D01*
X-1795574Y-26649646D01*
X-1795574Y-26429202D01*
X483436Y-26429202D01*
X483436Y-26649645D01*
X517921Y-26867376D01*
X586039Y-27077027D01*
X586040Y-27077030D01*
X686123Y-27273449D01*
X815688Y-27451782D01*
X815692Y-27451787D01*
X971572Y-27607667D01*
X971577Y-27607671D01*
X1127128Y-27720684D01*
X1149914Y-27737239D01*
X1237175Y-27781701D01*
X1346329Y-27837319D01*
X1346332Y-27837320D01*
X1451157Y-27871379D01*
X1555985Y-27905439D01*
X1773714Y-27939924D01*
X1773715Y-27939924D01*
X1994157Y-27939924D01*
X1994158Y-27939924D01*
X2211887Y-27905439D01*
X2421542Y-27837319D01*
X2617958Y-27737239D01*
X2796301Y-27607666D01*
X2952178Y-27451789D01*
X3081751Y-27273446D01*
X3181831Y-27077030D01*
X3249951Y-26867375D01*
X3284436Y-26649646D01*
X3284436Y-26429202D01*
X3249951Y-26211473D01*
X3211726Y-26093826D01*
X3181832Y-26001820D01*
X3181831Y-26001817D01*
X3111135Y-25863071D01*
X3081751Y-25805402D01*
X2985535Y-25672971D01*
X2952183Y-25627065D01*
X2952179Y-25627060D01*
X2796299Y-25471180D01*
X2796294Y-25471176D01*
X2668008Y-25377972D01*
X15449499Y-25377972D01*
X15449499Y-25622025D01*
X15478542Y-25805398D01*
X15487678Y-25863075D01*
X15532758Y-26001818D01*
X15563096Y-26095186D01*
X15673895Y-26312641D01*
X15817338Y-26510075D01*
X15817342Y-26510080D01*
X15989917Y-26682655D01*
X15989922Y-26682659D01*
X16162135Y-26807778D01*
X16187360Y-26826105D01*
X16404814Y-26936903D01*
X16636923Y-27012320D01*
X16877972Y-27050499D01*
X16877973Y-27050499D01*
X17122025Y-27050499D01*
X17122026Y-27050499D01*
X17363075Y-27012320D01*
X17595184Y-26936903D01*
X17812638Y-26826105D01*
X18010082Y-26682654D01*
X18182654Y-26510082D01*
X18326105Y-26312638D01*
X18436903Y-26095184D01*
X18512320Y-25863075D01*
X18550499Y-25622026D01*
X18550499Y-25377972D01*
X18512320Y-25136923D01*
X18436903Y-24904814D01*
X18326105Y-24687360D01*
X18216881Y-24537025D01*
X18182659Y-24489922D01*
X18182655Y-24489917D01*
X18010080Y-24317342D01*
X18010075Y-24317338D01*
X17812641Y-24173895D01*
X17812640Y-24173894D01*
X17812638Y-24173893D01*
X17595184Y-24063095D01*
X17363075Y-23987678D01*
X17363073Y-23987677D01*
X17363071Y-23987677D01*
X17194768Y-23961020D01*
X17122026Y-23949499D01*
X16877972Y-23949499D01*
X16822092Y-23958349D01*
X16636926Y-23987677D01*
X16404811Y-24063096D01*
X16187356Y-24173895D01*
X15989922Y-24317338D01*
X15989917Y-24317342D01*
X15817342Y-24489917D01*
X15817338Y-24489922D01*
X15673895Y-24687356D01*
X15563096Y-24904811D01*
X15487677Y-25136926D01*
X15449499Y-25377972D01*
X2668008Y-25377972D01*
X2617961Y-25341611D01*
X2617960Y-25341610D01*
X2617958Y-25341609D01*
X2531025Y-25297314D01*
X2421542Y-25241528D01*
X2421539Y-25241527D01*
X2211888Y-25173409D01*
X2103022Y-25156166D01*
X1994158Y-25138924D01*
X1773714Y-25138924D01*
X1701137Y-25150419D01*
X1555983Y-25173409D01*
X1346332Y-25241527D01*
X1346329Y-25241528D01*
X1149910Y-25341611D01*
X971577Y-25471176D01*
X971572Y-25471180D01*
X815692Y-25627060D01*
X815688Y-25627065D01*
X686123Y-25805398D01*
X586040Y-26001817D01*
X586039Y-26001820D01*
X517921Y-26211471D01*
X483436Y-26429202D01*
X-1795574Y-26429202D01*
X-1830059Y-26211473D01*
X-1868284Y-26093826D01*
X-1898178Y-26001820D01*
X-1898179Y-26001817D01*
X-1968875Y-25863071D01*
X-1998259Y-25805402D01*
X-2094475Y-25672971D01*
X-2127827Y-25627065D01*
X-2127831Y-25627060D01*
X-2283711Y-25471180D01*
X-2283716Y-25471176D01*
X-2462049Y-25341611D01*
X-2462050Y-25341610D01*
X-2462052Y-25341609D01*
X-2548985Y-25297314D01*
X-2658468Y-25241528D01*
X-2658471Y-25241527D01*
X-2868122Y-25173409D01*
X-2976988Y-25156166D01*
X-3085852Y-25138924D01*
X-3306296Y-25138924D01*
X-3378873Y-25150419D01*
X-3524027Y-25173409D01*
X-3733678Y-25241527D01*
X-3733681Y-25241528D01*
X-3930100Y-25341611D01*
X-4108433Y-25471176D01*
X-4108438Y-25471180D01*
X-4264318Y-25627060D01*
X-4264322Y-25627065D01*
X-4393887Y-25805398D01*
X-4493970Y-26001817D01*
X-4493971Y-26001820D01*
X-4562089Y-26211471D01*
X-4596574Y-26429202D01*
X-25032431Y-26429202D01*
X-25045346Y-26398022D01*
X-25049939Y-26384898D01*
X-25129890Y-26107383D01*
X-25132984Y-26093826D01*
X-25146034Y-26017019D01*
X-25181361Y-25809102D01*
X-25182915Y-25795303D01*
X-25199305Y-25503447D01*
X-25199500Y-25496495D01*
X-25199500Y-23889197D01*
X-2056569Y-23889197D01*
X-2056569Y-24109640D01*
X-2022084Y-24327371D01*
X-1953966Y-24537022D01*
X-1953965Y-24537025D01*
X-1853882Y-24733444D01*
X-1724317Y-24911777D01*
X-1724313Y-24911782D01*
X-1568433Y-25067662D01*
X-1568428Y-25067666D01*
X-1412877Y-25180679D01*
X-1390091Y-25197234D01*
X-1261694Y-25262656D01*
X-1193676Y-25297314D01*
X-1193673Y-25297315D01*
X-1088848Y-25331374D01*
X-984020Y-25365434D01*
X-766291Y-25399919D01*
X-766290Y-25399919D01*
X-545848Y-25399919D01*
X-545847Y-25399919D01*
X-328118Y-25365434D01*
X-118463Y-25297314D01*
X77953Y-25197234D01*
X256296Y-25067661D01*
X412173Y-24911784D01*
X541746Y-24733441D01*
X641826Y-24537025D01*
X709946Y-24327370D01*
X744431Y-24109641D01*
X744431Y-23889197D01*
X709946Y-23671468D01*
X641826Y-23461813D01*
X641826Y-23461812D01*
X607168Y-23393794D01*
X541746Y-23265397D01*
X525191Y-23242611D01*
X412178Y-23087060D01*
X412174Y-23087055D01*
X256294Y-22931175D01*
X256289Y-22931171D01*
X77956Y-22801606D01*
X77955Y-22801605D01*
X77953Y-22801604D01*
X-8980Y-22757309D01*
X-118463Y-22701523D01*
X-118466Y-22701522D01*
X-328117Y-22633404D01*
X-436983Y-22616161D01*
X-545847Y-22598919D01*
X-766291Y-22598919D01*
X-838868Y-22610414D01*
X-984022Y-22633404D01*
X-1193673Y-22701522D01*
X-1193676Y-22701523D01*
X-1390095Y-22801606D01*
X-1568428Y-22931171D01*
X-1568433Y-22931175D01*
X-1724313Y-23087055D01*
X-1724317Y-23087060D01*
X-1853882Y-23265393D01*
X-1953965Y-23461812D01*
X-1953966Y-23461815D01*
X-2022084Y-23671466D01*
X-2056569Y-23889197D01*
X-25199500Y-23889197D01*
X-25199500Y-21960691D01*
X-20580500Y-21960691D01*
X-20580500Y-22079309D01*
X-20549799Y-22193886D01*
X-20490489Y-22296613D01*
X-20406613Y-22380489D01*
X-20303886Y-22439799D01*
X-20189309Y-22470500D01*
X-20189306Y-22470500D01*
X-20070694Y-22470500D01*
X-20070691Y-22470500D01*
X-19956114Y-22439799D01*
X-19853387Y-22380489D01*
X-19769511Y-22296613D01*
X-19710201Y-22193886D01*
X-19679500Y-22079309D01*
X-19679500Y-21960691D01*
X-19710201Y-21846114D01*
X-19769511Y-21743387D01*
X-19853387Y-21659511D01*
X-19956114Y-21600201D01*
X-20070691Y-21569500D01*
X-20189309Y-21569500D01*
X-20303886Y-21600201D01*
X-20303888Y-21600201D01*
X-20303888Y-21600202D01*
X-20406613Y-21659511D01*
X-20406616Y-21659513D01*
X-20490487Y-21743384D01*
X-20490489Y-21743387D01*
X-20549799Y-21846114D01*
X-20580500Y-21960691D01*
X-25199500Y-21960691D01*
X-25199500Y-20990691D01*
X-24280500Y-20990691D01*
X-24280500Y-21109309D01*
X-24249799Y-21223886D01*
X-24190489Y-21326613D01*
X-24106613Y-21410489D01*
X-24003886Y-21469799D01*
X-23889309Y-21500500D01*
X-23889306Y-21500500D01*
X-23770694Y-21500500D01*
X-23770691Y-21500500D01*
X-23656114Y-21469799D01*
X-23553387Y-21410489D01*
X-23492090Y-21349192D01*
X-4596574Y-21349192D01*
X-4596574Y-21569635D01*
X-4562089Y-21787366D01*
X-4493971Y-21997017D01*
X-4493970Y-21997020D01*
X-4393887Y-22193439D01*
X-4264322Y-22371772D01*
X-4264318Y-22371777D01*
X-4108438Y-22527657D01*
X-4108433Y-22527661D01*
X-3952882Y-22640674D01*
X-3930096Y-22657229D01*
X-3801699Y-22722651D01*
X-3733681Y-22757309D01*
X-3733678Y-22757310D01*
X-3628853Y-22791369D01*
X-3524025Y-22825429D01*
X-3306296Y-22859914D01*
X-3306295Y-22859914D01*
X-3085853Y-22859914D01*
X-3085852Y-22859914D01*
X-2868123Y-22825429D01*
X-2658468Y-22757309D01*
X-2462052Y-22657229D01*
X-2283709Y-22527656D01*
X-2127832Y-22371779D01*
X-1998259Y-22193436D01*
X-1898179Y-21997020D01*
X-1830059Y-21787365D01*
X-1795574Y-21569636D01*
X-1795574Y-21349192D01*
X483436Y-21349192D01*
X483436Y-21569635D01*
X517921Y-21787366D01*
X586039Y-21997017D01*
X586040Y-21997020D01*
X686123Y-22193439D01*
X815688Y-22371772D01*
X815692Y-22371777D01*
X971572Y-22527657D01*
X971577Y-22527661D01*
X1127128Y-22640674D01*
X1149914Y-22657229D01*
X1278311Y-22722651D01*
X1346329Y-22757309D01*
X1346332Y-22757310D01*
X1451157Y-22791369D01*
X1555985Y-22825429D01*
X1773714Y-22859914D01*
X1773715Y-22859914D01*
X1994157Y-22859914D01*
X1994158Y-22859914D01*
X2211887Y-22825429D01*
X2421542Y-22757309D01*
X2617958Y-22657229D01*
X2796301Y-22527656D01*
X2952178Y-22371779D01*
X3081751Y-22193436D01*
X3181831Y-21997020D01*
X3249951Y-21787365D01*
X3284436Y-21569636D01*
X3284436Y-21349192D01*
X3249951Y-21131463D01*
X3181831Y-20921808D01*
X3181831Y-20921807D01*
X3147173Y-20853789D01*
X3081751Y-20725392D01*
X2990286Y-20599500D01*
X2952183Y-20547055D01*
X2952179Y-20547050D01*
X2796299Y-20391170D01*
X2796294Y-20391166D01*
X2617961Y-20261601D01*
X2617960Y-20261600D01*
X2617958Y-20261599D01*
X2555032Y-20229536D01*
X2421542Y-20161518D01*
X2421539Y-20161517D01*
X2211888Y-20093399D01*
X2103022Y-20076156D01*
X1994158Y-20058914D01*
X1773714Y-20058914D01*
X1701137Y-20070409D01*
X1555983Y-20093399D01*
X1346332Y-20161517D01*
X1346329Y-20161518D01*
X1149910Y-20261601D01*
X971577Y-20391166D01*
X971572Y-20391170D01*
X815692Y-20547050D01*
X815688Y-20547055D01*
X686123Y-20725388D01*
X586040Y-20921807D01*
X586039Y-20921810D01*
X517921Y-21131461D01*
X483436Y-21349192D01*
X-1795574Y-21349192D01*
X-1830059Y-21131463D01*
X-1898179Y-20921808D01*
X-1898179Y-20921807D01*
X-1932837Y-20853789D01*
X-1998259Y-20725392D01*
X-2089724Y-20599500D01*
X-2127827Y-20547055D01*
X-2127831Y-20547050D01*
X-2283711Y-20391170D01*
X-2283716Y-20391166D01*
X-2462049Y-20261601D01*
X-2462050Y-20261600D01*
X-2462052Y-20261599D01*
X-2524978Y-20229536D01*
X-2658468Y-20161518D01*
X-2658471Y-20161517D01*
X-2868122Y-20093399D01*
X-2976988Y-20076156D01*
X-3085852Y-20058914D01*
X-3306296Y-20058914D01*
X-3378873Y-20070409D01*
X-3524027Y-20093399D01*
X-3733678Y-20161517D01*
X-3733681Y-20161518D01*
X-3930100Y-20261601D01*
X-4108433Y-20391166D01*
X-4108438Y-20391170D01*
X-4264318Y-20547050D01*
X-4264322Y-20547055D01*
X-4393887Y-20725388D01*
X-4493970Y-20921807D01*
X-4493971Y-20921810D01*
X-4562089Y-21131461D01*
X-4596574Y-21349192D01*
X-23492090Y-21349192D01*
X-23469511Y-21326613D01*
X-23410201Y-21223886D01*
X-23379500Y-21109309D01*
X-23379500Y-20990691D01*
X-23410201Y-20876114D01*
X-23469511Y-20773387D01*
X-23553387Y-20689511D01*
X-23656114Y-20630201D01*
X-23770691Y-20599500D01*
X-23889309Y-20599500D01*
X-24003886Y-20630201D01*
X-24003888Y-20630201D01*
X-24003888Y-20630202D01*
X-24106613Y-20689511D01*
X-24106616Y-20689513D01*
X-24190487Y-20773384D01*
X-24190489Y-20773387D01*
X-24249799Y-20876114D01*
X-24280500Y-20990691D01*
X-25199500Y-20990691D01*
X-25199500Y-18570691D01*
X-19910500Y-18570691D01*
X-19910500Y-18689309D01*
X-19879799Y-18803886D01*
X-19820489Y-18906613D01*
X-19736613Y-18990489D01*
X-19633886Y-19049799D01*
X-19519309Y-19080500D01*
X-19519306Y-19080500D01*
X-19400694Y-19080500D01*
X-19400691Y-19080500D01*
X-19286114Y-19049799D01*
X-19183387Y-18990489D01*
X-19099511Y-18906613D01*
X-19040201Y-18803886D01*
X-19009500Y-18689309D01*
X-19009500Y-18570691D01*
X-19040201Y-18456114D01*
X-19099511Y-18353387D01*
X-19183387Y-18269511D01*
X-19286114Y-18210201D01*
X-19400691Y-18179500D01*
X-19519309Y-18179500D01*
X-19633886Y-18210201D01*
X-19633888Y-18210201D01*
X-19633888Y-18210202D01*
X-19736613Y-18269511D01*
X-19736616Y-18269513D01*
X-19820487Y-18353384D01*
X-19820489Y-18353387D01*
X-19879799Y-18456114D01*
X-19910500Y-18570691D01*
X-25199500Y-18570691D01*
X-25199500Y-9444867D01*
X-2590844Y-9444867D01*
X-2590844Y-9563485D01*
X-2560143Y-9678062D01*
X-2500833Y-9780789D01*
X-2416957Y-9864665D01*
X-2314230Y-9923975D01*
X-2199653Y-9954676D01*
X-2199650Y-9954676D01*
X-2081038Y-9954676D01*
X-2081035Y-9954676D01*
X-1966458Y-9923975D01*
X-1863731Y-9864665D01*
X-1779855Y-9780789D01*
X-1720545Y-9678062D01*
X-1689844Y-9563485D01*
X-1689844Y-9444867D01*
X-1690963Y-9440691D01*
X121450Y-9440691D01*
X121450Y-9559309D01*
X152151Y-9673886D01*
X211461Y-9776613D01*
X295337Y-9860489D01*
X398064Y-9919799D01*
X512641Y-9950500D01*
X512644Y-9950500D01*
X631256Y-9950500D01*
X631259Y-9950500D01*
X745836Y-9919799D01*
X848563Y-9860489D01*
X932439Y-9776613D01*
X991749Y-9673886D01*
X1022450Y-9559309D01*
X1022450Y-9440691D01*
X991749Y-9326114D01*
X932439Y-9223387D01*
X848563Y-9139511D01*
X745836Y-9080201D01*
X631259Y-9049500D01*
X512641Y-9049500D01*
X398064Y-9080201D01*
X398062Y-9080201D01*
X398062Y-9080202D01*
X295337Y-9139511D01*
X295334Y-9139513D01*
X211463Y-9223384D01*
X211461Y-9223387D01*
X152151Y-9326114D01*
X121450Y-9440691D01*
X-1690963Y-9440691D01*
X-1720545Y-9330290D01*
X-1779855Y-9227563D01*
X-1863731Y-9143687D01*
X-1966458Y-9084377D01*
X-2081035Y-9053676D01*
X-2199653Y-9053676D01*
X-2314230Y-9084377D01*
X-2314232Y-9084377D01*
X-2314232Y-9084378D01*
X-2416957Y-9143687D01*
X-2416960Y-9143689D01*
X-2500831Y-9227560D01*
X-2500833Y-9227563D01*
X-2560143Y-9330290D01*
X-2590844Y-9444867D01*
X-25199500Y-9444867D01*
X-25199500Y-8655043D01*
X-25199450Y-8651538D01*
X-25199259Y-8644784D01*
X-25197865Y-8595496D01*
X-25197372Y-8587413D01*
X-25174531Y-8344889D01*
X-25171843Y-8328389D01*
X-25134295Y-8167296D01*
X-25127777Y-8147240D01*
X-25083747Y-8042907D01*
X-25071601Y-8020747D01*
X-25026884Y-7955886D01*
X-25008212Y-7934527D01*
X-25007956Y-7934295D01*
X-24951005Y-7882523D01*
X-24933496Y-7869239D01*
X-24915095Y-7857697D01*
X-24902475Y-7850770D01*
X-24867099Y-7833953D01*
X-24854242Y-7828704D01*
X-24848055Y-7826573D01*
X-24808619Y-7812993D01*
X-24796110Y-7809409D01*
X-24739826Y-7796443D01*
X-24727971Y-7794314D01*
X-24655220Y-7784880D01*
X-24644288Y-7783954D01*
X-24555622Y-7780384D01*
X-24549199Y-7780126D01*
X-24544212Y-7780026D01*
X-20317969Y-7780026D01*
X-20317966Y-7780027D01*
X-20270371Y-7780026D01*
X-20230814Y-7780026D01*
X-20220837Y-7780026D01*
X-20220808Y-7780022D01*
X-20152361Y-7780022D01*
X-19918361Y-7749212D01*
X-19690383Y-7688123D01*
X-19472330Y-7597801D01*
X-19267931Y-7479789D01*
X-19080684Y-7336109D01*
X-18913792Y-7169218D01*
X-18770112Y-6981971D01*
X-18746279Y-6940691D01*
X-9200503Y-6940691D01*
X-9200503Y-7059309D01*
X-9169802Y-7173886D01*
X-9110492Y-7276613D01*
X-9026616Y-7360489D01*
X-8923889Y-7419799D01*
X-8809312Y-7450500D01*
X-8809309Y-7450500D01*
X-8690697Y-7450500D01*
X-8690694Y-7450500D01*
X-8576117Y-7419799D01*
X-8473390Y-7360489D01*
X-8462682Y-7349780D01*
X-8401364Y-7316297D01*
X-8331672Y-7321279D01*
X-8287321Y-7349781D01*
X-8276613Y-7360489D01*
X-8173886Y-7419799D01*
X-8059309Y-7450500D01*
X-8059306Y-7450500D01*
X-7940694Y-7450500D01*
X-7940691Y-7450500D01*
X-7826114Y-7419799D01*
X-7723387Y-7360489D01*
X-7639511Y-7276613D01*
X-7580201Y-7173886D01*
X-7549500Y-7059309D01*
X-7549500Y-6940691D01*
X-7580201Y-6826114D01*
X-7639511Y-6723387D01*
X-7723387Y-6639511D01*
X-7826114Y-6580201D01*
X-7940691Y-6549500D01*
X-8059309Y-6549500D01*
X-8173886Y-6580201D01*
X-8173888Y-6580201D01*
X-8173888Y-6580202D01*
X-8276613Y-6639511D01*
X-8276614Y-6639511D01*
X-8287323Y-6650221D01*
X-8348648Y-6683704D01*
X-8418339Y-6678717D01*
X-8462683Y-6650218D01*
X-8473388Y-6639513D01*
X-8473390Y-6639511D01*
X-8576117Y-6580201D01*
X-8690694Y-6549500D01*
X-8809312Y-6549500D01*
X-8923889Y-6580201D01*
X-8923891Y-6580201D01*
X-8923891Y-6580202D01*
X-9026616Y-6639511D01*
X-9026619Y-6639513D01*
X-9110490Y-6723384D01*
X-9110492Y-6723387D01*
X-9143193Y-6780027D01*
X-9169802Y-6826114D01*
X-9200503Y-6940691D01*
X-18746279Y-6940691D01*
X-18652101Y-6777572D01*
X-18561778Y-6559519D01*
X-18500688Y-6331542D01*
X-18469878Y-6097541D01*
X-18469877Y-6019090D01*
X-18469876Y-6019088D01*
X-18469876Y-5967339D01*
X-18469875Y-5931937D01*
X-18469876Y-5931933D01*
X-18469876Y-4939964D01*
X-18469876Y-4895390D01*
X-18504862Y-4730795D01*
X-18573304Y-4577072D01*
X-18672212Y-4440937D01*
X-18728410Y-4390336D01*
X7549500Y-4390336D01*
X7549500Y-4508954D01*
X7580201Y-4623531D01*
X7639511Y-4726258D01*
X7723387Y-4810134D01*
X7826114Y-4869444D01*
X7940691Y-4900145D01*
X7940694Y-4900145D01*
X8059306Y-4900145D01*
X8059309Y-4900145D01*
X8173886Y-4869444D01*
X8276613Y-4810134D01*
X8360489Y-4726258D01*
X8419799Y-4623531D01*
X8450500Y-4508954D01*
X8450500Y-4390336D01*
X8419799Y-4275759D01*
X8360489Y-4173032D01*
X8276613Y-4089156D01*
X8173886Y-4029846D01*
X8059309Y-3999145D01*
X7940691Y-3999145D01*
X7826114Y-4029846D01*
X7826112Y-4029846D01*
X7826112Y-4029847D01*
X7723387Y-4089156D01*
X7723384Y-4089158D01*
X7639513Y-4173029D01*
X7639511Y-4173032D01*
X7580201Y-4275759D01*
X7549500Y-4390336D01*
X-18728410Y-4390336D01*
X-18797262Y-4328341D01*
X-18942990Y-4244205D01*
X-18942996Y-4244202D01*
X-19103023Y-4192207D01*
X-19103026Y-4192206D01*
X-19270376Y-4174617D01*
X-19437726Y-4192206D01*
X-19437729Y-4192206D01*
X-19437730Y-4192207D01*
X-19597757Y-4244202D01*
X-19597763Y-4244205D01*
X-19743489Y-4328340D01*
X-19868539Y-4440935D01*
X-19967449Y-4577072D01*
X-20035889Y-4730790D01*
X-20035891Y-4730795D01*
X-20070876Y-4895390D01*
X-20070876Y-5473420D01*
X-20071473Y-5485577D01*
X-20083123Y-5603832D01*
X-20087866Y-5627673D01*
X-20120583Y-5735517D01*
X-20129885Y-5757973D01*
X-20183014Y-5857369D01*
X-20196519Y-5877580D01*
X-20268015Y-5964698D01*
X-20285203Y-5981886D01*
X-20372321Y-6053382D01*
X-20392532Y-6066887D01*
X-20491927Y-6120016D01*
X-20514384Y-6129318D01*
X-20622229Y-6162034D01*
X-20646069Y-6166777D01*
X-20764076Y-6178402D01*
X-20776729Y-6178998D01*
X-22971630Y-6170222D01*
X-22971673Y-6170222D01*
X-22981739Y-6170178D01*
X-22982308Y-6169994D01*
X-23024150Y-6169994D01*
X-23024380Y-6169993D01*
X-23024482Y-6169962D01*
X-23035925Y-6169404D01*
X-23153521Y-6157889D01*
X-23177229Y-6153201D01*
X-23284526Y-6120853D01*
X-23306875Y-6111655D01*
X-23405857Y-6059110D01*
X-23425997Y-6045753D01*
X-23512911Y-5975003D01*
X-23530077Y-5957993D01*
X-23601617Y-5871727D01*
X-23615157Y-5851710D01*
X-23651863Y-5784063D01*
X-23668604Y-5753209D01*
X-23678003Y-5730952D01*
X-23711332Y-5623943D01*
X-23716233Y-5600290D01*
X-23725606Y-5512814D01*
X-23728697Y-5483953D01*
X-23729403Y-5470743D01*
X-23729396Y-4508954D01*
X-23729385Y-2800110D01*
X-13790088Y-2800110D01*
X-13790088Y-2918728D01*
X-13759387Y-3033305D01*
X-13700077Y-3136032D01*
X-13616201Y-3219908D01*
X-13513474Y-3279218D01*
X-13398897Y-3309919D01*
X-13398894Y-3309919D01*
X-13280282Y-3309919D01*
X-13280279Y-3309919D01*
X-13165702Y-3279218D01*
X-13062975Y-3219908D01*
X-12979099Y-3136032D01*
X-12919789Y-3033305D01*
X-12889088Y-2918728D01*
X-12889088Y-2800110D01*
X-12919789Y-2685533D01*
X-12979099Y-2582806D01*
X-13062975Y-2498930D01*
X-13165702Y-2439620D01*
X-13280279Y-2408919D01*
X-13398897Y-2408919D01*
X-13513474Y-2439620D01*
X-13513476Y-2439620D01*
X-13513476Y-2439621D01*
X-13616201Y-2498930D01*
X-13616204Y-2498932D01*
X-13700075Y-2582803D01*
X-13700077Y-2582806D01*
X-13759387Y-2685533D01*
X-13790088Y-2800110D01*
X-23729385Y-2800110D01*
X-23729380Y-2090336D01*
X-10450500Y-2090336D01*
X-10450500Y-2208954D01*
X-10419799Y-2323531D01*
X-10360489Y-2426258D01*
X-10276613Y-2510134D01*
X-10173886Y-2569444D01*
X-10059309Y-2600145D01*
X-10059306Y-2600145D01*
X-9940694Y-2600145D01*
X-9940691Y-2600145D01*
X-9826114Y-2569444D01*
X-9723387Y-2510134D01*
X-9639511Y-2426258D01*
X-9580201Y-2323531D01*
X-9549500Y-2208954D01*
X-9549500Y-2090336D01*
X-9580201Y-1975759D01*
X-9639511Y-1873032D01*
X-9723387Y-1789156D01*
X-9826114Y-1729846D01*
X-9940691Y-1699145D01*
X-10059309Y-1699145D01*
X-10173886Y-1729846D01*
X-10173888Y-1729846D01*
X-10173888Y-1729847D01*
X-10276613Y-1789156D01*
X-10276616Y-1789158D01*
X-10360487Y-1873029D01*
X-10360489Y-1873032D01*
X-10419799Y-1975759D01*
X-10450500Y-2090336D01*
X-23729380Y-2090336D01*
X-23729376Y-1387809D01*
X-14546511Y-1387809D01*
X-14546511Y-1506427D01*
X-14515810Y-1621004D01*
X-14456500Y-1723731D01*
X-14372624Y-1807607D01*
X-14269897Y-1866917D01*
X-14155320Y-1897618D01*
X-14155317Y-1897618D01*
X-14036705Y-1897618D01*
X-14036702Y-1897618D01*
X-13922125Y-1866917D01*
X-13819398Y-1807607D01*
X-13735522Y-1723731D01*
X-13676212Y-1621004D01*
X-13645511Y-1506427D01*
X-13645511Y-1387809D01*
X-13676212Y-1273232D01*
X-13735522Y-1170505D01*
X-13819398Y-1086629D01*
X-13922125Y-1027319D01*
X-14036702Y-996618D01*
X-14155320Y-996618D01*
X-14269897Y-1027319D01*
X-14269899Y-1027319D01*
X-14269899Y-1027320D01*
X-14372624Y-1086629D01*
X-14372627Y-1086631D01*
X-14456498Y-1170502D01*
X-14456500Y-1170505D01*
X-14506360Y-1256865D01*
X-14515810Y-1273232D01*
X-14546511Y-1387809D01*
X-23729376Y-1387809D01*
X-23729373Y-940691D01*
X-7950500Y-940691D01*
X-7950500Y-1059309D01*
X-7919799Y-1173886D01*
X-7860489Y-1276613D01*
X-7776613Y-1360489D01*
X-7673886Y-1419799D01*
X-7559309Y-1450500D01*
X-7559306Y-1450500D01*
X-7440694Y-1450500D01*
X-7440691Y-1450500D01*
X-7326114Y-1419799D01*
X-7223387Y-1360489D01*
X-7139511Y-1276613D01*
X-7080201Y-1173886D01*
X-7075980Y-1158132D01*
X-7039619Y-1098474D01*
X-6976773Y-1067943D01*
X-6924115Y-1070449D01*
X-6872683Y-1084231D01*
X-6872681Y-1084231D01*
X-6754068Y-1084231D01*
X-6754065Y-1084231D01*
X-6639488Y-1053530D01*
X-6587768Y-1023669D01*
X-2432228Y-1023669D01*
X-2432228Y-1142287D01*
X-2401527Y-1256864D01*
X-2342217Y-1359591D01*
X-2258341Y-1443467D01*
X-2155614Y-1502777D01*
X-2041037Y-1533478D01*
X-2041034Y-1533478D01*
X-1922422Y-1533478D01*
X-1922419Y-1533478D01*
X-1807842Y-1502777D01*
X-1705115Y-1443467D01*
X-1621239Y-1359591D01*
X-1561929Y-1256864D01*
X-1531228Y-1142287D01*
X-1531228Y-1023669D01*
X-1298895Y-1023669D01*
X-1298895Y-1142287D01*
X-1268194Y-1256864D01*
X-1208884Y-1359591D01*
X-1125008Y-1443467D01*
X-1022281Y-1502777D01*
X-907704Y-1533478D01*
X-907701Y-1533478D01*
X-789089Y-1533478D01*
X-789086Y-1533478D01*
X-674509Y-1502777D01*
X-571782Y-1443467D01*
X-487906Y-1359591D01*
X-428596Y-1256864D01*
X-397895Y-1142287D01*
X-397895Y-1023669D01*
X-165562Y-1023669D01*
X-165562Y-1142287D01*
X-134861Y-1256864D01*
X-75551Y-1359591D01*
X8325Y-1443467D01*
X111052Y-1502777D01*
X225629Y-1533478D01*
X225632Y-1533478D01*
X344244Y-1533478D01*
X344247Y-1533478D01*
X458824Y-1502777D01*
X561551Y-1443467D01*
X645427Y-1359591D01*
X704737Y-1256864D01*
X735438Y-1142287D01*
X735438Y-1023669D01*
X704737Y-909092D01*
X645427Y-806365D01*
X561551Y-722489D01*
X458824Y-663179D01*
X344247Y-632478D01*
X225629Y-632478D01*
X196396Y-640311D01*
X111050Y-663179D01*
X8325Y-722489D01*
X8322Y-722491D01*
X-75549Y-806362D01*
X-75551Y-806365D01*
X-134861Y-909090D01*
X-143328Y-940691D01*
X-165562Y-1023669D01*
X-397895Y-1023669D01*
X-428596Y-909092D01*
X-487906Y-806365D01*
X-571782Y-722489D01*
X-674509Y-663179D01*
X-789086Y-632478D01*
X-907704Y-632478D01*
X-936937Y-640311D01*
X-1022283Y-663179D01*
X-1125008Y-722489D01*
X-1125011Y-722491D01*
X-1208882Y-806362D01*
X-1208884Y-806365D01*
X-1268194Y-909090D01*
X-1276661Y-940691D01*
X-1298895Y-1023669D01*
X-1531228Y-1023669D01*
X-1561929Y-909092D01*
X-1621239Y-806365D01*
X-1705115Y-722489D01*
X-1807842Y-663179D01*
X-1922419Y-632478D01*
X-2041037Y-632478D01*
X-2070270Y-640311D01*
X-2155616Y-663179D01*
X-2258341Y-722489D01*
X-2258344Y-722491D01*
X-2342215Y-806362D01*
X-2342217Y-806365D01*
X-2396361Y-900145D01*
X-2401527Y-909092D01*
X-2432228Y-1023669D01*
X-6587768Y-1023669D01*
X-6536761Y-994220D01*
X-6452885Y-910344D01*
X-6393575Y-807617D01*
X-6362874Y-693040D01*
X-6362874Y-574422D01*
X-6393575Y-459845D01*
X-6452885Y-357118D01*
X-6536761Y-273242D01*
X-6639488Y-213932D01*
X-6754065Y-183231D01*
X-6872683Y-183231D01*
X-6987260Y-213932D01*
X-6987262Y-213932D01*
X-6987262Y-213933D01*
X-7089987Y-273242D01*
X-7089990Y-273244D01*
X-7173861Y-357115D01*
X-7173863Y-357118D01*
X-7233174Y-459845D01*
X-7233174Y-459846D01*
X-7237395Y-475600D01*
X-7273760Y-535260D01*
X-7336608Y-565788D01*
X-7389261Y-563280D01*
X-7440690Y-549500D01*
X-7440691Y-549500D01*
X-7559309Y-549500D01*
X-7673886Y-580201D01*
X-7673888Y-580201D01*
X-7673888Y-580202D01*
X-7776613Y-639511D01*
X-7776616Y-639513D01*
X-7860487Y-723384D01*
X-7860489Y-723387D01*
X-7919799Y-826114D01*
X-7950500Y-940691D01*
X-23729373Y-940691D01*
X-23729357Y1511206D01*
X-23728651Y1524390D01*
X-23715992Y1642447D01*
X-23711091Y1666092D01*
X-23677383Y1774289D01*
X-23667983Y1796545D01*
X-23613935Y1896140D01*
X-23600399Y1916147D01*
X-23528059Y2003368D01*
X-23510899Y2020371D01*
X-23423011Y2091908D01*
X-23402878Y2105259D01*
X-23302792Y2158386D01*
X-23280449Y2167580D01*
X-23215102Y2187281D01*
X-23171958Y2200287D01*
X-23148262Y2204973D01*
X-23029370Y2216614D01*
X-23017450Y2217202D01*
X-23012471Y2217207D01*
X-23012325Y2217207D01*
X-22966390Y2217207D01*
X-22965678Y2217266D01*
X-20776544Y2219967D01*
X-20764256Y2219371D01*
X-20646070Y2207727D01*
X-20622241Y2202986D01*
X-20514394Y2170269D01*
X-20491938Y2160966D01*
X-20392549Y2107839D01*
X-20372344Y2094338D01*
X-20285225Y2022838D01*
X-20268039Y2005651D01*
X-20241148Y1972882D01*
X-20196547Y1918534D01*
X-20183043Y1898322D01*
X-20129923Y1798937D01*
X-20120620Y1776478D01*
X-20087907Y1668628D01*
X-20083166Y1644786D01*
X-20071474Y1526035D01*
X-20070877Y1513885D01*
X-20070877Y1462900D01*
X-20070876Y1462887D01*
X-20070876Y1068069D01*
X-20070876Y1020474D01*
X-20070876Y936338D01*
X-20064656Y907076D01*
X-20046355Y820974D01*
X-20035890Y771743D01*
X-19967448Y618019D01*
X-19868540Y481885D01*
X-19868539Y481884D01*
X-19868538Y481883D01*
X-19868536Y481880D01*
X-19792469Y413390D01*
X-19743490Y369289D01*
X-19597762Y285153D01*
X-19597760Y285153D01*
X-19597757Y285151D01*
X-19562646Y273743D01*
X-19437726Y233154D01*
X-19270376Y215565D01*
X-19103026Y233154D01*
X-18942990Y285153D01*
X-18887100Y317421D01*
X-10450500Y317421D01*
X-10450500Y198803D01*
X-10419799Y84226D01*
X-10360489Y-18501D01*
X-10276613Y-102377D01*
X-10173886Y-161687D01*
X-10059309Y-192388D01*
X-10059306Y-192388D01*
X-9940694Y-192388D01*
X-9940691Y-192388D01*
X-9826114Y-161687D01*
X-9723387Y-102377D01*
X-9639511Y-18501D01*
X-9580201Y84226D01*
X-9573385Y109664D01*
X-2432228Y109664D01*
X-2432228Y-8954D01*
X-2401527Y-123531D01*
X-2342217Y-226258D01*
X-2258341Y-310134D01*
X-2155614Y-369444D01*
X-2041037Y-400145D01*
X-1922419Y-400145D01*
X-1807842Y-369444D01*
X-1705115Y-310134D01*
X-1621239Y-226258D01*
X-1561929Y-123531D01*
X-1531228Y-8954D01*
X-1531228Y109664D01*
X-1298895Y109664D01*
X-1298895Y-8954D01*
X-1268194Y-123531D01*
X-1208884Y-226258D01*
X-1125008Y-310134D01*
X-1022281Y-369444D01*
X-907704Y-400145D01*
X-789086Y-400145D01*
X-674509Y-369444D01*
X-571782Y-310134D01*
X-487906Y-226258D01*
X-428596Y-123531D01*
X-397895Y-8954D01*
X-397895Y109664D01*
X-165562Y109664D01*
X-165562Y-8954D01*
X-134861Y-123531D01*
X-75551Y-226258D01*
X8325Y-310134D01*
X111052Y-369444D01*
X225629Y-400145D01*
X344247Y-400145D01*
X458824Y-369444D01*
X561551Y-310134D01*
X645427Y-226258D01*
X704737Y-123531D01*
X735438Y-8954D01*
X735438Y109664D01*
X704737Y224241D01*
X645427Y326968D01*
X561551Y410844D01*
X458824Y470154D01*
X344247Y500855D01*
X225629Y500855D01*
X196396Y493022D01*
X111050Y470154D01*
X8325Y410844D01*
X8322Y410842D01*
X-75549Y326971D01*
X-75551Y326968D01*
X-134861Y224243D01*
X-144071Y189869D01*
X-165562Y109664D01*
X-397895Y109664D01*
X-428596Y224241D01*
X-487906Y326968D01*
X-571782Y410844D01*
X-674509Y470154D01*
X-789086Y500855D01*
X-907704Y500855D01*
X-936937Y493022D01*
X-1022283Y470154D01*
X-1125008Y410844D01*
X-1125011Y410842D01*
X-1208882Y326971D01*
X-1208884Y326968D01*
X-1268194Y224243D01*
X-1277404Y189869D01*
X-1298895Y109664D01*
X-1531228Y109664D01*
X-1561929Y224241D01*
X-1621239Y326968D01*
X-1705115Y410844D01*
X-1807842Y470154D01*
X-1922419Y500855D01*
X-2041037Y500855D01*
X-2070270Y493022D01*
X-2155616Y470154D01*
X-2258341Y410844D01*
X-2258344Y410842D01*
X-2342215Y326971D01*
X-2342217Y326968D01*
X-2372948Y273740D01*
X-2401527Y224241D01*
X-2432228Y109664D01*
X-9573385Y109664D01*
X-9549500Y198803D01*
X-9549500Y317421D01*
X-9580201Y431998D01*
X-9639511Y534725D01*
X-9714450Y609664D01*
X8049500Y609664D01*
X8049500Y491046D01*
X8080201Y376469D01*
X8139511Y273742D01*
X8223387Y189866D01*
X8281527Y156298D01*
X8329742Y105732D01*
X8342964Y37124D01*
X8316996Y-27740D01*
X8281528Y-58474D01*
X8228390Y-89154D01*
X8228384Y-89158D01*
X8144513Y-173029D01*
X8144511Y-173032D01*
X8113780Y-226260D01*
X8085201Y-275759D01*
X8054500Y-390336D01*
X8054500Y-508954D01*
X8085201Y-623531D01*
X8144511Y-726258D01*
X8228387Y-810134D01*
X8331114Y-869444D01*
X8445691Y-900145D01*
X8445694Y-900145D01*
X8564306Y-900145D01*
X8564309Y-900145D01*
X8678886Y-869444D01*
X8781613Y-810134D01*
X8865489Y-726258D01*
X8924799Y-623531D01*
X8955500Y-508954D01*
X8955500Y-390336D01*
X8924799Y-275759D01*
X8865489Y-173032D01*
X8781613Y-89156D01*
X8723471Y-55587D01*
X8675257Y-5020D01*
X8662035Y63587D01*
X8688003Y128452D01*
X8723470Y159184D01*
X8776613Y189866D01*
X8860489Y273742D01*
X8919799Y376469D01*
X8950500Y491046D01*
X8950500Y609664D01*
X8919799Y724241D01*
X8860489Y826968D01*
X8776613Y910844D01*
X8673886Y970154D01*
X8559309Y1000855D01*
X8440691Y1000855D01*
X8326114Y970154D01*
X8326112Y970154D01*
X8326112Y970153D01*
X8223387Y910844D01*
X8223384Y910842D01*
X8139513Y826971D01*
X8139511Y826968D01*
X8085367Y733188D01*
X8080201Y724241D01*
X8049500Y609664D01*
X-9714450Y609664D01*
X-9723387Y618601D01*
X-9826114Y677911D01*
X-9940691Y708612D01*
X-10059309Y708612D01*
X-10173886Y677911D01*
X-10173888Y677911D01*
X-10173888Y677910D01*
X-10276613Y618601D01*
X-10276616Y618599D01*
X-10360487Y534728D01*
X-10360489Y534725D01*
X-10397769Y470154D01*
X-10419799Y431998D01*
X-10450500Y317421D01*
X-18887100Y317421D01*
X-18797262Y369289D01*
X-18751113Y410842D01*
X-18743498Y417698D01*
X-18672217Y481880D01*
X-18672217Y481882D01*
X-18672212Y481885D01*
X-18573304Y618019D01*
X-18504862Y771743D01*
X-18469876Y936338D01*
X-18469876Y1020474D01*
X-18469876Y1068069D01*
X-18469876Y1242997D01*
X-2432228Y1242997D01*
X-2432228Y1124379D01*
X-2401527Y1009802D01*
X-2342217Y907075D01*
X-2258341Y823199D01*
X-2155614Y763889D01*
X-2041037Y733188D01*
X-1922419Y733188D01*
X-1807842Y763889D01*
X-1705115Y823199D01*
X-1621239Y907075D01*
X-1561929Y1009802D01*
X-1531228Y1124379D01*
X-1531228Y1242997D01*
X-1298895Y1242997D01*
X-1298895Y1124379D01*
X-1268194Y1009802D01*
X-1208884Y907075D01*
X-1125008Y823199D01*
X-1022281Y763889D01*
X-907704Y733188D01*
X-789086Y733188D01*
X-674509Y763889D01*
X-571782Y823199D01*
X-487906Y907075D01*
X-428596Y1009802D01*
X-397895Y1124379D01*
X-397895Y1242997D01*
X-165562Y1242997D01*
X-165562Y1124379D01*
X-134861Y1009802D01*
X-131072Y1003238D01*
X-131071Y1003237D01*
X-111970Y970154D01*
X-75551Y907075D01*
X8325Y823199D01*
X111052Y763889D01*
X225629Y733188D01*
X344247Y733188D01*
X458824Y763889D01*
X561551Y823199D01*
X645427Y907075D01*
X704737Y1009802D01*
X735438Y1124379D01*
X735438Y1242997D01*
X704737Y1357574D01*
X645427Y1460301D01*
X561551Y1544177D01*
X458824Y1603487D01*
X344247Y1634188D01*
X225629Y1634188D01*
X111052Y1603487D01*
X111050Y1603487D01*
X111050Y1603486D01*
X8325Y1544177D01*
X8322Y1544175D01*
X-75549Y1460304D01*
X-75551Y1460301D01*
X-134861Y1357576D01*
X-156228Y1277834D01*
X-156228Y1277833D01*
X-165562Y1242997D01*
X-397895Y1242997D01*
X-428596Y1357574D01*
X-487906Y1460301D01*
X-571782Y1544177D01*
X-674509Y1603487D01*
X-789086Y1634188D01*
X-907704Y1634188D01*
X-1022281Y1603487D01*
X-1022283Y1603487D01*
X-1022283Y1603486D01*
X-1125008Y1544177D01*
X-1125011Y1544175D01*
X-1208882Y1460304D01*
X-1208884Y1460301D01*
X-1268194Y1357576D01*
X-1289560Y1277834D01*
X-1298895Y1242997D01*
X-1531228Y1242997D01*
X-1561929Y1357574D01*
X-1621239Y1460301D01*
X-1705115Y1544177D01*
X-1807842Y1603487D01*
X-1922419Y1634188D01*
X-2041037Y1634188D01*
X-2155614Y1603487D01*
X-2155616Y1603487D01*
X-2155616Y1603486D01*
X-2258341Y1544177D01*
X-2258344Y1544175D01*
X-2342215Y1460304D01*
X-2342217Y1460301D01*
X-2401527Y1357574D01*
X-2432228Y1242997D01*
X-18469876Y1242997D01*
X-18469876Y2060036D01*
X-18469876Y2067855D01*
X-18469926Y2068610D01*
X-18469924Y2138478D01*
X-18500727Y2372478D01*
X-18561809Y2600456D01*
X-18652126Y2818510D01*
X-18652131Y2818519D01*
X-18652131Y2818520D01*
X-18731570Y2956119D01*
X-18762672Y3009990D01*
X-10450501Y3009990D01*
X-10450501Y2891372D01*
X-10419800Y2776795D01*
X-10360490Y2674068D01*
X-10276614Y2590192D01*
X-10173887Y2530882D01*
X-10059310Y2500181D01*
X-10059307Y2500181D01*
X-9940695Y2500181D01*
X-9940692Y2500181D01*
X-9826115Y2530882D01*
X-9723388Y2590192D01*
X-9639512Y2674068D01*
X-9580202Y2776795D01*
X-9549501Y2891372D01*
X-9549501Y3009990D01*
X-9580202Y3124567D01*
X-9639512Y3227294D01*
X-9723388Y3311170D01*
X-9826115Y3370480D01*
X-9940692Y3401181D01*
X-10059310Y3401181D01*
X-10173887Y3370480D01*
X-10173889Y3370480D01*
X-10173889Y3370479D01*
X-10276614Y3311170D01*
X-10276617Y3311168D01*
X-10360488Y3227297D01*
X-10360490Y3227294D01*
X-10419800Y3124567D01*
X-10450501Y3009990D01*
X-18762672Y3009990D01*
X-18770125Y3022900D01*
X-18770128Y3022904D01*
X-18770132Y3022911D01*
X-18913808Y3210159D01*
X-19080690Y3377048D01*
X-19080691Y3377050D01*
X-19267936Y3520733D01*
X-19472334Y3638747D01*
X-19472344Y3638752D01*
X-19690389Y3729073D01*
X-19690392Y3729074D01*
X-19918353Y3790159D01*
X-19918367Y3790162D01*
X-20152363Y3820973D01*
X-20222832Y3820974D01*
X-20230958Y3820975D01*
X-20231101Y3821012D01*
X-20270976Y3820975D01*
X-20317966Y3820975D01*
X-20327029Y3820975D01*
X-20327731Y3820921D01*
X-23241940Y3818145D01*
X-23246813Y3818236D01*
X-23349441Y3822174D01*
X-23359982Y3823030D01*
X-23440022Y3832979D01*
X-23451575Y3834974D01*
X-23512607Y3848510D01*
X-23524926Y3851917D01*
X-23574464Y3868409D01*
X-23587267Y3873477D01*
X-23624291Y3890568D01*
X-23637034Y3897377D01*
X-23656020Y3908993D01*
X-23673951Y3922324D01*
X-23693532Y3939830D01*
X-23729337Y3971840D01*
X-23748716Y3993807D01*
X-23789380Y4052679D01*
X-23802012Y4075939D01*
X-23804926Y4083015D01*
X-23841314Y4171389D01*
X-23847919Y4192702D01*
X-23870903Y4300318D01*
X-23879946Y4342658D01*
X-23882413Y4360416D01*
X-23886261Y4418925D01*
X-23886262Y4418934D01*
X-23886262Y4418936D01*
X7898761Y4418936D01*
X7898761Y4300318D01*
X7929462Y4185741D01*
X7988772Y4083014D01*
X8072648Y3999138D01*
X8175375Y3939828D01*
X8289952Y3909127D01*
X8289955Y3909127D01*
X8408567Y3909127D01*
X8408570Y3909127D01*
X8523147Y3939828D01*
X8625874Y3999138D01*
X8709750Y4083014D01*
X8769060Y4185741D01*
X8799761Y4300318D01*
X8799761Y4418936D01*
X8769060Y4533513D01*
X8709750Y4636240D01*
X8625874Y4720116D01*
X8523147Y4779426D01*
X8408570Y4810127D01*
X8289952Y4810127D01*
X8175375Y4779426D01*
X8175373Y4779426D01*
X8175373Y4779425D01*
X8072648Y4720116D01*
X8072645Y4720114D01*
X7988774Y4636243D01*
X7988772Y4636240D01*
X7929462Y4533513D01*
X7898761Y4418936D01*
X-23886262Y4418936D01*
X-23897419Y4588571D01*
X-23897678Y4598042D01*
X-23897261Y4636747D01*
X-23896736Y4644137D01*
X-23896736Y4647580D01*
X-23896736Y4685031D01*
X-23896730Y4686000D01*
X-23896326Y4723474D01*
X-23896328Y4723479D01*
X-23896290Y4726924D01*
X-23896734Y4734312D01*
X-23896734Y4736068D01*
X-23896720Y5215174D01*
X3908228Y5215174D01*
X3908228Y5096556D01*
X3938929Y4981979D01*
X3998239Y4879252D01*
X4082115Y4795376D01*
X4184842Y4736066D01*
X4299419Y4705365D01*
X4299422Y4705365D01*
X4418034Y4705365D01*
X4418037Y4705365D01*
X4532614Y4736066D01*
X4635341Y4795376D01*
X4719217Y4879252D01*
X4778527Y4981979D01*
X4809228Y5096556D01*
X4809228Y5215174D01*
X4778527Y5329751D01*
X4719217Y5432478D01*
X4635341Y5516354D01*
X4532614Y5575664D01*
X4418037Y5606365D01*
X4299419Y5606365D01*
X4184842Y5575664D01*
X4184840Y5575664D01*
X4184840Y5575663D01*
X4082115Y5516354D01*
X4082112Y5516352D01*
X3998241Y5432481D01*
X3998239Y5432478D01*
X3938929Y5329751D01*
X3908228Y5215174D01*
X-23896720Y5215174D01*
X-23896693Y6125376D01*
X4871349Y6125376D01*
X4871349Y6006758D01*
X4902050Y5892181D01*
X4961360Y5789454D01*
X5045236Y5705578D01*
X5147963Y5646268D01*
X5262540Y5615567D01*
X5262543Y5615567D01*
X5381155Y5615567D01*
X5381158Y5615567D01*
X5495735Y5646268D01*
X5598462Y5705578D01*
X5682338Y5789454D01*
X5741648Y5892181D01*
X5772349Y6006758D01*
X5772349Y6125376D01*
X5741648Y6239953D01*
X5682338Y6342680D01*
X5598462Y6426556D01*
X5495735Y6485866D01*
X5381158Y6516567D01*
X5262540Y6516567D01*
X5147963Y6485866D01*
X5147961Y6485866D01*
X5147961Y6485865D01*
X5045236Y6426556D01*
X5045233Y6426554D01*
X4961362Y6342683D01*
X4961360Y6342680D01*
X4902050Y6239953D01*
X4871349Y6125376D01*
X-23896693Y6125376D01*
X-23896665Y7104163D01*
X2923662Y7104163D01*
X2923662Y6985545D01*
X2954363Y6870968D01*
X3013673Y6768241D01*
X3097549Y6684365D01*
X3200276Y6625055D01*
X3314853Y6594354D01*
X3314856Y6594354D01*
X3433468Y6594354D01*
X3433471Y6594354D01*
X3548048Y6625055D01*
X3650775Y6684365D01*
X3734651Y6768241D01*
X3793961Y6870968D01*
X3824662Y6985545D01*
X3824662Y7104163D01*
X3793961Y7218740D01*
X3734651Y7321467D01*
X3650775Y7405343D01*
X3548048Y7464653D01*
X3433471Y7495354D01*
X3314853Y7495354D01*
X3200276Y7464653D01*
X3200274Y7464653D01*
X3200274Y7464652D01*
X3097549Y7405343D01*
X3097546Y7405341D01*
X3013675Y7321470D01*
X3013673Y7321467D01*
X2954363Y7218740D01*
X2923662Y7104163D01*
X-23896665Y7104163D01*
X-23896618Y8721629D01*
X-6333833Y8721629D01*
X-6333833Y8603011D01*
X-6303132Y8488434D01*
X-6243822Y8385707D01*
X-6159946Y8301831D01*
X-6057219Y8242521D01*
X-5942642Y8211820D01*
X-5942639Y8211820D01*
X-5824027Y8211820D01*
X-5824024Y8211820D01*
X-5709447Y8242521D01*
X-5606720Y8301831D01*
X-5522844Y8385707D01*
X-5463534Y8488434D01*
X-5432833Y8603011D01*
X-5432833Y8721629D01*
X-5463534Y8836206D01*
X-5522844Y8938933D01*
X-5606720Y9022809D01*
X-5709447Y9082119D01*
X-5824024Y9112820D01*
X-5942642Y9112820D01*
X-6057219Y9082119D01*
X-6057221Y9082119D01*
X-6057221Y9082118D01*
X-6159946Y9022809D01*
X-6159949Y9022807D01*
X-6243820Y8938936D01*
X-6243822Y8938933D01*
X-6303132Y8836206D01*
X-6333833Y8721629D01*
X-23896618Y8721629D01*
X-23896612Y8938936D01*
X-23896579Y10059309D01*
X-2298895Y10059309D01*
X-2298895Y9940691D01*
X-2268194Y9826114D01*
X-2208884Y9723387D01*
X-2125008Y9639511D01*
X-2022281Y9580201D01*
X-1907704Y9549500D01*
X-1907701Y9549500D01*
X-1789089Y9549500D01*
X-1789086Y9549500D01*
X-1674509Y9580201D01*
X-1571782Y9639511D01*
X-1487906Y9723387D01*
X-1428596Y9826114D01*
X-1397895Y9940691D01*
X-1397895Y10059309D01*
X-1428596Y10173886D01*
X-1487906Y10276613D01*
X-1571782Y10360489D01*
X-1674509Y10419799D01*
X-1789086Y10450500D01*
X-1907704Y10450500D01*
X-2022281Y10419799D01*
X-2022283Y10419799D01*
X-2022283Y10419798D01*
X-2125008Y10360489D01*
X-2125011Y10360487D01*
X-2208882Y10276616D01*
X-2208884Y10276613D01*
X-2268194Y10173886D01*
X-2298895Y10059309D01*
X-23896579Y10059309D01*
X-23896579Y10067440D01*
X-23896486Y13306770D01*
X-23896479Y13559309D01*
X3049500Y13559309D01*
X3049500Y13440691D01*
X3080201Y13326114D01*
X3139511Y13223387D01*
X3223387Y13139511D01*
X3279027Y13107387D01*
X3327242Y13056819D01*
X3340464Y12988212D01*
X3314496Y12923347D01*
X3279027Y12892613D01*
X3223387Y12860489D01*
X3223384Y12860487D01*
X3139513Y12776616D01*
X3139511Y12776613D01*
X3080201Y12673886D01*
X3049500Y12559309D01*
X3049500Y12440691D01*
X3080201Y12326114D01*
X3139511Y12223387D01*
X3223387Y12139511D01*
X3279027Y12107387D01*
X3327242Y12056819D01*
X3340464Y11988212D01*
X3314496Y11923347D01*
X3279027Y11892613D01*
X3223387Y11860489D01*
X3223384Y11860487D01*
X3139513Y11776616D01*
X3139511Y11776613D01*
X3080201Y11673886D01*
X3049500Y11559309D01*
X3049500Y11440691D01*
X3080201Y11326114D01*
X3139511Y11223387D01*
X3223387Y11139511D01*
X3326114Y11080201D01*
X3440691Y11049500D01*
X3440694Y11049500D01*
X3559306Y11049500D01*
X3559309Y11049500D01*
X3673886Y11080201D01*
X3776613Y11139511D01*
X3860489Y11223387D01*
X3892613Y11279028D01*
X3943180Y11327243D01*
X4011787Y11340465D01*
X4076652Y11314497D01*
X4107386Y11279028D01*
X4139511Y11223387D01*
X4223387Y11139511D01*
X4326114Y11080201D01*
X4440691Y11049500D01*
X4440694Y11049500D01*
X4559306Y11049500D01*
X4559309Y11049500D01*
X4673886Y11080201D01*
X4776613Y11139511D01*
X4860489Y11223387D01*
X4919799Y11326114D01*
X4950500Y11440691D01*
X4950500Y11559309D01*
X4919799Y11673886D01*
X4860489Y11776613D01*
X4776613Y11860489D01*
X4720972Y11892614D01*
X4672757Y11943180D01*
X4659535Y12011787D01*
X4685503Y12076652D01*
X4720973Y12107387D01*
X4776613Y12139511D01*
X4860489Y12223387D01*
X4919799Y12326114D01*
X4950500Y12440691D01*
X4950500Y12559309D01*
X4919799Y12673886D01*
X4860489Y12776613D01*
X4776613Y12860489D01*
X4720972Y12892614D01*
X4672757Y12943180D01*
X4659535Y13011787D01*
X4685503Y13076652D01*
X4720973Y13107387D01*
X4776613Y13139511D01*
X4860489Y13223387D01*
X4919799Y13326114D01*
X4950500Y13440691D01*
X4950500Y13559309D01*
X4919799Y13673886D01*
X4860489Y13776613D01*
X4776613Y13860489D01*
X4673886Y13919799D01*
X4559309Y13950500D01*
X4440691Y13950500D01*
X4326114Y13919799D01*
X4326112Y13919799D01*
X4326112Y13919798D01*
X4223387Y13860489D01*
X4223384Y13860487D01*
X4139513Y13776616D01*
X4139511Y13776613D01*
X4107387Y13720973D01*
X4056819Y13672758D01*
X3988212Y13659536D01*
X3923347Y13685504D01*
X3892613Y13720973D01*
X3860489Y13776613D01*
X3776613Y13860489D01*
X3673886Y13919799D01*
X3559309Y13950500D01*
X3440691Y13950500D01*
X3326114Y13919799D01*
X3326112Y13919799D01*
X3326112Y13919798D01*
X3223387Y13860489D01*
X3223384Y13860487D01*
X3139513Y13776616D01*
X3139511Y13776613D01*
X3080201Y13673886D01*
X3049500Y13559309D01*
X-23896479Y13559309D01*
X-23896184Y23719255D01*
X-23894395Y23727903D01*
X-23896182Y23758712D01*
X-23896181Y23789553D01*
X-23896184Y23789562D01*
X-23897243Y23797618D01*
X-23897088Y23797639D01*
X-23899201Y23810746D01*
X-23906482Y23936284D01*
X-5218896Y23936284D01*
X-5193898Y23810617D01*
X-5193896Y23810611D01*
X-5144862Y23692231D01*
X-5144857Y23692222D01*
X-5073672Y23585687D01*
X-5073669Y23585683D01*
X-4983068Y23495082D01*
X-4983064Y23495079D01*
X-4876529Y23423894D01*
X-4876523Y23423891D01*
X-4876522Y23423890D01*
X-4758139Y23374854D01*
X-4758135Y23374854D01*
X-4758134Y23374853D01*
X-4632467Y23349855D01*
X-4632464Y23349855D01*
X-4504324Y23349855D01*
X-4419780Y23366673D01*
X-4378651Y23374854D01*
X-4260268Y23423890D01*
X-4153726Y23495079D01*
X-4063119Y23585686D01*
X-3991930Y23692228D01*
X-3942894Y23810611D01*
X-3917895Y23936284D01*
X3421104Y23936284D01*
X3446102Y23810617D01*
X3446104Y23810611D01*
X3495138Y23692231D01*
X3495143Y23692222D01*
X3566328Y23585687D01*
X3566331Y23585683D01*
X3656932Y23495082D01*
X3656936Y23495079D01*
X3763471Y23423894D01*
X3763477Y23423891D01*
X3763478Y23423890D01*
X3881861Y23374854D01*
X3881865Y23374854D01*
X3881866Y23374853D01*
X4007533Y23349855D01*
X4007536Y23349855D01*
X4135676Y23349855D01*
X4220220Y23366673D01*
X4261349Y23374854D01*
X4379732Y23423890D01*
X4486274Y23495079D01*
X4576881Y23585686D01*
X4648070Y23692228D01*
X4697106Y23810611D01*
X4722105Y23936286D01*
X4722105Y25164424D01*
X4722105Y25164427D01*
X4697107Y25290094D01*
X4697106Y25290095D01*
X4697106Y25290099D01*
X4648070Y25408482D01*
X4648069Y25408483D01*
X4648066Y25408489D01*
X4576881Y25515024D01*
X4576878Y25515028D01*
X4486277Y25605629D01*
X4486273Y25605632D01*
X4379738Y25676817D01*
X4379729Y25676822D01*
X4261349Y25725856D01*
X4261343Y25725858D01*
X4135676Y25750855D01*
X4135674Y25750855D01*
X4007536Y25750855D01*
X4007534Y25750855D01*
X3881866Y25725858D01*
X3881860Y25725856D01*
X3763480Y25676822D01*
X3763471Y25676817D01*
X3656936Y25605632D01*
X3656932Y25605629D01*
X3566331Y25515028D01*
X3566328Y25515024D01*
X3495143Y25408489D01*
X3495138Y25408480D01*
X3446104Y25290100D01*
X3446102Y25290094D01*
X3421105Y25164427D01*
X3421105Y25164424D01*
X3421105Y23936286D01*
X3421105Y23936284D01*
X3421104Y23936284D01*
X-3917895Y23936284D01*
X-3917895Y23936286D01*
X-3917895Y25119538D01*
X-3663895Y25119538D01*
X-3663895Y24981172D01*
X-3631349Y24859710D01*
X-3628083Y24847520D01*
X-3628082Y24847517D01*
X-3558903Y24727694D01*
X-3558901Y24727691D01*
X-3558900Y24727690D01*
X-3461060Y24629850D01*
X-3341231Y24560667D01*
X-3207578Y24524855D01*
X-3207576Y24524855D01*
X-3069214Y24524855D01*
X-3069212Y24524855D01*
X-2935559Y24560667D01*
X-2815730Y24629850D01*
X-2717890Y24727690D01*
X-2648707Y24847519D01*
X-2612895Y24981172D01*
X-2612895Y25119538D01*
X2126105Y25119538D01*
X2126105Y24981172D01*
X2158651Y24859710D01*
X2161917Y24847520D01*
X2161918Y24847517D01*
X2231097Y24727694D01*
X2231099Y24727691D01*
X2231100Y24727690D01*
X2328940Y24629850D01*
X2448769Y24560667D01*
X2582422Y24524855D01*
X2582424Y24524855D01*
X2720786Y24524855D01*
X2720788Y24524855D01*
X2854441Y24560667D01*
X2974270Y24629850D01*
X3072110Y24727690D01*
X3141293Y24847519D01*
X3177105Y24981172D01*
X3177105Y25119538D01*
X3141293Y25253191D01*
X3072110Y25373020D01*
X2974270Y25470860D01*
X2974269Y25470861D01*
X2974266Y25470863D01*
X2854443Y25540042D01*
X2854442Y25540043D01*
X2854441Y25540043D01*
X2720788Y25575855D01*
X2582422Y25575855D01*
X2448769Y25540043D01*
X2448766Y25540042D01*
X2328943Y25470863D01*
X2328938Y25470859D01*
X2231101Y25373022D01*
X2231097Y25373017D01*
X2161918Y25253194D01*
X2161917Y25253191D01*
X2126105Y25119538D01*
X-2612895Y25119538D01*
X-2648707Y25253191D01*
X-2717890Y25373020D01*
X-2815730Y25470860D01*
X-2815731Y25470861D01*
X-2815734Y25470863D01*
X-2935557Y25540042D01*
X-2935558Y25540043D01*
X-2935559Y25540043D01*
X-3069212Y25575855D01*
X-3207578Y25575855D01*
X-3341231Y25540043D01*
X-3341234Y25540042D01*
X-3461057Y25470863D01*
X-3461062Y25470859D01*
X-3558899Y25373022D01*
X-3558903Y25373017D01*
X-3628082Y25253194D01*
X-3628083Y25253191D01*
X-3663895Y25119538D01*
X-3917895Y25119538D01*
X-3917895Y25164424D01*
X-3917895Y25164427D01*
X-3942893Y25290094D01*
X-3942894Y25290095D01*
X-3942894Y25290099D01*
X-3991930Y25408482D01*
X-3991931Y25408483D01*
X-3991934Y25408489D01*
X-4063119Y25515024D01*
X-4063122Y25515028D01*
X-4153723Y25605629D01*
X-4153727Y25605632D01*
X-4260262Y25676817D01*
X-4260271Y25676822D01*
X-4378651Y25725856D01*
X-4378657Y25725858D01*
X-4504324Y25750855D01*
X-4504326Y25750855D01*
X-4632464Y25750855D01*
X-4632466Y25750855D01*
X-4758134Y25725858D01*
X-4758140Y25725856D01*
X-4876520Y25676822D01*
X-4876529Y25676817D01*
X-4983064Y25605632D01*
X-4983068Y25605629D01*
X-5073669Y25515028D01*
X-5073672Y25515024D01*
X-5144857Y25408489D01*
X-5144862Y25408480D01*
X-5193896Y25290100D01*
X-5193898Y25290094D01*
X-5218895Y25164427D01*
X-5218895Y25164424D01*
X-5218895Y23936286D01*
X-5218895Y23936284D01*
X-5218896Y23936284D01*
X-23906482Y23936284D01*
X-23912229Y24035365D01*
X-23913919Y24064514D01*
X-23912358Y24081478D01*
X-23916200Y24103842D01*
X-23917513Y24126495D01*
X-23919951Y24133856D01*
X-23924442Y24151830D01*
X-23969071Y24411665D01*
X-23970703Y24421169D01*
X-23970944Y24437363D01*
X-23977372Y24459998D01*
X-23981355Y24483188D01*
X-23984098Y24489139D01*
X-23990770Y24507175D01*
X-24064348Y24766269D01*
X-24067080Y24775890D01*
X-24068852Y24791127D01*
X-24077845Y24813798D01*
X-24084505Y24837251D01*
X-24087247Y24841841D01*
X-24096057Y24859710D01*
X-24195167Y25109568D01*
X-24200374Y25125913D01*
X-24200781Y25127582D01*
X-24202033Y25133407D01*
X-24210782Y25150480D01*
X-24215693Y25161314D01*
X-24222767Y25179149D01*
X-24222768Y25179151D01*
X-24225319Y25182582D01*
X-24236169Y25200024D01*
X-24348431Y25419101D01*
X-24348431Y25419102D01*
X-24353271Y25428546D01*
X-24357399Y25441761D01*
X-24371238Y25463609D01*
X-24383036Y25486633D01*
X-24385217Y25489043D01*
X-24398008Y25505871D01*
X-24403806Y25515024D01*
X-24483886Y25641452D01*
X-24493783Y25664069D01*
X-24509193Y25681404D01*
X-24514582Y25689913D01*
X-24514583Y25689914D01*
X-24517310Y25694220D01*
X-24517314Y25694224D01*
X-24524143Y25700514D01*
X-24537389Y25714795D01*
X-24713988Y25938066D01*
X-24722164Y25949720D01*
X-24792353Y26063095D01*
X-24878424Y26202126D01*
X-24885210Y26214639D01*
X-24933494Y26317344D01*
X-25011514Y26483300D01*
X-25016819Y26496505D01*
X-25081039Y26687357D01*
X-25111496Y26777869D01*
X-25115252Y26791594D01*
X-25139351Y26904815D01*
X-25177053Y27081947D01*
X-25179212Y27096017D01*
X-25207329Y27391565D01*
X-25207860Y27405763D01*
X-25203528Y27622026D01*
X-24050499Y27622026D01*
X-24050499Y27377972D01*
X-24012320Y27136923D01*
X-23936903Y26904814D01*
X-23826106Y26687361D01*
X-23826103Y26687357D01*
X-23682660Y26489923D01*
X-23682656Y26489918D01*
X-23510081Y26317343D01*
X-23510076Y26317339D01*
X-23368720Y26214639D01*
X-23312638Y26173893D01*
X-23095184Y26063095D01*
X-22863075Y25987678D01*
X-22622026Y25949499D01*
X-22622025Y25949499D01*
X-22377973Y25949499D01*
X-22377972Y25949499D01*
X-22136923Y25987678D01*
X-21904814Y26063095D01*
X-21687360Y26173893D01*
X-21489916Y26317344D01*
X-21317344Y26489916D01*
X-21173893Y26687360D01*
X-21063095Y26904814D01*
X-20987678Y27136923D01*
X-20949499Y27377972D01*
X-20949499Y27622026D01*
X-20949499Y27622027D01*
X15449500Y27622027D01*
X15449500Y27377974D01*
X15487678Y27136928D01*
X15487678Y27136926D01*
X15487679Y27136924D01*
X15505542Y27081946D01*
X15563097Y26904813D01*
X15673896Y26687358D01*
X15817339Y26489924D01*
X15817343Y26489919D01*
X15989918Y26317344D01*
X15989923Y26317340D01*
X16131280Y26214639D01*
X16187361Y26173894D01*
X16404815Y26063096D01*
X16636924Y25987679D01*
X16877973Y25949500D01*
X16877974Y25949500D01*
X17122026Y25949500D01*
X17122027Y25949500D01*
X17363076Y25987679D01*
X17595185Y26063096D01*
X17812639Y26173894D01*
X18010083Y26317345D01*
X18182655Y26489917D01*
X18326106Y26687361D01*
X18436904Y26904815D01*
X18512321Y27136924D01*
X18550500Y27377973D01*
X18550500Y27622027D01*
X18512321Y27863076D01*
X18436904Y28095185D01*
X18326106Y28312639D01*
X18284626Y28369732D01*
X18182660Y28510077D01*
X18182656Y28510082D01*
X18010081Y28682657D01*
X18010076Y28682661D01*
X17812642Y28826104D01*
X17812641Y28826105D01*
X17812639Y28826106D01*
X17595185Y28936904D01*
X17363076Y29012321D01*
X17363074Y29012322D01*
X17363072Y29012322D01*
X17194769Y29038979D01*
X17122027Y29050500D01*
X16877973Y29050500D01*
X16822093Y29041650D01*
X16636927Y29012322D01*
X16404812Y28936903D01*
X16187357Y28826104D01*
X15989923Y28682661D01*
X15989918Y28682657D01*
X15817343Y28510082D01*
X15817339Y28510077D01*
X15673896Y28312643D01*
X15563097Y28095188D01*
X15487678Y27863073D01*
X15449500Y27622027D01*
X-20949499Y27622027D01*
X-20987678Y27863075D01*
X-21063095Y28095184D01*
X-21150275Y28266284D01*
X-5218896Y28266284D01*
X-5193898Y28140617D01*
X-5193896Y28140611D01*
X-5144862Y28022231D01*
X-5144857Y28022222D01*
X-5073672Y27915687D01*
X-5073669Y27915683D01*
X-4983068Y27825082D01*
X-4983064Y27825079D01*
X-4876529Y27753894D01*
X-4876523Y27753891D01*
X-4876522Y27753890D01*
X-4758139Y27704854D01*
X-4758135Y27704854D01*
X-4758134Y27704853D01*
X-4632467Y27679855D01*
X-4632464Y27679855D01*
X-4504324Y27679855D01*
X-4419780Y27696673D01*
X-4378651Y27704854D01*
X-4260268Y27753890D01*
X-4153726Y27825079D01*
X-4063119Y27915686D01*
X-3991930Y28022228D01*
X-3942894Y28140611D01*
X-3917895Y28266284D01*
X3421104Y28266284D01*
X3446102Y28140617D01*
X3446104Y28140611D01*
X3495138Y28022231D01*
X3495143Y28022222D01*
X3566328Y27915687D01*
X3566331Y27915683D01*
X3656932Y27825082D01*
X3656936Y27825079D01*
X3763471Y27753894D01*
X3763477Y27753891D01*
X3763478Y27753890D01*
X3881861Y27704854D01*
X3881865Y27704854D01*
X3881866Y27704853D01*
X4007533Y27679855D01*
X4007536Y27679855D01*
X4135676Y27679855D01*
X4220220Y27696673D01*
X4261349Y27704854D01*
X4349723Y27741460D01*
X4349724Y27741460D01*
X4357751Y27744786D01*
X4379732Y27753890D01*
X4486274Y27825079D01*
X4576881Y27915686D01*
X4648070Y28022228D01*
X4697106Y28140611D01*
X4722105Y28266286D01*
X4722105Y29194424D01*
X4722105Y29194427D01*
X4697107Y29320094D01*
X4697106Y29320095D01*
X4697106Y29320099D01*
X4648070Y29438482D01*
X4648069Y29438483D01*
X4648066Y29438489D01*
X4576881Y29545024D01*
X4576878Y29545028D01*
X4486277Y29635629D01*
X4486273Y29635632D01*
X4379738Y29706817D01*
X4379729Y29706822D01*
X4261349Y29755856D01*
X4261343Y29755858D01*
X4135676Y29780855D01*
X4135674Y29780855D01*
X4007536Y29780855D01*
X4007534Y29780855D01*
X3881866Y29755858D01*
X3881860Y29755856D01*
X3763480Y29706822D01*
X3763471Y29706817D01*
X3656936Y29635632D01*
X3656932Y29635629D01*
X3566331Y29545028D01*
X3566328Y29545024D01*
X3495143Y29438489D01*
X3495138Y29438480D01*
X3446104Y29320100D01*
X3446102Y29320094D01*
X3421105Y29194427D01*
X3421105Y29194424D01*
X3421105Y28266286D01*
X3421105Y28266284D01*
X3421104Y28266284D01*
X-3917895Y28266284D01*
X-3917895Y28266286D01*
X-3917895Y29194424D01*
X-3917895Y29194427D01*
X-3942893Y29320094D01*
X-3942894Y29320095D01*
X-3942894Y29320099D01*
X-3991930Y29438482D01*
X-3991931Y29438483D01*
X-3991934Y29438489D01*
X-4063119Y29545024D01*
X-4063122Y29545028D01*
X-4153723Y29635629D01*
X-4153727Y29635632D01*
X-4260262Y29706817D01*
X-4260271Y29706822D01*
X-4378651Y29755856D01*
X-4378657Y29755858D01*
X-4504324Y29780855D01*
X-4504326Y29780855D01*
X-4632464Y29780855D01*
X-4632466Y29780855D01*
X-4758134Y29755858D01*
X-4758140Y29755856D01*
X-4876520Y29706822D01*
X-4876529Y29706817D01*
X-4983064Y29635632D01*
X-4983068Y29635629D01*
X-5073669Y29545028D01*
X-5073672Y29545024D01*
X-5144857Y29438489D01*
X-5144862Y29438480D01*
X-5193896Y29320100D01*
X-5193898Y29320094D01*
X-5218895Y29194427D01*
X-5218895Y29194424D01*
X-5218895Y28266286D01*
X-5218895Y28266284D01*
X-5218896Y28266284D01*
X-21150275Y28266284D01*
X-21173893Y28312638D01*
X-21235930Y28398025D01*
X-21317339Y28510076D01*
X-21317343Y28510081D01*
X-21489918Y28682656D01*
X-21489923Y28682660D01*
X-21687357Y28826103D01*
X-21687358Y28826104D01*
X-21687360Y28826105D01*
X-21904814Y28936903D01*
X-22136923Y29012320D01*
X-22136925Y29012321D01*
X-22136927Y29012321D01*
X-22305230Y29038978D01*
X-22377972Y29050499D01*
X-22622026Y29050499D01*
X-22677906Y29041649D01*
X-22863072Y29012321D01*
X-23095187Y28936902D01*
X-23312642Y28826103D01*
X-23510076Y28682660D01*
X-23510081Y28682656D01*
X-23682656Y28510081D01*
X-23682660Y28510076D01*
X-23826103Y28312642D01*
X-23936902Y28095187D01*
X-24012321Y27863072D01*
X-24029614Y27753889D01*
X-24050499Y27622026D01*
X-25203528Y27622026D01*
X-25201915Y27702583D01*
X-25200813Y27716771D01*
X-25195774Y27753894D01*
X-25160889Y28010934D01*
X-25158168Y28024904D01*
X-25140240Y28095184D01*
X-25084788Y28312562D01*
X-25080488Y28326115D01*
X-24974619Y28603472D01*
X-24968789Y28616452D01*
X-24943630Y28664835D01*
X-24831827Y28879845D01*
X-24824560Y28892052D01*
X-24658303Y29138022D01*
X-24649679Y29149323D01*
X-24456320Y29374620D01*
X-24446474Y29384842D01*
X-24228572Y29586486D01*
X-24217598Y29595530D01*
X-23978021Y29770868D01*
X-23966101Y29778582D01*
X-23707988Y29925316D01*
X-23695260Y29931613D01*
X-23422051Y30047785D01*
X-23408681Y30052584D01*
X-23123953Y30136678D01*
X-23110103Y30139917D01*
X-22817617Y30190819D01*
X-22803510Y30192447D01*
X-22503538Y30209696D01*
X-22496455Y30209898D01*
X16942583Y30199516D01*
G37*
%TD.AperFunction*%
%TD*%
M02*
