%TF.GenerationSoftware,KiCad,Pcbnew,9.0.4*%
%TF.CreationDate,2025-12-23T13:44:40+00:00*%
%TF.ProjectId,Lyra Avionics,4c797261-2041-4766-996f-6e6963732e6b,REV3*%
%TF.SameCoordinates,Original*%
%TF.FileFunction,Copper,L2,Inr*%
%TF.FilePolarity,Positive*%
%FSLAX46Y46*%
G04 Gerber Fmt 4.6, Leading zero omitted, Abs format (unit mm)*
G04 Created by KiCad (PCBNEW 9.0.4) date 2025-12-23 13:44:40*
%MOMM*%
%LPD*%
G01*
G04 APERTURE LIST*
%TA.AperFunction,ComponentPad*%
%ADD10C,2.500000*%
%TD*%
%TA.AperFunction,ComponentPad*%
%ADD11O,1.000000X1.800000*%
%TD*%
%TA.AperFunction,ComponentPad*%
%ADD12O,1.000000X2.100000*%
%TD*%
%TA.AperFunction,ComponentPad*%
%ADD13C,0.650000*%
%TD*%
%TA.AperFunction,ComponentPad*%
%ADD14C,0.600000*%
%TD*%
%TA.AperFunction,ViaPad*%
%ADD15C,0.600000*%
%TD*%
G04 APERTURE END LIST*
D10*
%TO.N,GND*%
%TO.C,U4*%
X1883936Y-26539424D03*
X-3196074Y-26539424D03*
X-3196074Y-21459414D03*
X1883936Y-21459414D03*
%TO.N,Net-(U6-ANT)*%
X-656069Y-23999419D03*
%TD*%
D11*
%TO.N,GND*%
%TO.C,U5*%
X4071605Y28730355D03*
X-4568395Y28730355D03*
D12*
X-4568395Y24550355D03*
X4071605Y24550355D03*
D13*
%TO.N,*%
X-3138395Y25050355D03*
X2651605Y25050355D03*
%TD*%
D14*
%TO.N,GND*%
%TO.C,U1*%
X284938Y-1082978D03*
X284938Y50355D03*
X284938Y1183688D03*
X-848395Y-1082978D03*
X-848395Y50355D03*
X-848395Y1183688D03*
X-1981728Y-1082978D03*
X-1981728Y50355D03*
X-1981728Y1183688D03*
%TD*%
D15*
%TO.N,/GPIO14*%
X-6813374Y-633731D03*
%TO.N,/GPIO15*%
X-7500000Y-1000000D03*
%TO.N,/GPIO14*%
X-8000000Y-7000000D03*
%TO.N,/GPIO15*%
X-8750003Y-7000000D03*
%TO.N,/GPIO5*%
X-17143554Y10556616D03*
X-17899977Y11968917D03*
%TO.N,GND*%
X-2140344Y-9504176D03*
X571950Y-9500000D03*
X8000000Y-4449645D03*
X8505000Y-449645D03*
X8500000Y550355D03*
X8349261Y4359627D03*
%TO.N,+3V3*%
X10000000Y5000000D03*
X9000000Y5000000D03*
X10000000Y6000000D03*
X9000000Y6000000D03*
%TO.N,GND*%
X3500000Y11500000D03*
X3500000Y12500000D03*
X3500000Y13500000D03*
X4500000Y13500000D03*
X4500000Y11500000D03*
X4500000Y12500000D03*
%TO.N,+3V3*%
X7999999Y11154180D03*
X5418690Y11081310D03*
%TO.N,GND*%
X-1848395Y10000000D03*
X-5883333Y8662320D03*
X-10000000Y258112D03*
X-10000000Y-2149645D03*
X-10000001Y2950681D03*
%TD*%
%TA.AperFunction,Conductor*%
%TO.N,GND*%
G36*
X-5533580Y29679815D02*
G01*
X-5487825Y29627011D01*
X-5477881Y29557853D01*
X-5486058Y29528047D01*
X-5529966Y29422045D01*
X-5529968Y29422037D01*
X-5568395Y29228851D01*
X-5568395Y28980355D01*
X-4868395Y28980355D01*
X-4868395Y28480355D01*
X-5568395Y28480355D01*
X-5568395Y28231860D01*
X-5529968Y28038674D01*
X-5529965Y28038662D01*
X-5454588Y27856684D01*
X-5454581Y27856671D01*
X-5345147Y27692893D01*
X-5345144Y27692889D01*
X-5205862Y27553607D01*
X-5205858Y27553604D01*
X-5042080Y27444170D01*
X-5042067Y27444163D01*
X-4860087Y27368786D01*
X-4818395Y27360493D01*
X-4818395Y28163368D01*
X-4808455Y28146151D01*
X-4752600Y28090296D01*
X-4684191Y28050800D01*
X-4607891Y28030356D01*
X-4528899Y28030356D01*
X-4452599Y28050800D01*
X-4384190Y28090296D01*
X-4328335Y28146151D01*
X-4318395Y28163368D01*
X-4318395Y27360493D01*
X-4276705Y27368786D01*
X-4276703Y27368786D01*
X-4094724Y27444163D01*
X-4094711Y27444170D01*
X-3930933Y27553604D01*
X-3930929Y27553607D01*
X-3791647Y27692889D01*
X-3791644Y27692893D01*
X-3682210Y27856671D01*
X-3682203Y27856684D01*
X-3606826Y28038662D01*
X-3606823Y28038674D01*
X-3568396Y28231860D01*
X-3568395Y28231863D01*
X-3568395Y28480355D01*
X-4268395Y28480355D01*
X-4268395Y28980355D01*
X-3568395Y28980355D01*
X-3568395Y29228847D01*
X-3568396Y29228851D01*
X-3606823Y29422037D01*
X-3606825Y29422045D01*
X-3650732Y29528047D01*
X-3658201Y29597517D01*
X-3626926Y29659996D01*
X-3566837Y29695648D01*
X-3536171Y29699500D01*
X3039381Y29699500D01*
X3106420Y29679815D01*
X3152175Y29627011D01*
X3162119Y29557853D01*
X3153942Y29528047D01*
X3110034Y29422045D01*
X3110032Y29422037D01*
X3071605Y29228851D01*
X3071605Y28980355D01*
X3771605Y28980355D01*
X3771605Y28480355D01*
X3071605Y28480355D01*
X3071605Y28231860D01*
X3110032Y28038674D01*
X3110035Y28038662D01*
X3185412Y27856684D01*
X3185419Y27856671D01*
X3294853Y27692893D01*
X3294856Y27692889D01*
X3434138Y27553607D01*
X3434142Y27553604D01*
X3597920Y27444170D01*
X3597933Y27444163D01*
X3779913Y27368786D01*
X3821605Y27360493D01*
X3821605Y28163368D01*
X3831545Y28146151D01*
X3887400Y28090296D01*
X3955809Y28050800D01*
X4032109Y28030356D01*
X4111101Y28030356D01*
X4187401Y28050800D01*
X4255810Y28090296D01*
X4311665Y28146151D01*
X4321605Y28163368D01*
X4321605Y27360493D01*
X4363295Y27368786D01*
X4363297Y27368786D01*
X4545276Y27444163D01*
X4545289Y27444170D01*
X4709067Y27553604D01*
X4709071Y27553607D01*
X4848353Y27692889D01*
X4848356Y27692893D01*
X4957790Y27856671D01*
X4957797Y27856684D01*
X5033174Y28038662D01*
X5033177Y28038674D01*
X5071604Y28231860D01*
X5071605Y28231863D01*
X5071605Y28480355D01*
X4371605Y28480355D01*
X4371605Y28980355D01*
X5071605Y28980355D01*
X5071605Y29228847D01*
X5071604Y29228851D01*
X5033177Y29422037D01*
X5033175Y29422045D01*
X4989268Y29528047D01*
X4981799Y29597517D01*
X5013074Y29659996D01*
X5073163Y29695648D01*
X5103829Y29699500D01*
X19077033Y29699500D01*
X19144072Y29679815D01*
X19189827Y29627011D01*
X19201031Y29575950D01*
X19403676Y-26465554D01*
X19411304Y-28575052D01*
X19391862Y-28642162D01*
X19339224Y-28688107D01*
X19287305Y-28699500D01*
X-26578903Y-28699500D01*
X-26645942Y-28679815D01*
X-26691697Y-28627011D01*
X-26702899Y-28576498D01*
X-26705451Y-28259481D01*
X-26720218Y-26424729D01*
X-4946074Y-26424729D01*
X-4946074Y-26654118D01*
X-4946073Y-26654134D01*
X-4916132Y-26881561D01*
X-4856756Y-27103154D01*
X-4768972Y-27315083D01*
X-4768968Y-27315093D01*
X-4654275Y-27513748D01*
X-4654269Y-27513755D01*
X-4597693Y-27587488D01*
X-3873663Y-26863458D01*
X-3860727Y-26894688D01*
X-3778647Y-27017529D01*
X-3674179Y-27121997D01*
X-3551338Y-27204077D01*
X-3520110Y-27217012D01*
X-4244140Y-27941041D01*
X-4244140Y-27941042D01*
X-4170408Y-27997618D01*
X-3971744Y-28112317D01*
X-3971734Y-28112321D01*
X-3759805Y-28200105D01*
X-3538212Y-28259481D01*
X-3310785Y-28289422D01*
X-3310768Y-28289424D01*
X-3081380Y-28289424D01*
X-3081364Y-28289422D01*
X-2853937Y-28259481D01*
X-2632344Y-28200105D01*
X-2420415Y-28112321D01*
X-2420406Y-28112317D01*
X-2221747Y-27997621D01*
X-2221740Y-27997616D01*
X-2148010Y-27941041D01*
X-2872039Y-27217012D01*
X-2840810Y-27204077D01*
X-2717969Y-27121997D01*
X-2613501Y-27017529D01*
X-2531421Y-26894688D01*
X-2518486Y-26863459D01*
X-1794457Y-27587488D01*
X-1737882Y-27513758D01*
X-1737877Y-27513751D01*
X-1623181Y-27315092D01*
X-1623177Y-27315083D01*
X-1535393Y-27103154D01*
X-1476017Y-26881561D01*
X-1446076Y-26654134D01*
X-1446074Y-26654118D01*
X-1446074Y-26424729D01*
X133936Y-26424729D01*
X133936Y-26654118D01*
X133937Y-26654134D01*
X163878Y-26881561D01*
X223254Y-27103154D01*
X311038Y-27315083D01*
X311042Y-27315093D01*
X425735Y-27513748D01*
X425741Y-27513755D01*
X482317Y-27587488D01*
X1206347Y-26863458D01*
X1219283Y-26894688D01*
X1301363Y-27017529D01*
X1405831Y-27121997D01*
X1528672Y-27204077D01*
X1559900Y-27217012D01*
X835870Y-27941041D01*
X835870Y-27941042D01*
X909602Y-27997618D01*
X1108266Y-28112317D01*
X1108276Y-28112321D01*
X1320205Y-28200105D01*
X1541798Y-28259481D01*
X1769225Y-28289422D01*
X1769242Y-28289424D01*
X1998630Y-28289424D01*
X1998646Y-28289422D01*
X2226073Y-28259481D01*
X2447666Y-28200105D01*
X2659595Y-28112321D01*
X2659604Y-28112317D01*
X2858263Y-27997621D01*
X2858270Y-27997616D01*
X2932000Y-27941041D01*
X2207971Y-27217012D01*
X2239200Y-27204077D01*
X2362041Y-27121997D01*
X2466509Y-27017529D01*
X2548589Y-26894688D01*
X2561524Y-26863459D01*
X3285553Y-27587488D01*
X3342128Y-27513758D01*
X3342133Y-27513751D01*
X3456829Y-27315092D01*
X3456833Y-27315083D01*
X3544617Y-27103154D01*
X3603993Y-26881561D01*
X3633934Y-26654134D01*
X3633936Y-26654118D01*
X3633936Y-26424729D01*
X3633934Y-26424713D01*
X3603993Y-26197286D01*
X3544617Y-25975693D01*
X3456833Y-25763764D01*
X3456829Y-25763754D01*
X3342130Y-25565090D01*
X3285554Y-25491358D01*
X3285553Y-25491358D01*
X2561523Y-26215387D01*
X2548589Y-26184160D01*
X2466509Y-26061319D01*
X2362041Y-25956851D01*
X2239200Y-25874771D01*
X2207969Y-25861835D01*
X2932000Y-25137805D01*
X2932000Y-25137804D01*
X2858267Y-25081229D01*
X2858260Y-25081223D01*
X2659605Y-24966530D01*
X2659595Y-24966526D01*
X2447666Y-24878742D01*
X2226073Y-24819366D01*
X1998646Y-24789425D01*
X1998630Y-24789424D01*
X1769242Y-24789424D01*
X1769225Y-24789425D01*
X1541798Y-24819366D01*
X1320205Y-24878742D01*
X1108276Y-24966526D01*
X1108266Y-24966530D01*
X909609Y-25081225D01*
X909595Y-25081234D01*
X835870Y-25137804D01*
X1559900Y-25861835D01*
X1528672Y-25874771D01*
X1405831Y-25956851D01*
X1301363Y-26061319D01*
X1219283Y-26184160D01*
X1206347Y-26215388D01*
X482316Y-25491358D01*
X425746Y-25565083D01*
X425737Y-25565097D01*
X311042Y-25763754D01*
X311038Y-25763764D01*
X223254Y-25975693D01*
X163878Y-26197286D01*
X133937Y-26424713D01*
X133936Y-26424729D01*
X-1446074Y-26424729D01*
X-1446076Y-26424713D01*
X-1476017Y-26197286D01*
X-1535393Y-25975693D01*
X-1623177Y-25763764D01*
X-1623181Y-25763754D01*
X-1737880Y-25565090D01*
X-1794456Y-25491358D01*
X-1794457Y-25491358D01*
X-2518487Y-26215387D01*
X-2531421Y-26184160D01*
X-2613501Y-26061319D01*
X-2717969Y-25956851D01*
X-2840810Y-25874771D01*
X-2872041Y-25861835D01*
X-2148010Y-25137805D01*
X-2148010Y-25137804D01*
X-2221743Y-25081229D01*
X-2221750Y-25081223D01*
X-2420405Y-24966530D01*
X-2420415Y-24966526D01*
X-2632344Y-24878742D01*
X-2853937Y-24819366D01*
X-3081364Y-24789425D01*
X-3081380Y-24789424D01*
X-3310768Y-24789424D01*
X-3310785Y-24789425D01*
X-3538212Y-24819366D01*
X-3759805Y-24878742D01*
X-3971734Y-24966526D01*
X-3971744Y-24966530D01*
X-4170401Y-25081225D01*
X-4170415Y-25081234D01*
X-4244140Y-25137804D01*
X-3520110Y-25861835D01*
X-3551338Y-25874771D01*
X-3674179Y-25956851D01*
X-3778647Y-26061319D01*
X-3860727Y-26184160D01*
X-3873663Y-26215388D01*
X-4597694Y-25491358D01*
X-4654264Y-25565083D01*
X-4654273Y-25565097D01*
X-4768968Y-25763754D01*
X-4768972Y-25763764D01*
X-4856756Y-25975693D01*
X-4916132Y-26197286D01*
X-4946073Y-26424713D01*
X-4946074Y-26424729D01*
X-26720218Y-26424729D01*
X-26740625Y-23889197D01*
X-2056569Y-23889197D01*
X-2056569Y-24109640D01*
X-2022084Y-24327371D01*
X-1953966Y-24537022D01*
X-1953965Y-24537025D01*
X-1853882Y-24733444D01*
X-1724317Y-24911777D01*
X-1724313Y-24911782D01*
X-1568433Y-25067662D01*
X-1568428Y-25067666D01*
X-1412877Y-25180679D01*
X-1390091Y-25197234D01*
X-1261694Y-25262656D01*
X-1193676Y-25297314D01*
X-1193673Y-25297315D01*
X-1088848Y-25331374D01*
X-984020Y-25365434D01*
X-766291Y-25399919D01*
X-766290Y-25399919D01*
X-545848Y-25399919D01*
X-545847Y-25399919D01*
X-328118Y-25365434D01*
X-118463Y-25297314D01*
X77953Y-25197234D01*
X166173Y-25133138D01*
X231826Y-25085440D01*
X231827Y-25085439D01*
X256292Y-25067664D01*
X256292Y-25067663D01*
X256296Y-25067661D01*
X412173Y-24911784D01*
X541746Y-24733441D01*
X641826Y-24537025D01*
X709946Y-24327370D01*
X744431Y-24109641D01*
X744431Y-23889197D01*
X742030Y-23874038D01*
X12899500Y-23874038D01*
X12899500Y-24125961D01*
X12938910Y-24374785D01*
X13016760Y-24614383D01*
X13131132Y-24838848D01*
X13279201Y-25042649D01*
X13279205Y-25042654D01*
X13457345Y-25220794D01*
X13457350Y-25220798D01*
X13635117Y-25349952D01*
X13661155Y-25368870D01*
X13804184Y-25441747D01*
X13885616Y-25483239D01*
X13885618Y-25483239D01*
X13885621Y-25483241D01*
X14125215Y-25561090D01*
X14374038Y-25600500D01*
X14374039Y-25600500D01*
X14625961Y-25600500D01*
X14625962Y-25600500D01*
X14874785Y-25561090D01*
X15114379Y-25483241D01*
X15338845Y-25368870D01*
X15542656Y-25220793D01*
X15720793Y-25042656D01*
X15868870Y-24838845D01*
X15983241Y-24614379D01*
X16061090Y-24374785D01*
X16100500Y-24125962D01*
X16100500Y-23874038D01*
X16061090Y-23625215D01*
X15983241Y-23385621D01*
X15983239Y-23385618D01*
X15983239Y-23385616D01*
X15878202Y-23179471D01*
X15868870Y-23161155D01*
X15815037Y-23087060D01*
X15720798Y-22957350D01*
X15720794Y-22957345D01*
X15542654Y-22779205D01*
X15542649Y-22779201D01*
X15338848Y-22631132D01*
X15338847Y-22631131D01*
X15338845Y-22631130D01*
X15268747Y-22595413D01*
X15114383Y-22516760D01*
X14874785Y-22438910D01*
X14842149Y-22433741D01*
X14625962Y-22399500D01*
X14374038Y-22399500D01*
X14249626Y-22419205D01*
X14125214Y-22438910D01*
X13885616Y-22516760D01*
X13661151Y-22631132D01*
X13457350Y-22779201D01*
X13457345Y-22779205D01*
X13279205Y-22957345D01*
X13279201Y-22957350D01*
X13131132Y-23161151D01*
X13016760Y-23385616D01*
X12938910Y-23625214D01*
X12899500Y-23874038D01*
X742030Y-23874038D01*
X709946Y-23671468D01*
X641826Y-23461813D01*
X641826Y-23461812D01*
X603001Y-23385616D01*
X541746Y-23265397D01*
X501071Y-23209412D01*
X412178Y-23087060D01*
X412174Y-23087055D01*
X256296Y-22931177D01*
X231825Y-22913398D01*
X231823Y-22913395D01*
X77956Y-22801606D01*
X77955Y-22801605D01*
X77953Y-22801604D01*
X15027Y-22769541D01*
X-118463Y-22701523D01*
X-118466Y-22701522D01*
X-328117Y-22633404D01*
X-436983Y-22616161D01*
X-545847Y-22598919D01*
X-766291Y-22598919D01*
X-838868Y-22610414D01*
X-984022Y-22633404D01*
X-1193673Y-22701522D01*
X-1193676Y-22701523D01*
X-1390095Y-22801606D01*
X-1568428Y-22931171D01*
X-1568433Y-22931175D01*
X-1724313Y-23087055D01*
X-1724317Y-23087060D01*
X-1853882Y-23265393D01*
X-1953965Y-23461812D01*
X-1953966Y-23461815D01*
X-2022084Y-23671466D01*
X-2056569Y-23889197D01*
X-26740625Y-23889197D01*
X-26761105Y-21344719D01*
X-4946074Y-21344719D01*
X-4946074Y-21574108D01*
X-4946073Y-21574124D01*
X-4916132Y-21801551D01*
X-4856756Y-22023144D01*
X-4768972Y-22235073D01*
X-4768968Y-22235083D01*
X-4654275Y-22433738D01*
X-4654269Y-22433745D01*
X-4597693Y-22507478D01*
X-3873663Y-21783448D01*
X-3860727Y-21814678D01*
X-3778647Y-21937519D01*
X-3674179Y-22041987D01*
X-3551338Y-22124067D01*
X-3520110Y-22137002D01*
X-4244140Y-22861031D01*
X-4244140Y-22861032D01*
X-4170408Y-22917608D01*
X-3971744Y-23032307D01*
X-3971734Y-23032311D01*
X-3759805Y-23120095D01*
X-3538212Y-23179471D01*
X-3310785Y-23209412D01*
X-3310768Y-23209414D01*
X-3081380Y-23209414D01*
X-3081364Y-23209412D01*
X-2853937Y-23179471D01*
X-2632344Y-23120095D01*
X-2420415Y-23032311D01*
X-2420406Y-23032307D01*
X-2221747Y-22917611D01*
X-2221740Y-22917606D01*
X-2148010Y-22861031D01*
X-2872039Y-22137002D01*
X-2840810Y-22124067D01*
X-2717969Y-22041987D01*
X-2613501Y-21937519D01*
X-2531421Y-21814678D01*
X-2518486Y-21783449D01*
X-1794457Y-22507478D01*
X-1737882Y-22433748D01*
X-1737877Y-22433741D01*
X-1623181Y-22235082D01*
X-1623177Y-22235073D01*
X-1535393Y-22023144D01*
X-1476017Y-21801551D01*
X-1446076Y-21574124D01*
X-1446074Y-21574108D01*
X-1446074Y-21344719D01*
X133936Y-21344719D01*
X133936Y-21574108D01*
X133937Y-21574124D01*
X163878Y-21801551D01*
X223254Y-22023144D01*
X311038Y-22235073D01*
X311042Y-22235083D01*
X425735Y-22433738D01*
X425741Y-22433745D01*
X482317Y-22507478D01*
X1206347Y-21783448D01*
X1219283Y-21814678D01*
X1301363Y-21937519D01*
X1405831Y-22041987D01*
X1528672Y-22124067D01*
X1559900Y-22137002D01*
X835870Y-22861031D01*
X835870Y-22861032D01*
X909602Y-22917608D01*
X1108266Y-23032307D01*
X1108276Y-23032311D01*
X1320205Y-23120095D01*
X1541798Y-23179471D01*
X1769225Y-23209412D01*
X1769242Y-23209414D01*
X1998630Y-23209414D01*
X1998646Y-23209412D01*
X2226073Y-23179471D01*
X2447666Y-23120095D01*
X2659595Y-23032311D01*
X2659604Y-23032307D01*
X2858263Y-22917611D01*
X2858270Y-22917606D01*
X2932000Y-22861031D01*
X2207971Y-22137002D01*
X2239200Y-22124067D01*
X2362041Y-22041987D01*
X2466509Y-21937519D01*
X2548589Y-21814678D01*
X2561524Y-21783449D01*
X3285553Y-22507478D01*
X3342128Y-22433748D01*
X3342133Y-22433741D01*
X3456829Y-22235082D01*
X3456833Y-22235073D01*
X3544617Y-22023144D01*
X3603993Y-21801551D01*
X3633934Y-21574124D01*
X3633936Y-21574108D01*
X3633936Y-21344719D01*
X3633934Y-21344703D01*
X3603993Y-21117276D01*
X3544617Y-20895683D01*
X3456833Y-20683754D01*
X3456829Y-20683744D01*
X3342130Y-20485080D01*
X3285554Y-20411348D01*
X3285553Y-20411348D01*
X2561523Y-21135377D01*
X2548589Y-21104150D01*
X2466509Y-20981309D01*
X2362041Y-20876841D01*
X2239200Y-20794761D01*
X2207969Y-20781825D01*
X2932000Y-20057795D01*
X2932000Y-20057794D01*
X2858267Y-20001219D01*
X2858260Y-20001213D01*
X2659605Y-19886520D01*
X2659595Y-19886516D01*
X2447666Y-19798732D01*
X2226073Y-19739356D01*
X1998646Y-19709415D01*
X1998630Y-19709414D01*
X1769242Y-19709414D01*
X1769225Y-19709415D01*
X1541798Y-19739356D01*
X1320205Y-19798732D01*
X1108276Y-19886516D01*
X1108266Y-19886520D01*
X909609Y-20001215D01*
X909595Y-20001224D01*
X835870Y-20057794D01*
X1559900Y-20781825D01*
X1528672Y-20794761D01*
X1405831Y-20876841D01*
X1301363Y-20981309D01*
X1219283Y-21104150D01*
X1206347Y-21135378D01*
X482316Y-20411348D01*
X425746Y-20485073D01*
X425737Y-20485087D01*
X311042Y-20683744D01*
X311038Y-20683754D01*
X223254Y-20895683D01*
X163878Y-21117276D01*
X133937Y-21344703D01*
X133936Y-21344719D01*
X-1446074Y-21344719D01*
X-1446076Y-21344703D01*
X-1476017Y-21117276D01*
X-1535393Y-20895683D01*
X-1623177Y-20683754D01*
X-1623181Y-20683744D01*
X-1737880Y-20485080D01*
X-1794456Y-20411348D01*
X-1794457Y-20411348D01*
X-2518487Y-21135377D01*
X-2531421Y-21104150D01*
X-2613501Y-20981309D01*
X-2717969Y-20876841D01*
X-2840810Y-20794761D01*
X-2872041Y-20781825D01*
X-2148010Y-20057795D01*
X-2148010Y-20057794D01*
X-2221743Y-20001219D01*
X-2221750Y-20001213D01*
X-2420405Y-19886520D01*
X-2420415Y-19886516D01*
X-2632344Y-19798732D01*
X-2853937Y-19739356D01*
X-3081364Y-19709415D01*
X-3081380Y-19709414D01*
X-3310768Y-19709414D01*
X-3310785Y-19709415D01*
X-3538212Y-19739356D01*
X-3759805Y-19798732D01*
X-3971734Y-19886516D01*
X-3971744Y-19886520D01*
X-4170401Y-20001215D01*
X-4170415Y-20001224D01*
X-4244140Y-20057794D01*
X-3520110Y-20781825D01*
X-3551338Y-20794761D01*
X-3674179Y-20876841D01*
X-3778647Y-20981309D01*
X-3860727Y-21104150D01*
X-3873663Y-21135378D01*
X-4597694Y-20411348D01*
X-4654264Y-20485073D01*
X-4654273Y-20485087D01*
X-4768968Y-20683744D01*
X-4768972Y-20683754D01*
X-4856756Y-20895683D01*
X-4916132Y-21117276D01*
X-4946073Y-21344703D01*
X-4946074Y-21344719D01*
X-26761105Y-21344719D01*
X-26761130Y-21341652D01*
X-26771069Y-20106746D01*
X-26825259Y-13374038D01*
X12899500Y-13374038D01*
X12899500Y-13625961D01*
X12938910Y-13874785D01*
X13016760Y-14114383D01*
X13131132Y-14338848D01*
X13279201Y-14542649D01*
X13279205Y-14542654D01*
X13457345Y-14720794D01*
X13457350Y-14720798D01*
X13635117Y-14849952D01*
X13661155Y-14868870D01*
X13804184Y-14941747D01*
X13885616Y-14983239D01*
X13885618Y-14983239D01*
X13885621Y-14983241D01*
X14125215Y-15061090D01*
X14374038Y-15100500D01*
X14374039Y-15100500D01*
X14625961Y-15100500D01*
X14625962Y-15100500D01*
X14874785Y-15061090D01*
X15114379Y-14983241D01*
X15338845Y-14868870D01*
X15542656Y-14720793D01*
X15720793Y-14542656D01*
X15868870Y-14338845D01*
X15983241Y-14114379D01*
X16061090Y-13874785D01*
X16100500Y-13625962D01*
X16100500Y-13374038D01*
X16061090Y-13125215D01*
X15983241Y-12885621D01*
X15983239Y-12885618D01*
X15983239Y-12885616D01*
X15941747Y-12804184D01*
X15868870Y-12661155D01*
X15849952Y-12635117D01*
X15720798Y-12457350D01*
X15720794Y-12457345D01*
X15542654Y-12279205D01*
X15542649Y-12279201D01*
X15338848Y-12131132D01*
X15338847Y-12131131D01*
X15338845Y-12131130D01*
X15268747Y-12095413D01*
X15114383Y-12016760D01*
X14874785Y-11938910D01*
X14625962Y-11899500D01*
X14374038Y-11899500D01*
X14249626Y-11919205D01*
X14125214Y-11938910D01*
X13885616Y-12016760D01*
X13661151Y-12131132D01*
X13457350Y-12279201D01*
X13457345Y-12279205D01*
X13279205Y-12457345D01*
X13279201Y-12457350D01*
X13131132Y-12661151D01*
X13016760Y-12885616D01*
X12938910Y-13125214D01*
X12899500Y-13374038D01*
X-26825259Y-13374038D01*
X-26825290Y-13370164D01*
X-26877039Y-6940691D01*
X-9200503Y-6940691D01*
X-9200503Y-7059309D01*
X-9169802Y-7173886D01*
X-9110492Y-7276613D01*
X-9026616Y-7360489D01*
X-8923889Y-7419799D01*
X-8809312Y-7450500D01*
X-8809309Y-7450500D01*
X-8690697Y-7450500D01*
X-8690694Y-7450500D01*
X-8576117Y-7419799D01*
X-8473390Y-7360489D01*
X-8462682Y-7349780D01*
X-8401364Y-7316297D01*
X-8331672Y-7321279D01*
X-8287321Y-7349781D01*
X-8276613Y-7360489D01*
X-8173886Y-7419799D01*
X-8059309Y-7450500D01*
X-8059306Y-7450500D01*
X-7940694Y-7450500D01*
X-7940691Y-7450500D01*
X-7826114Y-7419799D01*
X-7723387Y-7360489D01*
X-7639511Y-7276613D01*
X-7580201Y-7173886D01*
X-7549500Y-7059309D01*
X-7549500Y-6940691D01*
X-7580201Y-6826114D01*
X-7639511Y-6723387D01*
X-7723387Y-6639511D01*
X-7826114Y-6580201D01*
X-7940691Y-6549500D01*
X-8059309Y-6549500D01*
X-8173886Y-6580201D01*
X-8173888Y-6580201D01*
X-8173888Y-6580202D01*
X-8276613Y-6639511D01*
X-8276614Y-6639511D01*
X-8287323Y-6650221D01*
X-8348648Y-6683704D01*
X-8418339Y-6678717D01*
X-8462683Y-6650218D01*
X-8473388Y-6639513D01*
X-8473390Y-6639511D01*
X-8576117Y-6580201D01*
X-8690694Y-6549500D01*
X-8809312Y-6549500D01*
X-8923889Y-6580201D01*
X-8923891Y-6580201D01*
X-8923891Y-6580202D01*
X-9026616Y-6639511D01*
X-9026619Y-6639513D01*
X-9110490Y-6723384D01*
X-9110492Y-6723387D01*
X-9169802Y-6826114D01*
X-9200503Y-6940691D01*
X-26877039Y-6940691D01*
X-26877096Y-6933562D01*
X-26925331Y-940691D01*
X-7950500Y-940691D01*
X-7950500Y-1059309D01*
X-7919799Y-1173886D01*
X-7860489Y-1276613D01*
X-7776613Y-1360489D01*
X-7673886Y-1419799D01*
X-7559309Y-1450500D01*
X-7559306Y-1450500D01*
X-7440694Y-1450500D01*
X-7440691Y-1450500D01*
X-7326114Y-1419799D01*
X-7223387Y-1360489D01*
X-7139511Y-1276613D01*
X-7080201Y-1173886D01*
X-7075980Y-1158132D01*
X-7039619Y-1098474D01*
X-6976773Y-1067943D01*
X-6924115Y-1070449D01*
X-6872683Y-1084231D01*
X-6872681Y-1084231D01*
X-6754068Y-1084231D01*
X-6754065Y-1084231D01*
X-6639488Y-1053530D01*
X-6536761Y-994220D01*
X-6452885Y-910344D01*
X-6393575Y-807617D01*
X-6362874Y-693040D01*
X-6362874Y-574422D01*
X-6393575Y-459845D01*
X-6452885Y-357118D01*
X-6536761Y-273242D01*
X-6639488Y-213932D01*
X-6754065Y-183231D01*
X-6872683Y-183231D01*
X-6987260Y-213932D01*
X-6987262Y-213932D01*
X-6987262Y-213933D01*
X-7089987Y-273242D01*
X-7089990Y-273244D01*
X-7173861Y-357115D01*
X-7173863Y-357118D01*
X-7233174Y-459845D01*
X-7233174Y-459846D01*
X-7237395Y-475600D01*
X-7273760Y-535260D01*
X-7336608Y-565788D01*
X-7389261Y-563280D01*
X-7440690Y-549500D01*
X-7440691Y-549500D01*
X-7559309Y-549500D01*
X-7673886Y-580201D01*
X-7673888Y-580201D01*
X-7673888Y-580202D01*
X-7776613Y-639511D01*
X-7776616Y-639513D01*
X-7860487Y-723384D01*
X-7860489Y-723387D01*
X-7919799Y-826114D01*
X-7950500Y-940691D01*
X-26925331Y-940691D01*
X-26925388Y-933562D01*
X-26970244Y4639512D01*
X-26971228Y4761708D01*
X-26971182Y4766208D01*
X-26970109Y4804136D01*
X-26969645Y4820538D01*
X-26969152Y4828622D01*
X-26946311Y5071146D01*
X-26943623Y5087646D01*
X-26906075Y5248739D01*
X-26899557Y5268795D01*
X-26855527Y5373128D01*
X-26843381Y5395288D01*
X-26798664Y5460149D01*
X-26779992Y5481508D01*
X-26779736Y5481740D01*
X-26722785Y5533512D01*
X-26705276Y5546796D01*
X-26686875Y5558338D01*
X-26674255Y5565265D01*
X-26638879Y5582082D01*
X-26626022Y5587331D01*
X-26619835Y5589462D01*
X-26580399Y5603042D01*
X-26567890Y5606626D01*
X-26511606Y5619592D01*
X-26499751Y5621721D01*
X-26427000Y5631155D01*
X-26416068Y5632081D01*
X-26327402Y5635651D01*
X-26320979Y5635909D01*
X-26315992Y5636009D01*
X-24026864Y5636009D01*
X-24026386Y5636041D01*
X-23956340Y5636039D01*
X-23722336Y5666840D01*
X-23494356Y5727922D01*
X-23276298Y5818239D01*
X-23071896Y5936247D01*
X-22911513Y6059309D01*
X8549500Y6059309D01*
X8549500Y5940691D01*
X8580201Y5826114D01*
X8639511Y5723387D01*
X8723387Y5639511D01*
X8779027Y5607387D01*
X8827242Y5556819D01*
X8840464Y5488212D01*
X8814496Y5423347D01*
X8779027Y5392613D01*
X8723387Y5360489D01*
X8723384Y5360487D01*
X8639513Y5276616D01*
X8639511Y5276613D01*
X8581598Y5176305D01*
X8580201Y5173886D01*
X8549500Y5059309D01*
X8549500Y4940691D01*
X8580201Y4826114D01*
X8639511Y4723387D01*
X8723387Y4639511D01*
X8826114Y4580201D01*
X8940691Y4549500D01*
X8940694Y4549500D01*
X9059306Y4549500D01*
X9059309Y4549500D01*
X9173886Y4580201D01*
X9276613Y4639511D01*
X9360489Y4723387D01*
X9392613Y4779028D01*
X9443180Y4827243D01*
X9511787Y4840465D01*
X9576652Y4814497D01*
X9607386Y4779028D01*
X9639511Y4723387D01*
X9723387Y4639511D01*
X9826114Y4580201D01*
X9940691Y4549500D01*
X9940694Y4549500D01*
X10059306Y4549500D01*
X10059309Y4549500D01*
X10173886Y4580201D01*
X10276613Y4639511D01*
X10360489Y4723387D01*
X10419799Y4826114D01*
X10450500Y4940691D01*
X10450500Y5059309D01*
X10419799Y5173886D01*
X10360489Y5276613D01*
X10276613Y5360489D01*
X10220972Y5392614D01*
X10172757Y5443180D01*
X10159535Y5511787D01*
X10185503Y5576652D01*
X10220973Y5607387D01*
X10276613Y5639511D01*
X10360489Y5723387D01*
X10419799Y5826114D01*
X10450500Y5940691D01*
X10450500Y6059309D01*
X10419799Y6173886D01*
X10360489Y6276613D01*
X10276613Y6360489D01*
X10173886Y6419799D01*
X10059309Y6450500D01*
X9940691Y6450500D01*
X9826114Y6419799D01*
X9826112Y6419799D01*
X9826112Y6419798D01*
X9723387Y6360489D01*
X9723384Y6360487D01*
X9639513Y6276616D01*
X9639511Y6276613D01*
X9613758Y6232007D01*
X9607387Y6220973D01*
X9556819Y6172758D01*
X9488212Y6159536D01*
X9423347Y6185504D01*
X9392613Y6220973D01*
X9386778Y6231079D01*
X9360489Y6276613D01*
X9276613Y6360489D01*
X9173886Y6419799D01*
X9059309Y6450500D01*
X8940691Y6450500D01*
X8826114Y6419799D01*
X8826112Y6419799D01*
X8826112Y6419798D01*
X8723387Y6360489D01*
X8723384Y6360487D01*
X8639513Y6276616D01*
X8639511Y6276613D01*
X8585878Y6183718D01*
X8580201Y6173886D01*
X8549500Y6059309D01*
X-22911513Y6059309D01*
X-22884645Y6079925D01*
X-22874657Y6089913D01*
X-22809449Y6155118D01*
X-22717756Y6246810D01*
X-22717756Y6246811D01*
X-22717751Y6246815D01*
X-22574069Y6434063D01*
X-22456057Y6638463D01*
X-22365735Y6856518D01*
X-22304648Y7084498D01*
X-22273842Y7318500D01*
X-22273842Y7436511D01*
X-22273842Y7484105D01*
X-22273842Y8476071D01*
X-22273842Y8520645D01*
X-22308828Y8685240D01*
X-22377270Y8838963D01*
X-22476178Y8975098D01*
X-22601228Y9087694D01*
X-22746956Y9171830D01*
X-22746962Y9171833D01*
X-22906989Y9223828D01*
X-22906992Y9223829D01*
X-23074342Y9241418D01*
X-23241692Y9223829D01*
X-23241695Y9223829D01*
X-23241696Y9223828D01*
X-23401723Y9171833D01*
X-23401729Y9171830D01*
X-23547455Y9087695D01*
X-23672505Y8975100D01*
X-23771415Y8838963D01*
X-23839855Y8685245D01*
X-23839857Y8685240D01*
X-23862741Y8577577D01*
X-23874842Y8520645D01*
X-23874842Y8476071D01*
X-23874842Y7984105D01*
X-23874843Y7984101D01*
X-23874843Y7964734D01*
X-23874843Y7946225D01*
X-23874843Y7942598D01*
X-23875440Y7930445D01*
X-23887085Y7812201D01*
X-23891827Y7788359D01*
X-23924541Y7680515D01*
X-23933844Y7658056D01*
X-23986970Y7558666D01*
X-24000476Y7538454D01*
X-24071968Y7451343D01*
X-24089157Y7434154D01*
X-24176275Y7362661D01*
X-24196487Y7349157D01*
X-24295876Y7296035D01*
X-24318337Y7286732D01*
X-24426184Y7254022D01*
X-24450025Y7249281D01*
X-24568326Y7237634D01*
X-24580971Y7237038D01*
X-26775549Y7245812D01*
X-26775594Y7245812D01*
X-26785695Y7245857D01*
X-26786254Y7246038D01*
X-26828023Y7246041D01*
X-26828324Y7246042D01*
X-26828425Y7246072D01*
X-26839874Y7246632D01*
X-26957453Y7258152D01*
X-26981162Y7262841D01*
X-27088453Y7295195D01*
X-27110800Y7304394D01*
X-27195112Y7349157D01*
X-27209773Y7356941D01*
X-27229906Y7370296D01*
X-27316813Y7441047D01*
X-27333979Y7458059D01*
X-27355577Y7484105D01*
X-27405507Y7544319D01*
X-27419045Y7564334D01*
X-27472486Y7662834D01*
X-27481883Y7685094D01*
X-27515201Y7792085D01*
X-27520104Y7815748D01*
X-27532664Y7933019D01*
X-27533369Y7946225D01*
X-27533351Y10615925D01*
X-17594054Y10615925D01*
X-17594054Y10497307D01*
X-17563353Y10382730D01*
X-17504043Y10280003D01*
X-17420167Y10196127D01*
X-17317440Y10136817D01*
X-17202863Y10106116D01*
X-17202860Y10106116D01*
X-17084248Y10106116D01*
X-17084245Y10106116D01*
X-16969668Y10136817D01*
X-16866941Y10196127D01*
X-16783065Y10280003D01*
X-16723755Y10382730D01*
X-16693054Y10497307D01*
X-16693054Y10615925D01*
X-16723755Y10730502D01*
X-16783065Y10833229D01*
X-16866941Y10917105D01*
X-16969668Y10976415D01*
X-17084245Y11007116D01*
X-17202863Y11007116D01*
X-17317440Y10976415D01*
X-17317442Y10976415D01*
X-17317442Y10976414D01*
X-17420167Y10917105D01*
X-17420170Y10917103D01*
X-17504041Y10833232D01*
X-17504043Y10833229D01*
X-17561113Y10734381D01*
X-17563353Y10730502D01*
X-17594054Y10615925D01*
X-27533351Y10615925D01*
X-27533351Y10624053D01*
X-27533351Y10661513D01*
X-27533348Y11140619D01*
X4968190Y11140619D01*
X4968190Y11022001D01*
X4998891Y10907424D01*
X5058201Y10804697D01*
X5142077Y10720821D01*
X5244804Y10661511D01*
X5359381Y10630810D01*
X5359384Y10630810D01*
X5477996Y10630810D01*
X5477999Y10630810D01*
X5592576Y10661511D01*
X5695303Y10720821D01*
X5779179Y10804697D01*
X5838489Y10907424D01*
X5869190Y11022001D01*
X5869190Y11140619D01*
X5849664Y11213489D01*
X7549499Y11213489D01*
X7549499Y11094871D01*
X7580200Y10980294D01*
X7639510Y10877567D01*
X7723386Y10793691D01*
X7826113Y10734381D01*
X7940690Y10703680D01*
X7940693Y10703680D01*
X8059305Y10703680D01*
X8059308Y10703680D01*
X8173885Y10734381D01*
X8276612Y10793691D01*
X8360488Y10877567D01*
X8419798Y10980294D01*
X8450499Y11094871D01*
X8450499Y11213489D01*
X8419798Y11328066D01*
X8360488Y11430793D01*
X8276612Y11514669D01*
X8173885Y11573979D01*
X8059308Y11604680D01*
X7940690Y11604680D01*
X7826113Y11573979D01*
X7826111Y11573979D01*
X7826111Y11573978D01*
X7723386Y11514669D01*
X7723383Y11514667D01*
X7639512Y11430796D01*
X7639510Y11430793D01*
X7580200Y11328066D01*
X7549499Y11213489D01*
X5849664Y11213489D01*
X5838489Y11255196D01*
X5779179Y11357923D01*
X5695303Y11441799D01*
X5592576Y11501109D01*
X5477999Y11531810D01*
X5359381Y11531810D01*
X5244804Y11501109D01*
X5244802Y11501109D01*
X5244802Y11501108D01*
X5142077Y11441799D01*
X5142074Y11441797D01*
X5058203Y11357926D01*
X5058201Y11357923D01*
X4998891Y11255196D01*
X4968190Y11140619D01*
X-27533348Y11140619D01*
X-27533342Y12028226D01*
X-18350477Y12028226D01*
X-18350477Y11909608D01*
X-18319776Y11795031D01*
X-18260466Y11692304D01*
X-18176590Y11608428D01*
X-18073863Y11549118D01*
X-17959286Y11518417D01*
X-17959283Y11518417D01*
X-17840671Y11518417D01*
X-17840668Y11518417D01*
X-17726091Y11549118D01*
X-17623364Y11608428D01*
X-17539488Y11692304D01*
X-17480178Y11795031D01*
X-17449477Y11909608D01*
X-17449477Y12028226D01*
X-17480178Y12142803D01*
X-17539488Y12245530D01*
X-17623364Y12329406D01*
X-17726091Y12388716D01*
X-17840668Y12419417D01*
X-17959286Y12419417D01*
X-18073863Y12388716D01*
X-18073865Y12388716D01*
X-18073865Y12388715D01*
X-18176590Y12329406D01*
X-18176593Y12329404D01*
X-18260464Y12245533D01*
X-18260466Y12245530D01*
X-18319776Y12142803D01*
X-18350477Y12028226D01*
X-27533342Y12028226D01*
X-27533323Y14927234D01*
X-27532618Y14940421D01*
X-27519956Y15058465D01*
X-27515050Y15082120D01*
X-27481345Y15190296D01*
X-27471948Y15212546D01*
X-27417891Y15312147D01*
X-27404357Y15332148D01*
X-27332016Y15419363D01*
X-27314856Y15436366D01*
X-27226971Y15507895D01*
X-27206847Y15521240D01*
X-27106751Y15574369D01*
X-27084416Y15583559D01*
X-26975927Y15616260D01*
X-26952224Y15620945D01*
X-26832640Y15632649D01*
X-26820717Y15633238D01*
X-26816769Y15633242D01*
X-26816662Y15633242D01*
X-26779781Y15633240D01*
X-26779780Y15633241D01*
X-26770387Y15633240D01*
X-26769637Y15633301D01*
X-24580478Y15636002D01*
X-24568198Y15635406D01*
X-24450014Y15623770D01*
X-24426176Y15619030D01*
X-24334420Y15591200D01*
X-24318319Y15586316D01*
X-24295861Y15577014D01*
X-24196461Y15523888D01*
X-24176254Y15510388D01*
X-24089126Y15438888D01*
X-24071940Y15421703D01*
X-24000433Y15334576D01*
X-23986931Y15314369D01*
X-23933801Y15214974D01*
X-23924498Y15192516D01*
X-23891780Y15084665D01*
X-23887037Y15060824D01*
X-23875439Y14943085D01*
X-23874842Y14930929D01*
X-23874842Y14352374D01*
X-23850321Y14237009D01*
X-23839856Y14187778D01*
X-23771414Y14034054D01*
X-23672506Y13897920D01*
X-23672505Y13897919D01*
X-23672504Y13897918D01*
X-23672502Y13897915D01*
X-23596435Y13829425D01*
X-23547456Y13785324D01*
X-23401728Y13701188D01*
X-23401726Y13701188D01*
X-23401723Y13701186D01*
X-23345878Y13683042D01*
X-23241692Y13649189D01*
X-23074342Y13631600D01*
X-22906992Y13649189D01*
X-22746956Y13701188D01*
X-22601228Y13785324D01*
X-22503271Y13873526D01*
X-22476183Y13897915D01*
X-22476183Y13897917D01*
X-22476178Y13897920D01*
X-22377270Y14034054D01*
X-22308828Y14187778D01*
X-22273842Y14352373D01*
X-22273842Y14436509D01*
X-22273842Y14484104D01*
X-22273842Y15385099D01*
X-22273792Y15385273D01*
X-22273792Y15436511D01*
X-22273791Y15436511D01*
X-22273792Y15554524D01*
X-22304602Y15788531D01*
X-22365692Y16016514D01*
X-22456018Y16234573D01*
X-22574034Y16438977D01*
X-22717720Y16626227D01*
X-22884619Y16793120D01*
X-22884624Y16793124D01*
X-22884627Y16793127D01*
X-23071869Y16936797D01*
X-23071874Y16936800D01*
X-23276282Y17054809D01*
X-23276286Y17054811D01*
X-23276290Y17054813D01*
X-23276293Y17054814D01*
X-23494344Y17145128D01*
X-23545038Y17158710D01*
X-23722329Y17206210D01*
X-23722332Y17206211D01*
X-23834426Y17220966D01*
X-23956337Y17237012D01*
X-23956342Y17237012D01*
X-24026857Y17237012D01*
X-24034964Y17237012D01*
X-24035125Y17237054D01*
X-24074256Y17237011D01*
X-24075491Y17237010D01*
X-24075498Y17237009D01*
X-24130995Y17237009D01*
X-24131817Y17236944D01*
X-26537135Y17234181D01*
X-26542032Y17234272D01*
X-26644623Y17238209D01*
X-26655164Y17239065D01*
X-26735204Y17249014D01*
X-26746757Y17251009D01*
X-26807789Y17264545D01*
X-26820108Y17267952D01*
X-26869646Y17284444D01*
X-26882449Y17289512D01*
X-26919473Y17306603D01*
X-26932216Y17313412D01*
X-26951202Y17325028D01*
X-26969133Y17338359D01*
X-26982142Y17349989D01*
X-27024519Y17387875D01*
X-27043898Y17409842D01*
X-27084562Y17468714D01*
X-27097194Y17491974D01*
X-27136496Y17587424D01*
X-27143101Y17608737D01*
X-27175127Y17758690D01*
X-27177595Y17776451D01*
X-27192600Y18004603D01*
X-27192860Y18014077D01*
X-27192443Y18052785D01*
X-27191917Y18060186D01*
X-27191917Y18100870D01*
X-27191910Y18102205D01*
X-27191875Y18105469D01*
X-27191508Y18139509D01*
X-27191509Y18139513D01*
X-27191472Y18142944D01*
X-27191917Y18150353D01*
X-27191917Y26125962D01*
X-24100500Y26125962D01*
X-24100500Y25874038D01*
X-24094926Y25838845D01*
X-24061090Y25625215D01*
X-23983240Y25385617D01*
X-23868868Y25161152D01*
X-23720799Y24957351D01*
X-23720795Y24957346D01*
X-23542655Y24779206D01*
X-23542650Y24779202D01*
X-23429495Y24696991D01*
X-23338845Y24631130D01*
X-23195816Y24558253D01*
X-23114384Y24516761D01*
X-23114382Y24516761D01*
X-23114379Y24516759D01*
X-22874785Y24438910D01*
X-22625962Y24399500D01*
X-22625961Y24399500D01*
X-22374039Y24399500D01*
X-22374038Y24399500D01*
X-22125215Y24438910D01*
X-21885621Y24516759D01*
X-21661155Y24631130D01*
X-21457344Y24779207D01*
X-21279207Y24957344D01*
X-21131130Y25161155D01*
X-21111923Y25198851D01*
X-5568395Y25198851D01*
X-5568395Y24800355D01*
X-4868395Y24800355D01*
X-4868395Y24300355D01*
X-5568395Y24300355D01*
X-5568395Y23901860D01*
X-5529968Y23708674D01*
X-5529965Y23708662D01*
X-5454588Y23526684D01*
X-5454581Y23526671D01*
X-5345147Y23362893D01*
X-5345144Y23362889D01*
X-5205862Y23223607D01*
X-5205858Y23223604D01*
X-5042080Y23114170D01*
X-5042067Y23114163D01*
X-4860087Y23038786D01*
X-4818395Y23030493D01*
X-4818395Y23833368D01*
X-4808455Y23816151D01*
X-4752600Y23760296D01*
X-4684191Y23720800D01*
X-4607891Y23700356D01*
X-4528899Y23700356D01*
X-4452599Y23720800D01*
X-4384190Y23760296D01*
X-4328335Y23816151D01*
X-4318395Y23833368D01*
X-4318395Y23030493D01*
X-4276705Y23038786D01*
X-4276703Y23038786D01*
X-4094724Y23114163D01*
X-4094711Y23114170D01*
X-3930933Y23223604D01*
X-3930929Y23223607D01*
X-3791647Y23362889D01*
X-3791644Y23362893D01*
X-3682210Y23526671D01*
X-3682203Y23526684D01*
X-3606826Y23708662D01*
X-3606823Y23708674D01*
X-3568396Y23901860D01*
X-3568395Y23901863D01*
X-3568395Y24300355D01*
X-4268395Y24300355D01*
X-4268395Y24800355D01*
X-3730179Y24800355D01*
X-3663140Y24780670D01*
X-3622793Y24738356D01*
X-3598910Y24696990D01*
X-3491760Y24589840D01*
X-3360530Y24514074D01*
X-3214161Y24474855D01*
X-3214159Y24474855D01*
X-3062631Y24474855D01*
X-3062629Y24474855D01*
X-2916260Y24514074D01*
X-2785030Y24589840D01*
X-2677880Y24696990D01*
X-2602114Y24828220D01*
X-2562895Y24974589D01*
X-2562895Y25126121D01*
X2076105Y25126121D01*
X2076105Y24974590D01*
X2115324Y24828219D01*
X2131412Y24800355D01*
X2191090Y24696990D01*
X2298240Y24589840D01*
X2429470Y24514074D01*
X2575839Y24474855D01*
X2575841Y24474855D01*
X2727368Y24474855D01*
X2727371Y24474855D01*
X2873740Y24514074D01*
X3004970Y24589840D01*
X3112120Y24696990D01*
X3136002Y24738356D01*
X3186569Y24786571D01*
X3243389Y24800355D01*
X3771605Y24800355D01*
X3771605Y24300355D01*
X3071605Y24300355D01*
X3071605Y23901860D01*
X3110032Y23708674D01*
X3110035Y23708662D01*
X3185412Y23526684D01*
X3185419Y23526671D01*
X3294853Y23362893D01*
X3294856Y23362889D01*
X3434138Y23223607D01*
X3434142Y23223604D01*
X3597920Y23114170D01*
X3597933Y23114163D01*
X3779913Y23038786D01*
X3821605Y23030493D01*
X3821605Y23833368D01*
X3831545Y23816151D01*
X3887400Y23760296D01*
X3955809Y23720800D01*
X4032109Y23700356D01*
X4111101Y23700356D01*
X4187401Y23720800D01*
X4255810Y23760296D01*
X4311665Y23816151D01*
X4321605Y23833368D01*
X4321605Y23030493D01*
X4363295Y23038786D01*
X4363297Y23038786D01*
X4545276Y23114163D01*
X4545289Y23114170D01*
X4709067Y23223604D01*
X4709071Y23223607D01*
X4848353Y23362889D01*
X4848356Y23362893D01*
X4957790Y23526671D01*
X4957797Y23526684D01*
X5033174Y23708662D01*
X5033177Y23708674D01*
X5071604Y23901860D01*
X5071605Y23901863D01*
X5071605Y24300355D01*
X4371605Y24300355D01*
X4371605Y24800355D01*
X5071605Y24800355D01*
X5071605Y25125962D01*
X12899500Y25125962D01*
X12899500Y24874039D01*
X12938910Y24625215D01*
X13016760Y24385617D01*
X13131132Y24161152D01*
X13279201Y23957351D01*
X13279205Y23957346D01*
X13457345Y23779206D01*
X13457350Y23779202D01*
X13554441Y23708662D01*
X13661155Y23631130D01*
X13804184Y23558253D01*
X13885616Y23516761D01*
X13885618Y23516761D01*
X13885621Y23516759D01*
X14125215Y23438910D01*
X14374038Y23399500D01*
X14374039Y23399500D01*
X14625961Y23399500D01*
X14625962Y23399500D01*
X14874785Y23438910D01*
X15114379Y23516759D01*
X15338845Y23631130D01*
X15542656Y23779207D01*
X15720793Y23957344D01*
X15868870Y24161155D01*
X15983241Y24385621D01*
X16061090Y24625215D01*
X16100500Y24874038D01*
X16100500Y25125962D01*
X16061090Y25374785D01*
X15983241Y25614379D01*
X15983239Y25614382D01*
X15983239Y25614384D01*
X15941747Y25695816D01*
X15868870Y25838845D01*
X15761558Y25986548D01*
X15720798Y26042650D01*
X15720794Y26042655D01*
X15542654Y26220795D01*
X15542649Y26220799D01*
X15338848Y26368868D01*
X15338847Y26368869D01*
X15338845Y26368870D01*
X15268747Y26404587D01*
X15114383Y26483240D01*
X14874785Y26561090D01*
X14625962Y26600500D01*
X14374038Y26600500D01*
X14249626Y26580795D01*
X14125214Y26561090D01*
X13885616Y26483240D01*
X13661151Y26368868D01*
X13457350Y26220799D01*
X13457345Y26220795D01*
X13279205Y26042655D01*
X13279201Y26042650D01*
X13131132Y25838849D01*
X13016760Y25614384D01*
X12938910Y25374786D01*
X12899500Y25125962D01*
X5071605Y25125962D01*
X5071605Y25198847D01*
X5071604Y25198851D01*
X5033177Y25392037D01*
X5033174Y25392049D01*
X4957797Y25574027D01*
X4957790Y25574040D01*
X4848356Y25737818D01*
X4848353Y25737822D01*
X4709071Y25877104D01*
X4709067Y25877107D01*
X4545289Y25986541D01*
X4545276Y25986548D01*
X4363296Y26061926D01*
X4363288Y26061928D01*
X4321605Y26070220D01*
X4321605Y25267343D01*
X4311665Y25284559D01*
X4255810Y25340414D01*
X4187401Y25379910D01*
X4111101Y25400354D01*
X4032109Y25400354D01*
X3955809Y25379910D01*
X3887400Y25340414D01*
X3831545Y25284559D01*
X3821605Y25267343D01*
X3821605Y26070219D01*
X3821604Y26070220D01*
X3779921Y26061928D01*
X3779913Y26061926D01*
X3597933Y25986548D01*
X3597920Y25986541D01*
X3434142Y25877107D01*
X3434138Y25877104D01*
X3294856Y25737822D01*
X3294853Y25737818D01*
X3185419Y25574040D01*
X3185412Y25574027D01*
X3183582Y25569608D01*
X3139736Y25515208D01*
X3073440Y25493150D01*
X3007025Y25509684D01*
X2873743Y25586635D01*
X2873740Y25586636D01*
X2727371Y25625855D01*
X2575839Y25625855D01*
X2429468Y25586636D01*
X2298240Y25510870D01*
X2298237Y25510868D01*
X2191092Y25403723D01*
X2191090Y25403720D01*
X2115324Y25272492D01*
X2076105Y25126121D01*
X-2562895Y25126121D01*
X-2602114Y25272490D01*
X-2677880Y25403720D01*
X-2785030Y25510870D01*
X-2877949Y25564517D01*
X-2916259Y25586636D01*
X-2989445Y25606246D01*
X-3062629Y25625855D01*
X-3214161Y25625855D01*
X-3360532Y25586636D01*
X-3451967Y25533845D01*
X-3491760Y25510870D01*
X-3491762Y25510869D01*
X-3498798Y25506806D01*
X-3500068Y25509006D01*
X-3553400Y25488395D01*
X-3621843Y25502441D01*
X-3671827Y25551261D01*
X-3678264Y25564517D01*
X-3682203Y25574027D01*
X-3682210Y25574040D01*
X-3791644Y25737818D01*
X-3791647Y25737822D01*
X-3930929Y25877104D01*
X-3930933Y25877107D01*
X-4094711Y25986541D01*
X-4094724Y25986548D01*
X-4276704Y26061926D01*
X-4276712Y26061928D01*
X-4318395Y26070220D01*
X-4318395Y25267343D01*
X-4328335Y25284559D01*
X-4384190Y25340414D01*
X-4452599Y25379910D01*
X-4528899Y25400354D01*
X-4607891Y25400354D01*
X-4684191Y25379910D01*
X-4752600Y25340414D01*
X-4808455Y25284559D01*
X-4818395Y25267343D01*
X-4818395Y26070219D01*
X-4818396Y26070220D01*
X-4860079Y26061928D01*
X-4860087Y26061926D01*
X-5042067Y25986548D01*
X-5042080Y25986541D01*
X-5205858Y25877107D01*
X-5205862Y25877104D01*
X-5345144Y25737822D01*
X-5345147Y25737818D01*
X-5454581Y25574040D01*
X-5454588Y25574027D01*
X-5529965Y25392049D01*
X-5529968Y25392037D01*
X-5568395Y25198851D01*
X-21111923Y25198851D01*
X-21016759Y25385621D01*
X-20938910Y25625215D01*
X-20899500Y25874038D01*
X-20899500Y26125962D01*
X-20938910Y26374785D01*
X-21016759Y26614379D01*
X-21016761Y26614382D01*
X-21016761Y26614384D01*
X-21058253Y26695816D01*
X-21131130Y26838845D01*
X-21150048Y26864883D01*
X-21279202Y27042650D01*
X-21279206Y27042655D01*
X-21457346Y27220795D01*
X-21457351Y27220799D01*
X-21661152Y27368868D01*
X-21661153Y27368869D01*
X-21661155Y27368870D01*
X-21731253Y27404587D01*
X-21885617Y27483240D01*
X-22125215Y27561090D01*
X-22374038Y27600500D01*
X-22625962Y27600500D01*
X-22750374Y27580795D01*
X-22874786Y27561090D01*
X-23114384Y27483240D01*
X-23338849Y27368868D01*
X-23542650Y27220799D01*
X-23542655Y27220795D01*
X-23720795Y27042655D01*
X-23720799Y27042650D01*
X-23868868Y26838849D01*
X-23983240Y26614384D01*
X-24025851Y26483240D01*
X-24061090Y26374785D01*
X-24100500Y26125962D01*
X-27191917Y26125962D01*
X-27191917Y29575500D01*
X-27172232Y29642539D01*
X-27119428Y29688294D01*
X-27067917Y29699500D01*
X-5600619Y29699500D01*
X-5533580Y29679815D01*
G37*
%TD.AperFunction*%
%TD*%
M02*
