%TF.GenerationSoftware,KiCad,Pcbnew,10.0.0-rc1*%
%TF.CreationDate,2026-04-10T11:45:52+01:00*%
%TF.ProjectId,Lyra-v0.2,4c797261-2d76-4302-9e32-2e6b69636164,rev?*%
%TF.SameCoordinates,Original*%
%TF.FileFunction,Copper,L2,Inr*%
%TF.FilePolarity,Positive*%
%FSLAX46Y46*%
G04 Gerber Fmt 4.6, Leading zero omitted, Abs format (unit mm)*
G04 Created by KiCad (PCBNEW 10.0.0-rc1) date 2026-04-10 11:45:52*
%MOMM*%
%LPD*%
G01*
G04 APERTURE LIST*
%TA.AperFunction,ComponentPad*%
%ADD10C,3.000000*%
%TD*%
%TA.AperFunction,ComponentPad*%
%ADD11C,0.750000*%
%TD*%
%TA.AperFunction,ComponentPad*%
%ADD12O,1.200000X2.000000*%
%TD*%
%TA.AperFunction,ComponentPad*%
%ADD13O,1.200000X1.800000*%
%TD*%
%TA.AperFunction,ViaPad*%
%ADD14C,0.515000*%
%TD*%
%TA.AperFunction,ViaPad*%
%ADD15C,0.520000*%
%TD*%
%TA.AperFunction,ViaPad*%
%ADD16C,0.500000*%
%TD*%
G04 APERTURE END LIST*
D10*
%TO.N,N/C*%
%TO.C,M3*%
X141530000Y-86670000D03*
%TD*%
%TO.N,N/C*%
%TO.C,M2*%
X141520000Y-116380000D03*
%TD*%
%TO.N,GND*%
%TO.C,*%
X162000000Y-86730000D03*
%TD*%
%TO.N,N/C*%
%TO.C,M1*%
X172830000Y-86680000D03*
%TD*%
%TO.N,+BATT*%
%TO.C,REF\u002A\u002A*%
X158390000Y-86690000D03*
%TD*%
D11*
%TO.N,*%
%TO.C,USBC1*%
X154270000Y-89980000D03*
X148470000Y-89980000D03*
D12*
%TO.N,GND*%
X147040000Y-90480000D03*
D13*
X147040000Y-86300000D03*
X155700000Y-86300000D03*
D12*
X155700000Y-90480000D03*
%TD*%
D14*
%TO.N,GND*%
X152520000Y-96180000D03*
X151730000Y-96190000D03*
X151020000Y-96190000D03*
X150330000Y-96170000D03*
X149630000Y-96180000D03*
X150990000Y-97270000D03*
X143890000Y-96460000D03*
%TO.N,*%
X143990546Y-91891025D03*
%TO.N,GND*%
X141934318Y-93788410D03*
X141133178Y-91772967D03*
X142360546Y-91871025D03*
X142755134Y-93802359D03*
%TO.N,+3V3*%
X142360546Y-90311024D03*
X142360546Y-93321025D03*
%TO.N,/RP2354A/GPIO6*%
X144830546Y-91981025D03*
%TO.N,/RP2354A/GPIO7*%
X144808243Y-92771979D03*
%TO.N,GND*%
X146260000Y-112830000D03*
X153710000Y-94850000D03*
D15*
X168268406Y-97971544D03*
X168731241Y-96010872D03*
X160564788Y-102990000D03*
D14*
X156200000Y-91810000D03*
X156750000Y-94850000D03*
X148970000Y-102770000D03*
X141570000Y-113970000D03*
D15*
X166212598Y-98047451D03*
D14*
X155440000Y-91830000D03*
X140870000Y-112930000D03*
X146260000Y-114230000D03*
X150360000Y-105550000D03*
X143190000Y-110860000D03*
D15*
X165070832Y-101169117D03*
D14*
X154710000Y-100650000D03*
X147350000Y-96310000D03*
X147660000Y-115650000D03*
X158220000Y-100500000D03*
X146260000Y-113530000D03*
X155350000Y-104340000D03*
X152880000Y-97760000D03*
D15*
X167290749Y-96969599D03*
D14*
X149759999Y-115650000D03*
X146960001Y-115650000D03*
D15*
X159250000Y-102990000D03*
D14*
X150270000Y-110040000D03*
D15*
X165146740Y-99113309D03*
D14*
X160140000Y-100510000D03*
X152880000Y-96860000D03*
X150360000Y-102770000D03*
X142420000Y-105370000D03*
X146260000Y-114930000D03*
D15*
X163015025Y-101245025D03*
D14*
X154610000Y-96420000D03*
X141530000Y-106850000D03*
X147550000Y-110680000D03*
X150499999Y-115650000D03*
X152610000Y-94070000D03*
D15*
X166136690Y-100103259D03*
D14*
X157480000Y-99570000D03*
X150270000Y-110870000D03*
X155440000Y-107740000D03*
D15*
X162164996Y-101590211D03*
D14*
X148970000Y-104170000D03*
X149060000Y-115650000D03*
X148990000Y-93450000D03*
D15*
X160564788Y-101590000D03*
D14*
X148970000Y-105550000D03*
X146260000Y-112130000D03*
D15*
X167202548Y-99037401D03*
D14*
X152870000Y-100070000D03*
X144405824Y-108524176D03*
X141530000Y-108400000D03*
D15*
X164080882Y-100179167D03*
X162182183Y-102990000D03*
D14*
X151219999Y-115650000D03*
X152070000Y-98740000D03*
X150360000Y-104170000D03*
X158460000Y-95830000D03*
D15*
X164004975Y-102234975D03*
X169610000Y-97210000D03*
D14*
X140750000Y-97460000D03*
X142540000Y-103370000D03*
X141550001Y-109800000D03*
X157220000Y-95750000D03*
X155350000Y-103600000D03*
X147620000Y-104170000D03*
X142540000Y-100980000D03*
X152060000Y-99430000D03*
X153240000Y-95750000D03*
X143090000Y-115220000D03*
X147610000Y-105550000D03*
X147620000Y-102770000D03*
D15*
X159230000Y-101590000D03*
D14*
X148360000Y-115650000D03*
X146259999Y-115650000D03*
%TO.N,+1V1*%
X148970000Y-106250000D03*
X153330000Y-103720000D03*
X149680000Y-99140000D03*
X144600000Y-103370000D03*
X149680000Y-98580000D03*
X150160000Y-102090000D03*
X146910000Y-103370000D03*
X151050000Y-103770000D03*
X149600000Y-108640000D03*
%TO.N,+3V3*%
X154890000Y-98770000D03*
X154890000Y-97990000D03*
X159230000Y-95840000D03*
X144755000Y-100085000D03*
D16*
X167970000Y-91140000D03*
D14*
X159220000Y-100510000D03*
%TO.N,/RF/LORA_RST*%
X155210000Y-109870000D03*
X145110000Y-108250000D03*
%TO.N,/RF/LORA_DIO1*%
X146250000Y-109920000D03*
X155500000Y-112250000D03*
%TO.N,/RF/LORA_BUSY*%
X145910000Y-109400000D03*
X172610000Y-114280000D03*
%TO.N,/RF/LORA_SCK*%
X168320000Y-108590000D03*
X144020000Y-106980000D03*
%TO.N,/RF/LORA_MISO*%
X145740000Y-108800000D03*
X172620000Y-108280000D03*
%TO.N,/RF/LORA_MOSI*%
X144030000Y-107600000D03*
X172550000Y-106270000D03*
%TO.N,/RF/LORA_NSS*%
X144030602Y-106365089D03*
X172585000Y-104280000D03*
%TO.N,/RP2354A/GPIO6*%
X141160000Y-104620000D03*
%TO.N,/RP2354A/GPIO7*%
X141149999Y-105339999D03*
%TO.N,/RP2354A/GPIO16*%
X153256302Y-108172500D03*
X166990000Y-91210000D03*
%TO.N,/RP2354A/GPIO17*%
X165970000Y-91280000D03*
X152600000Y-108172500D03*
%TO.N,/RP2354A/GPIO2*%
X143979212Y-101975092D03*
X144390000Y-115230000D03*
%TO.N,/RP2354A/GPIO3*%
X143990000Y-102590000D03*
X145010000Y-115220000D03*
%TO.N,/RP2354A/GPIO4*%
X142008774Y-103679882D03*
X143762496Y-109930000D03*
%TO.N,/RP2354A/GPIO5*%
X143775089Y-115219398D03*
X141500894Y-104026705D03*
%TO.N,/RP2354A/GPIO15*%
X146870000Y-109940000D03*
%TD*%
%TA.AperFunction,Conductor*%
%TO.N,GND*%
G36*
X157831828Y-85087781D02*
G01*
X157849109Y-85129500D01*
X157831828Y-85171219D01*
X157808341Y-85185612D01*
X157771781Y-85197491D01*
X157771780Y-85197491D01*
X157545919Y-85312573D01*
X157545908Y-85312579D01*
X157340834Y-85461575D01*
X157340825Y-85461583D01*
X157161583Y-85640825D01*
X157161575Y-85640834D01*
X157012579Y-85845908D01*
X157012573Y-85845919D01*
X156897491Y-86071780D01*
X156897491Y-86071781D01*
X156819158Y-86312864D01*
X156819156Y-86312871D01*
X156819156Y-86312874D01*
X156779500Y-86563251D01*
X156779500Y-86816749D01*
X156802838Y-86964097D01*
X156819156Y-87067128D01*
X156819158Y-87067135D01*
X156897491Y-87308218D01*
X156897491Y-87308219D01*
X157012573Y-87534080D01*
X157012579Y-87534091D01*
X157154316Y-87729174D01*
X157161579Y-87739170D01*
X157340830Y-87918421D01*
X157340833Y-87918423D01*
X157340834Y-87918424D01*
X157545908Y-88067420D01*
X157545919Y-88067426D01*
X157771780Y-88182508D01*
X158012864Y-88260841D01*
X158012870Y-88260842D01*
X158012874Y-88260844D01*
X158263251Y-88300500D01*
X158263255Y-88300500D01*
X158516745Y-88300500D01*
X158516749Y-88300500D01*
X158767126Y-88260844D01*
X159008217Y-88182509D01*
X159234086Y-88067423D01*
X159234087Y-88067421D01*
X159234091Y-88067420D01*
X159383817Y-87958637D01*
X159439170Y-87918421D01*
X159618421Y-87739170D01*
X159692922Y-87636628D01*
X159767420Y-87534091D01*
X159767426Y-87534080D01*
X159777614Y-87514086D01*
X159882509Y-87308217D01*
X159960844Y-87067126D01*
X160000500Y-86816749D01*
X160000500Y-86563251D01*
X159960844Y-86312874D01*
X159954342Y-86292864D01*
X159882508Y-86071781D01*
X159882508Y-86071780D01*
X159767426Y-85845919D01*
X159767420Y-85845908D01*
X159618424Y-85640834D01*
X159618423Y-85640833D01*
X159618421Y-85640830D01*
X159439170Y-85461579D01*
X159439167Y-85461577D01*
X159439165Y-85461575D01*
X159234091Y-85312579D01*
X159234080Y-85312573D01*
X159008219Y-85197491D01*
X158971659Y-85185612D01*
X158937322Y-85156285D01*
X158933779Y-85111268D01*
X158963106Y-85076931D01*
X158989891Y-85070500D01*
X172199333Y-85070500D01*
X172241052Y-85087781D01*
X172258333Y-85129500D01*
X172241052Y-85171219D01*
X172217565Y-85185612D01*
X172211783Y-85187491D01*
X172211777Y-85187493D01*
X171985919Y-85302573D01*
X171985908Y-85302579D01*
X171780834Y-85451575D01*
X171780825Y-85451583D01*
X171601583Y-85630825D01*
X171601575Y-85630834D01*
X171452579Y-85835908D01*
X171452573Y-85835919D01*
X171337491Y-86061780D01*
X171337491Y-86061781D01*
X171259158Y-86302864D01*
X171259156Y-86302871D01*
X171257572Y-86312874D01*
X171219500Y-86553251D01*
X171219500Y-86806749D01*
X171244422Y-86964097D01*
X171259156Y-87057128D01*
X171259158Y-87057135D01*
X171337491Y-87298218D01*
X171337491Y-87298219D01*
X171452573Y-87524080D01*
X171452579Y-87524091D01*
X171594316Y-87719174D01*
X171601579Y-87729170D01*
X171780830Y-87908421D01*
X171780833Y-87908423D01*
X171780834Y-87908424D01*
X171985908Y-88057420D01*
X171985919Y-88057426D01*
X172211780Y-88172508D01*
X172452864Y-88250841D01*
X172452870Y-88250842D01*
X172452874Y-88250844D01*
X172703251Y-88290500D01*
X172703255Y-88290500D01*
X172956745Y-88290500D01*
X172956749Y-88290500D01*
X173207126Y-88250844D01*
X173448217Y-88172509D01*
X173674086Y-88057423D01*
X173674087Y-88057421D01*
X173674091Y-88057420D01*
X173810053Y-87958637D01*
X173879170Y-87908421D01*
X174058421Y-87729170D01*
X174132922Y-87626628D01*
X174207420Y-87524091D01*
X174207426Y-87524080D01*
X174322507Y-87298221D01*
X174322508Y-87298218D01*
X174322509Y-87298217D01*
X174323942Y-87293805D01*
X174353267Y-87259468D01*
X174398285Y-87255923D01*
X174432623Y-87285248D01*
X174439055Y-87312076D01*
X174419529Y-116374374D01*
X174419525Y-116380054D01*
X174419500Y-116380118D01*
X174419500Y-116417927D01*
X174419498Y-116417930D01*
X174419350Y-116422097D01*
X174403724Y-116640577D01*
X174402526Y-116648909D01*
X174356415Y-116860876D01*
X174354043Y-116868953D01*
X174278239Y-117072192D01*
X174274742Y-117079850D01*
X174170783Y-117270236D01*
X174166232Y-117277318D01*
X174036231Y-117450978D01*
X174030718Y-117457339D01*
X173877339Y-117610718D01*
X173870978Y-117616231D01*
X173697318Y-117746232D01*
X173690236Y-117750783D01*
X173499850Y-117854742D01*
X173492192Y-117858239D01*
X173288953Y-117934043D01*
X173280876Y-117936415D01*
X173068909Y-117982526D01*
X173060577Y-117983724D01*
X172842103Y-117999349D01*
X172837875Y-117999499D01*
X142150012Y-117989706D01*
X142108298Y-117972412D01*
X142091031Y-117930687D01*
X142108325Y-117888973D01*
X142131801Y-117874593D01*
X142138217Y-117872509D01*
X142138219Y-117872507D01*
X142138222Y-117872507D01*
X142364080Y-117757426D01*
X142364091Y-117757420D01*
X142466628Y-117682922D01*
X142569170Y-117608421D01*
X142748421Y-117429170D01*
X142822922Y-117326628D01*
X142897420Y-117224091D01*
X142897426Y-117224080D01*
X143012508Y-116998219D01*
X143012508Y-116998218D01*
X143012509Y-116998217D01*
X143090844Y-116757126D01*
X143130500Y-116506749D01*
X143130500Y-116253251D01*
X143090844Y-116002874D01*
X143012509Y-115761783D01*
X143012508Y-115761781D01*
X143012508Y-115761780D01*
X142897426Y-115535919D01*
X142897420Y-115535908D01*
X142748424Y-115330834D01*
X142748423Y-115330833D01*
X142748421Y-115330830D01*
X142588541Y-115170950D01*
X143407089Y-115170950D01*
X143407089Y-115267846D01*
X143417688Y-115307402D01*
X143432167Y-115361440D01*
X143432169Y-115361443D01*
X143480615Y-115445354D01*
X143480617Y-115445357D01*
X143549130Y-115513870D01*
X143549132Y-115513871D01*
X143633046Y-115562319D01*
X143726641Y-115587398D01*
X143726645Y-115587398D01*
X143823533Y-115587398D01*
X143823537Y-115587398D01*
X143917132Y-115562319D01*
X144001046Y-115513871D01*
X144035524Y-115479392D01*
X144077242Y-115462112D01*
X144118962Y-115479392D01*
X144118962Y-115479393D01*
X144164041Y-115524472D01*
X144164043Y-115524473D01*
X144247957Y-115572921D01*
X144341552Y-115598000D01*
X144341556Y-115598000D01*
X144438444Y-115598000D01*
X144438448Y-115598000D01*
X144532043Y-115572921D01*
X144615957Y-115524473D01*
X144615957Y-115524472D01*
X144615959Y-115524472D01*
X144663281Y-115477150D01*
X144705000Y-115459869D01*
X144746719Y-115477150D01*
X144784041Y-115514472D01*
X144784043Y-115514473D01*
X144867957Y-115562921D01*
X144961552Y-115588000D01*
X144961556Y-115588000D01*
X145058444Y-115588000D01*
X145058448Y-115588000D01*
X145152043Y-115562921D01*
X145235957Y-115514473D01*
X145235957Y-115514472D01*
X145235959Y-115514472D01*
X145304472Y-115445959D01*
X145304473Y-115445957D01*
X145352921Y-115362043D01*
X145378000Y-115268448D01*
X145378000Y-115171552D01*
X145352921Y-115077957D01*
X145304473Y-114994043D01*
X145304472Y-114994041D01*
X145235959Y-114925528D01*
X145235956Y-114925526D01*
X145152045Y-114877080D01*
X145152042Y-114877078D01*
X145095768Y-114862000D01*
X145058448Y-114852000D01*
X144961552Y-114852000D01*
X144941773Y-114857299D01*
X144867957Y-114877078D01*
X144867954Y-114877080D01*
X144784043Y-114925526D01*
X144736719Y-114972850D01*
X144695000Y-114990131D01*
X144653281Y-114972850D01*
X144615959Y-114935528D01*
X144615956Y-114935526D01*
X144532045Y-114887080D01*
X144532042Y-114887078D01*
X144478004Y-114872599D01*
X144438448Y-114862000D01*
X144341552Y-114862000D01*
X144321773Y-114867299D01*
X144247957Y-114887078D01*
X144247954Y-114887080D01*
X144164044Y-114935525D01*
X144129564Y-114970005D01*
X144087844Y-114987285D01*
X144046126Y-114970004D01*
X144001048Y-114924926D01*
X144001045Y-114924924D01*
X143917134Y-114876478D01*
X143917131Y-114876476D01*
X143863093Y-114861997D01*
X143823537Y-114851398D01*
X143726641Y-114851398D01*
X143706862Y-114856697D01*
X143633046Y-114876476D01*
X143633043Y-114876478D01*
X143549132Y-114924924D01*
X143480615Y-114993441D01*
X143432169Y-115077352D01*
X143432167Y-115077355D01*
X143412388Y-115151171D01*
X143407089Y-115170950D01*
X142588541Y-115170950D01*
X142569170Y-115151579D01*
X142569167Y-115151577D01*
X142569165Y-115151575D01*
X142364091Y-115002579D01*
X142364080Y-115002573D01*
X142138219Y-114887491D01*
X141897135Y-114809158D01*
X141897128Y-114809156D01*
X141813667Y-114795937D01*
X141646749Y-114769500D01*
X141393251Y-114769500D01*
X141250178Y-114792160D01*
X141142871Y-114809156D01*
X141142864Y-114809158D01*
X140901781Y-114887491D01*
X140901780Y-114887491D01*
X140675919Y-115002573D01*
X140675908Y-115002579D01*
X140470834Y-115151575D01*
X140470825Y-115151583D01*
X140291583Y-115330825D01*
X140291575Y-115330834D01*
X140142579Y-115535908D01*
X140142576Y-115535914D01*
X140032069Y-115752797D01*
X139997732Y-115782123D01*
X139952714Y-115778580D01*
X139923388Y-115744243D01*
X139920500Y-115726011D01*
X139920500Y-114231552D01*
X172242000Y-114231552D01*
X172242000Y-114328448D01*
X172252599Y-114368004D01*
X172267078Y-114422042D01*
X172267080Y-114422045D01*
X172315526Y-114505956D01*
X172315528Y-114505959D01*
X172384041Y-114574472D01*
X172384043Y-114574473D01*
X172467957Y-114622921D01*
X172561552Y-114648000D01*
X172561556Y-114648000D01*
X172658444Y-114648000D01*
X172658448Y-114648000D01*
X172752043Y-114622921D01*
X172835957Y-114574473D01*
X172835957Y-114574472D01*
X172835959Y-114574472D01*
X172904472Y-114505959D01*
X172904473Y-114505957D01*
X172952921Y-114422043D01*
X172978000Y-114328448D01*
X172978000Y-114231552D01*
X172952921Y-114137957D01*
X172904473Y-114054043D01*
X172904472Y-114054041D01*
X172835959Y-113985528D01*
X172835956Y-113985526D01*
X172752045Y-113937080D01*
X172752042Y-113937078D01*
X172698004Y-113922599D01*
X172658448Y-113912000D01*
X172561552Y-113912000D01*
X172541773Y-113917299D01*
X172467957Y-113937078D01*
X172467954Y-113937080D01*
X172384043Y-113985526D01*
X172315526Y-114054043D01*
X172267080Y-114137954D01*
X172267078Y-114137957D01*
X172247299Y-114211773D01*
X172242000Y-114231552D01*
X139920500Y-114231552D01*
X139920500Y-112201552D01*
X155132000Y-112201552D01*
X155132000Y-112298448D01*
X155142599Y-112338004D01*
X155157078Y-112392042D01*
X155157080Y-112392045D01*
X155205526Y-112475956D01*
X155205528Y-112475959D01*
X155274041Y-112544472D01*
X155274043Y-112544473D01*
X155357957Y-112592921D01*
X155451552Y-112618000D01*
X155451556Y-112618000D01*
X155548444Y-112618000D01*
X155548448Y-112618000D01*
X155642043Y-112592921D01*
X155725957Y-112544473D01*
X155725957Y-112544472D01*
X155725959Y-112544472D01*
X155794472Y-112475959D01*
X155794473Y-112475957D01*
X155842921Y-112392043D01*
X155868000Y-112298448D01*
X155868000Y-112201552D01*
X155842921Y-112107957D01*
X155794473Y-112024043D01*
X155794472Y-112024041D01*
X155725959Y-111955528D01*
X155725956Y-111955526D01*
X155642045Y-111907080D01*
X155642042Y-111907078D01*
X155588004Y-111892599D01*
X155548448Y-111882000D01*
X155451552Y-111882000D01*
X155431773Y-111887299D01*
X155357957Y-111907078D01*
X155357954Y-111907080D01*
X155274043Y-111955526D01*
X155205526Y-112024043D01*
X155157080Y-112107954D01*
X155157078Y-112107957D01*
X155137299Y-112181773D01*
X155132000Y-112201552D01*
X139920500Y-112201552D01*
X139920500Y-109881552D01*
X143394496Y-109881552D01*
X143394496Y-109978448D01*
X143397175Y-109988446D01*
X143419574Y-110072042D01*
X143419576Y-110072045D01*
X143468022Y-110155956D01*
X143468024Y-110155959D01*
X143536537Y-110224472D01*
X143536539Y-110224473D01*
X143620453Y-110272921D01*
X143714048Y-110298000D01*
X143714052Y-110298000D01*
X143810940Y-110298000D01*
X143810944Y-110298000D01*
X143904539Y-110272921D01*
X143988453Y-110224473D01*
X143988453Y-110224472D01*
X143988455Y-110224472D01*
X144056968Y-110155959D01*
X144056969Y-110155957D01*
X144105417Y-110072043D01*
X144130496Y-109978448D01*
X144130496Y-109881552D01*
X144105417Y-109787957D01*
X144056969Y-109704043D01*
X144056968Y-109704041D01*
X143988455Y-109635528D01*
X143988452Y-109635526D01*
X143904541Y-109587080D01*
X143904538Y-109587078D01*
X143848264Y-109572000D01*
X143810944Y-109562000D01*
X143714048Y-109562000D01*
X143694269Y-109567299D01*
X143620453Y-109587078D01*
X143620450Y-109587080D01*
X143536539Y-109635526D01*
X143468022Y-109704043D01*
X143419576Y-109787954D01*
X143419574Y-109787957D01*
X143406424Y-109837036D01*
X143394496Y-109881552D01*
X139920500Y-109881552D01*
X139920500Y-108201552D01*
X144742000Y-108201552D01*
X144742000Y-108298448D01*
X144750038Y-108328446D01*
X144767078Y-108392042D01*
X144767080Y-108392045D01*
X144815526Y-108475956D01*
X144815528Y-108475959D01*
X144884041Y-108544472D01*
X144884043Y-108544473D01*
X144967957Y-108592921D01*
X145061552Y-108618000D01*
X145061556Y-108618000D01*
X145158444Y-108618000D01*
X145158448Y-108618000D01*
X145252043Y-108592921D01*
X145335229Y-108544892D01*
X145379999Y-108538998D01*
X145415824Y-108566488D01*
X145421719Y-108611258D01*
X145415825Y-108625487D01*
X145397079Y-108657956D01*
X145397078Y-108657957D01*
X145377299Y-108731773D01*
X145372000Y-108751552D01*
X145372000Y-108848448D01*
X145376692Y-108865957D01*
X145397078Y-108942042D01*
X145397080Y-108942045D01*
X145445526Y-109025956D01*
X145445528Y-109025959D01*
X145514039Y-109094470D01*
X145514041Y-109094471D01*
X145514043Y-109094473D01*
X145573516Y-109128810D01*
X145601004Y-109164633D01*
X145595111Y-109209404D01*
X145567078Y-109257958D01*
X145548719Y-109326474D01*
X145542000Y-109351552D01*
X145542000Y-109448448D01*
X145551248Y-109482961D01*
X145567078Y-109542042D01*
X145567080Y-109542045D01*
X145615526Y-109625956D01*
X145615528Y-109625959D01*
X145684041Y-109694472D01*
X145684043Y-109694473D01*
X145767957Y-109742921D01*
X145849530Y-109764778D01*
X145885353Y-109792266D01*
X145891248Y-109837036D01*
X145882000Y-109871551D01*
X145882000Y-109871552D01*
X145882000Y-109968448D01*
X145884679Y-109978446D01*
X145907078Y-110062042D01*
X145907080Y-110062045D01*
X145955526Y-110145956D01*
X145955528Y-110145959D01*
X146024041Y-110214472D01*
X146024043Y-110214473D01*
X146107957Y-110262921D01*
X146201552Y-110288000D01*
X146201556Y-110288000D01*
X146298444Y-110288000D01*
X146298448Y-110288000D01*
X146392043Y-110262921D01*
X146475957Y-110214473D01*
X146475957Y-110214472D01*
X146475959Y-110214472D01*
X146508281Y-110182150D01*
X146550000Y-110164869D01*
X146591719Y-110182150D01*
X146644041Y-110234472D01*
X146644043Y-110234473D01*
X146727957Y-110282921D01*
X146821552Y-110308000D01*
X146821556Y-110308000D01*
X146918444Y-110308000D01*
X146918448Y-110308000D01*
X147012043Y-110282921D01*
X147095957Y-110234473D01*
X147095957Y-110234472D01*
X147095959Y-110234472D01*
X147164472Y-110165959D01*
X147164473Y-110165957D01*
X147212921Y-110082043D01*
X147238000Y-109988448D01*
X147238000Y-109891552D01*
X147219243Y-109821552D01*
X154842000Y-109821552D01*
X154842000Y-109918448D01*
X154852599Y-109958004D01*
X154867078Y-110012042D01*
X154867080Y-110012045D01*
X154915526Y-110095956D01*
X154915528Y-110095959D01*
X154984041Y-110164472D01*
X154984043Y-110164473D01*
X155067957Y-110212921D01*
X155161552Y-110238000D01*
X155161556Y-110238000D01*
X155258444Y-110238000D01*
X155258448Y-110238000D01*
X155352043Y-110212921D01*
X155435957Y-110164473D01*
X155435957Y-110164472D01*
X155435959Y-110164472D01*
X155504472Y-110095959D01*
X155504473Y-110095957D01*
X155552921Y-110012043D01*
X155578000Y-109918448D01*
X155578000Y-109821552D01*
X155552921Y-109727957D01*
X155504473Y-109644043D01*
X155504472Y-109644041D01*
X155435959Y-109575528D01*
X155435956Y-109575526D01*
X155352045Y-109527080D01*
X155352042Y-109527078D01*
X155298004Y-109512599D01*
X155258448Y-109502000D01*
X155161552Y-109502000D01*
X155141773Y-109507299D01*
X155067957Y-109527078D01*
X155067954Y-109527080D01*
X154984043Y-109575526D01*
X154915526Y-109644043D01*
X154867080Y-109727954D01*
X154867078Y-109727957D01*
X154851002Y-109787957D01*
X154842000Y-109821552D01*
X147219243Y-109821552D01*
X147212921Y-109797957D01*
X147164473Y-109714043D01*
X147164472Y-109714041D01*
X147095959Y-109645528D01*
X147095956Y-109645526D01*
X147012045Y-109597080D01*
X147012042Y-109597078D01*
X146958004Y-109582599D01*
X146918448Y-109572000D01*
X146821552Y-109572000D01*
X146802601Y-109577078D01*
X146727957Y-109597078D01*
X146727954Y-109597080D01*
X146644043Y-109645526D01*
X146611719Y-109677850D01*
X146570000Y-109695131D01*
X146528281Y-109677850D01*
X146475959Y-109625528D01*
X146475956Y-109625526D01*
X146392045Y-109577080D01*
X146392042Y-109577078D01*
X146335768Y-109562000D01*
X146310470Y-109555221D01*
X146274646Y-109527732D01*
X146268751Y-109482964D01*
X146278000Y-109448448D01*
X146278000Y-109351552D01*
X146252921Y-109257957D01*
X146204473Y-109174043D01*
X146204472Y-109174041D01*
X146135960Y-109105529D01*
X146135957Y-109105527D01*
X146076482Y-109071189D01*
X146048994Y-109035366D01*
X146054887Y-108990598D01*
X146082921Y-108942043D01*
X146108000Y-108848448D01*
X146108000Y-108751552D01*
X146082921Y-108657957D01*
X146059380Y-108617184D01*
X146059380Y-108617182D01*
X146044582Y-108591552D01*
X149232000Y-108591552D01*
X149232000Y-108688448D01*
X149242599Y-108728004D01*
X149257078Y-108782042D01*
X149257080Y-108782045D01*
X149305526Y-108865956D01*
X149305528Y-108865959D01*
X149374041Y-108934472D01*
X149374043Y-108934473D01*
X149457957Y-108982921D01*
X149551552Y-109008000D01*
X149551556Y-109008000D01*
X149648444Y-109008000D01*
X149648448Y-109008000D01*
X149742043Y-108982921D01*
X149825957Y-108934473D01*
X149825957Y-108934472D01*
X149825959Y-108934472D01*
X149894472Y-108865959D01*
X149894473Y-108865957D01*
X149942921Y-108782043D01*
X149968000Y-108688448D01*
X149968000Y-108591552D01*
X149954602Y-108541552D01*
X167952000Y-108541552D01*
X167952000Y-108638448D01*
X167957228Y-108657958D01*
X167977078Y-108732042D01*
X167977080Y-108732045D01*
X168025526Y-108815956D01*
X168025528Y-108815959D01*
X168094041Y-108884472D01*
X168094043Y-108884473D01*
X168177957Y-108932921D01*
X168271552Y-108958000D01*
X168271556Y-108958000D01*
X168368444Y-108958000D01*
X168368448Y-108958000D01*
X168462043Y-108932921D01*
X168545957Y-108884473D01*
X168545957Y-108884472D01*
X168545959Y-108884472D01*
X168614472Y-108815959D01*
X168614473Y-108815957D01*
X168662921Y-108732043D01*
X168688000Y-108638448D01*
X168688000Y-108541552D01*
X168662921Y-108447957D01*
X168614473Y-108364043D01*
X168614472Y-108364041D01*
X168545960Y-108295529D01*
X168545955Y-108295526D01*
X168462043Y-108247079D01*
X168462042Y-108247078D01*
X168404096Y-108231552D01*
X172252000Y-108231552D01*
X172252000Y-108328448D01*
X172256577Y-108345528D01*
X172277078Y-108422042D01*
X172277080Y-108422045D01*
X172325526Y-108505956D01*
X172325528Y-108505959D01*
X172394041Y-108574472D01*
X172394043Y-108574473D01*
X172477957Y-108622921D01*
X172571552Y-108648000D01*
X172571556Y-108648000D01*
X172668444Y-108648000D01*
X172668448Y-108648000D01*
X172762043Y-108622921D01*
X172845957Y-108574473D01*
X172845957Y-108574472D01*
X172845959Y-108574472D01*
X172914472Y-108505959D01*
X172914473Y-108505957D01*
X172962921Y-108422043D01*
X172988000Y-108328448D01*
X172988000Y-108231552D01*
X172962921Y-108137957D01*
X172914473Y-108054043D01*
X172914472Y-108054041D01*
X172845959Y-107985528D01*
X172845956Y-107985526D01*
X172762045Y-107937080D01*
X172762042Y-107937078D01*
X172708004Y-107922599D01*
X172668448Y-107912000D01*
X172571552Y-107912000D01*
X172551773Y-107917299D01*
X172477957Y-107937078D01*
X172477954Y-107937080D01*
X172394043Y-107985526D01*
X172325526Y-108054043D01*
X172277080Y-108137954D01*
X172277078Y-108137957D01*
X172260038Y-108201553D01*
X172252000Y-108231552D01*
X168404096Y-108231552D01*
X168368448Y-108222000D01*
X168271552Y-108222000D01*
X168251773Y-108227299D01*
X168177957Y-108247078D01*
X168177954Y-108247080D01*
X168094043Y-108295526D01*
X168025526Y-108364043D01*
X167977080Y-108447954D01*
X167977078Y-108447957D01*
X167961538Y-108505956D01*
X167952000Y-108541552D01*
X149954602Y-108541552D01*
X149942921Y-108497957D01*
X149894473Y-108414043D01*
X149894472Y-108414041D01*
X149825959Y-108345528D01*
X149825956Y-108345526D01*
X149742045Y-108297080D01*
X149742042Y-108297078D01*
X149688004Y-108282599D01*
X149648448Y-108272000D01*
X149551552Y-108272000D01*
X149531773Y-108277299D01*
X149457957Y-108297078D01*
X149457954Y-108297080D01*
X149374043Y-108345526D01*
X149305526Y-108414043D01*
X149257080Y-108497954D01*
X149257078Y-108497957D01*
X149244615Y-108544472D01*
X149232000Y-108591552D01*
X146044582Y-108591552D01*
X146034473Y-108574043D01*
X146034472Y-108574041D01*
X145965959Y-108505528D01*
X145965956Y-108505526D01*
X145882045Y-108457080D01*
X145882042Y-108457078D01*
X145828004Y-108442599D01*
X145788448Y-108432000D01*
X145691552Y-108432000D01*
X145666474Y-108438719D01*
X145597958Y-108457078D01*
X145514770Y-108505107D01*
X145469999Y-108511001D01*
X145434174Y-108483511D01*
X145428280Y-108438740D01*
X145434172Y-108424516D01*
X145452921Y-108392043D01*
X145478000Y-108298448D01*
X145478000Y-108201552D01*
X145457234Y-108124052D01*
X152232000Y-108124052D01*
X152232000Y-108220948D01*
X152239002Y-108247078D01*
X152257078Y-108314542D01*
X152257080Y-108314545D01*
X152305526Y-108398456D01*
X152305528Y-108398459D01*
X152374041Y-108466972D01*
X152374043Y-108466973D01*
X152457957Y-108515421D01*
X152551552Y-108540500D01*
X152551556Y-108540500D01*
X152648444Y-108540500D01*
X152648448Y-108540500D01*
X152742043Y-108515421D01*
X152825957Y-108466973D01*
X152825957Y-108466972D01*
X152825959Y-108466972D01*
X152886432Y-108406499D01*
X152928151Y-108389218D01*
X152969870Y-108406499D01*
X153030343Y-108466972D01*
X153030345Y-108466973D01*
X153114259Y-108515421D01*
X153207854Y-108540500D01*
X153207858Y-108540500D01*
X153304746Y-108540500D01*
X153304750Y-108540500D01*
X153398345Y-108515421D01*
X153482259Y-108466973D01*
X153510492Y-108438740D01*
X153550774Y-108398459D01*
X153550775Y-108398457D01*
X153599223Y-108314543D01*
X153624302Y-108220948D01*
X153624302Y-108124052D01*
X153599223Y-108030457D01*
X153550775Y-107946543D01*
X153550774Y-107946541D01*
X153482261Y-107878028D01*
X153482258Y-107878026D01*
X153398347Y-107829580D01*
X153398344Y-107829578D01*
X153344306Y-107815099D01*
X153304750Y-107804500D01*
X153207854Y-107804500D01*
X153188075Y-107809799D01*
X153114259Y-107829578D01*
X153114256Y-107829580D01*
X153030345Y-107878026D01*
X152969870Y-107938501D01*
X152928151Y-107955782D01*
X152886432Y-107938501D01*
X152825959Y-107878028D01*
X152825956Y-107878026D01*
X152742045Y-107829580D01*
X152742042Y-107829578D01*
X152688004Y-107815099D01*
X152648448Y-107804500D01*
X152551552Y-107804500D01*
X152531773Y-107809799D01*
X152457957Y-107829578D01*
X152457954Y-107829580D01*
X152374043Y-107878026D01*
X152305526Y-107946543D01*
X152257080Y-108030454D01*
X152257078Y-108030457D01*
X152237299Y-108104273D01*
X152232000Y-108124052D01*
X145457234Y-108124052D01*
X145452921Y-108107957D01*
X145404473Y-108024043D01*
X145404472Y-108024041D01*
X145335959Y-107955528D01*
X145335956Y-107955526D01*
X145252045Y-107907080D01*
X145252042Y-107907078D01*
X145198004Y-107892599D01*
X145158448Y-107882000D01*
X145061552Y-107882000D01*
X145041773Y-107887299D01*
X144967957Y-107907078D01*
X144967954Y-107907080D01*
X144884043Y-107955526D01*
X144815526Y-108024043D01*
X144767080Y-108107954D01*
X144767078Y-108107957D01*
X144759041Y-108137954D01*
X144742000Y-108201552D01*
X139920500Y-108201552D01*
X139920500Y-106931552D01*
X143652000Y-106931552D01*
X143652000Y-107028448D01*
X143662599Y-107068004D01*
X143677078Y-107122042D01*
X143677080Y-107122045D01*
X143725526Y-107205956D01*
X143725528Y-107205959D01*
X143772850Y-107253281D01*
X143790131Y-107295000D01*
X143772850Y-107336719D01*
X143735526Y-107374043D01*
X143687080Y-107457954D01*
X143687078Y-107457957D01*
X143667299Y-107531773D01*
X143662000Y-107551552D01*
X143662000Y-107648448D01*
X143672599Y-107688004D01*
X143687078Y-107742042D01*
X143687080Y-107742045D01*
X143735526Y-107825956D01*
X143735528Y-107825959D01*
X143804041Y-107894472D01*
X143804043Y-107894473D01*
X143887957Y-107942921D01*
X143981552Y-107968000D01*
X143981556Y-107968000D01*
X144078444Y-107968000D01*
X144078448Y-107968000D01*
X144172043Y-107942921D01*
X144255957Y-107894473D01*
X144255957Y-107894472D01*
X144255959Y-107894472D01*
X144324472Y-107825959D01*
X144324473Y-107825957D01*
X144372921Y-107742043D01*
X144398000Y-107648448D01*
X144398000Y-107551552D01*
X144372921Y-107457957D01*
X144324473Y-107374043D01*
X144324472Y-107374041D01*
X144277150Y-107326719D01*
X144259869Y-107285000D01*
X144277150Y-107243281D01*
X144314472Y-107205959D01*
X144314473Y-107205957D01*
X144362921Y-107122043D01*
X144388000Y-107028448D01*
X144388000Y-106931552D01*
X144362921Y-106837957D01*
X144314473Y-106754043D01*
X144314472Y-106754041D01*
X144279995Y-106719564D01*
X144262714Y-106677845D01*
X144279995Y-106636126D01*
X144325075Y-106591046D01*
X144373523Y-106507132D01*
X144398602Y-106413537D01*
X144398602Y-106316641D01*
X144373523Y-106223046D01*
X144361113Y-106201552D01*
X148602000Y-106201552D01*
X148602000Y-106298448D01*
X148606875Y-106316641D01*
X148627078Y-106392042D01*
X148627080Y-106392045D01*
X148675526Y-106475956D01*
X148675528Y-106475959D01*
X148744041Y-106544472D01*
X148744043Y-106544473D01*
X148827957Y-106592921D01*
X148921552Y-106618000D01*
X148921556Y-106618000D01*
X149018444Y-106618000D01*
X149018448Y-106618000D01*
X149112043Y-106592921D01*
X149195957Y-106544473D01*
X149195957Y-106544472D01*
X149195959Y-106544472D01*
X149264472Y-106475959D01*
X149264473Y-106475957D01*
X149312921Y-106392043D01*
X149338000Y-106298448D01*
X149338000Y-106221552D01*
X172182000Y-106221552D01*
X172182000Y-106318448D01*
X172192599Y-106358004D01*
X172207078Y-106412042D01*
X172207080Y-106412045D01*
X172255526Y-106495956D01*
X172255528Y-106495959D01*
X172324041Y-106564472D01*
X172324043Y-106564473D01*
X172407957Y-106612921D01*
X172501552Y-106638000D01*
X172501556Y-106638000D01*
X172598444Y-106638000D01*
X172598448Y-106638000D01*
X172692043Y-106612921D01*
X172775957Y-106564473D01*
X172775957Y-106564472D01*
X172775959Y-106564472D01*
X172844472Y-106495959D01*
X172844473Y-106495957D01*
X172892921Y-106412043D01*
X172918000Y-106318448D01*
X172918000Y-106221552D01*
X172892921Y-106127957D01*
X172844473Y-106044043D01*
X172844472Y-106044041D01*
X172775959Y-105975528D01*
X172775956Y-105975526D01*
X172692045Y-105927080D01*
X172692042Y-105927078D01*
X172638004Y-105912599D01*
X172598448Y-105902000D01*
X172501552Y-105902000D01*
X172482601Y-105907078D01*
X172407957Y-105927078D01*
X172407954Y-105927080D01*
X172324043Y-105975526D01*
X172255526Y-106044043D01*
X172207080Y-106127954D01*
X172207078Y-106127957D01*
X172187359Y-106201552D01*
X172182000Y-106221552D01*
X149338000Y-106221552D01*
X149338000Y-106201552D01*
X149312921Y-106107957D01*
X149264473Y-106024043D01*
X149264472Y-106024041D01*
X149195959Y-105955528D01*
X149195956Y-105955526D01*
X149112045Y-105907080D01*
X149112042Y-105907078D01*
X149058004Y-105892599D01*
X149018448Y-105882000D01*
X148921552Y-105882000D01*
X148901773Y-105887299D01*
X148827957Y-105907078D01*
X148827954Y-105907080D01*
X148744043Y-105955526D01*
X148675526Y-106024043D01*
X148627080Y-106107954D01*
X148627078Y-106107957D01*
X148607299Y-106181773D01*
X148602000Y-106201552D01*
X144361113Y-106201552D01*
X144325075Y-106139132D01*
X144325074Y-106139130D01*
X144256561Y-106070617D01*
X144256558Y-106070615D01*
X144172647Y-106022169D01*
X144172644Y-106022167D01*
X144118606Y-106007688D01*
X144079050Y-105997089D01*
X143982154Y-105997089D01*
X143962375Y-106002388D01*
X143888559Y-106022167D01*
X143888556Y-106022169D01*
X143804645Y-106070615D01*
X143736128Y-106139132D01*
X143687682Y-106223043D01*
X143687680Y-106223046D01*
X143667901Y-106296862D01*
X143662602Y-106316641D01*
X143662602Y-106413537D01*
X143673201Y-106453093D01*
X143687680Y-106507131D01*
X143687682Y-106507134D01*
X143736128Y-106591045D01*
X143736130Y-106591048D01*
X143770606Y-106625524D01*
X143787887Y-106667243D01*
X143770607Y-106708962D01*
X143725525Y-106754044D01*
X143677080Y-106837954D01*
X143677078Y-106837957D01*
X143657299Y-106911773D01*
X143652000Y-106931552D01*
X139920500Y-106931552D01*
X139920500Y-105291551D01*
X140781999Y-105291551D01*
X140781999Y-105388447D01*
X140792598Y-105428003D01*
X140807077Y-105482041D01*
X140807079Y-105482044D01*
X140855525Y-105565955D01*
X140855527Y-105565958D01*
X140924040Y-105634471D01*
X140924042Y-105634472D01*
X141007956Y-105682920D01*
X141101551Y-105707999D01*
X141101555Y-105707999D01*
X141198443Y-105707999D01*
X141198447Y-105707999D01*
X141292042Y-105682920D01*
X141375956Y-105634472D01*
X141375956Y-105634471D01*
X141375958Y-105634471D01*
X141444471Y-105565958D01*
X141444472Y-105565956D01*
X141492920Y-105482042D01*
X141517999Y-105388447D01*
X141517999Y-105291551D01*
X141492920Y-105197956D01*
X141444472Y-105114042D01*
X141444471Y-105114040D01*
X141375958Y-105045527D01*
X141355960Y-105033981D01*
X141328471Y-104998156D01*
X141334366Y-104953385D01*
X141355960Y-104931791D01*
X141385957Y-104914473D01*
X141385960Y-104914470D01*
X141454472Y-104845959D01*
X141454473Y-104845957D01*
X141502921Y-104762043D01*
X141528000Y-104668448D01*
X141528000Y-104571552D01*
X141502921Y-104477957D01*
X141502046Y-104475845D01*
X141502045Y-104474691D01*
X141501920Y-104474221D01*
X141502045Y-104474187D01*
X141502044Y-104430689D01*
X141533973Y-104398756D01*
X141548855Y-104394769D01*
X141549337Y-104394705D01*
X141549342Y-104394705D01*
X141642937Y-104369626D01*
X141726851Y-104321178D01*
X141726851Y-104321177D01*
X141726853Y-104321177D01*
X141795366Y-104252664D01*
X141795367Y-104252662D01*
X141807555Y-104231552D01*
X172217000Y-104231552D01*
X172217000Y-104328448D01*
X172227599Y-104368004D01*
X172242078Y-104422042D01*
X172242080Y-104422045D01*
X172290526Y-104505956D01*
X172290528Y-104505959D01*
X172359041Y-104574472D01*
X172359043Y-104574473D01*
X172442957Y-104622921D01*
X172536552Y-104648000D01*
X172536556Y-104648000D01*
X172633444Y-104648000D01*
X172633448Y-104648000D01*
X172727043Y-104622921D01*
X172810957Y-104574473D01*
X172810957Y-104574472D01*
X172810959Y-104574472D01*
X172879472Y-104505959D01*
X172879473Y-104505957D01*
X172927921Y-104422043D01*
X172953000Y-104328448D01*
X172953000Y-104231552D01*
X172927921Y-104137957D01*
X172879473Y-104054043D01*
X172879472Y-104054041D01*
X172810959Y-103985528D01*
X172810956Y-103985526D01*
X172727045Y-103937080D01*
X172727042Y-103937078D01*
X172673004Y-103922599D01*
X172633448Y-103912000D01*
X172536552Y-103912000D01*
X172516773Y-103917299D01*
X172442957Y-103937078D01*
X172442954Y-103937080D01*
X172359043Y-103985526D01*
X172290526Y-104054043D01*
X172242080Y-104137954D01*
X172242078Y-104137957D01*
X172225941Y-104198185D01*
X172217000Y-104231552D01*
X141807555Y-104231552D01*
X141843815Y-104168748D01*
X141866567Y-104083835D01*
X141894054Y-104048014D01*
X141938820Y-104042119D01*
X141960326Y-104047882D01*
X141960330Y-104047882D01*
X142057218Y-104047882D01*
X142057222Y-104047882D01*
X142150817Y-104022803D01*
X142234731Y-103974355D01*
X142234731Y-103974354D01*
X142234733Y-103974354D01*
X142303246Y-103905841D01*
X142303247Y-103905839D01*
X142351695Y-103821925D01*
X142376774Y-103728330D01*
X142376774Y-103631434D01*
X142351695Y-103537839D01*
X142303247Y-103453925D01*
X142303246Y-103453923D01*
X142234733Y-103385410D01*
X142234730Y-103385408D01*
X142205933Y-103368781D01*
X142205931Y-103368781D01*
X142150817Y-103336961D01*
X142150816Y-103336960D01*
X142150815Y-103336960D01*
X142093314Y-103321553D01*
X142093310Y-103321552D01*
X144232000Y-103321552D01*
X144232000Y-103418448D01*
X144234313Y-103427079D01*
X144257078Y-103512042D01*
X144257080Y-103512045D01*
X144305526Y-103595956D01*
X144305528Y-103595959D01*
X144374041Y-103664472D01*
X144374043Y-103664473D01*
X144457957Y-103712921D01*
X144551552Y-103738000D01*
X144551556Y-103738000D01*
X144648444Y-103738000D01*
X144648448Y-103738000D01*
X144742043Y-103712921D01*
X144825957Y-103664473D01*
X144825957Y-103664472D01*
X144825959Y-103664472D01*
X144894472Y-103595959D01*
X144894473Y-103595957D01*
X144942921Y-103512043D01*
X144968000Y-103418448D01*
X144968000Y-103321552D01*
X146542000Y-103321552D01*
X146542000Y-103418448D01*
X146544313Y-103427079D01*
X146567078Y-103512042D01*
X146567080Y-103512045D01*
X146615526Y-103595956D01*
X146615528Y-103595959D01*
X146684041Y-103664472D01*
X146684043Y-103664473D01*
X146767957Y-103712921D01*
X146861552Y-103738000D01*
X146861556Y-103738000D01*
X146958444Y-103738000D01*
X146958448Y-103738000D01*
X147019832Y-103721552D01*
X150682000Y-103721552D01*
X150682000Y-103818448D01*
X150692599Y-103858004D01*
X150707078Y-103912042D01*
X150707080Y-103912045D01*
X150755526Y-103995956D01*
X150755528Y-103995959D01*
X150824041Y-104064472D01*
X150824043Y-104064473D01*
X150907957Y-104112921D01*
X151001552Y-104138000D01*
X151001556Y-104138000D01*
X151098444Y-104138000D01*
X151098448Y-104138000D01*
X151192043Y-104112921D01*
X151275957Y-104064473D01*
X151275957Y-104064472D01*
X151275959Y-104064472D01*
X151344472Y-103995959D01*
X151344473Y-103995957D01*
X151392921Y-103912043D01*
X151418000Y-103818448D01*
X151418000Y-103721552D01*
X151404602Y-103671552D01*
X152962000Y-103671552D01*
X152962000Y-103768448D01*
X152970655Y-103800748D01*
X152987078Y-103862042D01*
X152987080Y-103862045D01*
X153035526Y-103945956D01*
X153035528Y-103945959D01*
X153104041Y-104014472D01*
X153104043Y-104014473D01*
X153187957Y-104062921D01*
X153281552Y-104088000D01*
X153281556Y-104088000D01*
X153378444Y-104088000D01*
X153378448Y-104088000D01*
X153472043Y-104062921D01*
X153555957Y-104014473D01*
X153555957Y-104014472D01*
X153555959Y-104014472D01*
X153624472Y-103945959D01*
X153624473Y-103945957D01*
X153672921Y-103862043D01*
X153698000Y-103768448D01*
X153698000Y-103671552D01*
X153672921Y-103577957D01*
X153624473Y-103494043D01*
X153624472Y-103494041D01*
X153555959Y-103425528D01*
X153555956Y-103425526D01*
X153472045Y-103377080D01*
X153472042Y-103377078D01*
X153418004Y-103362599D01*
X153378448Y-103352000D01*
X153281552Y-103352000D01*
X153261773Y-103357299D01*
X153187957Y-103377078D01*
X153187954Y-103377080D01*
X153104043Y-103425526D01*
X153035526Y-103494043D01*
X152987080Y-103577954D01*
X152987078Y-103577957D01*
X152967299Y-103651773D01*
X152962000Y-103671552D01*
X151404602Y-103671552D01*
X151392921Y-103627957D01*
X151344473Y-103544043D01*
X151344472Y-103544041D01*
X151275959Y-103475528D01*
X151275956Y-103475526D01*
X151192045Y-103427080D01*
X151192042Y-103427078D01*
X151138004Y-103412599D01*
X151098448Y-103402000D01*
X151001552Y-103402000D01*
X150981773Y-103407299D01*
X150907957Y-103427078D01*
X150907954Y-103427080D01*
X150824043Y-103475526D01*
X150755526Y-103544043D01*
X150707080Y-103627954D01*
X150707078Y-103627957D01*
X150692342Y-103682955D01*
X150682000Y-103721552D01*
X147019832Y-103721552D01*
X147052043Y-103712921D01*
X147123689Y-103671556D01*
X147132291Y-103666590D01*
X147132292Y-103666589D01*
X147132297Y-103666585D01*
X147135957Y-103664473D01*
X147168996Y-103631434D01*
X147204472Y-103595959D01*
X147204473Y-103595957D01*
X147252921Y-103512043D01*
X147278000Y-103418448D01*
X147278000Y-103321552D01*
X147252921Y-103227957D01*
X147204473Y-103144043D01*
X147204472Y-103144041D01*
X147135959Y-103075528D01*
X147135956Y-103075526D01*
X147052045Y-103027080D01*
X147052042Y-103027078D01*
X146998004Y-103012599D01*
X146958448Y-103002000D01*
X146861552Y-103002000D01*
X146841773Y-103007299D01*
X146767957Y-103027078D01*
X146767954Y-103027080D01*
X146684043Y-103075526D01*
X146615526Y-103144043D01*
X146567080Y-103227954D01*
X146567078Y-103227957D01*
X146547299Y-103301773D01*
X146542000Y-103321552D01*
X144968000Y-103321552D01*
X144942921Y-103227957D01*
X144894473Y-103144043D01*
X144894472Y-103144041D01*
X144825959Y-103075528D01*
X144825956Y-103075526D01*
X144742045Y-103027080D01*
X144742042Y-103027078D01*
X144688004Y-103012599D01*
X144648448Y-103002000D01*
X144551552Y-103002000D01*
X144531773Y-103007299D01*
X144457957Y-103027078D01*
X144457954Y-103027080D01*
X144374043Y-103075526D01*
X144305526Y-103144043D01*
X144257080Y-103227954D01*
X144257078Y-103227957D01*
X144237299Y-103301773D01*
X144232000Y-103321552D01*
X142093310Y-103321552D01*
X142057222Y-103311882D01*
X141960326Y-103311882D01*
X141940547Y-103317181D01*
X141866731Y-103336960D01*
X141866728Y-103336962D01*
X141782817Y-103385408D01*
X141714300Y-103453925D01*
X141665854Y-103537836D01*
X141665853Y-103537837D01*
X141643102Y-103622746D01*
X141615612Y-103658571D01*
X141570843Y-103664465D01*
X141549346Y-103658705D01*
X141549342Y-103658705D01*
X141452446Y-103658705D01*
X141432667Y-103664004D01*
X141358851Y-103683783D01*
X141358848Y-103683785D01*
X141274937Y-103732231D01*
X141206420Y-103800748D01*
X141157974Y-103884659D01*
X141157972Y-103884662D01*
X141143927Y-103937080D01*
X141132894Y-103978257D01*
X141132894Y-104075153D01*
X141143014Y-104112921D01*
X141157972Y-104168747D01*
X141158849Y-104170863D01*
X141158848Y-104172017D01*
X141158974Y-104172484D01*
X141158848Y-104172517D01*
X141158847Y-104216020D01*
X141126916Y-104247950D01*
X141112053Y-104251933D01*
X141111564Y-104251997D01*
X141111553Y-104252000D01*
X141111552Y-104252000D01*
X141094972Y-104256442D01*
X141017957Y-104277078D01*
X141017954Y-104277080D01*
X140934043Y-104325526D01*
X140865526Y-104394043D01*
X140817080Y-104477954D01*
X140817078Y-104477957D01*
X140797299Y-104551773D01*
X140792000Y-104571552D01*
X140792000Y-104668448D01*
X140802599Y-104708004D01*
X140817078Y-104762042D01*
X140817080Y-104762045D01*
X140865526Y-104845956D01*
X140865528Y-104845959D01*
X140934039Y-104914470D01*
X140934041Y-104914471D01*
X140934043Y-104914473D01*
X140954037Y-104926017D01*
X140981527Y-104961842D01*
X140975633Y-105006612D01*
X140954038Y-105028207D01*
X140924039Y-105045527D01*
X140855527Y-105114040D01*
X140855525Y-105114042D01*
X140807079Y-105197953D01*
X140807077Y-105197956D01*
X140787298Y-105271772D01*
X140781999Y-105291551D01*
X139920500Y-105291551D01*
X139920500Y-101926644D01*
X143611212Y-101926644D01*
X143611212Y-102023540D01*
X143621811Y-102063096D01*
X143636290Y-102117134D01*
X143636292Y-102117137D01*
X143684738Y-102201048D01*
X143684740Y-102201051D01*
X143729910Y-102246221D01*
X143747191Y-102287940D01*
X143729910Y-102329659D01*
X143695526Y-102364043D01*
X143647080Y-102447954D01*
X143647078Y-102447957D01*
X143627299Y-102521773D01*
X143622000Y-102541552D01*
X143622000Y-102638448D01*
X143632599Y-102678004D01*
X143647078Y-102732042D01*
X143647080Y-102732045D01*
X143695526Y-102815956D01*
X143695528Y-102815959D01*
X143764041Y-102884472D01*
X143764043Y-102884473D01*
X143847957Y-102932921D01*
X143941552Y-102958000D01*
X143941556Y-102958000D01*
X144038444Y-102958000D01*
X144038448Y-102958000D01*
X144132043Y-102932921D01*
X144215957Y-102884473D01*
X144215957Y-102884472D01*
X144215959Y-102884472D01*
X144284472Y-102815959D01*
X144284473Y-102815957D01*
X144332921Y-102732043D01*
X144358000Y-102638448D01*
X144358000Y-102541552D01*
X144332921Y-102447957D01*
X144284473Y-102364043D01*
X144284472Y-102364041D01*
X144239301Y-102318870D01*
X144222020Y-102277151D01*
X144239300Y-102235433D01*
X144273685Y-102201049D01*
X144322133Y-102117135D01*
X144342386Y-102041552D01*
X149792000Y-102041552D01*
X149792000Y-102138448D01*
X149802599Y-102178004D01*
X149817078Y-102232042D01*
X149817080Y-102232045D01*
X149865526Y-102315956D01*
X149865528Y-102315959D01*
X149934041Y-102384472D01*
X149934043Y-102384473D01*
X150017957Y-102432921D01*
X150111552Y-102458000D01*
X150111556Y-102458000D01*
X150208444Y-102458000D01*
X150208448Y-102458000D01*
X150302043Y-102432921D01*
X150385957Y-102384473D01*
X150385957Y-102384472D01*
X150385959Y-102384472D01*
X150454472Y-102315959D01*
X150454473Y-102315957D01*
X150502921Y-102232043D01*
X150528000Y-102138448D01*
X150528000Y-102041552D01*
X150502921Y-101947957D01*
X150454473Y-101864043D01*
X150454472Y-101864041D01*
X150385959Y-101795528D01*
X150385956Y-101795526D01*
X150302045Y-101747080D01*
X150302042Y-101747078D01*
X150248004Y-101732599D01*
X150208448Y-101722000D01*
X150111552Y-101722000D01*
X150091773Y-101727299D01*
X150017957Y-101747078D01*
X150017954Y-101747080D01*
X149934043Y-101795526D01*
X149865526Y-101864043D01*
X149817080Y-101947954D01*
X149817078Y-101947957D01*
X149797299Y-102021773D01*
X149792000Y-102041552D01*
X144342386Y-102041552D01*
X144347212Y-102023540D01*
X144347212Y-101926644D01*
X144322133Y-101833049D01*
X144273685Y-101749135D01*
X144273684Y-101749133D01*
X144205171Y-101680620D01*
X144205168Y-101680618D01*
X144121257Y-101632172D01*
X144121254Y-101632170D01*
X144067216Y-101617691D01*
X144027660Y-101607092D01*
X143930764Y-101607092D01*
X143910985Y-101612391D01*
X143837169Y-101632170D01*
X143837166Y-101632172D01*
X143753255Y-101680618D01*
X143684738Y-101749135D01*
X143636292Y-101833046D01*
X143636290Y-101833049D01*
X143627986Y-101864043D01*
X143611212Y-101926644D01*
X139920500Y-101926644D01*
X139920500Y-100461552D01*
X158852000Y-100461552D01*
X158852000Y-100558448D01*
X158862599Y-100598004D01*
X158877078Y-100652042D01*
X158877080Y-100652045D01*
X158925526Y-100735956D01*
X158925528Y-100735959D01*
X158994041Y-100804472D01*
X158994043Y-100804473D01*
X159077957Y-100852921D01*
X159171552Y-100878000D01*
X159171556Y-100878000D01*
X159268444Y-100878000D01*
X159268448Y-100878000D01*
X159362043Y-100852921D01*
X159445957Y-100804473D01*
X159445957Y-100804472D01*
X159445959Y-100804472D01*
X159514472Y-100735959D01*
X159514473Y-100735957D01*
X159562921Y-100652043D01*
X159588000Y-100558448D01*
X159588000Y-100461552D01*
X159562921Y-100367957D01*
X159514473Y-100284043D01*
X159514472Y-100284041D01*
X159445959Y-100215528D01*
X159445956Y-100215526D01*
X159362045Y-100167080D01*
X159362042Y-100167078D01*
X159308004Y-100152599D01*
X159268448Y-100142000D01*
X159171552Y-100142000D01*
X159151773Y-100147299D01*
X159077957Y-100167078D01*
X159077954Y-100167080D01*
X158994043Y-100215526D01*
X158925526Y-100284043D01*
X158877080Y-100367954D01*
X158877078Y-100367957D01*
X158857299Y-100441773D01*
X158852000Y-100461552D01*
X139920500Y-100461552D01*
X139920500Y-100036552D01*
X144387000Y-100036552D01*
X144387000Y-100133448D01*
X144389292Y-100142000D01*
X144412078Y-100227042D01*
X144412080Y-100227045D01*
X144460526Y-100310956D01*
X144460528Y-100310959D01*
X144529041Y-100379472D01*
X144529043Y-100379473D01*
X144612957Y-100427921D01*
X144706552Y-100453000D01*
X144706556Y-100453000D01*
X144803444Y-100453000D01*
X144803448Y-100453000D01*
X144897043Y-100427921D01*
X144920943Y-100414121D01*
X144933990Y-100406590D01*
X144954852Y-100394544D01*
X144980957Y-100379473D01*
X144980957Y-100379472D01*
X144980959Y-100379472D01*
X145049472Y-100310959D01*
X145049473Y-100310957D01*
X145097921Y-100227043D01*
X145123000Y-100133448D01*
X145123000Y-100036552D01*
X145097921Y-99942957D01*
X145049473Y-99859043D01*
X145049472Y-99859041D01*
X144980959Y-99790528D01*
X144980956Y-99790526D01*
X144897045Y-99742080D01*
X144897042Y-99742078D01*
X144843004Y-99727599D01*
X144803448Y-99717000D01*
X144706552Y-99717000D01*
X144686773Y-99722299D01*
X144612957Y-99742078D01*
X144612954Y-99742080D01*
X144529043Y-99790526D01*
X144460526Y-99859043D01*
X144412080Y-99942954D01*
X144412078Y-99942957D01*
X144392299Y-100016773D01*
X144387000Y-100036552D01*
X139920500Y-100036552D01*
X139920500Y-98531552D01*
X149312000Y-98531552D01*
X149312000Y-98628448D01*
X149322599Y-98668004D01*
X149337078Y-98722042D01*
X149337080Y-98722045D01*
X149385526Y-98805956D01*
X149385528Y-98805959D01*
X149397850Y-98818281D01*
X149415131Y-98860000D01*
X149397850Y-98901719D01*
X149385526Y-98914043D01*
X149337080Y-98997954D01*
X149337078Y-98997957D01*
X149319256Y-99064472D01*
X149312000Y-99091552D01*
X149312000Y-99188448D01*
X149322599Y-99228004D01*
X149337078Y-99282042D01*
X149337080Y-99282045D01*
X149385526Y-99365956D01*
X149385528Y-99365959D01*
X149454041Y-99434472D01*
X149454043Y-99434473D01*
X149537957Y-99482921D01*
X149631552Y-99508000D01*
X149631556Y-99508000D01*
X149728444Y-99508000D01*
X149728448Y-99508000D01*
X149822043Y-99482921D01*
X149905957Y-99434473D01*
X149905957Y-99434472D01*
X149905959Y-99434472D01*
X149974472Y-99365959D01*
X149974473Y-99365957D01*
X150022921Y-99282043D01*
X150048000Y-99188448D01*
X150048000Y-99091552D01*
X150022921Y-98997957D01*
X149974473Y-98914043D01*
X149962149Y-98901719D01*
X149944868Y-98860002D01*
X149962146Y-98818283D01*
X149974473Y-98805957D01*
X150022921Y-98722043D01*
X150048000Y-98628448D01*
X150048000Y-98531552D01*
X150022921Y-98437957D01*
X149974473Y-98354043D01*
X149974472Y-98354041D01*
X149905959Y-98285528D01*
X149905956Y-98285526D01*
X149822045Y-98237080D01*
X149822042Y-98237078D01*
X149768004Y-98222599D01*
X149728448Y-98212000D01*
X149631552Y-98212000D01*
X149616777Y-98215959D01*
X149537957Y-98237078D01*
X149537954Y-98237080D01*
X149454043Y-98285526D01*
X149385526Y-98354043D01*
X149337080Y-98437954D01*
X149337078Y-98437957D01*
X149327012Y-98475526D01*
X149312000Y-98531552D01*
X139920500Y-98531552D01*
X139920500Y-97941552D01*
X154522000Y-97941552D01*
X154522000Y-98038448D01*
X154532599Y-98078004D01*
X154547078Y-98132042D01*
X154547080Y-98132045D01*
X154595526Y-98215956D01*
X154595528Y-98215959D01*
X154664041Y-98284472D01*
X154664043Y-98284473D01*
X154741000Y-98328905D01*
X154768490Y-98364730D01*
X154762595Y-98409500D01*
X154741000Y-98431095D01*
X154664043Y-98475526D01*
X154595526Y-98544043D01*
X154547080Y-98627954D01*
X154547078Y-98627957D01*
X154527299Y-98701773D01*
X154522000Y-98721552D01*
X154522000Y-98818448D01*
X154532599Y-98858004D01*
X154547078Y-98912042D01*
X154547080Y-98912045D01*
X154595526Y-98995956D01*
X154595528Y-98995959D01*
X154664041Y-99064472D01*
X154664043Y-99064473D01*
X154747957Y-99112921D01*
X154841552Y-99138000D01*
X154841556Y-99138000D01*
X154938444Y-99138000D01*
X154938448Y-99138000D01*
X155032043Y-99112921D01*
X155115957Y-99064473D01*
X155115957Y-99064472D01*
X155115959Y-99064472D01*
X155184472Y-98995959D01*
X155184473Y-98995957D01*
X155232921Y-98912043D01*
X155258000Y-98818448D01*
X155258000Y-98721552D01*
X155232921Y-98627957D01*
X155184473Y-98544043D01*
X155184472Y-98544041D01*
X155115960Y-98475529D01*
X155115955Y-98475526D01*
X155038997Y-98431094D01*
X155011509Y-98395270D01*
X155017403Y-98350500D01*
X155038996Y-98328906D01*
X155115957Y-98284473D01*
X155115960Y-98284470D01*
X155184472Y-98215959D01*
X155184473Y-98215957D01*
X155232921Y-98132043D01*
X155258000Y-98038448D01*
X155258000Y-97941552D01*
X155232921Y-97847957D01*
X155184473Y-97764043D01*
X155184472Y-97764041D01*
X155115959Y-97695528D01*
X155115956Y-97695526D01*
X155032045Y-97647080D01*
X155032042Y-97647078D01*
X154978004Y-97632599D01*
X154938448Y-97622000D01*
X154841552Y-97622000D01*
X154821773Y-97627299D01*
X154747957Y-97647078D01*
X154747954Y-97647080D01*
X154664043Y-97695526D01*
X154595526Y-97764043D01*
X154547080Y-97847954D01*
X154547078Y-97847957D01*
X154527299Y-97921773D01*
X154522000Y-97941552D01*
X139920500Y-97941552D01*
X139920500Y-97102111D01*
X139920650Y-97097902D01*
X139923352Y-97060118D01*
X139936277Y-96879407D01*
X139937470Y-96871105D01*
X139983586Y-96659113D01*
X139985952Y-96651057D01*
X140061764Y-96447796D01*
X140065251Y-96440160D01*
X140169222Y-96249753D01*
X140173760Y-96242690D01*
X140303775Y-96069012D01*
X140309274Y-96062667D01*
X140462667Y-95909274D01*
X140469012Y-95903775D01*
X140618923Y-95791552D01*
X158862000Y-95791552D01*
X158862000Y-95888448D01*
X158872599Y-95928004D01*
X158887078Y-95982042D01*
X158887080Y-95982045D01*
X158935526Y-96065956D01*
X158935528Y-96065959D01*
X159004041Y-96134472D01*
X159004043Y-96134473D01*
X159087957Y-96182921D01*
X159181552Y-96208000D01*
X159181556Y-96208000D01*
X159278444Y-96208000D01*
X159278448Y-96208000D01*
X159372043Y-96182921D01*
X159455957Y-96134473D01*
X159455957Y-96134472D01*
X159455959Y-96134472D01*
X159524472Y-96065959D01*
X159524473Y-96065957D01*
X159572921Y-95982043D01*
X159598000Y-95888448D01*
X159598000Y-95791552D01*
X159572921Y-95697957D01*
X159524473Y-95614043D01*
X159524472Y-95614041D01*
X159455959Y-95545528D01*
X159455956Y-95545526D01*
X159372045Y-95497080D01*
X159372042Y-95497078D01*
X159318004Y-95482599D01*
X159278448Y-95472000D01*
X159181552Y-95472000D01*
X159161773Y-95477299D01*
X159087957Y-95497078D01*
X159087954Y-95497080D01*
X159004043Y-95545526D01*
X158935526Y-95614043D01*
X158887080Y-95697954D01*
X158887078Y-95697957D01*
X158867985Y-95769216D01*
X158862000Y-95791552D01*
X140618923Y-95791552D01*
X140642690Y-95773760D01*
X140649753Y-95769222D01*
X140840160Y-95665251D01*
X140847796Y-95661764D01*
X141051057Y-95585952D01*
X141059113Y-95583586D01*
X141271105Y-95537470D01*
X141279407Y-95536277D01*
X141497903Y-95520650D01*
X141502112Y-95520500D01*
X141539882Y-95520500D01*
X142349892Y-95520500D01*
X142520163Y-95520575D01*
X142520163Y-95520574D01*
X142520169Y-95520575D01*
X142859249Y-95488925D01*
X143193909Y-95425839D01*
X143193913Y-95425837D01*
X143193917Y-95425837D01*
X143521224Y-95331871D01*
X143521225Y-95331870D01*
X143521241Y-95331866D01*
X143838401Y-95207823D01*
X144142633Y-95054787D01*
X144431294Y-94874089D01*
X144701876Y-94667297D01*
X144952027Y-94436209D01*
X145179574Y-94182833D01*
X145281020Y-94046075D01*
X145281023Y-94046077D01*
X145281027Y-94046064D01*
X145304789Y-94014050D01*
X145306448Y-94007440D01*
X145317875Y-93961889D01*
X145321285Y-93948295D01*
X145321286Y-93948294D01*
X145324197Y-93936687D01*
X145324197Y-93936686D01*
X145324198Y-93936683D01*
X145312523Y-93857778D01*
X145272685Y-93791261D01*
X145271819Y-93789680D01*
X145271540Y-93789348D01*
X145271539Y-93789346D01*
X144439818Y-93172048D01*
X144407974Y-93148413D01*
X144405428Y-93146215D01*
X144401395Y-93144545D01*
X144397423Y-93144055D01*
X144381172Y-93139978D01*
X144365942Y-93136157D01*
X144365941Y-93136156D01*
X144327126Y-93126420D01*
X144327124Y-93126420D01*
X144323995Y-93126882D01*
X144299717Y-93130474D01*
X144299718Y-93130475D01*
X144258752Y-93136536D01*
X144258748Y-93136537D01*
X144248221Y-93138095D01*
X144248219Y-93138095D01*
X144248218Y-93138096D01*
X144237413Y-93144566D01*
X144237404Y-93144570D01*
X144223414Y-93152950D01*
X144223413Y-93152951D01*
X144179789Y-93179077D01*
X144157177Y-93209543D01*
X144154768Y-93212576D01*
X143967485Y-93433054D01*
X143962096Y-93438613D01*
X143749011Y-93631348D01*
X143742939Y-93636155D01*
X143506431Y-93799337D01*
X143499783Y-93803306D01*
X143243952Y-93934104D01*
X143236841Y-93937169D01*
X142966079Y-94033340D01*
X142958628Y-94035447D01*
X142677612Y-94095328D01*
X142669949Y-94096442D01*
X142383499Y-94119006D01*
X142375757Y-94119106D01*
X142088822Y-94103964D01*
X142081133Y-94103049D01*
X141798663Y-94050462D01*
X141791160Y-94048549D01*
X141517995Y-93959419D01*
X141510807Y-93956539D01*
X141493597Y-93948295D01*
X141251677Y-93832407D01*
X141244928Y-93828611D01*
X141200057Y-93799337D01*
X141004279Y-93671609D01*
X140998085Y-93666961D01*
X140780073Y-93479798D01*
X140774542Y-93474380D01*
X140625681Y-93308058D01*
X140593925Y-93272577D01*
X141992546Y-93272577D01*
X141992546Y-93369473D01*
X142003145Y-93409029D01*
X142017624Y-93463067D01*
X142017626Y-93463070D01*
X142066072Y-93546981D01*
X142066074Y-93546984D01*
X142134587Y-93615497D01*
X142134589Y-93615498D01*
X142218503Y-93663946D01*
X142312098Y-93689025D01*
X142312102Y-93689025D01*
X142408990Y-93689025D01*
X142408994Y-93689025D01*
X142502589Y-93663946D01*
X142586503Y-93615498D01*
X142586503Y-93615497D01*
X142586505Y-93615497D01*
X142655018Y-93546984D01*
X142655019Y-93546982D01*
X142703467Y-93463068D01*
X142728546Y-93369473D01*
X142728546Y-93272577D01*
X142703467Y-93178982D01*
X142655019Y-93095068D01*
X142655018Y-93095066D01*
X142586505Y-93026553D01*
X142586502Y-93026551D01*
X142502591Y-92978105D01*
X142502588Y-92978103D01*
X142448550Y-92963624D01*
X142408994Y-92953025D01*
X142312098Y-92953025D01*
X142292319Y-92958324D01*
X142218503Y-92978103D01*
X142218500Y-92978105D01*
X142134589Y-93026551D01*
X142066072Y-93095068D01*
X142017626Y-93178979D01*
X142017624Y-93178982D01*
X142009436Y-93209543D01*
X141992546Y-93272577D01*
X140593925Y-93272577D01*
X140582914Y-93260275D01*
X140578144Y-93254185D01*
X140416201Y-93016821D01*
X140412273Y-93010162D01*
X140406102Y-92997935D01*
X140282816Y-92753646D01*
X140279790Y-92746523D01*
X140185034Y-92475245D01*
X140182972Y-92467806D01*
X140124559Y-92186457D01*
X140123487Y-92178793D01*
X140102423Y-91892229D01*
X140102364Y-91884505D01*
X140104797Y-91842577D01*
X143622546Y-91842577D01*
X143622546Y-91939473D01*
X143630723Y-91969988D01*
X143647624Y-92033067D01*
X143647626Y-92033070D01*
X143696072Y-92116981D01*
X143696074Y-92116984D01*
X143764587Y-92185497D01*
X143764589Y-92185498D01*
X143848503Y-92233946D01*
X143942098Y-92259025D01*
X143942102Y-92259025D01*
X144038990Y-92259025D01*
X144038994Y-92259025D01*
X144132589Y-92233946D01*
X144216503Y-92185498D01*
X144216503Y-92185497D01*
X144216505Y-92185497D01*
X144285018Y-92116984D01*
X144285019Y-92116982D01*
X144333467Y-92033068D01*
X144346556Y-91984217D01*
X144374046Y-91948393D01*
X144418816Y-91942498D01*
X144454641Y-91969988D01*
X144462546Y-91999488D01*
X144462546Y-92029473D01*
X144463510Y-92033070D01*
X144487624Y-92123067D01*
X144487626Y-92123070D01*
X144536072Y-92206981D01*
X144536074Y-92206984D01*
X144604587Y-92275497D01*
X144604589Y-92275498D01*
X144682426Y-92320438D01*
X144709916Y-92356263D01*
X144704021Y-92401033D01*
X144669691Y-92427375D01*
X144669775Y-92427577D01*
X144669021Y-92427888D01*
X144668197Y-92428522D01*
X144666206Y-92429055D01*
X144666197Y-92429059D01*
X144582286Y-92477505D01*
X144513769Y-92546022D01*
X144465323Y-92629933D01*
X144465321Y-92629936D01*
X144455260Y-92667487D01*
X144440243Y-92723531D01*
X144440243Y-92820427D01*
X144450842Y-92859983D01*
X144465321Y-92914021D01*
X144465323Y-92914024D01*
X144513769Y-92997935D01*
X144513771Y-92997938D01*
X144582284Y-93066451D01*
X144582286Y-93066452D01*
X144666200Y-93114900D01*
X144759795Y-93139979D01*
X144759799Y-93139979D01*
X144856687Y-93139979D01*
X144856691Y-93139979D01*
X144950286Y-93114900D01*
X145034200Y-93066452D01*
X145034200Y-93066451D01*
X145034202Y-93066451D01*
X145102715Y-92997938D01*
X145102716Y-92997936D01*
X145151164Y-92914022D01*
X145176243Y-92820427D01*
X145176243Y-92723531D01*
X145151164Y-92629936D01*
X145102716Y-92546022D01*
X145102715Y-92546020D01*
X145034202Y-92477507D01*
X145034199Y-92477505D01*
X144956362Y-92432565D01*
X144928872Y-92396740D01*
X144934767Y-92351970D01*
X144969096Y-92325627D01*
X144969014Y-92325427D01*
X144969761Y-92325117D01*
X144970589Y-92324481D01*
X144972589Y-92323946D01*
X145056503Y-92275498D01*
X145056503Y-92275497D01*
X145056505Y-92275497D01*
X145125018Y-92206984D01*
X145125019Y-92206982D01*
X145173467Y-92123068D01*
X145198546Y-92029473D01*
X145198546Y-91932577D01*
X145173467Y-91838982D01*
X145125019Y-91755068D01*
X145125018Y-91755066D01*
X145056505Y-91686553D01*
X145056502Y-91686551D01*
X144972591Y-91638105D01*
X144972588Y-91638103D01*
X144915918Y-91622919D01*
X144878994Y-91613025D01*
X144782098Y-91613025D01*
X144762319Y-91618324D01*
X144688503Y-91638103D01*
X144688500Y-91638105D01*
X144604589Y-91686551D01*
X144536072Y-91755068D01*
X144487626Y-91838979D01*
X144487624Y-91838982D01*
X144478627Y-91872561D01*
X144475430Y-91884496D01*
X144474536Y-91887831D01*
X144447046Y-91923656D01*
X144402276Y-91929551D01*
X144366451Y-91902061D01*
X144358546Y-91872561D01*
X144358546Y-91842581D01*
X144358546Y-91842577D01*
X144333467Y-91748982D01*
X144285019Y-91665068D01*
X144285018Y-91665066D01*
X144216505Y-91596553D01*
X144216502Y-91596551D01*
X144132591Y-91548105D01*
X144132588Y-91548103D01*
X144078550Y-91533624D01*
X144038994Y-91523025D01*
X143942098Y-91523025D01*
X143922319Y-91528324D01*
X143848503Y-91548103D01*
X143848500Y-91548105D01*
X143764589Y-91596551D01*
X143696072Y-91665068D01*
X143647626Y-91748979D01*
X143647624Y-91748982D01*
X143627845Y-91822798D01*
X143622546Y-91842577D01*
X140104797Y-91842577D01*
X140119010Y-91597638D01*
X140119965Y-91589959D01*
X140174035Y-91307746D01*
X140175980Y-91300283D01*
X140198805Y-91231552D01*
X165602000Y-91231552D01*
X165602000Y-91328448D01*
X165610817Y-91361352D01*
X165627078Y-91422042D01*
X165627080Y-91422045D01*
X165675526Y-91505956D01*
X165675528Y-91505959D01*
X165744041Y-91574472D01*
X165744043Y-91574473D01*
X165827957Y-91622921D01*
X165921552Y-91648000D01*
X165921556Y-91648000D01*
X166018444Y-91648000D01*
X166018448Y-91648000D01*
X166112043Y-91622921D01*
X166195957Y-91574473D01*
X166195957Y-91574472D01*
X166195959Y-91574472D01*
X166264472Y-91505959D01*
X166264473Y-91505957D01*
X166312921Y-91422043D01*
X166338000Y-91328448D01*
X166338000Y-91231552D01*
X166319243Y-91161552D01*
X166622000Y-91161552D01*
X166622000Y-91258448D01*
X166627546Y-91279146D01*
X166647078Y-91352042D01*
X166647080Y-91352045D01*
X166695526Y-91435956D01*
X166695528Y-91435959D01*
X166764041Y-91504472D01*
X166764043Y-91504473D01*
X166847957Y-91552921D01*
X166941552Y-91578000D01*
X166941556Y-91578000D01*
X167038444Y-91578000D01*
X167038448Y-91578000D01*
X167132043Y-91552921D01*
X167215957Y-91504473D01*
X167215957Y-91504472D01*
X167215959Y-91504472D01*
X167284472Y-91435959D01*
X167284473Y-91435957D01*
X167332921Y-91352043D01*
X167358000Y-91258448D01*
X167358000Y-91161552D01*
X167339507Y-91092537D01*
X167609500Y-91092537D01*
X167609500Y-91187462D01*
X167634066Y-91279146D01*
X167634069Y-91279153D01*
X167681527Y-91361351D01*
X167681529Y-91361354D01*
X167748646Y-91428471D01*
X167748648Y-91428472D01*
X167830846Y-91475930D01*
X167830849Y-91475931D01*
X167830852Y-91475933D01*
X167922539Y-91500500D01*
X168017461Y-91500500D01*
X168109148Y-91475933D01*
X168191352Y-91428472D01*
X168191352Y-91428471D01*
X168191354Y-91428471D01*
X168258471Y-91361354D01*
X168258472Y-91361352D01*
X168305933Y-91279148D01*
X168330500Y-91187461D01*
X168330500Y-91092539D01*
X168305933Y-91000852D01*
X168297084Y-90985526D01*
X168258472Y-90918648D01*
X168258471Y-90918646D01*
X168191354Y-90851529D01*
X168191351Y-90851527D01*
X168109153Y-90804069D01*
X168109146Y-90804066D01*
X168017462Y-90779500D01*
X168017461Y-90779500D01*
X167922539Y-90779500D01*
X167922537Y-90779500D01*
X167830853Y-90804066D01*
X167830846Y-90804069D01*
X167748648Y-90851527D01*
X167681527Y-90918648D01*
X167634069Y-91000846D01*
X167634066Y-91000853D01*
X167609500Y-91092537D01*
X167339507Y-91092537D01*
X167332921Y-91067957D01*
X167284473Y-90984043D01*
X167284472Y-90984041D01*
X167215959Y-90915528D01*
X167215956Y-90915526D01*
X167132045Y-90867080D01*
X167132042Y-90867078D01*
X167074010Y-90851529D01*
X167038448Y-90842000D01*
X166941552Y-90842000D01*
X166921773Y-90847299D01*
X166847957Y-90867078D01*
X166847954Y-90867080D01*
X166764043Y-90915526D01*
X166695526Y-90984043D01*
X166647080Y-91067954D01*
X166647078Y-91067957D01*
X166634820Y-91113707D01*
X166622000Y-91161552D01*
X166319243Y-91161552D01*
X166312921Y-91137957D01*
X166264473Y-91054043D01*
X166264472Y-91054041D01*
X166195959Y-90985528D01*
X166195956Y-90985526D01*
X166112045Y-90937080D01*
X166112042Y-90937078D01*
X166043258Y-90918648D01*
X166018448Y-90912000D01*
X165921552Y-90912000D01*
X165901773Y-90917299D01*
X165827957Y-90937078D01*
X165827954Y-90937080D01*
X165744043Y-90985526D01*
X165675526Y-91054043D01*
X165627080Y-91137954D01*
X165627078Y-91137957D01*
X165617701Y-91172955D01*
X165602000Y-91231552D01*
X140198805Y-91231552D01*
X140266546Y-91027571D01*
X140269454Y-91020422D01*
X140394953Y-90761922D01*
X140398785Y-90755195D01*
X140449051Y-90679023D01*
X140557040Y-90515379D01*
X140561719Y-90509213D01*
X140750022Y-90292182D01*
X140755460Y-90286686D01*
X140782684Y-90262576D01*
X141992546Y-90262576D01*
X141992546Y-90359472D01*
X141994964Y-90368495D01*
X142017624Y-90453066D01*
X142017626Y-90453069D01*
X142066072Y-90536980D01*
X142066074Y-90536983D01*
X142134587Y-90605496D01*
X142134589Y-90605497D01*
X142218503Y-90653945D01*
X142312098Y-90679024D01*
X142312102Y-90679024D01*
X142408990Y-90679024D01*
X142408994Y-90679024D01*
X142502589Y-90653945D01*
X142586503Y-90605497D01*
X142586503Y-90605496D01*
X142586505Y-90605496D01*
X142655018Y-90536983D01*
X142655019Y-90536981D01*
X142703467Y-90453067D01*
X142728546Y-90359472D01*
X142728546Y-90262576D01*
X142703467Y-90168981D01*
X142655019Y-90085067D01*
X142655018Y-90085065D01*
X142586505Y-90016552D01*
X142586502Y-90016550D01*
X142502591Y-89968104D01*
X142502588Y-89968102D01*
X142448550Y-89953623D01*
X142408994Y-89943024D01*
X142312098Y-89943024D01*
X142292319Y-89948323D01*
X142218503Y-89968102D01*
X142218500Y-89968104D01*
X142134589Y-90016550D01*
X142066072Y-90085067D01*
X142017626Y-90168978D01*
X142017624Y-90168981D01*
X142005417Y-90214540D01*
X141992546Y-90262576D01*
X140782684Y-90262576D01*
X140970581Y-90096170D01*
X140976687Y-90091440D01*
X141214905Y-89930737D01*
X141221569Y-89926852D01*
X141478785Y-89798727D01*
X141485902Y-89795748D01*
X141757683Y-89702411D01*
X141765127Y-89700389D01*
X142046788Y-89643449D01*
X142054434Y-89642420D01*
X142341116Y-89622857D01*
X142348856Y-89622839D01*
X142635626Y-89640987D01*
X142643280Y-89641979D01*
X142925211Y-89697527D01*
X142932683Y-89699517D01*
X143204899Y-89791505D01*
X143212056Y-89794460D01*
X143469874Y-89921301D01*
X143476583Y-89925168D01*
X143715572Y-90084683D01*
X143721716Y-90089395D01*
X143937752Y-90278828D01*
X143943227Y-90284304D01*
X144133883Y-90501868D01*
X144135681Y-90504021D01*
X144136006Y-90504430D01*
X144159418Y-90534978D01*
X144159420Y-90534979D01*
X144159421Y-90534980D01*
X144228475Y-90574902D01*
X144287932Y-90582763D01*
X144301978Y-90584621D01*
X144304898Y-90585294D01*
X144307324Y-90585491D01*
X144309363Y-90584873D01*
X144384609Y-90564758D01*
X145221934Y-89923014D01*
X145230978Y-89916083D01*
X147984500Y-89916083D01*
X147984500Y-90043917D01*
X147995423Y-90084683D01*
X148017585Y-90167395D01*
X148017587Y-90167398D01*
X148081503Y-90278103D01*
X148081505Y-90278106D01*
X148171894Y-90368495D01*
X148171896Y-90368496D01*
X148282604Y-90432414D01*
X148406083Y-90465500D01*
X148406087Y-90465500D01*
X148533913Y-90465500D01*
X148533917Y-90465500D01*
X148657396Y-90432414D01*
X148768104Y-90368496D01*
X148768104Y-90368495D01*
X148768106Y-90368495D01*
X148858495Y-90278106D01*
X148858496Y-90278104D01*
X148922414Y-90167396D01*
X148955500Y-90043917D01*
X148955500Y-89916083D01*
X153784500Y-89916083D01*
X153784500Y-90043917D01*
X153795423Y-90084683D01*
X153817585Y-90167395D01*
X153817587Y-90167398D01*
X153881503Y-90278103D01*
X153881505Y-90278106D01*
X153971894Y-90368495D01*
X153971896Y-90368496D01*
X154082604Y-90432414D01*
X154206083Y-90465500D01*
X154206087Y-90465500D01*
X154333913Y-90465500D01*
X154333917Y-90465500D01*
X154457396Y-90432414D01*
X154568104Y-90368496D01*
X154568104Y-90368495D01*
X154568106Y-90368495D01*
X154658495Y-90278106D01*
X154658496Y-90278104D01*
X154722414Y-90167396D01*
X154755500Y-90043917D01*
X154755500Y-89916083D01*
X154722414Y-89792604D01*
X154658496Y-89681896D01*
X154658495Y-89681894D01*
X154568106Y-89591505D01*
X154568103Y-89591503D01*
X154457398Y-89527587D01*
X154457395Y-89527585D01*
X154386103Y-89508483D01*
X154333917Y-89494500D01*
X154206083Y-89494500D01*
X154179989Y-89501491D01*
X154082604Y-89527585D01*
X154082601Y-89527587D01*
X153971896Y-89591503D01*
X153881503Y-89681896D01*
X153817587Y-89792601D01*
X153817585Y-89792604D01*
X153805188Y-89838873D01*
X153784500Y-89916083D01*
X148955500Y-89916083D01*
X148922414Y-89792604D01*
X148858496Y-89681896D01*
X148858495Y-89681894D01*
X148768106Y-89591505D01*
X148768103Y-89591503D01*
X148657398Y-89527587D01*
X148657395Y-89527585D01*
X148586103Y-89508483D01*
X148533917Y-89494500D01*
X148406083Y-89494500D01*
X148379989Y-89501491D01*
X148282604Y-89527585D01*
X148282601Y-89527587D01*
X148171896Y-89591503D01*
X148081503Y-89681896D01*
X148017587Y-89792601D01*
X148017585Y-89792604D01*
X148005188Y-89838873D01*
X147984500Y-89916083D01*
X145230978Y-89916083D01*
X145241616Y-89907930D01*
X145241616Y-89907928D01*
X145241619Y-89907927D01*
X145241620Y-89907925D01*
X145241739Y-89907834D01*
X145242573Y-89906276D01*
X145281540Y-89838873D01*
X145291996Y-89759797D01*
X145271396Y-89682739D01*
X145234302Y-89634340D01*
X145219323Y-89614795D01*
X145219220Y-89614687D01*
X145145235Y-89518214D01*
X145123336Y-89494500D01*
X144951502Y-89308420D01*
X144918032Y-89272175D01*
X144918029Y-89272172D01*
X144918027Y-89272170D01*
X144669255Y-89047977D01*
X144669251Y-89047974D01*
X144400993Y-88847504D01*
X144400988Y-88847501D01*
X144115489Y-88672432D01*
X143815172Y-88524252D01*
X143815162Y-88524248D01*
X143815160Y-88524247D01*
X143709793Y-88483783D01*
X143502532Y-88404189D01*
X143502526Y-88404187D01*
X143502524Y-88404186D01*
X143502523Y-88404186D01*
X143180205Y-88313259D01*
X143180202Y-88313258D01*
X143180197Y-88313257D01*
X143180191Y-88313255D01*
X142850932Y-88252233D01*
X142850915Y-88252231D01*
X142850914Y-88252231D01*
X142767540Y-88244576D01*
X142517421Y-88221614D01*
X142517403Y-88221613D01*
X142395487Y-88221593D01*
X142395487Y-88221592D01*
X142388935Y-88221591D01*
X142388035Y-88221228D01*
X142349113Y-88221586D01*
X142348962Y-88221586D01*
X142348782Y-88221586D01*
X142306767Y-88221592D01*
X142302691Y-88222013D01*
X142277264Y-88222246D01*
X142235388Y-88205348D01*
X142217725Y-88163789D01*
X142234623Y-88121913D01*
X142249931Y-88110683D01*
X142374086Y-88047423D01*
X142374090Y-88047420D01*
X142374091Y-88047420D01*
X142476628Y-87972922D01*
X142579170Y-87898421D01*
X142758421Y-87719170D01*
X142892889Y-87534091D01*
X142907420Y-87514091D01*
X142907426Y-87514080D01*
X143022508Y-87288219D01*
X143022508Y-87288218D01*
X143022509Y-87288217D01*
X143100844Y-87047126D01*
X143140500Y-86796749D01*
X143140500Y-86543251D01*
X143100844Y-86292874D01*
X143091885Y-86265302D01*
X143029007Y-86071783D01*
X143022509Y-86051783D01*
X143022508Y-86051781D01*
X143022508Y-86051780D01*
X142907426Y-85825919D01*
X142907420Y-85825908D01*
X142758424Y-85620834D01*
X142758423Y-85620833D01*
X142758421Y-85620830D01*
X142579170Y-85441579D01*
X142579167Y-85441577D01*
X142579165Y-85441575D01*
X142374091Y-85292579D01*
X142374080Y-85292573D01*
X142157203Y-85182069D01*
X142127876Y-85147732D01*
X142131419Y-85102715D01*
X142165756Y-85073388D01*
X142183988Y-85070500D01*
X157790109Y-85070500D01*
X157831828Y-85087781D01*
G37*
%TD.AperFunction*%
%TD*%
M02*
