%TF.GenerationSoftware,KiCad,Pcbnew,9.0.4*%
%TF.CreationDate,2025-12-23T13:44:40+00:00*%
%TF.ProjectId,Lyra Avionics,4c797261-2041-4766-996f-6e6963732e6b,REV3*%
%TF.SameCoordinates,Original*%
%TF.FileFunction,Copper,L4,Bot*%
%TF.FilePolarity,Positive*%
%FSLAX46Y46*%
G04 Gerber Fmt 4.6, Leading zero omitted, Abs format (unit mm)*
G04 Created by KiCad (PCBNEW 9.0.4) date 2025-12-23 13:44:40*
%MOMM*%
%LPD*%
G01*
G04 APERTURE LIST*
%TA.AperFunction,ComponentPad*%
%ADD10C,2.500000*%
%TD*%
%TA.AperFunction,ComponentPad*%
%ADD11O,1.000000X1.800000*%
%TD*%
%TA.AperFunction,ComponentPad*%
%ADD12O,1.000000X2.100000*%
%TD*%
%TA.AperFunction,ComponentPad*%
%ADD13C,0.650000*%
%TD*%
%TA.AperFunction,ComponentPad*%
%ADD14C,0.600000*%
%TD*%
%TA.AperFunction,ViaPad*%
%ADD15C,0.600000*%
%TD*%
%TA.AperFunction,Conductor*%
%ADD16C,0.150000*%
%TD*%
G04 APERTURE END LIST*
D10*
%TO.P,U4,1,1*%
%TO.N,GND*%
X1883936Y-26539424D03*
%TO.P,U4,2,2*%
X-3196074Y-26539424D03*
%TO.P,U4,3,3*%
X-3196074Y-21459414D03*
%TO.P,U4,4,4*%
X1883936Y-21459414D03*
%TO.P,U4,5,5*%
%TO.N,Net-(U6-ANT)*%
X-656069Y-23999419D03*
%TD*%
D11*
%TO.P,U5,4,SHELL*%
%TO.N,GND*%
X4071605Y28730355D03*
%TO.P,U5,3,SHELL*%
X-4568395Y28730355D03*
D12*
%TO.P,U5,2,SHELL*%
X-4568395Y24550355D03*
%TO.P,U5,1,SHELL*%
X4071605Y24550355D03*
D13*
%TO.P,U5,*%
%TO.N,*%
X-3138395Y25050355D03*
X2651605Y25050355D03*
%TD*%
D14*
%TO.P,U1,81,GND*%
%TO.N,GND*%
X284938Y-1082978D03*
X284938Y50355D03*
X284938Y1183688D03*
X-848395Y-1082978D03*
X-848395Y50355D03*
X-848395Y1183688D03*
X-1981728Y-1082978D03*
X-1981728Y50355D03*
X-1981728Y1183688D03*
%TD*%
D15*
%TO.N,/GPIO14*%
X-6813374Y-633731D03*
%TO.N,/GPIO15*%
X-7500000Y-1000000D03*
%TO.N,/GPIO14*%
X-8000000Y-7000000D03*
%TO.N,/GPIO15*%
X-8750003Y-7000000D03*
%TO.N,/GPIO5*%
X-17143554Y10556616D03*
X-17899977Y11968917D03*
%TO.N,GND*%
X-2140344Y-9504176D03*
X571950Y-9500000D03*
X8000000Y-4449645D03*
X8505000Y-449645D03*
X8500000Y550355D03*
X8349261Y4359627D03*
%TO.N,+3V3*%
X10000000Y5000000D03*
X9000000Y5000000D03*
X10000000Y6000000D03*
X9000000Y6000000D03*
%TO.N,GND*%
X3500000Y11500000D03*
X3500000Y12500000D03*
X3500000Y13500000D03*
X4500000Y13500000D03*
X4500000Y11500000D03*
X4500000Y12500000D03*
%TO.N,+3V3*%
X7999999Y11154180D03*
X5418690Y11081310D03*
%TO.N,GND*%
X-1848395Y10000000D03*
X-5883333Y8662320D03*
X-10000000Y258112D03*
X-10000000Y-2149645D03*
X-10000001Y2950681D03*
%TD*%
D16*
%TO.N,/GPIO14*%
X-6813374Y-2813374D02*
X-6813374Y-633731D01*
X-7500000Y-3500000D02*
X-6813374Y-2813374D01*
X-8000000Y-7000000D02*
X-8000000Y-4000000D01*
X-8000000Y-4000000D02*
X-7500000Y-3500000D01*
%TO.N,/GPIO15*%
X-7500000Y-2500000D02*
X-7500000Y-1000000D01*
X-8750003Y-7000000D02*
X-8750003Y-3750003D01*
X-8750003Y-3750003D02*
X-7500000Y-2500000D01*
%TO.N,/GPIO5*%
X-17899977Y11968917D02*
X-17899977Y11313039D01*
X-17899977Y11313039D02*
X-17143554Y10556616D01*
%TO.N,+3V3*%
X5418690Y11081310D02*
X5491560Y11154180D01*
X5491560Y11154180D02*
X7999999Y11154180D01*
%TD*%
M02*
