%TF.GenerationSoftware,KiCad,Pcbnew,9.0.4*%
%TF.CreationDate,2025-12-23T13:44:40+00:00*%
%TF.ProjectId,Lyra Avionics,4c797261-2041-4766-996f-6e6963732e6b,REV3*%
%TF.SameCoordinates,Original*%
%TF.FileFunction,Profile,NP*%
%FSLAX46Y46*%
G04 Gerber Fmt 4.6, Leading zero omitted, Abs format (unit mm)*
G04 Created by KiCad (PCBNEW 9.0.4) date 2025-12-23 13:44:40*
%MOMM*%
%LPD*%
G01*
G04 APERTURE LIST*
%TA.AperFunction,Profile*%
%ADD10C,0.050000*%
%TD*%
%ADD11C,0.050000*%
G04 APERTURE END LIST*
D10*
X19500000Y30000000D02*
X19713343Y-29000000D01*
X19500000Y30000000D02*
X-27500000Y30000000D01*
X-27500000Y-29000000D02*
X19713343Y-29000000D01*
X-27271780Y4766994D02*
X-27000000Y-29000000D01*
X-27492417Y18103186D02*
X-27492417Y30000000D01*
D11*
X-26324545Y5936509D02*
X-26330250Y5936499D01*
X-26335933Y5936469D01*
X-26341584Y5936419D01*
X-26347213Y5936350D01*
X-26352810Y5936261D01*
X-26358385Y5936152D01*
X-26363928Y5936024D01*
X-26369450Y5935876D01*
X-26374940Y5935709D01*
X-26380409Y5935523D01*
X-26385846Y5935318D01*
X-26391263Y5935093D01*
X-26396649Y5934850D01*
X-26402014Y5934588D01*
X-26407348Y5934307D01*
X-26412662Y5934008D01*
X-26417945Y5933690D01*
X-26423208Y5933353D01*
X-26428441Y5932998D01*
X-26433654Y5932625D01*
X-26438837Y5932234D01*
X-26444000Y5931824D01*
X-26449134Y5931396D01*
X-26454248Y5930950D01*
X-26459333Y5930486D01*
X-26464398Y5930004D01*
X-26469435Y5929505D01*
X-26474452Y5928988D01*
X-26479440Y5928453D01*
X-26484409Y5927901D01*
X-26489351Y5927331D01*
X-26494273Y5926744D01*
X-26499167Y5926139D01*
X-26504042Y5925517D01*
X-26508890Y5924878D01*
X-26513719Y5924222D01*
X-26518522Y5923549D01*
X-26523305Y5922859D01*
X-26528061Y5922152D01*
X-26532799Y5921428D01*
X-26537511Y5920687D01*
X-26542204Y5919929D01*
X-26546871Y5919156D01*
X-26551519Y5918365D01*
X-26556143Y5917558D01*
X-26560747Y5916734D01*
X-26565327Y5915894D01*
X-26569888Y5915037D01*
X-26574424Y5914164D01*
X-26578942Y5913275D01*
X-26583436Y5912370D01*
X-26587912Y5911449D01*
X-26592363Y5910512D01*
X-26596797Y5909558D01*
X-26601207Y5908589D01*
X-26605598Y5907603D01*
X-26609967Y5906602D01*
X-26614317Y5905585D01*
X-26618645Y5904553D01*
X-26622955Y5903504D01*
X-26627242Y5902441D01*
X-26631511Y5901361D01*
X-26635759Y5900266D01*
X-26639988Y5899155D01*
X-26644196Y5898029D01*
X-26648386Y5896887D01*
X-26652554Y5895730D01*
X-26656705Y5894558D01*
X-26660834Y5893370D01*
X-26664947Y5892167D01*
X-26669038Y5890949D01*
X-26673112Y5889716D01*
X-26677165Y5888468D01*
X-26681201Y5887204D01*
X-26685217Y5885926D01*
X-26689216Y5884632D01*
X-26693195Y5883323D01*
X-26697156Y5882000D01*
X-26701098Y5880661D01*
X-26705023Y5879308D01*
X-26708929Y5877939D01*
X-26712818Y5876556D01*
X-26716688Y5875158D01*
X-26720541Y5873745D01*
X-26724375Y5872318D01*
X-26728192Y5870875D01*
X-26731991Y5869418D01*
X-26735774Y5867946D01*
X-26739538Y5866460D01*
X-26743286Y5864959D01*
X-26747015Y5863443D01*
X-26750729Y5861913D01*
X-26754424Y5860368D01*
X-26758104Y5858808D01*
X-26761766Y5857234D01*
X-26765411Y5855646D01*
X-26769040Y5854042D01*
X-26772653Y5852425D01*
X-26776248Y5850793D01*
X-26779828Y5849146D01*
X-26783391Y5847485D01*
X-26786938Y5845809D01*
X-26790469Y5844119D01*
X-26793983Y5842414D01*
X-26797482Y5840695D01*
X-26800965Y5838961D01*
X-26804432Y5837213D01*
X-26807883Y5835451D01*
X-26811319Y5833674D01*
X-26814739Y5831882D01*
X-26818144Y5830077D01*
X-26821533Y5828256D01*
X-26824908Y5826422D01*
X-26828266Y5824572D01*
X-26831610Y5822709D01*
X-26834938Y5820831D01*
X-26838252Y5818938D01*
X-26841550Y5817031D01*
X-26844834Y5815109D01*
X-26848103Y5813174D01*
X-26851358Y5811223D01*
X-26854597Y5809258D01*
X-26857822Y5807278D01*
X-26861032Y5805284D01*
X-26864229Y5803275D01*
X-26867410Y5801252D01*
X-26873731Y5797162D01*
X-26879995Y5793013D01*
X-26886204Y5788806D01*
X-26892356Y5784539D01*
X-26898454Y5780214D01*
X-26904497Y5775829D01*
X-26910487Y5771385D01*
X-26916422Y5766881D01*
X-26922305Y5762317D01*
X-26928135Y5757693D01*
X-26933913Y5753009D01*
X-26939639Y5748263D01*
X-26945314Y5743456D01*
X-26950937Y5738588D01*
X-26956511Y5733658D01*
X-26962034Y5728665D01*
X-26967508Y5723610D01*
X-26972932Y5718491D01*
X-26978307Y5713309D01*
X-26983633Y5708063D01*
X-26988911Y5702753D01*
X-26994141Y5697378D01*
X-26999322Y5691937D01*
X-27004457Y5686430D01*
X-27009544Y5680857D01*
X-27014584Y5675217D01*
X-27019577Y5669510D01*
X-27024524Y5663734D01*
X-27029425Y5657889D01*
X-27034279Y5651975D01*
X-27039088Y5645991D01*
X-27043850Y5639937D01*
X-27048567Y5633811D01*
X-27053239Y5627613D01*
X-27057865Y5621343D01*
X-27062447Y5614999D01*
X-27066983Y5608581D01*
X-27071474Y5602088D01*
X-27075920Y5595520D01*
X-27080322Y5588875D01*
X-27084679Y5582153D01*
X-27088991Y5575353D01*
X-27093258Y5568474D01*
X-27097481Y5561516D01*
X-27101660Y5554477D01*
X-27105793Y5547356D01*
X-27109882Y5540153D01*
X-27113927Y5532867D01*
X-27117926Y5525497D01*
X-27121882Y5518041D01*
X-27125792Y5510500D01*
X-27129657Y5502871D01*
X-27133478Y5495155D01*
X-27137253Y5487349D01*
X-27140983Y5479452D01*
X-27144669Y5471465D01*
X-27148308Y5463385D01*
X-27151902Y5455212D01*
X-27155451Y5446944D01*
X-27158953Y5438580D01*
X-27162410Y5430120D01*
X-27165820Y5421561D01*
X-27169184Y5412902D01*
X-27172501Y5404144D01*
X-27175771Y5395283D01*
X-27178995Y5386319D01*
X-27182171Y5377250D01*
X-27185299Y5368076D01*
X-27188380Y5358794D01*
X-27191412Y5349404D01*
X-27194396Y5339904D01*
X-27197331Y5330292D01*
X-27200217Y5320567D01*
X-27203054Y5310727D01*
X-27205841Y5300771D01*
X-27208578Y5290698D01*
X-27211265Y5280505D01*
X-27213901Y5270191D01*
X-27216486Y5259755D01*
X-27219020Y5249194D01*
X-27221501Y5238507D01*
X-27223930Y5227692D01*
X-27226307Y5216746D01*
X-27228631Y5205669D01*
X-27230901Y5194458D01*
X-27233117Y5183112D01*
X-27235278Y5171627D01*
X-27237385Y5160002D01*
X-27239436Y5148235D01*
X-27241431Y5136324D01*
X-27243370Y5124265D01*
X-27245252Y5112058D01*
X-27247077Y5099699D01*
X-27248844Y5087185D01*
X-27250552Y5074515D01*
X-27252201Y5061685D01*
X-27253790Y5048693D01*
X-27255320Y5035535D01*
X-27256788Y5022209D01*
X-27258195Y5008712D01*
X-27259540Y4995040D01*
X-27260823Y4981191D01*
X-27262042Y4967159D01*
X-27263197Y4952943D01*
X-27264287Y4938538D01*
X-27265312Y4923939D01*
X-27266271Y4909144D01*
X-27267163Y4894148D01*
X-27267987Y4878946D01*
X-27268742Y4863533D01*
X-27269429Y4847904D01*
X-27270045Y4832055D01*
X-27270590Y4815979D01*
X-27271064Y4799671D01*
X-27271465Y4783125D01*
X-27271780Y4766994D01*
D10*
X-24574342Y15936509D02*
X-26827365Y15933729D01*
X-23574342Y7936509D02*
G75*
G02*
X-24574342Y6936509I-1000000J0D01*
G01*
X-26833869Y6945541D02*
G75*
G02*
X-27833869Y7936509I27J1000068D01*
G01*
X-23574342Y8436509D02*
G75*
G02*
X-22574342Y8436509I500000J0D01*
G01*
X-23574342Y7936509D02*
X-23574342Y8436509D01*
X-22574342Y7436509D02*
G75*
G02*
X-24074342Y5936509I-1500000J0D01*
G01*
X-22574342Y7436509D02*
X-22574342Y8436509D01*
X-23574342Y14936509D02*
X-23574342Y14436509D01*
X-22574342Y14436509D02*
G75*
G02*
X-23574342Y14436509I-500000J0D01*
G01*
X-24074342Y16936509D02*
G75*
G02*
X-22574342Y15436509I0J-1500000D01*
G01*
X-24574342Y15936509D02*
G75*
G02*
X-23574342Y14936509I0J-1000000D01*
G01*
X-22574342Y15436509D02*
X-22574342Y14436509D01*
X-24574342Y6936509D02*
X-26833869Y6945542D01*
X-27833821Y14936509D02*
G75*
G02*
X-26827365Y15933742I1006463J-9273D01*
G01*
X-27833869Y7936509D02*
X-27833821Y14936509D01*
D11*
X-26545182Y16933671D02*
X-26551196Y16933681D01*
X-26557187Y16933711D01*
X-26563140Y16933761D01*
X-26569071Y16933830D01*
X-26574964Y16933919D01*
X-26580835Y16934028D01*
X-26586668Y16934156D01*
X-26592479Y16934304D01*
X-26598254Y16934471D01*
X-26604007Y16934657D01*
X-26609723Y16934862D01*
X-26615417Y16935086D01*
X-26621076Y16935329D01*
X-26626713Y16935590D01*
X-26632314Y16935871D01*
X-26637894Y16936170D01*
X-26643439Y16936487D01*
X-26648963Y16936823D01*
X-26654452Y16937177D01*
X-26659919Y16937550D01*
X-26665353Y16937941D01*
X-26670766Y16938349D01*
X-26676144Y16938776D01*
X-26681502Y16939221D01*
X-26686827Y16939683D01*
X-26692130Y16940163D01*
X-26697401Y16940661D01*
X-26702651Y16941177D01*
X-26707869Y16941709D01*
X-26713066Y16942260D01*
X-26718232Y16942827D01*
X-26723376Y16943412D01*
X-26728490Y16944014D01*
X-26733583Y16944634D01*
X-26738644Y16945269D01*
X-26743686Y16945923D01*
X-26748697Y16946593D01*
X-26753687Y16947280D01*
X-26758648Y16947983D01*
X-26763588Y16948703D01*
X-26768499Y16949440D01*
X-26773390Y16950193D01*
X-26778251Y16950963D01*
X-26783093Y16951749D01*
X-26787905Y16952551D01*
X-26792698Y16953370D01*
X-26797462Y16954204D01*
X-26802207Y16955056D01*
X-26806923Y16955922D01*
X-26811621Y16956805D01*
X-26816290Y16957704D01*
X-26820940Y16958619D01*
X-26825562Y16959549D01*
X-26830166Y16960495D01*
X-26834742Y16961457D01*
X-26839299Y16962434D01*
X-26843830Y16963427D01*
X-26848341Y16964436D01*
X-26852826Y16965459D01*
X-26857293Y16966499D01*
X-26861733Y16967553D01*
X-26866155Y16968623D01*
X-26870552Y16969708D01*
X-26874929Y16970809D01*
X-26879282Y16971924D01*
X-26883616Y16973055D01*
X-26887925Y16974200D01*
X-26892216Y16975360D01*
X-26896482Y16976535D01*
X-26900730Y16977726D01*
X-26904954Y16978931D01*
X-26909160Y16980151D01*
X-26913341Y16981385D01*
X-26917505Y16982635D01*
X-26921646Y16983898D01*
X-26925769Y16985177D01*
X-26929868Y16986470D01*
X-26933950Y16987778D01*
X-26938008Y16989100D01*
X-26942050Y16990437D01*
X-26946068Y16991788D01*
X-26950070Y16993154D01*
X-26954049Y16994533D01*
X-26958010Y16995928D01*
X-26961950Y16997336D01*
X-26965872Y16998759D01*
X-26969773Y17000195D01*
X-26973657Y17001647D01*
X-26977519Y17003112D01*
X-26981365Y17004592D01*
X-26985189Y17006085D01*
X-26988997Y17007593D01*
X-26992784Y17009114D01*
X-26996554Y17010651D01*
X-27000304Y17012200D01*
X-27004037Y17013764D01*
X-27007749Y17015342D01*
X-27011446Y17016934D01*
X-27015122Y17018539D01*
X-27018782Y17020159D01*
X-27022423Y17021792D01*
X-27026047Y17023440D01*
X-27029652Y17025101D01*
X-27033241Y17026777D01*
X-27036810Y17028465D01*
X-27040364Y17030168D01*
X-27043899Y17031885D01*
X-27047417Y17033616D01*
X-27050918Y17035360D01*
X-27054402Y17037118D01*
X-27057868Y17038890D01*
X-27061319Y17040675D01*
X-27064751Y17042475D01*
X-27068168Y17044288D01*
X-27071567Y17046115D01*
X-27074950Y17047956D01*
X-27078316Y17049810D01*
X-27081666Y17051679D01*
X-27085000Y17053561D01*
X-27088317Y17055457D01*
X-27091618Y17057366D01*
X-27094904Y17059290D01*
X-27098173Y17061227D01*
X-27101426Y17063178D01*
X-27104663Y17065143D01*
X-27107885Y17067121D01*
X-27111091Y17069114D01*
X-27114281Y17071120D01*
X-27117456Y17073140D01*
X-27120615Y17075174D01*
X-27123759Y17077222D01*
X-27126888Y17079284D01*
X-27130001Y17081359D01*
X-27133099Y17083449D01*
X-27136182Y17085552D01*
X-27139250Y17087670D01*
X-27142304Y17089801D01*
X-27145342Y17091946D01*
X-27148366Y17094106D01*
X-27151374Y17096279D01*
X-27154368Y17098467D01*
X-27157348Y17100668D01*
X-27160313Y17102884D01*
X-27163263Y17105114D01*
X-27169121Y17109616D01*
X-27174922Y17114175D01*
X-27180666Y17118791D01*
X-27186354Y17123465D01*
X-27191987Y17128196D01*
X-27197564Y17132985D01*
X-27203087Y17137833D01*
X-27208555Y17142739D01*
X-27213969Y17147704D01*
X-27219330Y17152729D01*
X-27224638Y17157813D01*
X-27229893Y17162958D01*
X-27235095Y17168163D01*
X-27240246Y17173429D01*
X-27245345Y17178757D01*
X-27250392Y17184146D01*
X-27255389Y17189598D01*
X-27260335Y17195113D01*
X-27265230Y17200691D01*
X-27270075Y17206333D01*
X-27274870Y17212040D01*
X-27279615Y17217812D01*
X-27284311Y17223649D01*
X-27288957Y17229553D01*
X-27293554Y17235523D01*
X-27298103Y17241561D01*
X-27302602Y17247667D01*
X-27307053Y17253842D01*
X-27311455Y17260086D01*
X-27315809Y17266400D01*
X-27320115Y17272785D01*
X-27324372Y17279242D01*
X-27328582Y17285771D01*
X-27332743Y17292373D01*
X-27336856Y17299049D01*
X-27340921Y17305799D01*
X-27344939Y17312625D01*
X-27348908Y17319526D01*
X-27352829Y17326505D01*
X-27356703Y17333562D01*
X-27360528Y17340698D01*
X-27364306Y17347913D01*
X-27368035Y17355208D01*
X-27371716Y17362585D01*
X-27375348Y17370044D01*
X-27378933Y17377587D01*
X-27382469Y17385214D01*
X-27385956Y17392926D01*
X-27389394Y17400724D01*
X-27392783Y17408609D01*
X-27396124Y17416583D01*
X-27399414Y17424646D01*
X-27402656Y17432799D01*
X-27405848Y17441043D01*
X-27408989Y17449380D01*
X-27412081Y17457811D01*
X-27415122Y17466337D01*
X-27418112Y17474958D01*
X-27421051Y17483676D01*
X-27423939Y17492493D01*
X-27426776Y17501409D01*
X-27429560Y17510425D01*
X-27432293Y17519544D01*
X-27434972Y17528766D01*
X-27437599Y17538092D01*
X-27440172Y17547524D01*
X-27442692Y17557063D01*
X-27445158Y17566710D01*
X-27447569Y17576467D01*
X-27449925Y17586336D01*
X-27452226Y17596317D01*
X-27454471Y17606411D01*
X-27456660Y17616622D01*
X-27458792Y17626949D01*
X-27460867Y17637395D01*
X-27462884Y17647961D01*
X-27464843Y17658649D01*
X-27466743Y17669460D01*
X-27468584Y17680395D01*
X-27470366Y17691457D01*
X-27472086Y17702647D01*
X-27473746Y17713968D01*
X-27475344Y17725419D01*
X-27476881Y17737004D01*
X-27478354Y17748725D01*
X-27479764Y17760582D01*
X-27481110Y17772578D01*
X-27482392Y17784715D01*
X-27483608Y17796995D01*
X-27484758Y17809420D01*
X-27485841Y17821992D01*
X-27486857Y17834712D01*
X-27487805Y17847584D01*
X-27488684Y17860609D01*
X-27489493Y17873789D01*
X-27490232Y17887128D01*
X-27490899Y17900626D01*
X-27491495Y17914287D01*
X-27492017Y17928113D01*
X-27492467Y17942107D01*
X-27492841Y17956271D01*
X-27493140Y17970607D01*
X-27493363Y17985119D01*
X-27493509Y17999809D01*
X-27493576Y18014680D01*
X-27493565Y18029735D01*
X-27493473Y18044978D01*
X-27493300Y18060410D01*
X-27493045Y18076036D01*
X-27492707Y18091859D01*
X-27492417Y18103186D01*
D10*
X-26324545Y5936509D02*
X-24074342Y5936509D01*
X-26545182Y16933671D02*
X-24074342Y16936509D01*
M02*
