M48
; DRILL file {KiCad 9.0.4} date 2025-12-23T13:44:40+0000
; FORMAT={-:-/ absolute / inch / decimal}
; #@! TF.CreationDate,2025-12-23T13:44:40+00:00
; #@! TF.GenerationSoftware,Kicad,Pcbnew,9.0.4
; #@! TF.FileFunction,Plated,1,4,PTH
FMAT,2
INCH
; #@! TA.AperFunction,Plated,PTH,ComponentDrill
T1C0.0098
; #@! TA.AperFunction,Plated,PTH,ViaDrill
T2C0.0138
; #@! TA.AperFunction,Plated,PTH,ComponentDrill
T3C0.0236
; #@! TA.AperFunction,Plated,PTH,ComponentDrill
T4C0.0256
; #@! TA.AperFunction,Plated,PTH,ComponentDrill
T5C0.0591
%
G90
G05
T1
X-0.078Y0.0466
X-0.078Y0.002
X-0.078Y-0.0426
X-0.0334Y0.0466
X-0.0334Y0.002
X-0.0334Y-0.0426
X0.0112Y0.0466
X0.0112Y0.002
X0.0112Y-0.0426
T2
X-0.7047Y0.4712
X-0.6749Y0.4156
X-0.3937Y0.1162
X-0.3937Y0.0102
X-0.3937Y-0.0846
X-0.3445Y-0.2756
X-0.315Y-0.2756
X-0.2953Y-0.0394
X-0.2682Y-0.025
X-0.2316Y0.341
X-0.0843Y-0.3742
X-0.0728Y0.3937
X0.0225Y-0.374
X0.1378Y0.5315
X0.1378Y0.4921
X0.1378Y0.4528
X0.1772Y0.5315
X0.1772Y0.4921
X0.1772Y0.4528
X0.2133Y0.4363
X0.315Y0.4391
X0.315Y-0.1752
X0.3287Y0.1716
X0.3346Y0.0217
X0.3348Y-0.0177
X0.3543Y0.2362
X0.3543Y0.1969
X0.3937Y0.2362
X0.3937Y0.1969
T4
X-0.1236Y0.9862
X0.1044Y0.9862
T5
X-0.1258Y-0.8449
X-0.1258Y-1.0449
X-0.0258Y-0.9449
X0.0742Y-0.8449
X0.0742Y-1.0449
T3
G00X-0.1799Y1.1154
M15
G01X-0.1799Y1.1469
M16
G05
G00X-0.1799Y0.9449
M15
G01X-0.1799Y0.9882
M16
G05
G00X0.1603Y1.1154
M15
G01X0.1603Y1.1469
M16
G05
G00X0.1603Y0.9449
M15
G01X0.1603Y0.9882
M16
G05
M30
