%TF.GenerationSoftware,KiCad,Pcbnew,9.0.4*%
%TF.CreationDate,2026-01-25T12:04:54+00:00*%
%TF.ProjectId,Lyra Avionics,4c797261-2041-4766-996f-6e6963732e6b,REV3*%
%TF.SameCoordinates,Original*%
%TF.FileFunction,Legend,Bot*%
%TF.FilePolarity,Positive*%
%FSLAX46Y46*%
G04 Gerber Fmt 4.6, Leading zero omitted, Abs format (unit mm)*
G04 Created by KiCad (PCBNEW 9.0.4) date 2026-01-25 12:04:54*
%MOMM*%
%LPD*%
G01*
G04 APERTURE LIST*
%ADD10C,0.150000*%
%ADD11C,2.760000*%
%ADD12C,0.710000*%
%ADD13O,1.060000X2.160000*%
%ADD14O,1.060000X1.860000*%
%ADD15C,2.560000*%
%ADD16C,0.660000*%
G04 APERTURE END LIST*
D10*
G36*
X-21416634Y883780D02*
G01*
X-21386528Y872665D01*
X-21375438Y862609D01*
X-21367263Y849538D01*
X-21361360Y830311D01*
X-21359400Y806804D01*
X-21359400Y391042D01*
X-21362880Y324488D01*
X-21378524Y246673D01*
X-21404845Y185805D01*
X-21421715Y160738D01*
X-21440940Y139028D01*
X-21463014Y120144D01*
X-21487319Y104644D01*
X-21515399Y91812D01*
X-21545692Y82603D01*
X-21580880Y76600D01*
X-21618298Y74625D01*
X-21650589Y76131D01*
X-21709735Y88908D01*
X-21734924Y99958D01*
X-21757514Y114067D01*
X-21778403Y131984D01*
X-21796667Y153113D01*
X-21813803Y179911D01*
X-21828041Y210424D01*
X-21843599Y178131D01*
X-21877765Y132394D01*
X-21921088Y99234D01*
X-21947004Y87023D01*
X-21975567Y78095D01*
X-22008435Y72350D01*
X-22044318Y70412D01*
X-22097964Y74695D01*
X-22156717Y91704D01*
X-22205750Y120892D01*
X-22226934Y140178D01*
X-22245889Y162767D01*
X-22262719Y189177D01*
X-22276956Y219150D01*
X-22288794Y253972D01*
X-22297539Y292772D01*
X-22303185Y337545D01*
X-22305108Y386829D01*
X-22305108Y704650D01*
X-22141344Y704650D01*
X-22141344Y382616D01*
X-22138926Y345821D01*
X-22125573Y298800D01*
X-22102050Y265968D01*
X-22085905Y253790D01*
X-22067262Y244958D01*
X-22043806Y239013D01*
X-22017574Y237047D01*
X-21990958Y239063D01*
X-21951954Y252307D01*
X-21936121Y263599D01*
X-21922830Y277984D01*
X-21911386Y296932D01*
X-21902959Y319448D01*
X-21897154Y348819D01*
X-21895208Y382616D01*
X-21895208Y386829D01*
X-21758005Y386829D01*
X-21756127Y350927D01*
X-21744400Y302164D01*
X-21723554Y269609D01*
X-21709149Y257760D01*
X-21692164Y249113D01*
X-21670126Y243219D01*
X-21644798Y241260D01*
X-21615730Y243756D01*
X-21577546Y257645D01*
X-21562043Y269074D01*
X-21548828Y283674D01*
X-21537675Y302334D01*
X-21529345Y324632D01*
X-21523739Y352798D01*
X-21521822Y385424D01*
X-21521822Y704650D01*
X-21524393Y715679D01*
X-21529952Y720973D01*
X-21538613Y722846D01*
X-21758005Y722846D01*
X-21758005Y386829D01*
X-21895208Y386829D01*
X-21895208Y722846D01*
X-22125895Y722846D01*
X-22132162Y721912D01*
X-22139219Y715730D01*
X-22141344Y704650D01*
X-22305108Y704650D01*
X-22305108Y806804D01*
X-22303690Y827100D01*
X-22292654Y857831D01*
X-22282746Y869050D01*
X-22269920Y877293D01*
X-22251069Y883240D01*
X-22228111Y885206D01*
X-21436459Y885206D01*
X-21416634Y883780D01*
G37*
G36*
X-21543987Y-459778D02*
G01*
X-21526581Y-469183D01*
X-21513305Y-481740D01*
X-21506445Y-494078D01*
X-21503463Y-508598D01*
X-21503381Y-511618D01*
X-21505289Y-525668D01*
X-21510829Y-537962D01*
X-21519577Y-547916D01*
X-21531321Y-555276D01*
X-21557970Y-560589D01*
X-22114843Y-560589D01*
X-22149351Y-562542D01*
X-22181359Y-568394D01*
X-22208905Y-577419D01*
X-22233868Y-589860D01*
X-22254983Y-604804D01*
X-22273453Y-622808D01*
X-22288744Y-643274D01*
X-22301230Y-666630D01*
X-22317252Y-722297D01*
X-22320740Y-769173D01*
X-22318811Y-804568D01*
X-22313127Y-836439D01*
X-22304343Y-863768D01*
X-22292411Y-888289D01*
X-22259691Y-929633D01*
X-22213196Y-963729D01*
X-22145801Y-993204D01*
X-21543926Y-1222793D01*
X-21529058Y-1230100D01*
X-21516978Y-1240323D01*
X-21508597Y-1252499D01*
X-21504040Y-1266509D01*
X-21503381Y-1274572D01*
X-21505289Y-1288552D01*
X-21510830Y-1300592D01*
X-21531159Y-1317149D01*
X-21557848Y-1322199D01*
X-22305108Y-1322199D01*
X-22305108Y-1488773D01*
X-21549543Y-1488773D01*
X-21515067Y-1486819D01*
X-21483082Y-1480957D01*
X-21455596Y-1471926D01*
X-21430678Y-1459470D01*
X-21409612Y-1444510D01*
X-21391174Y-1426477D01*
X-21375898Y-1405962D01*
X-21363410Y-1382531D01*
X-21347331Y-1326583D01*
X-21343769Y-1278785D01*
X-21345697Y-1243460D01*
X-21351381Y-1211717D01*
X-21360149Y-1184590D01*
X-21372054Y-1160289D01*
X-21404707Y-1119375D01*
X-21451245Y-1085574D01*
X-21518769Y-1056219D01*
X-22120644Y-826570D01*
X-22135071Y-819451D01*
X-22146601Y-809412D01*
X-22154550Y-797309D01*
X-22158981Y-783154D01*
X-22159784Y-773386D01*
X-22157884Y-759433D01*
X-22152397Y-747410D01*
X-22132225Y-730755D01*
X-22106722Y-725819D01*
X-21549482Y-725819D01*
X-21515037Y-723866D01*
X-21483077Y-718005D01*
X-21455601Y-708973D01*
X-21430690Y-696516D01*
X-21409623Y-681553D01*
X-21391184Y-663516D01*
X-21375904Y-642996D01*
X-21363413Y-619560D01*
X-21347330Y-563609D01*
X-21343769Y-515832D01*
X-21345697Y-480490D01*
X-21351381Y-448734D01*
X-21360148Y-421599D01*
X-21372052Y-397291D01*
X-21404700Y-356372D01*
X-21451228Y-322570D01*
X-21518769Y-293204D01*
X-22305108Y-601D01*
X-22305108Y-177006D01*
X-21543987Y-459778D01*
G37*
G36*
X-21359400Y-1997836D02*
G01*
X-21361325Y-1947949D01*
X-21366981Y-1902689D01*
X-21375714Y-1863662D01*
X-21387541Y-1828681D01*
X-21401720Y-1798726D01*
X-21418491Y-1772368D01*
X-21437330Y-1749930D01*
X-21458403Y-1730805D01*
X-21507151Y-1702018D01*
X-21565698Y-1685407D01*
X-21617443Y-1681420D01*
X-21653726Y-1683371D01*
X-21687238Y-1689216D01*
X-21716118Y-1698230D01*
X-21742458Y-1710649D01*
X-21765349Y-1725792D01*
X-21785806Y-1744062D01*
X-21819106Y-1789678D01*
X-21830911Y-1814471D01*
X-21845108Y-1785714D01*
X-21862239Y-1760138D01*
X-21881238Y-1738865D01*
X-21902866Y-1720653D01*
X-21926541Y-1705894D01*
X-21952708Y-1694233D01*
X-22013022Y-1680479D01*
X-22047677Y-1678672D01*
X-22084128Y-1680651D01*
X-22118751Y-1686691D01*
X-22148849Y-1696001D01*
X-22176948Y-1709018D01*
X-22201354Y-1724748D01*
X-22223629Y-1743962D01*
X-22242995Y-1765976D01*
X-22260039Y-1791440D01*
X-22286467Y-1852917D01*
X-22301926Y-1930939D01*
X-22305108Y-1993623D01*
X-22305108Y-2472461D01*
X-22139939Y-2472461D01*
X-22139939Y-1993623D01*
X-22138012Y-1960838D01*
X-22132338Y-1932418D01*
X-22123965Y-1910124D01*
X-22112693Y-1891437D01*
X-22099469Y-1877046D01*
X-22083866Y-1865824D01*
X-22045662Y-1852727D01*
X-22021115Y-1850863D01*
X-21996077Y-1852813D01*
X-21974150Y-1858645D01*
X-21956869Y-1867318D01*
X-21942149Y-1879174D01*
X-21920636Y-1911701D01*
X-21908493Y-1959647D01*
X-21906504Y-1995027D01*
X-21906504Y-2464035D01*
X-21756722Y-2464035D01*
X-21756722Y-1999241D01*
X-21754751Y-1962950D01*
X-21748765Y-1931831D01*
X-21740415Y-1909424D01*
X-21729006Y-1890833D01*
X-21716069Y-1877387D01*
X-21700554Y-1867072D01*
X-21662151Y-1855978D01*
X-21644187Y-1855015D01*
X-21618548Y-1856992D01*
X-21595532Y-1863016D01*
X-21577400Y-1871912D01*
X-21561680Y-1884234D01*
X-21549101Y-1899231D01*
X-21538978Y-1917504D01*
X-21526472Y-1965490D01*
X-21524630Y-1997836D01*
X-21524630Y-2471057D01*
X-21359400Y-2471057D01*
X-21359400Y-1997836D01*
G37*
G36*
X-21359400Y-2696371D02*
G01*
X-21524630Y-2696371D01*
X-21524630Y-3242376D01*
X-21526544Y-3268957D01*
X-21532122Y-3292223D01*
X-21540598Y-3311205D01*
X-21551955Y-3327077D01*
X-21581642Y-3348896D01*
X-21620930Y-3358300D01*
X-21629777Y-3358574D01*
X-21652260Y-3356483D01*
X-21672265Y-3349657D01*
X-21686353Y-3340266D01*
X-21698706Y-3326919D01*
X-21717644Y-3287594D01*
X-21722284Y-3270341D01*
X-21813387Y-2872775D01*
X-21825300Y-2829055D01*
X-21839902Y-2791455D01*
X-21855194Y-2762981D01*
X-21872820Y-2738744D01*
X-21891589Y-2719612D01*
X-21912599Y-2703767D01*
X-21962149Y-2680931D01*
X-22027452Y-2668220D01*
X-22085290Y-2665596D01*
X-22228111Y-2665596D01*
X-22251069Y-2667562D01*
X-22269920Y-2673510D01*
X-22282746Y-2681752D01*
X-22292654Y-2692971D01*
X-22303690Y-2723703D01*
X-22305108Y-2743998D01*
X-22305108Y-3497182D01*
X-22139939Y-3497182D01*
X-22139939Y-2848961D01*
X-22137562Y-2837271D01*
X-22128739Y-2831548D01*
X-22120339Y-2830765D01*
X-22072650Y-2830765D01*
X-22039146Y-2833198D01*
X-22011399Y-2842414D01*
X-21997803Y-2852167D01*
X-21986257Y-2865850D01*
X-21969890Y-2905384D01*
X-21968969Y-2909167D01*
X-21880675Y-3302581D01*
X-21868453Y-3346998D01*
X-21853350Y-3386106D01*
X-21837291Y-3416704D01*
X-21818744Y-3443230D01*
X-21799162Y-3464345D01*
X-21777280Y-3482072D01*
X-21727506Y-3507239D01*
X-21666082Y-3520421D01*
X-21626968Y-3522339D01*
X-21586890Y-3520396D01*
X-21549909Y-3514614D01*
X-21517763Y-3505653D01*
X-21488473Y-3493362D01*
X-21463018Y-3478445D01*
X-21440276Y-3460551D01*
X-21403463Y-3416684D01*
X-21377267Y-3360834D01*
X-21362285Y-3291084D01*
X-21359400Y-3238162D01*
X-21359400Y-2696371D01*
G37*
G36*
X-22010580Y-3677262D02*
G01*
X-21950727Y-3690527D01*
X-21924965Y-3701909D01*
X-21901770Y-3716374D01*
X-21880325Y-3734588D01*
X-21861510Y-3755971D01*
X-21844023Y-3782599D01*
X-21829446Y-3812744D01*
X-21816549Y-3785314D01*
X-21783729Y-3740028D01*
X-21763837Y-3722088D01*
X-21741441Y-3707133D01*
X-21715810Y-3694955D01*
X-21687454Y-3686056D01*
X-21654450Y-3680289D01*
X-21618298Y-3678349D01*
X-21565931Y-3682331D01*
X-21507103Y-3698855D01*
X-21458325Y-3727461D01*
X-21437268Y-3746481D01*
X-21418467Y-3768796D01*
X-21401709Y-3795077D01*
X-21387557Y-3824951D01*
X-21375725Y-3859963D01*
X-21366996Y-3899046D01*
X-21361327Y-3944562D01*
X-21359400Y-3994766D01*
X-21359400Y-4217393D01*
X-21362877Y-4283906D01*
X-21378519Y-4361709D01*
X-21404839Y-4422572D01*
X-21421710Y-4447638D01*
X-21440935Y-4469348D01*
X-21463010Y-4488231D01*
X-21487317Y-4503730D01*
X-21515397Y-4516562D01*
X-21545692Y-4525771D01*
X-21580880Y-4531774D01*
X-21618298Y-4533749D01*
X-21651140Y-4532161D01*
X-21710698Y-4519078D01*
X-21736209Y-4507849D01*
X-21759164Y-4493555D01*
X-21780205Y-4475668D01*
X-21798616Y-4454655D01*
X-21815491Y-4428721D01*
X-21829446Y-4399354D01*
X-21844527Y-4430468D01*
X-21878568Y-4476182D01*
X-21921581Y-4509232D01*
X-21947304Y-4521391D01*
X-21975714Y-4530293D01*
X-22008465Y-4536026D01*
X-22044318Y-4537962D01*
X-22097981Y-4533679D01*
X-22156734Y-4516673D01*
X-22205761Y-4487492D01*
X-22226942Y-4468210D01*
X-22245895Y-4445624D01*
X-22262723Y-4419218D01*
X-22276958Y-4389248D01*
X-22288795Y-4354425D01*
X-22297539Y-4315623D01*
X-22303185Y-4270841D01*
X-22305108Y-4221545D01*
X-22305108Y-3990553D01*
X-22304885Y-3986339D01*
X-22141344Y-3986339D01*
X-22141344Y-4225758D01*
X-22139003Y-4262487D01*
X-22125881Y-4309752D01*
X-22102748Y-4342541D01*
X-22086849Y-4354674D01*
X-22068437Y-4363479D01*
X-22045139Y-4369423D01*
X-22018978Y-4371388D01*
X-21995506Y-4369721D01*
X-21957166Y-4356996D01*
X-21941513Y-4345856D01*
X-21928358Y-4331560D01*
X-21916968Y-4312546D01*
X-21908573Y-4289860D01*
X-21902771Y-4260097D01*
X-21900826Y-4225758D01*
X-21900826Y-3991957D01*
X-21758005Y-3991957D01*
X-21758005Y-4221545D01*
X-21756041Y-4258171D01*
X-21744212Y-4306540D01*
X-21723235Y-4338890D01*
X-21708697Y-4350700D01*
X-21691534Y-4359324D01*
X-21669186Y-4365217D01*
X-21643455Y-4367175D01*
X-21615347Y-4364764D01*
X-21577427Y-4350925D01*
X-21561976Y-4339476D01*
X-21548786Y-4324829D01*
X-21537653Y-4306119D01*
X-21529329Y-4283750D01*
X-21523737Y-4255578D01*
X-21521822Y-4222950D01*
X-21521822Y-3990553D01*
X-21523988Y-3955924D01*
X-21537207Y-3907981D01*
X-21547771Y-3889527D01*
X-21560784Y-3874373D01*
X-21576897Y-3861933D01*
X-21595329Y-3852958D01*
X-21618220Y-3846958D01*
X-21643455Y-3844984D01*
X-21663809Y-3846205D01*
X-21702019Y-3857842D01*
X-21717476Y-3868416D01*
X-21730383Y-3882140D01*
X-21741750Y-3901023D01*
X-21750082Y-3923773D01*
X-21756037Y-3955228D01*
X-21758005Y-3991957D01*
X-21900826Y-3991957D01*
X-21900826Y-3986339D01*
X-21903180Y-3949247D01*
X-21916174Y-3901898D01*
X-21938821Y-3869205D01*
X-21954117Y-3857260D01*
X-21971921Y-3848521D01*
X-21994012Y-3842716D01*
X-22018978Y-3840771D01*
X-22046375Y-3842996D01*
X-22084936Y-3856658D01*
X-22100664Y-3868152D01*
X-22113955Y-3882788D01*
X-22125300Y-3901776D01*
X-22133704Y-3924344D01*
X-22139412Y-3953171D01*
X-22141344Y-3986339D01*
X-22304885Y-3986339D01*
X-22301660Y-3925459D01*
X-22285920Y-3848209D01*
X-22259297Y-3787389D01*
X-22242170Y-3762206D01*
X-22222690Y-3740405D01*
X-22200282Y-3721378D01*
X-22175676Y-3705777D01*
X-22147294Y-3692855D01*
X-22116793Y-3683596D01*
X-22081572Y-3677578D01*
X-22044318Y-3675601D01*
X-22010580Y-3677262D01*
G37*
G36*
X-21772437Y-4696489D02*
G01*
X-21670441Y-4710622D01*
X-21585243Y-4736483D01*
X-21514735Y-4772781D01*
X-21457164Y-4819041D01*
X-21432781Y-4846079D01*
X-21411418Y-4875644D01*
X-21392742Y-4908409D01*
X-21377262Y-4943740D01*
X-21364614Y-4983036D01*
X-21355452Y-5025015D01*
X-21349625Y-5071780D01*
X-21347677Y-5121397D01*
X-21349391Y-5168025D01*
X-21363071Y-5253865D01*
X-21389269Y-5327295D01*
X-21427388Y-5389887D01*
X-21451082Y-5417566D01*
X-21477786Y-5442686D01*
X-21508193Y-5465700D01*
X-21541702Y-5485968D01*
X-21579720Y-5504057D01*
X-21621026Y-5519114D01*
X-21667744Y-5531584D01*
X-21718003Y-5540647D01*
X-21774554Y-5546449D01*
X-21834941Y-5548394D01*
X-21896900Y-5546343D01*
X-21998789Y-5532297D01*
X-22083804Y-5506551D01*
X-22154111Y-5470386D01*
X-22211500Y-5424259D01*
X-22235808Y-5397276D01*
X-22257111Y-5367750D01*
X-22275741Y-5335000D01*
X-22291188Y-5299656D01*
X-22303816Y-5260297D01*
X-22312967Y-5218214D01*
X-22318791Y-5171262D01*
X-22320740Y-5121397D01*
X-22155571Y-5121397D01*
X-22152379Y-5173946D01*
X-22137400Y-5236276D01*
X-22111073Y-5285669D01*
X-22093221Y-5306725D01*
X-22072331Y-5325139D01*
X-22046740Y-5341901D01*
X-22017675Y-5355795D01*
X-21981522Y-5367885D01*
X-21941091Y-5376644D01*
X-21890089Y-5382654D01*
X-21833537Y-5384630D01*
X-21752215Y-5380204D01*
X-21675763Y-5364554D01*
X-21617847Y-5339387D01*
X-21574039Y-5305014D01*
X-21556410Y-5283773D01*
X-21541788Y-5259870D01*
X-21529602Y-5231695D01*
X-21520744Y-5200448D01*
X-21514863Y-5162815D01*
X-21512907Y-5121397D01*
X-21516193Y-5068092D01*
X-21531326Y-5005635D01*
X-21557825Y-4956049D01*
X-21575752Y-4934907D01*
X-21596707Y-4916407D01*
X-21622302Y-4899595D01*
X-21651342Y-4885652D01*
X-21687302Y-4873554D01*
X-21727468Y-4864785D01*
X-21777807Y-4858793D01*
X-21833537Y-4856821D01*
X-21916539Y-4861391D01*
X-21992930Y-4877154D01*
X-22050751Y-4902396D01*
X-22094483Y-4936844D01*
X-22112091Y-4958145D01*
X-22126693Y-4982118D01*
X-22138874Y-5010415D01*
X-22147728Y-5041806D01*
X-22153613Y-5079686D01*
X-22155571Y-5121397D01*
X-22320740Y-5121397D01*
X-22319088Y-5075388D01*
X-22305544Y-4989186D01*
X-22279508Y-4915576D01*
X-22241591Y-4852917D01*
X-22218012Y-4825227D01*
X-22191434Y-4800110D01*
X-22161152Y-4777097D01*
X-22127779Y-4756839D01*
X-22089876Y-4738748D01*
X-22048695Y-4723696D01*
X-22002053Y-4711219D01*
X-21951876Y-4702155D01*
X-21895327Y-4696346D01*
X-21834941Y-4694399D01*
X-21772437Y-4696489D01*
G37*
%LPC*%
D11*
%TO.C,H2*%
X16999999Y-25499999D03*
%TD*%
%TO.C,H3*%
X-22499999Y27499999D03*
%TD*%
%TO.C,H1*%
X17000000Y27500000D03*
%TD*%
D12*
%TO.C,U5*%
X2651605Y25050355D03*
X-3138395Y25050355D03*
D13*
X4071605Y24550355D03*
X-4568395Y24550355D03*
D14*
X-4568395Y28730355D03*
X4071605Y28730355D03*
%TD*%
D15*
%TO.C,U4*%
X1883936Y-26539424D03*
X-3196074Y-26539424D03*
X-3196074Y-21459414D03*
X1883936Y-21459414D03*
X-656069Y-23999419D03*
%TD*%
D16*
%TO.C,U1*%
X-1981728Y1183688D03*
X-1981728Y50355D03*
X-1981728Y-1082978D03*
X-848395Y1183688D03*
X-848395Y50355D03*
X-848395Y-1082978D03*
X284938Y1183688D03*
X284938Y50355D03*
X284938Y-1082978D03*
%TD*%
%LPD*%
M02*
