%TF.GenerationSoftware,KiCad,Pcbnew,9.0.4*%
%TF.CreationDate,2026-02-22T12:05:05+00:00*%
%TF.ProjectId,Lyra Avionics,4c797261-2041-4766-996f-6e6963732e6b,REV3*%
%TF.SameCoordinates,Original*%
%TF.FileFunction,Legend,Top*%
%TF.FilePolarity,Positive*%
%FSLAX46Y46*%
G04 Gerber Fmt 4.6, Leading zero omitted, Abs format (unit mm)*
G04 Created by KiCad (PCBNEW 9.0.4) date 2026-02-22 12:05:05*
%MOMM*%
%LPD*%
G01*
G04 APERTURE LIST*
G04 Aperture macros list*
%AMRoundRect*
0 Rectangle with rounded corners*
0 $1 Rounding radius*
0 $2 $3 $4 $5 $6 $7 $8 $9 X,Y pos of 4 corners*
0 Add a 4 corners polygon primitive as box body*
4,1,4,$2,$3,$4,$5,$6,$7,$8,$9,$2,$3,0*
0 Add four circle primitives for the rounded corners*
1,1,$1+$1,$2,$3*
1,1,$1+$1,$4,$5*
1,1,$1+$1,$6,$7*
1,1,$1+$1,$8,$9*
0 Add four rect primitives between the rounded corners*
20,1,$1+$1,$2,$3,$4,$5,0*
20,1,$1+$1,$4,$5,$6,$7,0*
20,1,$1+$1,$6,$7,$8,$9,0*
20,1,$1+$1,$8,$9,$2,$3,0*%
G04 Aperture macros list end*
%ADD10C,0.150000*%
%ADD11C,0.300000*%
%ADD12C,0.120000*%
%ADD13C,0.250000*%
%ADD14C,0.152400*%
%ADD15C,0.059995*%
%ADD16C,0.254001*%
%ADD17C,0.191421*%
%ADD18C,0.200000*%
%ADD19C,0.150013*%
%ADD20C,0.119990*%
%ADD21RoundRect,0.155000X0.155000X0.185000X-0.155000X0.185000X-0.155000X-0.185000X0.155000X-0.185000X0*%
%ADD22RoundRect,0.165000X-0.665000X-0.165000X0.665000X-0.165000X0.665000X0.165000X-0.665000X0.165000X0*%
%ADD23RoundRect,0.155000X-0.155000X-0.185000X0.155000X-0.185000X0.155000X0.185000X-0.155000X0.185000X0*%
%ADD24RoundRect,0.155000X0.185000X-0.155000X0.185000X0.155000X-0.185000X0.155000X-0.185000X-0.155000X0*%
%ADD25RoundRect,0.150000X-0.200000X0.150000X-0.200000X-0.150000X0.200000X-0.150000X0.200000X0.150000X0*%
%ADD26C,2.760000*%
%ADD27RoundRect,0.030000X-0.700000X-0.600000X0.700000X-0.600000X0.700000X0.600000X-0.700000X0.600000X0*%
%ADD28RoundRect,0.150000X-0.150000X-0.200000X0.150000X-0.200000X0.150000X0.200000X-0.150000X0.200000X0*%
%ADD29RoundRect,0.030000X1.900000X-0.500000X1.900000X0.500000X-1.900000X0.500000X-1.900000X-0.500000X0*%
%ADD30RoundRect,0.030000X1.700000X-0.750000X1.700000X0.750000X-1.700000X0.750000X-1.700000X-0.750000X0*%
%ADD31RoundRect,0.265000X-0.265000X-0.490000X0.265000X-0.490000X0.265000X0.490000X-0.265000X0.490000X0*%
%ADD32RoundRect,0.260556X1.027444X0.677444X-1.027444X0.677444X-1.027444X-0.677444X1.027444X-0.677444X0*%
%ADD33RoundRect,0.150000X0.200000X-0.150000X0.200000X0.150000X-0.200000X0.150000X-0.200000X-0.150000X0*%
%ADD34RoundRect,0.155000X-0.185000X0.155000X-0.185000X-0.155000X0.185000X-0.155000X0.185000X0.155000X0*%
%ADD35RoundRect,0.030000X-0.235000X-0.265000X0.235000X-0.265000X0.235000X0.265000X-0.235000X0.265000X0*%
%ADD36RoundRect,0.155000X0.240416X0.021213X0.021213X0.240416X-0.240416X-0.021213X-0.021213X-0.240416X0*%
%ADD37RoundRect,0.265000X0.490000X-0.265000X0.490000X0.265000X-0.490000X0.265000X-0.490000X-0.265000X0*%
%ADD38RoundRect,0.030000X-0.325000X0.525000X-0.325000X-0.525000X0.325000X-0.525000X0.325000X0.525000X0*%
%ADD39RoundRect,0.030000X0.270002X-0.282829X0.270002X0.282829X-0.270002X0.282829X-0.270002X-0.282829X0*%
%ADD40RoundRect,0.030000X0.525000X0.325000X-0.525000X0.325000X-0.525000X-0.325000X0.525000X-0.325000X0*%
%ADD41C,0.710000*%
%ADD42O,1.060000X2.160000*%
%ADD43O,1.060000X1.860000*%
%ADD44RoundRect,0.030000X0.300000X0.620000X-0.300000X0.620000X-0.300000X-0.620000X0.300000X-0.620000X0*%
%ADD45RoundRect,0.030000X0.150000X0.620000X-0.150000X0.620000X-0.150000X-0.620000X0.150000X-0.620000X0*%
%ADD46RoundRect,0.030000X0.750000X-1.850000X0.750000X1.850000X-0.750000X1.850000X-0.750000X-1.850000X0*%
%ADD47RoundRect,0.265000X0.265000X0.490000X-0.265000X0.490000X-0.265000X-0.490000X0.265000X-0.490000X0*%
%ADD48RoundRect,0.150000X0.150000X0.200000X-0.150000X0.200000X-0.150000X-0.200000X0.150000X-0.200000X0*%
%ADD49RoundRect,0.159000X-0.159000X-0.189000X0.159000X-0.189000X0.159000X0.189000X-0.159000X0.189000X0*%
%ADD50RoundRect,0.030000X-0.775006X0.300000X-0.775006X-0.300000X0.775006X-0.300000X0.775006X0.300000X0*%
%ADD51RoundRect,0.030000X-0.900000X0.600000X-0.900000X-0.600000X0.900000X-0.600000X0.900000X0.600000X0*%
%ADD52C,2.560000*%
%ADD53RoundRect,0.070000X0.350000X-0.070000X0.350000X0.070000X-0.350000X0.070000X-0.350000X-0.070000X0*%
%ADD54RoundRect,0.070000X-0.070000X-0.350000X0.070000X-0.350000X0.070000X0.350000X-0.070000X0.350000X0*%
%ADD55C,0.660000*%
%ADD56RoundRect,0.030000X-0.566666X-0.566666X0.566666X-0.566666X0.566666X0.566666X-0.566666X0.566666X0*%
%ADD57RoundRect,0.030000X-0.350000X-0.850000X0.350000X-0.850000X0.350000X0.850000X-0.350000X0.850000X0*%
%ADD58O,0.424008X0.827005*%
%ADD59RoundRect,0.030000X-0.300000X-0.135001X0.300000X-0.135001X0.300000X0.135001X-0.300000X0.135001X0*%
%ADD60RoundRect,0.030000X-0.135001X-0.300000X0.135001X-0.300000X0.135001X0.300000X-0.135001X0.300000X0*%
%ADD61RoundRect,0.030000X1.500000X0.600000X-1.500000X0.600000X-1.500000X-0.600000X1.500000X-0.600000X0*%
%ADD62RoundRect,0.030000X1.200000X0.600000X-1.200000X0.600000X-1.200000X-0.600000X1.200000X-0.600000X0*%
%ADD63RoundRect,0.030000X-0.125006X0.260503X-0.125006X-0.260503X0.125006X-0.260503X0.125006X0.260503X0*%
%ADD64RoundRect,0.030000X-0.800000X0.450000X-0.800000X-0.450000X0.800000X-0.450000X0.800000X0.450000X0*%
%ADD65RoundRect,0.260556X-1.027444X-0.677444X1.027444X-0.677444X1.027444X0.677444X-1.027444X0.677444X0*%
G04 APERTURE END LIST*
D10*
X-10417386Y17359879D02*
X-10369767Y17502736D01*
X-10369767Y17502736D02*
X-10322148Y17550355D01*
X-10322148Y17550355D02*
X-10226910Y17597974D01*
X-10226910Y17597974D02*
X-10084053Y17597974D01*
X-10084053Y17597974D02*
X-9988815Y17550355D01*
X-9988815Y17550355D02*
X-9941195Y17502736D01*
X-9941195Y17502736D02*
X-9893576Y17407498D01*
X-9893576Y17407498D02*
X-9893576Y17026546D01*
X-9893576Y17026546D02*
X-10893576Y17026546D01*
X-10893576Y17026546D02*
X-10893576Y17359879D01*
X-10893576Y17359879D02*
X-10845957Y17455117D01*
X-10845957Y17455117D02*
X-10798338Y17502736D01*
X-10798338Y17502736D02*
X-10703100Y17550355D01*
X-10703100Y17550355D02*
X-10607862Y17550355D01*
X-10607862Y17550355D02*
X-10512624Y17502736D01*
X-10512624Y17502736D02*
X-10465005Y17455117D01*
X-10465005Y17455117D02*
X-10417386Y17359879D01*
X-10417386Y17359879D02*
X-10417386Y17026546D01*
X-10893576Y18217022D02*
X-10893576Y18407498D01*
X-10893576Y18407498D02*
X-10845957Y18502736D01*
X-10845957Y18502736D02*
X-10750719Y18597974D01*
X-10750719Y18597974D02*
X-10560243Y18645593D01*
X-10560243Y18645593D02*
X-10226910Y18645593D01*
X-10226910Y18645593D02*
X-10036434Y18597974D01*
X-10036434Y18597974D02*
X-9941195Y18502736D01*
X-9941195Y18502736D02*
X-9893576Y18407498D01*
X-9893576Y18407498D02*
X-9893576Y18217022D01*
X-9893576Y18217022D02*
X-9941195Y18121784D01*
X-9941195Y18121784D02*
X-10036434Y18026546D01*
X-10036434Y18026546D02*
X-10226910Y17978927D01*
X-10226910Y17978927D02*
X-10560243Y17978927D01*
X-10560243Y17978927D02*
X-10750719Y18026546D01*
X-10750719Y18026546D02*
X-10845957Y18121784D01*
X-10845957Y18121784D02*
X-10893576Y18217022D01*
X-10893576Y19264641D02*
X-10893576Y19455117D01*
X-10893576Y19455117D02*
X-10845957Y19550355D01*
X-10845957Y19550355D02*
X-10750719Y19645593D01*
X-10750719Y19645593D02*
X-10560243Y19693212D01*
X-10560243Y19693212D02*
X-10226910Y19693212D01*
X-10226910Y19693212D02*
X-10036434Y19645593D01*
X-10036434Y19645593D02*
X-9941195Y19550355D01*
X-9941195Y19550355D02*
X-9893576Y19455117D01*
X-9893576Y19455117D02*
X-9893576Y19264641D01*
X-9893576Y19264641D02*
X-9941195Y19169403D01*
X-9941195Y19169403D02*
X-10036434Y19074165D01*
X-10036434Y19074165D02*
X-10226910Y19026546D01*
X-10226910Y19026546D02*
X-10560243Y19026546D01*
X-10560243Y19026546D02*
X-10750719Y19074165D01*
X-10750719Y19074165D02*
X-10845957Y19169403D01*
X-10845957Y19169403D02*
X-10893576Y19264641D01*
X-10893576Y19978927D02*
X-10893576Y20550355D01*
X-9893576Y20264641D02*
X-10893576Y20264641D01*
X-9941195Y20836070D02*
X-9893576Y20978927D01*
X-9893576Y20978927D02*
X-9893576Y21217022D01*
X-9893576Y21217022D02*
X-9941195Y21312260D01*
X-9941195Y21312260D02*
X-9988815Y21359879D01*
X-9988815Y21359879D02*
X-10084053Y21407498D01*
X-10084053Y21407498D02*
X-10179291Y21407498D01*
X-10179291Y21407498D02*
X-10274529Y21359879D01*
X-10274529Y21359879D02*
X-10322148Y21312260D01*
X-10322148Y21312260D02*
X-10369767Y21217022D01*
X-10369767Y21217022D02*
X-10417386Y21026546D01*
X-10417386Y21026546D02*
X-10465005Y20931308D01*
X-10465005Y20931308D02*
X-10512624Y20883689D01*
X-10512624Y20883689D02*
X-10607862Y20836070D01*
X-10607862Y20836070D02*
X-10703100Y20836070D01*
X-10703100Y20836070D02*
X-10798338Y20883689D01*
X-10798338Y20883689D02*
X-10845957Y20931308D01*
X-10845957Y20931308D02*
X-10893576Y21026546D01*
X-10893576Y21026546D02*
X-10893576Y21264641D01*
X-10893576Y21264641D02*
X-10845957Y21407498D01*
X-10417386Y21836070D02*
X-10417386Y22169403D01*
X-9893576Y22312260D02*
X-9893576Y21836070D01*
X-9893576Y21836070D02*
X-10893576Y21836070D01*
X-10893576Y21836070D02*
X-10893576Y22312260D01*
X-9893576Y23217022D02*
X-9893576Y22740832D01*
X-9893576Y22740832D02*
X-10893576Y22740832D01*
D11*
X16016869Y5050008D02*
X16016869Y6192865D01*
X15471826Y21493810D02*
X16614684Y21493810D01*
X16043255Y20922382D02*
X16043255Y22065239D01*
D10*
G36*
X-15895037Y-25884291D02*
G01*
X-15895037Y-26503691D01*
X-15893054Y-26548872D01*
X-15886985Y-26591701D01*
X-15877728Y-26628510D01*
X-15864783Y-26662920D01*
X-15849387Y-26692466D01*
X-15830605Y-26719605D01*
X-15809545Y-26742989D01*
X-15785246Y-26763909D01*
X-15758268Y-26781845D01*
X-15728021Y-26797156D01*
X-15657010Y-26819446D01*
X-15569452Y-26829602D01*
X-15546442Y-26830000D01*
X-15169819Y-26830000D01*
X-15169819Y-26664830D01*
X-15536611Y-26664830D01*
X-15576346Y-26662921D01*
X-15610717Y-26657375D01*
X-15638448Y-26649073D01*
X-15661955Y-26638012D01*
X-15680922Y-26624896D01*
X-15696407Y-26609614D01*
X-15718191Y-26572524D01*
X-15728830Y-26524736D01*
X-15729807Y-26502287D01*
X-15729807Y-25884291D01*
X-15895037Y-25884291D01*
G37*
G36*
X-14549629Y-26092565D02*
G01*
X-14476960Y-26104946D01*
X-14415629Y-26129777D01*
X-14364343Y-26166610D01*
X-14342143Y-26189806D01*
X-14322448Y-26216156D01*
X-14304948Y-26246462D01*
X-14290268Y-26280111D01*
X-14278106Y-26318627D01*
X-14269196Y-26360783D01*
X-14263475Y-26408738D01*
X-14261541Y-26460704D01*
X-14262608Y-26499651D01*
X-14274694Y-26588827D01*
X-14298560Y-26661531D01*
X-14332874Y-26720040D01*
X-14353891Y-26744609D01*
X-14377354Y-26766047D01*
X-14403851Y-26784785D01*
X-14432734Y-26800262D01*
X-14465397Y-26812978D01*
X-14500461Y-26822157D01*
X-14540094Y-26828042D01*
X-14582171Y-26830000D01*
X-14737570Y-26830000D01*
X-14769968Y-26828870D01*
X-14842892Y-26816584D01*
X-14904246Y-26791904D01*
X-14955458Y-26755266D01*
X-14977622Y-26732158D01*
X-14997270Y-26705902D01*
X-15014750Y-26675638D01*
X-15029404Y-26642024D01*
X-15041567Y-26603440D01*
X-15050474Y-26561190D01*
X-15056204Y-26512978D01*
X-15058139Y-26460704D01*
X-14908357Y-26460704D01*
X-14905496Y-26518055D01*
X-14892312Y-26581047D01*
X-14870046Y-26625541D01*
X-14855280Y-26642839D01*
X-14837977Y-26657088D01*
X-14816497Y-26669098D01*
X-14791961Y-26677798D01*
X-14759860Y-26683854D01*
X-14723526Y-26685835D01*
X-14596154Y-26685835D01*
X-14557108Y-26683474D01*
X-14506570Y-26670297D01*
X-14468413Y-26646042D01*
X-14452572Y-26628759D01*
X-14439371Y-26608136D01*
X-14427785Y-26581295D01*
X-14419321Y-26550111D01*
X-14413353Y-26508497D01*
X-14411384Y-26460704D01*
X-14414390Y-26402560D01*
X-14427877Y-26339573D01*
X-14450521Y-26294810D01*
X-14465466Y-26277386D01*
X-14482925Y-26263029D01*
X-14504434Y-26250972D01*
X-14528916Y-26242238D01*
X-14560534Y-26236208D01*
X-14596154Y-26234230D01*
X-14723526Y-26234230D01*
X-14762355Y-26236560D01*
X-14813005Y-26249706D01*
X-14851204Y-26273946D01*
X-14867072Y-26291257D01*
X-14880274Y-26311897D01*
X-14891897Y-26338875D01*
X-14900372Y-26370201D01*
X-14906382Y-26412328D01*
X-14908357Y-26460704D01*
X-15058139Y-26460704D01*
X-15057064Y-26421419D01*
X-15044998Y-26332086D01*
X-15021219Y-26259429D01*
X-14987053Y-26201062D01*
X-14966128Y-26176576D01*
X-14942747Y-26155209D01*
X-14916323Y-26136532D01*
X-14887490Y-26121102D01*
X-14854823Y-26108414D01*
X-14819708Y-26099251D01*
X-14779902Y-26093366D01*
X-14737570Y-26091409D01*
X-14582171Y-26091409D01*
X-14549629Y-26092565D01*
G37*
G36*
X-14078664Y-25884291D02*
G01*
X-14078664Y-26049521D01*
X-13560686Y-26049521D01*
X-13533341Y-26051418D01*
X-13509349Y-26056878D01*
X-13489009Y-26065360D01*
X-13471757Y-26076613D01*
X-13445967Y-26106624D01*
X-13431613Y-26146316D01*
X-13429100Y-26174452D01*
X-13431095Y-26200690D01*
X-13437245Y-26225800D01*
X-13446564Y-26246790D01*
X-13459646Y-26265565D01*
X-13474767Y-26280043D01*
X-13493207Y-26291786D01*
X-13513745Y-26299952D01*
X-13537461Y-26304917D01*
X-13560686Y-26306343D01*
X-13928882Y-26306343D01*
X-13964334Y-26308333D01*
X-13994643Y-26314447D01*
X-14016169Y-26322890D01*
X-14034292Y-26334500D01*
X-14048007Y-26348048D01*
X-14059005Y-26364466D01*
X-14073329Y-26407377D01*
X-14077260Y-26456186D01*
X-14077260Y-26830000D01*
X-13912091Y-26830000D01*
X-13912091Y-26488365D01*
X-13910168Y-26476566D01*
X-13904527Y-26468944D01*
X-13888277Y-26464551D01*
X-13641897Y-26464551D01*
X-13426291Y-26830000D01*
X-13242865Y-26830000D01*
X-13462684Y-26451973D01*
X-13430407Y-26440901D01*
X-13401283Y-26426953D01*
X-13351299Y-26390747D01*
X-13311873Y-26343935D01*
X-13283136Y-26286759D01*
X-13266264Y-26220086D01*
X-13262466Y-26167430D01*
X-13264438Y-26129483D01*
X-13270430Y-26092794D01*
X-13279863Y-26059713D01*
X-13293063Y-26028452D01*
X-13308997Y-26001019D01*
X-13328422Y-25975779D01*
X-13350221Y-25954056D01*
X-13375320Y-25934820D01*
X-13402923Y-25918746D01*
X-13433764Y-25905473D01*
X-13467630Y-25895289D01*
X-13504805Y-25888302D01*
X-13566304Y-25884291D01*
X-14078664Y-25884291D01*
G37*
G36*
X-12631862Y-26091743D02*
G01*
X-12558752Y-26101539D01*
X-12528224Y-26111007D01*
X-12501062Y-26123322D01*
X-12476939Y-26138486D01*
X-12456054Y-26156216D01*
X-12437509Y-26177394D01*
X-12422306Y-26201013D01*
X-12409448Y-26229197D01*
X-12400249Y-26259774D01*
X-12394154Y-26296115D01*
X-12392167Y-26334736D01*
X-12392167Y-26681622D01*
X-12395534Y-26734607D01*
X-12407616Y-26775396D01*
X-12429542Y-26802923D01*
X-12446915Y-26813830D01*
X-12468531Y-26821835D01*
X-12502541Y-26828002D01*
X-12544758Y-26830000D01*
X-12890545Y-26830000D01*
X-12896790Y-26829963D01*
X-12973212Y-26822316D01*
X-13031633Y-26803134D01*
X-13055413Y-26789651D01*
X-13076025Y-26773610D01*
X-13094020Y-26754512D01*
X-13108827Y-26732881D01*
X-13121319Y-26706828D01*
X-13130314Y-26678049D01*
X-13136350Y-26642911D01*
X-13138329Y-26604685D01*
X-13138310Y-26600790D01*
X-13137822Y-26596320D01*
X-12992760Y-26596320D01*
X-12987496Y-26631892D01*
X-12970764Y-26659584D01*
X-12957253Y-26670285D01*
X-12940187Y-26678333D01*
X-12917046Y-26683920D01*
X-12889140Y-26685835D01*
X-12578341Y-26685835D01*
X-12565933Y-26685009D01*
X-12546322Y-26676229D01*
X-12539786Y-26664641D01*
X-12537736Y-26648039D01*
X-12537736Y-26509553D01*
X-12886332Y-26509553D01*
X-12929152Y-26513694D01*
X-12963291Y-26527986D01*
X-12975535Y-26539225D01*
X-12984311Y-26552917D01*
X-12990727Y-26572952D01*
X-12992760Y-26596320D01*
X-13137822Y-26596320D01*
X-13131339Y-26536937D01*
X-13113029Y-26487747D01*
X-13083391Y-26449298D01*
X-13063375Y-26433261D01*
X-13039885Y-26419754D01*
X-13010842Y-26408207D01*
X-12977522Y-26399690D01*
X-12936085Y-26393948D01*
X-12889140Y-26392011D01*
X-12537736Y-26392011D01*
X-12537736Y-26336140D01*
X-12538011Y-26327146D01*
X-12546839Y-26289013D01*
X-12567240Y-26260641D01*
X-12582252Y-26249801D01*
X-12600668Y-26241593D01*
X-12623847Y-26236127D01*
X-12651126Y-26234230D01*
X-13093572Y-26234230D01*
X-13093572Y-26091409D01*
X-12649721Y-26091409D01*
X-12631862Y-26091743D01*
G37*
X-12291253Y-2509225D02*
X-12338872Y-2556845D01*
X-12338872Y-2556845D02*
X-12481729Y-2604464D01*
X-12481729Y-2604464D02*
X-12576967Y-2604464D01*
X-12576967Y-2604464D02*
X-12719824Y-2556845D01*
X-12719824Y-2556845D02*
X-12815062Y-2461606D01*
X-12815062Y-2461606D02*
X-12862681Y-2366368D01*
X-12862681Y-2366368D02*
X-12910300Y-2175892D01*
X-12910300Y-2175892D02*
X-12910300Y-2033035D01*
X-12910300Y-2033035D02*
X-12862681Y-1842559D01*
X-12862681Y-1842559D02*
X-12815062Y-1747321D01*
X-12815062Y-1747321D02*
X-12719824Y-1652083D01*
X-12719824Y-1652083D02*
X-12576967Y-1604464D01*
X-12576967Y-1604464D02*
X-12481729Y-1604464D01*
X-12481729Y-1604464D02*
X-12338872Y-1652083D01*
X-12338872Y-1652083D02*
X-12291253Y-1699702D01*
X-11338872Y-2604464D02*
X-11910300Y-2604464D01*
X-11624586Y-2604464D02*
X-11624586Y-1604464D01*
X-11624586Y-1604464D02*
X-11719824Y-1747321D01*
X-11719824Y-1747321D02*
X-11815062Y-1842559D01*
X-11815062Y-1842559D02*
X-11910300Y-1890178D01*
X-11005538Y-1604464D02*
X-10338872Y-1604464D01*
X-10338872Y-1604464D02*
X-10767443Y-2604464D01*
X-4815062Y17990775D02*
X-4862681Y17943155D01*
X-4862681Y17943155D02*
X-5005538Y17895536D01*
X-5005538Y17895536D02*
X-5100776Y17895536D01*
X-5100776Y17895536D02*
X-5243633Y17943155D01*
X-5243633Y17943155D02*
X-5338871Y18038394D01*
X-5338871Y18038394D02*
X-5386490Y18133632D01*
X-5386490Y18133632D02*
X-5434109Y18324108D01*
X-5434109Y18324108D02*
X-5434109Y18466965D01*
X-5434109Y18466965D02*
X-5386490Y18657441D01*
X-5386490Y18657441D02*
X-5338871Y18752679D01*
X-5338871Y18752679D02*
X-5243633Y18847917D01*
X-5243633Y18847917D02*
X-5100776Y18895536D01*
X-5100776Y18895536D02*
X-5005538Y18895536D01*
X-5005538Y18895536D02*
X-4862681Y18847917D01*
X-4862681Y18847917D02*
X-4815062Y18800298D01*
X-4434109Y18800298D02*
X-4386490Y18847917D01*
X-4386490Y18847917D02*
X-4291252Y18895536D01*
X-4291252Y18895536D02*
X-4053157Y18895536D01*
X-4053157Y18895536D02*
X-3957919Y18847917D01*
X-3957919Y18847917D02*
X-3910300Y18800298D01*
X-3910300Y18800298D02*
X-3862681Y18705060D01*
X-3862681Y18705060D02*
X-3862681Y18609822D01*
X-3862681Y18609822D02*
X-3910300Y18466965D01*
X-3910300Y18466965D02*
X-4481728Y17895536D01*
X-4481728Y17895536D02*
X-3862681Y17895536D01*
X-11660300Y9670536D02*
X-11660300Y8861013D01*
X-11660300Y8861013D02*
X-11612681Y8765775D01*
X-11612681Y8765775D02*
X-11565062Y8718155D01*
X-11565062Y8718155D02*
X-11469824Y8670536D01*
X-11469824Y8670536D02*
X-11279348Y8670536D01*
X-11279348Y8670536D02*
X-11184110Y8718155D01*
X-11184110Y8718155D02*
X-11136491Y8765775D01*
X-11136491Y8765775D02*
X-11088872Y8861013D01*
X-11088872Y8861013D02*
X-11088872Y9670536D01*
X-10707919Y9670536D02*
X-10088872Y9670536D01*
X-10088872Y9670536D02*
X-10422205Y9289584D01*
X-10422205Y9289584D02*
X-10279348Y9289584D01*
X-10279348Y9289584D02*
X-10184110Y9241965D01*
X-10184110Y9241965D02*
X-10136491Y9194346D01*
X-10136491Y9194346D02*
X-10088872Y9099108D01*
X-10088872Y9099108D02*
X-10088872Y8861013D01*
X-10088872Y8861013D02*
X-10136491Y8765775D01*
X-10136491Y8765775D02*
X-10184110Y8718155D01*
X-10184110Y8718155D02*
X-10279348Y8670536D01*
X-10279348Y8670536D02*
X-10565062Y8670536D01*
X-10565062Y8670536D02*
X-10660300Y8718155D01*
X-10660300Y8718155D02*
X-10707919Y8765775D01*
X2884938Y-10809225D02*
X2837319Y-10856845D01*
X2837319Y-10856845D02*
X2694462Y-10904464D01*
X2694462Y-10904464D02*
X2599224Y-10904464D01*
X2599224Y-10904464D02*
X2456367Y-10856845D01*
X2456367Y-10856845D02*
X2361129Y-10761606D01*
X2361129Y-10761606D02*
X2313510Y-10666368D01*
X2313510Y-10666368D02*
X2265891Y-10475892D01*
X2265891Y-10475892D02*
X2265891Y-10333035D01*
X2265891Y-10333035D02*
X2313510Y-10142559D01*
X2313510Y-10142559D02*
X2361129Y-10047321D01*
X2361129Y-10047321D02*
X2456367Y-9952083D01*
X2456367Y-9952083D02*
X2599224Y-9904464D01*
X2599224Y-9904464D02*
X2694462Y-9904464D01*
X2694462Y-9904464D02*
X2837319Y-9952083D01*
X2837319Y-9952083D02*
X2884938Y-9999702D01*
X3742081Y-10237797D02*
X3742081Y-10904464D01*
X3503986Y-9856845D02*
X3265891Y-10571130D01*
X3265891Y-10571130D02*
X3884938Y-10571130D01*
X-4491253Y8490775D02*
X-4538872Y8443155D01*
X-4538872Y8443155D02*
X-4681729Y8395536D01*
X-4681729Y8395536D02*
X-4776967Y8395536D01*
X-4776967Y8395536D02*
X-4919824Y8443155D01*
X-4919824Y8443155D02*
X-5015062Y8538394D01*
X-5015062Y8538394D02*
X-5062681Y8633632D01*
X-5062681Y8633632D02*
X-5110300Y8824108D01*
X-5110300Y8824108D02*
X-5110300Y8966965D01*
X-5110300Y8966965D02*
X-5062681Y9157441D01*
X-5062681Y9157441D02*
X-5015062Y9252679D01*
X-5015062Y9252679D02*
X-4919824Y9347917D01*
X-4919824Y9347917D02*
X-4776967Y9395536D01*
X-4776967Y9395536D02*
X-4681729Y9395536D01*
X-4681729Y9395536D02*
X-4538872Y9347917D01*
X-4538872Y9347917D02*
X-4491253Y9300298D01*
X-3538872Y8395536D02*
X-4110300Y8395536D01*
X-3824586Y8395536D02*
X-3824586Y9395536D01*
X-3824586Y9395536D02*
X-3919824Y9252679D01*
X-3919824Y9252679D02*
X-4015062Y9157441D01*
X-4015062Y9157441D02*
X-4110300Y9109822D01*
X-3157919Y9300298D02*
X-3110300Y9347917D01*
X-3110300Y9347917D02*
X-3015062Y9395536D01*
X-3015062Y9395536D02*
X-2776967Y9395536D01*
X-2776967Y9395536D02*
X-2681729Y9347917D01*
X-2681729Y9347917D02*
X-2634110Y9300298D01*
X-2634110Y9300298D02*
X-2586491Y9205060D01*
X-2586491Y9205060D02*
X-2586491Y9109822D01*
X-2586491Y9109822D02*
X-2634110Y8966965D01*
X-2634110Y8966965D02*
X-3205538Y8395536D01*
X-3205538Y8395536D02*
X-2586491Y8395536D01*
X9208747Y-1009225D02*
X9161128Y-1056845D01*
X9161128Y-1056845D02*
X9018271Y-1104464D01*
X9018271Y-1104464D02*
X8923033Y-1104464D01*
X8923033Y-1104464D02*
X8780176Y-1056845D01*
X8780176Y-1056845D02*
X8684938Y-961606D01*
X8684938Y-961606D02*
X8637319Y-866368D01*
X8637319Y-866368D02*
X8589700Y-675892D01*
X8589700Y-675892D02*
X8589700Y-533035D01*
X8589700Y-533035D02*
X8637319Y-342559D01*
X8637319Y-342559D02*
X8684938Y-247321D01*
X8684938Y-247321D02*
X8780176Y-152083D01*
X8780176Y-152083D02*
X8923033Y-104464D01*
X8923033Y-104464D02*
X9018271Y-104464D01*
X9018271Y-104464D02*
X9161128Y-152083D01*
X9161128Y-152083D02*
X9208747Y-199702D01*
X10161128Y-1104464D02*
X9589700Y-1104464D01*
X9875414Y-1104464D02*
X9875414Y-104464D01*
X9875414Y-104464D02*
X9780176Y-247321D01*
X9780176Y-247321D02*
X9684938Y-342559D01*
X9684938Y-342559D02*
X9589700Y-390178D01*
X11018271Y-104464D02*
X10827795Y-104464D01*
X10827795Y-104464D02*
X10732557Y-152083D01*
X10732557Y-152083D02*
X10684938Y-199702D01*
X10684938Y-199702D02*
X10589700Y-342559D01*
X10589700Y-342559D02*
X10542081Y-533035D01*
X10542081Y-533035D02*
X10542081Y-913987D01*
X10542081Y-913987D02*
X10589700Y-1009225D01*
X10589700Y-1009225D02*
X10637319Y-1056845D01*
X10637319Y-1056845D02*
X10732557Y-1104464D01*
X10732557Y-1104464D02*
X10923033Y-1104464D01*
X10923033Y-1104464D02*
X11018271Y-1056845D01*
X11018271Y-1056845D02*
X11065890Y-1009225D01*
X11065890Y-1009225D02*
X11113509Y-913987D01*
X11113509Y-913987D02*
X11113509Y-675892D01*
X11113509Y-675892D02*
X11065890Y-580654D01*
X11065890Y-580654D02*
X11018271Y-533035D01*
X11018271Y-533035D02*
X10923033Y-485416D01*
X10923033Y-485416D02*
X10732557Y-485416D01*
X10732557Y-485416D02*
X10637319Y-533035D01*
X10637319Y-533035D02*
X10589700Y-580654D01*
X10589700Y-580654D02*
X10542081Y-675892D01*
X8808747Y-4909225D02*
X8761128Y-4956845D01*
X8761128Y-4956845D02*
X8618271Y-5004464D01*
X8618271Y-5004464D02*
X8523033Y-5004464D01*
X8523033Y-5004464D02*
X8380176Y-4956845D01*
X8380176Y-4956845D02*
X8284938Y-4861606D01*
X8284938Y-4861606D02*
X8237319Y-4766368D01*
X8237319Y-4766368D02*
X8189700Y-4575892D01*
X8189700Y-4575892D02*
X8189700Y-4433035D01*
X8189700Y-4433035D02*
X8237319Y-4242559D01*
X8237319Y-4242559D02*
X8284938Y-4147321D01*
X8284938Y-4147321D02*
X8380176Y-4052083D01*
X8380176Y-4052083D02*
X8523033Y-4004464D01*
X8523033Y-4004464D02*
X8618271Y-4004464D01*
X8618271Y-4004464D02*
X8761128Y-4052083D01*
X8761128Y-4052083D02*
X8808747Y-4099702D01*
X9761128Y-5004464D02*
X9189700Y-5004464D01*
X9475414Y-5004464D02*
X9475414Y-4004464D01*
X9475414Y-4004464D02*
X9380176Y-4147321D01*
X9380176Y-4147321D02*
X9284938Y-4242559D01*
X9284938Y-4242559D02*
X9189700Y-4290178D01*
X10332557Y-4433035D02*
X10237319Y-4385416D01*
X10237319Y-4385416D02*
X10189700Y-4337797D01*
X10189700Y-4337797D02*
X10142081Y-4242559D01*
X10142081Y-4242559D02*
X10142081Y-4194940D01*
X10142081Y-4194940D02*
X10189700Y-4099702D01*
X10189700Y-4099702D02*
X10237319Y-4052083D01*
X10237319Y-4052083D02*
X10332557Y-4004464D01*
X10332557Y-4004464D02*
X10523033Y-4004464D01*
X10523033Y-4004464D02*
X10618271Y-4052083D01*
X10618271Y-4052083D02*
X10665890Y-4099702D01*
X10665890Y-4099702D02*
X10713509Y-4194940D01*
X10713509Y-4194940D02*
X10713509Y-4242559D01*
X10713509Y-4242559D02*
X10665890Y-4337797D01*
X10665890Y-4337797D02*
X10618271Y-4385416D01*
X10618271Y-4385416D02*
X10523033Y-4433035D01*
X10523033Y-4433035D02*
X10332557Y-4433035D01*
X10332557Y-4433035D02*
X10237319Y-4480654D01*
X10237319Y-4480654D02*
X10189700Y-4528273D01*
X10189700Y-4528273D02*
X10142081Y-4623511D01*
X10142081Y-4623511D02*
X10142081Y-4813987D01*
X10142081Y-4813987D02*
X10189700Y-4909225D01*
X10189700Y-4909225D02*
X10237319Y-4956845D01*
X10237319Y-4956845D02*
X10332557Y-5004464D01*
X10332557Y-5004464D02*
X10523033Y-5004464D01*
X10523033Y-5004464D02*
X10618271Y-4956845D01*
X10618271Y-4956845D02*
X10665890Y-4909225D01*
X10665890Y-4909225D02*
X10713509Y-4813987D01*
X10713509Y-4813987D02*
X10713509Y-4623511D01*
X10713509Y-4623511D02*
X10665890Y-4528273D01*
X10665890Y-4528273D02*
X10618271Y-4480654D01*
X10618271Y-4480654D02*
X10523033Y-4433035D01*
X-593576Y10883689D02*
X-1069767Y10550356D01*
X-593576Y10312261D02*
X-1593576Y10312261D01*
X-1593576Y10312261D02*
X-1593576Y10693213D01*
X-1593576Y10693213D02*
X-1545957Y10788451D01*
X-1545957Y10788451D02*
X-1498338Y10836070D01*
X-1498338Y10836070D02*
X-1403100Y10883689D01*
X-1403100Y10883689D02*
X-1260243Y10883689D01*
X-1260243Y10883689D02*
X-1165005Y10836070D01*
X-1165005Y10836070D02*
X-1117386Y10788451D01*
X-1117386Y10788451D02*
X-1069767Y10693213D01*
X-1069767Y10693213D02*
X-1069767Y10312261D01*
X-1593576Y11217023D02*
X-1593576Y11883689D01*
X-1593576Y11883689D02*
X-593576Y11455118D01*
X-12291253Y2690775D02*
X-12338872Y2643155D01*
X-12338872Y2643155D02*
X-12481729Y2595536D01*
X-12481729Y2595536D02*
X-12576967Y2595536D01*
X-12576967Y2595536D02*
X-12719824Y2643155D01*
X-12719824Y2643155D02*
X-12815062Y2738394D01*
X-12815062Y2738394D02*
X-12862681Y2833632D01*
X-12862681Y2833632D02*
X-12910300Y3024108D01*
X-12910300Y3024108D02*
X-12910300Y3166965D01*
X-12910300Y3166965D02*
X-12862681Y3357441D01*
X-12862681Y3357441D02*
X-12815062Y3452679D01*
X-12815062Y3452679D02*
X-12719824Y3547917D01*
X-12719824Y3547917D02*
X-12576967Y3595536D01*
X-12576967Y3595536D02*
X-12481729Y3595536D01*
X-12481729Y3595536D02*
X-12338872Y3547917D01*
X-12338872Y3547917D02*
X-12291253Y3500298D01*
X-11338872Y2595536D02*
X-11910300Y2595536D01*
X-11624586Y2595536D02*
X-11624586Y3595536D01*
X-11624586Y3595536D02*
X-11719824Y3452679D01*
X-11719824Y3452679D02*
X-11815062Y3357441D01*
X-11815062Y3357441D02*
X-11910300Y3309822D01*
X-10434110Y3595536D02*
X-10910300Y3595536D01*
X-10910300Y3595536D02*
X-10957919Y3119346D01*
X-10957919Y3119346D02*
X-10910300Y3166965D01*
X-10910300Y3166965D02*
X-10815062Y3214584D01*
X-10815062Y3214584D02*
X-10576967Y3214584D01*
X-10576967Y3214584D02*
X-10481729Y3166965D01*
X-10481729Y3166965D02*
X-10434110Y3119346D01*
X-10434110Y3119346D02*
X-10386491Y3024108D01*
X-10386491Y3024108D02*
X-10386491Y2786013D01*
X-10386491Y2786013D02*
X-10434110Y2690775D01*
X-10434110Y2690775D02*
X-10481729Y2643155D01*
X-10481729Y2643155D02*
X-10576967Y2595536D01*
X-10576967Y2595536D02*
X-10815062Y2595536D01*
X-10815062Y2595536D02*
X-10910300Y2643155D01*
X-10910300Y2643155D02*
X-10957919Y2690775D01*
X-4715062Y-10709225D02*
X-4762681Y-10756845D01*
X-4762681Y-10756845D02*
X-4905538Y-10804464D01*
X-4905538Y-10804464D02*
X-5000776Y-10804464D01*
X-5000776Y-10804464D02*
X-5143633Y-10756845D01*
X-5143633Y-10756845D02*
X-5238871Y-10661606D01*
X-5238871Y-10661606D02*
X-5286490Y-10566368D01*
X-5286490Y-10566368D02*
X-5334109Y-10375892D01*
X-5334109Y-10375892D02*
X-5334109Y-10233035D01*
X-5334109Y-10233035D02*
X-5286490Y-10042559D01*
X-5286490Y-10042559D02*
X-5238871Y-9947321D01*
X-5238871Y-9947321D02*
X-5143633Y-9852083D01*
X-5143633Y-9852083D02*
X-5000776Y-9804464D01*
X-5000776Y-9804464D02*
X-4905538Y-9804464D01*
X-4905538Y-9804464D02*
X-4762681Y-9852083D01*
X-4762681Y-9852083D02*
X-4715062Y-9899702D01*
X-4381728Y-9804464D02*
X-3762681Y-9804464D01*
X-3762681Y-9804464D02*
X-4096014Y-10185416D01*
X-4096014Y-10185416D02*
X-3953157Y-10185416D01*
X-3953157Y-10185416D02*
X-3857919Y-10233035D01*
X-3857919Y-10233035D02*
X-3810300Y-10280654D01*
X-3810300Y-10280654D02*
X-3762681Y-10375892D01*
X-3762681Y-10375892D02*
X-3762681Y-10613987D01*
X-3762681Y-10613987D02*
X-3810300Y-10709225D01*
X-3810300Y-10709225D02*
X-3857919Y-10756845D01*
X-3857919Y-10756845D02*
X-3953157Y-10804464D01*
X-3953157Y-10804464D02*
X-4238871Y-10804464D01*
X-4238871Y-10804464D02*
X-4334109Y-10756845D01*
X-4334109Y-10756845D02*
X-4381728Y-10709225D01*
X806424Y10883689D02*
X330233Y10550356D01*
X806424Y10312261D02*
X-193576Y10312261D01*
X-193576Y10312261D02*
X-193576Y10693213D01*
X-193576Y10693213D02*
X-145957Y10788451D01*
X-145957Y10788451D02*
X-98338Y10836070D01*
X-98338Y10836070D02*
X-3100Y10883689D01*
X-3100Y10883689D02*
X139757Y10883689D01*
X139757Y10883689D02*
X234995Y10836070D01*
X234995Y10836070D02*
X282614Y10788451D01*
X282614Y10788451D02*
X330233Y10693213D01*
X330233Y10693213D02*
X330233Y10312261D01*
X234995Y11455118D02*
X187376Y11359880D01*
X187376Y11359880D02*
X139757Y11312261D01*
X139757Y11312261D02*
X44519Y11264642D01*
X44519Y11264642D02*
X-3100Y11264642D01*
X-3100Y11264642D02*
X-98338Y11312261D01*
X-98338Y11312261D02*
X-145957Y11359880D01*
X-145957Y11359880D02*
X-193576Y11455118D01*
X-193576Y11455118D02*
X-193576Y11645594D01*
X-193576Y11645594D02*
X-145957Y11740832D01*
X-145957Y11740832D02*
X-98338Y11788451D01*
X-98338Y11788451D02*
X-3100Y11836070D01*
X-3100Y11836070D02*
X44519Y11836070D01*
X44519Y11836070D02*
X139757Y11788451D01*
X139757Y11788451D02*
X187376Y11740832D01*
X187376Y11740832D02*
X234995Y11645594D01*
X234995Y11645594D02*
X234995Y11455118D01*
X234995Y11455118D02*
X282614Y11359880D01*
X282614Y11359880D02*
X330233Y11312261D01*
X330233Y11312261D02*
X425471Y11264642D01*
X425471Y11264642D02*
X615947Y11264642D01*
X615947Y11264642D02*
X711185Y11312261D01*
X711185Y11312261D02*
X758805Y11359880D01*
X758805Y11359880D02*
X806424Y11455118D01*
X806424Y11455118D02*
X806424Y11645594D01*
X806424Y11645594D02*
X758805Y11740832D01*
X758805Y11740832D02*
X711185Y11788451D01*
X711185Y11788451D02*
X615947Y11836070D01*
X615947Y11836070D02*
X425471Y11836070D01*
X425471Y11836070D02*
X330233Y11788451D01*
X330233Y11788451D02*
X282614Y11740832D01*
X282614Y11740832D02*
X234995Y11645594D01*
X6508747Y2190775D02*
X6461128Y2143155D01*
X6461128Y2143155D02*
X6318271Y2095536D01*
X6318271Y2095536D02*
X6223033Y2095536D01*
X6223033Y2095536D02*
X6080176Y2143155D01*
X6080176Y2143155D02*
X5984938Y2238394D01*
X5984938Y2238394D02*
X5937319Y2333632D01*
X5937319Y2333632D02*
X5889700Y2524108D01*
X5889700Y2524108D02*
X5889700Y2666965D01*
X5889700Y2666965D02*
X5937319Y2857441D01*
X5937319Y2857441D02*
X5984938Y2952679D01*
X5984938Y2952679D02*
X6080176Y3047917D01*
X6080176Y3047917D02*
X6223033Y3095536D01*
X6223033Y3095536D02*
X6318271Y3095536D01*
X6318271Y3095536D02*
X6461128Y3047917D01*
X6461128Y3047917D02*
X6508747Y3000298D01*
X6889700Y3000298D02*
X6937319Y3047917D01*
X6937319Y3047917D02*
X7032557Y3095536D01*
X7032557Y3095536D02*
X7270652Y3095536D01*
X7270652Y3095536D02*
X7365890Y3047917D01*
X7365890Y3047917D02*
X7413509Y3000298D01*
X7413509Y3000298D02*
X7461128Y2905060D01*
X7461128Y2905060D02*
X7461128Y2809822D01*
X7461128Y2809822D02*
X7413509Y2666965D01*
X7413509Y2666965D02*
X6842081Y2095536D01*
X6842081Y2095536D02*
X7461128Y2095536D01*
X8080176Y3095536D02*
X8175414Y3095536D01*
X8175414Y3095536D02*
X8270652Y3047917D01*
X8270652Y3047917D02*
X8318271Y3000298D01*
X8318271Y3000298D02*
X8365890Y2905060D01*
X8365890Y2905060D02*
X8413509Y2714584D01*
X8413509Y2714584D02*
X8413509Y2476489D01*
X8413509Y2476489D02*
X8365890Y2286013D01*
X8365890Y2286013D02*
X8318271Y2190775D01*
X8318271Y2190775D02*
X8270652Y2143155D01*
X8270652Y2143155D02*
X8175414Y2095536D01*
X8175414Y2095536D02*
X8080176Y2095536D01*
X8080176Y2095536D02*
X7984938Y2143155D01*
X7984938Y2143155D02*
X7937319Y2190775D01*
X7937319Y2190775D02*
X7889700Y2286013D01*
X7889700Y2286013D02*
X7842081Y2476489D01*
X7842081Y2476489D02*
X7842081Y2714584D01*
X7842081Y2714584D02*
X7889700Y2905060D01*
X7889700Y2905060D02*
X7937319Y3000298D01*
X7937319Y3000298D02*
X7984938Y3047917D01*
X7984938Y3047917D02*
X8080176Y3095536D01*
X-1215062Y-7104464D02*
X-1548395Y-6628273D01*
X-1786490Y-7104464D02*
X-1786490Y-6104464D01*
X-1786490Y-6104464D02*
X-1405538Y-6104464D01*
X-1405538Y-6104464D02*
X-1310300Y-6152083D01*
X-1310300Y-6152083D02*
X-1262681Y-6199702D01*
X-1262681Y-6199702D02*
X-1215062Y-6294940D01*
X-1215062Y-6294940D02*
X-1215062Y-6437797D01*
X-1215062Y-6437797D02*
X-1262681Y-6533035D01*
X-1262681Y-6533035D02*
X-1310300Y-6580654D01*
X-1310300Y-6580654D02*
X-1405538Y-6628273D01*
X-1405538Y-6628273D02*
X-1786490Y-6628273D01*
X-834109Y-6199702D02*
X-786490Y-6152083D01*
X-786490Y-6152083D02*
X-691252Y-6104464D01*
X-691252Y-6104464D02*
X-453157Y-6104464D01*
X-453157Y-6104464D02*
X-357919Y-6152083D01*
X-357919Y-6152083D02*
X-310300Y-6199702D01*
X-310300Y-6199702D02*
X-262681Y-6294940D01*
X-262681Y-6294940D02*
X-262681Y-6390178D01*
X-262681Y-6390178D02*
X-310300Y-6533035D01*
X-310300Y-6533035D02*
X-881728Y-7104464D01*
X-881728Y-7104464D02*
X-262681Y-7104464D01*
X-1324586Y-16428273D02*
X-1324586Y-16904464D01*
X-1657919Y-15904464D02*
X-1324586Y-16428273D01*
X-1324586Y-16428273D02*
X-991253Y-15904464D01*
X-134110Y-16904464D02*
X-705538Y-16904464D01*
X-419824Y-16904464D02*
X-419824Y-15904464D01*
X-419824Y-15904464D02*
X-515062Y-16047321D01*
X-515062Y-16047321D02*
X-610300Y-16142559D01*
X-610300Y-16142559D02*
X-705538Y-16190178D01*
X8359580Y19459524D02*
X8407200Y19411905D01*
X8407200Y19411905D02*
X8454819Y19269048D01*
X8454819Y19269048D02*
X8454819Y19173810D01*
X8454819Y19173810D02*
X8407200Y19030953D01*
X8407200Y19030953D02*
X8311961Y18935715D01*
X8311961Y18935715D02*
X8216723Y18888096D01*
X8216723Y18888096D02*
X8026247Y18840477D01*
X8026247Y18840477D02*
X7883390Y18840477D01*
X7883390Y18840477D02*
X7692914Y18888096D01*
X7692914Y18888096D02*
X7597676Y18935715D01*
X7597676Y18935715D02*
X7502438Y19030953D01*
X7502438Y19030953D02*
X7454819Y19173810D01*
X7454819Y19173810D02*
X7454819Y19269048D01*
X7454819Y19269048D02*
X7502438Y19411905D01*
X7502438Y19411905D02*
X7550057Y19459524D01*
X8454819Y19888096D02*
X7454819Y19888096D01*
X7454819Y19888096D02*
X8454819Y20459524D01*
X8454819Y20459524D02*
X7454819Y20459524D01*
X8454819Y21459524D02*
X8454819Y20888096D01*
X8454819Y21173810D02*
X7454819Y21173810D01*
X7454819Y21173810D02*
X7597676Y21078572D01*
X7597676Y21078572D02*
X7692914Y20983334D01*
X7692914Y20983334D02*
X7740533Y20888096D01*
X5357142Y23820420D02*
X5309523Y23772800D01*
X5309523Y23772800D02*
X5166666Y23725181D01*
X5166666Y23725181D02*
X5071428Y23725181D01*
X5071428Y23725181D02*
X4928571Y23772800D01*
X4928571Y23772800D02*
X4833333Y23868039D01*
X4833333Y23868039D02*
X4785714Y23963277D01*
X4785714Y23963277D02*
X4738095Y24153753D01*
X4738095Y24153753D02*
X4738095Y24296610D01*
X4738095Y24296610D02*
X4785714Y24487086D01*
X4785714Y24487086D02*
X4833333Y24582324D01*
X4833333Y24582324D02*
X4928571Y24677562D01*
X4928571Y24677562D02*
X5071428Y24725181D01*
X5071428Y24725181D02*
X5166666Y24725181D01*
X5166666Y24725181D02*
X5309523Y24677562D01*
X5309523Y24677562D02*
X5357142Y24629943D01*
X5690476Y24725181D02*
X6309523Y24725181D01*
X6309523Y24725181D02*
X5976190Y24344229D01*
X5976190Y24344229D02*
X6119047Y24344229D01*
X6119047Y24344229D02*
X6214285Y24296610D01*
X6214285Y24296610D02*
X6261904Y24248991D01*
X6261904Y24248991D02*
X6309523Y24153753D01*
X6309523Y24153753D02*
X6309523Y23915658D01*
X6309523Y23915658D02*
X6261904Y23820420D01*
X6261904Y23820420D02*
X6214285Y23772800D01*
X6214285Y23772800D02*
X6119047Y23725181D01*
X6119047Y23725181D02*
X5833333Y23725181D01*
X5833333Y23725181D02*
X5738095Y23772800D01*
X5738095Y23772800D02*
X5690476Y23820420D01*
X6642857Y24725181D02*
X7261904Y24725181D01*
X7261904Y24725181D02*
X6928571Y24344229D01*
X6928571Y24344229D02*
X7071428Y24344229D01*
X7071428Y24344229D02*
X7166666Y24296610D01*
X7166666Y24296610D02*
X7214285Y24248991D01*
X7214285Y24248991D02*
X7261904Y24153753D01*
X7261904Y24153753D02*
X7261904Y23915658D01*
X7261904Y23915658D02*
X7214285Y23820420D01*
X7214285Y23820420D02*
X7166666Y23772800D01*
X7166666Y23772800D02*
X7071428Y23725181D01*
X7071428Y23725181D02*
X6785714Y23725181D01*
X6785714Y23725181D02*
X6690476Y23772800D01*
X6690476Y23772800D02*
X6642857Y23820420D01*
X5684938Y7945536D02*
X5351605Y8421727D01*
X5113510Y7945536D02*
X5113510Y8945536D01*
X5113510Y8945536D02*
X5494462Y8945536D01*
X5494462Y8945536D02*
X5589700Y8897917D01*
X5589700Y8897917D02*
X5637319Y8850298D01*
X5637319Y8850298D02*
X5684938Y8755060D01*
X5684938Y8755060D02*
X5684938Y8612203D01*
X5684938Y8612203D02*
X5637319Y8516965D01*
X5637319Y8516965D02*
X5589700Y8469346D01*
X5589700Y8469346D02*
X5494462Y8421727D01*
X5494462Y8421727D02*
X5113510Y8421727D01*
X6018272Y8945536D02*
X6637319Y8945536D01*
X6637319Y8945536D02*
X6303986Y8564584D01*
X6303986Y8564584D02*
X6446843Y8564584D01*
X6446843Y8564584D02*
X6542081Y8516965D01*
X6542081Y8516965D02*
X6589700Y8469346D01*
X6589700Y8469346D02*
X6637319Y8374108D01*
X6637319Y8374108D02*
X6637319Y8136013D01*
X6637319Y8136013D02*
X6589700Y8040775D01*
X6589700Y8040775D02*
X6542081Y7993155D01*
X6542081Y7993155D02*
X6446843Y7945536D01*
X6446843Y7945536D02*
X6161129Y7945536D01*
X6161129Y7945536D02*
X6065891Y7993155D01*
X6065891Y7993155D02*
X6018272Y8040775D01*
X-16649866Y8551418D02*
X-17126057Y8218085D01*
X-16649866Y7979990D02*
X-17649866Y7979990D01*
X-17649866Y7979990D02*
X-17649866Y8360942D01*
X-17649866Y8360942D02*
X-17602247Y8456180D01*
X-17602247Y8456180D02*
X-17554628Y8503799D01*
X-17554628Y8503799D02*
X-17459390Y8551418D01*
X-17459390Y8551418D02*
X-17316533Y8551418D01*
X-17316533Y8551418D02*
X-17221295Y8503799D01*
X-17221295Y8503799D02*
X-17173676Y8456180D01*
X-17173676Y8456180D02*
X-17126057Y8360942D01*
X-17126057Y8360942D02*
X-17126057Y7979990D01*
X-16649866Y9503799D02*
X-16649866Y8932371D01*
X-16649866Y9218085D02*
X-17649866Y9218085D01*
X-17649866Y9218085D02*
X-17507009Y9122847D01*
X-17507009Y9122847D02*
X-17411771Y9027609D01*
X-17411771Y9027609D02*
X-17364152Y8932371D01*
X-17649866Y9837133D02*
X-17649866Y10503799D01*
X-17649866Y10503799D02*
X-16649866Y10075228D01*
X-3162858Y-16199580D02*
X-3210477Y-16247200D01*
X-3210477Y-16247200D02*
X-3353334Y-16294819D01*
X-3353334Y-16294819D02*
X-3448572Y-16294819D01*
X-3448572Y-16294819D02*
X-3591429Y-16247200D01*
X-3591429Y-16247200D02*
X-3686667Y-16151961D01*
X-3686667Y-16151961D02*
X-3734286Y-16056723D01*
X-3734286Y-16056723D02*
X-3781905Y-15866247D01*
X-3781905Y-15866247D02*
X-3781905Y-15723390D01*
X-3781905Y-15723390D02*
X-3734286Y-15532914D01*
X-3734286Y-15532914D02*
X-3686667Y-15437676D01*
X-3686667Y-15437676D02*
X-3591429Y-15342438D01*
X-3591429Y-15342438D02*
X-3448572Y-15294819D01*
X-3448572Y-15294819D02*
X-3353334Y-15294819D01*
X-3353334Y-15294819D02*
X-3210477Y-15342438D01*
X-3210477Y-15342438D02*
X-3162858Y-15390057D01*
X-2781905Y-15390057D02*
X-2734286Y-15342438D01*
X-2734286Y-15342438D02*
X-2639048Y-15294819D01*
X-2639048Y-15294819D02*
X-2400953Y-15294819D01*
X-2400953Y-15294819D02*
X-2305715Y-15342438D01*
X-2305715Y-15342438D02*
X-2258096Y-15390057D01*
X-2258096Y-15390057D02*
X-2210477Y-15485295D01*
X-2210477Y-15485295D02*
X-2210477Y-15580533D01*
X-2210477Y-15580533D02*
X-2258096Y-15723390D01*
X-2258096Y-15723390D02*
X-2829524Y-16294819D01*
X-2829524Y-16294819D02*
X-2210477Y-16294819D01*
X-1305715Y-15294819D02*
X-1781905Y-15294819D01*
X-1781905Y-15294819D02*
X-1829524Y-15771009D01*
X-1829524Y-15771009D02*
X-1781905Y-15723390D01*
X-1781905Y-15723390D02*
X-1686667Y-15675771D01*
X-1686667Y-15675771D02*
X-1448572Y-15675771D01*
X-1448572Y-15675771D02*
X-1353334Y-15723390D01*
X-1353334Y-15723390D02*
X-1305715Y-15771009D01*
X-1305715Y-15771009D02*
X-1258096Y-15866247D01*
X-1258096Y-15866247D02*
X-1258096Y-16104342D01*
X-1258096Y-16104342D02*
X-1305715Y-16199580D01*
X-1305715Y-16199580D02*
X-1353334Y-16247200D01*
X-1353334Y-16247200D02*
X-1448572Y-16294819D01*
X-1448572Y-16294819D02*
X-1686667Y-16294819D01*
X-1686667Y-16294819D02*
X-1781905Y-16247200D01*
X-1781905Y-16247200D02*
X-1829524Y-16199580D01*
X-3192858Y-17179580D02*
X-3240477Y-17227200D01*
X-3240477Y-17227200D02*
X-3383334Y-17274819D01*
X-3383334Y-17274819D02*
X-3478572Y-17274819D01*
X-3478572Y-17274819D02*
X-3621429Y-17227200D01*
X-3621429Y-17227200D02*
X-3716667Y-17131961D01*
X-3716667Y-17131961D02*
X-3764286Y-17036723D01*
X-3764286Y-17036723D02*
X-3811905Y-16846247D01*
X-3811905Y-16846247D02*
X-3811905Y-16703390D01*
X-3811905Y-16703390D02*
X-3764286Y-16512914D01*
X-3764286Y-16512914D02*
X-3716667Y-16417676D01*
X-3716667Y-16417676D02*
X-3621429Y-16322438D01*
X-3621429Y-16322438D02*
X-3478572Y-16274819D01*
X-3478572Y-16274819D02*
X-3383334Y-16274819D01*
X-3383334Y-16274819D02*
X-3240477Y-16322438D01*
X-3240477Y-16322438D02*
X-3192858Y-16370057D01*
X-2811905Y-16370057D02*
X-2764286Y-16322438D01*
X-2764286Y-16322438D02*
X-2669048Y-16274819D01*
X-2669048Y-16274819D02*
X-2430953Y-16274819D01*
X-2430953Y-16274819D02*
X-2335715Y-16322438D01*
X-2335715Y-16322438D02*
X-2288096Y-16370057D01*
X-2288096Y-16370057D02*
X-2240477Y-16465295D01*
X-2240477Y-16465295D02*
X-2240477Y-16560533D01*
X-2240477Y-16560533D02*
X-2288096Y-16703390D01*
X-2288096Y-16703390D02*
X-2859524Y-17274819D01*
X-2859524Y-17274819D02*
X-2240477Y-17274819D01*
X-1383334Y-16608152D02*
X-1383334Y-17274819D01*
X-1621429Y-16227200D02*
X-1859524Y-16941485D01*
X-1859524Y-16941485D02*
X-1240477Y-16941485D01*
X5684938Y6190775D02*
X5637319Y6143155D01*
X5637319Y6143155D02*
X5494462Y6095536D01*
X5494462Y6095536D02*
X5399224Y6095536D01*
X5399224Y6095536D02*
X5256367Y6143155D01*
X5256367Y6143155D02*
X5161129Y6238394D01*
X5161129Y6238394D02*
X5113510Y6333632D01*
X5113510Y6333632D02*
X5065891Y6524108D01*
X5065891Y6524108D02*
X5065891Y6666965D01*
X5065891Y6666965D02*
X5113510Y6857441D01*
X5113510Y6857441D02*
X5161129Y6952679D01*
X5161129Y6952679D02*
X5256367Y7047917D01*
X5256367Y7047917D02*
X5399224Y7095536D01*
X5399224Y7095536D02*
X5494462Y7095536D01*
X5494462Y7095536D02*
X5637319Y7047917D01*
X5637319Y7047917D02*
X5684938Y7000298D01*
X6161129Y6095536D02*
X6351605Y6095536D01*
X6351605Y6095536D02*
X6446843Y6143155D01*
X6446843Y6143155D02*
X6494462Y6190775D01*
X6494462Y6190775D02*
X6589700Y6333632D01*
X6589700Y6333632D02*
X6637319Y6524108D01*
X6637319Y6524108D02*
X6637319Y6905060D01*
X6637319Y6905060D02*
X6589700Y7000298D01*
X6589700Y7000298D02*
X6542081Y7047917D01*
X6542081Y7047917D02*
X6446843Y7095536D01*
X6446843Y7095536D02*
X6256367Y7095536D01*
X6256367Y7095536D02*
X6161129Y7047917D01*
X6161129Y7047917D02*
X6113510Y7000298D01*
X6113510Y7000298D02*
X6065891Y6905060D01*
X6065891Y6905060D02*
X6065891Y6666965D01*
X6065891Y6666965D02*
X6113510Y6571727D01*
X6113510Y6571727D02*
X6161129Y6524108D01*
X6161129Y6524108D02*
X6256367Y6476489D01*
X6256367Y6476489D02*
X6446843Y6476489D01*
X6446843Y6476489D02*
X6542081Y6524108D01*
X6542081Y6524108D02*
X6589700Y6571727D01*
X6589700Y6571727D02*
X6637319Y6666965D01*
X1984938Y7850775D02*
X1937319Y7803155D01*
X1937319Y7803155D02*
X1794462Y7755536D01*
X1794462Y7755536D02*
X1699224Y7755536D01*
X1699224Y7755536D02*
X1556367Y7803155D01*
X1556367Y7803155D02*
X1461129Y7898394D01*
X1461129Y7898394D02*
X1413510Y7993632D01*
X1413510Y7993632D02*
X1365891Y8184108D01*
X1365891Y8184108D02*
X1365891Y8326965D01*
X1365891Y8326965D02*
X1413510Y8517441D01*
X1413510Y8517441D02*
X1461129Y8612679D01*
X1461129Y8612679D02*
X1556367Y8707917D01*
X1556367Y8707917D02*
X1699224Y8755536D01*
X1699224Y8755536D02*
X1794462Y8755536D01*
X1794462Y8755536D02*
X1937319Y8707917D01*
X1937319Y8707917D02*
X1984938Y8660298D01*
X2318272Y8755536D02*
X2984938Y8755536D01*
X2984938Y8755536D02*
X2556367Y7755536D01*
X-23275528Y357143D02*
X-23227908Y309524D01*
X-23227908Y309524D02*
X-23180289Y166667D01*
X-23180289Y166667D02*
X-23180289Y71429D01*
X-23180289Y71429D02*
X-23227908Y-71428D01*
X-23227908Y-71428D02*
X-23323147Y-166666D01*
X-23323147Y-166666D02*
X-23418385Y-214285D01*
X-23418385Y-214285D02*
X-23608861Y-261904D01*
X-23608861Y-261904D02*
X-23751718Y-261904D01*
X-23751718Y-261904D02*
X-23942194Y-214285D01*
X-23942194Y-214285D02*
X-24037432Y-166666D01*
X-24037432Y-166666D02*
X-24132670Y-71428D01*
X-24132670Y-71428D02*
X-24180289Y71429D01*
X-24180289Y71429D02*
X-24180289Y166667D01*
X-24180289Y166667D02*
X-24132670Y309524D01*
X-24132670Y309524D02*
X-24085051Y357143D01*
X-24180289Y690477D02*
X-24180289Y1309524D01*
X-24180289Y1309524D02*
X-23799337Y976191D01*
X-23799337Y976191D02*
X-23799337Y1119048D01*
X-23799337Y1119048D02*
X-23751718Y1214286D01*
X-23751718Y1214286D02*
X-23704099Y1261905D01*
X-23704099Y1261905D02*
X-23608861Y1309524D01*
X-23608861Y1309524D02*
X-23370766Y1309524D01*
X-23370766Y1309524D02*
X-23275528Y1261905D01*
X-23275528Y1261905D02*
X-23227908Y1214286D01*
X-23227908Y1214286D02*
X-23180289Y1119048D01*
X-23180289Y1119048D02*
X-23180289Y833334D01*
X-23180289Y833334D02*
X-23227908Y738096D01*
X-23227908Y738096D02*
X-23275528Y690477D01*
X-23180289Y2261905D02*
X-23180289Y1690477D01*
X-23180289Y1976191D02*
X-24180289Y1976191D01*
X-24180289Y1976191D02*
X-24037432Y1880953D01*
X-24037432Y1880953D02*
X-23942194Y1785715D01*
X-23942194Y1785715D02*
X-23894575Y1690477D01*
X-6547499Y7120701D02*
X-6614843Y7120701D01*
X-6614843Y7120701D02*
X-6749530Y7188045D01*
X-6749530Y7188045D02*
X-6816873Y7255388D01*
X-6816873Y7255388D02*
X-6884217Y7390075D01*
X-6884217Y7390075D02*
X-6884217Y7524762D01*
X-6884217Y7524762D02*
X-6850545Y7625777D01*
X-6850545Y7625777D02*
X-6749530Y7794136D01*
X-6749530Y7794136D02*
X-6648515Y7895151D01*
X-6648515Y7895151D02*
X-6480156Y7996167D01*
X-6480156Y7996167D02*
X-6379141Y8029838D01*
X-6379141Y8029838D02*
X-6244454Y8029838D01*
X-6244454Y8029838D02*
X-6109767Y7962495D01*
X-6109767Y7962495D02*
X-6042423Y7895151D01*
X-6042423Y7895151D02*
X-5975080Y7760464D01*
X-5975080Y7760464D02*
X-5975080Y7693121D01*
X-5941408Y6379923D02*
X-6345469Y6783984D01*
X-6143438Y6581953D02*
X-5436332Y7289060D01*
X-5436332Y7289060D02*
X-5604690Y7255388D01*
X-5604690Y7255388D02*
X-5739377Y7255388D01*
X-5739377Y7255388D02*
X-5840393Y7289060D01*
X-4863912Y6245235D02*
X-5335316Y5773831D01*
X-4762896Y6682968D02*
X-5436331Y6346251D01*
X-5436331Y6346251D02*
X-4998599Y5908518D01*
X8179580Y11857143D02*
X8227200Y11809524D01*
X8227200Y11809524D02*
X8274819Y11666667D01*
X8274819Y11666667D02*
X8274819Y11571429D01*
X8274819Y11571429D02*
X8227200Y11428572D01*
X8227200Y11428572D02*
X8131961Y11333334D01*
X8131961Y11333334D02*
X8036723Y11285715D01*
X8036723Y11285715D02*
X7846247Y11238096D01*
X7846247Y11238096D02*
X7703390Y11238096D01*
X7703390Y11238096D02*
X7512914Y11285715D01*
X7512914Y11285715D02*
X7417676Y11333334D01*
X7417676Y11333334D02*
X7322438Y11428572D01*
X7322438Y11428572D02*
X7274819Y11571429D01*
X7274819Y11571429D02*
X7274819Y11666667D01*
X7274819Y11666667D02*
X7322438Y11809524D01*
X7322438Y11809524D02*
X7370057Y11857143D01*
X8274819Y12809524D02*
X8274819Y12238096D01*
X8274819Y12523810D02*
X7274819Y12523810D01*
X7274819Y12523810D02*
X7417676Y12428572D01*
X7417676Y12428572D02*
X7512914Y12333334D01*
X7512914Y12333334D02*
X7560533Y12238096D01*
X8274819Y13285715D02*
X8274819Y13476191D01*
X8274819Y13476191D02*
X8227200Y13571429D01*
X8227200Y13571429D02*
X8179580Y13619048D01*
X8179580Y13619048D02*
X8036723Y13714286D01*
X8036723Y13714286D02*
X7846247Y13761905D01*
X7846247Y13761905D02*
X7465295Y13761905D01*
X7465295Y13761905D02*
X7370057Y13714286D01*
X7370057Y13714286D02*
X7322438Y13666667D01*
X7322438Y13666667D02*
X7274819Y13571429D01*
X7274819Y13571429D02*
X7274819Y13380953D01*
X7274819Y13380953D02*
X7322438Y13285715D01*
X7322438Y13285715D02*
X7370057Y13238096D01*
X7370057Y13238096D02*
X7465295Y13190477D01*
X7465295Y13190477D02*
X7703390Y13190477D01*
X7703390Y13190477D02*
X7798628Y13238096D01*
X7798628Y13238096D02*
X7846247Y13285715D01*
X7846247Y13285715D02*
X7893866Y13380953D01*
X7893866Y13380953D02*
X7893866Y13571429D01*
X7893866Y13571429D02*
X7846247Y13666667D01*
X7846247Y13666667D02*
X7798628Y13714286D01*
X7798628Y13714286D02*
X7703390Y13761905D01*
X-4416195Y18642023D02*
X-4368576Y18784880D01*
X-4368576Y18784880D02*
X-4368576Y19022975D01*
X-4368576Y19022975D02*
X-4416195Y19118213D01*
X-4416195Y19118213D02*
X-4463815Y19165832D01*
X-4463815Y19165832D02*
X-4559053Y19213451D01*
X-4559053Y19213451D02*
X-4654291Y19213451D01*
X-4654291Y19213451D02*
X-4749529Y19165832D01*
X-4749529Y19165832D02*
X-4797148Y19118213D01*
X-4797148Y19118213D02*
X-4844767Y19022975D01*
X-4844767Y19022975D02*
X-4892386Y18832499D01*
X-4892386Y18832499D02*
X-4940005Y18737261D01*
X-4940005Y18737261D02*
X-4987624Y18689642D01*
X-4987624Y18689642D02*
X-5082862Y18642023D01*
X-5082862Y18642023D02*
X-5178100Y18642023D01*
X-5178100Y18642023D02*
X-5273338Y18689642D01*
X-5273338Y18689642D02*
X-5320957Y18737261D01*
X-5320957Y18737261D02*
X-5368576Y18832499D01*
X-5368576Y18832499D02*
X-5368576Y19070594D01*
X-5368576Y19070594D02*
X-5320957Y19213451D01*
X-5368576Y19546785D02*
X-4368576Y19784880D01*
X-4368576Y19784880D02*
X-5082862Y19975356D01*
X-5082862Y19975356D02*
X-4368576Y20165832D01*
X-4368576Y20165832D02*
X-5368576Y20403927D01*
X-4368576Y21308689D02*
X-4368576Y20737261D01*
X-4368576Y21022975D02*
X-5368576Y21022975D01*
X-5368576Y21022975D02*
X-5225719Y20927737D01*
X-5225719Y20927737D02*
X-5130481Y20832499D01*
X-5130481Y20832499D02*
X-5082862Y20737261D01*
X-22275528Y357143D02*
X-22227908Y309524D01*
X-22227908Y309524D02*
X-22180289Y166667D01*
X-22180289Y166667D02*
X-22180289Y71429D01*
X-22180289Y71429D02*
X-22227908Y-71428D01*
X-22227908Y-71428D02*
X-22323147Y-166666D01*
X-22323147Y-166666D02*
X-22418385Y-214285D01*
X-22418385Y-214285D02*
X-22608861Y-261904D01*
X-22608861Y-261904D02*
X-22751718Y-261904D01*
X-22751718Y-261904D02*
X-22942194Y-214285D01*
X-22942194Y-214285D02*
X-23037432Y-166666D01*
X-23037432Y-166666D02*
X-23132670Y-71428D01*
X-23132670Y-71428D02*
X-23180289Y71429D01*
X-23180289Y71429D02*
X-23180289Y166667D01*
X-23180289Y166667D02*
X-23132670Y309524D01*
X-23132670Y309524D02*
X-23085051Y357143D01*
X-23180289Y690477D02*
X-23180289Y1309524D01*
X-23180289Y1309524D02*
X-22799337Y976191D01*
X-22799337Y976191D02*
X-22799337Y1119048D01*
X-22799337Y1119048D02*
X-22751718Y1214286D01*
X-22751718Y1214286D02*
X-22704099Y1261905D01*
X-22704099Y1261905D02*
X-22608861Y1309524D01*
X-22608861Y1309524D02*
X-22370766Y1309524D01*
X-22370766Y1309524D02*
X-22275528Y1261905D01*
X-22275528Y1261905D02*
X-22227908Y1214286D01*
X-22227908Y1214286D02*
X-22180289Y1119048D01*
X-22180289Y1119048D02*
X-22180289Y833334D01*
X-22180289Y833334D02*
X-22227908Y738096D01*
X-22227908Y738096D02*
X-22275528Y690477D01*
X-23180289Y1928572D02*
X-23180289Y2023810D01*
X-23180289Y2023810D02*
X-23132670Y2119048D01*
X-23132670Y2119048D02*
X-23085051Y2166667D01*
X-23085051Y2166667D02*
X-22989813Y2214286D01*
X-22989813Y2214286D02*
X-22799337Y2261905D01*
X-22799337Y2261905D02*
X-22561242Y2261905D01*
X-22561242Y2261905D02*
X-22370766Y2214286D01*
X-22370766Y2214286D02*
X-22275528Y2166667D01*
X-22275528Y2166667D02*
X-22227908Y2119048D01*
X-22227908Y2119048D02*
X-22180289Y2023810D01*
X-22180289Y2023810D02*
X-22180289Y1928572D01*
X-22180289Y1928572D02*
X-22227908Y1833334D01*
X-22227908Y1833334D02*
X-22275528Y1785715D01*
X-22275528Y1785715D02*
X-22370766Y1738096D01*
X-22370766Y1738096D02*
X-22561242Y1690477D01*
X-22561242Y1690477D02*
X-22799337Y1690477D01*
X-22799337Y1690477D02*
X-22989813Y1738096D01*
X-22989813Y1738096D02*
X-23085051Y1785715D01*
X-23085051Y1785715D02*
X-23132670Y1833334D01*
X-23132670Y1833334D02*
X-23180289Y1928572D01*
X-18741098Y-246458D02*
X-19217289Y-579791D01*
X-18741098Y-817886D02*
X-19741098Y-817886D01*
X-19741098Y-817886D02*
X-19741098Y-436934D01*
X-19741098Y-436934D02*
X-19693479Y-341696D01*
X-19693479Y-341696D02*
X-19645860Y-294077D01*
X-19645860Y-294077D02*
X-19550622Y-246458D01*
X-19550622Y-246458D02*
X-19407765Y-246458D01*
X-19407765Y-246458D02*
X-19312527Y-294077D01*
X-19312527Y-294077D02*
X-19264908Y-341696D01*
X-19264908Y-341696D02*
X-19217289Y-436934D01*
X-19217289Y-436934D02*
X-19217289Y-817886D01*
X-18741098Y705923D02*
X-18741098Y134495D01*
X-18741098Y420209D02*
X-19741098Y420209D01*
X-19741098Y420209D02*
X-19598241Y324971D01*
X-19598241Y324971D02*
X-19503003Y229733D01*
X-19503003Y229733D02*
X-19455384Y134495D01*
X5016667Y-10507200D02*
X5159524Y-10554819D01*
X5159524Y-10554819D02*
X5397619Y-10554819D01*
X5397619Y-10554819D02*
X5492857Y-10507200D01*
X5492857Y-10507200D02*
X5540476Y-10459580D01*
X5540476Y-10459580D02*
X5588095Y-10364342D01*
X5588095Y-10364342D02*
X5588095Y-10269104D01*
X5588095Y-10269104D02*
X5540476Y-10173866D01*
X5540476Y-10173866D02*
X5492857Y-10126247D01*
X5492857Y-10126247D02*
X5397619Y-10078628D01*
X5397619Y-10078628D02*
X5207143Y-10031009D01*
X5207143Y-10031009D02*
X5111905Y-9983390D01*
X5111905Y-9983390D02*
X5064286Y-9935771D01*
X5064286Y-9935771D02*
X5016667Y-9840533D01*
X5016667Y-9840533D02*
X5016667Y-9745295D01*
X5016667Y-9745295D02*
X5064286Y-9650057D01*
X5064286Y-9650057D02*
X5111905Y-9602438D01*
X5111905Y-9602438D02*
X5207143Y-9554819D01*
X5207143Y-9554819D02*
X5445238Y-9554819D01*
X5445238Y-9554819D02*
X5588095Y-9602438D01*
X5921429Y-9554819D02*
X6159524Y-10554819D01*
X6159524Y-10554819D02*
X6350000Y-9840533D01*
X6350000Y-9840533D02*
X6540476Y-10554819D01*
X6540476Y-10554819D02*
X6778572Y-9554819D01*
X7111905Y-9650057D02*
X7159524Y-9602438D01*
X7159524Y-9602438D02*
X7254762Y-9554819D01*
X7254762Y-9554819D02*
X7492857Y-9554819D01*
X7492857Y-9554819D02*
X7588095Y-9602438D01*
X7588095Y-9602438D02*
X7635714Y-9650057D01*
X7635714Y-9650057D02*
X7683333Y-9745295D01*
X7683333Y-9745295D02*
X7683333Y-9840533D01*
X7683333Y-9840533D02*
X7635714Y-9983390D01*
X7635714Y-9983390D02*
X7064286Y-10554819D01*
X7064286Y-10554819D02*
X7683333Y-10554819D01*
X-1010300Y20475536D02*
X-1010300Y19666013D01*
X-1010300Y19666013D02*
X-962681Y19570775D01*
X-962681Y19570775D02*
X-915062Y19523155D01*
X-915062Y19523155D02*
X-819824Y19475536D01*
X-819824Y19475536D02*
X-629348Y19475536D01*
X-629348Y19475536D02*
X-534110Y19523155D01*
X-534110Y19523155D02*
X-486491Y19570775D01*
X-486491Y19570775D02*
X-438872Y19666013D01*
X-438872Y19666013D02*
X-438872Y20475536D01*
X513509Y20475536D02*
X37319Y20475536D01*
X37319Y20475536D02*
X-10300Y19999346D01*
X-10300Y19999346D02*
X37319Y20046965D01*
X37319Y20046965D02*
X132557Y20094584D01*
X132557Y20094584D02*
X370652Y20094584D01*
X370652Y20094584D02*
X465890Y20046965D01*
X465890Y20046965D02*
X513509Y19999346D01*
X513509Y19999346D02*
X561128Y19904108D01*
X561128Y19904108D02*
X561128Y19666013D01*
X561128Y19666013D02*
X513509Y19570775D01*
X513509Y19570775D02*
X465890Y19523155D01*
X465890Y19523155D02*
X370652Y19475536D01*
X370652Y19475536D02*
X132557Y19475536D01*
X132557Y19475536D02*
X37319Y19523155D01*
X37319Y19523155D02*
X-10300Y19570775D01*
X-16908342Y-174349D02*
X-16955961Y-221969D01*
X-16955961Y-221969D02*
X-17098818Y-269588D01*
X-17098818Y-269588D02*
X-17194056Y-269588D01*
X-17194056Y-269588D02*
X-17336913Y-221969D01*
X-17336913Y-221969D02*
X-17432151Y-126730D01*
X-17432151Y-126730D02*
X-17479770Y-31492D01*
X-17479770Y-31492D02*
X-17527389Y158984D01*
X-17527389Y158984D02*
X-17527389Y301841D01*
X-17527389Y301841D02*
X-17479770Y492317D01*
X-17479770Y492317D02*
X-17432151Y587555D01*
X-17432151Y587555D02*
X-17336913Y682793D01*
X-17336913Y682793D02*
X-17194056Y730412D01*
X-17194056Y730412D02*
X-17098818Y730412D01*
X-17098818Y730412D02*
X-16955961Y682793D01*
X-16955961Y682793D02*
X-16908342Y635174D01*
X-15955961Y-269588D02*
X-16527389Y-269588D01*
X-16241675Y-269588D02*
X-16241675Y730412D01*
X-16241675Y730412D02*
X-16336913Y587555D01*
X-16336913Y587555D02*
X-16432151Y492317D01*
X-16432151Y492317D02*
X-16527389Y444698D01*
X7284819Y11847143D02*
X6808628Y11513810D01*
X7284819Y11275715D02*
X6284819Y11275715D01*
X6284819Y11275715D02*
X6284819Y11656667D01*
X6284819Y11656667D02*
X6332438Y11751905D01*
X6332438Y11751905D02*
X6380057Y11799524D01*
X6380057Y11799524D02*
X6475295Y11847143D01*
X6475295Y11847143D02*
X6618152Y11847143D01*
X6618152Y11847143D02*
X6713390Y11799524D01*
X6713390Y11799524D02*
X6761009Y11751905D01*
X6761009Y11751905D02*
X6808628Y11656667D01*
X6808628Y11656667D02*
X6808628Y11275715D01*
X7284819Y12799524D02*
X7284819Y12228096D01*
X7284819Y12513810D02*
X6284819Y12513810D01*
X6284819Y12513810D02*
X6427676Y12418572D01*
X6427676Y12418572D02*
X6522914Y12323334D01*
X6522914Y12323334D02*
X6570533Y12228096D01*
X6284819Y13132858D02*
X6284819Y13751905D01*
X6284819Y13751905D02*
X6665771Y13418572D01*
X6665771Y13418572D02*
X6665771Y13561429D01*
X6665771Y13561429D02*
X6713390Y13656667D01*
X6713390Y13656667D02*
X6761009Y13704286D01*
X6761009Y13704286D02*
X6856247Y13751905D01*
X6856247Y13751905D02*
X7094342Y13751905D01*
X7094342Y13751905D02*
X7189580Y13704286D01*
X7189580Y13704286D02*
X7237200Y13656667D01*
X7237200Y13656667D02*
X7284819Y13561429D01*
X7284819Y13561429D02*
X7284819Y13275715D01*
X7284819Y13275715D02*
X7237200Y13180477D01*
X7237200Y13180477D02*
X7189580Y13132858D01*
X1984938Y6900775D02*
X1937319Y6853155D01*
X1937319Y6853155D02*
X1794462Y6805536D01*
X1794462Y6805536D02*
X1699224Y6805536D01*
X1699224Y6805536D02*
X1556367Y6853155D01*
X1556367Y6853155D02*
X1461129Y6948394D01*
X1461129Y6948394D02*
X1413510Y7043632D01*
X1413510Y7043632D02*
X1365891Y7234108D01*
X1365891Y7234108D02*
X1365891Y7376965D01*
X1365891Y7376965D02*
X1413510Y7567441D01*
X1413510Y7567441D02*
X1461129Y7662679D01*
X1461129Y7662679D02*
X1556367Y7757917D01*
X1556367Y7757917D02*
X1699224Y7805536D01*
X1699224Y7805536D02*
X1794462Y7805536D01*
X1794462Y7805536D02*
X1937319Y7757917D01*
X1937319Y7757917D02*
X1984938Y7710298D01*
X2842081Y7805536D02*
X2651605Y7805536D01*
X2651605Y7805536D02*
X2556367Y7757917D01*
X2556367Y7757917D02*
X2508748Y7710298D01*
X2508748Y7710298D02*
X2413510Y7567441D01*
X2413510Y7567441D02*
X2365891Y7376965D01*
X2365891Y7376965D02*
X2365891Y6996013D01*
X2365891Y6996013D02*
X2413510Y6900775D01*
X2413510Y6900775D02*
X2461129Y6853155D01*
X2461129Y6853155D02*
X2556367Y6805536D01*
X2556367Y6805536D02*
X2746843Y6805536D01*
X2746843Y6805536D02*
X2842081Y6853155D01*
X2842081Y6853155D02*
X2889700Y6900775D01*
X2889700Y6900775D02*
X2937319Y6996013D01*
X2937319Y6996013D02*
X2937319Y7234108D01*
X2937319Y7234108D02*
X2889700Y7329346D01*
X2889700Y7329346D02*
X2842081Y7376965D01*
X2842081Y7376965D02*
X2746843Y7424584D01*
X2746843Y7424584D02*
X2556367Y7424584D01*
X2556367Y7424584D02*
X2461129Y7376965D01*
X2461129Y7376965D02*
X2413510Y7329346D01*
X2413510Y7329346D02*
X2365891Y7234108D01*
X-19368438Y-5627390D02*
X-19844629Y-5960723D01*
X-19368438Y-6198818D02*
X-20368438Y-6198818D01*
X-20368438Y-6198818D02*
X-20368438Y-5817866D01*
X-20368438Y-5817866D02*
X-20320819Y-5722628D01*
X-20320819Y-5722628D02*
X-20273200Y-5675009D01*
X-20273200Y-5675009D02*
X-20177962Y-5627390D01*
X-20177962Y-5627390D02*
X-20035105Y-5627390D01*
X-20035105Y-5627390D02*
X-19939867Y-5675009D01*
X-19939867Y-5675009D02*
X-19892248Y-5722628D01*
X-19892248Y-5722628D02*
X-19844629Y-5817866D01*
X-19844629Y-5817866D02*
X-19844629Y-6198818D01*
X-20273200Y-5246437D02*
X-20320819Y-5198818D01*
X-20320819Y-5198818D02*
X-20368438Y-5103580D01*
X-20368438Y-5103580D02*
X-20368438Y-4865485D01*
X-20368438Y-4865485D02*
X-20320819Y-4770247D01*
X-20320819Y-4770247D02*
X-20273200Y-4722628D01*
X-20273200Y-4722628D02*
X-20177962Y-4675009D01*
X-20177962Y-4675009D02*
X-20082724Y-4675009D01*
X-20082724Y-4675009D02*
X-19939867Y-4722628D01*
X-19939867Y-4722628D02*
X-19368438Y-5294056D01*
X-19368438Y-5294056D02*
X-19368438Y-4675009D01*
X-20368438Y-3817866D02*
X-20368438Y-4008342D01*
X-20368438Y-4008342D02*
X-20320819Y-4103580D01*
X-20320819Y-4103580D02*
X-20273200Y-4151199D01*
X-20273200Y-4151199D02*
X-20130343Y-4246437D01*
X-20130343Y-4246437D02*
X-19939867Y-4294056D01*
X-19939867Y-4294056D02*
X-19558915Y-4294056D01*
X-19558915Y-4294056D02*
X-19463677Y-4246437D01*
X-19463677Y-4246437D02*
X-19416057Y-4198818D01*
X-19416057Y-4198818D02*
X-19368438Y-4103580D01*
X-19368438Y-4103580D02*
X-19368438Y-3913104D01*
X-19368438Y-3913104D02*
X-19416057Y-3817866D01*
X-19416057Y-3817866D02*
X-19463677Y-3770247D01*
X-19463677Y-3770247D02*
X-19558915Y-3722628D01*
X-19558915Y-3722628D02*
X-19797010Y-3722628D01*
X-19797010Y-3722628D02*
X-19892248Y-3770247D01*
X-19892248Y-3770247D02*
X-19939867Y-3817866D01*
X-19939867Y-3817866D02*
X-19987486Y-3913104D01*
X-19987486Y-3913104D02*
X-19987486Y-4103580D01*
X-19987486Y-4103580D02*
X-19939867Y-4198818D01*
X-19939867Y-4198818D02*
X-19892248Y-4246437D01*
X-19892248Y-4246437D02*
X-19797010Y-4294056D01*
X7833333Y12145181D02*
X7357143Y12145181D01*
X7357143Y12145181D02*
X7357143Y13145181D01*
X8119048Y13049943D02*
X8166667Y13097562D01*
X8166667Y13097562D02*
X8261905Y13145181D01*
X8261905Y13145181D02*
X8500000Y13145181D01*
X8500000Y13145181D02*
X8595238Y13097562D01*
X8595238Y13097562D02*
X8642857Y13049943D01*
X8642857Y13049943D02*
X8690476Y12954705D01*
X8690476Y12954705D02*
X8690476Y12859467D01*
X8690476Y12859467D02*
X8642857Y12716610D01*
X8642857Y12716610D02*
X8071429Y12145181D01*
X8071429Y12145181D02*
X8690476Y12145181D01*
X-16742858Y14299754D02*
X-17076191Y14775945D01*
X-17314286Y14299754D02*
X-17314286Y15299754D01*
X-17314286Y15299754D02*
X-16933334Y15299754D01*
X-16933334Y15299754D02*
X-16838096Y15252135D01*
X-16838096Y15252135D02*
X-16790477Y15204516D01*
X-16790477Y15204516D02*
X-16742858Y15109278D01*
X-16742858Y15109278D02*
X-16742858Y14966421D01*
X-16742858Y14966421D02*
X-16790477Y14871183D01*
X-16790477Y14871183D02*
X-16838096Y14823564D01*
X-16838096Y14823564D02*
X-16933334Y14775945D01*
X-16933334Y14775945D02*
X-17314286Y14775945D01*
X-15790477Y14299754D02*
X-16361905Y14299754D01*
X-16076191Y14299754D02*
X-16076191Y15299754D01*
X-16076191Y15299754D02*
X-16171429Y15156897D01*
X-16171429Y15156897D02*
X-16266667Y15061659D01*
X-16266667Y15061659D02*
X-16361905Y15014040D01*
X-15171429Y15299754D02*
X-15076191Y15299754D01*
X-15076191Y15299754D02*
X-14980953Y15252135D01*
X-14980953Y15252135D02*
X-14933334Y15204516D01*
X-14933334Y15204516D02*
X-14885715Y15109278D01*
X-14885715Y15109278D02*
X-14838096Y14918802D01*
X-14838096Y14918802D02*
X-14838096Y14680707D01*
X-14838096Y14680707D02*
X-14885715Y14490231D01*
X-14885715Y14490231D02*
X-14933334Y14394993D01*
X-14933334Y14394993D02*
X-14980953Y14347373D01*
X-14980953Y14347373D02*
X-15076191Y14299754D01*
X-15076191Y14299754D02*
X-15171429Y14299754D01*
X-15171429Y14299754D02*
X-15266667Y14347373D01*
X-15266667Y14347373D02*
X-15314286Y14394993D01*
X-15314286Y14394993D02*
X-15361905Y14490231D01*
X-15361905Y14490231D02*
X-15409524Y14680707D01*
X-15409524Y14680707D02*
X-15409524Y14918802D01*
X-15409524Y14918802D02*
X-15361905Y15109278D01*
X-15361905Y15109278D02*
X-15314286Y15204516D01*
X-15314286Y15204516D02*
X-15266667Y15252135D01*
X-15266667Y15252135D02*
X-15171429Y15299754D01*
X1897142Y13940421D02*
X1849523Y13892801D01*
X1849523Y13892801D02*
X1706666Y13845182D01*
X1706666Y13845182D02*
X1611428Y13845182D01*
X1611428Y13845182D02*
X1468571Y13892801D01*
X1468571Y13892801D02*
X1373333Y13988040D01*
X1373333Y13988040D02*
X1325714Y14083278D01*
X1325714Y14083278D02*
X1278095Y14273754D01*
X1278095Y14273754D02*
X1278095Y14416611D01*
X1278095Y14416611D02*
X1325714Y14607087D01*
X1325714Y14607087D02*
X1373333Y14702325D01*
X1373333Y14702325D02*
X1468571Y14797563D01*
X1468571Y14797563D02*
X1611428Y14845182D01*
X1611428Y14845182D02*
X1706666Y14845182D01*
X1706666Y14845182D02*
X1849523Y14797563D01*
X1849523Y14797563D02*
X1897142Y14749944D01*
X2278095Y14749944D02*
X2325714Y14797563D01*
X2325714Y14797563D02*
X2420952Y14845182D01*
X2420952Y14845182D02*
X2659047Y14845182D01*
X2659047Y14845182D02*
X2754285Y14797563D01*
X2754285Y14797563D02*
X2801904Y14749944D01*
X2801904Y14749944D02*
X2849523Y14654706D01*
X2849523Y14654706D02*
X2849523Y14559468D01*
X2849523Y14559468D02*
X2801904Y14416611D01*
X2801904Y14416611D02*
X2230476Y13845182D01*
X2230476Y13845182D02*
X2849523Y13845182D01*
X3230476Y14749944D02*
X3278095Y14797563D01*
X3278095Y14797563D02*
X3373333Y14845182D01*
X3373333Y14845182D02*
X3611428Y14845182D01*
X3611428Y14845182D02*
X3706666Y14797563D01*
X3706666Y14797563D02*
X3754285Y14749944D01*
X3754285Y14749944D02*
X3801904Y14654706D01*
X3801904Y14654706D02*
X3801904Y14559468D01*
X3801904Y14559468D02*
X3754285Y14416611D01*
X3754285Y14416611D02*
X3182857Y13845182D01*
X3182857Y13845182D02*
X3801904Y13845182D01*
X-15666667Y15545181D02*
X-16000000Y16021372D01*
X-16238095Y15545181D02*
X-16238095Y16545181D01*
X-16238095Y16545181D02*
X-15857143Y16545181D01*
X-15857143Y16545181D02*
X-15761905Y16497562D01*
X-15761905Y16497562D02*
X-15714286Y16449943D01*
X-15714286Y16449943D02*
X-15666667Y16354705D01*
X-15666667Y16354705D02*
X-15666667Y16211848D01*
X-15666667Y16211848D02*
X-15714286Y16116610D01*
X-15714286Y16116610D02*
X-15761905Y16068991D01*
X-15761905Y16068991D02*
X-15857143Y16021372D01*
X-15857143Y16021372D02*
X-16238095Y16021372D01*
X-14809524Y16545181D02*
X-15000000Y16545181D01*
X-15000000Y16545181D02*
X-15095238Y16497562D01*
X-15095238Y16497562D02*
X-15142857Y16449943D01*
X-15142857Y16449943D02*
X-15238095Y16307086D01*
X-15238095Y16307086D02*
X-15285714Y16116610D01*
X-15285714Y16116610D02*
X-15285714Y15735658D01*
X-15285714Y15735658D02*
X-15238095Y15640420D01*
X-15238095Y15640420D02*
X-15190476Y15592800D01*
X-15190476Y15592800D02*
X-15095238Y15545181D01*
X-15095238Y15545181D02*
X-14904762Y15545181D01*
X-14904762Y15545181D02*
X-14809524Y15592800D01*
X-14809524Y15592800D02*
X-14761905Y15640420D01*
X-14761905Y15640420D02*
X-14714286Y15735658D01*
X-14714286Y15735658D02*
X-14714286Y15973753D01*
X-14714286Y15973753D02*
X-14761905Y16068991D01*
X-14761905Y16068991D02*
X-14809524Y16116610D01*
X-14809524Y16116610D02*
X-14904762Y16164229D01*
X-14904762Y16164229D02*
X-15095238Y16164229D01*
X-15095238Y16164229D02*
X-15190476Y16116610D01*
X-15190476Y16116610D02*
X-15238095Y16068991D01*
X-15238095Y16068991D02*
X-15285714Y15973753D01*
X2208747Y-8609225D02*
X2161128Y-8656845D01*
X2161128Y-8656845D02*
X2018271Y-8704464D01*
X2018271Y-8704464D02*
X1923033Y-8704464D01*
X1923033Y-8704464D02*
X1780176Y-8656845D01*
X1780176Y-8656845D02*
X1684938Y-8561606D01*
X1684938Y-8561606D02*
X1637319Y-8466368D01*
X1637319Y-8466368D02*
X1589700Y-8275892D01*
X1589700Y-8275892D02*
X1589700Y-8133035D01*
X1589700Y-8133035D02*
X1637319Y-7942559D01*
X1637319Y-7942559D02*
X1684938Y-7847321D01*
X1684938Y-7847321D02*
X1780176Y-7752083D01*
X1780176Y-7752083D02*
X1923033Y-7704464D01*
X1923033Y-7704464D02*
X2018271Y-7704464D01*
X2018271Y-7704464D02*
X2161128Y-7752083D01*
X2161128Y-7752083D02*
X2208747Y-7799702D01*
X3161128Y-8704464D02*
X2589700Y-8704464D01*
X2875414Y-8704464D02*
X2875414Y-7704464D01*
X2875414Y-7704464D02*
X2780176Y-7847321D01*
X2780176Y-7847321D02*
X2684938Y-7942559D01*
X2684938Y-7942559D02*
X2589700Y-7990178D01*
X3780176Y-7704464D02*
X3875414Y-7704464D01*
X3875414Y-7704464D02*
X3970652Y-7752083D01*
X3970652Y-7752083D02*
X4018271Y-7799702D01*
X4018271Y-7799702D02*
X4065890Y-7894940D01*
X4065890Y-7894940D02*
X4113509Y-8085416D01*
X4113509Y-8085416D02*
X4113509Y-8323511D01*
X4113509Y-8323511D02*
X4065890Y-8513987D01*
X4065890Y-8513987D02*
X4018271Y-8609225D01*
X4018271Y-8609225D02*
X3970652Y-8656845D01*
X3970652Y-8656845D02*
X3875414Y-8704464D01*
X3875414Y-8704464D02*
X3780176Y-8704464D01*
X3780176Y-8704464D02*
X3684938Y-8656845D01*
X3684938Y-8656845D02*
X3637319Y-8609225D01*
X3637319Y-8609225D02*
X3589700Y-8513987D01*
X3589700Y-8513987D02*
X3542081Y-8323511D01*
X3542081Y-8323511D02*
X3542081Y-8085416D01*
X3542081Y-8085416D02*
X3589700Y-7894940D01*
X3589700Y-7894940D02*
X3637319Y-7799702D01*
X3637319Y-7799702D02*
X3684938Y-7752083D01*
X3684938Y-7752083D02*
X3780176Y-7704464D01*
X-16008869Y-2960869D02*
X-16342202Y-2484678D01*
X-16580297Y-2960869D02*
X-16580297Y-1960869D01*
X-16580297Y-1960869D02*
X-16199345Y-1960869D01*
X-16199345Y-1960869D02*
X-16104107Y-2008488D01*
X-16104107Y-2008488D02*
X-16056488Y-2056107D01*
X-16056488Y-2056107D02*
X-16008869Y-2151345D01*
X-16008869Y-2151345D02*
X-16008869Y-2294202D01*
X-16008869Y-2294202D02*
X-16056488Y-2389440D01*
X-16056488Y-2389440D02*
X-16104107Y-2437059D01*
X-16104107Y-2437059D02*
X-16199345Y-2484678D01*
X-16199345Y-2484678D02*
X-16580297Y-2484678D01*
X-15056488Y-2960869D02*
X-15627916Y-2960869D01*
X-15342202Y-2960869D02*
X-15342202Y-1960869D01*
X-15342202Y-1960869D02*
X-15437440Y-2103726D01*
X-15437440Y-2103726D02*
X-15532678Y-2198964D01*
X-15532678Y-2198964D02*
X-15627916Y-2246583D01*
X-14104107Y-2960869D02*
X-14675535Y-2960869D01*
X-14389821Y-2960869D02*
X-14389821Y-1960869D01*
X-14389821Y-1960869D02*
X-14485059Y-2103726D01*
X-14485059Y-2103726D02*
X-14580297Y-2198964D01*
X-14580297Y-2198964D02*
X-14675535Y-2246583D01*
X-21350289Y-5638939D02*
X-21826480Y-5972272D01*
X-21350289Y-6210367D02*
X-22350289Y-6210367D01*
X-22350289Y-6210367D02*
X-22350289Y-5829415D01*
X-22350289Y-5829415D02*
X-22302670Y-5734177D01*
X-22302670Y-5734177D02*
X-22255051Y-5686558D01*
X-22255051Y-5686558D02*
X-22159813Y-5638939D01*
X-22159813Y-5638939D02*
X-22016956Y-5638939D01*
X-22016956Y-5638939D02*
X-21921718Y-5686558D01*
X-21921718Y-5686558D02*
X-21874099Y-5734177D01*
X-21874099Y-5734177D02*
X-21826480Y-5829415D01*
X-21826480Y-5829415D02*
X-21826480Y-6210367D01*
X-22255051Y-5257986D02*
X-22302670Y-5210367D01*
X-22302670Y-5210367D02*
X-22350289Y-5115129D01*
X-22350289Y-5115129D02*
X-22350289Y-4877034D01*
X-22350289Y-4877034D02*
X-22302670Y-4781796D01*
X-22302670Y-4781796D02*
X-22255051Y-4734177D01*
X-22255051Y-4734177D02*
X-22159813Y-4686558D01*
X-22159813Y-4686558D02*
X-22064575Y-4686558D01*
X-22064575Y-4686558D02*
X-21921718Y-4734177D01*
X-21921718Y-4734177D02*
X-21350289Y-5305605D01*
X-21350289Y-5305605D02*
X-21350289Y-4686558D01*
X-22350289Y-3781796D02*
X-22350289Y-4257986D01*
X-22350289Y-4257986D02*
X-21874099Y-4305605D01*
X-21874099Y-4305605D02*
X-21921718Y-4257986D01*
X-21921718Y-4257986D02*
X-21969337Y-4162748D01*
X-21969337Y-4162748D02*
X-21969337Y-3924653D01*
X-21969337Y-3924653D02*
X-21921718Y-3829415D01*
X-21921718Y-3829415D02*
X-21874099Y-3781796D01*
X-21874099Y-3781796D02*
X-21778861Y-3734177D01*
X-21778861Y-3734177D02*
X-21540766Y-3734177D01*
X-21540766Y-3734177D02*
X-21445528Y-3781796D01*
X-21445528Y-3781796D02*
X-21397908Y-3829415D01*
X-21397908Y-3829415D02*
X-21350289Y-3924653D01*
X-21350289Y-3924653D02*
X-21350289Y-4162748D01*
X-21350289Y-4162748D02*
X-21397908Y-4257986D01*
X-21397908Y-4257986D02*
X-21445528Y-4305605D01*
X-17365675Y8467966D02*
X-16556152Y8467966D01*
X-16556152Y8467966D02*
X-16460914Y8515585D01*
X-16460914Y8515585D02*
X-16413294Y8563204D01*
X-16413294Y8563204D02*
X-16365675Y8658442D01*
X-16365675Y8658442D02*
X-16365675Y8848918D01*
X-16365675Y8848918D02*
X-16413294Y8944156D01*
X-16413294Y8944156D02*
X-16460914Y8991775D01*
X-16460914Y8991775D02*
X-16556152Y9039394D01*
X-16556152Y9039394D02*
X-17365675Y9039394D01*
X-16365675Y9563204D02*
X-16365675Y9753680D01*
X-16365675Y9753680D02*
X-16413294Y9848918D01*
X-16413294Y9848918D02*
X-16460914Y9896537D01*
X-16460914Y9896537D02*
X-16603771Y9991775D01*
X-16603771Y9991775D02*
X-16794247Y10039394D01*
X-16794247Y10039394D02*
X-17175199Y10039394D01*
X-17175199Y10039394D02*
X-17270437Y9991775D01*
X-17270437Y9991775D02*
X-17318056Y9944156D01*
X-17318056Y9944156D02*
X-17365675Y9848918D01*
X-17365675Y9848918D02*
X-17365675Y9658442D01*
X-17365675Y9658442D02*
X-17318056Y9563204D01*
X-17318056Y9563204D02*
X-17270437Y9515585D01*
X-17270437Y9515585D02*
X-17175199Y9467966D01*
X-17175199Y9467966D02*
X-16937104Y9467966D01*
X-16937104Y9467966D02*
X-16841866Y9515585D01*
X-16841866Y9515585D02*
X-16794247Y9563204D01*
X-16794247Y9563204D02*
X-16746628Y9658442D01*
X-16746628Y9658442D02*
X-16746628Y9848918D01*
X-16746628Y9848918D02*
X-16794247Y9944156D01*
X-16794247Y9944156D02*
X-16841866Y9991775D01*
X-16841866Y9991775D02*
X-16937104Y10039394D01*
X-17365675Y14991776D02*
X-16556152Y14991776D01*
X-16556152Y14991776D02*
X-16460914Y15039395D01*
X-16460914Y15039395D02*
X-16413294Y15087014D01*
X-16413294Y15087014D02*
X-16365675Y15182252D01*
X-16365675Y15182252D02*
X-16365675Y15372728D01*
X-16365675Y15372728D02*
X-16413294Y15467966D01*
X-16413294Y15467966D02*
X-16460914Y15515585D01*
X-16460914Y15515585D02*
X-16556152Y15563204D01*
X-16556152Y15563204D02*
X-17365675Y15563204D01*
X-16365675Y16563204D02*
X-16365675Y15991776D01*
X-16365675Y16277490D02*
X-17365675Y16277490D01*
X-17365675Y16277490D02*
X-17222818Y16182252D01*
X-17222818Y16182252D02*
X-17127580Y16087014D01*
X-17127580Y16087014D02*
X-17079961Y15991776D01*
X-17365675Y17182252D02*
X-17365675Y17277490D01*
X-17365675Y17277490D02*
X-17318056Y17372728D01*
X-17318056Y17372728D02*
X-17270437Y17420347D01*
X-17270437Y17420347D02*
X-17175199Y17467966D01*
X-17175199Y17467966D02*
X-16984723Y17515585D01*
X-16984723Y17515585D02*
X-16746628Y17515585D01*
X-16746628Y17515585D02*
X-16556152Y17467966D01*
X-16556152Y17467966D02*
X-16460914Y17420347D01*
X-16460914Y17420347D02*
X-16413294Y17372728D01*
X-16413294Y17372728D02*
X-16365675Y17277490D01*
X-16365675Y17277490D02*
X-16365675Y17182252D01*
X-16365675Y17182252D02*
X-16413294Y17087014D01*
X-16413294Y17087014D02*
X-16460914Y17039395D01*
X-16460914Y17039395D02*
X-16556152Y16991776D01*
X-16556152Y16991776D02*
X-16746628Y16944157D01*
X-16746628Y16944157D02*
X-16984723Y16944157D01*
X-16984723Y16944157D02*
X-17175199Y16991776D01*
X-17175199Y16991776D02*
X-17270437Y17039395D01*
X-17270437Y17039395D02*
X-17318056Y17087014D01*
X-17318056Y17087014D02*
X-17365675Y17182252D01*
X-1417974Y-37519262D02*
X-1417974Y-38328785D01*
X-1417974Y-38328785D02*
X-1370355Y-38424023D01*
X-1370355Y-38424023D02*
X-1322736Y-38471643D01*
X-1322736Y-38471643D02*
X-1227498Y-38519262D01*
X-1227498Y-38519262D02*
X-1037022Y-38519262D01*
X-1037022Y-38519262D02*
X-941784Y-38471643D01*
X-941784Y-38471643D02*
X-894165Y-38424023D01*
X-894165Y-38424023D02*
X-846546Y-38328785D01*
X-846546Y-38328785D02*
X-846546Y-37519262D01*
X58216Y-37852595D02*
X58216Y-38519262D01*
X-179879Y-37471643D02*
X-417974Y-38185928D01*
X-417974Y-38185928D02*
X201073Y-38185928D01*
X-1610300Y7145536D02*
X-1610300Y6336013D01*
X-1610300Y6336013D02*
X-1562681Y6240775D01*
X-1562681Y6240775D02*
X-1515062Y6193155D01*
X-1515062Y6193155D02*
X-1419824Y6145536D01*
X-1419824Y6145536D02*
X-1229348Y6145536D01*
X-1229348Y6145536D02*
X-1134110Y6193155D01*
X-1134110Y6193155D02*
X-1086491Y6240775D01*
X-1086491Y6240775D02*
X-1038872Y6336013D01*
X-1038872Y6336013D02*
X-1038872Y7145536D01*
X-38872Y6145536D02*
X-610300Y6145536D01*
X-324586Y6145536D02*
X-324586Y7145536D01*
X-324586Y7145536D02*
X-419824Y7002679D01*
X-419824Y7002679D02*
X-515062Y6907441D01*
X-515062Y6907441D02*
X-610300Y6859822D01*
X-14342701Y1064385D02*
X-14390320Y1016765D01*
X-14390320Y1016765D02*
X-14533177Y969146D01*
X-14533177Y969146D02*
X-14628415Y969146D01*
X-14628415Y969146D02*
X-14771272Y1016765D01*
X-14771272Y1016765D02*
X-14866510Y1112004D01*
X-14866510Y1112004D02*
X-14914129Y1207242D01*
X-14914129Y1207242D02*
X-14961748Y1397718D01*
X-14961748Y1397718D02*
X-14961748Y1540575D01*
X-14961748Y1540575D02*
X-14914129Y1731051D01*
X-14914129Y1731051D02*
X-14866510Y1826289D01*
X-14866510Y1826289D02*
X-14771272Y1921527D01*
X-14771272Y1921527D02*
X-14628415Y1969146D01*
X-14628415Y1969146D02*
X-14533177Y1969146D01*
X-14533177Y1969146D02*
X-14390320Y1921527D01*
X-14390320Y1921527D02*
X-14342701Y1873908D01*
X-13437939Y1969146D02*
X-13914129Y1969146D01*
X-13914129Y1969146D02*
X-13961748Y1492956D01*
X-13961748Y1492956D02*
X-13914129Y1540575D01*
X-13914129Y1540575D02*
X-13818891Y1588194D01*
X-13818891Y1588194D02*
X-13580796Y1588194D01*
X-13580796Y1588194D02*
X-13485558Y1540575D01*
X-13485558Y1540575D02*
X-13437939Y1492956D01*
X-13437939Y1492956D02*
X-13390320Y1397718D01*
X-13390320Y1397718D02*
X-13390320Y1159623D01*
X-13390320Y1159623D02*
X-13437939Y1064385D01*
X-13437939Y1064385D02*
X-13485558Y1016765D01*
X-13485558Y1016765D02*
X-13580796Y969146D01*
X-13580796Y969146D02*
X-13818891Y969146D01*
X-13818891Y969146D02*
X-13914129Y1016765D01*
X-13914129Y1016765D02*
X-13961748Y1064385D01*
X2184938Y10045536D02*
X1708748Y10045536D01*
X1708748Y10045536D02*
X1708748Y11045536D01*
X3042081Y10045536D02*
X2470653Y10045536D01*
X2756367Y10045536D02*
X2756367Y11045536D01*
X2756367Y11045536D02*
X2661129Y10902679D01*
X2661129Y10902679D02*
X2565891Y10807441D01*
X2565891Y10807441D02*
X2470653Y10759822D01*
X-11415062Y-109225D02*
X-11462681Y-156845D01*
X-11462681Y-156845D02*
X-11605538Y-204464D01*
X-11605538Y-204464D02*
X-11700776Y-204464D01*
X-11700776Y-204464D02*
X-11843633Y-156845D01*
X-11843633Y-156845D02*
X-11938871Y-61606D01*
X-11938871Y-61606D02*
X-11986490Y33632D01*
X-11986490Y33632D02*
X-12034109Y224108D01*
X-12034109Y224108D02*
X-12034109Y366965D01*
X-12034109Y366965D02*
X-11986490Y557441D01*
X-11986490Y557441D02*
X-11938871Y652679D01*
X-11938871Y652679D02*
X-11843633Y747917D01*
X-11843633Y747917D02*
X-11700776Y795536D01*
X-11700776Y795536D02*
X-11605538Y795536D01*
X-11605538Y795536D02*
X-11462681Y747917D01*
X-11462681Y747917D02*
X-11415062Y700298D01*
X-10843633Y366965D02*
X-10938871Y414584D01*
X-10938871Y414584D02*
X-10986490Y462203D01*
X-10986490Y462203D02*
X-11034109Y557441D01*
X-11034109Y557441D02*
X-11034109Y605060D01*
X-11034109Y605060D02*
X-10986490Y700298D01*
X-10986490Y700298D02*
X-10938871Y747917D01*
X-10938871Y747917D02*
X-10843633Y795536D01*
X-10843633Y795536D02*
X-10653157Y795536D01*
X-10653157Y795536D02*
X-10557919Y747917D01*
X-10557919Y747917D02*
X-10510300Y700298D01*
X-10510300Y700298D02*
X-10462681Y605060D01*
X-10462681Y605060D02*
X-10462681Y557441D01*
X-10462681Y557441D02*
X-10510300Y462203D01*
X-10510300Y462203D02*
X-10557919Y414584D01*
X-10557919Y414584D02*
X-10653157Y366965D01*
X-10653157Y366965D02*
X-10843633Y366965D01*
X-10843633Y366965D02*
X-10938871Y319346D01*
X-10938871Y319346D02*
X-10986490Y271727D01*
X-10986490Y271727D02*
X-11034109Y176489D01*
X-11034109Y176489D02*
X-11034109Y-13987D01*
X-11034109Y-13987D02*
X-10986490Y-109225D01*
X-10986490Y-109225D02*
X-10938871Y-156845D01*
X-10938871Y-156845D02*
X-10843633Y-204464D01*
X-10843633Y-204464D02*
X-10653157Y-204464D01*
X-10653157Y-204464D02*
X-10557919Y-156845D01*
X-10557919Y-156845D02*
X-10510300Y-109225D01*
X-10510300Y-109225D02*
X-10462681Y-13987D01*
X-10462681Y-13987D02*
X-10462681Y176489D01*
X-10462681Y176489D02*
X-10510300Y271727D01*
X-10510300Y271727D02*
X-10557919Y319346D01*
X-10557919Y319346D02*
X-10653157Y366965D01*
X-16411215Y15557041D02*
X-16887406Y15223708D01*
X-16411215Y14985613D02*
X-17411215Y14985613D01*
X-17411215Y14985613D02*
X-17411215Y15366565D01*
X-17411215Y15366565D02*
X-17363596Y15461803D01*
X-17363596Y15461803D02*
X-17315977Y15509422D01*
X-17315977Y15509422D02*
X-17220739Y15557041D01*
X-17220739Y15557041D02*
X-17077882Y15557041D01*
X-17077882Y15557041D02*
X-16982644Y15509422D01*
X-16982644Y15509422D02*
X-16935025Y15461803D01*
X-16935025Y15461803D02*
X-16887406Y15366565D01*
X-16887406Y15366565D02*
X-16887406Y14985613D01*
X-16411215Y16509422D02*
X-16411215Y15937994D01*
X-16411215Y16223708D02*
X-17411215Y16223708D01*
X-17411215Y16223708D02*
X-17268358Y16128470D01*
X-17268358Y16128470D02*
X-17173120Y16033232D01*
X-17173120Y16033232D02*
X-17125501Y15937994D01*
X-17077882Y17366565D02*
X-16411215Y17366565D01*
X-17458834Y17128470D02*
X-16744549Y16890375D01*
X-16744549Y16890375D02*
X-16744549Y17509422D01*
X-19194102Y-2761904D02*
X-18384579Y-2761904D01*
X-18384579Y-2761904D02*
X-18289341Y-2714285D01*
X-18289341Y-2714285D02*
X-18241721Y-2666666D01*
X-18241721Y-2666666D02*
X-18194102Y-2571428D01*
X-18194102Y-2571428D02*
X-18194102Y-2380952D01*
X-18194102Y-2380952D02*
X-18241721Y-2285714D01*
X-18241721Y-2285714D02*
X-18289341Y-2238095D01*
X-18289341Y-2238095D02*
X-18384579Y-2190476D01*
X-18384579Y-2190476D02*
X-19194102Y-2190476D01*
X-18765531Y-1571428D02*
X-18813150Y-1666666D01*
X-18813150Y-1666666D02*
X-18860769Y-1714285D01*
X-18860769Y-1714285D02*
X-18956007Y-1761904D01*
X-18956007Y-1761904D02*
X-19003626Y-1761904D01*
X-19003626Y-1761904D02*
X-19098864Y-1714285D01*
X-19098864Y-1714285D02*
X-19146483Y-1666666D01*
X-19146483Y-1666666D02*
X-19194102Y-1571428D01*
X-19194102Y-1571428D02*
X-19194102Y-1380952D01*
X-19194102Y-1380952D02*
X-19146483Y-1285714D01*
X-19146483Y-1285714D02*
X-19098864Y-1238095D01*
X-19098864Y-1238095D02*
X-19003626Y-1190476D01*
X-19003626Y-1190476D02*
X-18956007Y-1190476D01*
X-18956007Y-1190476D02*
X-18860769Y-1238095D01*
X-18860769Y-1238095D02*
X-18813150Y-1285714D01*
X-18813150Y-1285714D02*
X-18765531Y-1380952D01*
X-18765531Y-1380952D02*
X-18765531Y-1571428D01*
X-18765531Y-1571428D02*
X-18717912Y-1666666D01*
X-18717912Y-1666666D02*
X-18670293Y-1714285D01*
X-18670293Y-1714285D02*
X-18575055Y-1761904D01*
X-18575055Y-1761904D02*
X-18384579Y-1761904D01*
X-18384579Y-1761904D02*
X-18289341Y-1714285D01*
X-18289341Y-1714285D02*
X-18241721Y-1666666D01*
X-18241721Y-1666666D02*
X-18194102Y-1571428D01*
X-18194102Y-1571428D02*
X-18194102Y-1380952D01*
X-18194102Y-1380952D02*
X-18241721Y-1285714D01*
X-18241721Y-1285714D02*
X-18289341Y-1238095D01*
X-18289341Y-1238095D02*
X-18384579Y-1190476D01*
X-18384579Y-1190476D02*
X-18575055Y-1190476D01*
X-18575055Y-1190476D02*
X-18670293Y-1238095D01*
X-18670293Y-1238095D02*
X-18717912Y-1285714D01*
X-18717912Y-1285714D02*
X-18765531Y-1380952D01*
X-14957964Y4455435D02*
X-14957964Y3645912D01*
X-14957964Y3645912D02*
X-14910345Y3550674D01*
X-14910345Y3550674D02*
X-14862726Y3503054D01*
X-14862726Y3503054D02*
X-14767488Y3455435D01*
X-14767488Y3455435D02*
X-14577012Y3455435D01*
X-14577012Y3455435D02*
X-14481774Y3503054D01*
X-14481774Y3503054D02*
X-14434155Y3550674D01*
X-14434155Y3550674D02*
X-14386536Y3645912D01*
X-14386536Y3645912D02*
X-14386536Y4455435D01*
X-13957964Y4360197D02*
X-13910345Y4407816D01*
X-13910345Y4407816D02*
X-13815107Y4455435D01*
X-13815107Y4455435D02*
X-13577012Y4455435D01*
X-13577012Y4455435D02*
X-13481774Y4407816D01*
X-13481774Y4407816D02*
X-13434155Y4360197D01*
X-13434155Y4360197D02*
X-13386536Y4264959D01*
X-13386536Y4264959D02*
X-13386536Y4169721D01*
X-13386536Y4169721D02*
X-13434155Y4026864D01*
X-13434155Y4026864D02*
X-14005583Y3455435D01*
X-14005583Y3455435D02*
X-13386536Y3455435D01*
X-8691253Y-7109225D02*
X-8738872Y-7156845D01*
X-8738872Y-7156845D02*
X-8881729Y-7204464D01*
X-8881729Y-7204464D02*
X-8976967Y-7204464D01*
X-8976967Y-7204464D02*
X-9119824Y-7156845D01*
X-9119824Y-7156845D02*
X-9215062Y-7061606D01*
X-9215062Y-7061606D02*
X-9262681Y-6966368D01*
X-9262681Y-6966368D02*
X-9310300Y-6775892D01*
X-9310300Y-6775892D02*
X-9310300Y-6633035D01*
X-9310300Y-6633035D02*
X-9262681Y-6442559D01*
X-9262681Y-6442559D02*
X-9215062Y-6347321D01*
X-9215062Y-6347321D02*
X-9119824Y-6252083D01*
X-9119824Y-6252083D02*
X-8976967Y-6204464D01*
X-8976967Y-6204464D02*
X-8881729Y-6204464D01*
X-8881729Y-6204464D02*
X-8738872Y-6252083D01*
X-8738872Y-6252083D02*
X-8691253Y-6299702D01*
X-8310300Y-6299702D02*
X-8262681Y-6252083D01*
X-8262681Y-6252083D02*
X-8167443Y-6204464D01*
X-8167443Y-6204464D02*
X-7929348Y-6204464D01*
X-7929348Y-6204464D02*
X-7834110Y-6252083D01*
X-7834110Y-6252083D02*
X-7786491Y-6299702D01*
X-7786491Y-6299702D02*
X-7738872Y-6394940D01*
X-7738872Y-6394940D02*
X-7738872Y-6490178D01*
X-7738872Y-6490178D02*
X-7786491Y-6633035D01*
X-7786491Y-6633035D02*
X-8357919Y-7204464D01*
X-8357919Y-7204464D02*
X-7738872Y-7204464D01*
X-6786491Y-7204464D02*
X-7357919Y-7204464D01*
X-7072205Y-7204464D02*
X-7072205Y-6204464D01*
X-7072205Y-6204464D02*
X-7167443Y-6347321D01*
X-7167443Y-6347321D02*
X-7262681Y-6442559D01*
X-7262681Y-6442559D02*
X-7357919Y-6490178D01*
X-13032678Y-620869D02*
X-13366011Y-144678D01*
X-13604106Y-620869D02*
X-13604106Y379131D01*
X-13604106Y379131D02*
X-13223154Y379131D01*
X-13223154Y379131D02*
X-13127916Y331512D01*
X-13127916Y331512D02*
X-13080297Y283893D01*
X-13080297Y283893D02*
X-13032678Y188655D01*
X-13032678Y188655D02*
X-13032678Y45798D01*
X-13032678Y45798D02*
X-13080297Y-49440D01*
X-13080297Y-49440D02*
X-13127916Y-97059D01*
X-13127916Y-97059D02*
X-13223154Y-144678D01*
X-13223154Y-144678D02*
X-13604106Y-144678D01*
X-12556487Y-620869D02*
X-12366011Y-620869D01*
X-12366011Y-620869D02*
X-12270773Y-573250D01*
X-12270773Y-573250D02*
X-12223154Y-525630D01*
X-12223154Y-525630D02*
X-12127916Y-382773D01*
X-12127916Y-382773D02*
X-12080297Y-192297D01*
X-12080297Y-192297D02*
X-12080297Y188655D01*
X-12080297Y188655D02*
X-12127916Y283893D01*
X-12127916Y283893D02*
X-12175535Y331512D01*
X-12175535Y331512D02*
X-12270773Y379131D01*
X-12270773Y379131D02*
X-12461249Y379131D01*
X-12461249Y379131D02*
X-12556487Y331512D01*
X-12556487Y331512D02*
X-12604106Y283893D01*
X-12604106Y283893D02*
X-12651725Y188655D01*
X-12651725Y188655D02*
X-12651725Y-49440D01*
X-12651725Y-49440D02*
X-12604106Y-144678D01*
X-12604106Y-144678D02*
X-12556487Y-192297D01*
X-12556487Y-192297D02*
X-12461249Y-239916D01*
X-12461249Y-239916D02*
X-12270773Y-239916D01*
X-12270773Y-239916D02*
X-12175535Y-192297D01*
X-12175535Y-192297D02*
X-12127916Y-144678D01*
X-12127916Y-144678D02*
X-12080297Y-49440D01*
X-20350289Y-5642857D02*
X-20826480Y-5976190D01*
X-20350289Y-6214285D02*
X-21350289Y-6214285D01*
X-21350289Y-6214285D02*
X-21350289Y-5833333D01*
X-21350289Y-5833333D02*
X-21302670Y-5738095D01*
X-21302670Y-5738095D02*
X-21255051Y-5690476D01*
X-21255051Y-5690476D02*
X-21159813Y-5642857D01*
X-21159813Y-5642857D02*
X-21016956Y-5642857D01*
X-21016956Y-5642857D02*
X-20921718Y-5690476D01*
X-20921718Y-5690476D02*
X-20874099Y-5738095D01*
X-20874099Y-5738095D02*
X-20826480Y-5833333D01*
X-20826480Y-5833333D02*
X-20826480Y-6214285D01*
X-21255051Y-5261904D02*
X-21302670Y-5214285D01*
X-21302670Y-5214285D02*
X-21350289Y-5119047D01*
X-21350289Y-5119047D02*
X-21350289Y-4880952D01*
X-21350289Y-4880952D02*
X-21302670Y-4785714D01*
X-21302670Y-4785714D02*
X-21255051Y-4738095D01*
X-21255051Y-4738095D02*
X-21159813Y-4690476D01*
X-21159813Y-4690476D02*
X-21064575Y-4690476D01*
X-21064575Y-4690476D02*
X-20921718Y-4738095D01*
X-20921718Y-4738095D02*
X-20350289Y-5309523D01*
X-20350289Y-5309523D02*
X-20350289Y-4690476D01*
X-21016956Y-3833333D02*
X-20350289Y-3833333D01*
X-21397908Y-4071428D02*
X-20683623Y-4309523D01*
X-20683623Y-4309523D02*
X-20683623Y-3690476D01*
X-14761930Y-26963811D02*
X-14761930Y-27773334D01*
X-14761930Y-27773334D02*
X-14714311Y-27868572D01*
X-14714311Y-27868572D02*
X-14666692Y-27916192D01*
X-14666692Y-27916192D02*
X-14571454Y-27963811D01*
X-14571454Y-27963811D02*
X-14380978Y-27963811D01*
X-14380978Y-27963811D02*
X-14285740Y-27916192D01*
X-14285740Y-27916192D02*
X-14238121Y-27868572D01*
X-14238121Y-27868572D02*
X-14190502Y-27773334D01*
X-14190502Y-27773334D02*
X-14190502Y-26963811D01*
X-13285740Y-26963811D02*
X-13476216Y-26963811D01*
X-13476216Y-26963811D02*
X-13571454Y-27011430D01*
X-13571454Y-27011430D02*
X-13619073Y-27059049D01*
X-13619073Y-27059049D02*
X-13714311Y-27201906D01*
X-13714311Y-27201906D02*
X-13761930Y-27392382D01*
X-13761930Y-27392382D02*
X-13761930Y-27773334D01*
X-13761930Y-27773334D02*
X-13714311Y-27868572D01*
X-13714311Y-27868572D02*
X-13666692Y-27916192D01*
X-13666692Y-27916192D02*
X-13571454Y-27963811D01*
X-13571454Y-27963811D02*
X-13380978Y-27963811D01*
X-13380978Y-27963811D02*
X-13285740Y-27916192D01*
X-13285740Y-27916192D02*
X-13238121Y-27868572D01*
X-13238121Y-27868572D02*
X-13190502Y-27773334D01*
X-13190502Y-27773334D02*
X-13190502Y-27535239D01*
X-13190502Y-27535239D02*
X-13238121Y-27440001D01*
X-13238121Y-27440001D02*
X-13285740Y-27392382D01*
X-13285740Y-27392382D02*
X-13380978Y-27344763D01*
X-13380978Y-27344763D02*
X-13571454Y-27344763D01*
X-13571454Y-27344763D02*
X-13666692Y-27392382D01*
X-13666692Y-27392382D02*
X-13714311Y-27440001D01*
X-13714311Y-27440001D02*
X-13761930Y-27535239D01*
X443499Y-9049715D02*
X110166Y-8573524D01*
X-127929Y-9049715D02*
X-127929Y-8049715D01*
X-127929Y-8049715D02*
X253023Y-8049715D01*
X253023Y-8049715D02*
X348261Y-8097334D01*
X348261Y-8097334D02*
X395880Y-8144953D01*
X395880Y-8144953D02*
X443499Y-8240191D01*
X443499Y-8240191D02*
X443499Y-8383048D01*
X443499Y-8383048D02*
X395880Y-8478286D01*
X395880Y-8478286D02*
X348261Y-8525905D01*
X348261Y-8525905D02*
X253023Y-8573524D01*
X253023Y-8573524D02*
X-127929Y-8573524D01*
X1300642Y-8383048D02*
X1300642Y-9049715D01*
X1062547Y-8002096D02*
X824452Y-8716381D01*
X824452Y-8716381D02*
X1443499Y-8716381D01*
X8567595Y11983651D02*
X9377118Y11983651D01*
X9377118Y11983651D02*
X9472356Y12031270D01*
X9472356Y12031270D02*
X9519976Y12078889D01*
X9519976Y12078889D02*
X9567595Y12174127D01*
X9567595Y12174127D02*
X9567595Y12364603D01*
X9567595Y12364603D02*
X9519976Y12459841D01*
X9519976Y12459841D02*
X9472356Y12507460D01*
X9472356Y12507460D02*
X9377118Y12555079D01*
X9377118Y12555079D02*
X8567595Y12555079D01*
X8567595Y12936032D02*
X8567595Y13602698D01*
X8567595Y13602698D02*
X9567595Y13174127D01*
X9208747Y290775D02*
X9161128Y243155D01*
X9161128Y243155D02*
X9018271Y195536D01*
X9018271Y195536D02*
X8923033Y195536D01*
X8923033Y195536D02*
X8780176Y243155D01*
X8780176Y243155D02*
X8684938Y338394D01*
X8684938Y338394D02*
X8637319Y433632D01*
X8637319Y433632D02*
X8589700Y624108D01*
X8589700Y624108D02*
X8589700Y766965D01*
X8589700Y766965D02*
X8637319Y957441D01*
X8637319Y957441D02*
X8684938Y1052679D01*
X8684938Y1052679D02*
X8780176Y1147917D01*
X8780176Y1147917D02*
X8923033Y1195536D01*
X8923033Y1195536D02*
X9018271Y1195536D01*
X9018271Y1195536D02*
X9161128Y1147917D01*
X9161128Y1147917D02*
X9208747Y1100298D01*
X10161128Y195536D02*
X9589700Y195536D01*
X9875414Y195536D02*
X9875414Y1195536D01*
X9875414Y1195536D02*
X9780176Y1052679D01*
X9780176Y1052679D02*
X9684938Y957441D01*
X9684938Y957441D02*
X9589700Y909822D01*
X11113509Y195536D02*
X10542081Y195536D01*
X10827795Y195536D02*
X10827795Y1195536D01*
X10827795Y1195536D02*
X10732557Y1052679D01*
X10732557Y1052679D02*
X10637319Y957441D01*
X10637319Y957441D02*
X10542081Y909822D01*
X-17411215Y15557041D02*
X-17887406Y15223708D01*
X-17411215Y14985613D02*
X-18411215Y14985613D01*
X-18411215Y14985613D02*
X-18411215Y15366565D01*
X-18411215Y15366565D02*
X-18363596Y15461803D01*
X-18363596Y15461803D02*
X-18315977Y15509422D01*
X-18315977Y15509422D02*
X-18220739Y15557041D01*
X-18220739Y15557041D02*
X-18077882Y15557041D01*
X-18077882Y15557041D02*
X-17982644Y15509422D01*
X-17982644Y15509422D02*
X-17935025Y15461803D01*
X-17935025Y15461803D02*
X-17887406Y15366565D01*
X-17887406Y15366565D02*
X-17887406Y14985613D01*
X-17411215Y16509422D02*
X-17411215Y15937994D01*
X-17411215Y16223708D02*
X-18411215Y16223708D01*
X-18411215Y16223708D02*
X-18268358Y16128470D01*
X-18268358Y16128470D02*
X-18173120Y16033232D01*
X-18173120Y16033232D02*
X-18125501Y15937994D01*
X-18411215Y17414184D02*
X-18411215Y16937994D01*
X-18411215Y16937994D02*
X-17935025Y16890375D01*
X-17935025Y16890375D02*
X-17982644Y16937994D01*
X-17982644Y16937994D02*
X-18030263Y17033232D01*
X-18030263Y17033232D02*
X-18030263Y17271327D01*
X-18030263Y17271327D02*
X-17982644Y17366565D01*
X-17982644Y17366565D02*
X-17935025Y17414184D01*
X-17935025Y17414184D02*
X-17839787Y17461803D01*
X-17839787Y17461803D02*
X-17601692Y17461803D01*
X-17601692Y17461803D02*
X-17506454Y17414184D01*
X-17506454Y17414184D02*
X-17458834Y17366565D01*
X-17458834Y17366565D02*
X-17411215Y17271327D01*
X-17411215Y17271327D02*
X-17411215Y17033232D01*
X-17411215Y17033232D02*
X-17458834Y16937994D01*
X-17458834Y16937994D02*
X-17506454Y16890375D01*
X-15649866Y8551418D02*
X-16126057Y8218085D01*
X-15649866Y7979990D02*
X-16649866Y7979990D01*
X-16649866Y7979990D02*
X-16649866Y8360942D01*
X-16649866Y8360942D02*
X-16602247Y8456180D01*
X-16602247Y8456180D02*
X-16554628Y8503799D01*
X-16554628Y8503799D02*
X-16459390Y8551418D01*
X-16459390Y8551418D02*
X-16316533Y8551418D01*
X-16316533Y8551418D02*
X-16221295Y8503799D01*
X-16221295Y8503799D02*
X-16173676Y8456180D01*
X-16173676Y8456180D02*
X-16126057Y8360942D01*
X-16126057Y8360942D02*
X-16126057Y7979990D01*
X-15649866Y9503799D02*
X-15649866Y8932371D01*
X-15649866Y9218085D02*
X-16649866Y9218085D01*
X-16649866Y9218085D02*
X-16507009Y9122847D01*
X-16507009Y9122847D02*
X-16411771Y9027609D01*
X-16411771Y9027609D02*
X-16364152Y8932371D01*
X-16649866Y10360942D02*
X-16649866Y10170466D01*
X-16649866Y10170466D02*
X-16602247Y10075228D01*
X-16602247Y10075228D02*
X-16554628Y10027609D01*
X-16554628Y10027609D02*
X-16411771Y9932371D01*
X-16411771Y9932371D02*
X-16221295Y9884752D01*
X-16221295Y9884752D02*
X-15840343Y9884752D01*
X-15840343Y9884752D02*
X-15745105Y9932371D01*
X-15745105Y9932371D02*
X-15697485Y9979990D01*
X-15697485Y9979990D02*
X-15649866Y10075228D01*
X-15649866Y10075228D02*
X-15649866Y10265704D01*
X-15649866Y10265704D02*
X-15697485Y10360942D01*
X-15697485Y10360942D02*
X-15745105Y10408561D01*
X-15745105Y10408561D02*
X-15840343Y10456180D01*
X-15840343Y10456180D02*
X-16078438Y10456180D01*
X-16078438Y10456180D02*
X-16173676Y10408561D01*
X-16173676Y10408561D02*
X-16221295Y10360942D01*
X-16221295Y10360942D02*
X-16268914Y10265704D01*
X-16268914Y10265704D02*
X-16268914Y10075228D01*
X-16268914Y10075228D02*
X-16221295Y9979990D01*
X-16221295Y9979990D02*
X-16173676Y9932371D01*
X-16173676Y9932371D02*
X-16078438Y9884752D01*
X-5091253Y-8609225D02*
X-5138872Y-8656845D01*
X-5138872Y-8656845D02*
X-5281729Y-8704464D01*
X-5281729Y-8704464D02*
X-5376967Y-8704464D01*
X-5376967Y-8704464D02*
X-5519824Y-8656845D01*
X-5519824Y-8656845D02*
X-5615062Y-8561606D01*
X-5615062Y-8561606D02*
X-5662681Y-8466368D01*
X-5662681Y-8466368D02*
X-5710300Y-8275892D01*
X-5710300Y-8275892D02*
X-5710300Y-8133035D01*
X-5710300Y-8133035D02*
X-5662681Y-7942559D01*
X-5662681Y-7942559D02*
X-5615062Y-7847321D01*
X-5615062Y-7847321D02*
X-5519824Y-7752083D01*
X-5519824Y-7752083D02*
X-5376967Y-7704464D01*
X-5376967Y-7704464D02*
X-5281729Y-7704464D01*
X-5281729Y-7704464D02*
X-5138872Y-7752083D01*
X-5138872Y-7752083D02*
X-5091253Y-7799702D01*
X-4138872Y-8704464D02*
X-4710300Y-8704464D01*
X-4424586Y-8704464D02*
X-4424586Y-7704464D01*
X-4424586Y-7704464D02*
X-4519824Y-7847321D01*
X-4519824Y-7847321D02*
X-4615062Y-7942559D01*
X-4615062Y-7942559D02*
X-4710300Y-7990178D01*
X-3805538Y-7704464D02*
X-3186491Y-7704464D01*
X-3186491Y-7704464D02*
X-3519824Y-8085416D01*
X-3519824Y-8085416D02*
X-3376967Y-8085416D01*
X-3376967Y-8085416D02*
X-3281729Y-8133035D01*
X-3281729Y-8133035D02*
X-3234110Y-8180654D01*
X-3234110Y-8180654D02*
X-3186491Y-8275892D01*
X-3186491Y-8275892D02*
X-3186491Y-8513987D01*
X-3186491Y-8513987D02*
X-3234110Y-8609225D01*
X-3234110Y-8609225D02*
X-3281729Y-8656845D01*
X-3281729Y-8656845D02*
X-3376967Y-8704464D01*
X-3376967Y-8704464D02*
X-3662681Y-8704464D01*
X-3662681Y-8704464D02*
X-3757919Y-8656845D01*
X-3757919Y-8656845D02*
X-3805538Y-8609225D01*
D12*
%TO.C,C17*%
X-8740559Y-1789645D02*
X-8956231Y-1789645D01*
X-8740559Y-2509645D02*
X-8956231Y-2509645D01*
%TO.C,C2*%
X-4555559Y17580355D02*
X-4771231Y17580355D01*
X-4555559Y16860355D02*
X-4771231Y16860355D01*
%TO.C,U3*%
X-10573395Y15575355D02*
X-10573395Y15315355D01*
X-10573395Y15315355D02*
X-12248395Y15315355D01*
X-10573395Y10125355D02*
X-10573395Y10385355D01*
X-7848395Y15575355D02*
X-10573395Y15575355D01*
X-7848395Y15575355D02*
X-5123395Y15575355D01*
X-7848395Y10125355D02*
X-10573395Y10125355D01*
X-7848395Y10125355D02*
X-5123395Y10125355D01*
X-5123395Y15575355D02*
X-5123395Y15315355D01*
X-5123395Y10125355D02*
X-5123395Y10385355D01*
%TO.C,C4*%
X638769Y-10009645D02*
X854441Y-10009645D01*
X638769Y-10729645D02*
X854441Y-10729645D01*
%TO.C,C12*%
X-2208395Y8742519D02*
X-2208395Y8958191D01*
X-1488395Y8742519D02*
X-1488395Y8958191D01*
%TO.C,C16*%
X7048769Y-89645D02*
X7264441Y-89645D01*
X7048769Y-809645D02*
X7264441Y-809645D01*
%TO.C,C18*%
X6543769Y-4089645D02*
X6759441Y-4089645D01*
X6543769Y-4809645D02*
X6759441Y-4809645D01*
%TO.C,R7*%
X-1228395Y9003996D02*
X-1228395Y8696714D01*
X-468395Y9003996D02*
X-468395Y8696714D01*
%TO.C,C15*%
X-8740559Y3310355D02*
X-8956231Y3310355D01*
X-8740559Y2590355D02*
X-8956231Y2590355D01*
%TO.C,C3*%
X-2115559Y-10009645D02*
X-2331231Y-10009645D01*
X-2115559Y-10729645D02*
X-2331231Y-10729645D01*
%TO.C,R8*%
X-228395Y9003996D02*
X-228395Y8696714D01*
X531605Y9003996D02*
X531605Y8696714D01*
%TO.C,C20*%
X7043769Y4710355D02*
X7259441Y4710355D01*
X7043769Y3990355D02*
X7259441Y3990355D01*
%TO.C,R2*%
X-1028395Y-8101004D02*
X-1028395Y-8408286D01*
X-268395Y-8101004D02*
X-268395Y-8408286D01*
%TO.C,Y1*%
X-2848395Y-12299645D02*
X-2848395Y-15599645D01*
X-2848395Y-15599645D02*
X1151605Y-15599645D01*
%TO.C,R12*%
X846359Y22380000D02*
X1153641Y22380000D01*
X846359Y21620000D02*
X1153641Y21620000D01*
D13*
%TO.C,CN1*%
X11710000Y24100000D02*
X11710000Y23150000D01*
X11710000Y24100000D02*
X15930000Y24100000D01*
X11710000Y23150000D02*
X13280000Y23150000D01*
X11710000Y17150000D02*
X11710000Y16200000D01*
X11710000Y16200000D02*
X15930000Y16200000D01*
X13280000Y23150000D02*
X13280000Y21880000D01*
X13280000Y20420000D02*
X13280000Y19880000D01*
X13290000Y18420000D02*
X13290000Y17150000D01*
X13290000Y17150000D02*
X11710000Y17150000D01*
X19310000Y22550000D02*
X19310000Y17750000D01*
D12*
%TO.C,C33*%
X5738748Y23235000D02*
X6261252Y23235000D01*
X5738748Y21765000D02*
X6261252Y21765000D01*
%TO.C,R3*%
X3971605Y8553996D02*
X3971605Y8246714D01*
X4731605Y8553996D02*
X4731605Y8246714D01*
D10*
%TO.C,D1*%
X7510000Y21150000D02*
X2000000Y21150000D01*
X7510000Y17850000D02*
X2000000Y17850000D01*
X7510000Y17850000D02*
X7510000Y21150000D01*
D12*
%TO.C,R17*%
X-16314685Y9040634D02*
X-16314685Y9347916D01*
X-15554685Y9040634D02*
X-15554685Y9347916D01*
%TO.C,C25*%
X-2627836Y-16640000D02*
X-2412164Y-16640000D01*
X-2627836Y-17360000D02*
X-2412164Y-17360000D01*
%TO.C,C24*%
X-2811252Y-17765000D02*
X-2288748Y-17765000D01*
X-2811252Y-19235000D02*
X-2288748Y-19235000D01*
%TO.C,C9*%
X3991605Y6658191D02*
X3991605Y6442519D01*
X4711605Y6658191D02*
X4711605Y6442519D01*
%TO.C,C31*%
X-22835108Y892164D02*
X-22835108Y1107836D01*
X-22115108Y892164D02*
X-22115108Y1107836D01*
%TO.C,C14*%
X-5196731Y7409828D02*
X-5349234Y7562331D01*
X-4687614Y7918945D02*
X-4840117Y8071448D01*
%TO.C,C19*%
X8765000Y12238748D02*
X8765000Y12761252D01*
X10235000Y12238748D02*
X10235000Y12761252D01*
%TO.C,SW1*%
X-9173395Y22325355D02*
X-9173395Y17925355D01*
X-7473395Y22325355D02*
X-7373395Y22325355D01*
X-7473395Y17925355D02*
X-7373395Y17925355D01*
X-5673395Y17925355D02*
X-5673395Y22325355D01*
%TO.C,C30*%
X-21835108Y892164D02*
X-21835108Y1107836D01*
X-21115108Y892164D02*
X-21115108Y1107836D01*
D14*
%TO.C,R1*%
X-17195917Y864455D02*
X-17195917Y146421D01*
X-17195917Y-1024039D02*
X-17195917Y-306005D01*
X-16198711Y864455D02*
X-17195917Y864455D01*
X-16198711Y146421D02*
X-16198711Y864455D01*
X-16198711Y-306005D02*
X-16198711Y-1024039D01*
X-16198711Y-1024039D02*
X-17195917Y-1024039D01*
D15*
X-16417406Y-579665D02*
G75*
G02*
X-16477350Y-579665I-29972J0D01*
G01*
X-16477350Y-579665D02*
G75*
G02*
X-16417406Y-579665I29972J0D01*
G01*
D12*
%TO.C,SW2*%
X4300000Y-7450000D02*
X4300000Y-7550000D01*
X4300000Y-9250000D02*
X8700000Y-9250000D01*
X8700000Y-5750000D02*
X4300000Y-5750000D01*
X8700000Y-7450000D02*
X8700000Y-7550000D01*
D13*
%TO.C,U5*%
X-4748395Y31360355D02*
X-4748395Y29670355D01*
X-4748395Y31360355D02*
X4251605Y31360355D01*
X-4748395Y27650355D02*
X-4748395Y25640355D01*
X4251605Y31360355D02*
X4251605Y29670355D01*
X4251605Y27650355D02*
X4251605Y25640355D01*
D12*
%TO.C,C1*%
X-16633839Y1705231D02*
X-16849511Y1705231D01*
X-16633839Y985231D02*
X-16849511Y985231D01*
%TO.C,R13*%
X7620000Y12336359D02*
X7620000Y12643641D01*
X8380000Y12336359D02*
X8380000Y12643641D01*
%TO.C,R26*%
X-21373257Y-4830892D02*
X-21373257Y-5138174D01*
X-20613257Y-4830892D02*
X-20613257Y-5138174D01*
D16*
%TO.C,L2*%
X5900000Y10600000D02*
X10100000Y10600000D01*
X5900000Y10575591D02*
X5900000Y10600000D01*
X5900000Y6400000D02*
X5900000Y6424384D01*
X10100000Y10600000D02*
X10100000Y10575591D01*
X10100000Y6424384D02*
X10100000Y6400000D01*
X10100000Y6400000D02*
X5900000Y6400000D01*
D12*
%TO.C,R10*%
X-13653641Y15134573D02*
X-13346359Y15134573D01*
X-13653641Y14374573D02*
X-13346359Y14374573D01*
%TO.C,C22*%
X2801253Y16715000D02*
X2278747Y16715000D01*
X2801253Y15245000D02*
X2278747Y15245000D01*
%TO.C,R6*%
X-13653641Y16380000D02*
X-13346359Y16380000D01*
X-13653641Y15620000D02*
X-13346359Y15620000D01*
%TO.C,C10*%
X191605Y-8141809D02*
X191605Y-8357481D01*
X911605Y-8141809D02*
X911605Y-8357481D01*
%TO.C,R11*%
X-15212370Y-956050D02*
X-15519652Y-956050D01*
X-15212370Y-1716050D02*
X-15519652Y-1716050D01*
%TO.C,R25*%
X-23355108Y-4842441D02*
X-23355108Y-5149723D01*
X-22595108Y-4842441D02*
X-22595108Y-5149723D01*
D16*
%TO.C,U9*%
X-23218488Y11219862D02*
X-23218488Y7319888D01*
X-18958543Y12219862D02*
X-21558493Y12219862D01*
X-18958543Y11139928D02*
X-18958543Y12219862D01*
X-18958543Y7159893D02*
X-18958543Y6239878D01*
X-18958543Y6239878D02*
X-21565325Y6239878D01*
X-19321129Y11699263D02*
G75*
G02*
X-19571065Y11699263I-124968J0D01*
G01*
X-19571065Y11699263D02*
G75*
G02*
X-19321129Y11699263I124968J0D01*
G01*
D15*
X-18273428Y12199898D02*
G75*
G02*
X-18333422Y12199898I-29997J0D01*
G01*
X-18333422Y12199898D02*
G75*
G02*
X-18273428Y12199898I29997J0D01*
G01*
D16*
%TO.C,U10*%
X-23218488Y18219862D02*
X-23218488Y14319888D01*
X-18958543Y19219862D02*
X-21558493Y19219862D01*
X-18958543Y18139928D02*
X-18958543Y19219862D01*
X-18958543Y14159893D02*
X-18958543Y13239878D01*
X-18958543Y13239878D02*
X-21565325Y13239878D01*
X-19321129Y18699263D02*
G75*
G02*
X-19571065Y18699263I-124968J0D01*
G01*
X-19571065Y18699263D02*
G75*
G02*
X-19321129Y18699263I124968J0D01*
G01*
D15*
X-18273428Y19199898D02*
G75*
G02*
X-18333422Y19199898I-29997J0D01*
G01*
X-18333422Y19199898D02*
G75*
G02*
X-18273428Y19199898I29997J0D01*
G01*
D16*
%TO.C,U4*%
X-3704075Y-22850524D02*
X-3704075Y-25148314D01*
X-3704075Y-25148289D02*
X-3704075Y-24929416D01*
X-3704075Y-32115294D02*
X2391937Y-31443996D01*
X-3704075Y-33167593D02*
X2391937Y-32278591D01*
X-3704075Y-34074730D02*
X2391937Y-33131296D01*
X-3704075Y-36064443D02*
X-3704075Y-27930559D01*
X-1804964Y-27047425D02*
X492826Y-27047425D01*
X492826Y-20951413D02*
X-1804964Y-20951413D01*
X2391937Y-24959668D02*
X2391937Y-25148289D01*
X2391937Y-25148314D02*
X2391937Y-22850524D01*
X2391937Y-27930559D02*
X2391937Y-36064443D01*
X2391937Y-31443996D02*
X-3704075Y-31389589D01*
X2391937Y-32242294D02*
X-3704075Y-32187862D01*
X2391937Y-33076864D02*
X-3704075Y-33185728D01*
X2391937Y-34147298D02*
X-3704075Y-34165434D01*
X2391937Y-36064443D02*
X-3704075Y-36064443D01*
D15*
X2373903Y-36009325D02*
G75*
G02*
X2313959Y-36009325I-29972J0D01*
G01*
X2313959Y-36009325D02*
G75*
G02*
X2373903Y-36009325I29972J0D01*
G01*
D12*
%TO.C,U1*%
X-5998395Y-5099645D02*
X-5998395Y-4149645D01*
X-5048395Y5200355D02*
X-6238395Y5200355D01*
X-5048395Y-5099645D02*
X-5998395Y-5099645D01*
X3351605Y5200355D02*
X4301605Y5200355D01*
X3351605Y-5099645D02*
X4301605Y-5099645D01*
X4301605Y5200355D02*
X4301605Y4250355D01*
X4301605Y-5099645D02*
X4301605Y-4149645D01*
%TO.C,C5*%
X-14068198Y2943965D02*
X-14283870Y2943965D01*
X-14068198Y2223965D02*
X-14283870Y2223965D01*
%TO.C,L1*%
D17*
X1347315Y10000355D02*
G75*
G02*
X1155895Y10000355I-95710J0D01*
G01*
X1155895Y10000355D02*
G75*
G02*
X1347315Y10000355I95710J0D01*
G01*
D12*
%TO.C,C8*%
X-8740559Y610355D02*
X-8956231Y610355D01*
X-8740559Y-109645D02*
X-8956231Y-109645D01*
%TO.C,R14*%
X-16076034Y16046257D02*
X-16076034Y16353539D01*
X-15316034Y16046257D02*
X-15316034Y16353539D01*
D14*
%TO.C,U8*%
X-23301295Y-3326187D02*
X-23301295Y-673813D01*
X-20648921Y-3326187D02*
X-20648921Y-673813D01*
D15*
X-23195072Y-750064D02*
G75*
G02*
X-23255016Y-750064I-29972J0D01*
G01*
X-23255016Y-750064D02*
G75*
G02*
X-23195072Y-750064I29972J0D01*
G01*
D11*
X-22713996Y-2000000D02*
G75*
G02*
X-23014224Y-2000000I-150114J0D01*
G01*
X-23014224Y-2000000D02*
G75*
G02*
X-22713996Y-2000000I150114J0D01*
G01*
D18*
X-20859030Y-2508001D02*
G75*
G02*
X-21059182Y-2508001I-100076J0D01*
G01*
X-21059182Y-2508001D02*
G75*
G02*
X-20859030Y-2508001I100076J0D01*
G01*
D14*
%TO.C,U2*%
X-15772285Y1910254D02*
X-15772285Y1664559D01*
X-15772285Y-742121D02*
X-15772285Y-496426D01*
X-15026590Y1910254D02*
X-15772285Y1910254D01*
X-15026590Y-742121D02*
X-15772285Y-742121D01*
X-13365529Y1910254D02*
X-12619834Y1910254D01*
X-13365529Y-742121D02*
X-12619834Y-742121D01*
X-12619834Y1910254D02*
X-12619834Y1664559D01*
X-12619834Y-742121D02*
X-12619834Y-496426D01*
D15*
X-12666062Y-665946D02*
G75*
G02*
X-12726056Y-665946I-29997J0D01*
G01*
X-12726056Y-665946D02*
G75*
G02*
X-12666062Y-665946I29997J0D01*
G01*
D19*
X-12391081Y-156040D02*
G75*
G02*
X-12540941Y-156040I-74930J0D01*
G01*
X-12540941Y-156040D02*
G75*
G02*
X-12391081Y-156040I74930J0D01*
G01*
D12*
%TO.C,C21*%
X-5440559Y-6289645D02*
X-5656231Y-6289645D01*
X-5440559Y-7009645D02*
X-5656231Y-7009645D01*
%TO.C,R9*%
X-13019652Y-956050D02*
X-12712370Y-956050D01*
X-13019652Y-1716050D02*
X-12712370Y-1716050D01*
%TO.C,R24*%
X-22355108Y-4846359D02*
X-22355108Y-5153641D01*
X-21595108Y-4846359D02*
X-21595108Y-5153641D01*
D16*
%TO.C,U6*%
X-22001041Y-8490958D02*
X-22001041Y-9168860D01*
X-22001041Y-8490958D02*
X-5999009Y-8490958D01*
X-22001041Y-10831140D02*
X-22001041Y-11168860D01*
X-22001041Y-12831140D02*
X-22001041Y-13168860D01*
X-22001041Y-14831140D02*
X-22001041Y-15168860D01*
X-22001041Y-16831140D02*
X-22001041Y-17168860D01*
X-22001041Y-18831140D02*
X-22001041Y-19168860D01*
X-22001041Y-20831140D02*
X-22001041Y-21168860D01*
X-22001041Y-22831140D02*
X-22001041Y-23168860D01*
X-22001041Y-24831140D02*
X-22001041Y-25508992D01*
X-5999009Y-9168860D02*
X-5999009Y-8490958D01*
X-5999009Y-11168860D02*
X-5999009Y-10831140D01*
X-5999009Y-13168860D02*
X-5999009Y-12831140D01*
X-5999009Y-15168860D02*
X-5999009Y-14831140D01*
X-5999009Y-17168860D02*
X-5999009Y-16831140D01*
X-5999009Y-19168860D02*
X-5999009Y-18831140D01*
X-5999009Y-21168860D02*
X-5999009Y-20831140D01*
X-5999009Y-23168860D02*
X-5999009Y-22831140D01*
X-5999009Y-25508992D02*
X-22001041Y-25508992D01*
X-5999009Y-25508992D02*
X-5999009Y-24831140D01*
D15*
X-5970003Y-25500000D02*
G75*
G02*
X-6029997Y-25500000I-29997J0D01*
G01*
X-6029997Y-25500000D02*
G75*
G02*
X-5970003Y-25500000I29997J0D01*
G01*
D16*
X-4855981Y-25255017D02*
G75*
G02*
X-5617983Y-25255017I-381001J0D01*
G01*
X-5617983Y-25255017D02*
G75*
G02*
X-4855981Y-25255017I381001J0D01*
G01*
D12*
%TO.C,R4*%
X2763807Y-8214896D02*
X2456525Y-8214896D01*
X2763807Y-8974896D02*
X2456525Y-8974896D01*
D20*
%TO.C,U7*%
X4990043Y13790069D02*
X4990043Y11691009D01*
X7112776Y11700026D02*
X7112776Y13800102D01*
D15*
X7080010Y13750064D02*
G75*
G02*
X7020066Y13750064I-29972J0D01*
G01*
X7020066Y13750064D02*
G75*
G02*
X7080010Y13750064I29972J0D01*
G01*
D16*
X7269240Y14147067D02*
G75*
G02*
X7116840Y14147067I-76200J0D01*
G01*
X7116840Y14147067D02*
G75*
G02*
X7269240Y14147067I76200J0D01*
G01*
D12*
%TO.C,C11*%
X7043769Y910355D02*
X7259441Y910355D01*
X7043769Y190355D02*
X7259441Y190355D01*
%TO.C,R15*%
X-17076034Y16046257D02*
X-17076034Y16353539D01*
X-16316034Y16046257D02*
X-16316034Y16353539D01*
%TO.C,R16*%
X-15314685Y9040634D02*
X-15314685Y9347916D01*
X-14554685Y9040634D02*
X-14554685Y9347916D01*
D10*
%TO.C,D2*%
X4540000Y17620000D02*
X4540000Y14320000D01*
X4540000Y17620000D02*
X10050000Y17620000D01*
X4540000Y14320000D02*
X10050000Y14320000D01*
D12*
%TO.C,C13*%
X-2508395Y-8141809D02*
X-2508395Y-8357481D01*
X-1788395Y-8141809D02*
X-1788395Y-8357481D01*
%TD*%
%LPC*%
D18*
G36*
X12352302Y-18760219D02*
G01*
X16080425Y-18760219D01*
X16351172Y-18748324D01*
X16608093Y-18711951D01*
X16829599Y-18656359D01*
X17036849Y-18578630D01*
X17215174Y-18486082D01*
X17379114Y-18373190D01*
X17520526Y-18246603D01*
X17647173Y-18100571D01*
X17755820Y-17938578D01*
X17848716Y-17757002D01*
X17984343Y-17331414D01*
X18047137Y-16807768D01*
X18050000Y-16656922D01*
X18050000Y-14385464D01*
X17035537Y-14385464D01*
X17035537Y-16597937D01*
X17024080Y-16836698D01*
X16990774Y-17042752D01*
X16941071Y-17208084D01*
X16874855Y-17347893D01*
X16796494Y-17460154D01*
X16705160Y-17551532D01*
X16483291Y-17679270D01*
X16196072Y-17740469D01*
X16071999Y-17745390D01*
X12352302Y-17745390D01*
X12352302Y-18760219D01*
G37*
G36*
X12352302Y-14907166D02*
G01*
X15595725Y-12611528D01*
X18050000Y-12611528D01*
X18050000Y-11588639D01*
X15595725Y-11588639D01*
X12352302Y-9292634D01*
X12352302Y-10497606D01*
X14772505Y-12095687D01*
X12352302Y-13677281D01*
X12352302Y-14907166D01*
G37*
G36*
X12352302Y-8547815D02*
G01*
X13367131Y-8547815D01*
X13367131Y-5428224D01*
X13378514Y-5264308D01*
X13411296Y-5120892D01*
X13462050Y-5000082D01*
X13529379Y-4897956D01*
X13708654Y-4746543D01*
X13946304Y-4663698D01*
X14104989Y-4650432D01*
X14262648Y-4662420D01*
X14412970Y-4699440D01*
X14537347Y-4755190D01*
X14648196Y-4833462D01*
X14733216Y-4923852D01*
X14801814Y-5034137D01*
X14849205Y-5157426D01*
X14877383Y-5299928D01*
X14884612Y-5428224D01*
X14884612Y-7637400D01*
X14896530Y-7849470D01*
X14933058Y-8031529D01*
X14983848Y-8162325D01*
X15053666Y-8272829D01*
X15135205Y-8356901D01*
X15233945Y-8424614D01*
X15490644Y-8513515D01*
X15795394Y-8539389D01*
X18050000Y-8539389D01*
X18050000Y-7524926D01*
X15988468Y-7524926D01*
X15918008Y-7513163D01*
X15875916Y-7477713D01*
X15857309Y-7393768D01*
X15857309Y-5922083D01*
X18050000Y-4628450D01*
X18050000Y-3500781D01*
X15777442Y-4822623D01*
X15711799Y-4631769D01*
X15628738Y-4459241D01*
X15411729Y-4161594D01*
X15129614Y-3925358D01*
X14783980Y-3752266D01*
X14380968Y-3650245D01*
X14062857Y-3627177D01*
X13835286Y-3639007D01*
X13615033Y-3674927D01*
X13415851Y-3731579D01*
X13227445Y-3810852D01*
X13061767Y-3906639D01*
X12909186Y-4023406D01*
X12777703Y-4154439D01*
X12661124Y-4305275D01*
X12563616Y-4471013D01*
X12482907Y-4656136D01*
X12420819Y-4859121D01*
X12377890Y-5081852D01*
X12352302Y-5461929D01*
X12352302Y-8547815D01*
G37*
G36*
X13484368Y-151479D02*
G01*
X13396994Y-100393D01*
X13338458Y-35650D01*
X13298690Y115332D01*
X13298621Y123294D01*
X13310759Y219042D01*
X13348828Y296318D01*
X13477925Y386963D01*
X13484002Y389275D01*
X18050000Y2114484D01*
X18050000Y3239589D01*
X12997103Y1318741D01*
X12825482Y1240834D01*
X12678915Y1147735D01*
X12563039Y1046363D01*
X12467338Y931444D01*
X12332951Y661449D01*
X12265661Y314010D01*
X12258513Y131721D01*
X12270559Y-104703D01*
X12307989Y-317916D01*
X12361597Y-482152D01*
X12436398Y-629961D01*
X12525235Y-751962D01*
X12634086Y-860399D01*
X12913370Y-1036325D01*
X12996737Y-1072152D01*
X18050000Y-3069204D01*
X18050000Y-1951793D01*
X13484368Y-151479D01*
G37*
D11*
G36*
X10779087Y-17713528D02*
G01*
X10913012Y-17731949D01*
X11022195Y-17767983D01*
X11110042Y-17819634D01*
X11146912Y-17851219D01*
X11179089Y-17886470D01*
X11207195Y-17926236D01*
X11230415Y-17969579D01*
X11249478Y-18018549D01*
X11263244Y-18071122D01*
X11272065Y-18130505D01*
X11275000Y-18193565D01*
X11275000Y-18500120D01*
X11268269Y-18590708D01*
X11242882Y-18683734D01*
X11199958Y-18759339D01*
X11171502Y-18791763D01*
X11138453Y-18820350D01*
X11099139Y-18846009D01*
X11054819Y-18867433D01*
X11002047Y-18885567D01*
X10943556Y-18898800D01*
X10874071Y-18907526D01*
X10797902Y-18910448D01*
X9680399Y-18910448D01*
X9680399Y-18682020D01*
X10161252Y-18682020D01*
X10161252Y-18216646D01*
X10381345Y-18216646D01*
X10381345Y-18682020D01*
X10787369Y-18682020D01*
X10808020Y-18681731D01*
X10901812Y-18670245D01*
X10965788Y-18644360D01*
X10990400Y-18625823D01*
X11010739Y-18603206D01*
X11028139Y-18573813D01*
X11040808Y-18539180D01*
X11049915Y-18491102D01*
X11052891Y-18434999D01*
X11052891Y-18216646D01*
X11049831Y-18161363D01*
X11030968Y-18084887D01*
X10995722Y-18027712D01*
X10970436Y-18004046D01*
X10940168Y-17984361D01*
X10900371Y-17966997D01*
X10853977Y-17954333D01*
X10790904Y-17945296D01*
X10718126Y-17942330D01*
X10633592Y-17946429D01*
X10538640Y-17965914D01*
X10471747Y-17998963D01*
X10445799Y-18020880D01*
X10424421Y-18046592D01*
X10406426Y-18078485D01*
X10393386Y-18114947D01*
X10384316Y-18162630D01*
X10381345Y-18216646D01*
X10161252Y-18216646D01*
X10161252Y-18193565D01*
X10163072Y-18143614D01*
X10181854Y-18034803D01*
X10219329Y-17942923D01*
X10274861Y-17866042D01*
X10309840Y-17832737D01*
X10349554Y-17803199D01*
X10395249Y-17776935D01*
X10445967Y-17754909D01*
X10504033Y-17736653D01*
X10567563Y-17723283D01*
X10639837Y-17714697D01*
X10718126Y-17711796D01*
X10779087Y-17713528D01*
G37*
G36*
X10161252Y-16570479D02*
G01*
X11032466Y-16946369D01*
X11032466Y-16973846D01*
X11027374Y-17011747D01*
X11018577Y-17023020D01*
X11003451Y-17032053D01*
X10988136Y-17038235D01*
X10161252Y-17372909D01*
X10161252Y-17614434D01*
X11097313Y-17241201D01*
X11146486Y-17218363D01*
X11184250Y-17191130D01*
X11203748Y-17168637D01*
X11218434Y-17141918D01*
X11233923Y-17074812D01*
X11235615Y-17035029D01*
X11720498Y-17242941D01*
X11720498Y-16997110D01*
X10161252Y-16326755D01*
X10161252Y-16570479D01*
G37*
G36*
X10133592Y-14966720D02*
G01*
X10111748Y-14953948D01*
X10097114Y-14937762D01*
X10087172Y-14900017D01*
X10087155Y-14898026D01*
X10090189Y-14874089D01*
X10099707Y-14854770D01*
X10131981Y-14832109D01*
X10133500Y-14831531D01*
X11275000Y-14400229D01*
X11275000Y-14118953D01*
X10011775Y-14599165D01*
X9968870Y-14618641D01*
X9932228Y-14641916D01*
X9903259Y-14667259D01*
X9879334Y-14695989D01*
X9845737Y-14763488D01*
X9828915Y-14850347D01*
X9827128Y-14895920D01*
X9830139Y-14955026D01*
X9839497Y-15008329D01*
X9852899Y-15049388D01*
X9871599Y-15086340D01*
X9893808Y-15116841D01*
X9921021Y-15143950D01*
X9990842Y-15187931D01*
X10011684Y-15196888D01*
X11275000Y-15696151D01*
X11275000Y-15416798D01*
X10133592Y-14966720D01*
G37*
G36*
X10161252Y-13941999D02*
G01*
X10381345Y-13941999D01*
X10381345Y-13178862D01*
X10384252Y-13146306D01*
X10392878Y-13122137D01*
X10404057Y-13108353D01*
X10418873Y-13099681D01*
X10443444Y-13095697D01*
X10468160Y-13099138D01*
X10491311Y-13111498D01*
X10505708Y-13127426D01*
X10517518Y-13150535D01*
X10518274Y-13152575D01*
X10746885Y-13790965D01*
X10765118Y-13832996D01*
X10787374Y-13869703D01*
X10812802Y-13900526D01*
X10841575Y-13926335D01*
X10908376Y-13963180D01*
X10988152Y-13980606D01*
X11018087Y-13981841D01*
X11063145Y-13978910D01*
X11104728Y-13970117D01*
X11140217Y-13956580D01*
X11172136Y-13937909D01*
X11199105Y-13915232D01*
X11222347Y-13887854D01*
X11256567Y-13819569D01*
X11273666Y-13730273D01*
X11275000Y-13693329D01*
X11275000Y-12900792D01*
X11054998Y-12900792D01*
X11054998Y-13680689D01*
X11052121Y-13710966D01*
X11043708Y-13733989D01*
X11032357Y-13748104D01*
X11017392Y-13757216D01*
X10990792Y-13761839D01*
X10969392Y-13758938D01*
X10951068Y-13750355D01*
X10923988Y-13718188D01*
X10918069Y-13704961D01*
X10687351Y-13068586D01*
X10668634Y-13025721D01*
X10645182Y-12987442D01*
X10619116Y-12956331D01*
X10588942Y-12929898D01*
X10556438Y-12909418D01*
X10520209Y-12893773D01*
X10480954Y-12883389D01*
X10438087Y-12878243D01*
X10418257Y-12877711D01*
X10372735Y-12880648D01*
X10330757Y-12889488D01*
X10295218Y-12903023D01*
X10263276Y-12921718D01*
X10236445Y-12944343D01*
X10213334Y-12971702D01*
X10179417Y-13039984D01*
X10162531Y-13129697D01*
X10161252Y-13166222D01*
X10161252Y-13941999D01*
G37*
G36*
X9679483Y-12619241D02*
G01*
X11275000Y-12619241D01*
X11275000Y-12390812D01*
X9679483Y-12390812D01*
X9679483Y-12619241D01*
G37*
G36*
X11132227Y-10982074D02*
G01*
X11193022Y-11000934D01*
X11215631Y-11015685D01*
X11234393Y-11034756D01*
X11250786Y-11061330D01*
X11262823Y-11094265D01*
X11272012Y-11145284D01*
X11275000Y-11208280D01*
X11275000Y-11726960D01*
X11274895Y-11739807D01*
X11262872Y-11853824D01*
X11233534Y-11941313D01*
X11212998Y-11977017D01*
X11188623Y-12007978D01*
X11159644Y-12035029D01*
X11126873Y-12057293D01*
X11087519Y-12076053D01*
X11044112Y-12089563D01*
X10991374Y-12098602D01*
X10934098Y-12101568D01*
X10925220Y-12101501D01*
X10829881Y-12090483D01*
X10756091Y-12062412D01*
X10698260Y-12017272D01*
X10674133Y-11986899D01*
X10653807Y-11951319D01*
X10636459Y-11907486D01*
X10623663Y-11857283D01*
X10615059Y-11795137D01*
X10612155Y-11724854D01*
X10612155Y-11720641D01*
X10794330Y-11720641D01*
X10799822Y-11781652D01*
X10820289Y-11833102D01*
X10836582Y-11851436D01*
X10856562Y-11864572D01*
X10886433Y-11874290D01*
X10921550Y-11877353D01*
X10972284Y-11870269D01*
X11013625Y-11846229D01*
X11029599Y-11826494D01*
X11041609Y-11801389D01*
X11050015Y-11766818D01*
X11052891Y-11724854D01*
X11052891Y-11258655D01*
X11052195Y-11244088D01*
X11040973Y-11214064D01*
X11024222Y-11203817D01*
X10999127Y-11200678D01*
X10794330Y-11200678D01*
X10794330Y-11720641D01*
X10612155Y-11720641D01*
X10612155Y-11200678D01*
X10531280Y-11200678D01*
X10520438Y-11200941D01*
X10463179Y-11213304D01*
X10420856Y-11242921D01*
X10404663Y-11264998D01*
X10392404Y-11292227D01*
X10384193Y-11326869D01*
X10381345Y-11367832D01*
X10381345Y-12034432D01*
X10161252Y-12034432D01*
X10161252Y-11365725D01*
X10161879Y-11335808D01*
X10177111Y-11226535D01*
X10191592Y-11180782D01*
X10210344Y-11140053D01*
X10233400Y-11103818D01*
X10260305Y-11072435D01*
X10292401Y-11044557D01*
X10328145Y-11021698D01*
X10370685Y-11002386D01*
X10416774Y-10988570D01*
X10471307Y-10979442D01*
X10529173Y-10976463D01*
X11049502Y-10976463D01*
X11132227Y-10982074D01*
G37*
G36*
X10161252Y-10508891D02*
G01*
X10164331Y-10554980D01*
X10174157Y-10592532D01*
X10186706Y-10615653D01*
X10204068Y-10634256D01*
X10251026Y-10657628D01*
X10327338Y-10667176D01*
X10336466Y-10667252D01*
X11275000Y-10667252D01*
X11275000Y-10438824D01*
X10409922Y-10438824D01*
X10392030Y-10435691D01*
X10382946Y-10425489D01*
X10381345Y-10414460D01*
X10381345Y-10051119D01*
X10384259Y-9984593D01*
X10392927Y-9926066D01*
X10405670Y-9879745D01*
X10422975Y-9839663D01*
X10443050Y-9807906D01*
X10466923Y-9781261D01*
X10524033Y-9743582D01*
X10597411Y-9723489D01*
X10649066Y-9720200D01*
X11275000Y-9720200D01*
X11275000Y-9489574D01*
X10649066Y-9489574D01*
X10583960Y-9492508D01*
X10523023Y-9501323D01*
X10469621Y-9514997D01*
X10420117Y-9533905D01*
X10376590Y-9556853D01*
X10336797Y-9584599D01*
X10301617Y-9616344D01*
X10270166Y-9652692D01*
X10218664Y-9739501D01*
X10182447Y-9847968D01*
X10163389Y-9982075D01*
X10161252Y-10051119D01*
X10161252Y-10508891D01*
G37*
G36*
X9387491Y-8042527D02*
G01*
X9390447Y-8123078D01*
X9399417Y-8196594D01*
X9412764Y-8256957D01*
X9431222Y-8311954D01*
X9453058Y-8358404D01*
X9479493Y-8400488D01*
X9509482Y-8437118D01*
X9543927Y-8469909D01*
X9627244Y-8524824D01*
X9735106Y-8567196D01*
X9876311Y-8596768D01*
X10063872Y-8611439D01*
X10135149Y-8612406D01*
X11084307Y-8612406D01*
X11206592Y-8609409D01*
X11317045Y-8600149D01*
X11402463Y-8586935D01*
X11479574Y-8568581D01*
X11541238Y-8547765D01*
X11596606Y-8522520D01*
X11642006Y-8495287D01*
X11682295Y-8464034D01*
X11716061Y-8430335D01*
X11745339Y-8392733D01*
X11790611Y-8305718D01*
X11819778Y-8197602D01*
X11831738Y-8060399D01*
X11831873Y-8042527D01*
X11831873Y-8008088D01*
X11672780Y-8008088D01*
X11672780Y-8042527D01*
X11669753Y-8116051D01*
X11660293Y-8181225D01*
X11647137Y-8229257D01*
X11628824Y-8271989D01*
X11607636Y-8306118D01*
X11581757Y-8336265D01*
X11517063Y-8384071D01*
X11427817Y-8419680D01*
X11301738Y-8443526D01*
X11103266Y-8453312D01*
X10116189Y-8453312D01*
X9998400Y-8450290D01*
X9896461Y-8440856D01*
X9824840Y-8428121D01*
X9762603Y-8410517D01*
X9715922Y-8391107D01*
X9675630Y-8367633D01*
X9644007Y-8342341D01*
X9617282Y-8313317D01*
X9578121Y-8244797D01*
X9554407Y-8155093D01*
X9546676Y-8042527D01*
X9546676Y-8008088D01*
X9387491Y-8008088D01*
X9387491Y-8042527D01*
G37*
G36*
X10161252Y-7638060D02*
G01*
X10164331Y-7684150D01*
X10174157Y-7721702D01*
X10186706Y-7744822D01*
X10204068Y-7763426D01*
X10251026Y-7786797D01*
X10327338Y-7796345D01*
X10336466Y-7796421D01*
X11275000Y-7796421D01*
X11275000Y-7567993D01*
X10409922Y-7567993D01*
X10392030Y-7564861D01*
X10382946Y-7554658D01*
X10381345Y-7543630D01*
X10381345Y-6983734D01*
X11275000Y-6983734D01*
X11275000Y-6753199D01*
X10381345Y-6753199D01*
X10381345Y-6495737D01*
X10384259Y-6429209D01*
X10392927Y-6370674D01*
X10405671Y-6324341D01*
X10422978Y-6284245D01*
X10443054Y-6252476D01*
X10466930Y-6225819D01*
X10524041Y-6188122D01*
X10597408Y-6168018D01*
X10649066Y-6164726D01*
X11275000Y-6164726D01*
X11275000Y-5934192D01*
X10649066Y-5934192D01*
X10584300Y-5937124D01*
X10523660Y-5945927D01*
X10470394Y-5959605D01*
X10420998Y-5978513D01*
X10377476Y-6001493D01*
X10337672Y-6029268D01*
X10302424Y-6061079D01*
X10270900Y-6097490D01*
X10219196Y-6184468D01*
X10182763Y-6293082D01*
X10163490Y-6427207D01*
X10161252Y-6497843D01*
X10161252Y-7638060D01*
G37*
G36*
X11132227Y-4534063D02*
G01*
X11193022Y-4552922D01*
X11215631Y-4567674D01*
X11234393Y-4586744D01*
X11250786Y-4613319D01*
X11262823Y-4646254D01*
X11272012Y-4697273D01*
X11275000Y-4760269D01*
X11275000Y-5278949D01*
X11274895Y-5291796D01*
X11262872Y-5405813D01*
X11233534Y-5493302D01*
X11212998Y-5529006D01*
X11188623Y-5559967D01*
X11159644Y-5587018D01*
X11126873Y-5609282D01*
X11087519Y-5628042D01*
X11044112Y-5641552D01*
X10991374Y-5650591D01*
X10934098Y-5653557D01*
X10925220Y-5653490D01*
X10829881Y-5642472D01*
X10756091Y-5614401D01*
X10698260Y-5569261D01*
X10674133Y-5538888D01*
X10653807Y-5503308D01*
X10636459Y-5459475D01*
X10623663Y-5409272D01*
X10615059Y-5347126D01*
X10612155Y-5276843D01*
X10612155Y-5272629D01*
X10794330Y-5272629D01*
X10799822Y-5333641D01*
X10820289Y-5385091D01*
X10836582Y-5403425D01*
X10856562Y-5416561D01*
X10886433Y-5426279D01*
X10921550Y-5429342D01*
X10972284Y-5422258D01*
X11013625Y-5398217D01*
X11029599Y-5378482D01*
X11041609Y-5353378D01*
X11050015Y-5318807D01*
X11052891Y-5276843D01*
X11052891Y-4810644D01*
X11052195Y-4796076D01*
X11040973Y-4766053D01*
X11024222Y-4755806D01*
X10999127Y-4752667D01*
X10794330Y-4752667D01*
X10794330Y-5272629D01*
X10612155Y-5272629D01*
X10612155Y-4752667D01*
X10531280Y-4752667D01*
X10520438Y-4752929D01*
X10463179Y-4765293D01*
X10420856Y-4794910D01*
X10404663Y-4816987D01*
X10392404Y-4844216D01*
X10384193Y-4878858D01*
X10381345Y-4919821D01*
X10381345Y-5586420D01*
X10161252Y-5586420D01*
X10161252Y-4917714D01*
X10161879Y-4887797D01*
X10177111Y-4778524D01*
X10191592Y-4732771D01*
X10210344Y-4692042D01*
X10233400Y-4655807D01*
X10260305Y-4624424D01*
X10292401Y-4596545D01*
X10328145Y-4573687D01*
X10370685Y-4554375D01*
X10416774Y-4540559D01*
X10471307Y-4531431D01*
X10529173Y-4528452D01*
X11049502Y-4528452D01*
X11132227Y-4534063D01*
G37*
G36*
X10161252Y-3907648D02*
G01*
X10164148Y-3972725D01*
X10172692Y-4030774D01*
X10185603Y-4078877D01*
X10203093Y-4121189D01*
X10223867Y-4156286D01*
X10248492Y-4186425D01*
X10307922Y-4231998D01*
X10383433Y-4260587D01*
X10479331Y-4271674D01*
X10486767Y-4271722D01*
X10543471Y-4268568D01*
X10597876Y-4258213D01*
X10638911Y-4243850D01*
X10677070Y-4223340D01*
X10707651Y-4199775D01*
X10735124Y-4170503D01*
X10757787Y-4137294D01*
X10776968Y-4098227D01*
X10792250Y-4053152D01*
X10803392Y-4001514D01*
X10811915Y-3886582D01*
X10811915Y-3624082D01*
X10814933Y-3573877D01*
X10824335Y-3534287D01*
X10836213Y-3510705D01*
X10852398Y-3492729D01*
X10893965Y-3473409D01*
X10933456Y-3469568D01*
X10969647Y-3472581D01*
X10998797Y-3481949D01*
X11017360Y-3494404D01*
X11031819Y-3511531D01*
X11049122Y-3560388D01*
X11052891Y-3611534D01*
X11052891Y-4259174D01*
X11275000Y-4259174D01*
X11275000Y-3611534D01*
X11272116Y-3549280D01*
X11263657Y-3493411D01*
X11250672Y-3445956D01*
X11233133Y-3403968D01*
X11212005Y-3368316D01*
X11187048Y-3337511D01*
X11126465Y-3289809D01*
X11049994Y-3258924D01*
X10954694Y-3245591D01*
X10935563Y-3245261D01*
X10878962Y-3248399D01*
X10825559Y-3258641D01*
X10785729Y-3272799D01*
X10749021Y-3292946D01*
X10719565Y-3316240D01*
X10693247Y-3345147D01*
X10671369Y-3378350D01*
X10652929Y-3417440D01*
X10627352Y-3515763D01*
X10619207Y-3632508D01*
X10619207Y-3892902D01*
X10616290Y-3944091D01*
X10607591Y-3983288D01*
X10596300Y-4007270D01*
X10581276Y-4024932D01*
X10543095Y-4043570D01*
X10503436Y-4047507D01*
X10468123Y-4044497D01*
X10438899Y-4035148D01*
X10419491Y-4022458D01*
X10404093Y-4004949D01*
X10385461Y-3955806D01*
X10381345Y-3905541D01*
X10381345Y-3289408D01*
X10161252Y-3289408D01*
X10161252Y-3907648D01*
G37*
G36*
X9850575Y-3023336D02*
G01*
X10104282Y-3023336D01*
X10104282Y-2312681D01*
X10107163Y-2263083D01*
X10115601Y-2220560D01*
X10128007Y-2187511D01*
X10144621Y-2160092D01*
X10164142Y-2139054D01*
X10187064Y-2122824D01*
X10243537Y-2104003D01*
X10278580Y-2101472D01*
X10317369Y-2104411D01*
X10350778Y-2113263D01*
X10376031Y-2126108D01*
X10397258Y-2143683D01*
X10427502Y-2191838D01*
X10444153Y-2264565D01*
X10446558Y-2314788D01*
X10446558Y-2748196D01*
X10677093Y-2748196D01*
X10677093Y-2308468D01*
X10680028Y-2255586D01*
X10688846Y-2210191D01*
X10701341Y-2176761D01*
X10718332Y-2149039D01*
X10737731Y-2128768D01*
X10760881Y-2113249D01*
X10817917Y-2096569D01*
X10844064Y-2095152D01*
X10882405Y-2098098D01*
X10916510Y-2106997D01*
X10943460Y-2120197D01*
X10966661Y-2138376D01*
X11000231Y-2187615D01*
X11018696Y-2258769D01*
X11021384Y-2306361D01*
X11021384Y-3025443D01*
X11275000Y-3025443D01*
X11275000Y-2306361D01*
X11272124Y-2233442D01*
X11263719Y-2167111D01*
X11250599Y-2108936D01*
X11232893Y-2056690D01*
X11211456Y-2011247D01*
X11186214Y-1971215D01*
X11157689Y-1936729D01*
X11125973Y-1907329D01*
X11052952Y-1862817D01*
X10966829Y-1837158D01*
X10892240Y-1831004D01*
X10835311Y-1833909D01*
X10783477Y-1842527D01*
X10739000Y-1855811D01*
X10698887Y-1873952D01*
X10663949Y-1896147D01*
X10632963Y-1922704D01*
X10582010Y-1989256D01*
X10560772Y-2032137D01*
X10539804Y-1989777D01*
X10514223Y-1952090D01*
X10486112Y-1921354D01*
X10453775Y-1895023D01*
X10418265Y-1873846D01*
X10378583Y-1857125D01*
X10285330Y-1837563D01*
X10234250Y-1835217D01*
X10180754Y-1838176D01*
X10129953Y-1847171D01*
X10085384Y-1861129D01*
X10043765Y-1880612D01*
X10007318Y-1904298D01*
X9974036Y-1933191D01*
X9944910Y-1966439D01*
X9919256Y-2004845D01*
X9879255Y-2097685D01*
X9855650Y-2215315D01*
X9850575Y-2312681D01*
X9850575Y-3023336D01*
G37*
G36*
X9850575Y-1594515D02*
G01*
X10104282Y-1594515D01*
X10104282Y-883860D01*
X10107163Y-834262D01*
X10115601Y-791739D01*
X10128007Y-758690D01*
X10144621Y-731272D01*
X10164142Y-710234D01*
X10187064Y-694003D01*
X10243537Y-675183D01*
X10278580Y-672651D01*
X10317369Y-675591D01*
X10350778Y-684442D01*
X10376031Y-697287D01*
X10397258Y-714862D01*
X10427502Y-763018D01*
X10444153Y-835744D01*
X10446558Y-885967D01*
X10446558Y-1319376D01*
X10677093Y-1319376D01*
X10677093Y-879647D01*
X10680028Y-826765D01*
X10688846Y-781370D01*
X10701341Y-747940D01*
X10718332Y-720218D01*
X10737731Y-699947D01*
X10760881Y-684429D01*
X10817917Y-667749D01*
X10844064Y-666331D01*
X10882405Y-669278D01*
X10916510Y-678176D01*
X10943460Y-691377D01*
X10966661Y-709555D01*
X11000231Y-758794D01*
X11018696Y-829948D01*
X11021384Y-877540D01*
X11021384Y-1596622D01*
X11275000Y-1596622D01*
X11275000Y-877540D01*
X11272124Y-804622D01*
X11263719Y-738290D01*
X11250599Y-680115D01*
X11232893Y-627870D01*
X11211456Y-582426D01*
X11186214Y-542395D01*
X11157689Y-507908D01*
X11125973Y-478508D01*
X11052952Y-433996D01*
X10966829Y-408338D01*
X10892240Y-402183D01*
X10835311Y-405089D01*
X10783477Y-413706D01*
X10739000Y-426991D01*
X10698887Y-445131D01*
X10663949Y-467326D01*
X10632963Y-493883D01*
X10582010Y-560435D01*
X10560772Y-603317D01*
X10539804Y-560956D01*
X10514223Y-523269D01*
X10486112Y-492533D01*
X10453775Y-466202D01*
X10418265Y-445026D01*
X10378583Y-428305D01*
X10285330Y-408743D01*
X10234250Y-406396D01*
X10180754Y-409356D01*
X10129953Y-418351D01*
X10085384Y-432308D01*
X10043765Y-451791D01*
X10007318Y-475478D01*
X9974036Y-504370D01*
X9944910Y-537618D01*
X9919256Y-576024D01*
X9879255Y-668865D01*
X9855650Y-786494D01*
X9850575Y-883860D01*
X9850575Y-1594515D01*
G37*
G36*
X10963817Y1116432D02*
G01*
X11051977Y1090388D01*
X11125675Y1046034D01*
X11157532Y1016809D01*
X11186041Y982628D01*
X11211341Y942742D01*
X11232743Y897525D01*
X11250518Y845106D01*
X11263648Y786758D01*
X11272115Y719582D01*
X11275000Y645711D01*
X11275000Y299222D01*
X11269462Y198459D01*
X11245360Y82911D01*
X11204907Y-8274D01*
X11178937Y-46087D01*
X11149438Y-78830D01*
X11115543Y-107416D01*
X11078362Y-130859D01*
X11035569Y-150257D01*
X10989625Y-164157D01*
X10936749Y-173173D01*
X10880883Y-176136D01*
X10831392Y-173763D01*
X10740144Y-153897D01*
X10700864Y-136817D01*
X10665603Y-115189D01*
X10633309Y-88231D01*
X10605168Y-56783D01*
X10579578Y-18376D01*
X10558574Y24723D01*
X10540495Y-13606D01*
X10491675Y-80086D01*
X10461606Y-106731D01*
X10427568Y-129054D01*
X10388684Y-147223D01*
X10345600Y-160549D01*
X10296054Y-169116D01*
X10241852Y-172015D01*
X10160850Y-165643D01*
X10072606Y-140318D01*
X9999284Y-96814D01*
X9967608Y-67971D01*
X9939322Y-34184D01*
X9914125Y5526D01*
X9892844Y50612D01*
X9875074Y103320D01*
X9861965Y162088D01*
X9853464Y230343D01*
X9850575Y305541D01*
X9850575Y639482D01*
X9851027Y647817D01*
X10100069Y647817D01*
X10100069Y299222D01*
X10102906Y250396D01*
X10121963Y178174D01*
X10137378Y150530D01*
X10156464Y127852D01*
X10180218Y109229D01*
X10207488Y95799D01*
X10241715Y86765D01*
X10279588Y83799D01*
X10307418Y85310D01*
X10364794Y101928D01*
X10387870Y117287D01*
X10407127Y137353D01*
X10424112Y165168D01*
X10436562Y198835D01*
X10445526Y245988D01*
X10448482Y301328D01*
X10448482Y645711D01*
X10448170Y652030D01*
X10668575Y652030D01*
X10668575Y292902D01*
X10671671Y240412D01*
X10690399Y169064D01*
X10723541Y120100D01*
X10746097Y102214D01*
X10772443Y89136D01*
X10805446Y80402D01*
X10842873Y77480D01*
X10881385Y80395D01*
X10939179Y100063D01*
X10962659Y116837D01*
X10982488Y138314D01*
X10999449Y166371D01*
X11012012Y199850D01*
X11020590Y243027D01*
X11023490Y292902D01*
X11023490Y652030D01*
X11020411Y703962D01*
X11001484Y775185D01*
X10967623Y824296D01*
X10944179Y842464D01*
X10916937Y855643D01*
X10882114Y864591D01*
X10842873Y867544D01*
X10810280Y865413D01*
X10752782Y847161D01*
X10729417Y830936D01*
X10709792Y809990D01*
X10692768Y781928D01*
X10680222Y748304D01*
X10671496Y703708D01*
X10668575Y652030D01*
X10448170Y652030D01*
X10445938Y697249D01*
X10428935Y770309D01*
X10398290Y818810D01*
X10376889Y836499D01*
X10351534Y849408D01*
X10318161Y858282D01*
X10279588Y861224D01*
X10239954Y858051D01*
X10183159Y838132D01*
X10160101Y821426D01*
X10140428Y799931D01*
X10123787Y772274D01*
X10111345Y739074D01*
X10102944Y696878D01*
X10100069Y647817D01*
X9851027Y647817D01*
X9856159Y742403D01*
X9880119Y858750D01*
X9920124Y949993D01*
X9945713Y987631D01*
X9974835Y1020241D01*
X10008232Y1048612D01*
X10044968Y1071905D01*
X10087309Y1091167D01*
X10132941Y1104993D01*
X10185755Y1113987D01*
X10241852Y1116947D01*
X10289994Y1114682D01*
X10380824Y1095084D01*
X10419729Y1078234D01*
X10454630Y1056865D01*
X10486306Y1030407D01*
X10513828Y999527D01*
X10538499Y962156D01*
X10558574Y920209D01*
X10579860Y963917D01*
X10630594Y1031134D01*
X10695799Y1080366D01*
X10734804Y1098515D01*
X10777941Y1111850D01*
X10827118Y1120374D01*
X10880883Y1123266D01*
X10963817Y1116432D01*
G37*
G36*
X11831873Y1325591D02*
G01*
X11828917Y1406176D01*
X11819947Y1479719D01*
X11806599Y1540098D01*
X11788142Y1595108D01*
X11766308Y1641565D01*
X11739875Y1683653D01*
X11709890Y1720285D01*
X11675449Y1753077D01*
X11592144Y1807991D01*
X11484298Y1850359D01*
X11343109Y1879927D01*
X11155561Y1894595D01*
X11084307Y1895562D01*
X10135149Y1895562D01*
X10012862Y1892565D01*
X9902405Y1883305D01*
X9816981Y1870090D01*
X9739864Y1851735D01*
X9678194Y1830918D01*
X9622819Y1805672D01*
X9577412Y1778437D01*
X9537116Y1747182D01*
X9503344Y1713481D01*
X9474059Y1675876D01*
X9428776Y1588858D01*
X9399598Y1480741D01*
X9387627Y1343546D01*
X9387491Y1325591D01*
X9387491Y1291153D01*
X9546676Y1291153D01*
X9546676Y1325591D01*
X9549702Y1399135D01*
X9559163Y1464322D01*
X9572317Y1512357D01*
X9590629Y1555089D01*
X9611814Y1589216D01*
X9637690Y1619359D01*
X9702374Y1667155D01*
X9791611Y1702755D01*
X9917687Y1726594D01*
X10116189Y1736377D01*
X11103266Y1736377D01*
X11221104Y1733354D01*
X11323078Y1723917D01*
X11394695Y1711183D01*
X11456926Y1693578D01*
X11503596Y1674169D01*
X11543877Y1650696D01*
X11575490Y1625405D01*
X11602206Y1596380D01*
X11641353Y1527855D01*
X11665056Y1438133D01*
X11672780Y1325591D01*
X11672780Y1291153D01*
X11831873Y1291153D01*
X11831873Y1325591D01*
G37*
D21*
%TO.C,C17*%
X-8368395Y-2149645D03*
X-9328395Y-2149645D03*
%TD*%
%TO.C,C2*%
X-4183395Y17220355D03*
X-5143395Y17220355D03*
%TD*%
D22*
%TO.C,U3*%
X-11448395Y14755355D03*
X-11448395Y13485355D03*
X-11448395Y12215355D03*
X-11448395Y10945355D03*
X-4248395Y10945355D03*
X-4248395Y12215355D03*
X-4248395Y13485355D03*
X-4248395Y14755355D03*
%TD*%
D23*
%TO.C,C4*%
X266605Y-10369645D03*
X1226605Y-10369645D03*
%TD*%
D24*
%TO.C,C12*%
X-1848395Y8370355D03*
X-1848395Y9330355D03*
%TD*%
D23*
%TO.C,C16*%
X6676605Y-449645D03*
X7636605Y-449645D03*
%TD*%
%TO.C,C18*%
X6171605Y-4449645D03*
X7131605Y-4449645D03*
%TD*%
D25*
%TO.C,R7*%
X-848395Y9360355D03*
X-848395Y8340355D03*
%TD*%
D21*
%TO.C,C15*%
X-8368395Y2950355D03*
X-9328395Y2950355D03*
%TD*%
%TO.C,C3*%
X-1743395Y-10369645D03*
X-2703395Y-10369645D03*
%TD*%
D26*
%TO.C,H2*%
X16999999Y-25499999D03*
%TD*%
D25*
%TO.C,R8*%
X151605Y9360355D03*
X151605Y8340355D03*
%TD*%
D26*
%TO.C,H3*%
X-22499999Y27499999D03*
%TD*%
D23*
%TO.C,C20*%
X6671605Y4350355D03*
X7631605Y4350355D03*
%TD*%
D25*
%TO.C,R2*%
X-648395Y-7744645D03*
X-648395Y-8764645D03*
%TD*%
D26*
%TO.C,H1*%
X17000000Y27500000D03*
%TD*%
D27*
%TO.C,Y1*%
X-1948395Y-14799645D03*
X251605Y-14799645D03*
X251605Y-13099645D03*
X-1948395Y-13099645D03*
%TD*%
D28*
%TO.C,R12*%
X490000Y22000000D03*
X1510000Y22000000D03*
%TD*%
D29*
%TO.C,CN1*%
X12000000Y19150000D03*
X12000000Y21150000D03*
D30*
X17860000Y23500000D03*
X17860000Y16800000D03*
%TD*%
D31*
%TO.C,C33*%
X5050000Y22500000D03*
X6950000Y22500000D03*
%TD*%
D25*
%TO.C,R3*%
X4351605Y8910355D03*
X4351605Y7890355D03*
%TD*%
D32*
%TO.C,D1*%
X6000000Y19500000D03*
X2000000Y19500000D03*
%TD*%
D33*
%TO.C,R17*%
X-15934685Y8684275D03*
X-15934685Y9704275D03*
%TD*%
D23*
%TO.C,C25*%
X-3000000Y-17000000D03*
X-2040000Y-17000000D03*
%TD*%
D31*
%TO.C,C24*%
X-3500000Y-18500000D03*
X-1600000Y-18500000D03*
%TD*%
D34*
%TO.C,C9*%
X4351605Y7030355D03*
X4351605Y6070355D03*
%TD*%
D35*
%TO.C,C7*%
X1636605Y7050355D03*
X2666605Y7050355D03*
%TD*%
D24*
%TO.C,C31*%
X-22475108Y520000D03*
X-22475108Y1480000D03*
%TD*%
D36*
%TO.C,C14*%
X-4679013Y7401227D03*
X-5357835Y8080049D03*
%TD*%
D37*
%TO.C,C19*%
X9500000Y11550000D03*
X9500000Y13450000D03*
%TD*%
D38*
%TO.C,SW1*%
X-6348395Y22200355D03*
X-6348395Y18050355D03*
X-8498395Y22200355D03*
X-8498395Y18075355D03*
%TD*%
D24*
%TO.C,C30*%
X-21475108Y520000D03*
X-21475108Y1480000D03*
%TD*%
D39*
%TO.C,R1*%
X-16697314Y-512609D03*
X-16697314Y353025D03*
%TD*%
D40*
%TO.C,SW2*%
X8575000Y-8575000D03*
X4425000Y-8575000D03*
X8575000Y-6425000D03*
X4450000Y-6425000D03*
%TD*%
D41*
%TO.C,U5*%
X2651605Y25050355D03*
X-3138395Y25050355D03*
D42*
X4071605Y24550355D03*
X-4568395Y24550355D03*
D43*
X-4568395Y28730355D03*
X4071605Y28730355D03*
D44*
X2951605Y23930355D03*
X2151605Y23930355D03*
D45*
X1001605Y23930355D03*
X1605Y23930355D03*
X-498395Y23930355D03*
X-1498395Y23930355D03*
D44*
X-3448395Y23930355D03*
X-2648395Y23930355D03*
D45*
X-1998395Y23930355D03*
X-998395Y23930355D03*
X501605Y23930355D03*
X1501605Y23930355D03*
%TD*%
D21*
%TO.C,C1*%
X-16261675Y1345231D03*
X-17221675Y1345231D03*
%TD*%
D33*
%TO.C,R13*%
X8000000Y11980000D03*
X8000000Y13000000D03*
%TD*%
D35*
%TO.C,C6*%
X1636605Y6100355D03*
X2666605Y6100355D03*
%TD*%
D25*
%TO.C,R26*%
X-20993257Y-4474533D03*
X-20993257Y-5494533D03*
%TD*%
D46*
%TO.C,L2*%
X6500127Y8500000D03*
X9499873Y8500000D03*
%TD*%
D28*
%TO.C,R10*%
X-14010000Y14754573D03*
X-12990000Y14754573D03*
%TD*%
D47*
%TO.C,C22*%
X3489999Y15980000D03*
X1590001Y15980000D03*
%TD*%
D28*
%TO.C,R6*%
X-14010000Y16000000D03*
X-12990000Y16000000D03*
%TD*%
D34*
%TO.C,C10*%
X551605Y-7769645D03*
X551605Y-8729645D03*
%TD*%
D48*
%TO.C,R11*%
X-14856011Y-1336050D03*
X-15876011Y-1336050D03*
%TD*%
D49*
%TO.C,R5*%
X-3348395Y22050355D03*
X-2348395Y22050355D03*
%TD*%
D25*
%TO.C,R25*%
X-22975108Y-4486082D03*
X-22975108Y-5506082D03*
%TD*%
D50*
%TO.C,U9*%
X-18820494Y10699771D03*
X-18820494Y9699771D03*
X-18821002Y8699517D03*
X-18821002Y7699517D03*
D51*
X-22696542Y6399796D03*
X-22696034Y12000000D03*
%TD*%
D50*
%TO.C,U10*%
X-18820494Y17699771D03*
X-18820494Y16699771D03*
X-18821002Y15699517D03*
X-18821002Y14699517D03*
D51*
X-22696542Y13399796D03*
X-22696034Y19000000D03*
%TD*%
D52*
%TO.C,U4*%
X1883936Y-26539424D03*
X-3196074Y-26539424D03*
X-3196074Y-21459414D03*
X1883936Y-21459414D03*
X-656069Y-23999419D03*
%TD*%
D53*
%TO.C,U1*%
X-5744895Y3850355D03*
X-5744895Y3450355D03*
X-5744895Y3050355D03*
X-5744895Y2650355D03*
X-5744895Y2250355D03*
X-5744895Y1850355D03*
X-5744895Y1450355D03*
X-5744895Y1050355D03*
X-5744895Y650355D03*
X-5744895Y250355D03*
X-5744895Y-149645D03*
X-5744895Y-549645D03*
X-5744895Y-949645D03*
X-5744895Y-1349645D03*
X-5744895Y-1749645D03*
X-5744895Y-2149645D03*
X-5744895Y-2549645D03*
X-5744895Y-2949645D03*
X-5744895Y-3349645D03*
X-5744895Y-3749645D03*
D54*
X-4648395Y-4846145D03*
X-4248395Y-4846145D03*
X-3848395Y-4846145D03*
X-3448395Y-4846145D03*
X-3048395Y-4846145D03*
X-2648395Y-4846145D03*
X-2248395Y-4846145D03*
X-1848395Y-4846145D03*
X-1448395Y-4846145D03*
X-1048395Y-4846145D03*
X-648395Y-4846145D03*
X-248395Y-4846145D03*
X151605Y-4846145D03*
X551605Y-4846145D03*
X951605Y-4846145D03*
X1351605Y-4846145D03*
X1751605Y-4846145D03*
X2151605Y-4846145D03*
X2551605Y-4846145D03*
X2951605Y-4846145D03*
D53*
X4048105Y-3749645D03*
X4048105Y-3349645D03*
X4048105Y-2949645D03*
X4048105Y-2549645D03*
X4048105Y-2149645D03*
X4048105Y-1749645D03*
X4048105Y-1349645D03*
X4048105Y-949645D03*
X4048105Y-549645D03*
X4048105Y-149645D03*
X4048105Y250355D03*
X4048105Y650355D03*
X4048105Y1050355D03*
X4048105Y1450355D03*
X4048105Y1850355D03*
X4048105Y2250355D03*
X4048105Y2650355D03*
X4048105Y3050355D03*
X4048105Y3450355D03*
X4048105Y3850355D03*
D54*
X2951605Y4946855D03*
X2551605Y4946855D03*
X2151605Y4946855D03*
X1751605Y4946855D03*
X1351605Y4946855D03*
X951605Y4946855D03*
X551605Y4946855D03*
X151605Y4946855D03*
X-248395Y4946855D03*
X-648395Y4946855D03*
X-1048395Y4946855D03*
X-1448395Y4946855D03*
X-1848395Y4946855D03*
X-2248395Y4946855D03*
X-2648395Y4946855D03*
X-3048395Y4946855D03*
X-3448395Y4946855D03*
X-3848395Y4946855D03*
X-4248395Y4946855D03*
X-4648395Y4946855D03*
D55*
X-1981728Y1183688D03*
D56*
X-1981728Y1183688D03*
D55*
X-1981728Y50355D03*
D56*
X-1981728Y50355D03*
D55*
X-1981728Y-1082978D03*
D56*
X-1981728Y-1082978D03*
D55*
X-848395Y1183688D03*
D56*
X-848395Y1183688D03*
D55*
X-848395Y50355D03*
D56*
X-848395Y50355D03*
D55*
X-848395Y-1082978D03*
D56*
X-848395Y-1082978D03*
D55*
X284938Y1183688D03*
D56*
X284938Y1183688D03*
D55*
X284938Y50355D03*
D56*
X284938Y50355D03*
D55*
X284938Y-1082978D03*
D56*
X284938Y-1082978D03*
%TD*%
D21*
%TO.C,C5*%
X-13696034Y2583965D03*
X-14656034Y2583965D03*
%TD*%
D57*
%TO.C,L1*%
X1451605Y8700355D03*
X2851605Y8700355D03*
%TD*%
D21*
%TO.C,C8*%
X-8368395Y250355D03*
X-9328395Y250355D03*
%TD*%
D33*
%TO.C,R14*%
X-15696034Y15689898D03*
X-15696034Y16709898D03*
%TD*%
D58*
%TO.C,U8*%
X-21000000Y-3258573D03*
X-21649987Y-3258573D03*
X-22299975Y-3258573D03*
X-22950216Y-3258573D03*
X-22950216Y-741427D03*
X-22299975Y-741427D03*
X-21649987Y-741427D03*
X-21000000Y-741427D03*
%TD*%
D59*
%TO.C,U2*%
X-13026057Y-165971D03*
X-13026057Y334156D03*
X-13026057Y834029D03*
X-13026057Y1334156D03*
D60*
X-13696263Y1503980D03*
X-14196136Y1503980D03*
X-14696263Y1503980D03*
D59*
X-15366011Y1334156D03*
X-15366011Y834029D03*
X-15366011Y334156D03*
X-15366011Y-165971D03*
D60*
X-14696263Y-336050D03*
X-14196136Y-336050D03*
X-13696263Y-336050D03*
%TD*%
D21*
%TO.C,C21*%
X-5068395Y-6649645D03*
X-6028395Y-6649645D03*
%TD*%
D28*
%TO.C,R9*%
X-13376011Y-1336050D03*
X-12356011Y-1336050D03*
%TD*%
D25*
%TO.C,R24*%
X-21975108Y-4490000D03*
X-21975108Y-5510000D03*
%TD*%
D61*
%TO.C,U6*%
X-6300025Y-24000000D03*
D62*
X-6000000Y-22000000D03*
X-6000000Y-20000000D03*
X-6000000Y-18000000D03*
X-6000000Y-16000000D03*
X-6000000Y-14000000D03*
X-6000000Y-12000000D03*
X-6000000Y-10000000D03*
X-22000000Y-10000000D03*
X-22000000Y-12000000D03*
X-22000000Y-14000000D03*
X-22000000Y-16000000D03*
X-22000000Y-18000000D03*
X-22000000Y-20000000D03*
X-22000000Y-22000000D03*
X-21999949Y-24000000D03*
%TD*%
D48*
%TO.C,R4*%
X3120166Y-8594896D03*
X2100166Y-8594896D03*
%TD*%
D63*
%TO.C,U7*%
X6800102Y13700026D03*
X6299974Y13700026D03*
X5800102Y13700026D03*
X5299974Y13700026D03*
X5299974Y11800102D03*
X5800102Y11800102D03*
X6299974Y11800102D03*
X6800102Y11800102D03*
D64*
X6050038Y12750064D03*
%TD*%
D23*
%TO.C,C11*%
X6671605Y550355D03*
X7631605Y550355D03*
%TD*%
D33*
%TO.C,R15*%
X-16696034Y15689898D03*
X-16696034Y16709898D03*
%TD*%
%TO.C,R16*%
X-14934685Y8684275D03*
X-14934685Y9704275D03*
%TD*%
D65*
%TO.C,D2*%
X6049999Y15970000D03*
X10050001Y15970000D03*
%TD*%
D34*
%TO.C,C13*%
X-2148395Y-7769645D03*
X-2148395Y-8729645D03*
%TD*%
%LPD*%
M02*
