%TF.GenerationSoftware,KiCad,Pcbnew,9.0.4*%
%TF.CreationDate,2026-01-25T12:04:54+00:00*%
%TF.ProjectId,Lyra Avionics,4c797261-2041-4766-996f-6e6963732e6b,REV3*%
%TF.SameCoordinates,Original*%
%TF.FileFunction,Copper,L2,Inr*%
%TF.FilePolarity,Positive*%
%FSLAX46Y46*%
G04 Gerber Fmt 4.6, Leading zero omitted, Abs format (unit mm)*
G04 Created by KiCad (PCBNEW 9.0.4) date 2026-01-25 12:04:54*
%MOMM*%
%LPD*%
G01*
G04 APERTURE LIST*
%TA.AperFunction,ComponentPad*%
%ADD10C,0.650000*%
%TD*%
%TA.AperFunction,ComponentPad*%
%ADD11O,1.000000X2.100000*%
%TD*%
%TA.AperFunction,ComponentPad*%
%ADD12O,1.000000X1.800000*%
%TD*%
%TA.AperFunction,ComponentPad*%
%ADD13C,2.500000*%
%TD*%
%TA.AperFunction,ComponentPad*%
%ADD14C,0.600000*%
%TD*%
%TA.AperFunction,ViaPad*%
%ADD15C,0.600000*%
%TD*%
G04 APERTURE END LIST*
D10*
%TO.N,*%
%TO.C,U5*%
X2651605Y25050355D03*
X-3138395Y25050355D03*
D11*
%TO.N,GND*%
X4071605Y24550355D03*
X-4568395Y24550355D03*
D12*
X-4568395Y28730355D03*
X4071605Y28730355D03*
%TD*%
D13*
%TO.N,GND*%
%TO.C,U4*%
X1883936Y-26539424D03*
X-3196074Y-26539424D03*
X-3196074Y-21459414D03*
X1883936Y-21459414D03*
%TO.N,Net-(U6-ANT)*%
X-656069Y-23999419D03*
%TD*%
D14*
%TO.N,GND*%
%TO.C,U1*%
X-1981728Y1183688D03*
X-1981728Y50355D03*
X-1981728Y-1082978D03*
X-848395Y1183688D03*
X-848395Y50355D03*
X-848395Y-1082978D03*
X284938Y1183688D03*
X284938Y50355D03*
X284938Y-1082978D03*
%TD*%
D15*
%TO.N,GND*%
X-10000001Y2950681D03*
X4500000Y12500000D03*
X3500000Y11500000D03*
X5321849Y6066067D03*
X-10000000Y-2149645D03*
X8349261Y4359627D03*
X8000000Y-4449645D03*
X3374162Y7044854D03*
X8500000Y550355D03*
X4500000Y11500000D03*
X571950Y-9500000D03*
X3500000Y12500000D03*
X-2140344Y-9504176D03*
X-10000000Y258112D03*
X4500000Y13500000D03*
X4358728Y5155865D03*
X-5883333Y8662320D03*
X3500000Y13500000D03*
X-1848395Y10000000D03*
X8505000Y-449645D03*
%TO.N,+3V3*%
X2343413Y-3343413D03*
X4360219Y9723700D03*
X3258138Y4122777D03*
X-20000000Y-4000000D03*
X10000000Y6000000D03*
X-8325374Y-1330263D03*
X5418690Y11081310D03*
X-7750000Y-20000000D03*
X-4250000Y-20000000D03*
X-11750000Y-500000D03*
X-14108683Y9687083D03*
X-12928327Y2586269D03*
X7999999Y11154180D03*
X-2750000Y14750000D03*
X-3920758Y-17003954D03*
X-17652802Y353026D03*
X9000000Y5000000D03*
X-4527140Y-3809389D03*
X-16652414Y-1341489D03*
X-4425000Y2000000D03*
X-20500000Y500000D03*
X9000000Y6000000D03*
X-3357870Y17211246D03*
X10000000Y5000000D03*
X5000000Y-3749645D03*
X-15690397Y17409005D03*
X519482Y3500000D03*
%TO.N,/GPIO15*%
X-8750003Y-7000000D03*
X-7500000Y-1000000D03*
%TO.N,/GPIO14*%
X-6813374Y-633731D03*
X-8000000Y-7000000D03*
%TO.N,/GPIO5*%
X-13339588Y-2859419D03*
X-14096011Y-1447118D03*
%TD*%
%TA.AperFunction,Conductor*%
%TO.N,GND*%
G36*
X-5168267Y30205336D02*
G01*
X-5101233Y30185634D01*
X-5055492Y30132818D01*
X-5045567Y30063657D01*
X-5074608Y30000109D01*
X-5099409Y29978234D01*
X-5205858Y29907107D01*
X-5205862Y29907104D01*
X-5345144Y29767822D01*
X-5345147Y29767818D01*
X-5454581Y29604040D01*
X-5454588Y29604027D01*
X-5529965Y29422049D01*
X-5529968Y29422037D01*
X-5568395Y29228851D01*
X-5568395Y28980355D01*
X-4868395Y28980355D01*
X-4868395Y28480355D01*
X-5568395Y28480355D01*
X-5568395Y28231860D01*
X-5529968Y28038674D01*
X-5529965Y28038662D01*
X-5454588Y27856684D01*
X-5454581Y27856671D01*
X-5345147Y27692893D01*
X-5345144Y27692889D01*
X-5205862Y27553607D01*
X-5205858Y27553604D01*
X-5042080Y27444170D01*
X-5042067Y27444163D01*
X-4860087Y27368786D01*
X-4818395Y27360493D01*
X-4818395Y28163368D01*
X-4808455Y28146151D01*
X-4752600Y28090296D01*
X-4684191Y28050800D01*
X-4607891Y28030356D01*
X-4528899Y28030356D01*
X-4452599Y28050800D01*
X-4384190Y28090296D01*
X-4328335Y28146151D01*
X-4318395Y28163368D01*
X-4318395Y27360493D01*
X-4276705Y27368786D01*
X-4276703Y27368786D01*
X-4094724Y27444163D01*
X-4094711Y27444170D01*
X-3930933Y27553604D01*
X-3930929Y27553607D01*
X-3791647Y27692889D01*
X-3791644Y27692893D01*
X-3682210Y27856671D01*
X-3682203Y27856684D01*
X-3606826Y28038662D01*
X-3606823Y28038674D01*
X-3568396Y28231860D01*
X-3568395Y28231863D01*
X-3568395Y28480355D01*
X-4268395Y28480355D01*
X-4268395Y28980355D01*
X-3568395Y28980355D01*
X-3568395Y29228847D01*
X-3568396Y29228851D01*
X-3606823Y29422037D01*
X-3606826Y29422049D01*
X-3682203Y29604027D01*
X-3682210Y29604040D01*
X-3791644Y29767818D01*
X-3791647Y29767822D01*
X-3930929Y29907104D01*
X-3930933Y29907107D01*
X-4036909Y29977918D01*
X-4081714Y30031530D01*
X-4090421Y30100855D01*
X-4060267Y30163883D01*
X-4000824Y30200602D01*
X-3967987Y30205020D01*
X3468332Y30203063D01*
X3535364Y30183361D01*
X3581105Y30130545D01*
X3591030Y30061384D01*
X3561989Y29997836D01*
X3537189Y29975961D01*
X3434138Y29907104D01*
X3294856Y29767822D01*
X3294853Y29767818D01*
X3185419Y29604040D01*
X3185412Y29604027D01*
X3110035Y29422049D01*
X3110032Y29422037D01*
X3071605Y29228851D01*
X3071605Y28980355D01*
X3771605Y28980355D01*
X3771605Y28480355D01*
X3071605Y28480355D01*
X3071605Y28231860D01*
X3110032Y28038674D01*
X3110035Y28038662D01*
X3185412Y27856684D01*
X3185419Y27856671D01*
X3294853Y27692893D01*
X3294856Y27692889D01*
X3434138Y27553607D01*
X3434142Y27553604D01*
X3597920Y27444170D01*
X3597933Y27444163D01*
X3779913Y27368786D01*
X3821605Y27360493D01*
X3821605Y28163368D01*
X3831545Y28146151D01*
X3887400Y28090296D01*
X3955809Y28050800D01*
X4032109Y28030356D01*
X4111101Y28030356D01*
X4187401Y28050800D01*
X4255810Y28090296D01*
X4311665Y28146151D01*
X4321605Y28163368D01*
X4321605Y27360493D01*
X4363295Y27368786D01*
X4363297Y27368786D01*
X4545276Y27444163D01*
X4545289Y27444170D01*
X4709067Y27553604D01*
X4709071Y27553607D01*
X4777491Y27622027D01*
X15449500Y27622027D01*
X15449500Y27377974D01*
X15487678Y27136928D01*
X15487678Y27136926D01*
X15487679Y27136924D01*
X15505542Y27081946D01*
X15563097Y26904813D01*
X15673896Y26687358D01*
X15817339Y26489924D01*
X15817343Y26489919D01*
X15989918Y26317344D01*
X15989923Y26317340D01*
X16131280Y26214639D01*
X16187361Y26173894D01*
X16404815Y26063096D01*
X16636924Y25987679D01*
X16877973Y25949500D01*
X16877974Y25949500D01*
X17122026Y25949500D01*
X17122027Y25949500D01*
X17363076Y25987679D01*
X17595185Y26063096D01*
X17812639Y26173894D01*
X18010083Y26317345D01*
X18182655Y26489917D01*
X18326106Y26687361D01*
X18436904Y26904815D01*
X18512321Y27136924D01*
X18550500Y27377973D01*
X18550500Y27622027D01*
X18512321Y27863076D01*
X18436904Y28095185D01*
X18326106Y28312639D01*
X18284626Y28369732D01*
X18182660Y28510077D01*
X18182656Y28510082D01*
X18010081Y28682657D01*
X18010076Y28682661D01*
X17812642Y28826104D01*
X17812641Y28826105D01*
X17812639Y28826106D01*
X17595185Y28936904D01*
X17363076Y29012321D01*
X17363074Y29012322D01*
X17363072Y29012322D01*
X17194769Y29038979D01*
X17122027Y29050500D01*
X16877973Y29050500D01*
X16822093Y29041650D01*
X16636927Y29012322D01*
X16404812Y28936903D01*
X16187357Y28826104D01*
X15989923Y28682661D01*
X15989918Y28682657D01*
X15817343Y28510082D01*
X15817339Y28510077D01*
X15673896Y28312643D01*
X15563097Y28095188D01*
X15487678Y27863073D01*
X15449500Y27622027D01*
X4777491Y27622027D01*
X4848353Y27692889D01*
X4848360Y27692898D01*
X4850292Y27695788D01*
X4850293Y27695790D01*
X4957790Y27856671D01*
X4957797Y27856684D01*
X5033174Y28038662D01*
X5033177Y28038674D01*
X5071604Y28231860D01*
X5071605Y28231863D01*
X5071605Y28480355D01*
X4371605Y28480355D01*
X4371605Y28980355D01*
X5071605Y28980355D01*
X5071605Y29228847D01*
X5071604Y29228851D01*
X5033177Y29422037D01*
X5033174Y29422049D01*
X4957797Y29604027D01*
X4957790Y29604040D01*
X4848356Y29767818D01*
X4848353Y29767822D01*
X4709071Y29907104D01*
X4709067Y29907107D01*
X4606496Y29975643D01*
X4561691Y30029255D01*
X4552984Y30098580D01*
X4583139Y30161608D01*
X4642582Y30198327D01*
X4675417Y30202745D01*
X16952365Y30199513D01*
X16952405Y30199500D01*
X16996556Y30199500D01*
X16996559Y30199499D01*
X17003472Y30199305D01*
X17295306Y30182916D01*
X17309103Y30181362D01*
X17572103Y30136676D01*
X17593827Y30132985D01*
X17607384Y30129891D01*
X17884899Y30049940D01*
X17898025Y30045347D01*
X18164841Y29934828D01*
X18177355Y29928802D01*
X18216614Y29907104D01*
X18430125Y29789101D01*
X18441899Y29781703D01*
X18677430Y29614585D01*
X18688302Y29605915D01*
X18903642Y29413476D01*
X18913475Y29403643D01*
X19105914Y29188303D01*
X19114584Y29177431D01*
X19281702Y28941900D01*
X19289100Y28930126D01*
X19428797Y28677363D01*
X19434830Y28664835D01*
X19545346Y28398025D01*
X19549939Y28384900D01*
X19629890Y28107385D01*
X19632984Y28093828D01*
X19681359Y27809115D01*
X19682916Y27795297D01*
X19699305Y27503473D01*
X19699500Y27496520D01*
X19699500Y-25496519D01*
X19699305Y-25503472D01*
X19682916Y-25795296D01*
X19681359Y-25809114D01*
X19632984Y-26093827D01*
X19629890Y-26107384D01*
X19549939Y-26384899D01*
X19545346Y-26398024D01*
X19434830Y-26664834D01*
X19428797Y-26677362D01*
X19289100Y-26930125D01*
X19281702Y-26941899D01*
X19114584Y-27177430D01*
X19105914Y-27188302D01*
X18913475Y-27403642D01*
X18903642Y-27413475D01*
X18688302Y-27605914D01*
X18677430Y-27614584D01*
X18441899Y-27781702D01*
X18430125Y-27789100D01*
X18177362Y-27928797D01*
X18164834Y-27934830D01*
X17898024Y-28045346D01*
X17884899Y-28049939D01*
X17607384Y-28129890D01*
X17593827Y-28132984D01*
X17309114Y-28181359D01*
X17295296Y-28182916D01*
X17003472Y-28199305D01*
X16996519Y-28199500D01*
X2960464Y-28199500D01*
X2893425Y-28179815D01*
X2847670Y-28127011D01*
X2837726Y-28057853D01*
X2866751Y-27994297D01*
X2884977Y-27977124D01*
X2932000Y-27941041D01*
X2207971Y-27217012D01*
X2239200Y-27204077D01*
X2362041Y-27121997D01*
X2466509Y-27017529D01*
X2548589Y-26894688D01*
X2561524Y-26863459D01*
X3285553Y-27587488D01*
X3342128Y-27513758D01*
X3342133Y-27513751D01*
X3456829Y-27315092D01*
X3456833Y-27315083D01*
X3544617Y-27103154D01*
X3603993Y-26881561D01*
X3633934Y-26654134D01*
X3633936Y-26654118D01*
X3633936Y-26424729D01*
X3633934Y-26424713D01*
X3603993Y-26197286D01*
X3544617Y-25975693D01*
X3456833Y-25763764D01*
X3456829Y-25763754D01*
X3342130Y-25565090D01*
X3285554Y-25491358D01*
X3285553Y-25491358D01*
X2561523Y-26215387D01*
X2548589Y-26184160D01*
X2466509Y-26061319D01*
X2362041Y-25956851D01*
X2239200Y-25874771D01*
X2207969Y-25861835D01*
X2691833Y-25377972D01*
X15449499Y-25377972D01*
X15449499Y-25622025D01*
X15478043Y-25802247D01*
X15487678Y-25863075D01*
X15563095Y-26095184D01*
X15615118Y-26197286D01*
X15673895Y-26312641D01*
X15817338Y-26510075D01*
X15817342Y-26510080D01*
X15989917Y-26682655D01*
X15989922Y-26682659D01*
X16162135Y-26807778D01*
X16187360Y-26826105D01*
X16404814Y-26936903D01*
X16636923Y-27012320D01*
X16877972Y-27050499D01*
X16877973Y-27050499D01*
X17122025Y-27050499D01*
X17122026Y-27050499D01*
X17363075Y-27012320D01*
X17595184Y-26936903D01*
X17812638Y-26826105D01*
X18010082Y-26682654D01*
X18182654Y-26510082D01*
X18326105Y-26312638D01*
X18436903Y-26095184D01*
X18512320Y-25863075D01*
X18550499Y-25622026D01*
X18550499Y-25377972D01*
X18512320Y-25136923D01*
X18436903Y-24904814D01*
X18326105Y-24687360D01*
X18216881Y-24537025D01*
X18182659Y-24489922D01*
X18182655Y-24489917D01*
X18010080Y-24317342D01*
X18010075Y-24317338D01*
X17812641Y-24173895D01*
X17812640Y-24173894D01*
X17812638Y-24173893D01*
X17595184Y-24063095D01*
X17363075Y-23987678D01*
X17363073Y-23987677D01*
X17363071Y-23987677D01*
X17194768Y-23961020D01*
X17122026Y-23949499D01*
X16877972Y-23949499D01*
X16822092Y-23958349D01*
X16636926Y-23987677D01*
X16404811Y-24063096D01*
X16187356Y-24173895D01*
X15989922Y-24317338D01*
X15989917Y-24317342D01*
X15817342Y-24489917D01*
X15817338Y-24489922D01*
X15673895Y-24687356D01*
X15563096Y-24904811D01*
X15563095Y-24904813D01*
X15563095Y-24904814D01*
X15543042Y-24966530D01*
X15487677Y-25136926D01*
X15449499Y-25377972D01*
X2691833Y-25377972D01*
X2932000Y-25137805D01*
X2932000Y-25137804D01*
X2858267Y-25081229D01*
X2858260Y-25081223D01*
X2659605Y-24966530D01*
X2659595Y-24966526D01*
X2447666Y-24878742D01*
X2226073Y-24819366D01*
X1998646Y-24789425D01*
X1998630Y-24789424D01*
X1769242Y-24789424D01*
X1769225Y-24789425D01*
X1541798Y-24819366D01*
X1320205Y-24878742D01*
X1108276Y-24966526D01*
X1108266Y-24966530D01*
X909609Y-25081225D01*
X909595Y-25081234D01*
X835870Y-25137804D01*
X1559900Y-25861835D01*
X1528672Y-25874771D01*
X1405831Y-25956851D01*
X1301363Y-26061319D01*
X1219283Y-26184160D01*
X1206347Y-26215388D01*
X482316Y-25491358D01*
X425746Y-25565083D01*
X425737Y-25565097D01*
X311042Y-25763754D01*
X311038Y-25763764D01*
X223254Y-25975693D01*
X163878Y-26197286D01*
X133937Y-26424713D01*
X133936Y-26424729D01*
X133936Y-26654118D01*
X133937Y-26654134D01*
X163878Y-26881561D01*
X223254Y-27103154D01*
X311038Y-27315083D01*
X311042Y-27315093D01*
X425735Y-27513748D01*
X425741Y-27513755D01*
X482317Y-27587488D01*
X1206347Y-26863458D01*
X1219283Y-26894688D01*
X1301363Y-27017529D01*
X1405831Y-27121997D01*
X1528672Y-27204077D01*
X1559900Y-27217012D01*
X835870Y-27941041D01*
X835870Y-27941042D01*
X882893Y-27977124D01*
X924096Y-28033551D01*
X928251Y-28103297D01*
X894039Y-28164218D01*
X832322Y-28196971D01*
X807407Y-28199500D01*
X-2119546Y-28199500D01*
X-2186585Y-28179815D01*
X-2232340Y-28127011D01*
X-2242284Y-28057853D01*
X-2213259Y-27994297D01*
X-2195033Y-27977124D01*
X-2148010Y-27941041D01*
X-2872039Y-27217012D01*
X-2840810Y-27204077D01*
X-2717969Y-27121997D01*
X-2613501Y-27017529D01*
X-2531421Y-26894688D01*
X-2518486Y-26863459D01*
X-1794457Y-27587488D01*
X-1737882Y-27513758D01*
X-1737877Y-27513751D01*
X-1623181Y-27315092D01*
X-1623177Y-27315083D01*
X-1535393Y-27103154D01*
X-1476017Y-26881561D01*
X-1446076Y-26654134D01*
X-1446074Y-26654118D01*
X-1446074Y-26424729D01*
X-1446076Y-26424713D01*
X-1476017Y-26197286D01*
X-1535393Y-25975693D01*
X-1623177Y-25763764D01*
X-1623181Y-25763754D01*
X-1737880Y-25565090D01*
X-1794456Y-25491358D01*
X-1794457Y-25491358D01*
X-2518487Y-26215387D01*
X-2531421Y-26184160D01*
X-2613501Y-26061319D01*
X-2717969Y-25956851D01*
X-2840810Y-25874771D01*
X-2872041Y-25861835D01*
X-2148010Y-25137805D01*
X-2148010Y-25137804D01*
X-2221743Y-25081229D01*
X-2221750Y-25081223D01*
X-2420405Y-24966530D01*
X-2420415Y-24966526D01*
X-2632344Y-24878742D01*
X-2853937Y-24819366D01*
X-3081364Y-24789425D01*
X-3081380Y-24789424D01*
X-3310768Y-24789424D01*
X-3310785Y-24789425D01*
X-3538212Y-24819366D01*
X-3759805Y-24878742D01*
X-3971734Y-24966526D01*
X-3971744Y-24966530D01*
X-4170401Y-25081225D01*
X-4170415Y-25081234D01*
X-4244140Y-25137804D01*
X-3520110Y-25861835D01*
X-3551338Y-25874771D01*
X-3674179Y-25956851D01*
X-3778647Y-26061319D01*
X-3860727Y-26184160D01*
X-3873663Y-26215388D01*
X-4597694Y-25491358D01*
X-4654264Y-25565083D01*
X-4654273Y-25565097D01*
X-4768968Y-25763754D01*
X-4768972Y-25763764D01*
X-4856756Y-25975693D01*
X-4916132Y-26197286D01*
X-4946073Y-26424713D01*
X-4946074Y-26424729D01*
X-4946074Y-26654118D01*
X-4946073Y-26654134D01*
X-4916132Y-26881561D01*
X-4856756Y-27103154D01*
X-4768972Y-27315083D01*
X-4768968Y-27315093D01*
X-4654275Y-27513748D01*
X-4654269Y-27513755D01*
X-4597693Y-27587488D01*
X-3873663Y-26863458D01*
X-3860727Y-26894688D01*
X-3778647Y-27017529D01*
X-3674179Y-27121997D01*
X-3551338Y-27204077D01*
X-3520110Y-27217012D01*
X-4244140Y-27941041D01*
X-4244140Y-27941042D01*
X-4197117Y-27977124D01*
X-4155914Y-28033551D01*
X-4151759Y-28103297D01*
X-4185971Y-28164218D01*
X-4247688Y-28196971D01*
X-4272603Y-28199500D01*
X-22442405Y-28199500D01*
X-22452403Y-28199499D01*
X-22452405Y-28199499D01*
X-22496521Y-28199499D01*
X-22496522Y-28199498D01*
X-22503472Y-28199304D01*
X-22795297Y-28182915D01*
X-22809115Y-28181358D01*
X-23093828Y-28132983D01*
X-23107385Y-28129889D01*
X-23384900Y-28049938D01*
X-23398025Y-28045345D01*
X-23664835Y-27934829D01*
X-23677363Y-27928796D01*
X-23930125Y-27789099D01*
X-23941899Y-27781701D01*
X-24177430Y-27614583D01*
X-24188302Y-27605913D01*
X-24403647Y-27413469D01*
X-24413479Y-27403636D01*
X-24605910Y-27188307D01*
X-24614581Y-27177435D01*
X-24614585Y-27177430D01*
X-24740157Y-27000451D01*
X-24781702Y-26941898D01*
X-24789100Y-26930124D01*
X-24821135Y-26872162D01*
X-24928802Y-26677354D01*
X-24934831Y-26664832D01*
X-25016312Y-26468116D01*
X-25045346Y-26398023D01*
X-25049939Y-26384898D01*
X-25129890Y-26107383D01*
X-25132984Y-26093826D01*
X-25146034Y-26017019D01*
X-25181361Y-25809102D01*
X-25182915Y-25795303D01*
X-25195843Y-25565097D01*
X-25199305Y-25503447D01*
X-25199500Y-25496495D01*
X-25199500Y-23889197D01*
X-2056569Y-23889197D01*
X-2056569Y-24109640D01*
X-2022084Y-24327371D01*
X-1953966Y-24537022D01*
X-1953965Y-24537025D01*
X-1853882Y-24733444D01*
X-1724317Y-24911777D01*
X-1724313Y-24911782D01*
X-1568433Y-25067662D01*
X-1568428Y-25067666D01*
X-1412877Y-25180679D01*
X-1390091Y-25197234D01*
X-1261694Y-25262656D01*
X-1193676Y-25297314D01*
X-1193673Y-25297315D01*
X-1088848Y-25331374D01*
X-984020Y-25365434D01*
X-766291Y-25399919D01*
X-766290Y-25399919D01*
X-545848Y-25399919D01*
X-545847Y-25399919D01*
X-328118Y-25365434D01*
X-118463Y-25297314D01*
X77953Y-25197234D01*
X166173Y-25133138D01*
X231826Y-25085440D01*
X231827Y-25085439D01*
X256292Y-25067664D01*
X256292Y-25067663D01*
X256296Y-25067661D01*
X412173Y-24911784D01*
X541746Y-24733441D01*
X641826Y-24537025D01*
X709946Y-24327370D01*
X744431Y-24109641D01*
X744431Y-23889197D01*
X709946Y-23671468D01*
X641826Y-23461813D01*
X641826Y-23461812D01*
X607168Y-23393794D01*
X541746Y-23265397D01*
X501071Y-23209412D01*
X412178Y-23087060D01*
X412174Y-23087055D01*
X256296Y-22931177D01*
X231825Y-22913398D01*
X231823Y-22913395D01*
X77956Y-22801606D01*
X77955Y-22801605D01*
X77953Y-22801604D01*
X15027Y-22769541D01*
X-118463Y-22701523D01*
X-118466Y-22701522D01*
X-328117Y-22633404D01*
X-436983Y-22616161D01*
X-545847Y-22598919D01*
X-766291Y-22598919D01*
X-838868Y-22610414D01*
X-984022Y-22633404D01*
X-1193673Y-22701522D01*
X-1193676Y-22701523D01*
X-1390095Y-22801606D01*
X-1568428Y-22931171D01*
X-1568433Y-22931175D01*
X-1724313Y-23087055D01*
X-1724317Y-23087060D01*
X-1853882Y-23265393D01*
X-1953965Y-23461812D01*
X-1953966Y-23461815D01*
X-2022084Y-23671466D01*
X-2056569Y-23889197D01*
X-25199500Y-23889197D01*
X-25199500Y-21344719D01*
X-4946074Y-21344719D01*
X-4946074Y-21574108D01*
X-4946073Y-21574124D01*
X-4916132Y-21801551D01*
X-4856756Y-22023144D01*
X-4768972Y-22235073D01*
X-4768968Y-22235083D01*
X-4654275Y-22433738D01*
X-4654269Y-22433745D01*
X-4597693Y-22507478D01*
X-3873663Y-21783448D01*
X-3860727Y-21814678D01*
X-3778647Y-21937519D01*
X-3674179Y-22041987D01*
X-3551338Y-22124067D01*
X-3520110Y-22137002D01*
X-4244140Y-22861031D01*
X-4244140Y-22861032D01*
X-4170408Y-22917608D01*
X-3971744Y-23032307D01*
X-3971734Y-23032311D01*
X-3759805Y-23120095D01*
X-3538212Y-23179471D01*
X-3310785Y-23209412D01*
X-3310768Y-23209414D01*
X-3081380Y-23209414D01*
X-3081364Y-23209412D01*
X-2853937Y-23179471D01*
X-2632344Y-23120095D01*
X-2420415Y-23032311D01*
X-2420406Y-23032307D01*
X-2221747Y-22917611D01*
X-2221740Y-22917606D01*
X-2148010Y-22861031D01*
X-2872039Y-22137002D01*
X-2840810Y-22124067D01*
X-2717969Y-22041987D01*
X-2613501Y-21937519D01*
X-2531421Y-21814678D01*
X-2518486Y-21783449D01*
X-1794457Y-22507478D01*
X-1737882Y-22433748D01*
X-1737877Y-22433741D01*
X-1623181Y-22235082D01*
X-1623177Y-22235073D01*
X-1535393Y-22023144D01*
X-1476017Y-21801551D01*
X-1446076Y-21574124D01*
X-1446074Y-21574108D01*
X-1446074Y-21344719D01*
X133936Y-21344719D01*
X133936Y-21574108D01*
X133937Y-21574124D01*
X163878Y-21801551D01*
X223254Y-22023144D01*
X311038Y-22235073D01*
X311042Y-22235083D01*
X425735Y-22433738D01*
X425741Y-22433745D01*
X482317Y-22507478D01*
X1206347Y-21783448D01*
X1219283Y-21814678D01*
X1301363Y-21937519D01*
X1405831Y-22041987D01*
X1528672Y-22124067D01*
X1559900Y-22137002D01*
X835870Y-22861031D01*
X835870Y-22861032D01*
X909602Y-22917608D01*
X1108266Y-23032307D01*
X1108276Y-23032311D01*
X1320205Y-23120095D01*
X1541798Y-23179471D01*
X1769225Y-23209412D01*
X1769242Y-23209414D01*
X1998630Y-23209414D01*
X1998646Y-23209412D01*
X2226073Y-23179471D01*
X2447666Y-23120095D01*
X2659595Y-23032311D01*
X2659604Y-23032307D01*
X2858263Y-22917611D01*
X2858270Y-22917606D01*
X2932000Y-22861031D01*
X2207971Y-22137002D01*
X2239200Y-22124067D01*
X2362041Y-22041987D01*
X2466509Y-21937519D01*
X2548589Y-21814678D01*
X2561524Y-21783449D01*
X3285553Y-22507478D01*
X3342128Y-22433748D01*
X3342133Y-22433741D01*
X3456829Y-22235082D01*
X3456833Y-22235073D01*
X3544617Y-22023144D01*
X3603993Y-21801551D01*
X3633934Y-21574124D01*
X3633936Y-21574108D01*
X3633936Y-21344719D01*
X3633934Y-21344703D01*
X3603993Y-21117276D01*
X3544617Y-20895683D01*
X3456833Y-20683754D01*
X3456829Y-20683744D01*
X3342130Y-20485080D01*
X3285554Y-20411348D01*
X3285553Y-20411348D01*
X2561523Y-21135377D01*
X2548589Y-21104150D01*
X2466509Y-20981309D01*
X2362041Y-20876841D01*
X2239200Y-20794761D01*
X2207969Y-20781825D01*
X2932000Y-20057795D01*
X2932000Y-20057794D01*
X2858267Y-20001219D01*
X2858260Y-20001213D01*
X2659605Y-19886520D01*
X2659595Y-19886516D01*
X2447666Y-19798732D01*
X2226073Y-19739356D01*
X1998646Y-19709415D01*
X1998630Y-19709414D01*
X1769242Y-19709414D01*
X1769225Y-19709415D01*
X1541798Y-19739356D01*
X1320205Y-19798732D01*
X1108276Y-19886516D01*
X1108266Y-19886520D01*
X909609Y-20001215D01*
X909595Y-20001224D01*
X835870Y-20057794D01*
X1559900Y-20781825D01*
X1528672Y-20794761D01*
X1405831Y-20876841D01*
X1301363Y-20981309D01*
X1219283Y-21104150D01*
X1206347Y-21135378D01*
X482316Y-20411348D01*
X425746Y-20485073D01*
X425737Y-20485087D01*
X311042Y-20683744D01*
X311038Y-20683754D01*
X223254Y-20895683D01*
X163878Y-21117276D01*
X133937Y-21344703D01*
X133936Y-21344719D01*
X-1446074Y-21344719D01*
X-1446076Y-21344703D01*
X-1476017Y-21117276D01*
X-1535393Y-20895683D01*
X-1623177Y-20683754D01*
X-1623181Y-20683744D01*
X-1737880Y-20485080D01*
X-1794456Y-20411348D01*
X-1794457Y-20411348D01*
X-2518487Y-21135377D01*
X-2531421Y-21104150D01*
X-2613501Y-20981309D01*
X-2717969Y-20876841D01*
X-2840810Y-20794761D01*
X-2872040Y-20781825D01*
X-2148010Y-20057795D01*
X-2148010Y-20057794D01*
X-2221743Y-20001219D01*
X-2221750Y-20001213D01*
X-2420405Y-19886520D01*
X-2420415Y-19886516D01*
X-2632344Y-19798732D01*
X-2853937Y-19739356D01*
X-3081364Y-19709415D01*
X-3081380Y-19709414D01*
X-3310768Y-19709414D01*
X-3310785Y-19709415D01*
X-3538214Y-19739356D01*
X-3742556Y-19794110D01*
X-3812406Y-19792447D01*
X-3870268Y-19753284D01*
X-3882037Y-19736333D01*
X-3889511Y-19723387D01*
X-3973387Y-19639511D01*
X-4076114Y-19580201D01*
X-4190691Y-19549500D01*
X-4309309Y-19549500D01*
X-4423886Y-19580201D01*
X-4423888Y-19580201D01*
X-4423888Y-19580202D01*
X-4526613Y-19639511D01*
X-4526616Y-19639513D01*
X-4610487Y-19723384D01*
X-4610489Y-19723387D01*
X-4669799Y-19826114D01*
X-4700500Y-19940691D01*
X-4700500Y-20059309D01*
X-4669799Y-20173886D01*
X-4669798Y-20173887D01*
X-4610489Y-20276613D01*
X-4610322Y-20276830D01*
X-4610239Y-20277045D01*
X-4606425Y-20283651D01*
X-4607455Y-20284245D01*
X-4585126Y-20341999D01*
X-4599163Y-20410444D01*
X-4610320Y-20427805D01*
X-4654269Y-20485080D01*
X-4768968Y-20683744D01*
X-4768972Y-20683754D01*
X-4856756Y-20895683D01*
X-4916132Y-21117276D01*
X-4946073Y-21344703D01*
X-4946074Y-21344719D01*
X-25199500Y-21344719D01*
X-25199500Y-19940691D01*
X-8200500Y-19940691D01*
X-8200500Y-20059309D01*
X-8169799Y-20173886D01*
X-8110489Y-20276613D01*
X-8026613Y-20360489D01*
X-7923886Y-20419799D01*
X-7809309Y-20450500D01*
X-7809306Y-20450500D01*
X-7690694Y-20450500D01*
X-7690691Y-20450500D01*
X-7576114Y-20419799D01*
X-7473387Y-20360489D01*
X-7389511Y-20276613D01*
X-7330201Y-20173886D01*
X-7299500Y-20059309D01*
X-7299500Y-19940691D01*
X-7330201Y-19826114D01*
X-7389511Y-19723387D01*
X-7473387Y-19639511D01*
X-7576114Y-19580201D01*
X-7690691Y-19549500D01*
X-7809309Y-19549500D01*
X-7923886Y-19580201D01*
X-7923888Y-19580201D01*
X-7923888Y-19580202D01*
X-8026613Y-19639511D01*
X-8026616Y-19639513D01*
X-8110487Y-19723384D01*
X-8110489Y-19723387D01*
X-8169799Y-19826114D01*
X-8200500Y-19940691D01*
X-25199500Y-19940691D01*
X-25199500Y-16944645D01*
X-4371258Y-16944645D01*
X-4371258Y-17063263D01*
X-4340557Y-17177840D01*
X-4281247Y-17280567D01*
X-4197371Y-17364443D01*
X-4094644Y-17423753D01*
X-3980067Y-17454454D01*
X-3980064Y-17454454D01*
X-3861452Y-17454454D01*
X-3861449Y-17454454D01*
X-3746872Y-17423753D01*
X-3644145Y-17364443D01*
X-3560269Y-17280567D01*
X-3500959Y-17177840D01*
X-3470258Y-17063263D01*
X-3470258Y-16944645D01*
X-3500959Y-16830068D01*
X-3560269Y-16727341D01*
X-3644145Y-16643465D01*
X-3746872Y-16584155D01*
X-3861449Y-16553454D01*
X-3980067Y-16553454D01*
X-4094644Y-16584155D01*
X-4094646Y-16584155D01*
X-4094646Y-16584156D01*
X-4197371Y-16643465D01*
X-4197374Y-16643467D01*
X-4281245Y-16727338D01*
X-4281247Y-16727341D01*
X-4340557Y-16830068D01*
X-4371258Y-16944645D01*
X-25199500Y-16944645D01*
X-25199500Y-8655043D01*
X-25199450Y-8651538D01*
X-25199259Y-8644784D01*
X-25197865Y-8595496D01*
X-25197372Y-8587413D01*
X-25174531Y-8344889D01*
X-25171843Y-8328389D01*
X-25134295Y-8167296D01*
X-25127777Y-8147240D01*
X-25083747Y-8042907D01*
X-25071601Y-8020747D01*
X-25026884Y-7955886D01*
X-25008212Y-7934527D01*
X-25007956Y-7934295D01*
X-24951005Y-7882523D01*
X-24933496Y-7869239D01*
X-24915095Y-7857697D01*
X-24902475Y-7850770D01*
X-24867099Y-7833953D01*
X-24854242Y-7828704D01*
X-24848055Y-7826573D01*
X-24808619Y-7812993D01*
X-24796110Y-7809409D01*
X-24739826Y-7796443D01*
X-24727971Y-7794314D01*
X-24655220Y-7784880D01*
X-24644288Y-7783954D01*
X-24555622Y-7780384D01*
X-24549199Y-7780126D01*
X-24544212Y-7780026D01*
X-20317969Y-7780026D01*
X-20317966Y-7780027D01*
X-20270371Y-7780026D01*
X-20230814Y-7780026D01*
X-20220837Y-7780026D01*
X-20220808Y-7780022D01*
X-20152361Y-7780022D01*
X-19918361Y-7749212D01*
X-19690383Y-7688123D01*
X-19472330Y-7597801D01*
X-19267931Y-7479789D01*
X-19080684Y-7336109D01*
X-18913792Y-7169218D01*
X-18770112Y-6981971D01*
X-18746279Y-6940691D01*
X-9200503Y-6940691D01*
X-9200503Y-7059309D01*
X-9169802Y-7173886D01*
X-9110492Y-7276613D01*
X-9026616Y-7360489D01*
X-8923889Y-7419799D01*
X-8809312Y-7450500D01*
X-8809309Y-7450500D01*
X-8690697Y-7450500D01*
X-8690694Y-7450500D01*
X-8576117Y-7419799D01*
X-8473390Y-7360489D01*
X-8462682Y-7349780D01*
X-8401364Y-7316297D01*
X-8331672Y-7321279D01*
X-8287321Y-7349781D01*
X-8276613Y-7360489D01*
X-8173886Y-7419799D01*
X-8059309Y-7450500D01*
X-8059306Y-7450500D01*
X-7940694Y-7450500D01*
X-7940691Y-7450500D01*
X-7826114Y-7419799D01*
X-7723387Y-7360489D01*
X-7639511Y-7276613D01*
X-7580201Y-7173886D01*
X-7549500Y-7059309D01*
X-7549500Y-6940691D01*
X-7580201Y-6826114D01*
X-7639511Y-6723387D01*
X-7723387Y-6639511D01*
X-7826114Y-6580201D01*
X-7940691Y-6549500D01*
X-8059309Y-6549500D01*
X-8173886Y-6580201D01*
X-8173888Y-6580201D01*
X-8173888Y-6580202D01*
X-8276613Y-6639511D01*
X-8276614Y-6639511D01*
X-8287323Y-6650221D01*
X-8348648Y-6683704D01*
X-8418339Y-6678717D01*
X-8462683Y-6650218D01*
X-8473388Y-6639513D01*
X-8473390Y-6639511D01*
X-8576117Y-6580201D01*
X-8690694Y-6549500D01*
X-8809312Y-6549500D01*
X-8923889Y-6580201D01*
X-8923891Y-6580201D01*
X-8923891Y-6580202D01*
X-9026616Y-6639511D01*
X-9026619Y-6639513D01*
X-9110490Y-6723384D01*
X-9110492Y-6723387D01*
X-9143193Y-6780027D01*
X-9169802Y-6826114D01*
X-9200503Y-6940691D01*
X-18746279Y-6940691D01*
X-18652101Y-6777572D01*
X-18561778Y-6559519D01*
X-18500688Y-6331542D01*
X-18469878Y-6097541D01*
X-18469877Y-6019090D01*
X-18469876Y-6019088D01*
X-18469876Y-5967339D01*
X-18469875Y-5931937D01*
X-18469876Y-5931933D01*
X-18469876Y-4939964D01*
X-18469876Y-4895390D01*
X-18504862Y-4730795D01*
X-18573304Y-4577072D01*
X-18672212Y-4440937D01*
X-18687661Y-4427027D01*
X-18697122Y-4418507D01*
X-18797262Y-4328341D01*
X-18942990Y-4244205D01*
X-18942996Y-4244202D01*
X-19103023Y-4192207D01*
X-19103026Y-4192206D01*
X-19270376Y-4174617D01*
X-19270377Y-4174617D01*
X-19314805Y-4179286D01*
X-19412540Y-4189558D01*
X-19481268Y-4176989D01*
X-19532292Y-4129257D01*
X-19549500Y-4066238D01*
X-19549500Y-3940693D01*
X-19549500Y-3940691D01*
X-19580201Y-3826114D01*
X-19590108Y-3808954D01*
X-19592995Y-3803953D01*
X-19592996Y-3803951D01*
X-19624100Y-3750080D01*
X-4977640Y-3750080D01*
X-4977640Y-3868698D01*
X-4946939Y-3983275D01*
X-4887629Y-4086002D01*
X-4803753Y-4169878D01*
X-4701026Y-4229188D01*
X-4586449Y-4259889D01*
X-4586446Y-4259889D01*
X-4467834Y-4259889D01*
X-4467831Y-4259889D01*
X-4353254Y-4229188D01*
X-4250527Y-4169878D01*
X-4166651Y-4086002D01*
X-4107341Y-3983275D01*
X-4076640Y-3868698D01*
X-4076640Y-3750080D01*
X-4107341Y-3635503D01*
X-4166651Y-3532776D01*
X-4250527Y-3448900D01*
X-4353254Y-3389590D01*
X-4467831Y-3358889D01*
X-4586449Y-3358889D01*
X-4701026Y-3389590D01*
X-4701028Y-3389590D01*
X-4701028Y-3389591D01*
X-4803753Y-3448900D01*
X-4803756Y-3448902D01*
X-4887627Y-3532773D01*
X-4887629Y-3532776D01*
X-4938004Y-3620028D01*
X-4946939Y-3635503D01*
X-4977640Y-3750080D01*
X-19624100Y-3750080D01*
X-19639508Y-3723393D01*
X-19639511Y-3723387D01*
X-19723387Y-3639511D01*
X-19826114Y-3580201D01*
X-19940691Y-3549500D01*
X-20059309Y-3549500D01*
X-20173886Y-3580201D01*
X-20173888Y-3580201D01*
X-20173888Y-3580202D01*
X-20276613Y-3639511D01*
X-20276616Y-3639513D01*
X-20360487Y-3723384D01*
X-20360489Y-3723387D01*
X-20419799Y-3826114D01*
X-20450500Y-3940691D01*
X-20450500Y-4059309D01*
X-20419799Y-4173886D01*
X-20360489Y-4276613D01*
X-20276613Y-4360489D01*
X-20173886Y-4419799D01*
X-20067128Y-4448404D01*
X-20007470Y-4484768D01*
X-19976941Y-4547614D01*
X-19985235Y-4616990D01*
X-19985944Y-4618613D01*
X-20035891Y-4730794D01*
X-20035891Y-4730795D01*
X-20070876Y-4895390D01*
X-20070876Y-5473420D01*
X-20071473Y-5485577D01*
X-20083123Y-5603832D01*
X-20087866Y-5627673D01*
X-20120583Y-5735517D01*
X-20129885Y-5757973D01*
X-20183014Y-5857369D01*
X-20196519Y-5877580D01*
X-20268015Y-5964698D01*
X-20285203Y-5981886D01*
X-20372321Y-6053382D01*
X-20392532Y-6066887D01*
X-20491927Y-6120016D01*
X-20514384Y-6129318D01*
X-20622229Y-6162034D01*
X-20646069Y-6166777D01*
X-20764076Y-6178402D01*
X-20776729Y-6178998D01*
X-22971630Y-6170222D01*
X-22971673Y-6170222D01*
X-22981739Y-6170178D01*
X-22982308Y-6169994D01*
X-23024150Y-6169994D01*
X-23024380Y-6169993D01*
X-23024482Y-6169962D01*
X-23035925Y-6169404D01*
X-23153521Y-6157889D01*
X-23177229Y-6153201D01*
X-23284526Y-6120853D01*
X-23306875Y-6111655D01*
X-23405857Y-6059110D01*
X-23425997Y-6045753D01*
X-23512911Y-5975003D01*
X-23530077Y-5957993D01*
X-23601617Y-5871727D01*
X-23615157Y-5851710D01*
X-23651863Y-5784063D01*
X-23668604Y-5753209D01*
X-23678003Y-5730952D01*
X-23711332Y-5623943D01*
X-23716233Y-5600290D01*
X-23725606Y-5512814D01*
X-23728697Y-5483953D01*
X-23729403Y-5470743D01*
X-23729395Y-4360489D01*
X-23729385Y-2800110D01*
X-13790088Y-2800110D01*
X-13790088Y-2918728D01*
X-13759387Y-3033305D01*
X-13700077Y-3136032D01*
X-13616201Y-3219908D01*
X-13513474Y-3279218D01*
X-13398897Y-3309919D01*
X-13398894Y-3309919D01*
X-13280282Y-3309919D01*
X-13280279Y-3309919D01*
X-13183937Y-3284104D01*
X1892913Y-3284104D01*
X1892913Y-3402722D01*
X1923614Y-3517299D01*
X1982924Y-3620026D01*
X2066800Y-3703902D01*
X2169527Y-3763212D01*
X2284104Y-3793913D01*
X2284107Y-3793913D01*
X2402719Y-3793913D01*
X2402722Y-3793913D01*
X2517299Y-3763212D01*
X2620026Y-3703902D01*
X2633592Y-3690336D01*
X4549500Y-3690336D01*
X4549500Y-3808954D01*
X4580201Y-3923531D01*
X4639511Y-4026258D01*
X4723387Y-4110134D01*
X4826114Y-4169444D01*
X4940691Y-4200145D01*
X4940694Y-4200145D01*
X5059306Y-4200145D01*
X5059309Y-4200145D01*
X5173886Y-4169444D01*
X5276613Y-4110134D01*
X5360489Y-4026258D01*
X5419799Y-3923531D01*
X5450500Y-3808954D01*
X5450500Y-3690336D01*
X5419799Y-3575759D01*
X5360489Y-3473032D01*
X5276613Y-3389156D01*
X5173886Y-3329846D01*
X5059309Y-3299145D01*
X4940691Y-3299145D01*
X4826114Y-3329846D01*
X4826112Y-3329846D01*
X4826112Y-3329847D01*
X4723387Y-3389156D01*
X4723384Y-3389158D01*
X4639513Y-3473029D01*
X4639511Y-3473032D01*
X4580201Y-3575759D01*
X4549500Y-3690336D01*
X2633592Y-3690336D01*
X2703902Y-3620026D01*
X2763212Y-3517299D01*
X2793913Y-3402722D01*
X2793913Y-3284104D01*
X2763212Y-3169527D01*
X2703902Y-3066800D01*
X2620026Y-2982924D01*
X2517299Y-2923614D01*
X2402722Y-2892913D01*
X2284104Y-2892913D01*
X2169527Y-2923614D01*
X2169525Y-2923614D01*
X2169525Y-2923615D01*
X2066800Y-2982924D01*
X2066797Y-2982926D01*
X1982926Y-3066797D01*
X1982924Y-3066800D01*
X1942953Y-3136032D01*
X1923614Y-3169527D01*
X1892913Y-3284104D01*
X-13183937Y-3284104D01*
X-13165702Y-3279218D01*
X-13062975Y-3219908D01*
X-12979099Y-3136032D01*
X-12919789Y-3033305D01*
X-12889088Y-2918728D01*
X-12889088Y-2800110D01*
X-12919789Y-2685533D01*
X-12979099Y-2582806D01*
X-13062975Y-2498930D01*
X-13165702Y-2439620D01*
X-13280279Y-2408919D01*
X-13398897Y-2408919D01*
X-13513474Y-2439620D01*
X-13513476Y-2439620D01*
X-13513476Y-2439621D01*
X-13616201Y-2498930D01*
X-13616204Y-2498932D01*
X-13700075Y-2582803D01*
X-13700077Y-2582806D01*
X-13759387Y-2685533D01*
X-13790088Y-2800110D01*
X-23729385Y-2800110D01*
X-23729375Y-1282180D01*
X-17102914Y-1282180D01*
X-17102914Y-1400798D01*
X-17072213Y-1515375D01*
X-17012903Y-1618102D01*
X-16929027Y-1701978D01*
X-16826300Y-1761288D01*
X-16711723Y-1791989D01*
X-16711720Y-1791989D01*
X-16593108Y-1791989D01*
X-16593105Y-1791989D01*
X-16478528Y-1761288D01*
X-16375801Y-1701978D01*
X-16291925Y-1618102D01*
X-16232615Y-1515375D01*
X-16201914Y-1400798D01*
X-16201914Y-1387809D01*
X-14546511Y-1387809D01*
X-14546511Y-1506427D01*
X-14515810Y-1621004D01*
X-14456500Y-1723731D01*
X-14372624Y-1807607D01*
X-14269897Y-1866917D01*
X-14155320Y-1897618D01*
X-14155317Y-1897618D01*
X-14036705Y-1897618D01*
X-14036702Y-1897618D01*
X-13922125Y-1866917D01*
X-13819398Y-1807607D01*
X-13735522Y-1723731D01*
X-13676212Y-1621004D01*
X-13645511Y-1506427D01*
X-13645511Y-1387809D01*
X-13676212Y-1273232D01*
X-13677527Y-1270954D01*
X-8775874Y-1270954D01*
X-8775874Y-1389572D01*
X-8745173Y-1504149D01*
X-8685863Y-1606876D01*
X-8601987Y-1690752D01*
X-8499260Y-1750062D01*
X-8384683Y-1780763D01*
X-8384680Y-1780763D01*
X-8266068Y-1780763D01*
X-8266065Y-1780763D01*
X-8151488Y-1750062D01*
X-8048761Y-1690752D01*
X-7964885Y-1606876D01*
X-7905575Y-1504149D01*
X-7896787Y-1471348D01*
X-7860423Y-1411689D01*
X-7797576Y-1381159D01*
X-7728200Y-1389453D01*
X-7715015Y-1396053D01*
X-7673886Y-1419799D01*
X-7559309Y-1450500D01*
X-7559306Y-1450500D01*
X-7440694Y-1450500D01*
X-7440691Y-1450500D01*
X-7326114Y-1419799D01*
X-7223387Y-1360489D01*
X-7139511Y-1276613D01*
X-7080201Y-1173886D01*
X-7075980Y-1158132D01*
X-7039619Y-1098474D01*
X-6976773Y-1067943D01*
X-6924115Y-1070449D01*
X-6872683Y-1084231D01*
X-6872681Y-1084231D01*
X-6754068Y-1084231D01*
X-6754065Y-1084231D01*
X-6639488Y-1053530D01*
X-6536761Y-994220D01*
X-6452885Y-910344D01*
X-6393575Y-807617D01*
X-6362874Y-693040D01*
X-6362874Y-574422D01*
X-6393575Y-459845D01*
X-6452885Y-357118D01*
X-6536761Y-273242D01*
X-6639488Y-213932D01*
X-6754065Y-183231D01*
X-6872683Y-183231D01*
X-6987260Y-213932D01*
X-6987262Y-213932D01*
X-6987262Y-213933D01*
X-7089987Y-273242D01*
X-7089990Y-273244D01*
X-7173861Y-357115D01*
X-7173863Y-357118D01*
X-7233174Y-459845D01*
X-7233174Y-459846D01*
X-7237395Y-475600D01*
X-7273760Y-535260D01*
X-7336608Y-565788D01*
X-7389261Y-563280D01*
X-7440690Y-549500D01*
X-7440691Y-549500D01*
X-7559309Y-549500D01*
X-7673886Y-580201D01*
X-7673888Y-580201D01*
X-7673888Y-580202D01*
X-7776613Y-639511D01*
X-7776616Y-639513D01*
X-7860487Y-723384D01*
X-7860489Y-723387D01*
X-7919800Y-826114D01*
X-7928589Y-858916D01*
X-7964955Y-918576D01*
X-8027803Y-949104D01*
X-8097178Y-940807D01*
X-8110363Y-934207D01*
X-8151485Y-910465D01*
X-8151484Y-910465D01*
X-8160880Y-907947D01*
X-8266065Y-879763D01*
X-8384683Y-879763D01*
X-8499260Y-910464D01*
X-8499262Y-910464D01*
X-8499262Y-910465D01*
X-8601987Y-969774D01*
X-8601990Y-969776D01*
X-8685861Y-1053647D01*
X-8685863Y-1053650D01*
X-8745173Y-1156377D01*
X-8775874Y-1270954D01*
X-13677527Y-1270954D01*
X-13735522Y-1170505D01*
X-13819398Y-1086629D01*
X-13922125Y-1027319D01*
X-14036702Y-996618D01*
X-14155320Y-996618D01*
X-14269897Y-1027319D01*
X-14269899Y-1027319D01*
X-14269899Y-1027320D01*
X-14372624Y-1086629D01*
X-14372627Y-1086631D01*
X-14456498Y-1170502D01*
X-14456500Y-1170505D01*
X-14515810Y-1273232D01*
X-14546511Y-1387809D01*
X-16201914Y-1387809D01*
X-16201914Y-1282180D01*
X-16232615Y-1167603D01*
X-16291925Y-1064876D01*
X-16375801Y-981000D01*
X-16478528Y-921690D01*
X-16593105Y-890989D01*
X-16711723Y-890989D01*
X-16826300Y-921690D01*
X-16826302Y-921690D01*
X-16826302Y-921691D01*
X-16929027Y-981000D01*
X-16929030Y-981002D01*
X-17012901Y-1064873D01*
X-17012903Y-1064876D01*
X-17065730Y-1156375D01*
X-17072213Y-1167603D01*
X-17102914Y-1282180D01*
X-23729375Y-1282180D01*
X-23729370Y-440691D01*
X-12200500Y-440691D01*
X-12200500Y-559309D01*
X-12169799Y-673886D01*
X-12110489Y-776613D01*
X-12026613Y-860489D01*
X-11923886Y-919799D01*
X-11809309Y-950500D01*
X-11809306Y-950500D01*
X-11690694Y-950500D01*
X-11690691Y-950500D01*
X-11576114Y-919799D01*
X-11473387Y-860489D01*
X-11389511Y-776613D01*
X-11330201Y-673886D01*
X-11299500Y-559309D01*
X-11299500Y-440691D01*
X-11330201Y-326114D01*
X-11389511Y-223387D01*
X-11473387Y-139511D01*
X-11576114Y-80201D01*
X-11690691Y-49500D01*
X-11809309Y-49500D01*
X-11923886Y-80201D01*
X-11923888Y-80201D01*
X-11923888Y-80202D01*
X-12026613Y-139511D01*
X-12026616Y-139513D01*
X-12110487Y-223384D01*
X-12110489Y-223387D01*
X-12169799Y-326114D01*
X-12200500Y-440691D01*
X-23729370Y-440691D01*
X-23729357Y1511206D01*
X-23728651Y1524390D01*
X-23715992Y1642447D01*
X-23711091Y1666092D01*
X-23677383Y1774289D01*
X-23667983Y1796545D01*
X-23613935Y1896140D01*
X-23600399Y1916147D01*
X-23528059Y2003368D01*
X-23510899Y2020371D01*
X-23423011Y2091908D01*
X-23402878Y2105259D01*
X-23302792Y2158386D01*
X-23280449Y2167580D01*
X-23215102Y2187281D01*
X-23171958Y2200287D01*
X-23148262Y2204973D01*
X-23029370Y2216614D01*
X-23017450Y2217202D01*
X-23012471Y2217207D01*
X-23012325Y2217207D01*
X-22966390Y2217207D01*
X-22965678Y2217266D01*
X-20776544Y2219967D01*
X-20764256Y2219371D01*
X-20646070Y2207727D01*
X-20622241Y2202986D01*
X-20514394Y2170269D01*
X-20491938Y2160966D01*
X-20392549Y2107839D01*
X-20372344Y2094338D01*
X-20329660Y2059307D01*
X-20285225Y2022838D01*
X-20268039Y2005651D01*
X-20214733Y1940694D01*
X-20196547Y1918534D01*
X-20183043Y1898322D01*
X-20129923Y1798937D01*
X-20120620Y1776478D01*
X-20087907Y1668628D01*
X-20083166Y1644786D01*
X-20071474Y1526035D01*
X-20070877Y1513885D01*
X-20070877Y1462900D01*
X-20070876Y1462887D01*
X-20070876Y987212D01*
X-20090561Y920173D01*
X-20143365Y874418D01*
X-20212523Y864474D01*
X-20256876Y879825D01*
X-20326111Y919798D01*
X-20326110Y919798D01*
X-20335506Y922316D01*
X-20440691Y950500D01*
X-20559309Y950500D01*
X-20673886Y919799D01*
X-20673888Y919799D01*
X-20673888Y919798D01*
X-20776613Y860489D01*
X-20776616Y860487D01*
X-20860487Y776616D01*
X-20860489Y776613D01*
X-20919799Y673886D01*
X-20950500Y559309D01*
X-20950500Y440691D01*
X-20919799Y326114D01*
X-20860489Y223387D01*
X-20776613Y139511D01*
X-20673886Y80201D01*
X-20559309Y49500D01*
X-20559306Y49500D01*
X-20440694Y49500D01*
X-20440691Y49500D01*
X-20326114Y80201D01*
X-20223387Y139511D01*
X-20139511Y223387D01*
X-20080201Y326114D01*
X-20057806Y409694D01*
X-20021444Y469350D01*
X-19958597Y499880D01*
X-19889221Y491586D01*
X-19855061Y469747D01*
X-19822790Y440691D01*
X-19743490Y369289D01*
X-19597762Y285153D01*
X-19597760Y285153D01*
X-19597757Y285151D01*
X-19541912Y267007D01*
X-19437726Y233154D01*
X-19270376Y215565D01*
X-19103026Y233154D01*
X-18942990Y285153D01*
X-18797262Y369289D01*
X-18749455Y412335D01*
X-18103302Y412335D01*
X-18103302Y293717D01*
X-18072601Y179140D01*
X-18013291Y76413D01*
X-17929415Y-7463D01*
X-17826688Y-66773D01*
X-17712111Y-97474D01*
X-17712108Y-97474D01*
X-17593496Y-97474D01*
X-17593493Y-97474D01*
X-17478916Y-66773D01*
X-17376189Y-7463D01*
X-17292313Y76413D01*
X-17233003Y179140D01*
X-17202302Y293717D01*
X-17202302Y412335D01*
X-17233003Y526912D01*
X-17292313Y629639D01*
X-17376189Y713515D01*
X-17478916Y772825D01*
X-17593493Y803526D01*
X-17712111Y803526D01*
X-17826688Y772825D01*
X-17826690Y772825D01*
X-17826690Y772824D01*
X-17929415Y713515D01*
X-17929418Y713513D01*
X-18013289Y629642D01*
X-18013291Y629639D01*
X-18053896Y559309D01*
X-18072601Y526912D01*
X-18103302Y412335D01*
X-18749455Y412335D01*
X-18686133Y469350D01*
X-18672217Y481880D01*
X-18672217Y481882D01*
X-18672212Y481885D01*
X-18573304Y618019D01*
X-18504862Y771743D01*
X-18469876Y936338D01*
X-18469876Y1020474D01*
X-18469876Y1068069D01*
X-18469876Y2059309D01*
X-4875500Y2059309D01*
X-4875500Y1940691D01*
X-4844799Y1826114D01*
X-4785489Y1723387D01*
X-4701613Y1639511D01*
X-4598886Y1580201D01*
X-4484309Y1549500D01*
X-4484306Y1549500D01*
X-4365694Y1549500D01*
X-4365691Y1549500D01*
X-4251114Y1580201D01*
X-4148387Y1639511D01*
X-4064511Y1723387D01*
X-4005201Y1826114D01*
X-3974500Y1940691D01*
X-3974500Y2059309D01*
X-4005201Y2173886D01*
X-4064511Y2276613D01*
X-4148387Y2360489D01*
X-4251114Y2419799D01*
X-4365691Y2450500D01*
X-4484309Y2450500D01*
X-4598886Y2419799D01*
X-4598888Y2419799D01*
X-4598888Y2419798D01*
X-4701613Y2360489D01*
X-4701616Y2360487D01*
X-4785487Y2276616D01*
X-4785489Y2276613D01*
X-4828527Y2202069D01*
X-4844799Y2173886D01*
X-4875500Y2059309D01*
X-18469876Y2059309D01*
X-18469876Y2060036D01*
X-18469876Y2067855D01*
X-18469926Y2068610D01*
X-18469924Y2138478D01*
X-18500727Y2372478D01*
X-18561809Y2600456D01*
X-18580498Y2645578D01*
X-13378827Y2645578D01*
X-13378827Y2526960D01*
X-13348126Y2412383D01*
X-13288816Y2309656D01*
X-13204940Y2225780D01*
X-13102213Y2166470D01*
X-12987636Y2135769D01*
X-12987633Y2135769D01*
X-12869021Y2135769D01*
X-12869018Y2135769D01*
X-12754441Y2166470D01*
X-12651714Y2225780D01*
X-12567838Y2309656D01*
X-12508528Y2412383D01*
X-12477827Y2526960D01*
X-12477827Y2645578D01*
X-12508528Y2760155D01*
X-12567838Y2862882D01*
X-12651714Y2946758D01*
X-12754441Y3006068D01*
X-12869018Y3036769D01*
X-12987636Y3036769D01*
X-13102213Y3006068D01*
X-13102215Y3006068D01*
X-13102215Y3006067D01*
X-13204940Y2946758D01*
X-13204943Y2946756D01*
X-13288814Y2862885D01*
X-13288816Y2862882D01*
X-13348126Y2760155D01*
X-13378827Y2645578D01*
X-18580498Y2645578D01*
X-18652126Y2818510D01*
X-18652131Y2818519D01*
X-18652131Y2818520D01*
X-18770125Y3022900D01*
X-18770128Y3022904D01*
X-18770132Y3022911D01*
X-18913808Y3210159D01*
X-19080695Y3377053D01*
X-19080700Y3377058D01*
X-19200583Y3469051D01*
X-19200598Y3469061D01*
X-19267936Y3520733D01*
X-19334749Y3559309D01*
X68982Y3559309D01*
X68982Y3440691D01*
X99683Y3326114D01*
X158993Y3223387D01*
X242869Y3139511D01*
X345596Y3080201D01*
X460173Y3049500D01*
X460176Y3049500D01*
X578788Y3049500D01*
X578791Y3049500D01*
X693368Y3080201D01*
X796095Y3139511D01*
X879971Y3223387D01*
X939281Y3326114D01*
X969982Y3440691D01*
X969982Y3559309D01*
X939281Y3673886D01*
X879971Y3776613D01*
X796095Y3860489D01*
X693368Y3919799D01*
X578791Y3950500D01*
X460173Y3950500D01*
X345596Y3919799D01*
X345594Y3919799D01*
X345594Y3919798D01*
X242869Y3860489D01*
X242866Y3860487D01*
X158995Y3776616D01*
X158993Y3776613D01*
X116481Y3702980D01*
X99683Y3673886D01*
X68982Y3559309D01*
X-19334749Y3559309D01*
X-19472334Y3638747D01*
X-19472344Y3638752D01*
X-19690389Y3729073D01*
X-19690392Y3729074D01*
X-19918353Y3790159D01*
X-19918367Y3790162D01*
X-20152363Y3820973D01*
X-20222832Y3820974D01*
X-20230958Y3820975D01*
X-20231101Y3821012D01*
X-20270976Y3820975D01*
X-20317966Y3820975D01*
X-20327029Y3820975D01*
X-20327731Y3820921D01*
X-23241940Y3818145D01*
X-23246813Y3818236D01*
X-23349441Y3822174D01*
X-23359982Y3823030D01*
X-23440022Y3832979D01*
X-23451575Y3834974D01*
X-23512607Y3848510D01*
X-23524926Y3851917D01*
X-23574464Y3868409D01*
X-23587267Y3873477D01*
X-23624291Y3890568D01*
X-23637034Y3897377D01*
X-23656020Y3908993D01*
X-23673951Y3922324D01*
X-23686960Y3933954D01*
X-23729337Y3971840D01*
X-23748716Y3993807D01*
X-23789380Y4052679D01*
X-23802008Y4075929D01*
X-23841314Y4171389D01*
X-23844629Y4182086D01*
X2807638Y4182086D01*
X2807638Y4063468D01*
X2838339Y3948891D01*
X2897649Y3846164D01*
X2981525Y3762288D01*
X3084252Y3702978D01*
X3198829Y3672277D01*
X3198832Y3672277D01*
X3317444Y3672277D01*
X3317447Y3672277D01*
X3432024Y3702978D01*
X3534751Y3762288D01*
X3618627Y3846164D01*
X3677937Y3948891D01*
X3708638Y4063468D01*
X3708638Y4182086D01*
X3677937Y4296663D01*
X3618627Y4399390D01*
X3534751Y4483266D01*
X3432024Y4542576D01*
X3317447Y4573277D01*
X3198829Y4573277D01*
X3084252Y4542576D01*
X3084250Y4542576D01*
X3084250Y4542575D01*
X2981525Y4483266D01*
X2981522Y4483264D01*
X2897651Y4399393D01*
X2897649Y4399390D01*
X2838339Y4296663D01*
X2807638Y4182086D01*
X-23844629Y4182086D01*
X-23847919Y4192702D01*
X-23879945Y4342655D01*
X-23882413Y4360416D01*
X-23890493Y4483266D01*
X-23897419Y4588571D01*
X-23897678Y4598042D01*
X-23897261Y4636747D01*
X-23896736Y4644137D01*
X-23896736Y4647580D01*
X-23896736Y4685031D01*
X-23896730Y4686000D01*
X-23896326Y4723474D01*
X-23896328Y4723479D01*
X-23896290Y4726924D01*
X-23896734Y4734312D01*
X-23896732Y4779027D01*
X-23896695Y6059309D01*
X8549500Y6059309D01*
X8549500Y5940691D01*
X8580201Y5826114D01*
X8639511Y5723387D01*
X8723387Y5639511D01*
X8779027Y5607387D01*
X8827242Y5556819D01*
X8840464Y5488212D01*
X8814496Y5423347D01*
X8779027Y5392613D01*
X8723387Y5360489D01*
X8723384Y5360487D01*
X8639513Y5276616D01*
X8639511Y5276613D01*
X8580201Y5173886D01*
X8549500Y5059309D01*
X8549500Y4940691D01*
X8580201Y4826114D01*
X8639511Y4723387D01*
X8723387Y4639511D01*
X8826114Y4580201D01*
X8940691Y4549500D01*
X8940694Y4549500D01*
X9059306Y4549500D01*
X9059309Y4549500D01*
X9173886Y4580201D01*
X9276613Y4639511D01*
X9360489Y4723387D01*
X9392613Y4779028D01*
X9443180Y4827243D01*
X9511787Y4840465D01*
X9576652Y4814497D01*
X9607386Y4779028D01*
X9639511Y4723387D01*
X9723387Y4639511D01*
X9826114Y4580201D01*
X9940691Y4549500D01*
X9940694Y4549500D01*
X10059306Y4549500D01*
X10059309Y4549500D01*
X10173886Y4580201D01*
X10276613Y4639511D01*
X10360489Y4723387D01*
X10419799Y4826114D01*
X10450500Y4940691D01*
X10450500Y5059309D01*
X10419799Y5173886D01*
X10360489Y5276613D01*
X10276613Y5360489D01*
X10220972Y5392614D01*
X10172757Y5443180D01*
X10159535Y5511787D01*
X10185503Y5576652D01*
X10220973Y5607387D01*
X10276613Y5639511D01*
X10360489Y5723387D01*
X10419799Y5826114D01*
X10450500Y5940691D01*
X10450500Y6059309D01*
X10419799Y6173886D01*
X10360489Y6276613D01*
X10276613Y6360489D01*
X10173886Y6419799D01*
X10059309Y6450500D01*
X9940691Y6450500D01*
X9826114Y6419799D01*
X9826112Y6419799D01*
X9826112Y6419798D01*
X9723387Y6360489D01*
X9723384Y6360487D01*
X9639513Y6276616D01*
X9639511Y6276613D01*
X9607387Y6220973D01*
X9556819Y6172758D01*
X9488212Y6159536D01*
X9423347Y6185504D01*
X9392613Y6220973D01*
X9360489Y6276613D01*
X9276613Y6360489D01*
X9173886Y6419799D01*
X9059309Y6450500D01*
X8940691Y6450500D01*
X8826114Y6419799D01*
X8826112Y6419799D01*
X8826112Y6419798D01*
X8723387Y6360489D01*
X8723384Y6360487D01*
X8639513Y6276616D01*
X8639511Y6276613D01*
X8580201Y6173886D01*
X8549500Y6059309D01*
X-23896695Y6059309D01*
X-23896588Y9746392D01*
X-14559183Y9746392D01*
X-14559183Y9627774D01*
X-14528482Y9513197D01*
X-14469172Y9410470D01*
X-14385296Y9326594D01*
X-14282569Y9267284D01*
X-14167992Y9236583D01*
X-14167989Y9236583D01*
X-14049377Y9236583D01*
X-14049374Y9236583D01*
X-13934797Y9267284D01*
X-13832070Y9326594D01*
X-13748194Y9410470D01*
X-13688884Y9513197D01*
X-13658183Y9627774D01*
X-13658183Y9746392D01*
X-13667995Y9783009D01*
X3909719Y9783009D01*
X3909719Y9664391D01*
X3940420Y9549814D01*
X3999730Y9447087D01*
X4083606Y9363211D01*
X4186333Y9303901D01*
X4300910Y9273200D01*
X4300913Y9273200D01*
X4419525Y9273200D01*
X4419528Y9273200D01*
X4534105Y9303901D01*
X4636832Y9363211D01*
X4720708Y9447087D01*
X4780018Y9549814D01*
X4810719Y9664391D01*
X4810719Y9783009D01*
X4780018Y9897586D01*
X4720708Y10000313D01*
X4636832Y10084189D01*
X4605373Y10102352D01*
X14699500Y10102352D01*
X14699500Y9897649D01*
X14731522Y9695466D01*
X14794781Y9500777D01*
X14840795Y9410471D01*
X14883532Y9326595D01*
X14887715Y9318387D01*
X15008028Y9152787D01*
X15152786Y9008029D01*
X15307749Y8895444D01*
X15318390Y8887713D01*
X15434607Y8828497D01*
X15500776Y8794782D01*
X15500778Y8794782D01*
X15500781Y8794780D01*
X15605137Y8760873D01*
X15695465Y8731523D01*
X15796557Y8715512D01*
X15897648Y8699500D01*
X15897649Y8699500D01*
X16102351Y8699500D01*
X16102352Y8699500D01*
X16304534Y8731523D01*
X16499219Y8794780D01*
X16681610Y8887713D01*
X16774590Y8955268D01*
X16847213Y9008029D01*
X16847215Y9008032D01*
X16847219Y9008034D01*
X16991966Y9152781D01*
X16991968Y9152785D01*
X16991971Y9152787D01*
X17052851Y9236583D01*
X17112287Y9318390D01*
X17205220Y9500781D01*
X17268477Y9695466D01*
X17300500Y9897648D01*
X17300500Y10102352D01*
X17268477Y10304534D01*
X17260286Y10329742D01*
X17205218Y10499224D01*
X17145256Y10616904D01*
X17112287Y10681610D01*
X17073947Y10734381D01*
X16991971Y10847214D01*
X16847213Y10991972D01*
X16681613Y11112285D01*
X16681612Y11112286D01*
X16681610Y11112287D01*
X16624653Y11141309D01*
X16499223Y11205219D01*
X16304534Y11268478D01*
X16129995Y11296122D01*
X16102352Y11300500D01*
X15897648Y11300500D01*
X15873329Y11296649D01*
X15695465Y11268478D01*
X15500776Y11205219D01*
X15318386Y11112285D01*
X15152786Y10991972D01*
X15008028Y10847214D01*
X14887715Y10681614D01*
X14794781Y10499224D01*
X14731522Y10304535D01*
X14699500Y10102352D01*
X4605373Y10102352D01*
X4534105Y10143499D01*
X4419528Y10174200D01*
X4300910Y10174200D01*
X4186333Y10143499D01*
X4186331Y10143499D01*
X4186331Y10143498D01*
X4083606Y10084189D01*
X4083603Y10084187D01*
X3999732Y10000316D01*
X3999730Y10000313D01*
X3940420Y9897586D01*
X3909719Y9783009D01*
X-13667995Y9783009D01*
X-13688884Y9860969D01*
X-13748194Y9963696D01*
X-13832070Y10047572D01*
X-13934797Y10106882D01*
X-14049374Y10137583D01*
X-14167992Y10137583D01*
X-14282569Y10106882D01*
X-14282571Y10106882D01*
X-14282571Y10106881D01*
X-14385296Y10047572D01*
X-14385299Y10047570D01*
X-14469170Y9963699D01*
X-14469172Y9963696D01*
X-14528482Y9860969D01*
X-14559183Y9746392D01*
X-23896588Y9746392D01*
X-23896548Y11140619D01*
X4968190Y11140619D01*
X4968190Y11022001D01*
X4998891Y10907424D01*
X5058201Y10804697D01*
X5142077Y10720821D01*
X5244804Y10661511D01*
X5359381Y10630810D01*
X5359384Y10630810D01*
X5477996Y10630810D01*
X5477999Y10630810D01*
X5592576Y10661511D01*
X5695303Y10720821D01*
X5779179Y10804697D01*
X5838489Y10907424D01*
X5869190Y11022001D01*
X5869190Y11140619D01*
X5849664Y11213489D01*
X7549499Y11213489D01*
X7549499Y11094871D01*
X7580200Y10980294D01*
X7639510Y10877567D01*
X7723386Y10793691D01*
X7826113Y10734381D01*
X7940690Y10703680D01*
X7940693Y10703680D01*
X8059305Y10703680D01*
X8059308Y10703680D01*
X8173885Y10734381D01*
X8276612Y10793691D01*
X8360488Y10877567D01*
X8419798Y10980294D01*
X8450499Y11094871D01*
X8450499Y11213489D01*
X8419798Y11328066D01*
X8360488Y11430793D01*
X8276612Y11514669D01*
X8173885Y11573979D01*
X8059308Y11604680D01*
X7940690Y11604680D01*
X7826113Y11573979D01*
X7826111Y11573979D01*
X7826111Y11573978D01*
X7723386Y11514669D01*
X7723383Y11514667D01*
X7639512Y11430796D01*
X7639510Y11430793D01*
X7580200Y11328066D01*
X7549499Y11213489D01*
X5849664Y11213489D01*
X5838489Y11255196D01*
X5779179Y11357923D01*
X5695303Y11441799D01*
X5592576Y11501109D01*
X5477999Y11531810D01*
X5359381Y11531810D01*
X5244804Y11501109D01*
X5244802Y11501109D01*
X5244802Y11501108D01*
X5142077Y11441799D01*
X5142074Y11441797D01*
X5058203Y11357926D01*
X5058201Y11357923D01*
X5025048Y11300500D01*
X4998891Y11255196D01*
X4968190Y11140619D01*
X-23896548Y11140619D01*
X-23896442Y14809309D01*
X-3200500Y14809309D01*
X-3200500Y14690691D01*
X-3169799Y14576114D01*
X-3110489Y14473387D01*
X-3026613Y14389511D01*
X-2923886Y14330201D01*
X-2809309Y14299500D01*
X-2809306Y14299500D01*
X-2690694Y14299500D01*
X-2690691Y14299500D01*
X-2576114Y14330201D01*
X-2473387Y14389511D01*
X-2389511Y14473387D01*
X-2330201Y14576114D01*
X-2299500Y14690691D01*
X-2299500Y14809309D01*
X-2330201Y14923886D01*
X-2389511Y15026613D01*
X-2473387Y15110489D01*
X-2576114Y15169799D01*
X-2690691Y15200500D01*
X-2809309Y15200500D01*
X-2923886Y15169799D01*
X-2923888Y15169799D01*
X-2923888Y15169798D01*
X-3026613Y15110489D01*
X-3026616Y15110487D01*
X-3110487Y15026616D01*
X-3110489Y15026613D01*
X-3169799Y14923886D01*
X-3200500Y14809309D01*
X-23896442Y14809309D01*
X-23896365Y17468314D01*
X-16140897Y17468314D01*
X-16140897Y17349696D01*
X-16110196Y17235119D01*
X-16050886Y17132392D01*
X-15967010Y17048516D01*
X-15864283Y16989206D01*
X-15749706Y16958505D01*
X-15749703Y16958505D01*
X-15631091Y16958505D01*
X-15631088Y16958505D01*
X-15516511Y16989206D01*
X-15413784Y17048516D01*
X-15329908Y17132392D01*
X-15270598Y17235119D01*
X-15261103Y17270555D01*
X-3808370Y17270555D01*
X-3808370Y17151937D01*
X-3777669Y17037360D01*
X-3718359Y16934633D01*
X-3634483Y16850757D01*
X-3531756Y16791447D01*
X-3417179Y16760746D01*
X-3417176Y16760746D01*
X-3298564Y16760746D01*
X-3298561Y16760746D01*
X-3183984Y16791447D01*
X-3081257Y16850757D01*
X-2997381Y16934633D01*
X-2938071Y17037360D01*
X-2907370Y17151937D01*
X-2907370Y17270555D01*
X-2938071Y17385132D01*
X-2997381Y17487859D01*
X-3081257Y17571735D01*
X-3134287Y17602352D01*
X14699500Y17602352D01*
X14699500Y17397649D01*
X14731522Y17195466D01*
X14794781Y17000777D01*
X14828484Y16934633D01*
X14881481Y16830620D01*
X14887715Y16818387D01*
X15008028Y16652787D01*
X15152786Y16508029D01*
X15307749Y16395444D01*
X15318390Y16387713D01*
X15434607Y16328497D01*
X15500776Y16294782D01*
X15500778Y16294782D01*
X15500781Y16294780D01*
X15605137Y16260873D01*
X15695465Y16231523D01*
X15796557Y16215512D01*
X15897648Y16199500D01*
X15897649Y16199500D01*
X16102351Y16199500D01*
X16102352Y16199500D01*
X16304534Y16231523D01*
X16499219Y16294780D01*
X16681610Y16387713D01*
X16774590Y16455268D01*
X16847213Y16508029D01*
X16847215Y16508032D01*
X16847219Y16508034D01*
X16991966Y16652781D01*
X16991968Y16652785D01*
X16991971Y16652787D01*
X17044732Y16725410D01*
X17112287Y16818390D01*
X17205220Y17000781D01*
X17268477Y17195466D01*
X17300500Y17397648D01*
X17300500Y17602352D01*
X17268477Y17804534D01*
X17260286Y17829742D01*
X17205218Y17999224D01*
X17145256Y18116904D01*
X17112287Y18181610D01*
X17101736Y18196132D01*
X16991971Y18347214D01*
X16847213Y18491972D01*
X16681613Y18612285D01*
X16681612Y18612286D01*
X16681610Y18612287D01*
X16624653Y18641309D01*
X16499223Y18705219D01*
X16304534Y18768478D01*
X16129995Y18796122D01*
X16102352Y18800500D01*
X15897648Y18800500D01*
X15873329Y18796649D01*
X15695465Y18768478D01*
X15500776Y18705219D01*
X15318386Y18612285D01*
X15152786Y18491972D01*
X15008028Y18347214D01*
X14887715Y18181614D01*
X14794781Y17999224D01*
X14731522Y17804535D01*
X14699500Y17602352D01*
X-3134287Y17602352D01*
X-3183984Y17631045D01*
X-3298561Y17661746D01*
X-3417179Y17661746D01*
X-3531756Y17631045D01*
X-3531758Y17631045D01*
X-3531758Y17631044D01*
X-3634483Y17571735D01*
X-3634486Y17571733D01*
X-3718357Y17487862D01*
X-3718359Y17487859D01*
X-3777669Y17385132D01*
X-3808370Y17270555D01*
X-15261103Y17270555D01*
X-15239897Y17349696D01*
X-15239897Y17468314D01*
X-15270598Y17582891D01*
X-15329908Y17685618D01*
X-15413784Y17769494D01*
X-15516511Y17828804D01*
X-15631088Y17859505D01*
X-15749706Y17859505D01*
X-15864283Y17828804D01*
X-15864285Y17828804D01*
X-15864285Y17828803D01*
X-15967010Y17769494D01*
X-15967013Y17769492D01*
X-16050884Y17685621D01*
X-16050886Y17685618D01*
X-16110196Y17582891D01*
X-16140897Y17468314D01*
X-23896365Y17468314D01*
X-23896184Y23719255D01*
X-23894395Y23727903D01*
X-23896182Y23758712D01*
X-23896181Y23789553D01*
X-23896184Y23789562D01*
X-23897243Y23797618D01*
X-23897088Y23797639D01*
X-23899201Y23810746D01*
X-23904486Y23901860D01*
X-23913919Y24064514D01*
X-23912358Y24081478D01*
X-23916200Y24103842D01*
X-23917513Y24126495D01*
X-23919951Y24133856D01*
X-23924442Y24151830D01*
X-23969072Y24411671D01*
X-23970847Y24430815D01*
X-23970944Y24437363D01*
X-23975568Y24453644D01*
X-23978492Y24466517D01*
X-23981355Y24483186D01*
X-23981356Y24483191D01*
X-23984098Y24489139D01*
X-23990770Y24507175D01*
X-24053393Y24727691D01*
X-24067080Y24775890D01*
X-24068852Y24791127D01*
X-24077845Y24813798D01*
X-24084505Y24837251D01*
X-24087247Y24841841D01*
X-24096057Y24859710D01*
X-24195167Y25109568D01*
X-24195359Y25110055D01*
X-24199026Y25119413D01*
X-24202033Y25133407D01*
X-24212547Y25153924D01*
X-24213841Y25157227D01*
X-24215693Y25161314D01*
X-24222768Y25179151D01*
X-24225319Y25182582D01*
X-24235439Y25198851D01*
X-5568395Y25198851D01*
X-5568395Y24800355D01*
X-4868395Y24800355D01*
X-4868395Y24300355D01*
X-5568395Y24300355D01*
X-5568395Y23901860D01*
X-5529968Y23708674D01*
X-5529965Y23708662D01*
X-5454588Y23526684D01*
X-5454581Y23526671D01*
X-5345147Y23362893D01*
X-5345144Y23362889D01*
X-5205862Y23223607D01*
X-5205858Y23223604D01*
X-5042080Y23114170D01*
X-5042067Y23114163D01*
X-4860087Y23038786D01*
X-4818395Y23030493D01*
X-4818395Y23833368D01*
X-4808455Y23816151D01*
X-4752600Y23760296D01*
X-4684191Y23720800D01*
X-4607891Y23700356D01*
X-4528899Y23700356D01*
X-4452599Y23720800D01*
X-4384190Y23760296D01*
X-4328335Y23816151D01*
X-4318395Y23833368D01*
X-4318395Y23030493D01*
X-4276705Y23038786D01*
X-4276703Y23038786D01*
X-4094724Y23114163D01*
X-4094711Y23114170D01*
X-3930933Y23223604D01*
X-3930929Y23223607D01*
X-3791647Y23362889D01*
X-3791644Y23362893D01*
X-3682210Y23526671D01*
X-3682203Y23526684D01*
X-3606826Y23708662D01*
X-3606823Y23708674D01*
X-3568396Y23901860D01*
X-3568395Y23901863D01*
X-3568395Y24300355D01*
X-4268395Y24300355D01*
X-4268395Y24800355D01*
X-3672445Y24800355D01*
X-3605406Y24780670D01*
X-3565058Y24738356D01*
X-3558903Y24727694D01*
X-3558900Y24727690D01*
X-3461060Y24629850D01*
X-3341231Y24560667D01*
X-3207578Y24524855D01*
X-3207576Y24524855D01*
X-3069214Y24524855D01*
X-3069212Y24524855D01*
X-2935559Y24560667D01*
X-2815730Y24629850D01*
X-2717890Y24727690D01*
X-2648707Y24847519D01*
X-2612895Y24981172D01*
X-2612895Y25119538D01*
X2126105Y25119538D01*
X2126105Y24981172D01*
X2158651Y24859710D01*
X2161917Y24847520D01*
X2161918Y24847517D01*
X2231097Y24727694D01*
X2231099Y24727691D01*
X2231100Y24727690D01*
X2328940Y24629850D01*
X2448769Y24560667D01*
X2582422Y24524855D01*
X2582424Y24524855D01*
X2720786Y24524855D01*
X2720788Y24524855D01*
X2854441Y24560667D01*
X2974270Y24629850D01*
X3072110Y24727690D01*
X3078268Y24738356D01*
X3128836Y24786571D01*
X3185655Y24800355D01*
X3771605Y24800355D01*
X3771605Y24300355D01*
X3071605Y24300355D01*
X3071605Y23901860D01*
X3110032Y23708674D01*
X3110035Y23708662D01*
X3185412Y23526684D01*
X3185419Y23526671D01*
X3294853Y23362893D01*
X3294856Y23362889D01*
X3434138Y23223607D01*
X3434142Y23223604D01*
X3597920Y23114170D01*
X3597933Y23114163D01*
X3779913Y23038786D01*
X3821605Y23030493D01*
X3821605Y23833368D01*
X3831545Y23816151D01*
X3887400Y23760296D01*
X3955809Y23720800D01*
X4032109Y23700356D01*
X4111101Y23700356D01*
X4187401Y23720800D01*
X4255810Y23760296D01*
X4311665Y23816151D01*
X4321605Y23833368D01*
X4321605Y23030493D01*
X4363295Y23038786D01*
X4363297Y23038786D01*
X4545276Y23114163D01*
X4545289Y23114170D01*
X4709067Y23223604D01*
X4709071Y23223607D01*
X4848353Y23362889D01*
X4848356Y23362893D01*
X4957790Y23526671D01*
X4957797Y23526684D01*
X5033174Y23708662D01*
X5033177Y23708674D01*
X5071604Y23901860D01*
X5071605Y23901863D01*
X5071605Y24300355D01*
X4371605Y24300355D01*
X4371605Y24800355D01*
X5071605Y24800355D01*
X5071605Y25198847D01*
X5071604Y25198851D01*
X5033177Y25392037D01*
X5033174Y25392049D01*
X4957797Y25574027D01*
X4957790Y25574040D01*
X4848356Y25737818D01*
X4848353Y25737822D01*
X4709071Y25877104D01*
X4709067Y25877107D01*
X4545289Y25986541D01*
X4545276Y25986548D01*
X4363296Y26061926D01*
X4363288Y26061928D01*
X4321605Y26070220D01*
X4321605Y25267343D01*
X4311665Y25284559D01*
X4255810Y25340414D01*
X4187401Y25379910D01*
X4111101Y25400354D01*
X4032109Y25400354D01*
X3955809Y25379910D01*
X3887400Y25340414D01*
X3831545Y25284559D01*
X3821605Y25267343D01*
X3821605Y26070219D01*
X3821604Y26070220D01*
X3779921Y26061928D01*
X3779913Y26061926D01*
X3597933Y25986548D01*
X3597920Y25986541D01*
X3434142Y25877107D01*
X3434138Y25877104D01*
X3294856Y25737822D01*
X3294853Y25737818D01*
X3185419Y25574040D01*
X3185416Y25574034D01*
X3163904Y25522099D01*
X3120062Y25467696D01*
X3053768Y25445632D01*
X2986069Y25462912D01*
X2974649Y25470642D01*
X2854443Y25540042D01*
X2854442Y25540043D01*
X2854441Y25540043D01*
X2720788Y25575855D01*
X2582422Y25575855D01*
X2448769Y25540043D01*
X2448766Y25540042D01*
X2328943Y25470863D01*
X2328938Y25470859D01*
X2231101Y25373022D01*
X2231097Y25373017D01*
X2161918Y25253194D01*
X2161917Y25253191D01*
X2126105Y25119538D01*
X-2612895Y25119538D01*
X-2648707Y25253191D01*
X-2717890Y25373020D01*
X-2815730Y25470860D01*
X-2815731Y25470861D01*
X-2815734Y25470863D01*
X-2935557Y25540042D01*
X-2935558Y25540043D01*
X-2935559Y25540043D01*
X-3069212Y25575855D01*
X-3207578Y25575855D01*
X-3341231Y25540043D01*
X-3341234Y25540042D01*
X-3461057Y25470863D01*
X-3467505Y25465914D01*
X-3469512Y25468530D01*
X-3517404Y25442424D01*
X-3587092Y25447460D01*
X-3642995Y25489373D01*
X-3658235Y25516159D01*
X-3682206Y25574033D01*
X-3682210Y25574040D01*
X-3791644Y25737818D01*
X-3791647Y25737822D01*
X-3930929Y25877104D01*
X-3930933Y25877107D01*
X-4094711Y25986541D01*
X-4094724Y25986548D01*
X-4276704Y26061926D01*
X-4276712Y26061928D01*
X-4318395Y26070220D01*
X-4318395Y25267343D01*
X-4328335Y25284559D01*
X-4384190Y25340414D01*
X-4452599Y25379910D01*
X-4528899Y25400354D01*
X-4607891Y25400354D01*
X-4684191Y25379910D01*
X-4752600Y25340414D01*
X-4808455Y25284559D01*
X-4818395Y25267343D01*
X-4818395Y26070219D01*
X-4818396Y26070220D01*
X-4860079Y26061928D01*
X-4860087Y26061926D01*
X-5042067Y25986548D01*
X-5042080Y25986541D01*
X-5205858Y25877107D01*
X-5205862Y25877104D01*
X-5345144Y25737822D01*
X-5345147Y25737818D01*
X-5454581Y25574040D01*
X-5454588Y25574027D01*
X-5529965Y25392049D01*
X-5529968Y25392037D01*
X-5568395Y25198851D01*
X-24235439Y25198851D01*
X-24236169Y25200024D01*
X-24348431Y25419101D01*
X-24348431Y25419102D01*
X-24353271Y25428546D01*
X-24357399Y25441761D01*
X-24371238Y25463609D01*
X-24383036Y25486633D01*
X-24385217Y25489043D01*
X-24398008Y25505871D01*
X-24404525Y25516159D01*
X-24483886Y25641452D01*
X-24493783Y25664069D01*
X-24509193Y25681404D01*
X-24514582Y25689913D01*
X-24514583Y25689914D01*
X-24517310Y25694220D01*
X-24517314Y25694224D01*
X-24524143Y25700514D01*
X-24537389Y25714795D01*
X-24713988Y25938066D01*
X-24722164Y25949720D01*
X-24744964Y25986548D01*
X-24878424Y26202126D01*
X-24885210Y26214639D01*
X-24933494Y26317344D01*
X-25011514Y26483300D01*
X-25016819Y26496505D01*
X-25081039Y26687357D01*
X-25111496Y26777869D01*
X-25115252Y26791594D01*
X-25139351Y26904815D01*
X-25177053Y27081947D01*
X-25179212Y27096017D01*
X-25207329Y27391565D01*
X-25207860Y27405763D01*
X-25203528Y27622026D01*
X-24050499Y27622026D01*
X-24050499Y27377972D01*
X-24012320Y27136923D01*
X-23936903Y26904814D01*
X-23826106Y26687361D01*
X-23826103Y26687357D01*
X-23682660Y26489923D01*
X-23682656Y26489918D01*
X-23510081Y26317343D01*
X-23510076Y26317339D01*
X-23368720Y26214639D01*
X-23312638Y26173893D01*
X-23095184Y26063095D01*
X-22863075Y25987678D01*
X-22622026Y25949499D01*
X-22622025Y25949499D01*
X-22377973Y25949499D01*
X-22377972Y25949499D01*
X-22136923Y25987678D01*
X-21904814Y26063095D01*
X-21687360Y26173893D01*
X-21489916Y26317344D01*
X-21317344Y26489916D01*
X-21173893Y26687360D01*
X-21063095Y26904814D01*
X-20987678Y27136923D01*
X-20949499Y27377972D01*
X-20949499Y27622026D01*
X-20987678Y27863075D01*
X-21063095Y28095184D01*
X-21173893Y28312638D01*
X-21235930Y28398025D01*
X-21280108Y28458832D01*
X-21317339Y28510076D01*
X-21317343Y28510081D01*
X-21489918Y28682656D01*
X-21489923Y28682660D01*
X-21687357Y28826103D01*
X-21687358Y28826104D01*
X-21687360Y28826105D01*
X-21904814Y28936903D01*
X-22136923Y29012320D01*
X-22136925Y29012321D01*
X-22136927Y29012321D01*
X-22305230Y29038978D01*
X-22377972Y29050499D01*
X-22622026Y29050499D01*
X-22677906Y29041649D01*
X-22863072Y29012321D01*
X-23095187Y28936902D01*
X-23312642Y28826103D01*
X-23510076Y28682660D01*
X-23510081Y28682656D01*
X-23682656Y28510081D01*
X-23682660Y28510076D01*
X-23826103Y28312642D01*
X-23936902Y28095187D01*
X-24012321Y27863072D01*
X-24035493Y27716771D01*
X-24050499Y27622026D01*
X-25203528Y27622026D01*
X-25201915Y27702583D01*
X-25200813Y27716771D01*
X-25181823Y27856684D01*
X-25160889Y28010934D01*
X-25158168Y28024904D01*
X-25140240Y28095184D01*
X-25084788Y28312562D01*
X-25080488Y28326115D01*
X-24974619Y28603472D01*
X-24968789Y28616452D01*
X-24943630Y28664835D01*
X-24831827Y28879845D01*
X-24824560Y28892052D01*
X-24658303Y29138022D01*
X-24649679Y29149323D01*
X-24456328Y29374611D01*
X-24446474Y29384842D01*
X-24228572Y29586486D01*
X-24217598Y29595530D01*
X-23978021Y29770868D01*
X-23966101Y29778582D01*
X-23707988Y29925316D01*
X-23695260Y29931613D01*
X-23422051Y30047785D01*
X-23408681Y30052584D01*
X-23123953Y30136678D01*
X-23110103Y30139917D01*
X-22817617Y30190819D01*
X-22803510Y30192447D01*
X-22503538Y30209696D01*
X-22496455Y30209898D01*
X-5168267Y30205336D01*
G37*
%TD.AperFunction*%
%TD*%
M02*
