%TF.GenerationSoftware,KiCad,Pcbnew,10.0.0-rc1*%
%TF.CreationDate,2026-04-12T19:35:55+01:00*%
%TF.ProjectId,Lyra-v0.2,4c797261-2d76-4302-9e32-2e6b69636164,rev?*%
%TF.SameCoordinates,Original*%
%TF.FileFunction,Legend,Top*%
%TF.FilePolarity,Positive*%
%FSLAX46Y46*%
G04 Gerber Fmt 4.6, Leading zero omitted, Abs format (unit mm)*
G04 Created by KiCad (PCBNEW 10.0.0-rc1) date 2026-04-12 19:35:55*
%MOMM*%
%LPD*%
G01*
G04 APERTURE LIST*
G04 Aperture macros list*
%AMRotRect*
0 Rectangle, with rotation*
0 The origin of the aperture is its center*
0 $1 length*
0 $2 width*
0 $3 Rotation angle, in degrees counterclockwise*
0 Add horizontal line*
21,1,$1,$2,0,0,$3*%
%AMFreePoly0*
4,1,13,0.335355,0.685355,0.350000,0.650000,0.350000,-0.650000,0.335355,-0.685355,0.300000,-0.700000,-0.300000,-0.700000,-0.335355,-0.685355,-0.350000,-0.650000,-0.350000,0.650000,-0.335355,0.685355,-0.300000,0.700000,0.300000,0.700000,0.335355,0.685355,0.335355,0.685355,$1*%
%AMFreePoly1*
4,1,16,-0.248718,0.159984,0.141282,0.149984,0.172009,0.138411,0.292009,0.038411,0.309795,0.004527,0.310000,0.000000,0.310000,-0.100000,0.295355,-0.135355,0.260000,-0.150000,-0.250000,-0.150000,-0.285355,-0.135355,-0.300000,-0.100000,-0.300000,0.110000,-0.285355,0.145355,-0.250000,0.160000,-0.248718,0.159984,-0.248718,0.159984,$1*%
%AMFreePoly2*
4,1,15,0.295355,0.135355,0.310000,0.100000,0.310000,0.000000,0.295355,-0.035355,0.292009,-0.038411,0.172009,-0.138411,0.140000,-0.150000,-0.250000,-0.150000,-0.285355,-0.135355,-0.300000,-0.100000,-0.300000,0.100000,-0.285355,0.135355,-0.250000,0.150000,0.260000,0.150000,0.295355,0.135355,0.295355,0.135355,$1*%
%AMFreePoly3*
4,1,15,0.135355,0.295355,0.150000,0.260000,0.150000,-0.250000,0.135355,-0.285355,0.100000,-0.300000,-0.100000,-0.300000,-0.135355,-0.285355,-0.150000,-0.250000,-0.150000,0.140000,-0.138411,0.172009,-0.038411,0.292009,-0.004527,0.309795,0.000000,0.310000,0.100000,0.310000,0.135355,0.295355,0.135355,0.295355,$1*%
%AMFreePoly4*
4,1,15,0.035355,0.295355,0.038411,0.292009,0.138411,0.172009,0.150000,0.140000,0.150000,-0.250000,0.135355,-0.285355,0.100000,-0.300000,-0.100000,-0.300000,-0.135355,-0.285355,-0.150000,-0.250000,-0.150000,0.260000,-0.135355,0.295355,-0.100000,0.310000,0.000000,0.310000,0.035355,0.295355,0.035355,0.295355,$1*%
%AMFreePoly5*
4,1,15,0.285355,0.135355,0.300000,0.100000,0.300000,-0.100000,0.285355,-0.135355,0.250000,-0.150000,-0.140000,-0.150000,-0.172009,-0.138411,-0.292009,-0.038411,-0.309795,-0.004527,-0.310000,0.000000,-0.310000,0.100000,-0.295355,0.135355,-0.260000,0.150000,0.250000,0.150000,0.285355,0.135355,0.285355,0.135355,$1*%
%AMFreePoly6*
4,1,15,0.285355,0.135355,0.300000,0.100000,0.300000,-0.100000,0.285355,-0.135355,0.250000,-0.150000,-0.260000,-0.150000,-0.295355,-0.135355,-0.310000,-0.100000,-0.310000,0.000000,-0.295355,0.035355,-0.292009,0.038411,-0.172009,0.138411,-0.140000,0.150000,0.250000,0.150000,0.285355,0.135355,0.285355,0.135355,$1*%
%AMFreePoly7*
4,1,15,0.135355,0.285355,0.150000,0.250000,0.150000,-0.140000,0.138411,-0.172009,0.038411,-0.292009,0.004527,-0.309795,0.000000,-0.310000,-0.100000,-0.310000,-0.135355,-0.295355,-0.150000,-0.260000,-0.150000,0.250000,-0.135355,0.285355,-0.100000,0.300000,0.100000,0.300000,0.135355,0.285355,0.135355,0.285355,$1*%
%AMFreePoly8*
4,1,15,0.135355,0.285355,0.150000,0.250000,0.150000,-0.260000,0.135355,-0.295355,0.100000,-0.310000,0.000000,-0.310000,-0.035355,-0.295355,-0.038411,-0.292009,-0.138411,-0.172009,-0.150000,-0.140000,-0.150000,0.250000,-0.135355,0.285355,-0.100000,0.300000,0.100000,0.300000,0.135355,0.285355,0.135355,0.285355,$1*%
G04 Aperture macros list end*
%ADD10C,0.300000*%
%ADD11C,0.200000*%
%ADD12C,0.150000*%
%ADD13C,0.250000*%
%ADD14C,3.000000*%
%ADD15R,0.280000X0.600000*%
%ADD16R,1.700000X0.300000*%
%ADD17R,0.540000X0.500000*%
%ADD18R,3.400000X3.400000*%
%ADD19R,0.200000X0.880000*%
%ADD20R,0.880000X0.200000*%
%ADD21R,0.300000X1.300000*%
%ADD22FreePoly0,180.000000*%
%ADD23O,1.200000X2.000000*%
%ADD24O,1.200000X1.800000*%
%ADD25C,0.750000*%
%ADD26R,0.540000X0.570000*%
%ADD27R,0.500000X0.540000*%
%ADD28R,1.050000X0.400000*%
%ADD29O,1.050000X0.400000*%
%ADD30O,0.200000X0.600000*%
%ADD31O,0.800000X0.280000*%
%ADD32O,0.280000X0.800000*%
%ADD33R,1.700000X1.700000*%
%ADD34R,3.000000X1.200000*%
%ADD35R,2.400000X1.200000*%
%ADD36RotRect,0.570000X0.540000X315.000000*%
%ADD37R,1.300000X0.800000*%
%ADD38R,1.000000X1.600000*%
%ADD39RotRect,0.570000X0.540000X225.000000*%
%ADD40R,0.470000X0.530000*%
%ADD41R,1.400000X1.200000*%
%ADD42RotRect,0.500000X0.540000X45.000000*%
%ADD43R,0.600000X1.550000*%
%ADD44R,1.200000X1.800000*%
%ADD45R,1.860000X1.230000*%
%ADD46R,0.570000X0.540000*%
%ADD47RotRect,0.300000X0.500000X225.000000*%
%ADD48RotRect,0.300000X0.500000X135.000000*%
%ADD49RotRect,0.300000X0.500000X315.000000*%
%ADD50RotRect,0.300000X0.500000X45.000000*%
%ADD51R,0.800000X0.900000*%
%ADD52RotRect,0.500000X0.540000X315.000000*%
%ADD53R,4.500000X1.400000*%
%ADD54FreePoly1,180.000000*%
%ADD55R,0.510000X0.200000*%
%ADD56FreePoly2,180.000000*%
%ADD57FreePoly3,180.000000*%
%ADD58R,0.200000X0.510000*%
%ADD59FreePoly4,180.000000*%
%ADD60FreePoly5,180.000000*%
%ADD61FreePoly6,180.000000*%
%ADD62FreePoly7,180.000000*%
%ADD63FreePoly8,180.000000*%
G04 APERTURE END LIST*
D10*
X157834510Y-89399400D02*
X158977368Y-89399400D01*
X158405939Y-89970828D02*
X158405939Y-88827971D01*
X161484510Y-89329400D02*
X162627368Y-89329400D01*
D11*
G36*
X162189568Y-92204109D02*
G01*
X162267143Y-92220084D01*
X162327977Y-92246755D01*
X162353070Y-92263814D01*
X162374811Y-92283228D01*
X162393725Y-92305492D01*
X162409254Y-92329981D01*
X162422096Y-92358207D01*
X162431313Y-92388627D01*
X162437309Y-92423836D01*
X162439282Y-92461235D01*
X162437852Y-92492760D01*
X162425088Y-92552896D01*
X162414026Y-92578516D01*
X162399957Y-92601422D01*
X162382276Y-92622401D01*
X162361564Y-92640615D01*
X162335822Y-92657322D01*
X162306781Y-92670978D01*
X162337031Y-92685623D01*
X162381874Y-92719581D01*
X162399788Y-92740177D01*
X162414806Y-92763369D01*
X162426956Y-92789568D01*
X162435871Y-92818482D01*
X162441566Y-92851382D01*
X162443496Y-92887255D01*
X162438940Y-92942528D01*
X162421574Y-93001301D01*
X162391998Y-93050439D01*
X162372511Y-93071680D01*
X162349719Y-93090688D01*
X162323125Y-93107557D01*
X162292978Y-93121827D01*
X162258032Y-93133678D01*
X162219137Y-93142432D01*
X162174361Y-93148077D01*
X162125125Y-93150000D01*
X161705150Y-93150000D01*
X161682856Y-93148250D01*
X161652202Y-93136477D01*
X161640938Y-93126151D01*
X161632653Y-93112914D01*
X161626753Y-93093935D01*
X161624794Y-93071048D01*
X161624794Y-92968832D01*
X161791062Y-92968832D01*
X161791300Y-92972175D01*
X161796233Y-92980081D01*
X161807304Y-92982327D01*
X162129338Y-92982327D01*
X162164065Y-92980201D01*
X162211282Y-92967361D01*
X162244053Y-92944410D01*
X162256207Y-92928538D01*
X162265017Y-92910147D01*
X162270984Y-92886761D01*
X162272953Y-92860511D01*
X162271205Y-92835650D01*
X162258507Y-92796650D01*
X162247531Y-92780891D01*
X162233469Y-92767668D01*
X162214819Y-92756264D01*
X162192566Y-92747866D01*
X162163234Y-92742047D01*
X162129338Y-92740099D01*
X161791062Y-92740099D01*
X161791062Y-92968832D01*
X161624794Y-92968832D01*
X161624794Y-92381550D01*
X161791062Y-92381550D01*
X161791062Y-92598988D01*
X162125125Y-92598988D01*
X162158741Y-92597372D01*
X162207855Y-92586141D01*
X162240399Y-92565840D01*
X162252231Y-92551705D01*
X162260861Y-92534979D01*
X162266778Y-92513043D01*
X162268740Y-92487735D01*
X162266544Y-92460367D01*
X162253211Y-92422230D01*
X162242092Y-92406803D01*
X162227808Y-92393662D01*
X162209420Y-92382547D01*
X162187359Y-92374247D01*
X162159234Y-92368631D01*
X162126530Y-92366713D01*
X161807304Y-92366713D01*
X161798579Y-92368213D01*
X161792979Y-92373075D01*
X161791062Y-92381550D01*
X161624794Y-92381550D01*
X161624794Y-92279396D01*
X161626552Y-92257613D01*
X161638410Y-92227555D01*
X161648888Y-92216415D01*
X161662372Y-92208195D01*
X161681723Y-92202337D01*
X161705150Y-92200383D01*
X162120912Y-92200383D01*
X162189568Y-92204109D01*
G37*
G36*
X163200091Y-92201951D02*
G01*
X163288039Y-92215166D01*
X163362423Y-92240579D01*
X163425211Y-92277503D01*
X163452778Y-92300400D01*
X163477794Y-92326279D01*
X163500621Y-92355712D01*
X163520731Y-92388246D01*
X163538665Y-92425233D01*
X163553603Y-92465558D01*
X163566001Y-92511401D01*
X163575022Y-92560919D01*
X163580821Y-92617079D01*
X163582766Y-92677329D01*
X163581260Y-92730498D01*
X163568299Y-92832169D01*
X163543667Y-92916216D01*
X163508593Y-92985348D01*
X163463355Y-93041713D01*
X163436585Y-93065681D01*
X163407225Y-93086638D01*
X163374237Y-93105119D01*
X163338556Y-93120408D01*
X163298228Y-93133037D01*
X163255005Y-93142168D01*
X163205996Y-93148044D01*
X163153815Y-93150000D01*
X163024977Y-93150000D01*
X162979931Y-93148554D01*
X162891076Y-93135642D01*
X162816269Y-93110623D01*
X162753363Y-93074222D01*
X162725812Y-93051644D01*
X162700823Y-93026103D01*
X162678041Y-92997040D01*
X162657979Y-92964889D01*
X162640081Y-92928279D01*
X162625176Y-92888331D01*
X162612789Y-92842794D01*
X162603778Y-92793558D01*
X162597971Y-92737519D01*
X162596025Y-92677329D01*
X162765163Y-92677329D01*
X162767937Y-92742985D01*
X162781416Y-92820381D01*
X162804347Y-92877619D01*
X162836555Y-92920403D01*
X162857001Y-92937700D01*
X162880200Y-92951976D01*
X162908513Y-92964124D01*
X162940196Y-92972914D01*
X162980318Y-92978944D01*
X163024977Y-92980922D01*
X163153815Y-92980922D01*
X163200984Y-92978664D01*
X163265360Y-92965506D01*
X163314894Y-92941674D01*
X163335612Y-92925444D01*
X163353736Y-92906226D01*
X163370120Y-92882590D01*
X163383724Y-92855443D01*
X163395609Y-92821204D01*
X163404245Y-92782433D01*
X163410250Y-92732321D01*
X163412224Y-92675924D01*
X163409288Y-92608393D01*
X163395557Y-92530820D01*
X163372368Y-92473260D01*
X163339953Y-92430192D01*
X163319487Y-92412812D01*
X163296301Y-92398458D01*
X163268205Y-92386299D01*
X163236820Y-92377494D01*
X163197489Y-92371495D01*
X163153815Y-92369521D01*
X163024977Y-92369521D01*
X162976219Y-92372012D01*
X162912370Y-92385629D01*
X162862856Y-92410064D01*
X162842055Y-92426665D01*
X162823847Y-92446271D01*
X162807378Y-92470318D01*
X162793699Y-92497868D01*
X162781782Y-92532412D01*
X162773121Y-92571418D01*
X162767135Y-92621343D01*
X162765163Y-92677329D01*
X162596025Y-92677329D01*
X162597688Y-92621495D01*
X162610988Y-92519724D01*
X162635983Y-92435349D01*
X162671435Y-92365818D01*
X162717016Y-92309092D01*
X162743907Y-92284987D01*
X162773364Y-92263907D01*
X162806351Y-92245353D01*
X162841986Y-92230000D01*
X162882097Y-92217351D01*
X162925027Y-92208206D01*
X162973474Y-92202338D01*
X163024977Y-92200383D01*
X163153815Y-92200383D01*
X163200091Y-92201951D01*
G37*
G36*
X164342170Y-92201951D02*
G01*
X164430119Y-92215166D01*
X164504503Y-92240579D01*
X164567291Y-92277503D01*
X164594857Y-92300400D01*
X164619874Y-92326279D01*
X164642701Y-92355712D01*
X164662811Y-92388246D01*
X164680744Y-92425233D01*
X164695683Y-92465558D01*
X164708081Y-92511401D01*
X164717101Y-92560919D01*
X164722901Y-92617079D01*
X164724846Y-92677329D01*
X164723339Y-92730498D01*
X164710379Y-92832169D01*
X164685747Y-92916216D01*
X164650672Y-92985348D01*
X164605434Y-93041713D01*
X164578665Y-93065681D01*
X164549304Y-93086638D01*
X164516317Y-93105119D01*
X164480635Y-93120408D01*
X164440307Y-93133037D01*
X164397084Y-93142168D01*
X164348076Y-93148044D01*
X164295894Y-93150000D01*
X164167056Y-93150000D01*
X164122011Y-93148554D01*
X164033155Y-93135642D01*
X163958349Y-93110623D01*
X163895443Y-93074222D01*
X163867891Y-93051644D01*
X163842903Y-93026103D01*
X163820121Y-92997040D01*
X163800058Y-92964889D01*
X163782161Y-92928279D01*
X163767256Y-92888331D01*
X163754868Y-92842794D01*
X163745857Y-92793558D01*
X163740051Y-92737519D01*
X163738105Y-92677329D01*
X163907243Y-92677329D01*
X163910016Y-92742985D01*
X163923496Y-92820381D01*
X163946426Y-92877619D01*
X163978634Y-92920403D01*
X163999081Y-92937700D01*
X164022279Y-92951976D01*
X164050593Y-92964124D01*
X164082276Y-92972914D01*
X164122398Y-92978944D01*
X164167056Y-92980922D01*
X164295894Y-92980922D01*
X164343064Y-92978664D01*
X164407439Y-92965506D01*
X164456973Y-92941674D01*
X164477692Y-92925444D01*
X164495816Y-92906226D01*
X164512199Y-92882590D01*
X164525803Y-92855443D01*
X164537688Y-92821204D01*
X164546325Y-92782433D01*
X164552329Y-92732321D01*
X164554303Y-92675924D01*
X164551368Y-92608393D01*
X164537637Y-92530820D01*
X164514447Y-92473260D01*
X164482032Y-92430192D01*
X164461566Y-92412812D01*
X164438380Y-92398458D01*
X164410284Y-92386299D01*
X164378900Y-92377494D01*
X164339569Y-92371495D01*
X164295894Y-92369521D01*
X164167056Y-92369521D01*
X164118298Y-92372012D01*
X164054449Y-92385629D01*
X164004936Y-92410064D01*
X163984134Y-92426665D01*
X163965926Y-92446271D01*
X163949458Y-92470318D01*
X163935779Y-92497868D01*
X163923862Y-92532412D01*
X163915200Y-92571418D01*
X163909215Y-92621343D01*
X163907243Y-92677329D01*
X163738105Y-92677329D01*
X163739768Y-92621495D01*
X163753067Y-92519724D01*
X163778063Y-92435349D01*
X163813515Y-92365818D01*
X163859096Y-92309092D01*
X163885987Y-92284987D01*
X163915444Y-92263907D01*
X163948431Y-92245353D01*
X163984065Y-92230000D01*
X164024177Y-92217351D01*
X164067107Y-92208206D01*
X164115554Y-92202338D01*
X164167056Y-92200383D01*
X164295894Y-92200383D01*
X164342170Y-92201951D01*
G37*
G36*
X164812651Y-92200383D02*
G01*
X164812651Y-92369521D01*
X165088463Y-92369521D01*
X165088463Y-93150000D01*
X165259005Y-93150000D01*
X165259005Y-92369521D01*
X165534755Y-92369521D01*
X165534755Y-92200383D01*
X164812651Y-92200383D01*
G37*
G36*
X151551985Y-116680383D02*
G01*
X151551985Y-116849521D01*
X152071917Y-116849521D01*
X152099236Y-116851419D01*
X152123139Y-116856882D01*
X152143274Y-116865341D01*
X152160295Y-116876563D01*
X152185530Y-116906442D01*
X152199338Y-116946050D01*
X152201549Y-116972498D01*
X152199551Y-116998774D01*
X152193381Y-117023828D01*
X152184089Y-117044557D01*
X152171044Y-117063032D01*
X152155979Y-117077202D01*
X152137598Y-117088635D01*
X152117050Y-117096534D01*
X152093299Y-117101230D01*
X152071917Y-117102435D01*
X151703721Y-117102435D01*
X151668376Y-117104421D01*
X151638033Y-117110509D01*
X151616233Y-117118974D01*
X151597816Y-117130611D01*
X151583804Y-117144200D01*
X151572518Y-117160657D01*
X151557702Y-117203440D01*
X151553389Y-117254232D01*
X151553389Y-117630000D01*
X151722466Y-117630000D01*
X151722466Y-117286411D01*
X151724427Y-117274668D01*
X151730335Y-117267652D01*
X151744326Y-117264551D01*
X151989607Y-117264551D01*
X152205212Y-117630000D01*
X152393157Y-117630000D01*
X152172850Y-117251240D01*
X152204659Y-117240299D01*
X152233414Y-117226456D01*
X152283022Y-117190288D01*
X152322394Y-117143269D01*
X152351243Y-117085663D01*
X152368247Y-117018494D01*
X152372091Y-116965476D01*
X152370119Y-116927547D01*
X152364133Y-116890838D01*
X152354691Y-116857641D01*
X152341479Y-116826240D01*
X152325514Y-116798627D01*
X152306053Y-116773197D01*
X152284214Y-116751283D01*
X152259075Y-116731854D01*
X152231452Y-116715602D01*
X152200598Y-116702151D01*
X152166767Y-116691803D01*
X152129645Y-116684648D01*
X152066299Y-116680383D01*
X151551985Y-116680383D01*
G37*
G36*
X152525720Y-116680383D02*
G01*
X152525720Y-117326955D01*
X152527670Y-117372395D01*
X152533508Y-117414218D01*
X152542441Y-117449965D01*
X152554723Y-117482530D01*
X152569437Y-117510437D01*
X152587128Y-117535458D01*
X152607182Y-117557015D01*
X152630027Y-117575814D01*
X152684313Y-117605194D01*
X152752184Y-117623704D01*
X152832855Y-117630000D01*
X153031669Y-117630000D01*
X153078071Y-117628049D01*
X153120799Y-117622211D01*
X153157317Y-117613278D01*
X153190589Y-117600997D01*
X153219049Y-117586314D01*
X153244563Y-117568665D01*
X153266467Y-117548734D01*
X153285564Y-117526041D01*
X153315275Y-117472394D01*
X153333906Y-117405694D01*
X153340209Y-117326955D01*
X153340209Y-116680383D01*
X153173879Y-116680383D01*
X153173879Y-117314316D01*
X153171910Y-117345277D01*
X153165939Y-117372864D01*
X153157199Y-117394441D01*
X153145160Y-117413158D01*
X153130861Y-117427991D01*
X153113566Y-117440169D01*
X153069637Y-117456292D01*
X153020434Y-117460922D01*
X152852456Y-117460922D01*
X152818832Y-117458987D01*
X152789596Y-117453254D01*
X152766666Y-117444812D01*
X152747190Y-117433390D01*
X152731784Y-117419834D01*
X152719341Y-117403729D01*
X152702820Y-117363302D01*
X152697606Y-117314316D01*
X152697606Y-116680383D01*
X152525720Y-116680383D01*
G37*
G36*
X153724281Y-116880785D02*
G01*
X153726234Y-116863775D01*
X153732093Y-116849770D01*
X153740476Y-116840149D01*
X153751878Y-116833248D01*
X153779724Y-116828272D01*
X153797909Y-116830273D01*
X153812587Y-116836463D01*
X153831751Y-116857771D01*
X153836755Y-116867657D01*
X154112505Y-117469471D01*
X154130184Y-117511914D01*
X154151141Y-117549328D01*
X154170302Y-117574774D01*
X154192318Y-117596667D01*
X154214553Y-117612952D01*
X154239594Y-117626123D01*
X154266597Y-117635721D01*
X154296677Y-117642164D01*
X154345329Y-117645631D01*
X154382352Y-117643706D01*
X154415930Y-117638047D01*
X154444894Y-117629277D01*
X154470701Y-117617387D01*
X154492806Y-117602955D01*
X154511928Y-117585852D01*
X154541263Y-117544156D01*
X154559066Y-117491694D01*
X154564293Y-117436620D01*
X154564293Y-116680383D01*
X154393750Y-116680383D01*
X154393750Y-117429537D01*
X154391829Y-117445409D01*
X154386196Y-117458712D01*
X154377777Y-117468537D01*
X154366462Y-117475634D01*
X154339712Y-117480767D01*
X154323078Y-117478895D01*
X154309200Y-117473610D01*
X154288111Y-117454234D01*
X154281277Y-117442665D01*
X154005587Y-116839752D01*
X153987487Y-116796716D01*
X153966040Y-116758853D01*
X153946823Y-116733706D01*
X153924719Y-116712104D01*
X153902455Y-116696139D01*
X153877342Y-116683274D01*
X153850215Y-116673963D01*
X153819942Y-116667809D01*
X153774106Y-116664752D01*
X153736789Y-116666676D01*
X153703030Y-116672328D01*
X153674006Y-116681072D01*
X153648205Y-116692915D01*
X153626156Y-116707275D01*
X153607125Y-116724278D01*
X153577987Y-116765722D01*
X153560344Y-116817920D01*
X153555204Y-116872480D01*
X153555204Y-117630000D01*
X153724281Y-117630000D01*
X153724281Y-116880785D01*
G37*
D10*
G36*
X165892191Y-92200575D02*
G01*
X165892191Y-93625000D01*
X166145806Y-93625000D01*
X166145806Y-92200575D01*
X165892191Y-92200575D01*
G37*
G36*
X166495959Y-92200575D02*
G01*
X166495959Y-92454282D01*
X167317897Y-92454282D01*
X167357796Y-92457155D01*
X167392570Y-92465535D01*
X167420653Y-92478200D01*
X167444025Y-92495172D01*
X167475775Y-92539474D01*
X167489001Y-92598424D01*
X167489264Y-92609071D01*
X167486110Y-92642816D01*
X167475751Y-92672637D01*
X167461653Y-92693256D01*
X167441605Y-92711282D01*
X167382024Y-92738978D01*
X167359205Y-92744993D01*
X166762855Y-92881646D01*
X166697369Y-92899488D01*
X166640949Y-92921374D01*
X166597997Y-92944378D01*
X166561380Y-92970889D01*
X166532384Y-92999148D01*
X166508329Y-93030763D01*
X166473550Y-93105199D01*
X166454026Y-93202884D01*
X166449797Y-93292341D01*
X166449797Y-93506572D01*
X166452736Y-93540903D01*
X166461586Y-93569371D01*
X166474013Y-93589226D01*
X166490910Y-93604716D01*
X166536891Y-93622375D01*
X166570331Y-93625000D01*
X167703038Y-93625000D01*
X167703038Y-93371384D01*
X166727776Y-93371384D01*
X166710158Y-93367378D01*
X166703624Y-93351060D01*
X166703413Y-93344914D01*
X166703413Y-93273381D01*
X166707105Y-93222776D01*
X166721229Y-93181381D01*
X166735931Y-93161645D01*
X166756520Y-93144953D01*
X166818726Y-93120699D01*
X167408847Y-92988258D01*
X167475354Y-92969962D01*
X167534018Y-92947327D01*
X167580140Y-92923175D01*
X167620190Y-92895276D01*
X167652167Y-92865784D01*
X167679065Y-92832838D01*
X167717381Y-92757977D01*
X167737643Y-92665896D01*
X167740773Y-92604858D01*
X167737860Y-92544772D01*
X167729194Y-92489269D01*
X167715738Y-92440875D01*
X167697284Y-92396735D01*
X167674862Y-92358283D01*
X167647968Y-92323887D01*
X167582041Y-92268082D01*
X167498225Y-92228235D01*
X167393806Y-92205242D01*
X167311577Y-92200575D01*
X166495959Y-92200575D01*
G37*
G36*
X168612354Y-92200575D02*
G01*
X168534780Y-92203508D01*
X168461827Y-92212318D01*
X168397288Y-92226033D01*
X168337001Y-92245007D01*
X168283522Y-92268013D01*
X168234027Y-92295824D01*
X168189885Y-92327395D01*
X168149597Y-92363504D01*
X168081386Y-92448451D01*
X168028394Y-92552593D01*
X167991089Y-92679040D01*
X167971329Y-92831697D01*
X167968927Y-92913886D01*
X167971846Y-93004231D01*
X167980556Y-93088389D01*
X167994080Y-93162395D01*
X168012673Y-93230872D01*
X168035050Y-93290981D01*
X168061923Y-93346089D01*
X168092043Y-93394498D01*
X168126248Y-93438273D01*
X168163747Y-93476740D01*
X168205093Y-93510757D01*
X168299415Y-93565595D01*
X168411455Y-93603295D01*
X168544360Y-93622786D01*
X168612354Y-93625000D01*
X169163366Y-93625000D01*
X169163366Y-93371384D01*
X168612354Y-93371384D01*
X168545865Y-93368420D01*
X168486075Y-93359398D01*
X168438638Y-93346208D01*
X168396217Y-93327985D01*
X168361354Y-93306531D01*
X168330608Y-93280548D01*
X168282067Y-93216251D01*
X168247429Y-93130311D01*
X168226966Y-93014315D01*
X168222634Y-92913886D01*
X168225591Y-92829957D01*
X168234570Y-92755204D01*
X168247547Y-92696922D01*
X168265399Y-92645357D01*
X168285884Y-92604277D01*
X168310544Y-92568453D01*
X168337828Y-92539250D01*
X168368999Y-92514544D01*
X168443329Y-92478179D01*
X168539448Y-92457941D01*
X168612354Y-92454282D01*
X169163366Y-92454282D01*
X169163366Y-92200575D01*
X168612354Y-92200575D01*
G37*
%TO.C,U8*%
D12*
X146085000Y-98720000D02*
X146085000Y-95560000D01*
X143935000Y-95560000D02*
X143935000Y-98720000D01*
D11*
X144345000Y-99170000D02*
G75*
G02*
X144145000Y-99170000I-100000J0D01*
G01*
X144145000Y-99170000D02*
G75*
G02*
X144345000Y-99170000I100000J0D01*
G01*
%TO.C,U1*%
D13*
X144910000Y-100610000D02*
G75*
G02*
X144650000Y-100610000I-130000J0D01*
G01*
X144650000Y-100610000D02*
G75*
G02*
X144910000Y-100610000I130000J0D01*
G01*
X152570000Y-107770000D02*
X152570000Y-107310000D01*
X152570000Y-101040000D02*
X152570000Y-100570000D01*
X152570000Y-100570000D02*
X152100000Y-100570000D01*
X152100000Y-107770000D02*
X152570000Y-107770000D01*
X145840000Y-100570000D02*
X145770000Y-100570000D01*
X145770000Y-100570000D02*
X145370000Y-100570000D01*
X145370000Y-107770000D02*
X145840000Y-107770000D01*
X145370000Y-107310000D02*
X145370000Y-107770000D01*
X145370000Y-100570000D02*
X145370000Y-101040000D01*
%TO.C,USBC1*%
X155840000Y-87390000D02*
X155840000Y-89250000D01*
X155840000Y-83670000D02*
X155840000Y-85150000D01*
X146900000Y-87390000D02*
X146900000Y-89250000D01*
X146900000Y-83670000D02*
X155840000Y-83670000D01*
X146900000Y-83670000D02*
X146900000Y-85150000D01*
%TO.C,U3*%
D11*
X154350000Y-92960000D02*
X154350000Y-92460000D01*
X154350000Y-94960000D02*
X154350000Y-94450000D01*
X154400000Y-92460000D02*
X154350000Y-92460000D01*
X154400000Y-94960000D02*
X154350000Y-94960000D01*
X156550000Y-92460000D02*
X156500000Y-92460000D01*
X156550000Y-92960000D02*
X156550000Y-92460000D01*
X156550000Y-94960000D02*
X156500000Y-94960000D01*
X156550000Y-94960000D02*
X156550000Y-94460000D01*
X157050000Y-94200000D02*
G75*
G02*
X156850000Y-94200000I-100000J0D01*
G01*
X156850000Y-94200000D02*
G75*
G02*
X157050000Y-94200000I100000J0D01*
G01*
%TO.C,U4*%
X157250000Y-96470000D02*
X157700000Y-96470000D01*
X157250000Y-96920000D02*
X157250000Y-96470000D01*
X157250000Y-99920000D02*
X157250000Y-99470000D01*
X157700000Y-99920000D02*
X157250000Y-99920000D01*
X160250000Y-96470000D02*
X160700000Y-96470000D01*
X160250000Y-99920000D02*
X160700000Y-99920000D01*
X160700000Y-96470000D02*
X160700000Y-96920000D01*
X160700000Y-99920000D02*
X160700000Y-99470000D01*
D10*
X156900001Y-96670000D02*
X156900001Y-96670000D01*
X156900001Y-96670000D01*
X156900001Y-96670000D01*
X156900001Y-96670000D01*
X156900001Y-96670000D01*
X156900001Y-96670001D01*
X156900001Y-96670001D01*
X156900001Y-96670001D01*
X156900001Y-96670001D01*
X156900001Y-96670001D01*
X156900001Y-96670001D01*
X156900001Y-96670001D01*
X156900000Y-96670001D01*
X156900000Y-96670001D01*
X156900000Y-96670001D01*
X156900000Y-96670001D01*
X156900000Y-96670001D01*
X156900000Y-96670001D01*
X156900000Y-96670001D01*
X156900000Y-96670001D01*
X156900000Y-96670001D01*
X156900000Y-96670001D01*
X156900000Y-96670001D01*
X156900000Y-96670001D01*
X156899999Y-96670001D01*
X156899999Y-96670001D01*
X156899999Y-96670001D01*
X156899999Y-96670001D01*
X156899999Y-96670001D01*
X156899999Y-96670001D01*
X156899999Y-96670000D01*
X156899999Y-96670000D01*
X156899999Y-96670000D01*
X156899999Y-96670000D01*
X156899999Y-96670000D01*
X156899999Y-96670000D01*
X156899999Y-96670000D02*
X156899999Y-96670000D01*
X156899999Y-96670000D01*
X156899999Y-96670000D01*
X156899999Y-96670000D01*
X156899999Y-96670000D01*
X156899999Y-96670000D01*
X156899999Y-96669999D01*
X156899999Y-96669999D01*
X156899999Y-96669999D01*
X156899999Y-96669999D01*
X156899999Y-96669999D01*
X156900000Y-96669999D01*
X156900000Y-96669999D01*
X156900000Y-96669999D01*
X156900000Y-96669999D01*
X156900000Y-96669999D01*
X156900000Y-96669999D01*
X156900000Y-96669999D01*
X156900000Y-96669999D01*
X156900000Y-96669999D01*
X156900000Y-96669999D01*
X156900000Y-96669999D01*
X156900000Y-96669999D01*
X156900001Y-96669999D01*
X156900001Y-96669999D01*
X156900001Y-96669999D01*
X156900001Y-96669999D01*
X156900001Y-96669999D01*
X156900001Y-96669999D01*
X156900001Y-96670000D01*
X156900001Y-96670000D01*
X156900001Y-96670000D01*
X156900001Y-96670000D01*
X156900001Y-96670000D01*
X156900001Y-96670000D01*
X156900001Y-96670000D01*
%TO.C,L2*%
D13*
X157030000Y-100780000D02*
X157030000Y-101460000D01*
X157030000Y-100780000D02*
X173030000Y-100780000D01*
X157030000Y-103120000D02*
X157030000Y-103460000D01*
X157030000Y-105120000D02*
X157030000Y-105460000D01*
X157030000Y-107120000D02*
X157030000Y-107460000D01*
X157030000Y-109120000D02*
X157030000Y-109460000D01*
X157030000Y-111120000D02*
X157030000Y-111460000D01*
X157030000Y-113120000D02*
X157030000Y-113460000D01*
X157030000Y-115120000D02*
X157030000Y-115460000D01*
X157030000Y-117120000D02*
X157030000Y-117800000D01*
X173030000Y-101460000D02*
X173030000Y-100780000D01*
X173030000Y-103460000D02*
X173030000Y-103120000D01*
X173030000Y-105460000D02*
X173030000Y-105120000D01*
X173030000Y-107460000D02*
X173030000Y-107120000D01*
X173030000Y-109460000D02*
X173030000Y-109120000D01*
X173030000Y-111460000D02*
X173030000Y-111120000D01*
X173030000Y-113460000D02*
X173030000Y-113120000D01*
X173030000Y-115460000D02*
X173030000Y-115120000D01*
X173030000Y-117800000D02*
X157030000Y-117800000D01*
X173030000Y-117800000D02*
X173030000Y-117120000D01*
X156650000Y-101040000D02*
G75*
G02*
X155890000Y-101040000I-380000J0D01*
G01*
X155890000Y-101040000D02*
G75*
G02*
X156650000Y-101040000I380000J0D01*
G01*
%TO.C,L1*%
X151240000Y-96605000D02*
X150700000Y-96605000D01*
X151240000Y-98205000D02*
X150700000Y-98205000D01*
X150200000Y-98505000D02*
G75*
G02*
X149940000Y-98505000I-130000J0D01*
G01*
X149940000Y-98505000D02*
G75*
G02*
X150200000Y-98505000I130000J0D01*
G01*
%TO.C,U2*%
D12*
X146720000Y-111860000D02*
X150780000Y-111860000D01*
X146720000Y-115220000D02*
X146720000Y-111860000D01*
X150780000Y-111860000D02*
X150780000Y-115220000D01*
X150780000Y-115220000D02*
X146720000Y-115220000D01*
X151010000Y-111630000D02*
X149150000Y-111630000D01*
X151010000Y-113290000D02*
X151010000Y-111630000D01*
%TO.C,CN1*%
D13*
X164510000Y-89750000D02*
X164509999Y-87140000D01*
X165430000Y-89750000D02*
X164510000Y-89750000D01*
X169410000Y-89750000D02*
X170490000Y-89750000D01*
X169490000Y-85490000D02*
X165590000Y-85490000D01*
X170490000Y-89750000D02*
X170490000Y-87150000D01*
X170090000Y-89260000D02*
G75*
G02*
X169850000Y-89260000I-120000J0D01*
G01*
X169850000Y-89260000D02*
G75*
G02*
X170090000Y-89260000I120000J0D01*
G01*
%TO.C,SW2*%
D12*
X151530000Y-111370000D02*
X151530000Y-115430000D01*
X151530000Y-111370000D02*
X151960000Y-111370000D01*
X151530000Y-115430000D02*
X151960000Y-115430000D01*
X154180000Y-111370000D02*
X154610000Y-111370000D01*
X154610000Y-111370000D02*
X154610000Y-115430000D01*
X154610000Y-115430000D02*
X154180000Y-115430000D01*
D13*
X153970000Y-113400000D02*
G75*
G02*
X152170000Y-113400000I-900000J0D01*
G01*
X152170000Y-113400000D02*
G75*
G02*
X153970000Y-113400000I900000J0D01*
G01*
%TO.C,U6*%
X140915119Y-91888096D02*
X141190891Y-91612324D01*
X141007043Y-91980020D02*
X140915119Y-91888096D01*
X142081845Y-90721370D02*
X142357617Y-90445598D01*
X142350546Y-93323523D02*
X142251551Y-93224528D01*
X142357617Y-90445598D02*
X142449541Y-90537522D01*
X142626318Y-93047751D02*
X142350546Y-93323523D01*
X143694049Y-91782030D02*
X143793044Y-91881025D01*
X143793044Y-91881025D02*
X143517272Y-92156797D01*
X142361050Y-93698289D02*
G75*
G02*
X142241048Y-93698289I-60001J0D01*
G01*
X142241048Y-93698289D02*
G75*
G02*
X142361050Y-93698289I60001J0D01*
G01*
%TO.C,SW1*%
D12*
X162090000Y-98250000D02*
X162520000Y-98250000D01*
X165170000Y-98250000D02*
X164740000Y-98250000D01*
X162090000Y-94190000D02*
X162090000Y-98250000D01*
X162090000Y-94190000D02*
X162520000Y-94190000D01*
X164740000Y-94190000D02*
X165170000Y-94190000D01*
X165170000Y-94190000D02*
X165170000Y-98250000D01*
D13*
X164530000Y-96220000D02*
G75*
G02*
X162730000Y-96220000I-900000J0D01*
G01*
X162730000Y-96220000D02*
G75*
G02*
X164530000Y-96220000I900000J0D01*
G01*
%TO.C,U7*%
X174732500Y-93120000D02*
X174732500Y-99620000D01*
X174732500Y-99620000D02*
X176222500Y-99620000D01*
X176222500Y-93120000D02*
X174732500Y-93120000D01*
X176222500Y-99620000D02*
X176222500Y-93120000D01*
X178922500Y-93820000D02*
X176222500Y-93820000D01*
X178922500Y-93820000D02*
X178922500Y-98870000D01*
X178922500Y-98870000D02*
X176222500Y-98870000D01*
X179722500Y-93020000D02*
X178922500Y-93820000D01*
X179752500Y-99700001D02*
X178922500Y-98870000D01*
X182322500Y-93020000D02*
X179722500Y-93020000D01*
X182322500Y-93020000D02*
X182322500Y-99700000D01*
X182322500Y-99700000D02*
X179752500Y-99700001D01*
X183122500Y-93820000D02*
X182322500Y-93020000D01*
X183122500Y-98900000D02*
X182322500Y-99700000D01*
X183122500Y-98900000D02*
X183122500Y-93820000D01*
X184222500Y-93820000D02*
X183122500Y-93820000D01*
X184222500Y-98900000D02*
X183122500Y-98900000D01*
X184222500Y-98900000D02*
X184222500Y-93820000D01*
%TO.C,U5*%
D12*
X142210000Y-111390000D02*
X142530000Y-111390000D01*
X142210000Y-111710000D02*
X142210000Y-111390000D01*
X142210000Y-114230000D02*
X142210000Y-114550000D01*
X142210000Y-114550000D02*
X142530000Y-114550000D01*
X145370000Y-111390000D02*
X145050000Y-111390000D01*
X145370000Y-111710000D02*
X145370000Y-111390000D01*
X145370000Y-114230000D02*
X145370000Y-114550000D01*
X145370000Y-114550000D02*
X145050000Y-114550000D01*
D11*
X145920000Y-114240000D02*
G75*
G02*
X145720000Y-114240000I-100000J0D01*
G01*
X145720000Y-114240000D02*
G75*
G02*
X145920000Y-114240000I100000J0D01*
G01*
%TD*%
%LPC*%
D14*
%TO.C,M5*%
X162110000Y-86610000D03*
%TD*%
%TO.C,M4*%
X158370000Y-86640000D03*
%TD*%
D15*
%TO.C,U8*%
X144255000Y-98650000D03*
X144755000Y-98650000D03*
X145255000Y-98650000D03*
X145755000Y-98650000D03*
X144255000Y-95630000D03*
X144755000Y-95630000D03*
X145255000Y-95630000D03*
X145755000Y-95630000D03*
D16*
X145005000Y-97140000D03*
%TD*%
D17*
%TO.C,C26*%
X143400000Y-96800000D03*
X143400000Y-95960000D03*
%TD*%
D14*
%TO.C,M1*%
X172830000Y-86680000D03*
%TD*%
%TO.C,M2*%
X141520000Y-116380000D03*
%TD*%
%TO.C,M3*%
X141530000Y-86670000D03*
%TD*%
D18*
%TO.C,U1*%
X148970000Y-104170000D03*
D19*
X146170000Y-100600000D03*
X146570000Y-100600000D03*
X146970000Y-100600000D03*
X147370000Y-100600000D03*
X147770000Y-100600000D03*
X148170000Y-100600000D03*
X148570000Y-100600000D03*
X148970000Y-100600000D03*
X149370000Y-100600000D03*
X149770000Y-100600000D03*
X150170000Y-100600000D03*
X150570000Y-100600000D03*
X150970000Y-100600000D03*
X151370000Y-100600000D03*
X151770000Y-100600000D03*
D20*
X152550000Y-101370000D03*
X152550000Y-101770000D03*
X152550000Y-102170000D03*
X152550000Y-102570000D03*
X152550000Y-102970000D03*
X152550000Y-103370000D03*
X152550000Y-103770000D03*
X152550000Y-104170000D03*
X152550000Y-104570000D03*
X152550000Y-104970000D03*
X152550000Y-105370000D03*
X152550000Y-105770000D03*
X152550000Y-106170000D03*
X152550000Y-106570000D03*
X152550000Y-106970000D03*
D19*
X151770000Y-107740000D03*
X151370000Y-107740000D03*
X150970000Y-107740000D03*
X150570000Y-107740000D03*
X150170000Y-107740000D03*
X149770000Y-107740000D03*
X149370000Y-107740000D03*
X148970000Y-107740000D03*
X148570000Y-107740000D03*
X148170000Y-107740000D03*
X147770000Y-107740000D03*
X147370000Y-107740000D03*
X146970000Y-107740000D03*
X146570000Y-107740000D03*
X146170000Y-107740000D03*
D20*
X145390000Y-106970000D03*
X145390000Y-106570000D03*
X145390000Y-106170000D03*
X145390000Y-105770000D03*
X145390000Y-105370000D03*
X145390000Y-104970000D03*
X145390000Y-104570000D03*
X145390000Y-104170000D03*
X145390000Y-103770000D03*
X145390000Y-103370000D03*
X145390000Y-102970000D03*
X145390000Y-102570000D03*
X145390000Y-102170000D03*
X145390000Y-101770000D03*
X145390000Y-101370000D03*
%TD*%
D21*
%TO.C,USBC1*%
X153120000Y-91240000D03*
X152120000Y-91240000D03*
X150620000Y-91240000D03*
X149620000Y-91240000D03*
D22*
X148970000Y-91240000D03*
X148170000Y-91240000D03*
D21*
X150120000Y-91240000D03*
X151120000Y-91240000D03*
X151620000Y-91240000D03*
X152620000Y-91240000D03*
D22*
X153770000Y-91240000D03*
X154570000Y-91240000D03*
D23*
X155700000Y-90480000D03*
D24*
X155700000Y-86300000D03*
X147040000Y-86300000D03*
D23*
X147040000Y-90480000D03*
D25*
X148470000Y-89980000D03*
X154270000Y-89980000D03*
%TD*%
D26*
%TO.C,R2*%
X148800000Y-110070000D03*
X148800000Y-109210000D03*
%TD*%
D27*
%TO.C,C3*%
X143180000Y-103370000D03*
X144020000Y-103370000D03*
%TD*%
D17*
%TO.C,C10*%
X147550000Y-110040000D03*
X147550000Y-109200000D03*
%TD*%
D28*
%TO.C,U3*%
X156120000Y-94050000D03*
D29*
X156120000Y-93350000D03*
D30*
X156200000Y-92550000D03*
X155700000Y-92550000D03*
X155200000Y-92550000D03*
X154700000Y-92550000D03*
D29*
X154770000Y-93350000D03*
X154770000Y-94050000D03*
D30*
X154700000Y-94850000D03*
X155200000Y-94850000D03*
X155700000Y-94850000D03*
X156200000Y-94850000D03*
%TD*%
D31*
%TO.C,U4*%
X157470000Y-97450000D03*
X157470000Y-97950000D03*
X157470000Y-98450000D03*
X157470000Y-98950000D03*
D32*
X158220000Y-99700000D03*
X158720000Y-99700000D03*
X159220000Y-99700000D03*
X159720000Y-99700000D03*
D31*
X160470000Y-98950000D03*
X160470000Y-98450000D03*
X160470000Y-97950000D03*
X160470000Y-97450000D03*
D32*
X159720000Y-96700000D03*
X159220000Y-96700000D03*
X158720000Y-96700000D03*
X158220000Y-96700000D03*
D33*
X158970000Y-98200000D03*
%TD*%
D26*
%TO.C,R6*%
X143440000Y-99510000D03*
X143440000Y-98650000D03*
%TD*%
D34*
%TO.C,L2*%
X157330000Y-102290000D03*
D35*
X157030000Y-104290000D03*
X157030000Y-106290000D03*
X157030000Y-108290000D03*
X157030000Y-110290000D03*
X157030000Y-112290000D03*
X157030000Y-114290000D03*
X157030000Y-116290000D03*
X173030000Y-116290000D03*
X173030000Y-114290000D03*
X173030000Y-112290000D03*
X173030000Y-110290000D03*
X173030000Y-108290000D03*
X173030000Y-106290000D03*
X173030000Y-104290000D03*
X173030000Y-102290000D03*
%TD*%
D36*
%TO.C,R12*%
X143241501Y-90367816D03*
X143849613Y-90975928D03*
%TD*%
D37*
%TO.C,L5*%
X155880000Y-96700000D03*
X155880000Y-98000000D03*
%TD*%
D38*
%TO.C,L1*%
X151970000Y-97405000D03*
X149970000Y-97405000D03*
%TD*%
D39*
%TO.C,R11*%
X143849612Y-92771979D03*
X143241500Y-93380091D03*
%TD*%
D40*
%TO.C,C12*%
X151485000Y-99430000D03*
X150455000Y-99430000D03*
%TD*%
D17*
%TO.C,C17*%
X161410000Y-98810000D03*
X161410000Y-97970000D03*
%TD*%
%TO.C,C19*%
X141550000Y-112910000D03*
X141550000Y-112070000D03*
%TD*%
D41*
%TO.C,U2*%
X149850000Y-112690000D03*
X147650000Y-112690000D03*
X147650000Y-114390000D03*
X149850000Y-114390000D03*
%TD*%
D17*
%TO.C,C21*%
X144389998Y-109890000D03*
X144389998Y-110730000D03*
%TD*%
D26*
%TO.C,R7*%
X152610000Y-93440000D03*
X152610000Y-92580000D03*
%TD*%
D27*
%TO.C,C16*%
X156610000Y-95760000D03*
X155770000Y-95760000D03*
%TD*%
D40*
%TO.C,C13*%
X151485000Y-98740000D03*
X150455000Y-98740000D03*
%TD*%
D27*
%TO.C,C8*%
X154710000Y-101370000D03*
X153870000Y-101370000D03*
%TD*%
%TO.C,C5*%
X143180000Y-100990000D03*
X144020000Y-100990000D03*
%TD*%
D26*
%TO.C,R1*%
X153590000Y-96890000D03*
X153590000Y-97750000D03*
%TD*%
D27*
%TO.C,C7*%
X154700000Y-107740000D03*
X153860000Y-107740000D03*
%TD*%
D42*
%TO.C,C23*%
X140879765Y-91004213D03*
X141473735Y-90410243D03*
%TD*%
D17*
%TO.C,C24*%
X154480000Y-105710000D03*
X154480000Y-106550000D03*
%TD*%
%TO.C,C4*%
X147430000Y-96960000D03*
X147430000Y-97800000D03*
%TD*%
D43*
%TO.C,CN1*%
X168970000Y-89890000D03*
X167970000Y-89890000D03*
X166970000Y-89890000D03*
X165970000Y-89890000D03*
D44*
X164670000Y-86010000D03*
X170270000Y-86010000D03*
%TD*%
D45*
%TO.C,SW2*%
X153070000Y-115580000D03*
X153070000Y-111220000D03*
%TD*%
D17*
%TO.C,C25*%
X155120000Y-105710000D03*
X155120000Y-106550000D03*
%TD*%
D26*
%TO.C,R4*%
X148180000Y-97820000D03*
X148180000Y-96960000D03*
%TD*%
D46*
%TO.C,R9*%
X154270000Y-95760000D03*
X155130000Y-95760000D03*
%TD*%
%TO.C,R10*%
X156300000Y-98770000D03*
X155440000Y-98770000D03*
%TD*%
D27*
%TO.C,C9*%
X154710000Y-104340000D03*
X153870000Y-104340000D03*
%TD*%
%TO.C,C15*%
X148060000Y-111330000D03*
X147220000Y-111330000D03*
%TD*%
%TO.C,C14*%
X148780000Y-110870000D03*
X149620000Y-110870000D03*
%TD*%
D47*
%TO.C,U6*%
X142788952Y-92672985D03*
X143142506Y-92319431D03*
D48*
X143319282Y-91619395D03*
D49*
X142965729Y-91265842D03*
X142612176Y-90912289D03*
D50*
X141912140Y-91089065D03*
X141558586Y-91442619D03*
D48*
X141381810Y-92142655D03*
X141735363Y-92496208D03*
X142088916Y-92849761D03*
%TD*%
D26*
%TO.C,R3*%
X151040000Y-110030000D03*
X151040000Y-110890000D03*
%TD*%
D51*
%TO.C,C18*%
X156560000Y-99590000D03*
X155160000Y-99590000D03*
%TD*%
D27*
%TO.C,C2*%
X154710000Y-103600000D03*
X153870000Y-103600000D03*
%TD*%
D17*
%TO.C,C1*%
X149600000Y-110040000D03*
X149600000Y-109200000D03*
%TD*%
%TO.C,C11*%
X153590000Y-99360000D03*
X153590000Y-98520000D03*
%TD*%
D27*
%TO.C,C6*%
X143180000Y-105370000D03*
X144020000Y-105370000D03*
%TD*%
D17*
%TO.C,C20*%
X141550000Y-110510000D03*
X141550000Y-111350000D03*
%TD*%
D26*
%TO.C,R8*%
X149620000Y-93440000D03*
X149620000Y-92580000D03*
%TD*%
D45*
%TO.C,SW1*%
X163630000Y-98400000D03*
X163630000Y-94040000D03*
%TD*%
D52*
%TO.C,C22*%
X140851480Y-92771979D03*
X141445450Y-93365949D03*
%TD*%
D26*
%TO.C,R5*%
X148960000Y-97820000D03*
X148960000Y-96960000D03*
%TD*%
D53*
%TO.C,U7*%
X172242500Y-99170000D03*
X172242500Y-96370000D03*
X172242500Y-93570000D03*
%TD*%
D54*
%TO.C,U5*%
X145220000Y-113970000D03*
D55*
X145220000Y-113570000D03*
X145220000Y-113170000D03*
X145220000Y-112770000D03*
X145220000Y-112370000D03*
D56*
X145220000Y-111970000D03*
D57*
X144790000Y-111540000D03*
D58*
X144390000Y-111540000D03*
X143990000Y-111540000D03*
X143590000Y-111540000D03*
X143190000Y-111540000D03*
D59*
X142790000Y-111540000D03*
D60*
X142360000Y-111970000D03*
D55*
X142360000Y-112370000D03*
X142360000Y-112770000D03*
X142360000Y-113170000D03*
X142360000Y-113570000D03*
D61*
X142360000Y-113970000D03*
D62*
X142790000Y-114400000D03*
D58*
X143190000Y-114400000D03*
X143590000Y-114400000D03*
X143990000Y-114400000D03*
X144390000Y-114400000D03*
D63*
X144790000Y-114400000D03*
%TD*%
%LPD*%
M02*
